<svg width="54" height="54" viewBox="0 0 54 54" fill="none" xmlns="http://www.w3.org/2000/svg">
<path fill-rule="evenodd" clip-rule="evenodd" d="M30.3887 16.6776L31.1388 16.6714L32.792 16.7639L36.1877 18.7746L34.0603 32.4833L30.296 39.951L25.9805 44.5634L23.1035 38.5676L20.8465 34.6468L16.0772 31.0196L13.877 20.0413L15.1655 17.4556L18.4355 16.776L19.4718 16.7675L21.1075 12.7792L22.8188 12.6222L24.6298 4.98779L27.3423 12.649L30.3887 16.6776Z" fill="white"/>
<path fill-rule="evenodd" clip-rule="evenodd" d="M31.5772 16.3499C31.5677 16.3492 31.5583 16.3488 31.5488 16.3489L18.489 16.4414C18.4673 16.4415 18.4457 16.4438 18.4245 16.4482L15.2882 17.0997C15.1945 17.1192 15.1141 17.1786 15.0684 17.2621L13.7035 19.757C13.6406 19.8248 13.6085 19.9176 13.6192 20.0124C13.6208 20.0398 13.6258 20.067 13.6344 20.0934L15.8608 31.0732C15.8623 31.1511 15.892 31.2288 15.9504 31.2898C15.9871 31.3282 16.0311 31.3556 16.0781 31.3721L20.5636 34.8301C20.5768 34.8497 20.5921 34.8677 20.6092 34.8838L22.9348 38.7134L22.9409 38.7251L25.8058 44.9153C25.8241 44.9604 25.853 45.0021 25.8922 45.0365C26.0272 45.1549 26.2333 45.1424 26.3527 45.0084L30.6519 40.1828C30.6708 40.1616 30.6869 40.138 30.6996 40.1126L34.4396 32.653C34.4609 32.6106 34.4724 32.5643 34.4737 32.5174L36.6559 18.8391C36.6626 18.8142 36.6663 18.7883 36.6668 18.7618C36.6684 18.6811 36.6395 18.604 36.5879 18.5445C36.5614 18.5134 36.5289 18.4872 36.4918 18.4677L33.3442 16.5263C33.3 16.4991 33.2499 16.4827 33.198 16.4786L31.5772 16.3499ZM34.1539 30.3815L35.9104 19.3716L32.7511 21.1581L33.5874 26.6569C33.5931 26.6785 33.5965 26.7007 33.5975 26.7231L34.1539 30.3815ZM33.1169 27.9012L33.7979 32.3787L29.253 36.7079L33.1169 27.9012ZM32.9338 26.6969L32.1169 21.3259L22.1666 21.8377L25.0765 34.1448L28.1997 37.4869L32.9338 26.6969ZM33.0335 34.0042L30.1347 39.786L26.897 43.42L28.581 38.2455L33.0335 34.0042ZM21.3963 34.9256L23.153 37.8185L24.2978 34.6711L21.3963 34.9256ZM24.1156 32.915L21.4902 21.811L14.722 20.4774L19.9759 27.5331C19.9937 27.557 20.0077 27.5826 20.018 27.609L24.1156 32.915ZM19.288 27.6987L14.5524 21.339L16.3948 30.4247L19.288 27.6987ZM16.6989 31.0309L20.9578 34.3141L24.1574 34.0335L19.6739 28.2278L16.6989 31.0309ZM26.0547 43.9018L23.5793 38.5533L24.9038 34.9121L27.9273 38.1475L26.0547 43.9018ZM15.5697 17.7027L18.5263 17.0886L31.5393 16.9964L33.067 17.1177L35.7032 18.7436L32.2998 20.6682L21.785 21.209L14.4429 19.7623L15.5697 17.7027Z" fill="#070618"/>
<path fill-rule="evenodd" clip-rule="evenodd" d="M24.7022 4.21186C24.8479 4.20435 24.981 4.29382 25.028 4.43094L27.7675 12.4272L31.5636 17.6154C31.6284 17.7039 31.6437 17.8189 31.6044 17.9211C31.5651 18.0233 31.4764 18.0988 31.3686 18.122L25.7484 19.3284C25.7225 19.3339 25.6959 19.3363 25.6694 19.3355L20.8069 19.1867C20.7571 19.1852 20.7083 19.1724 20.6642 19.1492L18.9137 18.2283C18.767 18.1511 18.7021 17.977 18.763 17.8237L20.8376 12.5959C20.8826 12.4826 20.9879 12.4039 21.1101 12.3923L22.6138 12.2497L24.4011 4.46325C24.4335 4.32204 24.5565 4.21938 24.7022 4.21186Z" fill="white"/>
<path fill-rule="evenodd" clip-rule="evenodd" d="M25.0319 4.43094C24.9849 4.29382 24.8518 4.20435 24.7061 4.21186C24.5604 4.21938 24.4374 4.32204 24.405 4.46325L22.6177 12.2497L21.114 12.3923C20.9918 12.4039 20.8865 12.4826 20.8415 12.5959L18.7669 17.8237C18.706 17.977 18.7709 18.1511 18.9176 18.2283L20.6681 19.1492C20.7122 19.1724 20.761 19.1852 20.8108 19.1867L25.6229 19.334C25.6587 19.3393 25.6945 19.3387 25.729 19.3325C25.7368 19.3314 25.7446 19.33 25.7523 19.3284L31.243 18.1498C31.3328 18.1586 31.4234 18.13 31.4917 18.07C31.5438 18.0335 31.5848 17.982 31.6083 17.9211C31.6476 17.8189 31.6323 17.7039 31.5675 17.6154L27.7714 12.4272L25.0319 4.43094ZM30.3684 17.6751L26.4951 18.5065L28.1817 16.403L30.3684 17.6751ZM28.0541 13.9155L30.1725 16.8107L28.393 15.7755L28.0541 13.9155ZM27.1626 12.6616L24.7851 5.72206L23.2498 12.4108L24.4374 14.2207C24.4531 14.2446 24.4655 14.2705 24.4744 14.2976L25.7944 18.3405L27.7525 15.8986L27.1626 12.6616ZM22.2071 12.939L22.7821 12.8845L23.1645 13.4673L22.2071 12.939ZM25.2175 18.6738L23.992 14.9205L19.6894 17.9016L20.9067 18.5419L25.2175 18.6738ZM21.3092 13.1843L19.7736 17.0536L23.5631 14.428L21.3092 13.1843Z" fill="#070618"/>
<circle cx="42" cy="42" r="11.5" fill="#070618" stroke="white"/>
<g clip-path="url(#clip0)">
<path d="M42.4985 39.5469V34L38 41.6391L42.4985 39.5469Z" fill="#8A92B2"/>
<path d="M42.4985 44.361V39.5468L38 41.6391L42.4985 44.361ZM42.4985 39.5468L46.9978 41.6391L42.4985 34V39.5468Z" fill="#62688F"/>
<path d="M42.498 39.5466V44.3608L46.9974 41.6389L42.498 39.5466Z" fill="#454A75"/>
<path d="M42.4985 45.2327L38 42.5127L42.4985 49.0003V45.2327Z" fill="#8A92B2"/>
<path d="M46.9998 42.5127L42.498 45.2327V49.0015L46.9998 42.5127Z" fill="#62688F"/>
</g>
<defs>
<clipPath id="clip0">
<rect width="9" height="15" fill="white" transform="translate(38 34)"/>
</clipPath>
</defs>
</svg>
