<svg id="Layer_1" data-name="Layer 1" xmlns="http://www.w3.org/2000/svg" viewBox="0 0 77 71.59"><defs><style>.cls-1{fill:#fff;}.cls-2{fill:#070618;}.cls-3{fill:#08061a;}.cls-4{fill:#95ffcb;}</style></defs><path class="cls-1" d="M2.47,37.28,9.83,46.2l2.73-1.35,6.66-1.75,2.54-3.69H24.5l.19-5.83L20.6,26.76l-3.69-2.59L7.69,33.93Z"/><path class="cls-2" d="M9.82,46.52a.31.31,0,0,1-.13,0,.31.31,0,0,1-.11-.09L2.23,37.48a.23.23,0,0,1-.06-.12.28.28,0,0,1,0-.13.31.31,0,0,1,0-.12A.2.2,0,0,1,2.3,37l5.19-3.33L16.68,24a.34.34,0,0,1,.2-.09.3.3,0,0,1,.21.05l3.69,2.6a.2.2,0,0,1,.09.09L25,33.42a.35.35,0,0,1,0,.17l-.19,5.83a.32.32,0,0,1-.1.21.31.31,0,0,1-.22.09H21.93l-2.45,3.56a.32.32,0,0,1-.18.12l-6.62,1.74L10,46.49ZM2.94,37.35l7,8.46,2.51-1.24.06,0L19,42.83l2.48-3.6a.52.52,0,0,1,.11-.1.4.4,0,0,1,.15,0h2.42l.19-5.43-4-6.69-3.41-2.4-9,9.56-.06,0Z"/><path class="cls-2" d="M12.35,40.78h0a.24.24,0,0,1-.11-.06.2.2,0,0,1,0-.11l.25-2.23-1.19-2.81L8.28,34A.16.16,0,0,1,8.21,34a.2.2,0,0,1,0-.1.19.19,0,0,1,.05-.09.18.18,0,0,1,.09,0l2.33-.33a.14.14,0,0,1,.11,0l3.53,2.13.06.06a.19.19,0,0,1,0,.08l0,3.13a.17.17,0,0,1,0,.12.16.16,0,0,1-.11.05.17.17,0,0,1-.12,0,.16.16,0,0,1-.05-.11l0-3.06-3.42-2.06L8.85,34l2.59,1.34a.27.27,0,0,1,.07.08l1.23,2.9a.22.22,0,0,1,0,.08l-.26,2.27a.41.41,0,0,1-.05.09l-.09,0Z"/><path class="cls-1" d="M3,37.88l1.38-.3,2.15,1.07-.77.3L5.62,40l2,.3L9.31,39.1v-.61l-1.54-3,.61-3.06L6.7,29.19l-1.54-.3-.31.61,1.38,3.35-.61,2-1.38-3.2-2.31-.3-.46.46v.76L3.31,33l.47,1.68L2.7,34.07H1.78L.4,35.6.24,37.12H1.63l.61-.46Z"/><path class="cls-2" d="M7.62,40.57h0l-2-.31a.22.22,0,0,1-.16-.09.24.24,0,0,1,0-.18l.15-1.07a.61.61,0,0,1,0-.12.26.26,0,0,1,.11-.07l.25-.11-1.58-.78-1.29.29a.25.25,0,0,1-.15,0A.27.27,0,0,1,2.8,38l-.62-1-.4.3a.3.3,0,0,1-.15,0H.25l-.1,0-.09-.06a.41.41,0,0,1,0-.09.34.34,0,0,1,0-.1l.16-1.53a.2.2,0,0,1,.06-.14L1.6,33.91a.16.16,0,0,1,.08-.06.18.18,0,0,1,.1,0H2.7a.28.28,0,0,1,.13,0l.56.32-.27-1-1.71-.43a.22.22,0,0,1-.13-.08.23.23,0,0,1-.05-.15v-.77a.23.23,0,0,1,.07-.17l.46-.45a.24.24,0,0,1,.09-.06.25.25,0,0,1,.12,0l2.3.3a.31.31,0,0,1,.12.05.23.23,0,0,1,.07.1l1.12,2.59L6,32.87,4.62,29.59a.3.3,0,0,1,0-.1.36.36,0,0,1,0-.1l.31-.61A.29.29,0,0,1,5,28.67a.3.3,0,0,1,.16,0l1.54.3.1.05a.27.27,0,0,1,.07.08l1.69,3.2a.23.23,0,0,1,0,.16l-.6,3,1.5,3a.2.2,0,0,1,0,.11v.61a.26.26,0,0,1,0,.11.27.27,0,0,1-.07.08L7.76,40.52a.24.24,0,0,1-.14,0ZM5.9,39.81l1.65.25L9.06,39v-.43l-1.51-3a.29.29,0,0,1,0-.16l.6-3-1.6-3L5.3,29.16l-.18.34,1.34,3.25a.25.25,0,0,1,0,.17l-.61,2a.25.25,0,0,1-.08.12.35.35,0,0,1-.14.06.42.42,0,0,1-.15,0,.31.31,0,0,1-.09-.11L4.06,31.85l-2-.27-.3.3v.47l1.66.42a.21.21,0,0,1,.1.06.23.23,0,0,1,.07.1L4,34.61a.22.22,0,0,1,0,.14.2.2,0,0,1-.08.12.21.21,0,0,1-.13.05.32.32,0,0,1-.14,0l-1-.58H1.87L.61,35.69.49,36.87h1l.54-.41.1,0a.17.17,0,0,1,.1,0l.09,0a.3.3,0,0,1,.08.08l.68,1.07,1.21-.27a.32.32,0,0,1,.17,0l2.16,1.07a.32.32,0,0,1,.1.1.28.28,0,0,1,0,.13.28.28,0,0,1,0,.13.31.31,0,0,1-.11.09L6,39.12Z"/><path class="cls-2" d="M8.36,34H8.29l-.06,0a.27.27,0,0,1,0-.12.16.16,0,0,1,.05-.11l5.95-4.83,0,0,6.3-2.29h.13a.29.29,0,0,1,.09.09s0,0,0,.07a.14.14,0,0,1,0,.06l0,.05-.06,0-6.27,2.28L8.46,34A.19.19,0,0,1,8.36,34Z"/><path class="cls-2" d="M7.41,38.8l-.88-.08,0-.15.82.08.38-.26-.92-2.24.63-3.67-1.2-2.54-1.43-.37,0-.15,1.5.39,1.25,2.65v0L7,36.13l1,2.32Z"/><path class="cls-2" d="M3.24,33,3,32.29l1.21-.72.07.13-1.09.65.21.63Z"/><path class="cls-2" d="M1.7,37.16l-.14-.07.93-1.85,1.25-.63.07.14-1.2.6Z"/><path class="cls-2" d="M22.38,33.9l-.72,5.5.19,0,.73-5.5Z"/><path class="cls-2" d="M12.63,44.92l-.13-.15,4.89-4,4.88-6.59.16.12-4.91,6.61Z"/><path class="cls-1" d="M74.55,36.43l-7.36,8.93L64.45,44,57.8,42.25l-2.54-3.69H52.52l-.2-5.82,4.1-6.83,3.69-2.59,9.21,9.76Z"/><path class="cls-2" d="M67.19,45.67a.35.35,0,0,1-.14,0l-2.71-1.35-6.62-1.74a.36.36,0,0,1-.18-.12L55.1,38.87H52.52a.31.31,0,0,1-.22-.09.29.29,0,0,1-.09-.21L52,32.75a.33.33,0,0,1,0-.17l4.1-6.83.09-.09,3.68-2.59a.3.3,0,0,1,.22-.06.35.35,0,0,1,.2.1l9.19,9.73,5.19,3.33a.43.43,0,0,1,.09.1.33.33,0,0,1,.05.12.57.57,0,0,1,0,.13.24.24,0,0,1-.06.11l-7.35,8.93a.36.36,0,0,1-.12.08.32.32,0,0,1-.14,0ZM58,42l6.53,1.72.06,0L67.11,45l7-8.46-4.93-3.17-.06-.05-9-9.56-3.41,2.4-4,6.69.18,5.43h2.44a.24.24,0,0,1,.15,0,.21.21,0,0,1,.11.1Z"/><path class="cls-2" d="M64.67,39.93a.15.15,0,0,1-.11,0,.14.14,0,0,1,0-.1l-.26-2.27a.22.22,0,0,1,0-.08l1.23-2.9a.18.18,0,0,1,.07-.08l2.59-1.34-1.79-.26L63,34.92l-.05,3a.11.11,0,0,1-.06.11.16.16,0,0,1-.11.05h-.07l0,0,0-.06a.13.13,0,0,1,0-.06l0-3.14a.19.19,0,0,1,0-.07s0,0,.06-.06l3.53-2.13a.2.2,0,0,1,.11,0l2.33.33a.2.2,0,0,1,.09,0,.22.22,0,0,1,0,.08.16.16,0,0,1,0,.1.12.12,0,0,1-.07.07l-3,1.57-1.19,2.8.25,2.23a.14.14,0,0,1,0,.11.17.17,0,0,1-.11.06Z"/><path class="cls-1" d="M74,37l-1.38-.31L70.48,37.8l.76.3.16,1.07-2,.31-1.69-1.22v-.61l1.54-3-.62-3.05,1.69-3.21,1.54-.3.31.61L70.78,32l.62,2,1.38-3.2,2.3-.31.47.46v.76l-1.85.46-.46,1.67,1.08-.61h.92l1.38,1.53.15,1.52H75.39l-.61-.45Z"/><path class="cls-2" d="M69.4,39.72a.23.23,0,0,1-.14,0l-1.7-1.22-.08-.09a.43.43,0,0,1,0-.11v-.61a.36.36,0,0,1,0-.11l1.5-3-.6-3a.25.25,0,0,1,0-.17l1.69-3.2a.23.23,0,0,1,.17-.12l1.53-.31a.29.29,0,0,1,.16,0,.2.2,0,0,1,.11.11l.31.61a.36.36,0,0,1,0,.1.3.3,0,0,1,0,.1L71,32l.39,1.26,1.12-2.59a.25.25,0,0,1,.08-.1.22.22,0,0,1,.11-.05l2.31-.3a.22.22,0,0,1,.11,0,.18.18,0,0,1,.09.06l.46.46a.21.21,0,0,1,.08.16v.77a.27.27,0,0,1,0,.15.29.29,0,0,1-.14.08l-1.71.43-.26,1,.55-.32a.28.28,0,0,1,.13,0h.92a.18.18,0,0,1,.1,0,.16.16,0,0,1,.08.06l1.38,1.52a.27.27,0,0,1,.07.14L77,36.25a.34.34,0,0,1,0,.1.41.41,0,0,1,0,.09.18.18,0,0,1-.09.06l-.1,0H75.37a.3.3,0,0,1-.15-.05l-.4-.3-.6,1a.31.31,0,0,1-.11.09.26.26,0,0,1-.15,0L72.66,37l-1.58.79.26.1a.23.23,0,0,1,.1.07.31.31,0,0,1,0,.12l.15,1.07a.28.28,0,0,1,0,.18.26.26,0,0,1-.16.09l-2,.31ZM68,38.13l1.5,1.09L71.12,39l-.1-.69L70.39,38a.2.2,0,0,1-.11-.09.21.21,0,0,1,0-.13.28.28,0,0,1,0-.13.21.21,0,0,1,.11-.1l2.15-1.07a.32.32,0,0,1,.17,0l1.21.27.68-1.07a.23.23,0,0,1,.07-.07.18.18,0,0,1,.1,0h.1l.09,0,.55.41h1l-.12-1.18-1.25-1.38h-.75l-1,.58-.14,0a.24.24,0,0,1-.14,0,.2.2,0,0,1-.08-.12.17.17,0,0,1,0-.14l.46-1.68a.21.21,0,0,1,.06-.1.41.41,0,0,1,.11-.07l1.65-.41V31l-.3-.3-2,.27-1.32,3.08a.35.35,0,0,1-.1.11.19.19,0,0,1-.15,0,.21.21,0,0,1-.13,0,.31.31,0,0,1-.09-.11l-.61-2a.25.25,0,0,1,0-.17l1.34-3.25-.17-.34-1.24.25-1.59,3,.59,3a.2.2,0,0,1,0,.15l-1.51,3Z"/><path class="cls-2" d="M68.66,33.19a.18.18,0,0,1-.1,0l-5.92-4.81-6.27-2.28a.06.06,0,0,1-.06,0,.12.12,0,0,1-.05-.05.13.13,0,0,1,0-.06.09.09,0,0,1,0-.07.09.09,0,0,1,0-.05.13.13,0,0,1,.06,0h.12l6.31,2.29,0,0,5.94,4.83a.17.17,0,0,1,.06.1.16.16,0,0,1,0,.12l-.06,0-.07,0Z"/><path class="cls-2" d="M69.61,38l-.54-.35,1-2.32-.63-3.67v0L70.65,29l1.49-.39,0,.14-1.42.38-1.2,2.53.63,3.67-.93,2.24.39.26.82-.08v.16Z"/><path class="cls-1" d="M50.76,20.12h2.15L61.32,23,53.2,34,51.44,49.34l-3.52.58-4.11,9.9-1.56.2L38.73,71.28h-.59L34.62,60l-1.57-.2L29,49.92l-3.52-.58L23.67,34l-9.05-9.95,9.83-4.42Z"/><path class="cls-2" d="M38.73,71.59h-.59a.3.3,0,0,1-.18-.06.28.28,0,0,1-.12-.16L34.38,60.3,33,60.13a.2.2,0,0,1-.15-.06.35.35,0,0,1-.11-.13l-4-9.74-3.34-.56a.31.31,0,0,1-.18-.09.37.37,0,0,1-.08-.18L23.37,34.13l-9-9.88a.4.4,0,0,1-.07-.13.33.33,0,0,1,0-.14.32.32,0,0,1,.17-.22l9.83-4.42a.31.31,0,0,1,.13,0l26.32.5h2.14l.11,0,8.41,2.91a.25.25,0,0,1,.12.08.32.32,0,0,1,.08.12.38.38,0,0,1,0,.15.21.21,0,0,1-.05.13l-8.07,10.9L51.76,49.38a.31.31,0,0,1-.09.18.26.26,0,0,1-.17.09l-3.35.56-4,9.74a.41.41,0,0,1-.1.13.47.47,0,0,1-.15.06l-1.37.17L39,71.38a.28.28,0,0,1-.11.15.33.33,0,0,1-.19.06ZM38.38,71h.12l3.45-11a.29.29,0,0,1,.09-.15.36.36,0,0,1,.17-.07l1.38-.17,4-9.73a.4.4,0,0,1,.1-.12.27.27,0,0,1,.14-.07l3.29-.54L52.89,34a.47.47,0,0,1,.06-.15l7.87-10.63-8-2.75h-2.1L24.52,20l-9.38,4.22L23.9,33.8A.38.38,0,0,1,24,34l1.74,15.1,3.29.54a.27.27,0,0,1,.14.07.23.23,0,0,1,.1.12l4,9.74,1.38.17a.24.24,0,0,1,.16.07.33.33,0,0,1,.1.14Z"/><path class="cls-2" d="M38.93,51.83h0l-10-1.75.06-.3,9.94,1.74,9-1.74.06.3Z"/><path class="cls-3" d="M43.62,59.63,38.53,60l-5.48-.58,2,1,3.72,1,3.51-.84Z"/><path class="cls-3" d="M29.51,50.7l9.22,2.13,8.89-2.26.5-1-9.39,2.14L28.56,49.53Z"/><path class="cls-3" d="M31.49,8.56l1.18,14.76L38.34,27l9.32-5L46,14V7.2l-7-4.46Z"/><path class="cls-1" d="M33,15.26,34.55,23l3.79,2.26,5.34-2.61L45,15.36l-6.66-1.53Z"/><path class="cls-2" d="M38.34,25.57a.25.25,0,0,1-.17,0l-3.79-2.26a.26.26,0,0,1-.09-.09.22.22,0,0,1,0-.11l-1.6-7.75a.35.35,0,0,1,0-.22.33.33,0,0,1,.19-.14l5.36-1.43a.2.2,0,0,1,.15,0L45,15.05a.33.33,0,0,1,.19.13.37.37,0,0,1,.05.23L44,22.7a.21.21,0,0,1,0,.13.27.27,0,0,1-.12.09l-5.34,2.61a.28.28,0,0,1-.12,0Zm-3.51-2.76,3.53,2.1,5-2.47,1.22-6.85-6.3-1.44-5,1.34Z"/><path class="cls-1" d="M50.86,20.28l-4.2-4.63,1.17-8.33L45.49,2.68,39,.31,32.2,2.68,29.87,7.32l.93,6.94-4.2,5.33,8.86,5.09-3-14.82,6.3-4.4,6.15,4.79L42.15,24.62Z"/><path class="cls-2" d="M35.47,25a.29.29,0,0,1-.16,0l-8.87-5.09a.76.76,0,0,1-.09-.09.31.31,0,0,1-.06-.13.41.41,0,0,1,.06-.25l4.12-5.22-.91-6.81a.28.28,0,0,1,0-.18l2.33-4.63a.3.3,0,0,1,.17-.16L38.92,0a.26.26,0,0,1,.21,0L45.6,2.39a.34.34,0,0,1,.18.15l2.33,4.63a.32.32,0,0,1,0,.19L47,15.55l4.1,4.52a.37.37,0,0,1,.07.12.3.3,0,0,1,0,.28.31.31,0,0,1-.11.09L42.29,24.9a.51.51,0,0,1-.17,0,.38.38,0,0,1-.16-.06.36.36,0,0,1-.11-.14.33.33,0,0,1,0-.17l2.7-14.19L38.72,5.84,32.78,10l3,14.62a.33.33,0,0,1,0,.14.34.34,0,0,1-.06.12L35.6,25a.32.32,0,0,1-.14,0Zm-8.4-5.49,8,4.56L32.13,9.92a.25.25,0,0,1,0-.17.26.26,0,0,1,.11-.14l6.3-4.41a.33.33,0,0,1,.19-.06.36.36,0,0,1,.18.07L45.07,10a.36.36,0,0,1,.11.14.37.37,0,0,1,0,.18L42.57,24.07l7.77-3.88-3.92-4.32a.37.37,0,0,1-.07-.12.33.33,0,0,1,0-.14l1.15-8.23L45.26,2.94,39,.65l-6.6,2.29L30.18,7.38l.92,6.85a.25.25,0,0,1,0,.12.37.37,0,0,1-.05.11Z"/><path class="cls-1" d="M32.86,2.69l-.39,2.57,1.14,4.29,4.33-3.39,2,.17,3.58,3.34L46,7.2l-.48-4.52L39,.5Z"/><path class="cls-2" d="M43.52,9.81,39.89,6.42,38,6.26,33.55,9.72,32.37,5.27l.4-2.65L39,.4l6.56,2.2.49,4.63ZM37.91,6.06,40,6.23l3.53,3.31,2.36-2.38-.47-4.4L39,.61,33,2.76l-.38,2.5,1.1,4.12Z"/><path class="cls-2" d="M32.76,19.06,31,8.61,29.8,7.38l.14-.13,1.25,1.27v0L33,19Z"/><path class="cls-2" d="M45.28,18.48l-.19,0,1-8.36,1.65-2.82.17.09-1.64,2.8Z"/><path class="cls-2" d="M38.54,71.25h-.19l.38-18.9L38.1,16.87h.2l.63,35.48Z"/><path class="cls-2" d="M36.39,1.27l-.19.06,1.65,4.88L38,6.15Z"/><path class="cls-2" d="M41.36,1.4,39.82,6.29l.19.06,1.54-4.89Z"/><path class="cls-4" d="M39.77,11.3l.14.41.87.74,1.42-.54,0-.64-1.17-1.15Z"/><path class="cls-4" d="M35.23,11.3l.13.41.88.74,1.41-.54.06-.64-1.18-1.15Z"/><path class="cls-3" d="M20,30.13l2.65,5.18L25,46.47,23.67,34Z"/><path class="cls-3" d="M52.52,38.56,54,34.62,59.8,25.1,53.21,34Z"/><path class="cls-2" d="M41.54,33.57,40,33.06l-1.61-3.17L37.18,33.1l-1.54,1,3.08,6.39Z"/><path class="cls-4" d="M37.25,34.61l.81-.5.45-1.22.65,1.28.74.24-1.26,3.07Z"/><path class="cls-4" d="M37.25,34.61l.81-.5.45-1.22.65,1.28.74.24-1.26,3.07Z"/><path class="cls-2" d="M41.61,33.65l-.13-.15,11.23-9.6.11-3.79H53L52.9,24l0,0Z"/><path class="cls-2" d="M24.67,20.68l-6.84,6.6.14.14,6.84-6.6Z"/><path class="cls-2" d="M23.76,34l-.19,0,1.27-6.67v0L26.16,25l.16.1L25,27.38Z"/><path class="cls-2" d="M53.11,34l-1.87-5.52v0l1.51-4.7,4.7,4-.12.14-4.48-3.81-1.42,4.4L53.3,34Z"/><path class="cls-2" d="M25.49,49.42l-.12-.16,13.36-8.93.05,0,12.73,8.89-.12.16L38.73,40.57Z"/><path class="cls-2" d="M43.67,59.86l-5-6.87L33,59.65l-1.71-8.6.19,0,1.64,8.21,5.62-6.54,4.84,6.72,2-8.39.19,0Z"/><path class="cls-2" d="M52.89,21.23l-.06.18,7.79,2.79.06-.18Z"/><path class="cls-2" d="M25,21.7l-5.6,7.13.15.12,5.61-7.12Z"/><path class="cls-2" d="M53,22.6l-.09.18,6.25,3.15.09-.18Z"/><path class="cls-2" d="M54.63,33.07l-.19,0,.72,5.5.2,0Z"/><path class="cls-2" d="M64.39,44.07l-4.91-4-4.89-6.6.15-.12,4.89,6.6,4.88,4Z"/><path class="cls-2" d="M35.57,34.13l-9.41-9-1.87-5.4-8.5,5.53-.11-.16,8.72-5.67L26.33,25l9.38,9Z"/></svg>