<svg width="27" height="48" viewBox="0 0 27 48" fill="none" xmlns="http://www.w3.org/2000/svg">
<path d="M26.5 17.4264C26.5 17.2901 26.4321 17.1689 26.3188 17.1008L22.748 14.8743C22.6951 14.844 22.6347 14.8213 22.5819 14.8213L19.7433 14.6016L16.3008 9.54276L13.4623 0.765442C13.4094 0.598832 13.2584 0.492807 13.0848 0.500381C12.9187 0.507954 12.7753 0.629125 12.73 0.788161L10.5784 9.96685H8.81185C8.66086 9.96685 8.52497 10.0577 8.46458 10.2016L6.63008 14.6471L2.38734 15.5407C2.28165 15.5634 2.18351 15.6316 2.13066 15.73L0.537747 18.676C0.515099 18.7214 0.507549 18.7745 0.5 18.8275C0.5 18.8426 0.5 18.8578 0.5 18.8729C0.5 18.8956 0.5 18.9108 0.5 18.9335L3.04413 31.5504C3.05923 31.6413 3.11208 31.717 3.18002 31.7776L8.36644 35.8141L11.0163 40.2217L14.2625 47.2799C14.3304 47.4238 14.4739 47.5071 14.6249 47.4995C14.7456 47.492 14.8438 47.4162 14.9042 47.3178L14.9193 47.3253L18.9657 41.0093L23.971 33.2922C24.0012 33.2468 24.0163 33.2014 24.0238 33.1484V33.1408L26.4849 17.4719H26.4774C26.4925 17.4643 26.5 17.4492 26.5 17.4264ZM19.7962 16.5101L17.2596 17.0326L14.8438 17.54L16.9501 15.1393L17.2596 14.7834L17.2898 14.7531L17.3502 14.791L17.9541 15.2151L19.7962 16.5101ZM18.777 14.5183L19.0488 14.9197L19.2375 15.1923L18.8223 14.897L18.2184 14.4729L17.554 14.0034L17.1916 12.7159L16.9425 11.8223L18.777 14.5183ZM13.1603 2.28008L15.5987 9.81539L16.8142 14.1472L16.633 14.3517L16.3235 14.7077L16.0139 15.0636L13.9832 17.381L13.198 14.8364L13.0772 14.4502L12.9564 14.0639L12.4355 12.3827C12.4355 12.3751 12.428 12.3751 12.4204 12.3676C12.4129 12.3524 12.4129 12.3297 12.4053 12.3145L11.288 10.2925L13.1603 2.28008ZM10.6539 10.7242L10.9861 11.33L10.0726 10.7242H10.6539ZM7.18119 15.3059L7.35482 14.8818L7.52846 14.4577L7.98897 13.3445L8.99303 10.9059L10.8804 12.1555L11.4013 12.5039L9.15157 14.117L8.38908 14.6622L7.6266 15.2075L7.0453 15.624L7.18119 15.3059ZM9.46109 14.8288L10.2236 14.2836L10.7671 13.8973L11.8618 13.1097L12.1411 14.0034L12.2619 14.3896L12.3827 14.7758L13.3037 17.7597H8.37398L6.84901 16.6994L9.46109 14.8288ZM2.71196 16.245L6.28281 15.4953L5.84495 16.5631C5.777 16.7297 5.82985 16.919 5.98084 17.0175L8.04936 18.4488C8.10976 18.4943 8.18525 18.517 8.26074 18.517H13.8171C13.8397 18.517 13.8699 18.517 13.8926 18.5094L20.8002 17.0781C20.921 17.0553 21.0267 16.9645 21.072 16.8509C21.1173 16.7297 21.1022 16.601 21.0343 16.4949L20.2869 15.3968L22.4233 15.5634L25.3827 17.4037L21.5627 19.5924L9.71022 20.2209L1.45122 18.5851L2.71196 16.245ZM10.1632 20.9555L21.3589 20.3648L22.2875 26.4764L16.9576 38.7752L13.4472 34.9811L10.1632 20.9555ZM12.3374 33.5346L7.68699 27.4533L1.75319 19.4182L9.3705 20.9328L12.3374 33.5346ZM1.57956 20.4481L6.88676 27.6427L3.65563 30.7325L1.57956 20.4481ZM3.99535 31.4444L7.33972 28.2485L12.3827 34.8447L8.76655 35.1704L3.99535 31.4444ZM9.28746 35.8823L12.5488 35.5945L11.2654 39.169L9.28746 35.8823ZM14.5494 46.0833L11.7636 40.0248L13.2509 35.8747L16.6481 39.5477L14.5494 46.0833ZM18.3467 40.6004L15.863 44.4854L17.4106 39.6613L21.5552 35.6626L18.3467 40.6004ZM18.1731 37.8664L22.4988 27.885L23.2689 32.9515L18.1731 37.8664ZM23.669 30.6113L22.0912 20.1679L23.2236 19.5166L25.6318 18.1383L23.669 30.6113Z" fill="white"/>
</svg>
