<svg width="26" height="48" viewBox="0 0 26 48" fill="none" xmlns="http://www.w3.org/2000/svg">
<path d="M26 17.4264C26 17.2901 25.9321 17.1689 25.8188 17.1008L22.248 14.8743C22.1951 14.844 22.1347 14.8213 22.0819 14.8213L19.2433 14.6016L15.8008 9.54276L12.9623 0.765442C12.9094 0.598832 12.7584 0.492807 12.5848 0.500381C12.4187 0.507954 12.2753 0.629125 12.23 0.788161L10.0784 9.96685H8.31185C8.16086 9.96685 8.02497 10.0577 7.96458 10.2016L6.13008 14.6471L1.88734 15.5407C1.78165 15.5634 1.68351 15.6316 1.63066 15.73L0.0377468 18.676C0.0150987 18.7214 0.00754936 18.7745 0 18.8275C0 18.8426 0 18.8578 0 18.8729C0 18.8956 0 18.9108 0 18.9335L2.54413 31.5504C2.55923 31.6413 2.61208 31.717 2.68002 31.7776L7.86644 35.8141L10.5163 40.2217L13.7625 47.2799C13.8304 47.4238 13.9739 47.5071 14.1249 47.4995C14.2456 47.492 14.3438 47.4162 14.4042 47.3178L14.4193 47.3253L18.4657 41.0093L23.471 33.2922C23.5012 33.2468 23.5163 33.2014 23.5238 33.1484V33.1408L25.9849 17.4719H25.9774C25.9925 17.4643 26 17.4492 26 17.4264ZM19.2962 16.5101L16.7596 17.0326L14.3438 17.54L16.4501 15.1393L16.7596 14.7834L16.7898 14.7531L16.8502 14.791L17.4541 15.2151L19.2962 16.5101ZM18.277 14.5183L18.5488 14.9197L18.7375 15.1923L18.3223 14.897L17.7184 14.4729L17.054 14.0034L16.6916 12.7159L16.4425 11.8223L18.277 14.5183ZM12.6603 2.28008L15.0987 9.81539L16.3142 14.1472L16.133 14.3517L15.8235 14.7077L15.5139 15.0636L13.4832 17.381L12.698 14.8364L12.5772 14.4502L12.4564 14.0639L11.9355 12.3827C11.9355 12.3751 11.928 12.3751 11.9204 12.3676C11.9129 12.3524 11.9129 12.3297 11.9053 12.3145L10.788 10.2925L12.6603 2.28008ZM10.1539 10.7242L10.4861 11.33L9.57259 10.7242H10.1539ZM6.68119 15.3059L6.85482 14.8818L7.02846 14.4577L7.48897 13.3445L8.49303 10.9059L10.3804 12.1555L10.9013 12.5039L8.65157 14.117L7.88908 14.6622L7.1266 15.2075L6.5453 15.624L6.68119 15.3059ZM8.96109 14.8288L9.72358 14.2836L10.2671 13.8973L11.3618 13.1097L11.6411 14.0034L11.7619 14.3896L11.8827 14.7758L12.8037 17.7597H7.87398L6.34901 16.6994L8.96109 14.8288ZM2.21196 16.245L5.78281 15.4953L5.34495 16.5631C5.277 16.7297 5.32985 16.919 5.48084 17.0175L7.54936 18.4488C7.60976 18.4943 7.68525 18.517 7.76074 18.517H13.3171C13.3397 18.517 13.3699 18.517 13.3926 18.5094L20.3002 17.0781C20.421 17.0553 20.5267 16.9645 20.572 16.8509C20.6173 16.7297 20.6022 16.601 20.5343 16.4949L19.7869 15.3968L21.9233 15.5634L24.8827 17.4037L21.0627 19.5924L9.21022 20.2209L0.95122 18.5851L2.21196 16.245ZM9.66318 20.9555L20.8589 20.3648L21.7875 26.4764L16.4576 38.7752L12.9472 34.9811L9.66318 20.9555ZM11.8374 33.5346L7.18699 27.4533L1.25319 19.4182L8.8705 20.9328L11.8374 33.5346ZM1.07956 20.4481L6.38676 27.6427L3.15563 30.7325L1.07956 20.4481ZM3.49535 31.4444L6.83972 28.2485L11.8827 34.8447L8.26655 35.1704L3.49535 31.4444ZM8.78746 35.8823L12.0488 35.5945L10.7654 39.169L8.78746 35.8823ZM14.0494 46.0833L11.2636 40.0248L12.7509 35.8747L16.1481 39.5477L14.0494 46.0833ZM17.8467 40.6004L15.363 44.4854L16.9106 39.6613L21.0552 35.6626L17.8467 40.6004ZM17.6731 37.8664L21.9988 27.885L22.7689 32.9515L17.6731 37.8664ZM23.169 30.6113L21.5912 20.1679L22.7236 19.5166L25.1318 18.1383L23.169 30.6113Z" fill="#070618"/>
</svg>
