<svg width="27" height="26" viewBox="0 0 27 26" fill="none" xmlns="http://www.w3.org/2000/svg">
<g clip-path="url(#clip0)">
<path d="M13.5905 0C6.40985 0 0.589844 5.82001 0.589844 13.0006C0.589844 20.18 6.40985 26.0013 13.5905 26.0013C20.7711 26.0013 26.5911 20.1813 26.5911 13.0006C26.5898 5.82001 20.7698 0 13.5905 0ZM9.19317 18.7282C6.05133 18.7282 3.50491 16.164 3.50491 13.0006C3.50491 9.83726 6.05133 7.27311 9.19317 7.27311C12.335 7.27311 14.8814 9.83726 14.8814 13.0006C14.8814 16.164 12.335 18.7282 9.19317 18.7282ZM18.2779 18.3924C16.707 18.3924 15.4338 15.9778 15.4338 13.0006C15.4338 10.0235 16.707 7.60883 18.2779 7.60883C19.8488 7.60883 21.122 10.0222 21.122 13.0006C21.122 15.9778 19.8488 18.3924 18.2779 18.3924ZM22.6739 17.8312C22.1216 17.8312 21.6744 15.6687 21.6744 13.0006C21.6744 10.3326 22.1216 8.17005 22.6739 8.17005C23.2263 8.17005 23.6748 10.3326 23.6748 13.0006C23.6748 15.6674 23.2276 17.8312 22.6739 17.8312Z" fill="white"/>
</g>
<defs>
<clipPath id="clip0">
<rect width="26" height="26" fill="white" transform="translate(0.589844)"/>
</clipPath>
</defs>
</svg>
