<svg width="27" height="27" viewBox="0 0 27 27" fill="none" xmlns="http://www.w3.org/2000/svg">
<path d="M13.04 0C5.84191 0 0 5.84191 0 13.04C0 20.2381 5.84191 26.08 13.04 26.08C20.2381 26.08 26.08 20.2381 26.08 13.04C26.08 5.84191 20.2381 0 13.04 0ZM18.6211 12.8487C18.169 15.6741 17.6822 18.7689 17.6822 18.7689C17.6822 18.7689 17.604 19.6382 16.9694 19.786C16.3261 19.9338 15.2742 19.2557 15.0829 19.1079C14.9351 18.9949 12.2576 17.2997 11.2752 16.4738C11.0144 16.2478 10.7102 15.7958 11.31 15.2655C12.6662 14.0223 14.2831 12.4749 15.2655 11.4926C15.7175 11.0405 16.1696 9.98863 14.2831 11.2665C11.6056 13.1095 8.97151 14.8482 8.97151 14.8482C8.97151 14.8482 8.37167 15.222 7.24154 14.883C6.11141 14.5439 4.79002 14.0919 4.79002 14.0919C4.79002 14.0919 3.88592 13.5268 5.43333 12.927C5.43333 12.927 11.9533 10.2494 14.2136 9.31055C15.0829 8.93674 18.0213 7.72836 18.0213 7.72836C18.0213 7.72836 19.3774 7.19807 19.2644 8.48468C19.2209 9.00628 18.9167 10.858 18.6211 12.8487Z" fill="white"/>
</svg>
