<svg width="26" height="20" viewBox="0 0 26 20" fill="none" xmlns="http://www.w3.org/2000/svg">
<path d="M25.5898 2.36923C24.6732 2.76923 23.6836 3.04615 22.6419 3.16923C23.7044 2.54359 24.5169 1.55897 24.9023 0.379487C23.9128 0.953846 22.8086 1.37436 21.6419 1.61026C20.7044 0.615385 19.3711 0 17.9023 0C14.5898 0 12.1628 3.04615 12.9023 6.20513C8.64193 5.98974 4.86068 3.97949 2.32943 0.923077C0.985677 3.18974 1.63151 6.1641 3.91276 7.6718C3.07943 7.64103 2.28776 7.41539 1.58984 7.0359C1.53776 9.37436 3.23568 11.559 5.70443 12.0513C4.98568 12.2462 4.19401 12.2872 3.39193 12.1333C4.04818 14.1436 5.93359 15.6 8.18359 15.641C6.02734 17.3128 3.30859 18.0513 0.589844 17.7333C2.86068 19.1692 5.55859 20 8.45443 20C17.9753 20 23.3607 12.0821 23.0273 4.97436C24.0273 4.26667 24.9023 3.38462 25.5898 2.36923Z" fill="white"/>
</svg>
