<svg width="20" height="20" viewBox="0 0 20 20" fill="none" xmlns="http://www.w3.org/2000/svg">
<path d="M10.0003 1.66663C14.6028 1.66663 18.3337 5.39746 18.3337 9.99996C18.3337 14.6025 14.6028 18.3333 10.0003 18.3333C5.39783 18.3333 1.66699 14.6025 1.66699 9.99996H3.33366C3.33366 13.6816 6.31866 16.6666 10.0003 16.6666C13.682 16.6666 16.667 13.6816 16.667 9.99996C16.667 6.31829 13.682 3.33329 10.0003 3.33329C7.70866 3.33329 5.68699 4.48913 4.48783 6.24996H6.66699V7.91663H1.66699V2.91663H3.33366V4.99996C4.85366 2.97496 7.27449 1.66663 10.0003 1.66663ZM10.8337 5.83329V9.65413L13.5362 12.3566L12.357 13.5358L9.16699 10.3441V5.83329H10.8337Z" fill="white"/>
</svg>
