<svg width="25" height="25" viewBox="0 0 25 25" fill="none" xmlns="http://www.w3.org/2000/svg">
<rect x="0.5" y="0.5" width="24" height="24" rx="4.5" fill="#070618" stroke="#99FFCC"/>
<path d="M13 4.5C17.1423 4.5 20.5 7.85775 20.5 12C20.5 16.1423 17.1423 19.5 13 19.5C8.85775 19.5 5.5 16.1423 5.5 12H7C7 15.3135 9.6865 18 13 18C16.3135 18 19 15.3135 19 12C19 8.6865 16.3135 6 13 6C10.9375 6 9.118 7.04025 8.03875 8.625H10V10.125H5.5V5.625H7V7.5C8.368 5.6775 10.5468 4.5 13 4.5ZM13.75 8.25V11.6888L16.1823 14.121L15.121 15.1823L12.25 12.3098V8.25H13.75Z" fill="#99FFCC"/>
</svg>
