<svg width="12" height="12" viewBox="0 0 12 12" fill="none" xmlns="http://www.w3.org/2000/svg">
<circle cx="6" cy="6" r="5.5" stroke="white" stroke-opacity="0.1"/>
<path d="M5.66522 7.12814C5.60522 7.12814 5.57522 7.09814 5.57522 7.03814V6.58814C5.57522 6.31814 5.64422 6.09614 5.78222 5.92214C5.92022 5.74814 6.12122 5.56214 6.38522 5.36414C6.63122 5.17814 6.81722 5.01014 6.94322 4.86014C7.06922 4.71014 7.13222 4.51814 7.13222 4.28414C7.13222 4.01414 7.04222 3.80114 6.86222 3.64514C6.68822 3.48314 6.45722 3.40214 6.16922 3.40214C5.87522 3.40214 5.63822 3.48614 5.45822 3.65414C5.27822 3.81614 5.18822 4.03214 5.18822 4.30214V4.53614C5.18822 4.59614 5.15822 4.62614 5.09822 4.62614L4.41422 4.59014C4.35422 4.59014 4.32422 4.56014 4.32422 4.50014V4.30214C4.32422 3.97214 4.40222 3.68114 4.55822 3.42914C4.71422 3.17114 4.93322 2.97314 5.21522 2.83514C5.50322 2.69114 5.83022 2.61914 6.19622 2.61914C6.74222 2.61914 7.18022 2.76914 7.51022 3.06914C7.84022 3.36914 8.00522 3.76514 8.00522 4.25714C8.00522 4.52114 7.96022 4.74914 7.87022 4.94114C7.78022 5.13314 7.67222 5.29214 7.54622 5.41814C7.42022 5.53814 7.25822 5.67014 7.06022 5.81414C6.85022 5.97014 6.69422 6.10514 6.59222 6.21914C6.49622 6.33314 6.44822 6.47114 6.44822 6.63314V7.03814C6.44822 7.09814 6.41822 7.12814 6.35822 7.12814H5.66522ZM5.98922 8.99114C5.82122 8.99114 5.68322 8.93714 5.57522 8.82914C5.46722 8.72114 5.41322 8.58314 5.41322 8.41514C5.41322 8.24714 5.46722 8.10914 5.57522 8.00114C5.68322 7.89314 5.82122 7.83914 5.98922 7.83914C6.15722 7.83914 6.29522 7.89314 6.40322 8.00114C6.51122 8.10914 6.56522 8.24714 6.56522 8.41514C6.56522 8.58314 6.51122 8.72114 6.40322 8.82914C6.29522 8.93714 6.15722 8.99114 5.98922 8.99114Z" fill="white" fill-opacity="0.5"/>
</svg>
