<svg width="18" height="17" viewBox="0 0 18 17" fill="none" xmlns="http://www.w3.org/2000/svg">
<path fill-rule="evenodd" clip-rule="evenodd" d="M9.47403 0.0200195C9.88825 0.0200195 10.224 0.355806 10.224 0.77002V1.47313C10.224 1.88734 9.88825 2.22313 9.47403 2.22313C9.05982 2.22313 8.72403 1.88734 8.72403 1.47313V0.77002C8.72403 0.355806 9.05982 0.0200195 9.47403 0.0200195ZM9.47403 14.7854C9.88825 14.7854 10.224 15.1211 10.224 15.5354V16.2385C10.224 16.6527 9.88825 16.9885 9.47403 16.9885C9.05982 16.9885 8.72403 16.6527 8.72403 16.2385V15.5354C8.72403 15.1211 9.05982 14.7854 9.47403 14.7854ZM9.47403 5.03558C7.55834 5.03558 6.00536 6.58855 6.00536 8.50424C6.00536 10.4199 7.55834 11.9729 9.47403 11.9729C11.3897 11.9729 12.9427 10.4199 12.9427 8.50424C12.9427 6.58855 11.3897 5.03558 9.47403 5.03558ZM4.50536 8.50424C4.50536 5.76012 6.72991 3.53558 9.47403 3.53558C12.2182 3.53558 14.4427 5.76012 14.4427 8.50424C14.4427 11.2484 12.2182 13.4729 9.47403 13.4729C6.72991 13.4729 4.50536 11.2484 4.50536 8.50424ZM3.47468 13.4429C3.18178 13.7357 3.18178 14.2106 3.47468 14.5035C3.76757 14.7964 4.24244 14.7964 4.53534 14.5035L5.03251 14.0063C5.3254 13.7134 5.3254 13.2386 5.03251 12.9457C4.73962 12.6528 4.26474 12.6528 3.97185 12.9457L3.47468 13.4429ZM13.9153 3.00218C13.6225 3.29508 13.6225 3.76995 13.9153 4.06284C14.2082 4.35574 14.6831 4.35574 14.976 4.06284L15.4732 3.56567C15.7661 3.27278 15.7661 2.7979 15.4732 2.50501C15.1803 2.21212 14.7054 2.21212 14.4125 2.50501L13.9153 3.00218ZM3.47468 2.50502C3.76757 2.21212 4.24244 2.21212 4.53534 2.50502L5.03251 3.00219C5.3254 3.29509 5.3254 3.76996 5.03251 4.06285C4.73962 4.35575 4.26474 4.35575 3.97185 4.06285L3.47468 3.56568C3.18178 3.27278 3.18178 2.79791 3.47468 2.50502ZM13.9153 12.9457C14.2082 12.6528 14.6831 12.6528 14.976 12.9457L15.4732 13.4429C15.7661 13.7358 15.7661 14.2106 15.4732 14.5035C15.1803 14.7964 14.7054 14.7964 14.4125 14.5035L13.9153 14.0063C13.6225 13.7135 13.6225 13.2386 13.9153 12.9457ZM1.73981 7.75429C1.32559 7.75429 0.989807 8.09007 0.989807 8.50429C0.989807 8.9185 1.32559 9.25429 1.73981 9.25429H2.44292C2.85713 9.25429 3.19292 8.9185 3.19292 8.50429C3.19292 8.09007 2.85713 7.75429 2.44292 7.75429H1.73981ZM16.5051 7.75429C16.0909 7.75429 15.7551 8.09007 15.7551 8.50429C15.7551 8.9185 16.0909 9.25429 16.5051 9.25429H17.2083C17.6225 9.25429 17.9583 8.9185 17.9583 8.50429C17.9583 8.09007 17.6225 7.75429 17.2083 7.75429H16.5051Z" fill="white"/>
</svg>
