<svg id="svg" version="1.1" xmlns="http://www.w3.org/2000/svg" xmlns:xlink="http://www.w3.org/1999/xlink" width="25" height="25" viewBox="0, 0, 400,400"><g id="svgg"><path id="path0" d="M189.000 84.063 C 184.050 84.690,175.848 86.005,174.200 86.436 C 171.334 87.185,170.229 87.484,168.400 88.003 C 165.892 88.715,159.585 90.765,158.500 91.221 C 157.183 91.776,155.513 92.462,154.600 92.825 C 146.691 95.970,135.249 102.806,127.043 109.286 C 121.296 113.825,111.832 123.500,107.731 129.029 C 107.253 129.673,106.060 131.280,105.079 132.600 C 104.099 133.920,102.169 136.890,100.791 139.200 C 96.910 145.707,94.355 150.856,91.163 158.600 C 90.707 159.708,88.774 165.540,88.379 167.000 C 85.871 176.284,85.485 178.288,84.004 189.716 C 83.470 193.836,83.488 205.972,84.035 210.555 C 84.592 215.221,85.948 223.730,86.464 225.800 C 87.950 231.756,90.455 239.930,91.214 241.295 C 91.426 241.677,91.600 242.352,91.600 242.795 C 91.600 243.238,91.780 243.600,92.000 243.600 C 92.220 243.600,92.400 243.872,92.400 244.205 C 92.400 244.538,92.570 245.123,92.777 245.505 C 92.985 245.887,94.099 248.180,95.252 250.600 C 98.794 258.027,103.823 266.039,109.286 272.957 C 113.819 278.696,123.492 288.164,129.023 292.275 C 134.055 296.015,136.389 297.662,137.597 298.327 C 138.369 298.751,140.800 300.130,143.000 301.392 C 147.135 303.762,153.047 306.629,156.600 307.987 C 157.040 308.155,157.895 308.497,158.500 308.746 C 160.762 309.679,161.473 309.926,164.400 310.800 C 166.050 311.292,167.760 311.840,168.200 312.018 C 168.640 312.195,169.540 312.451,170.200 312.588 C 170.860 312.724,172.120 313.017,173.000 313.238 C 190.721 317.695,210.790 317.388,230.600 312.357 C 231.480 312.134,232.697 311.851,233.305 311.729 C 233.913 311.607,234.508 311.349,234.629 311.154 C 234.749 310.959,235.276 310.800,235.800 310.800 C 236.324 310.800,236.864 310.620,237.000 310.400 C 237.136 310.180,237.599 310.000,238.029 310.000 C 238.459 310.000,239.168 309.820,239.605 309.600 C 240.042 309.380,240.758 309.020,241.195 308.800 C 241.632 308.580,242.208 308.400,242.476 308.400 C 245.346 308.400,265.478 296.993,271.066 292.200 C 271.323 291.980,272.799 290.810,274.346 289.600 C 279.102 285.880,288.394 276.207,292.400 270.806 C 292.950 270.064,293.775 268.994,294.233 268.429 C 295.339 267.063,298.113 262.927,299.237 260.969 C 302.623 255.066,305.870 248.709,307.239 245.300 C 307.437 244.805,307.780 243.950,308.000 243.400 C 308.220 242.850,308.580 241.950,308.800 241.400 C 309.020 240.850,309.372 239.995,309.582 239.500 C 309.791 239.005,310.182 237.790,310.449 236.800 C 310.716 235.810,311.085 234.829,311.267 234.620 C 311.450 234.411,311.600 233.747,311.600 233.144 C 311.600 232.541,311.760 231.948,311.956 231.827 C 312.151 231.706,312.408 231.021,312.527 230.304 C 312.645 229.587,312.945 228.190,313.193 227.200 C 316.562 213.746,317.313 197.045,315.172 183.200 C 314.456 178.572,313.961 175.834,313.543 174.200 C 313.318 173.320,312.954 171.880,312.734 171.000 C 311.692 166.831,311.498 166.153,311.161 165.505 C 310.962 165.123,310.800 164.459,310.800 164.029 C 310.800 163.599,310.620 163.136,310.400 163.000 C 310.180 162.864,310.000 162.401,310.000 161.971 C 310.000 161.541,309.841 160.877,309.647 160.495 C 309.452 160.113,309.115 159.350,308.897 158.800 C 305.251 149.591,296.864 133.838,294.843 132.400 C 294.688 132.290,294.123 131.570,293.586 130.800 C 290.211 125.953,281.077 116.077,276.000 111.784 C 273.884 109.996,272.270 108.695,270.971 107.731 C 270.327 107.253,268.700 106.042,267.355 105.039 C 262.887 101.706,250.321 94.705,245.300 92.750 C 244.805 92.558,243.995 92.244,243.500 92.054 C 243.005 91.863,242.150 91.511,241.600 91.270 C 240.364 90.731,234.696 88.836,232.800 88.329 C 232.030 88.123,230.770 87.773,230.000 87.551 C 228.216 87.036,226.544 86.648,222.800 85.883 C 219.978 85.305,217.799 84.978,210.284 84.004 C 206.575 83.523,192.964 83.561,189.000 84.063 M233.279 162.900 C 237.893 165.559,237.600 163.041,237.600 200.000 C 237.600 235.190,237.709 233.487,235.315 235.610 C 232.971 237.690,234.570 237.600,200.000 237.600 C 165.430 237.600,167.029 237.690,164.685 235.610 C 162.290 233.486,162.400 235.197,162.400 199.930 L 162.400 167.583 163.463 165.977 C 164.048 165.093,165.263 163.929,166.163 163.389 L 167.800 162.408 200.105 162.404 C 225.226 162.401,232.604 162.511,233.279 162.900 " stroke="none" fill="#fbfbfb" fill-rule="evenodd"></path><path id="path1" d="M178.700 0.273 C 176.555 0.359,174.800 0.602,174.800 0.814 C 174.800 1.027,173.540 1.200,172.000 1.200 C 170.400 1.200,169.200 1.371,169.200 1.600 C 169.200 1.822,168.133 2.000,166.800 2.000 C 165.467 2.000,164.400 2.178,164.400 2.400 C 164.400 2.620,163.421 2.800,162.224 2.800 C 161.027 2.800,159.936 2.980,159.800 3.200 C 159.664 3.420,158.933 3.600,158.176 3.600 C 157.419 3.600,156.800 3.780,156.800 4.000 C 156.800 4.220,155.900 4.400,154.800 4.400 C 153.700 4.400,152.800 4.580,152.800 4.800 C 152.800 5.020,152.080 5.200,151.200 5.200 C 150.320 5.200,149.600 5.380,149.600 5.600 C 149.600 5.820,148.880 6.000,148.000 6.000 C 147.120 6.000,146.400 6.180,146.400 6.400 C 146.400 6.620,145.860 6.800,145.200 6.800 C 144.540 6.800,144.000 6.980,144.000 7.200 C 144.000 7.420,143.370 7.600,142.600 7.600 C 141.830 7.600,141.200 7.780,141.200 8.000 C 141.200 8.220,140.705 8.408,140.100 8.418 C 139.495 8.427,138.280 8.713,137.400 9.052 C 136.520 9.392,135.489 9.665,135.108 9.660 C 134.727 9.655,134.312 9.819,134.184 10.025 C 134.057 10.231,133.524 10.400,133.000 10.400 C 132.476 10.400,131.936 10.580,131.800 10.800 C 131.664 11.020,131.203 11.200,130.776 11.200 C 130.349 11.200,130.000 11.380,130.000 11.600 C 130.000 11.820,129.460 12.000,128.800 12.000 C 128.140 12.000,127.600 12.180,127.600 12.400 C 127.600 12.620,127.150 12.800,126.600 12.800 C 126.050 12.800,125.600 12.980,125.600 13.200 C 125.600 13.420,125.240 13.600,124.800 13.600 C 124.360 13.600,124.000 13.780,124.000 14.000 C 124.000 14.220,123.460 14.400,122.800 14.400 C 122.140 14.400,121.600 14.580,121.600 14.800 C 121.600 15.020,121.240 15.200,120.800 15.200 C 120.360 15.200,120.000 15.380,120.000 15.600 C 120.000 15.820,119.640 16.000,119.200 16.000 C 118.760 16.000,118.400 16.180,118.400 16.400 C 118.400 16.620,118.040 16.800,117.600 16.800 C 117.160 16.800,116.800 16.980,116.800 17.200 C 116.800 17.420,116.260 17.600,115.600 17.600 C 114.940 17.600,114.400 17.780,114.400 18.000 C 114.400 18.220,114.040 18.400,113.600 18.400 C 113.160 18.400,112.799 18.535,112.799 18.700 C 112.798 18.865,111.808 19.450,110.600 20.000 C 109.392 20.550,108.402 21.135,108.401 21.300 C 108.401 21.465,108.040 21.600,107.600 21.600 C 107.160 21.600,106.800 21.780,106.800 22.000 C 106.800 22.220,106.480 22.400,106.088 22.400 C 105.697 22.400,105.117 22.760,104.800 23.200 C 104.483 23.640,103.903 24.000,103.512 24.000 C 103.120 24.000,102.800 24.180,102.800 24.400 C 102.800 24.620,102.536 24.800,102.214 24.800 C 101.401 24.800,98.800 26.076,98.800 26.474 C 98.800 26.653,98.440 26.800,98.000 26.800 C 97.560 26.800,97.200 26.980,97.200 27.200 C 97.200 27.420,96.952 27.600,96.649 27.600 C 96.346 27.600,95.871 27.873,95.594 28.207 C 95.317 28.541,94.440 29.117,93.645 29.487 C 92.850 29.857,91.909 30.483,91.553 30.880 C 91.197 31.276,90.652 31.600,90.341 31.600 C 90.031 31.600,89.517 31.960,89.200 32.400 C 88.883 32.840,88.343 33.200,88.000 33.200 C 87.657 33.200,87.117 33.560,86.800 34.000 C 86.483 34.440,85.975 34.800,85.672 34.800 C 85.369 34.800,84.617 35.340,84.000 36.000 C 83.383 36.660,82.631 37.200,82.328 37.200 C 82.025 37.200,81.517 37.560,81.200 38.000 C 80.883 38.440,80.375 38.800,80.072 38.800 C 79.769 38.800,79.017 39.340,78.400 40.000 C 77.783 40.660,77.119 41.200,76.923 41.200 C 76.727 41.200,75.899 41.830,75.082 42.600 C 74.266 43.370,73.434 44.000,73.234 44.000 C 73.034 44.000,71.773 45.080,70.432 46.400 C 69.092 47.720,67.810 48.800,67.585 48.800 C 67.359 48.800,65.194 50.825,62.774 53.300 C 57.490 58.703,58.703 57.490,53.300 62.774 C 50.825 65.194,48.800 67.369,48.800 67.606 C 48.800 67.844,47.900 68.938,46.800 70.038 C 45.700 71.138,44.800 72.216,44.800 72.432 C 44.800 72.649,44.170 73.457,43.400 74.227 C 42.630 74.997,42.000 75.778,42.000 75.964 C 42.000 76.149,41.280 77.066,40.400 78.000 C 39.520 78.934,38.800 79.907,38.800 80.161 C 38.800 80.415,38.440 80.883,38.000 81.200 C 37.560 81.517,37.200 82.025,37.200 82.328 C 37.200 82.631,36.660 83.383,36.000 84.000 C 35.340 84.617,34.800 85.369,34.800 85.672 C 34.800 85.975,34.440 86.483,34.000 86.800 C 33.560 87.117,33.200 87.657,33.200 88.000 C 33.200 88.343,32.840 88.883,32.400 89.200 C 31.960 89.517,31.600 90.057,31.600 90.400 C 31.600 90.743,31.240 91.283,30.800 91.600 C 30.360 91.917,30.000 92.497,30.000 92.888 C 30.000 93.280,29.820 93.600,29.600 93.600 C 29.380 93.600,29.200 93.788,29.200 94.017 C 29.200 94.246,28.840 94.820,28.400 95.292 C 27.960 95.764,27.600 96.387,27.600 96.675 C 27.600 96.964,27.420 97.200,27.200 97.200 C 26.980 97.200,26.800 97.560,26.800 98.000 C 26.800 98.440,26.653 98.800,26.474 98.800 C 26.076 98.800,24.800 101.401,24.800 102.214 C 24.800 102.536,24.620 102.800,24.400 102.800 C 24.180 102.800,24.000 103.160,24.000 103.600 C 24.000 104.040,23.820 104.400,23.600 104.400 C 23.380 104.400,23.200 104.720,23.200 105.112 C 23.200 105.503,22.840 106.083,22.400 106.400 C 21.960 106.717,21.600 107.297,21.600 107.688 C 21.600 108.080,21.454 108.400,21.275 108.400 C 21.096 108.400,20.702 109.030,20.400 109.800 C 20.098 110.570,19.704 111.200,19.525 111.200 C 19.346 111.200,19.200 111.560,19.200 112.000 C 19.200 112.440,19.020 112.800,18.800 112.800 C 18.580 112.800,18.400 113.340,18.400 114.000 C 18.400 114.660,18.220 115.200,18.000 115.200 C 17.780 115.200,17.600 115.560,17.600 116.000 C 17.600 116.440,17.420 116.800,17.200 116.800 C 16.980 116.800,16.800 117.160,16.800 117.600 C 16.800 118.040,16.620 118.400,16.400 118.400 C 16.180 118.400,16.000 118.760,16.000 119.200 C 16.000 119.640,15.820 120.000,15.600 120.000 C 15.380 120.000,15.200 120.540,15.200 121.200 C 15.200 121.860,15.020 122.400,14.800 122.400 C 14.580 122.400,14.400 122.760,14.400 123.200 C 14.400 123.640,14.220 124.000,14.000 124.000 C 13.780 124.000,13.600 124.360,13.600 124.800 C 13.600 125.240,13.420 125.600,13.200 125.600 C 12.980 125.600,12.800 126.039,12.800 126.576 C 12.800 127.113,12.620 127.664,12.400 127.800 C 12.180 127.936,12.000 128.487,12.000 129.024 C 12.000 129.561,11.820 130.000,11.600 130.000 C 11.380 130.000,11.200 130.349,11.200 130.776 C 11.200 131.203,11.020 131.664,10.800 131.800 C 10.580 131.936,10.400 132.399,10.400 132.829 C 10.400 133.259,10.237 133.923,10.037 134.305 C 9.348 135.623,8.400 139.296,8.400 140.646 C 8.400 141.391,8.220 142.000,8.000 142.000 C 7.780 142.000,7.600 142.450,7.600 143.000 C 7.600 143.550,7.420 144.000,7.200 144.000 C 6.980 144.000,6.800 144.720,6.800 145.600 C 6.800 146.480,6.620 147.200,6.400 147.200 C 6.180 147.200,6.000 147.740,6.000 148.400 C 6.000 149.060,5.820 149.600,5.600 149.600 C 5.380 149.600,5.200 150.320,5.200 151.200 C 5.200 152.080,5.020 152.800,4.800 152.800 C 4.580 152.800,4.400 153.700,4.400 154.800 C 4.400 155.900,4.220 156.800,4.000 156.800 C 3.780 156.800,3.600 157.610,3.600 158.600 C 3.600 159.590,3.420 160.400,3.200 160.400 C 2.980 160.400,2.800 161.300,2.800 162.400 C 2.800 163.500,2.620 164.400,2.400 164.400 C 2.178 164.400,2.000 165.467,2.000 166.800 C 2.000 168.133,1.822 169.200,1.600 169.200 C 1.372 169.200,1.200 170.389,1.200 171.967 C 1.200 173.824,1.036 174.788,0.700 174.900 C -0.032 175.144,-0.032 224.856,0.700 225.100 C 1.036 225.212,1.200 226.176,1.200 228.033 C 1.200 229.611,1.372 230.800,1.600 230.800 C 1.822 230.800,2.000 231.867,2.000 233.200 C 2.000 234.533,2.178 235.600,2.400 235.600 C 2.620 235.600,2.800 236.579,2.800 237.776 C 2.800 238.973,2.980 240.064,3.200 240.200 C 3.420 240.336,3.600 241.067,3.600 241.824 C 3.600 242.581,3.780 243.200,4.000 243.200 C 4.220 243.200,4.400 244.100,4.400 245.200 C 4.400 246.300,4.580 247.200,4.800 247.200 C 5.020 247.200,5.200 247.920,5.200 248.800 C 5.200 249.680,5.380 250.400,5.600 250.400 C 5.820 250.400,6.000 251.120,6.000 252.000 C 6.000 252.880,6.180 253.600,6.400 253.600 C 6.620 253.600,6.800 254.140,6.800 254.800 C 6.800 255.460,6.980 256.000,7.200 256.000 C 7.420 256.000,7.600 256.630,7.600 257.400 C 7.600 258.170,7.780 258.800,8.000 258.800 C 8.220 258.800,8.400 259.229,8.400 259.754 C 8.400 260.778,9.440 264.553,10.037 265.695 C 10.237 266.077,10.400 266.741,10.400 267.171 C 10.400 267.601,10.580 268.064,10.800 268.200 C 11.020 268.336,11.200 268.797,11.200 269.224 C 11.200 269.651,11.380 270.000,11.600 270.000 C 11.820 270.000,12.000 270.540,12.000 271.200 C 12.000 271.860,12.180 272.400,12.400 272.400 C 12.620 272.400,12.800 272.850,12.800 273.400 C 12.800 273.950,12.980 274.400,13.200 274.400 C 13.420 274.400,13.600 274.760,13.600 275.200 C 13.600 275.640,13.780 276.000,14.000 276.000 C 14.220 276.000,14.400 276.540,14.400 277.200 C 14.400 277.860,14.580 278.400,14.800 278.400 C 15.020 278.400,15.200 278.760,15.200 279.200 C 15.200 279.640,15.380 280.000,15.600 280.000 C 15.820 280.000,16.000 280.360,16.000 280.800 C 16.000 281.240,16.180 281.600,16.400 281.600 C 16.620 281.600,16.800 281.960,16.800 282.400 C 16.800 282.840,16.980 283.200,17.200 283.200 C 17.420 283.200,17.600 283.740,17.600 284.400 C 17.600 285.060,17.780 285.600,18.000 285.600 C 18.220 285.600,18.400 285.960,18.400 286.400 C 18.400 286.840,18.535 287.201,18.700 287.201 C 18.865 287.202,19.450 288.192,20.000 289.400 C 20.550 290.608,21.135 291.598,21.300 291.599 C 21.465 291.599,21.600 291.960,21.600 292.400 C 21.600 292.840,21.780 293.200,22.000 293.200 C 22.220 293.200,22.400 293.520,22.400 293.912 C 22.400 294.303,22.760 294.883,23.200 295.200 C 23.640 295.517,24.000 296.097,24.000 296.488 C 24.000 296.880,24.180 297.200,24.400 297.200 C 24.620 297.200,24.800 297.464,24.800 297.786 C 24.800 298.599,26.076 301.200,26.474 301.200 C 26.653 301.200,26.800 301.560,26.800 302.000 C 26.800 302.440,26.980 302.800,27.200 302.800 C 27.420 302.800,27.600 303.036,27.600 303.325 C 27.600 303.613,27.915 304.198,28.300 304.625 C 28.685 305.051,29.269 305.940,29.597 306.600 C 29.926 307.260,30.511 308.091,30.897 308.447 C 31.284 308.803,31.600 309.348,31.600 309.659 C 31.600 309.969,31.960 310.483,32.400 310.800 C 32.840 311.117,33.200 311.657,33.200 312.000 C 33.200 312.343,33.560 312.883,34.000 313.200 C 34.440 313.517,34.800 314.025,34.800 314.328 C 34.800 314.631,35.340 315.383,36.000 316.000 C 36.660 316.617,37.200 317.369,37.200 317.672 C 37.200 317.975,37.560 318.483,38.000 318.800 C 38.440 319.117,38.800 319.625,38.800 319.928 C 38.800 320.231,39.340 320.983,40.000 321.600 C 40.660 322.217,41.200 322.903,41.200 323.126 C 41.200 323.349,41.830 324.180,42.600 324.973 C 43.370 325.766,44.000 326.576,44.000 326.772 C 44.000 326.969,45.080 328.227,46.400 329.568 C 47.720 330.908,48.800 332.190,48.800 332.415 C 48.800 332.641,50.825 334.806,53.300 337.226 C 58.703 342.510,57.490 341.297,62.774 346.700 C 65.194 349.175,67.372 351.200,67.613 351.200 C 67.855 351.200,68.929 352.100,70.000 353.200 C 71.071 354.300,72.154 355.200,72.405 355.200 C 72.657 355.200,73.554 355.920,74.400 356.800 C 75.246 357.680,76.125 358.400,76.355 358.400 C 76.585 358.400,77.403 359.030,78.173 359.800 C 78.943 360.570,79.810 361.200,80.098 361.200 C 80.387 361.200,80.883 361.560,81.200 362.000 C 81.517 362.440,82.025 362.800,82.328 362.800 C 82.631 362.800,83.383 363.340,84.000 364.000 C 84.617 364.660,85.369 365.200,85.672 365.200 C 85.975 365.200,86.483 365.560,86.800 366.000 C 87.117 366.440,87.657 366.800,88.000 366.800 C 88.343 366.800,88.883 367.160,89.200 367.600 C 89.517 368.040,90.031 368.400,90.341 368.400 C 90.652 368.400,91.197 368.716,91.553 369.103 C 91.909 369.489,92.740 370.074,93.400 370.403 C 94.060 370.731,94.949 371.315,95.375 371.700 C 95.802 372.085,96.387 372.400,96.675 372.400 C 96.964 372.400,97.200 372.580,97.200 372.800 C 97.200 373.020,97.478 373.200,97.817 373.200 C 98.156 373.200,98.817 373.558,99.287 373.995 C 99.756 374.432,100.739 374.902,101.470 375.040 C 102.202 375.177,102.800 375.449,102.800 375.645 C 102.800 375.840,103.160 376.000,103.600 376.000 C 104.040 376.000,104.400 376.180,104.400 376.400 C 104.400 376.620,104.720 376.800,105.112 376.800 C 105.503 376.800,106.083 377.160,106.400 377.600 C 106.717 378.040,107.297 378.400,107.688 378.400 C 108.080 378.400,108.400 378.546,108.400 378.725 C 108.400 378.904,109.030 379.298,109.800 379.600 C 110.570 379.902,111.200 380.296,111.200 380.475 C 111.200 380.654,111.560 380.800,112.000 380.800 C 112.440 380.800,112.800 380.980,112.800 381.200 C 112.800 381.420,113.340 381.600,114.000 381.600 C 114.660 381.600,115.200 381.780,115.200 382.000 C 115.200 382.220,115.560 382.400,116.000 382.400 C 116.440 382.400,116.800 382.580,116.800 382.800 C 116.800 383.020,117.160 383.200,117.600 383.200 C 118.040 383.200,118.400 383.380,118.400 383.600 C 118.400 383.820,118.760 384.000,119.200 384.000 C 119.640 384.000,120.000 384.180,120.000 384.400 C 120.000 384.620,120.540 384.800,121.200 384.800 C 121.860 384.800,122.400 384.980,122.400 385.200 C 122.400 385.420,122.760 385.600,123.200 385.600 C 123.640 385.600,124.000 385.780,124.000 386.000 C 124.000 386.220,124.360 386.400,124.800 386.400 C 125.240 386.400,125.600 386.580,125.600 386.800 C 125.600 387.020,126.039 387.200,126.576 387.200 C 127.113 387.200,127.664 387.380,127.800 387.600 C 127.936 387.820,128.487 388.000,129.024 388.000 C 129.561 388.000,130.000 388.180,130.000 388.400 C 130.000 388.620,130.349 388.800,130.776 388.800 C 131.203 388.800,131.664 388.980,131.800 389.200 C 131.936 389.420,132.476 389.600,133.000 389.600 C 133.524 389.600,134.064 389.780,134.200 390.000 C 134.336 390.220,134.851 390.400,135.344 390.400 C 135.837 390.400,136.419 390.579,136.638 390.798 C 136.856 391.016,138.152 391.312,139.518 391.454 C 140.883 391.597,142.000 391.868,142.000 392.057 C 142.000 392.246,142.450 392.400,143.000 392.400 C 143.550 392.400,144.000 392.580,144.000 392.800 C 144.000 393.020,144.720 393.200,145.600 393.200 C 146.480 393.200,147.200 393.380,147.200 393.600 C 147.200 393.820,147.740 394.000,148.400 394.000 C 149.060 394.000,149.600 394.180,149.600 394.400 C 149.600 394.620,150.320 394.800,151.200 394.800 C 152.080 394.800,152.800 394.980,152.800 395.200 C 152.800 395.420,153.700 395.600,154.800 395.600 C 155.900 395.600,156.800 395.780,156.800 396.000 C 156.800 396.220,157.610 396.400,158.600 396.400 C 159.590 396.400,160.400 396.580,160.400 396.800 C 160.400 397.020,161.300 397.200,162.400 397.200 C 163.500 397.200,164.400 397.380,164.400 397.600 C 164.400 397.822,165.467 398.000,166.800 398.000 C 168.133 398.000,169.200 398.178,169.200 398.400 C 169.200 398.628,170.389 398.800,171.967 398.800 C 173.824 398.800,174.788 398.964,174.900 399.300 C 175.144 400.032,224.856 400.032,225.100 399.300 C 225.212 398.964,226.176 398.800,228.033 398.800 C 229.611 398.800,230.800 398.628,230.800 398.400 C 230.800 398.178,231.867 398.000,233.200 398.000 C 234.533 398.000,235.600 397.822,235.600 397.600 C 235.600 397.380,236.579 397.200,237.776 397.200 C 238.973 397.200,240.064 397.020,240.200 396.800 C 240.336 396.580,241.067 396.400,241.824 396.400 C 242.581 396.400,243.200 396.220,243.200 396.000 C 243.200 395.780,244.100 395.600,245.200 395.600 C 246.300 395.600,247.200 395.420,247.200 395.200 C 247.200 394.980,247.920 394.800,248.800 394.800 C 249.680 394.800,250.400 394.620,250.400 394.400 C 250.400 394.180,251.120 394.000,252.000 394.000 C 252.880 394.000,253.600 393.820,253.600 393.600 C 253.600 393.380,254.140 393.200,254.800 393.200 C 255.460 393.200,256.000 393.020,256.000 392.800 C 256.000 392.580,256.630 392.400,257.400 392.400 C 258.170 392.400,258.800 392.220,258.800 392.000 C 258.800 391.780,259.229 391.600,259.754 391.600 C 260.778 391.600,264.553 390.560,265.695 389.963 C 266.077 389.763,266.741 389.600,267.171 389.600 C 267.601 389.600,268.064 389.420,268.200 389.200 C 268.336 388.980,268.797 388.800,269.224 388.800 C 269.651 388.800,270.000 388.620,270.000 388.400 C 270.000 388.180,270.540 388.000,271.200 388.000 C 271.860 388.000,272.400 387.820,272.400 387.600 C 272.400 387.380,272.850 387.200,273.400 387.200 C 273.950 387.200,274.400 387.020,274.400 386.800 C 274.400 386.580,274.760 386.400,275.200 386.400 C 275.640 386.400,276.000 386.220,276.000 386.000 C 276.000 385.780,276.540 385.600,277.200 385.600 C 277.860 385.600,278.400 385.420,278.400 385.200 C 278.400 384.980,278.760 384.800,279.200 384.800 C 279.640 384.800,280.000 384.620,280.000 384.400 C 280.000 384.180,280.360 384.000,280.800 384.000 C 281.240 384.000,281.600 383.820,281.600 383.600 C 281.600 383.380,281.960 383.200,282.400 383.200 C 282.840 383.200,283.200 383.020,283.200 382.800 C 283.200 382.580,283.740 382.400,284.400 382.400 C 285.060 382.400,285.600 382.220,285.600 382.000 C 285.600 381.780,285.960 381.600,286.400 381.600 C 286.840 381.600,287.201 381.465,287.201 381.300 C 287.202 381.135,288.192 380.550,289.400 380.000 C 290.608 379.450,291.598 378.865,291.599 378.700 C 291.599 378.535,291.960 378.400,292.400 378.400 C 292.840 378.400,293.200 378.220,293.200 378.000 C 293.200 377.780,293.520 377.600,293.912 377.600 C 294.303 377.600,294.883 377.240,295.200 376.800 C 295.517 376.360,296.097 376.000,296.488 376.000 C 296.880 376.000,297.200 375.820,297.200 375.600 C 297.200 375.380,297.464 375.200,297.786 375.200 C 298.599 375.200,301.200 373.924,301.200 373.526 C 301.200 373.347,301.560 373.200,302.000 373.200 C 302.440 373.200,302.800 373.020,302.800 372.800 C 302.800 372.580,303.036 372.400,303.325 372.400 C 303.613 372.400,304.198 372.085,304.625 371.700 C 305.051 371.315,305.940 370.731,306.600 370.403 C 307.260 370.074,308.091 369.489,308.447 369.103 C 308.803 368.716,309.348 368.400,309.659 368.400 C 309.969 368.400,310.483 368.040,310.800 367.600 C 311.117 367.160,311.657 366.800,312.000 366.800 C 312.343 366.800,312.883 366.440,313.200 366.000 C 313.517 365.560,314.025 365.200,314.328 365.200 C 314.631 365.200,315.383 364.660,316.000 364.000 C 316.617 363.340,317.369 362.800,317.672 362.800 C 317.975 362.800,318.483 362.440,318.800 362.000 C 319.117 361.560,319.625 361.200,319.928 361.200 C 320.231 361.200,320.983 360.660,321.600 360.000 C 322.217 359.340,322.934 358.800,323.194 358.800 C 323.454 358.800,324.279 358.170,325.026 357.400 C 325.774 356.630,326.553 356.000,326.758 356.000 C 326.963 356.000,328.227 354.920,329.568 353.600 C 330.908 352.280,332.190 351.200,332.415 351.200 C 332.641 351.200,334.806 349.175,337.226 346.700 C 342.510 341.297,341.297 342.510,346.700 337.226 C 349.175 334.806,351.200 332.628,351.200 332.387 C 351.200 332.145,352.100 331.071,353.200 330.000 C 354.300 328.929,355.204 327.815,355.209 327.526 C 355.214 327.237,355.934 326.381,356.809 325.624 C 357.684 324.867,358.400 324.018,358.400 323.737 C 358.400 323.456,359.030 322.597,359.800 321.827 C 360.570 321.057,361.200 320.190,361.200 319.902 C 361.200 319.613,361.560 319.117,362.000 318.800 C 362.440 318.483,362.800 317.975,362.800 317.672 C 362.800 317.369,363.340 316.617,364.000 316.000 C 364.660 315.383,365.200 314.631,365.200 314.328 C 365.200 314.025,365.560 313.517,366.000 313.200 C 366.440 312.883,366.800 312.343,366.800 312.000 C 366.800 311.657,367.160 311.117,367.600 310.800 C 368.040 310.483,368.400 309.922,368.400 309.554 C 368.400 309.187,368.656 308.787,368.970 308.667 C 369.283 308.547,369.862 307.762,370.257 306.924 C 370.651 306.086,371.295 305.051,371.687 304.625 C 372.079 304.198,372.400 303.613,372.400 303.325 C 372.400 303.036,372.580 302.800,372.800 302.800 C 373.020 302.800,373.200 302.522,373.200 302.183 C 373.200 301.844,373.558 301.183,373.995 300.713 C 374.432 300.244,374.902 299.261,375.040 298.530 C 375.177 297.798,375.449 297.200,375.645 297.200 C 375.840 297.200,376.000 296.840,376.000 296.400 C 376.000 295.960,376.180 295.600,376.400 295.600 C 376.620 295.600,376.800 295.280,376.800 294.888 C 376.800 294.497,377.160 293.917,377.600 293.600 C 378.040 293.283,378.400 292.703,378.400 292.312 C 378.400 291.920,378.546 291.600,378.725 291.600 C 378.904 291.600,379.298 290.970,379.600 290.200 C 379.902 289.430,380.296 288.800,380.475 288.800 C 380.654 288.800,380.800 288.440,380.800 288.000 C 380.800 287.560,380.980 287.200,381.200 287.200 C 381.420 287.200,381.600 286.660,381.600 286.000 C 381.600 285.340,381.780 284.800,382.000 284.800 C 382.220 284.800,382.400 284.440,382.400 284.000 C 382.400 283.560,382.580 283.200,382.800 283.200 C 383.020 283.200,383.200 282.840,383.200 282.400 C 383.200 281.960,383.380 281.600,383.600 281.600 C 383.820 281.600,384.000 281.240,384.000 280.800 C 384.000 280.360,384.180 280.000,384.400 280.000 C 384.620 280.000,384.800 279.460,384.800 278.800 C 384.800 278.140,384.980 277.600,385.200 277.600 C 385.420 277.600,385.600 277.240,385.600 276.800 C 385.600 276.360,385.780 276.000,386.000 276.000 C 386.220 276.000,386.400 275.640,386.400 275.200 C 386.400 274.760,386.580 274.400,386.800 274.400 C 387.020 274.400,387.200 273.961,387.200 273.424 C 387.200 272.887,387.380 272.336,387.600 272.200 C 387.820 272.064,388.000 271.513,388.000 270.976 C 388.000 270.439,388.180 270.000,388.400 270.000 C 388.620 270.000,388.800 269.651,388.800 269.224 C 388.800 268.797,388.980 268.336,389.200 268.200 C 389.420 268.064,389.600 267.524,389.600 267.000 C 389.600 266.476,389.780 265.936,390.000 265.800 C 390.220 265.664,390.400 265.124,390.400 264.600 C 390.400 264.076,390.572 263.541,390.782 263.411 C 390.991 263.282,391.285 262.101,391.433 260.788 C 391.582 259.475,391.860 258.400,392.052 258.400 C 392.243 258.400,392.400 257.860,392.400 257.200 C 392.400 256.540,392.580 256.000,392.800 256.000 C 393.020 256.000,393.200 255.280,393.200 254.400 C 393.200 253.520,393.380 252.800,393.600 252.800 C 393.820 252.800,394.000 252.260,394.000 251.600 C 394.000 250.940,394.180 250.400,394.400 250.400 C 394.620 250.400,394.800 249.680,394.800 248.800 C 394.800 247.920,394.980 247.200,395.200 247.200 C 395.420 247.200,395.600 246.300,395.600 245.200 C 395.600 244.100,395.780 243.200,396.000 243.200 C 396.220 243.200,396.400 242.390,396.400 241.400 C 396.400 240.410,396.580 239.600,396.800 239.600 C 397.020 239.600,397.200 238.700,397.200 237.600 C 397.200 236.500,397.380 235.600,397.600 235.600 C 397.822 235.600,398.000 234.533,398.000 233.200 C 398.000 231.867,398.178 230.800,398.400 230.800 C 398.628 230.800,398.800 229.611,398.800 228.033 C 398.800 226.176,398.964 225.212,399.300 225.100 C 399.693 224.969,399.800 219.591,399.800 200.000 C 399.800 180.409,399.693 175.031,399.300 174.900 C 398.964 174.788,398.800 173.824,398.800 171.967 C 398.800 170.389,398.628 169.200,398.400 169.200 C 398.178 169.200,398.000 168.133,398.000 166.800 C 398.000 165.467,397.822 164.400,397.600 164.400 C 397.380 164.400,397.200 163.421,397.200 162.224 C 397.200 161.027,397.020 159.936,396.800 159.800 C 396.580 159.664,396.400 158.933,396.400 158.176 C 396.400 157.419,396.220 156.800,396.000 156.800 C 395.780 156.800,395.600 155.900,395.600 154.800 C 395.600 153.700,395.420 152.800,395.200 152.800 C 394.980 152.800,394.800 152.080,394.800 151.200 C 394.800 150.320,394.620 149.600,394.400 149.600 C 394.180 149.600,394.000 148.880,394.000 148.000 C 394.000 147.120,393.820 146.400,393.600 146.400 C 393.380 146.400,393.200 145.860,393.200 145.200 C 393.200 144.540,393.020 144.000,392.800 144.000 C 392.580 144.000,392.400 143.370,392.400 142.600 C 392.400 141.830,392.220 141.200,392.000 141.200 C 391.780 141.200,391.600 140.771,391.600 140.246 C 391.600 139.222,390.560 135.447,389.963 134.305 C 389.763 133.923,389.600 133.259,389.600 132.829 C 389.600 132.399,389.420 131.936,389.200 131.800 C 388.980 131.664,388.800 131.203,388.800 130.776 C 388.800 130.349,388.620 130.000,388.400 130.000 C 388.180 130.000,388.000 129.460,388.000 128.800 C 388.000 128.140,387.820 127.600,387.600 127.600 C 387.380 127.600,387.200 127.150,387.200 126.600 C 387.200 126.050,387.020 125.600,386.800 125.600 C 386.580 125.600,386.400 125.240,386.400 124.800 C 386.400 124.360,386.220 124.000,386.000 124.000 C 385.780 124.000,385.600 123.460,385.600 122.800 C 385.600 122.140,385.420 121.600,385.200 121.600 C 384.980 121.600,384.800 121.240,384.800 120.800 C 384.800 120.360,384.620 120.000,384.400 120.000 C 384.180 120.000,384.000 119.640,384.000 119.200 C 384.000 118.760,383.820 118.400,383.600 118.400 C 383.380 118.400,383.200 118.040,383.200 117.600 C 383.200 117.160,383.020 116.800,382.800 116.800 C 382.580 116.800,382.400 116.260,382.400 115.600 C 382.400 114.940,382.220 114.400,382.000 114.400 C 381.780 114.400,381.600 114.040,381.600 113.600 C 381.600 113.160,381.465 112.799,381.300 112.799 C 381.135 112.798,380.550 111.808,380.000 110.600 C 379.450 109.392,378.865 108.402,378.700 108.401 C 378.535 108.401,378.400 108.040,378.400 107.600 C 378.400 107.160,378.220 106.800,378.000 106.800 C 377.780 106.800,377.600 106.480,377.600 106.088 C 377.600 105.697,377.240 105.117,376.800 104.800 C 376.360 104.483,376.000 103.903,376.000 103.512 C 376.000 103.120,375.820 102.800,375.600 102.800 C 375.380 102.800,375.200 102.536,375.200 102.214 C 375.200 101.401,373.924 98.800,373.526 98.800 C 373.347 98.800,373.200 98.440,373.200 98.000 C 373.200 97.560,373.020 97.200,372.800 97.200 C 372.580 97.200,372.400 96.964,372.400 96.675 C 372.400 96.387,372.085 95.802,371.700 95.375 C 371.315 94.949,370.731 94.060,370.403 93.400 C 370.074 92.740,369.489 91.909,369.103 91.553 C 368.716 91.197,368.400 90.652,368.400 90.341 C 368.400 90.031,368.040 89.517,367.600 89.200 C 367.160 88.883,366.800 88.343,366.800 88.000 C 366.800 87.657,366.440 87.117,366.000 86.800 C 365.560 86.483,365.200 85.975,365.200 85.672 C 365.200 85.369,364.660 84.617,364.000 84.000 C 363.340 83.383,362.800 82.631,362.800 82.328 C 362.800 82.025,362.440 81.517,362.000 81.200 C 361.560 80.883,361.200 80.375,361.200 80.072 C 361.200 79.769,360.660 79.017,360.000 78.400 C 359.340 77.783,358.800 77.087,358.800 76.853 C 358.800 76.618,358.170 75.797,357.400 75.027 C 356.630 74.257,356.000 73.456,356.000 73.248 C 356.000 73.040,354.920 71.773,353.600 70.432 C 352.280 69.092,351.200 67.810,351.200 67.585 C 351.200 67.359,349.175 65.194,346.700 62.774 C 341.297 57.490,342.510 58.703,337.226 53.300 C 334.806 50.825,332.631 48.800,332.394 48.800 C 332.156 48.800,331.062 47.900,329.962 46.800 C 328.862 45.700,327.745 44.796,327.481 44.791 C 327.216 44.787,326.462 44.157,325.804 43.391 C 325.146 42.626,324.403 42.000,324.152 42.000 C 323.901 42.000,322.955 41.280,322.048 40.400 C 321.141 39.520,320.169 38.800,319.888 38.800 C 319.607 38.800,319.117 38.440,318.800 38.000 C 318.483 37.560,317.975 37.200,317.672 37.200 C 317.369 37.200,316.617 36.660,316.000 36.000 C 315.383 35.340,314.631 34.800,314.328 34.800 C 314.025 34.800,313.517 34.440,313.200 34.000 C 312.883 33.560,312.343 33.200,312.000 33.200 C 311.657 33.200,311.117 32.840,310.800 32.400 C 310.483 31.960,309.922 31.600,309.554 31.600 C 309.187 31.600,308.785 31.339,308.663 31.019 C 308.540 30.700,307.650 30.078,306.685 29.639 C 305.720 29.199,304.699 28.561,304.416 28.220 C 304.134 27.879,303.654 27.600,303.351 27.600 C 303.048 27.600,302.800 27.420,302.800 27.200 C 302.800 26.980,302.440 26.800,302.000 26.800 C 301.560 26.800,301.200 26.653,301.200 26.474 C 301.200 26.076,298.599 24.800,297.786 24.800 C 297.464 24.800,297.200 24.620,297.200 24.400 C 297.200 24.180,296.840 24.000,296.400 24.000 C 295.960 24.000,295.600 23.820,295.600 23.600 C 295.600 23.380,295.280 23.200,294.888 23.200 C 294.497 23.200,293.917 22.840,293.600 22.400 C 293.283 21.960,292.703 21.600,292.312 21.600 C 291.920 21.600,291.600 21.454,291.600 21.275 C 291.600 21.096,290.970 20.702,290.200 20.400 C 289.430 20.098,288.800 19.704,288.800 19.525 C 288.800 19.346,288.440 19.200,288.000 19.200 C 287.560 19.200,287.200 19.020,287.200 18.800 C 287.200 18.580,286.660 18.400,286.000 18.400 C 285.340 18.400,284.800 18.220,284.800 18.000 C 284.800 17.780,284.440 17.600,284.000 17.600 C 283.560 17.600,283.200 17.420,283.200 17.200 C 283.200 16.980,282.840 16.800,282.400 16.800 C 281.960 16.800,281.600 16.620,281.600 16.400 C 281.600 16.180,281.240 16.000,280.800 16.000 C 280.360 16.000,280.000 15.820,280.000 15.600 C 280.000 15.380,279.460 15.200,278.800 15.200 C 278.140 15.200,277.600 15.020,277.600 14.800 C 277.600 14.580,277.240 14.400,276.800 14.400 C 276.360 14.400,276.000 14.220,276.000 14.000 C 276.000 13.780,275.640 13.600,275.200 13.600 C 274.760 13.600,274.400 13.420,274.400 13.200 C 274.400 12.980,273.961 12.800,273.424 12.800 C 272.887 12.800,272.336 12.620,272.200 12.400 C 272.064 12.180,271.513 12.000,270.976 12.000 C 270.439 12.000,270.000 11.820,270.000 11.600 C 270.000 11.380,269.651 11.200,269.224 11.200 C 268.797 11.200,268.336 11.020,268.200 10.800 C 268.064 10.580,267.601 10.400,267.171 10.400 C 266.741 10.400,266.077 10.237,265.695 10.037 C 264.460 9.391,260.741 8.400,259.554 8.400 C 258.919 8.400,258.400 8.220,258.400 8.000 C 258.400 7.780,257.860 7.600,257.200 7.600 C 256.540 7.600,256.000 7.420,256.000 7.200 C 256.000 6.980,255.280 6.800,254.400 6.800 C 253.520 6.800,252.800 6.620,252.800 6.400 C 252.800 6.180,252.260 6.000,251.600 6.000 C 250.940 6.000,250.400 5.820,250.400 5.600 C 250.400 5.380,249.680 5.200,248.800 5.200 C 247.920 5.200,247.200 5.020,247.200 4.800 C 247.200 4.580,246.300 4.400,245.200 4.400 C 244.100 4.400,243.200 4.220,243.200 4.000 C 243.200 3.780,242.390 3.600,241.400 3.600 C 240.410 3.600,239.600 3.420,239.600 3.200 C 239.600 2.980,238.700 2.800,237.600 2.800 C 236.500 2.800,235.600 2.620,235.600 2.400 C 235.600 2.178,234.533 2.000,233.200 2.000 C 231.867 2.000,230.800 1.822,230.800 1.600 C 230.800 1.372,229.611 1.200,228.033 1.200 C 226.238 1.200,225.211 1.032,225.107 0.720 C 224.948 0.244,188.291 -0.109,178.700 0.273 M214.600 83.774 C 220.518 84.566,226.521 85.790,231.300 87.177 C 233.681 87.869,235.790 88.453,236.706 88.676 C 237.204 88.797,237.710 89.054,237.830 89.248 C 237.949 89.441,238.399 89.600,238.829 89.600 C 239.259 89.600,239.923 89.759,240.305 89.953 C 240.687 90.148,241.450 90.484,242.000 90.700 C 243.754 91.389,245.379 92.083,246.095 92.447 C 246.477 92.641,247.062 92.800,247.395 92.800 C 247.728 92.800,248.000 92.980,248.000 93.200 C 248.000 93.420,248.244 93.600,248.543 93.600 C 249.554 93.600,258.573 98.506,263.662 101.823 C 272.024 107.275,274.700 109.477,282.811 117.589 C 288.227 123.004,289.395 124.281,291.985 127.616 C 292.747 128.597,293.512 129.460,293.685 129.533 C 293.858 129.607,294.000 129.907,294.000 130.200 C 294.000 130.493,294.160 130.793,294.355 130.867 C 295.894 131.446,305.758 148.963,308.451 155.900 C 309.163 157.734,309.703 159.019,310.047 159.695 C 310.241 160.077,310.400 160.741,310.400 161.171 C 310.400 161.601,310.580 162.064,310.800 162.200 C 311.020 162.336,311.200 162.799,311.200 163.229 C 311.200 163.659,311.358 164.323,311.551 164.705 C 312.166 165.923,313.838 172.178,314.731 176.600 C 316.538 185.550,316.944 189.787,316.956 199.800 C 316.970 210.315,316.547 214.602,314.574 224.000 C 313.851 227.443,313.442 229.142,312.794 231.400 C 312.541 232.280,312.238 233.497,312.121 234.105 C 312.004 234.713,311.749 235.308,311.554 235.429 C 311.359 235.549,311.200 236.076,311.200 236.600 C 311.200 237.124,311.020 237.664,310.800 237.800 C 310.580 237.936,310.400 238.363,310.400 238.748 C 310.400 239.134,310.040 240.195,309.600 241.106 C 309.160 242.016,308.800 242.952,308.800 243.186 C 308.800 243.420,308.636 243.923,308.435 244.305 C 308.234 244.687,307.585 246.080,306.994 247.400 C 298.944 265.357,285.852 281.968,271.209 292.800 C 270.466 293.350,269.394 294.175,268.829 294.633 C 263.974 298.564,251.240 305.679,244.100 308.451 C 243.605 308.643,242.795 308.971,242.300 309.181 C 226.154 316.015,198.405 318.958,181.600 315.618 C 180.610 315.421,178.630 315.044,177.200 314.779 C 175.770 314.514,172.890 313.845,170.800 313.292 C 168.710 312.740,166.550 312.199,166.000 312.090 C 165.450 311.982,164.820 311.769,164.600 311.618 C 164.380 311.468,163.390 311.108,162.400 310.820 C 161.410 310.532,160.060 310.065,159.400 309.782 C 158.740 309.499,156.940 308.769,155.400 308.160 C 153.860 307.551,152.010 306.726,151.288 306.327 C 150.566 305.927,149.838 305.600,149.669 305.600 C 149.370 305.600,144.234 302.895,140.200 300.613 C 137.736 299.220,130.490 294.321,129.400 293.312 C 128.960 292.905,128.221 292.308,127.757 291.986 C 123.323 288.903,110.950 276.534,108.051 272.286 C 107.719 271.799,107.345 271.310,107.222 271.200 C 107.099 271.090,106.257 270.010,105.352 268.800 C 103.029 265.697,100.501 261.711,97.613 256.600 C 95.911 253.587,92.514 246.584,91.549 244.100 C 91.357 243.605,91.027 242.795,90.815 242.300 C 82.851 223.667,80.731 192.973,86.030 173.000 C 86.966 169.470,87.111 168.932,87.585 167.200 C 87.856 166.210,88.240 165.087,88.439 164.705 C 88.638 164.323,88.800 163.659,88.800 163.229 C 88.800 162.799,88.980 162.336,89.200 162.200 C 89.420 162.064,89.600 161.637,89.600 161.252 C 89.600 160.866,89.960 159.805,90.400 158.894 C 90.840 157.984,91.200 157.048,91.200 156.814 C 91.200 156.580,91.361 156.077,91.558 155.695 C 91.755 155.313,92.497 153.740,93.208 152.200 C 95.348 147.561,98.074 142.240,98.654 141.569 C 98.955 141.221,99.200 140.793,99.200 140.617 C 99.200 140.441,100.567 138.219,102.238 135.678 C 114.831 116.527,136.405 98.774,155.800 91.603 C 157.024 91.150,158.921 90.347,159.695 89.953 C 160.077 89.759,160.741 89.600,161.171 89.600 C 161.601 89.600,162.064 89.420,162.200 89.200 C 162.336 88.980,162.851 88.800,163.344 88.800 C 163.837 88.800,164.411 88.641,164.620 88.447 C 164.829 88.253,166.170 87.788,167.600 87.415 C 169.030 87.042,170.830 86.558,171.600 86.340 C 173.720 85.739,179.388 84.657,184.200 83.934 C 192.146 82.741,206.330 82.666,214.600 83.774 M167.059 163.601 C 162.529 165.863,162.800 163.533,162.800 200.158 L 162.800 231.524 163.700 233.229 C 164.242 234.254,165.308 235.384,166.378 236.067 L 168.157 237.200 199.943 237.200 L 231.730 237.200 233.454 236.189 C 234.465 235.597,235.597 234.465,236.189 233.454 L 237.200 231.730 237.200 200.284 C 237.200 167.588,237.222 168.052,235.526 165.547 C 233.604 162.709,234.764 162.798,199.904 162.816 C 169.832 162.831,168.539 162.862,167.059 163.601 " stroke="none" fill="#2058ea" fill-rule="evenodd"></path><path id="path2" d="M191.600 83.177 C 189.510 83.299,193.200 83.400,199.800 83.400 C 206.839 83.400,210.312 83.293,208.200 83.142 C 204.019 82.843,197.026 82.858,191.600 83.177 M183.600 84.030 C 182.390 84.209,180.500 84.538,179.400 84.762 L 177.400 85.169 179.200 85.002 C 182.212 84.722,187.367 83.967,187.556 83.778 C 187.795 83.538,186.267 83.636,183.600 84.030 M213.600 84.020 C 214.590 84.197,216.030 84.330,216.800 84.317 C 217.945 84.297,217.835 84.236,216.200 83.982 C 213.453 83.554,211.169 83.588,213.600 84.020 M219.200 84.780 C 220.199 85.120,222.682 85.332,222.367 85.051 C 222.275 84.969,221.300 84.799,220.200 84.672 C 218.851 84.516,218.526 84.551,219.200 84.780 M174.600 85.616 C 172.010 86.127,169.956 86.709,169.668 87.015 C 169.521 87.171,169.760 87.202,170.200 87.084 C 170.640 86.965,171.990 86.650,173.200 86.382 C 177.342 85.468,178.464 84.854,174.600 85.616 M227.184 86.415 C 228.825 86.827,230.242 87.092,230.331 87.002 C 230.421 86.912,229.978 86.725,229.347 86.586 C 228.716 86.448,227.678 86.169,227.040 85.967 C 226.402 85.765,225.502 85.614,225.040 85.632 C 224.578 85.650,225.543 86.002,227.184 86.415 M166.333 87.742 C 163.972 88.479,164.062 88.855,166.436 88.175 C 169.336 87.343,169.533 87.261,168.600 87.274 C 168.160 87.279,167.140 87.490,166.333 87.742 M230.833 87.344 C 230.925 87.423,231.540 87.608,232.200 87.756 C 233.076 87.952,233.238 87.915,232.800 87.618 C 232.260 87.253,230.432 86.998,230.833 87.344 M234.400 88.403 C 236.921 89.246,238.088 89.554,237.847 89.314 C 237.457 88.924,234.690 88.008,234.000 88.040 C 233.670 88.056,233.850 88.219,234.400 88.403 M162.200 89.200 C 161.908 89.673,162.299 89.673,163.400 89.200 C 164.171 88.869,164.169 88.855,163.324 88.828 C 162.842 88.813,162.336 88.980,162.200 89.200 M143.800 97.261 C 140.956 98.812,139.560 99.693,139.709 99.842 C 139.861 99.994,144.172 97.561,144.718 97.015 C 145.052 96.682,144.679 96.781,143.800 97.261 M257.600 98.367 C 258.563 99.152,259.200 99.408,259.200 99.010 C 259.200 98.906,258.615 98.535,257.900 98.186 L 256.600 97.552 257.600 98.367 M135.131 102.583 C 133.006 104.004,131.158 105.345,131.023 105.562 C 130.802 105.921,138.076 101.145,138.980 100.339 C 139.961 99.464,138.669 100.217,135.131 102.583 M261.000 100.282 C 261.701 100.982,270.421 106.758,270.175 106.359 C 270.045 106.149,268.107 104.754,265.869 103.260 C 261.445 100.307,260.361 99.644,261.000 100.282 M128.785 107.229 L 127.400 108.458 128.900 107.381 C 130.226 106.430,130.657 106.000,130.285 106.000 C 130.222 106.000,129.547 106.553,128.785 107.229 M272.400 108.330 C 273.389 109.212,274.276 109.857,274.370 109.763 C 274.550 109.584,273.810 108.949,271.800 107.556 C 271.140 107.099,271.410 107.447,272.400 108.330 M123.775 111.300 L 122.600 112.600 123.900 111.425 C 124.615 110.779,125.200 110.194,125.200 110.125 C 125.200 109.816,124.870 110.088,123.775 111.300 M274.800 110.125 C 274.800 110.194,275.385 110.779,276.100 111.425 L 277.400 112.600 276.225 111.300 C 275.130 110.088,274.800 109.816,274.800 110.125 M117.194 117.500 L 112.200 122.600 117.300 117.606 C 120.105 114.859,122.400 112.564,122.400 112.506 C 122.400 112.219,121.833 112.763,117.194 117.500 M282.988 118.000 C 290.289 125.610,290.498 125.814,288.101 123.000 C 286.977 121.680,284.114 118.710,281.740 116.400 C 277.950 112.713,278.103 112.909,282.988 118.000 M111.168 123.900 C 108.809 126.543,108.274 127.200,108.482 127.200 C 108.603 127.200,109.549 126.210,110.582 125.000 C 112.496 122.760,112.955 121.898,111.168 123.900 M106.715 129.300 C 105.464 130.841,101.021 137.331,100.213 138.800 C 99.431 140.221,100.826 138.397,102.813 135.400 C 103.980 133.640,105.725 131.165,106.691 129.900 C 108.729 127.230,108.747 126.799,106.715 129.300 M295.844 133.400 C 296.844 134.830,297.739 136.000,297.834 136.000 C 298.129 136.000,294.615 130.817,294.313 130.808 C 294.156 130.804,294.845 131.970,295.844 133.400 M298.349 137.000 C 298.565 137.440,299.034 138.160,299.393 138.600 L 300.044 139.400 299.651 138.600 C 299.435 138.160,298.966 137.440,298.607 137.000 L 297.956 136.200 298.349 137.000 M301.229 141.800 C 301.939 143.120,302.692 144.380,302.903 144.600 C 303.506 145.229,301.341 141.093,300.600 140.200 C 300.236 139.760,300.518 140.480,301.229 141.800 M98.496 141.700 C 97.929 142.407,95.949 146.400,96.167 146.400 C 96.265 146.400,96.968 145.230,97.727 143.800 C 99.093 141.227,99.275 140.730,98.496 141.700 M89.867 159.867 C 89.720 160.013,89.611 160.508,89.625 160.967 C 89.649 161.733,89.682 161.723,90.034 160.842 C 90.426 159.863,90.344 159.389,89.867 159.867 M184.300 162.700 C 192.935 162.760,207.065 162.760,215.700 162.700 C 224.335 162.640,217.270 162.590,200.000 162.590 C 182.730 162.590,175.665 162.640,184.300 162.700 M232.941 163.601 C 237.273 165.763,236.968 163.158,237.205 200.000 L 237.410 231.800 237.505 200.296 L 237.600 168.791 236.735 166.951 C 235.857 165.083,233.249 162.786,232.040 162.816 C 231.688 162.825,232.094 163.178,232.941 163.601 M165.292 164.221 C 164.805 164.562,164.213 165.237,163.976 165.721 L 163.546 166.600 164.273 165.712 C 164.673 165.223,165.360 164.554,165.800 164.225 C 166.861 163.430,166.425 163.427,165.292 164.221 M87.392 167.853 C 87.256 168.484,86.977 169.413,86.772 169.919 C 86.568 170.424,86.418 171.234,86.441 171.719 C 86.473 172.419,86.550 172.353,86.815 171.400 C 87.628 168.471,87.944 167.011,87.797 166.864 C 87.710 166.777,87.528 167.222,87.392 167.853 M312.244 167.800 C 312.573 169.271,312.802 169.590,312.794 168.567 C 312.791 168.145,312.605 167.530,312.382 167.200 C 312.085 166.762,312.048 166.924,312.244 167.800 M162.590 200.200 C 162.591 217.580,162.640 224.632,162.700 215.870 C 162.760 207.109,162.760 192.889,162.700 184.270 C 162.640 175.652,162.590 182.820,162.590 200.200 M313.058 170.800 C 313.375 172.525,313.602 172.851,313.594 171.567 C 313.591 171.035,313.411 170.330,313.194 170.000 C 312.918 169.578,312.877 169.815,313.058 170.800 M85.856 173.500 C 85.747 173.885,85.559 175.010,85.438 176.000 C 85.181 178.092,85.723 176.722,86.110 174.300 C 86.358 172.751,86.204 172.267,85.856 173.500 M313.858 174.000 C 314.175 175.725,314.402 176.051,314.394 174.767 C 314.391 174.235,314.211 173.530,313.994 173.200 C 313.718 172.778,313.677 173.015,313.858 174.000 M314.828 178.833 C 314.844 179.585,315.012 180.560,315.203 181.000 C 315.426 181.515,315.467 181.087,315.318 179.800 C 315.044 177.422,314.789 176.919,314.828 178.833 M84.655 179.855 C 84.513 180.886,84.474 181.808,84.569 181.902 C 84.663 181.996,84.865 181.239,85.018 180.218 C 85.171 179.198,85.210 178.276,85.104 178.171 C 84.998 178.065,84.796 178.823,84.655 179.855 M315.647 183.633 C 315.673 184.605,315.837 185.940,316.011 186.600 C 316.202 187.328,316.241 186.698,316.109 185.000 C 315.861 181.821,315.576 180.976,315.647 183.633 M83.825 185.225 C 83.670 186.794,83.627 188.161,83.729 188.262 C 83.831 188.364,84.043 187.166,84.200 185.600 C 84.357 184.034,84.400 182.667,84.296 182.563 C 84.192 182.458,83.980 183.656,83.825 185.225 M316.542 191.400 C 316.541 193.380,316.608 194.240,316.692 193.312 C 316.776 192.384,316.777 190.764,316.695 189.712 C 316.612 188.660,316.543 189.420,316.542 191.400 M83.334 192.000 C 83.334 193.650,83.405 194.325,83.491 193.500 C 83.578 192.675,83.578 191.325,83.491 190.500 C 83.405 189.675,83.334 190.350,83.334 192.000 M316.954 200.400 C 316.954 203.150,317.018 204.275,317.096 202.900 C 317.174 201.525,317.174 199.275,317.096 197.900 C 317.018 196.525,316.954 197.650,316.954 200.400 M82.934 200.000 C 82.934 201.650,83.005 202.325,83.091 201.500 C 83.178 200.675,83.178 199.325,83.091 198.500 C 83.005 197.675,82.934 198.350,82.934 200.000 M83.340 207.600 C 83.340 209.470,83.409 210.235,83.493 209.300 C 83.577 208.365,83.577 206.835,83.493 205.900 C 83.409 204.965,83.340 205.730,83.340 207.600 M316.537 208.600 C 316.539 210.360,316.609 211.030,316.693 210.089 C 316.778 209.149,316.777 207.709,316.691 206.889 C 316.605 206.070,316.536 206.840,316.537 208.600 M83.885 214.400 C 84.007 215.830,84.172 217.075,84.253 217.167 C 84.520 217.470,84.311 214.222,83.985 213.000 C 83.782 212.244,83.746 212.762,83.885 214.400 M316.093 213.200 C 316.093 213.970,316.175 214.285,316.276 213.900 C 316.376 213.515,316.376 212.885,316.276 212.500 C 316.175 212.115,316.093 212.430,316.093 213.200 M315.709 216.400 C 315.709 217.390,315.787 217.795,315.882 217.300 C 315.978 216.805,315.978 215.995,315.882 215.500 C 315.787 215.005,315.709 215.410,315.709 216.400 M84.487 218.600 C 84.491 219.040,84.632 219.940,84.800 220.600 C 85.074 221.678,85.106 221.698,85.113 220.800 C 85.117 220.250,84.976 219.350,84.800 218.800 C 84.549 218.016,84.481 217.973,84.487 218.600 M314.893 221.200 C 314.893 221.970,314.975 222.285,315.076 221.900 C 315.176 221.515,315.176 220.885,315.076 220.500 C 314.975 220.115,314.893 220.430,314.893 221.200 M314.054 225.067 C 314.025 225.544,313.896 226.264,313.770 226.667 C 313.552 227.361,313.564 227.362,313.996 226.688 C 314.247 226.297,314.375 225.577,314.281 225.088 C 314.109 224.201,314.109 224.201,314.054 225.067 M86.433 228.000 C 86.421 228.330,86.667 229.410,86.979 230.400 C 87.291 231.390,87.556 231.930,87.567 231.600 C 87.579 231.270,87.333 230.190,87.021 229.200 C 86.709 228.210,86.444 227.670,86.433 228.000 M313.246 228.467 C 313.221 228.834,313.096 229.464,312.970 229.867 C 312.752 230.562,312.763 230.563,313.197 229.887 C 313.448 229.496,313.573 228.866,313.473 228.487 C 313.311 227.868,313.288 227.866,313.246 228.467 M312.446 231.267 C 312.421 231.634,312.296 232.264,312.170 232.667 C 311.952 233.362,311.963 233.363,312.397 232.687 C 312.648 232.296,312.773 231.666,312.673 231.287 C 312.511 230.668,312.488 230.666,312.446 231.267 M163.078 232.700 C 163.737 234.526,166.557 237.200,167.826 237.200 C 168.008 237.200,167.343 236.684,166.349 236.054 C 165.277 235.374,164.262 234.317,163.852 233.454 C 163.142 231.956,162.630 231.458,163.078 232.700 M236.195 233.461 C 235.772 234.246,234.793 235.319,234.020 235.845 C 233.247 236.370,232.763 236.800,232.945 236.800 C 234.034 236.800,237.699 232.765,237.128 232.195 C 237.038 232.105,236.619 232.675,236.195 233.461 M184.100 237.500 C 192.845 237.560,207.155 237.560,215.900 237.500 C 224.645 237.440,217.490 237.391,200.000 237.391 C 182.510 237.391,175.355 237.440,184.100 237.500 M301.414 257.835 C 301.041 258.404,300.805 258.938,300.889 259.022 C 300.973 259.107,301.358 258.641,301.744 257.988 C 302.606 256.528,302.348 256.409,301.414 257.835 M299.046 261.800 C 298.691 262.350,298.109 263.295,297.753 263.900 L 297.105 265.000 297.910 264.026 C 298.860 262.876,300.121 260.800,299.869 260.800 C 299.771 260.800,299.401 261.250,299.046 261.800 M102.232 264.347 C 103.255 266.079,107.200 271.355,107.200 270.992 C 107.200 270.817,106.503 269.757,105.651 268.637 C 104.800 267.517,103.606 265.835,102.998 264.900 C 101.757 262.990,101.188 262.579,102.232 264.347 M295.025 267.827 C 294.015 269.272,293.372 270.341,293.596 270.202 C 294.072 269.908,297.319 265.200,297.046 265.200 C 296.945 265.200,296.035 266.382,295.025 267.827 M288.575 276.100 L 287.400 277.400 288.700 276.225 C 289.415 275.579,290.000 274.994,290.000 274.925 C 290.000 274.616,289.670 274.888,288.575 276.100 M117.200 282.600 C 119.943 285.350,122.273 287.600,122.376 287.600 C 122.721 287.600,113.007 277.714,112.606 277.657 C 112.389 277.625,114.457 279.850,117.200 282.600 M282.394 282.700 L 277.400 287.800 282.500 282.806 C 287.237 278.167,287.781 277.600,287.494 277.600 C 287.436 277.600,285.141 279.895,282.394 282.700 M275.775 288.900 L 274.600 290.200 275.900 289.025 C 276.615 288.379,277.200 287.794,277.200 287.725 C 277.200 287.416,276.870 287.688,275.775 288.900 M129.766 293.545 C 129.894 293.752,131.844 295.169,134.099 296.694 C 138.426 299.618,139.681 300.394,139.000 299.723 C 138.282 299.016,129.526 293.157,129.766 293.545 M266.800 295.655 C 263.673 297.911,263.341 298.420,266.275 296.458 C 267.637 295.548,268.862 294.623,268.999 294.402 C 269.352 293.830,269.248 293.890,266.800 295.655 M262.100 298.846 C 260.737 299.719,260.295 300.306,261.500 299.643 C 262.418 299.139,263.856 298.027,263.600 298.019 C 263.490 298.016,262.815 298.388,262.100 298.846 M257.657 301.417 C 256.478 302.152,255.398 302.876,255.257 303.026 C 254.870 303.436,258.028 301.757,259.400 300.822 C 261.340 299.501,259.993 299.961,257.657 301.417 M142.400 301.779 C 142.400 301.889,142.940 302.259,143.600 302.600 C 144.260 302.941,144.800 303.131,144.800 303.021 C 144.800 302.911,144.260 302.541,143.600 302.200 C 142.940 301.859,142.400 301.669,142.400 301.779 M159.800 310.000 C 159.936 310.220,160.442 310.387,160.924 310.372 C 161.769 310.345,161.771 310.331,161.000 310.000 C 159.899 309.527,159.508 309.527,159.800 310.000 M231.600 312.400 C 230.776 312.664,230.741 312.726,231.400 312.754 C 231.840 312.773,232.470 312.613,232.800 312.400 C 233.501 311.947,233.014 311.947,231.600 312.400 M218.800 315.220 C 218.126 315.449,218.451 315.484,219.800 315.328 C 220.900 315.201,221.875 315.031,221.967 314.949 C 222.282 314.668,219.799 314.880,218.800 315.220 M183.105 315.883 C 183.602 315.979,184.322 315.975,184.705 315.875 C 185.087 315.775,184.680 315.696,183.800 315.701 C 182.920 315.705,182.607 315.787,183.105 315.883 M215.105 315.883 C 215.602 315.979,216.322 315.975,216.705 315.875 C 217.087 315.775,216.680 315.696,215.800 315.701 C 214.920 315.705,214.607 315.787,215.105 315.883 M186.305 316.283 C 186.802 316.379,187.522 316.375,187.905 316.275 C 188.287 316.175,187.880 316.096,187.000 316.101 C 186.120 316.105,185.807 316.187,186.305 316.283 M190.500 316.691 C 191.325 316.778,192.675 316.778,193.500 316.691 C 194.325 316.605,193.650 316.534,192.000 316.534 C 190.350 316.534,189.675 316.605,190.500 316.691 M206.311 316.693 C 207.251 316.778,208.691 316.777,209.511 316.691 C 210.330 316.605,209.560 316.536,207.800 316.537 C 206.040 316.539,205.370 316.609,206.311 316.693 M198.700 317.089 C 199.415 317.178,200.585 317.178,201.300 317.089 C 202.015 317.001,201.430 316.928,200.000 316.928 C 198.570 316.928,197.985 317.001,198.700 317.089 " stroke="none" fill="#6f93f2" fill-rule="evenodd"></path><path id="path3" d="M195.905 83.483 C 196.402 83.579,197.122 83.575,197.505 83.475 C 197.887 83.375,197.480 83.296,196.600 83.301 C 195.720 83.305,195.407 83.387,195.905 83.483 M202.905 83.487 C 203.514 83.579,204.414 83.577,204.905 83.482 C 205.397 83.387,204.900 83.311,203.800 83.314 C 202.700 83.317,202.297 83.395,202.905 83.487 M83.314 196.600 C 83.317 197.700,83.395 198.103,83.487 197.495 C 83.579 196.886,83.577 195.986,83.482 195.495 C 83.387 195.003,83.311 195.500,83.314 196.600 M316.501 196.200 C 316.505 197.080,316.587 197.393,316.683 196.895 C 316.779 196.398,316.775 195.678,316.675 195.295 C 316.575 194.913,316.496 195.320,316.501 196.200 M83.293 203.200 C 83.293 203.970,83.375 204.285,83.476 203.900 C 83.576 203.515,83.576 202.885,83.476 202.500 C 83.375 202.115,83.293 202.430,83.293 203.200 M316.509 204.000 C 316.509 204.990,316.587 205.395,316.682 204.900 C 316.778 204.405,316.778 203.595,316.682 203.100 C 316.587 202.605,316.509 203.010,316.509 204.000 M195.500 316.682 C 195.995 316.778,196.805 316.778,197.300 316.682 C 197.795 316.587,197.390 316.509,196.400 316.509 C 195.410 316.509,195.005 316.587,195.500 316.682 M202.705 316.683 C 203.202 316.779,203.922 316.775,204.305 316.675 C 204.687 316.575,204.280 316.496,203.400 316.501 C 202.520 316.505,202.207 316.587,202.705 316.683 " stroke="none" fill="#8cacf4" fill-rule="evenodd"></path><path id="path4" d="M198.900 83.487 C 199.505 83.578,200.495 83.578,201.100 83.487 C 201.705 83.395,201.210 83.320,200.000 83.320 C 198.790 83.320,198.295 83.395,198.900 83.487 M187.600 84.000 C 185.601 84.421,187.652 84.438,190.000 84.020 C 191.624 83.732,191.663 83.700,190.400 83.703 C 189.630 83.704,188.370 83.838,187.600 84.000 M210.000 84.020 C 212.414 84.450,214.306 84.413,212.200 83.977 C 211.320 83.795,210.060 83.658,209.400 83.673 C 208.500 83.693,208.650 83.780,210.000 84.020 M181.600 84.800 C 180.256 85.231,181.708 85.231,183.400 84.800 C 184.478 84.526,184.498 84.494,183.600 84.487 C 183.050 84.483,182.150 84.624,181.600 84.800 M216.600 84.800 C 217.260 84.968,218.160 85.114,218.600 85.125 L 219.400 85.144 218.600 84.800 C 218.160 84.611,217.260 84.465,216.600 84.475 L 215.400 84.495 216.600 84.800 M177.000 85.619 C 176.442 85.871,176.685 85.907,177.800 85.738 C 178.680 85.604,179.475 85.428,179.567 85.347 C 179.910 85.044,177.768 85.271,177.000 85.619 M221.600 85.600 C 222.150 85.776,222.960 85.920,223.400 85.920 C 224.033 85.920,223.992 85.854,223.200 85.600 C 222.650 85.424,221.840 85.280,221.400 85.280 C 220.767 85.280,220.808 85.346,221.600 85.600 M225.400 86.400 C 225.840 86.589,226.470 86.744,226.800 86.744 C 227.178 86.744,227.104 86.617,226.600 86.400 C 226.160 86.211,225.530 86.056,225.200 86.056 C 224.822 86.056,224.896 86.183,225.400 86.400 M167.200 88.000 C 166.667 88.345,166.667 88.388,167.200 88.388 C 167.530 88.388,168.070 88.213,168.400 88.000 C 168.933 87.655,168.933 87.612,168.400 87.612 C 168.070 87.612,167.530 87.787,167.200 88.000 M145.200 96.865 C 142.965 98.156,142.797 98.609,145.000 97.407 C 147.198 96.208,147.514 95.986,146.967 96.028 C 146.765 96.044,145.970 96.421,145.200 96.865 M253.800 96.738 C 254.460 97.136,256.530 98.330,258.400 99.391 C 260.270 100.452,262.205 101.584,262.700 101.906 C 263.195 102.228,263.600 102.393,263.600 102.273 C 263.600 101.906,253.451 95.990,252.850 96.007 C 252.712 96.010,253.140 96.339,253.800 96.738 M141.200 99.236 C 140.536 99.779,140.469 99.915,141.000 99.640 C 142.305 98.966,143.028 98.412,142.600 98.415 C 142.380 98.417,141.750 98.786,141.200 99.236 M138.296 100.950 C 136.375 102.131,135.838 102.689,137.400 101.881 C 138.654 101.233,140.345 100.026,140.000 100.025 C 139.890 100.025,139.123 100.441,138.296 100.950 M133.829 103.808 C 132.744 104.558,131.574 105.475,131.229 105.847 C 130.883 106.218,131.735 105.742,133.122 104.788 C 134.508 103.834,135.734 102.907,135.845 102.727 C 136.152 102.230,135.961 102.333,133.829 103.808 M266.540 104.303 C 266.696 104.556,267.391 105.167,268.084 105.660 C 268.777 106.154,269.217 106.350,269.060 106.097 C 268.904 105.844,268.209 105.233,267.516 104.740 C 266.823 104.246,266.383 104.050,266.540 104.303 M270.825 107.466 C 270.838 107.650,271.665 108.395,272.663 109.123 C 273.660 109.851,274.366 110.269,274.232 110.052 C 273.834 109.408,270.798 107.104,270.825 107.466 M117.584 117.584 C 113.582 121.575,110.404 124.938,110.523 125.056 C 110.641 125.174,111.424 124.490,112.262 123.536 C 114.313 121.200,121.381 114.123,123.536 112.248 C 124.490 111.417,125.179 110.645,125.065 110.532 C 124.952 110.419,121.585 113.592,117.584 117.584 M274.829 110.700 C 274.845 110.865,275.520 111.530,276.329 112.179 L 277.800 113.357 276.422 111.879 C 274.997 110.351,274.780 110.190,274.829 110.700 M282.200 117.600 C 284.612 120.020,286.676 122.000,286.786 122.000 C 286.896 122.000,285.012 120.020,282.600 117.600 C 280.188 115.180,278.124 113.200,278.014 113.200 C 277.904 113.200,279.788 115.180,282.200 117.600 M288.000 123.800 C 288.746 124.570,289.447 125.200,289.557 125.200 C 289.667 125.200,289.146 124.570,288.400 123.800 C 287.654 123.030,286.953 122.400,286.843 122.400 C 286.733 122.400,287.254 123.030,288.000 123.800 M104.975 132.268 C 104.359 133.076,104.059 133.611,104.309 133.456 C 104.821 133.140,106.553 130.800,106.275 130.800 C 106.176 130.800,105.591 131.461,104.975 132.268 M101.400 137.600 C 101.059 138.260,100.869 138.800,100.979 138.800 C 101.089 138.800,101.459 138.260,101.800 137.600 C 102.141 136.940,102.331 136.400,102.221 136.400 C 102.111 136.400,101.741 136.940,101.400 137.600 M298.431 137.900 C 299.448 139.600,300.000 140.294,300.000 139.871 C 300.000 139.506,297.955 136.400,297.714 136.400 C 297.616 136.400,297.938 137.075,298.431 137.900 M99.000 141.600 C 98.659 142.260,98.469 142.800,98.579 142.800 C 98.689 142.800,99.059 142.260,99.400 141.600 C 99.741 140.940,99.931 140.400,99.821 140.400 C 99.711 140.400,99.341 140.940,99.000 141.600 M301.960 143.800 C 302.634 145.105,303.188 145.828,303.185 145.400 C 303.183 145.180,302.814 144.550,302.364 144.000 C 301.821 143.336,301.685 143.269,301.960 143.800 M96.614 145.835 C 96.241 146.404,96.005 146.938,96.089 147.022 C 96.173 147.107,96.558 146.641,96.944 145.988 C 97.806 144.528,97.548 144.409,96.614 145.835 M93.872 151.419 C 92.932 153.389,93.064 153.724,94.047 151.862 C 94.493 151.016,94.787 150.254,94.701 150.167 C 94.614 150.081,94.241 150.644,93.872 151.419 M235.634 165.047 C 236.165 165.733,236.680 166.223,236.779 166.135 C 236.877 166.047,236.443 165.486,235.813 164.888 L 234.669 163.800 235.634 165.047 M86.229 173.829 C 86.081 174.415,86.038 174.972,86.132 175.066 C 86.227 175.160,86.424 174.758,86.571 174.171 C 86.719 173.585,86.762 173.028,86.668 172.934 C 86.573 172.840,86.376 173.242,86.229 173.829 M314.068 176.800 C 314.088 177.839,314.718 179.546,314.732 178.600 C 314.738 178.160,314.589 177.440,314.400 177.000 C 314.189 176.510,314.061 176.432,314.068 176.800 M314.887 181.200 C 314.883 181.750,315.024 182.650,315.200 183.200 C 315.631 184.544,315.631 183.092,315.200 181.400 C 314.926 180.322,314.894 180.302,314.887 181.200 M84.656 182.084 C 84.521 182.588,84.427 183.360,84.446 183.800 C 84.465 184.240,84.645 183.898,84.846 183.040 C 85.236 181.378,85.070 180.540,84.656 182.084 M315.673 187.000 C 315.658 187.660,315.795 188.920,315.977 189.800 C 316.413 191.906,316.450 190.014,316.020 187.600 C 315.780 186.250,315.693 186.100,315.673 187.000 M84.093 187.600 C 84.093 188.370,84.175 188.685,84.276 188.300 C 84.376 187.915,84.376 187.285,84.276 186.900 C 84.175 186.515,84.093 186.830,84.093 187.600 M83.693 190.400 C 83.693 191.170,83.775 191.485,83.876 191.100 C 83.976 190.715,83.976 190.085,83.876 189.700 C 83.775 189.315,83.693 189.630,83.693 190.400 M316.528 200.000 C 316.528 201.430,316.601 202.015,316.689 201.300 C 316.778 200.585,316.778 199.415,316.689 198.700 C 316.601 197.985,316.528 198.570,316.528 200.000 M83.314 200.200 C 83.317 201.300,83.395 201.703,83.487 201.095 C 83.579 200.486,83.577 199.586,83.482 199.095 C 83.387 198.603,83.311 199.100,83.314 200.200 M83.673 209.400 C 83.658 210.060,83.795 211.320,83.977 212.200 C 84.413 214.306,84.450 212.414,84.020 210.000 C 83.780 208.650,83.693 208.500,83.673 209.400 M315.800 211.200 C 315.644 212.547,315.601 213.734,315.705 213.838 C 315.809 213.942,316.019 212.922,316.171 211.571 C 316.324 210.221,316.367 209.034,316.267 208.933 C 316.166 208.833,315.956 209.853,315.800 211.200 M315.249 216.600 C 315.216 217.040,315.096 217.850,314.983 218.400 L 314.777 219.400 315.206 218.419 C 315.442 217.879,315.561 217.069,315.472 216.619 C 315.313 215.821,315.307 215.821,315.249 216.600 M314.200 222.400 C 314.048 223.091,314.007 223.741,314.109 223.842 C 314.211 223.944,314.409 223.453,314.550 222.750 C 314.691 222.047,314.731 221.398,314.641 221.308 C 314.550 221.217,314.352 221.709,314.200 222.400 M86.056 225.200 C 86.056 225.530,86.211 226.160,86.400 226.600 C 86.617 227.104,86.744 227.178,86.744 226.800 C 86.744 226.470,86.589 225.840,86.400 225.400 C 86.183 224.896,86.056 224.822,86.056 225.200 M312.600 229.200 C 312.450 229.673,312.417 230.150,312.527 230.260 C 312.637 230.370,312.850 230.073,313.000 229.600 C 313.150 229.127,313.183 228.650,313.073 228.540 C 312.963 228.430,312.750 228.727,312.600 229.200 M163.200 233.963 C 163.200 234.328,165.954 236.999,166.098 236.773 C 166.158 236.678,165.531 235.944,164.704 235.141 C 163.877 234.339,163.200 233.809,163.200 233.963 M235.141 235.296 C 234.339 236.123,233.809 236.800,233.963 236.800 C 234.328 236.800,236.999 234.046,236.773 233.902 C 236.678 233.842,235.944 234.469,235.141 235.296 M302.234 255.589 C 301.421 257.135,300.844 258.400,300.951 258.400 C 301.216 258.400,304.022 253.088,303.848 252.915 C 303.773 252.839,303.046 254.043,302.234 255.589 M98.415 257.400 C 98.417 257.620,98.786 258.250,99.236 258.800 C 99.779 259.464,99.915 259.531,99.640 259.000 C 98.966 257.695,98.412 256.972,98.415 257.400 M299.814 259.835 C 299.441 260.404,299.205 260.938,299.289 261.022 C 299.373 261.107,299.758 260.641,300.144 259.988 C 301.006 258.528,300.748 258.409,299.814 259.835 M103.999 266.352 C 104.960 267.722,105.927 268.955,106.147 269.091 C 106.368 269.227,105.762 268.218,104.801 266.848 C 103.840 265.478,102.873 264.245,102.653 264.109 C 102.432 263.973,103.038 264.982,103.999 266.352 M290.877 272.663 C 290.149 273.660,289.731 274.366,289.948 274.232 C 290.592 273.834,292.896 270.798,292.534 270.825 C 292.350 270.838,291.605 271.665,290.877 272.663 M110.800 275.117 C 110.800 275.560,121.166 286.400,121.590 286.400 C 121.766 286.400,120.241 284.735,118.201 282.700 C 116.162 280.665,113.662 278.049,112.647 276.887 C 111.631 275.724,110.800 274.928,110.800 275.117 M287.978 276.300 L 286.600 277.800 288.100 276.422 C 288.925 275.663,289.600 274.988,289.600 274.922 C 289.600 274.616,289.262 274.904,287.978 276.300 M282.193 282.500 L 277.800 287.000 282.300 282.607 C 286.480 278.526,286.982 278.000,286.693 278.000 C 286.634 278.000,284.609 280.025,282.193 282.500 M130.800 293.725 C 130.800 293.824,131.461 294.409,132.268 295.025 C 133.076 295.641,133.611 295.941,133.456 295.691 C 133.140 295.179,130.800 293.447,130.800 293.725 M261.600 298.800 C 260.610 299.458,259.939 299.997,260.109 299.998 C 260.457 300.000,263.600 297.974,263.600 297.747 C 263.600 297.492,263.442 297.575,261.600 298.800 M140.400 300.179 C 140.400 300.289,140.940 300.659,141.600 301.000 C 142.260 301.341,142.800 301.531,142.800 301.421 C 142.800 301.311,142.260 300.941,141.600 300.600 C 140.940 300.259,140.400 300.069,140.400 300.179 M255.400 302.400 C 254.740 302.837,254.380 303.192,254.600 303.188 C 255.001 303.182,257.176 301.623,256.800 301.612 C 256.690 301.608,256.060 301.963,255.400 302.400 M145.600 303.164 C 146.150 303.614,146.780 303.983,147.000 303.985 C 147.428 303.988,146.705 303.434,145.400 302.760 C 144.869 302.485,144.936 302.621,145.600 303.164 M150.972 305.866 C 152.589 306.742,154.800 307.648,154.800 307.435 C 154.800 307.233,150.432 305.192,150.052 305.216 C 149.913 305.225,150.327 305.518,150.972 305.866 M225.400 313.600 C 224.896 313.817,224.822 313.944,225.200 313.944 C 225.530 313.944,226.160 313.789,226.600 313.600 C 227.104 313.383,227.178 313.256,226.800 313.256 C 226.470 313.256,225.840 313.411,225.400 313.600 M181.600 315.200 C 182.150 315.376,182.960 315.520,183.400 315.520 C 184.033 315.520,183.992 315.454,183.200 315.200 C 182.650 315.024,181.840 314.880,181.400 314.880 C 180.767 314.880,180.808 314.946,181.600 315.200 M216.800 315.200 C 216.008 315.454,215.967 315.520,216.600 315.520 C 217.040 315.520,217.850 315.376,218.400 315.200 C 219.192 314.946,219.233 314.880,218.600 314.880 C 218.160 314.880,217.350 315.024,216.800 315.200 M187.800 316.023 C 188.680 316.205,189.940 316.342,190.600 316.327 C 191.500 316.307,191.350 316.220,190.000 315.980 C 187.586 315.550,185.694 315.587,187.800 316.023 M210.000 316.000 C 208.938 316.224,208.841 316.302,209.600 316.324 C 210.150 316.341,211.320 316.205,212.200 316.023 C 213.534 315.747,213.600 315.693,212.600 315.699 C 211.940 315.702,210.770 315.838,210.000 316.000 M198.900 316.687 C 199.505 316.778,200.495 316.778,201.100 316.687 C 201.705 316.595,201.210 316.520,200.000 316.520 C 198.790 316.520,198.295 316.595,198.900 316.687 " stroke="none" fill="#94acf6" fill-rule="evenodd"></path></g></svg>