<svg width="26" height="25" viewBox="0 0 26 25" fill="none" xmlns="http://www.w3.org/2000/svg">
<path d="M24.5899 1.08789L14.8984 8.21899L16.6994 4.01516L24.5899 1.08789Z" fill="#E17726" stroke="#E17726" stroke-width="0.25" stroke-linecap="round" stroke-linejoin="round"/>
<path d="M2.23242 1.08789L11.8427 8.28502L10.1229 4.01516L2.23242 1.08789Z" fill="#E27625" stroke="#E27625" stroke-width="0.25" stroke-linecap="round" stroke-linejoin="round"/>
<path d="M21.0985 17.6245L18.5225 21.5422L24.0436 23.0535L25.6231 17.7126L21.0985 17.6245Z" fill="#E27625" stroke="#E27625" stroke-width="0.25" stroke-linecap="round" stroke-linejoin="round"/>
<path d="M1.20605 17.7126L2.77824 23.0535L8.29197 21.5422L5.72333 17.6245L1.20605 17.7126Z" fill="#E27625" stroke="#E27625" stroke-width="0.25" stroke-linecap="round" stroke-linejoin="round"/>
<path d="M7.9972 11.007L6.46191 13.3107L11.924 13.5601L11.7394 7.71289L7.9972 11.007Z" fill="#E27625" stroke="#E27625" stroke-width="0.25" stroke-linecap="round" stroke-linejoin="round"/>
<path d="M18.8326 11.0071L15.0239 7.63965L14.8984 13.5529L20.3605 13.3034L18.8326 11.0071Z" fill="#E27625" stroke="#E27625" stroke-width="0.25" stroke-linecap="round" stroke-linejoin="round"/>
<path d="M8.29199 21.5423L11.5988 19.9576L8.74962 17.7493L8.29199 21.5423Z" fill="#E27625" stroke="#E27625" stroke-width="0.25" stroke-linecap="round" stroke-linejoin="round"/>
<path d="M15.2236 19.9502L18.523 21.5423L18.0728 17.7493L15.2236 19.9502Z" fill="#E27625" stroke="#E27625" stroke-width="0.25" stroke-linecap="round" stroke-linejoin="round"/>
<path d="M18.523 21.5422L15.2236 19.9575L15.4894 22.0851L15.4598 22.9875L18.523 21.5422Z" fill="#D5BFB2" stroke="#D5BFB2" stroke-width="0.25" stroke-linecap="round" stroke-linejoin="round"/>
<path d="M8.29199 21.5422L11.3626 22.9875L11.3404 22.0851L11.5988 19.9575L8.29199 21.5422Z" fill="#D5BFB2" stroke="#D5BFB2" stroke-width="0.25" stroke-linecap="round" stroke-linejoin="round"/>
<path d="M11.4147 16.3407L8.66895 15.541L10.6028 14.6533L11.4147 16.3407Z" fill="#233447" stroke="#233447" stroke-width="0.25" stroke-linecap="round" stroke-linejoin="round"/>
<path d="M15.4072 16.3407L16.2118 14.6606L18.1604 15.5484L15.4072 16.3407Z" fill="#233447" stroke="#233447" stroke-width="0.25" stroke-linecap="round" stroke-linejoin="round"/>
<path d="M8.29228 21.5422L8.77205 17.6245L5.72363 17.7126L8.29228 21.5422Z" fill="#CC6228" stroke="#CC6228" stroke-width="0.25" stroke-linecap="round" stroke-linejoin="round"/>
<path d="M18.0498 17.6245L18.5222 21.5422L21.0982 17.7126L18.0498 17.6245Z" fill="#CC6228" stroke="#CC6228" stroke-width="0.25" stroke-linecap="round" stroke-linejoin="round"/>
<path d="M20.3605 13.3105L14.8984 13.56L15.4077 16.3479L16.2123 14.6678L18.1609 15.5555L20.3605 13.3105Z" fill="#CC6228" stroke="#CC6228" stroke-width="0.25" stroke-linecap="round" stroke-linejoin="round"/>
<path d="M8.67626 15.5409L10.6101 14.6532L11.4147 16.3332L11.924 13.5453L6.46191 13.2959L8.67626 15.5409Z" fill="#CC6228" stroke="#CC6228" stroke-width="0.25" stroke-linecap="round" stroke-linejoin="round"/>
<path d="M6.46191 13.3105L8.75007 17.7491L8.67626 15.5408L6.46191 13.3105Z" fill="#E27525" stroke="#E27525" stroke-width="0.25" stroke-linecap="round" stroke-linejoin="round"/>
<path d="M18.1608 15.5408L18.0723 17.7491L20.3604 13.3105L18.1608 15.5408Z" fill="#E27525" stroke="#E27525" stroke-width="0.25" stroke-linecap="round" stroke-linejoin="round"/>
<path d="M11.9243 13.5527L11.415 16.3406L12.0572 19.6274L12.1974 15.2915L11.9243 13.5527Z" fill="#E27525" stroke="#E27525" stroke-width="0.25" stroke-linecap="round" stroke-linejoin="round"/>
<path d="M14.8985 13.5527L14.6328 15.2842L14.7657 19.6274L15.4078 16.3406L14.8985 13.5527Z" fill="#E27525" stroke="#E27525" stroke-width="0.25" stroke-linecap="round" stroke-linejoin="round"/>
<path d="M15.4078 16.3407L14.7656 19.6275L15.2233 19.9503L18.0724 17.742L18.161 15.5337L15.4078 16.3407Z" fill="#F5841F" stroke="#F5841F" stroke-width="0.25" stroke-linecap="round" stroke-linejoin="round"/>
<path d="M8.67578 15.541L8.74959 17.7493L11.5987 19.9576L12.0564 19.6348L11.4142 16.348L8.67578 15.541Z" fill="#F5841F" stroke="#F5841F" stroke-width="0.25" stroke-linecap="round" stroke-linejoin="round"/>
<path d="M15.4665 22.9875L15.496 22.0851L15.245 21.8724H11.584L11.3478 22.0851L11.3699 22.9875L8.29199 21.5422L9.36964 22.4153L11.5471 23.9046H15.2746L17.4594 22.4153L18.5223 21.5422L15.4665 22.9875Z" fill="#C0AC9D" stroke="#C0AC9D" stroke-width="0.25" stroke-linecap="round" stroke-linejoin="round"/>
<path d="M15.2233 19.9502L14.7657 19.6274H12.0568L11.5992 19.9502L11.3408 22.0778L11.577 21.8651H15.2381L15.489 22.0778L15.2233 19.9502Z" fill="#161616" stroke="#161616" stroke-width="0.25" stroke-linecap="round" stroke-linejoin="round"/>
<path d="M25.0037 8.68876L25.8156 4.75638L24.5903 1.09546L15.2236 7.98445L18.8256 11.0071L23.9186 12.4817L25.0406 11.1758L24.5534 10.8237L25.3284 10.1194L24.7306 9.66452L25.5056 9.0776L25.0037 8.68876Z" fill="#763E1A" stroke="#763E1A" stroke-width="0.25" stroke-linecap="round" stroke-linejoin="round"/>
<path d="M1 4.74882L1.82669 8.68119L1.30263 9.07003L2.09241 9.65695L1.49454 10.1118L2.26956 10.8161L1.7824 11.1683L2.90434 12.4742L7.99734 10.9995L11.5994 7.97689L2.23265 1.08789L1 4.74882Z" fill="#763E1A" stroke="#763E1A" stroke-width="0.25" stroke-linecap="round" stroke-linejoin="round"/>
<path d="M23.9181 12.4817L18.8251 11.0071L20.3604 13.3107L18.0723 17.7493L21.1059 17.7127H25.6306L23.9181 12.4817Z" fill="#F5841F" stroke="#F5841F" stroke-width="0.25" stroke-linecap="round" stroke-linejoin="round"/>
<path d="M7.99673 11.0071L2.90372 12.4817L1.20605 17.7127H5.72333L8.75699 17.7493L6.46882 13.3107L7.99673 11.0071Z" fill="#F5841F" stroke="#F5841F" stroke-width="0.25" stroke-linecap="round" stroke-linejoin="round"/>
<path d="M14.8987 13.5528L15.2234 7.98443L16.6997 4.02271H10.123L11.5993 7.98443L11.9241 13.5528L12.0495 15.2989L12.0569 19.6275H14.7584L14.7658 15.2989L14.8987 13.5528Z" fill="#F5841F" stroke="#F5841F" stroke-width="0.25" stroke-linecap="round" stroke-linejoin="round"/>
</svg>
