<svg id="svg" version="1.1" xmlns="http://www.w3.org/2000/svg" xmlns:xlink="http://www.w3.org/1999/xlink" width="26" height="25" viewBox="0, 0, 400, 400"><g id="svgg"><path id="path0" d="M193.467 3.467 C 193.320 3.613,193.200 4.063,193.200 4.467 C 193.200 5.080,192.873 5.200,191.200 5.200 C 189.333 5.200,189.200 5.267,189.200 6.200 C 189.200 7.000,189.000 7.200,188.200 7.200 C 187.406 7.200,187.200 7.401,187.200 8.178 C 187.200 9.061,187.015 9.168,185.300 9.278 C 183.679 9.382,183.381 9.532,183.272 10.300 C 183.180 10.951,182.876 11.200,182.172 11.200 C 181.402 11.200,181.200 11.408,181.200 12.200 C 181.200 13.000,181.000 13.200,180.200 13.200 C 179.400 13.200,179.200 13.400,179.200 14.200 C 179.200 15.133,179.067 15.200,177.200 15.200 C 175.333 15.200,175.200 15.267,175.200 16.200 C 175.200 17.005,175.001 17.200,174.182 17.200 C 173.622 17.200,172.714 17.650,172.164 18.200 C 171.614 18.750,170.793 19.200,170.339 19.200 C 169.886 19.200,169.161 19.650,168.729 20.200 C 168.163 20.919,167.557 21.200,166.571 21.200 C 165.375 21.200,165.200 21.328,165.200 22.200 C 165.200 23.133,165.067 23.200,163.200 23.200 C 161.333 23.200,161.200 23.267,161.200 24.200 C 161.200 25.072,161.025 25.200,159.829 25.200 C 158.527 25.200,157.200 26.022,157.200 26.829 C 157.200 27.033,156.300 27.200,155.200 27.200 C 153.345 27.200,153.200 27.271,153.200 28.178 C 153.200 29.061,153.015 29.168,151.300 29.278 C 149.679 29.382,149.381 29.532,149.272 30.300 C 149.161 31.082,148.907 31.200,147.330 31.200 C 145.871 31.200,145.361 31.396,144.729 32.200 C 144.159 32.924,143.558 33.200,142.553 33.200 C 141.611 33.200,140.847 33.516,140.181 34.182 C 139.349 35.015,138.756 35.183,136.299 35.282 C 133.639 35.390,133.389 35.474,133.272 36.300 C 133.159 37.094,132.913 37.200,131.172 37.200 C 129.335 37.200,129.200 37.269,129.200 38.200 L 129.200 39.200 125.200 39.200 L 121.200 39.200 121.200 40.200 C 121.200 41.178,121.133 41.200,118.200 41.200 C 115.267 41.200,115.200 41.222,115.200 42.200 L 115.200 43.200 109.981 43.200 C 104.928 43.200,104.732 43.232,103.835 44.200 C 102.970 45.133,102.651 45.200,99.054 45.200 C 95.216 45.200,95.200 45.204,95.200 46.194 L 95.200 47.187 84.300 47.294 L 73.400 47.400 73.272 48.300 L 73.144 49.200 56.172 49.200 L 39.200 49.200 39.200 50.200 C 39.200 51.133,39.067 51.200,37.200 51.200 C 35.333 51.200,35.200 51.267,35.200 52.200 C 35.200 53.000,35.000 53.200,34.200 53.200 C 33.400 53.200,33.200 53.400,33.200 54.200 C 33.200 55.000,33.000 55.200,32.200 55.200 C 31.267 55.200,31.200 55.333,31.200 57.200 C 31.200 59.068,31.134 59.200,30.197 59.200 L 29.194 59.200 29.297 84.700 L 29.400 110.200 30.297 110.594 L 31.194 110.987 31.297 135.594 L 31.400 160.200 32.300 160.595 C 33.199 160.989,33.200 161.006,33.200 170.913 L 33.200 180.836 34.194 181.830 L 35.187 182.824 35.294 193.712 L 35.400 204.600 36.300 204.728 C 37.187 204.854,37.200 204.939,37.200 210.828 L 37.200 216.800 38.191 216.800 L 39.183 216.800 39.291 224.500 C 39.398 232.053,39.417 232.208,40.300 232.595 C 41.145 232.966,41.200 233.229,41.200 236.895 C 41.200 240.794,41.202 240.800,42.200 240.800 L 43.200 240.800 43.200 245.800 L 43.200 250.800 44.185 250.800 C 45.152 250.800,45.172 250.866,45.285 254.500 C 45.390 257.880,45.477 258.234,46.286 258.589 C 47.093 258.943,47.182 259.300,47.286 262.589 C 47.390 265.895,47.476 266.233,48.300 266.595 C 49.052 266.925,49.200 267.303,49.200 268.895 C 49.200 270.660,49.273 270.800,50.200 270.800 C 51.173 270.800,51.200 270.877,51.200 273.642 C 51.200 276.182,51.304 276.567,52.180 277.255 C 52.956 277.866,53.184 278.459,53.280 280.113 C 53.379 281.831,53.559 282.270,54.300 282.595 C 55.052 282.925,55.200 283.303,55.200 284.895 C 55.200 286.660,55.273 286.800,56.200 286.800 C 57.133 286.800,57.200 286.933,57.200 288.800 C 57.200 290.667,57.267 290.800,58.200 290.800 C 59.133 290.800,59.200 290.933,59.200 292.800 C 59.200 294.667,59.267 294.800,60.200 294.800 C 61.133 294.800,61.200 294.933,61.200 296.800 C 61.200 298.655,61.271 298.800,62.178 298.800 C 63.061 298.800,63.168 298.985,63.278 300.700 C 63.382 302.321,63.532 302.619,64.300 302.728 C 64.951 302.820,65.200 303.124,65.200 303.828 C 65.200 304.592,65.409 304.800,66.177 304.800 C 67.040 304.800,67.168 304.998,67.277 306.500 C 67.372 307.813,67.605 308.290,68.300 308.595 C 68.852 308.837,69.200 309.340,69.200 309.895 C 69.200 310.594,69.428 310.800,70.200 310.800 C 71.000 310.800,71.200 311.000,71.200 311.800 C 71.200 312.600,71.400 312.800,72.200 312.800 C 73.000 312.800,73.200 313.000,73.200 313.800 C 73.200 314.594,73.401 314.800,74.178 314.800 C 75.061 314.800,75.168 314.985,75.278 316.700 L 75.400 318.600 77.300 318.722 L 79.200 318.844 79.200 320.822 L 79.200 322.800 81.178 322.800 L 83.156 322.800 83.278 324.700 L 83.400 326.600 85.300 326.722 C 87.109 326.838,87.200 326.900,87.200 328.022 C 87.200 329.540,88.470 330.800,90.000 330.800 C 91.013 330.800,91.200 330.956,91.200 331.800 C 91.200 332.600,91.400 332.800,92.200 332.800 C 93.000 332.800,93.200 333.000,93.200 333.800 C 93.200 334.572,93.406 334.800,94.105 334.800 C 94.660 334.800,95.163 335.148,95.405 335.700 C 95.710 336.395,96.187 336.628,97.500 336.723 C 99.002 336.832,99.200 336.960,99.200 337.823 C 99.200 338.591,99.408 338.800,100.172 338.800 C 100.876 338.800,101.180 339.049,101.272 339.700 C 101.349 340.244,101.721 340.646,102.212 340.716 C 102.659 340.780,103.199 341.230,103.412 341.716 C 103.709 342.393,104.198 342.629,105.500 342.723 C 107.002 342.832,107.200 342.960,107.200 343.823 C 107.200 344.729,107.346 344.800,109.200 344.800 C 111.067 344.800,111.200 344.867,111.200 345.800 C 111.200 346.592,111.402 346.800,112.172 346.800 C 112.876 346.800,113.180 347.049,113.272 347.700 C 113.381 348.468,113.679 348.618,115.300 348.722 C 117.015 348.832,117.200 348.939,117.200 349.822 C 117.200 350.729,117.345 350.800,119.200 350.800 C 121.067 350.800,121.200 350.867,121.200 351.800 C 121.200 352.600,121.400 352.800,122.200 352.800 C 123.000 352.800,123.200 353.000,123.200 353.800 C 123.200 354.733,123.333 354.800,125.200 354.800 C 127.067 354.800,127.200 354.867,127.200 355.800 C 127.200 356.733,127.333 356.800,129.200 356.800 C 131.067 356.800,131.200 356.867,131.200 357.800 C 131.200 358.733,131.333 358.800,133.200 358.800 C 135.067 358.800,135.200 358.867,135.200 359.800 C 135.200 360.600,135.400 360.800,136.200 360.800 C 137.000 360.800,137.200 361.000,137.200 361.800 C 137.200 362.733,137.333 362.800,139.200 362.800 C 141.067 362.800,141.200 362.867,141.200 363.800 C 141.200 364.554,141.410 364.800,142.054 364.800 C 142.524 364.800,143.325 365.250,143.835 365.800 C 144.609 366.635,145.128 366.800,146.981 366.800 C 149.081 366.800,149.200 366.854,149.200 367.800 C 149.200 368.600,149.400 368.800,150.200 368.800 C 151.000 368.800,151.200 369.000,151.200 369.800 C 151.200 370.733,151.333 370.800,153.200 370.800 C 155.067 370.800,155.200 370.867,155.200 371.800 C 155.200 372.733,155.333 372.800,157.200 372.800 C 159.067 372.800,159.200 372.867,159.200 373.800 C 159.200 374.733,159.333 374.800,161.200 374.800 C 163.067 374.800,163.200 374.867,163.200 375.800 C 163.200 376.600,163.400 376.800,164.200 376.800 C 165.000 376.800,165.200 377.000,165.200 377.800 C 165.200 378.733,165.333 378.800,167.200 378.800 C 169.067 378.800,169.200 378.867,169.200 379.800 C 169.200 380.600,169.400 380.800,170.200 380.800 C 171.000 380.800,171.200 381.000,171.200 381.800 C 171.200 382.733,171.333 382.800,173.200 382.800 C 175.067 382.800,175.200 382.867,175.200 383.800 C 175.200 384.572,175.406 384.800,176.105 384.800 C 176.660 384.800,177.163 385.148,177.405 385.700 C 177.709 386.392,178.188 386.628,179.475 386.722 C 180.847 386.821,181.173 387.002,181.275 387.718 C 181.346 388.214,181.745 388.658,182.199 388.744 C 182.638 388.828,183.395 389.325,183.880 389.848 C 184.437 390.449,185.211 390.800,185.981 390.800 C 187.015 390.800,187.200 390.952,187.200 391.800 C 187.200 392.733,187.333 392.800,189.200 392.800 C 191.067 392.800,191.200 392.867,191.200 393.800 L 191.200 394.800 199.000 394.800 L 206.800 394.800 206.800 393.800 C 206.800 393.000,207.000 392.800,207.800 392.800 C 208.600 392.800,208.800 392.600,208.800 391.800 C 208.800 390.867,208.933 390.800,210.800 390.800 C 212.667 390.800,212.800 390.733,212.800 389.800 C 212.800 389.000,213.000 388.800,213.800 388.800 C 214.600 388.800,214.800 388.600,214.800 387.800 C 214.800 386.867,214.933 386.800,216.800 386.800 C 218.654 386.800,218.800 386.729,218.800 385.823 C 218.800 384.960,218.998 384.832,220.500 384.723 C 221.813 384.628,222.290 384.395,222.595 383.700 C 222.812 383.205,223.326 382.800,223.737 382.800 C 224.148 382.800,224.830 382.361,225.252 381.825 C 225.720 381.230,226.523 380.801,227.310 380.725 C 228.286 380.630,228.630 380.386,228.725 379.722 C 228.827 379.001,229.151 378.822,230.525 378.722 C 231.812 378.628,232.291 378.392,232.595 377.700 C 232.837 377.148,233.340 376.800,233.895 376.800 C 234.594 376.800,234.800 376.572,234.800 375.800 C 234.800 374.867,234.933 374.800,236.800 374.800 C 238.667 374.800,238.800 374.733,238.800 373.800 C 238.800 372.995,238.999 372.800,239.818 372.800 C 240.378 372.800,241.286 372.350,241.836 371.800 C 242.459 371.177,243.290 370.800,244.037 370.800 C 244.804 370.800,245.573 370.439,246.165 369.800 C 246.675 369.250,247.476 368.800,247.946 368.800 C 248.590 368.800,248.800 368.554,248.800 367.800 C 248.800 366.867,248.933 366.800,250.800 366.800 C 252.667 366.800,252.800 366.733,252.800 365.800 C 252.800 364.956,252.987 364.800,254.000 364.800 C 255.013 364.800,255.200 364.644,255.200 363.800 C 255.200 362.869,255.335 362.800,257.171 362.800 C 258.779 362.800,259.282 362.622,259.902 361.833 C 260.321 361.301,261.189 360.806,261.831 360.733 C 262.679 360.637,263.034 360.358,263.125 359.721 C 263.231 358.979,263.544 358.823,265.125 358.721 C 266.705 358.619,267.020 358.462,267.125 357.723 C 267.224 357.029,267.558 356.820,268.725 356.723 C 269.792 356.634,270.307 356.356,270.587 355.719 C 270.878 355.056,271.374 354.808,272.587 354.719 C 273.811 354.629,274.295 354.383,274.595 353.700 C 274.836 353.151,275.340 352.800,275.887 352.800 C 276.511 352.800,276.861 352.495,277.036 351.800 C 277.255 350.928,277.506 350.800,279.000 350.800 C 280.494 350.800,280.745 350.672,280.964 349.800 C 281.148 349.069,281.483 348.800,282.208 348.800 C 282.994 348.800,283.200 348.597,283.200 347.822 C 283.200 346.939,283.385 346.832,285.100 346.722 C 286.721 346.618,287.019 346.468,287.128 345.700 C 287.219 345.057,287.525 344.800,288.199 344.800 C 288.720 344.800,289.482 344.367,289.902 343.833 C 290.321 343.301,291.189 342.806,291.831 342.733 C 292.688 342.636,293.034 342.360,293.128 341.700 C 293.220 341.049,293.524 340.800,294.228 340.800 C 294.992 340.800,295.200 340.591,295.200 339.822 C 295.200 338.939,295.385 338.832,297.100 338.722 C 298.704 338.619,299.019 338.464,299.125 337.725 C 299.202 337.179,299.579 336.802,300.125 336.725 C 300.671 336.647,301.047 336.270,301.125 335.723 C 301.224 335.029,301.558 334.820,302.725 334.723 C 303.802 334.633,304.306 334.357,304.595 333.700 C 304.837 333.148,305.340 332.800,305.895 332.800 C 306.594 332.800,306.800 332.572,306.800 331.800 C 306.800 331.000,307.000 330.800,307.800 330.800 C 308.600 330.800,308.800 330.600,308.800 329.800 C 308.800 329.000,309.000 328.800,309.800 328.800 C 310.600 328.800,310.800 328.600,310.800 327.800 C 310.800 327.000,311.000 326.800,311.800 326.800 C 312.600 326.800,312.800 326.600,312.800 325.800 C 312.800 325.000,313.000 324.800,313.800 324.800 C 314.600 324.800,314.800 324.600,314.800 323.800 C 314.800 323.000,315.000 322.800,315.800 322.800 C 316.600 322.800,316.800 322.600,316.800 321.800 C 316.800 321.000,317.000 320.800,317.800 320.800 C 318.600 320.800,318.800 320.600,318.800 319.800 C 318.800 319.000,319.000 318.800,319.800 318.800 C 320.600 318.800,320.800 318.600,320.800 317.800 C 320.800 317.000,321.000 316.800,321.800 316.800 C 322.600 316.800,322.800 316.600,322.800 315.800 C 322.800 315.000,323.000 314.800,323.800 314.800 C 324.600 314.800,324.800 314.600,324.800 313.800 C 324.800 313.000,325.000 312.800,325.800 312.800 C 326.733 312.800,326.800 312.667,326.800 310.800 C 326.800 308.933,326.867 308.800,327.800 308.800 C 328.600 308.800,328.800 308.600,328.800 307.800 C 328.800 307.000,329.000 306.800,329.800 306.800 C 330.733 306.800,330.800 306.667,330.800 304.800 C 330.800 302.933,330.867 302.800,331.800 302.800 C 332.600 302.800,332.800 302.600,332.800 301.800 C 332.800 301.000,333.000 300.800,333.800 300.800 C 334.733 300.800,334.800 300.667,334.800 298.800 C 334.800 296.933,334.867 296.800,335.800 296.800 C 336.572 296.800,336.800 296.594,336.800 295.895 C 336.800 295.340,337.148 294.837,337.700 294.595 C 338.486 294.250,338.615 293.857,338.718 291.500 C 338.831 288.932,338.885 288.800,339.818 288.800 C 340.554 288.800,340.800 288.586,340.800 287.946 C 340.800 287.476,341.250 286.675,341.800 286.165 C 342.632 285.394,342.800 284.870,342.800 283.047 C 342.800 281.079,342.892 280.843,343.700 280.728 C 344.468 280.619,344.618 280.321,344.722 278.696 C 344.810 277.318,345.114 276.522,345.822 275.814 C 346.687 274.950,346.800 274.486,346.800 271.818 C 346.800 268.865,346.822 268.800,347.800 268.800 C 348.732 268.800,348.800 268.665,348.800 266.818 C 348.800 265.238,349.002 264.634,349.800 263.836 C 350.734 262.902,350.800 262.571,350.800 258.818 L 350.800 254.800 351.800 254.800 C 352.777 254.800,352.800 254.731,352.800 251.828 C 352.800 249.050,352.859 248.847,353.700 248.728 C 354.581 248.603,354.602 248.476,354.711 242.700 L 354.821 236.800 355.811 236.800 C 356.797 236.800,356.800 236.787,356.800 232.828 C 356.800 229.013,356.836 228.851,357.700 228.728 C 358.594 228.601,358.601 228.550,358.708 220.727 C 358.816 212.926,358.825 212.852,359.708 212.727 C 360.586 212.602,360.602 212.494,360.709 205.700 L 360.819 198.800 361.809 198.800 L 362.800 198.800 362.800 186.818 L 362.800 174.836 363.800 173.836 L 364.800 172.836 364.800 161.964 L 364.800 151.092 365.800 150.165 L 366.800 149.238 366.800 118.019 L 366.800 86.800 367.800 86.800 L 368.800 86.800 368.800 73.982 L 368.800 61.164 367.800 60.164 C 367.002 59.366,366.800 58.762,366.800 57.182 C 366.800 55.335,366.732 55.200,365.800 55.200 C 365.000 55.200,364.800 55.000,364.800 54.200 C 364.800 53.400,364.600 53.200,363.800 53.200 C 363.000 53.200,362.800 53.000,362.800 52.200 C 362.800 51.267,362.667 51.200,360.800 51.200 C 358.933 51.200,358.800 51.133,358.800 50.200 L 358.800 49.200 341.895 49.200 L 324.990 49.200 324.595 48.300 C 324.201 47.403,324.164 47.400,313.527 47.294 L 302.854 47.187 302.727 46.294 C 302.605 45.434,302.420 45.396,297.904 45.287 C 293.302 45.177,293.204 45.155,292.964 44.199 C 292.723 43.241,292.636 43.222,287.860 43.112 C 283.164 43.004,282.996 42.970,282.872 42.100 C 282.753 41.260,282.549 41.200,279.800 41.200 C 277.051 41.200,276.847 41.140,276.728 40.300 C 276.607 39.447,276.399 39.394,272.726 39.286 C 269.072 39.178,268.845 39.121,268.726 38.286 C 268.612 37.486,268.339 37.389,265.926 37.282 C 263.515 37.176,263.239 37.077,263.126 36.282 C 263.011 35.479,262.742 35.390,260.126 35.283 C 257.508 35.176,257.240 35.087,257.126 34.283 C 257.017 33.519,256.717 33.384,254.900 33.279 C 252.972 33.168,252.800 33.078,252.800 32.179 C 252.800 31.227,252.716 31.200,249.800 31.200 C 246.867 31.200,246.800 31.178,246.800 30.200 C 246.800 29.428,246.594 29.200,245.895 29.200 C 245.340 29.200,244.837 28.852,244.595 28.300 C 244.250 27.514,243.857 27.385,241.500 27.282 C 238.932 27.169,238.800 27.115,238.800 26.182 C 238.800 25.429,238.589 25.200,237.895 25.200 C 237.340 25.200,236.837 24.852,236.595 24.300 C 236.250 23.514,235.857 23.385,233.500 23.282 C 230.932 23.169,230.800 23.115,230.800 22.182 C 230.800 21.401,230.595 21.200,229.800 21.200 C 229.000 21.200,228.800 21.000,228.800 20.200 C 228.800 19.267,228.667 19.200,226.800 19.200 C 224.933 19.200,224.800 19.133,224.800 18.200 C 224.800 17.400,224.600 17.200,223.800 17.200 C 223.000 17.200,222.800 17.000,222.800 16.200 C 222.800 15.267,222.667 15.200,220.800 15.200 C 218.933 15.200,218.800 15.133,218.800 14.200 C 218.800 13.400,218.600 13.200,217.800 13.200 C 217.000 13.200,216.800 13.000,216.800 12.200 C 216.800 11.267,216.667 11.200,214.800 11.200 C 212.933 11.200,212.800 11.133,212.800 10.200 C 212.800 9.400,212.600 9.200,211.800 9.200 C 211.000 9.200,210.800 9.000,210.800 8.200 C 210.800 7.267,210.667 7.200,208.800 7.200 C 206.933 7.200,206.800 7.133,206.800 6.200 C 206.800 5.267,206.667 5.200,204.800 5.200 C 202.933 5.200,202.800 5.133,202.800 4.200 L 202.800 3.200 198.267 3.200 C 195.773 3.200,193.613 3.320,193.467 3.467 M200.400 38.809 C 200.400 39.018,200.985 39.465,201.700 39.803 C 203.917 40.850,206.113 42.301,206.484 42.965 C 206.680 43.314,207.146 43.603,207.520 43.607 C 208.172 43.614,211.127 45.354,212.417 46.491 C 212.757 46.790,213.657 47.281,214.417 47.583 C 215.178 47.885,216.070 48.349,216.400 48.615 C 216.730 48.881,217.675 49.411,218.500 49.795 C 219.325 50.178,220.000 50.644,220.000 50.830 C 220.000 51.017,220.759 51.373,221.686 51.623 C 222.613 51.873,223.807 52.420,224.340 52.839 C 224.872 53.257,225.616 53.600,225.992 53.600 C 226.368 53.600,227.002 53.961,227.402 54.402 C 227.801 54.843,228.863 55.399,229.764 55.639 C 230.664 55.878,231.670 56.297,232.000 56.569 C 232.330 56.842,233.455 57.380,234.500 57.765 C 235.545 58.151,236.400 58.619,236.400 58.805 C 236.400 58.991,237.376 59.346,238.569 59.594 C 239.762 59.841,240.956 60.306,241.221 60.626 C 241.487 60.945,242.396 61.318,243.241 61.453 C 244.087 61.588,245.358 62.127,246.067 62.649 C 246.776 63.172,247.908 63.600,248.584 63.600 C 249.259 63.600,250.439 63.931,251.206 64.336 C 251.973 64.741,253.500 65.295,254.600 65.566 C 255.700 65.838,256.896 66.328,257.259 66.655 C 257.621 66.982,258.992 67.401,260.305 67.587 C 261.618 67.772,263.233 68.203,263.893 68.545 C 264.553 68.886,266.221 69.347,267.600 69.569 C 268.979 69.791,270.418 70.254,270.798 70.598 C 271.217 70.977,272.863 71.379,274.980 71.620 C 276.901 71.838,278.951 72.264,279.536 72.566 C 280.121 72.869,282.202 73.311,284.159 73.551 C 286.117 73.790,288.158 74.274,288.695 74.626 C 289.370 75.068,291.302 75.381,294.936 75.637 C 297.831 75.840,301.118 76.273,302.241 76.598 C 303.363 76.922,307.286 77.377,310.957 77.609 C 314.629 77.841,318.481 78.213,319.517 78.436 C 322.268 79.029,328.435 79.558,332.856 79.581 C 335.916 79.596,336.887 79.744,337.565 80.300 L 338.418 81.000 338.000 92.600 C 337.770 98.980,337.407 105.730,337.194 107.600 C 336.981 109.470,336.799 114.150,336.791 118.000 C 336.765 129.290,336.091 143.947,335.438 147.400 C 335.064 149.383,334.685 155.239,334.443 162.800 C 334.196 170.532,333.832 176.099,333.450 178.000 C 333.119 179.650,332.674 184.098,332.461 187.884 C 332.203 192.487,331.877 195.163,331.479 195.961 C 331.092 196.738,330.790 199.079,330.615 202.677 C 330.338 208.338,329.771 212.690,329.218 213.400 C 329.046 213.620,328.783 215.690,328.633 218.000 C 328.452 220.800,328.109 222.733,327.607 223.800 C 327.135 224.802,326.750 226.820,326.578 229.200 C 326.427 231.290,326.041 233.720,325.721 234.600 C 325.401 235.480,324.901 237.696,324.610 239.524 C 324.318 241.353,323.809 243.153,323.477 243.524 C 323.140 243.903,322.754 245.432,322.600 247.000 C 322.449 248.540,321.995 250.520,321.590 251.400 C 321.186 252.280,320.732 253.857,320.581 254.905 C 320.431 255.952,319.985 257.219,319.591 257.721 C 319.197 258.222,318.746 259.525,318.590 260.616 C 318.433 261.707,317.986 263.230,317.596 264.000 C 317.206 264.770,316.685 266.146,316.439 267.059 C 316.194 267.971,315.737 268.815,315.424 268.935 C 315.112 269.055,314.733 269.976,314.582 270.981 C 314.431 271.987,313.996 273.212,313.615 273.705 C 313.234 274.197,312.800 275.100,312.651 275.710 C 312.502 276.321,312.029 277.171,311.600 277.600 C 311.171 278.029,310.702 278.879,310.558 279.490 C 310.413 280.100,309.972 280.960,309.577 281.400 C 309.182 281.840,308.731 282.718,308.573 283.352 C 308.416 283.986,307.972 284.587,307.586 284.688 C 307.201 284.788,306.782 285.389,306.655 286.023 C 306.529 286.657,306.059 287.541,305.613 287.988 C 305.166 288.434,304.800 288.967,304.800 289.171 C 304.800 289.375,304.395 289.870,303.900 290.271 C 303.405 290.672,302.703 291.630,302.339 292.400 C 300.745 295.779,285.367 310.800,283.503 310.800 C 283.289 310.800,282.761 311.250,282.329 311.800 C 281.896 312.350,281.285 312.800,280.971 312.800 C 280.657 312.800,280.400 312.983,280.400 313.206 C 280.400 313.430,279.737 313.925,278.926 314.306 C 278.115 314.688,277.043 315.405,276.544 315.900 C 276.045 316.395,275.358 316.800,275.018 316.800 C 274.678 316.800,274.400 316.990,274.400 317.222 C 274.400 317.455,273.590 318.003,272.600 318.441 C 271.610 318.879,270.800 319.418,270.800 319.639 C 270.800 319.860,270.201 320.291,269.468 320.597 C 268.736 320.903,267.913 321.423,267.641 321.751 C 267.368 322.080,266.616 322.465,265.969 322.607 C 265.322 322.749,264.616 323.196,264.400 323.600 C 264.184 324.004,263.480 324.451,262.837 324.592 C 262.193 324.733,261.574 325.090,261.461 325.384 C 261.348 325.679,260.568 326.145,259.728 326.421 C 258.888 326.697,257.975 327.241,257.700 327.630 C 257.424 328.018,256.678 328.451,256.041 328.591 C 255.404 328.731,254.576 329.185,254.200 329.600 C 253.824 330.015,252.951 330.479,252.259 330.631 C 251.566 330.783,250.765 331.243,250.477 331.654 C 250.190 332.064,249.730 332.400,249.455 332.400 C 249.180 332.400,248.345 332.850,247.600 333.400 C 246.855 333.950,245.946 334.400,245.581 334.400 C 245.216 334.400,244.446 334.836,243.871 335.369 C 243.296 335.902,242.441 336.460,241.972 336.609 C 241.502 336.758,240.481 337.312,239.703 337.840 C 238.925 338.368,237.997 338.800,237.640 338.800 C 237.284 338.800,236.782 339.137,236.524 339.550 C 236.267 339.962,235.578 340.419,234.994 340.566 C 234.410 340.712,233.553 341.185,233.090 341.616 C 232.628 342.047,231.930 342.400,231.540 342.400 C 231.150 342.400,230.502 342.753,230.100 343.185 C 229.697 343.617,228.731 344.237,227.952 344.562 C 227.173 344.888,226.313 345.423,226.041 345.751 C 225.768 346.080,225.009 346.466,224.355 346.610 C 223.701 346.754,222.731 347.305,222.201 347.836 C 221.670 348.366,220.986 348.800,220.680 348.800 C 220.374 348.800,219.813 349.144,219.433 349.564 C 219.052 349.984,218.311 350.436,217.785 350.568 C 217.259 350.700,216.380 351.256,215.832 351.804 C 215.285 352.352,214.508 352.800,214.107 352.800 C 213.706 352.800,213.070 353.160,212.693 353.600 C 212.316 354.040,211.761 354.400,211.459 354.400 C 211.157 354.400,210.231 354.940,209.400 355.600 C 208.569 356.260,207.716 356.800,207.503 356.800 C 207.290 356.800,206.581 357.250,205.927 357.800 C 205.273 358.350,204.399 358.800,203.983 358.800 C 203.568 358.800,203.042 359.148,202.814 359.573 C 202.587 359.998,202.009 360.470,201.531 360.622 C 201.053 360.774,200.310 361.226,199.880 361.626 C 199.015 362.431,196.478 361.460,193.869 359.325 C 193.247 358.816,192.510 358.400,192.231 358.400 C 191.952 358.400,191.398 358.040,191.000 357.600 C 190.602 357.160,190.026 356.800,189.720 356.800 C 189.414 356.800,188.715 356.352,188.168 355.804 C 187.620 355.256,186.736 354.699,186.202 354.565 C 185.669 354.431,185.015 354.059,184.748 353.738 C 184.482 353.417,183.662 352.902,182.926 352.595 C 182.191 352.288,181.482 351.758,181.352 351.418 C 181.221 351.078,180.799 350.800,180.413 350.800 C 180.027 350.800,179.049 350.350,178.238 349.800 C 177.428 349.250,176.606 348.800,176.413 348.800 C 176.220 348.800,175.551 348.371,174.927 347.846 C 174.304 347.321,173.165 346.594,172.397 346.230 C 169.627 344.919,168.271 344.112,167.834 343.514 C 167.589 343.179,166.819 342.780,166.122 342.627 C 165.425 342.474,164.639 342.088,164.375 341.770 C 164.111 341.451,163.108 340.843,162.147 340.418 C 161.186 339.993,160.400 339.469,160.400 339.254 C 160.400 339.039,159.868 338.747,159.219 338.604 C 158.569 338.461,157.624 338.022,157.119 337.627 C 156.613 337.233,155.789 336.781,155.286 336.624 C 154.784 336.466,154.064 336.015,153.686 335.622 C 153.309 335.228,152.312 334.684,151.472 334.413 C 150.632 334.141,149.847 333.668,149.729 333.360 C 149.611 333.052,149.187 332.800,148.788 332.800 C 148.388 332.800,147.551 332.371,146.927 331.846 C 146.304 331.321,145.165 330.594,144.397 330.230 C 141.627 328.919,140.271 328.112,139.834 327.514 C 139.589 327.179,138.825 326.781,138.136 326.630 C 137.447 326.478,136.566 326.005,136.179 325.577 C 135.793 325.150,135.248 324.800,134.969 324.800 C 134.690 324.800,133.953 324.391,133.331 323.891 C 132.709 323.391,131.525 322.674,130.700 322.298 C 129.875 321.921,129.200 321.430,129.200 321.206 C 129.200 320.983,128.832 320.800,128.382 320.800 C 127.932 320.800,127.112 320.348,126.560 319.796 C 126.008 319.244,124.936 318.533,124.178 318.217 C 123.420 317.900,122.800 317.452,122.800 317.220 C 122.800 316.989,122.536 316.800,122.214 316.800 C 121.892 316.800,121.013 316.260,120.261 315.600 C 119.509 314.940,118.721 314.400,118.509 314.400 C 118.297 314.400,117.798 314.040,117.400 313.600 C 117.002 313.160,116.503 312.800,116.291 312.800 C 116.079 312.800,115.252 312.264,114.453 311.609 C 113.654 310.954,112.485 310.009,111.856 309.509 C 111.227 309.009,110.147 308.114,109.456 307.521 C 108.765 306.927,107.703 306.027,107.095 305.521 C 104.645 303.478,99.200 297.831,99.200 297.333 C 99.200 297.040,98.936 296.800,98.614 296.800 C 98.292 296.800,97.817 296.395,97.559 295.900 C 97.301 295.405,96.832 294.730,96.517 294.400 C 95.397 293.226,91.600 287.867,91.584 287.437 C 91.575 287.197,91.035 286.377,90.384 285.615 C 89.733 284.853,89.200 284.020,89.200 283.764 C 89.200 283.508,88.939 283.082,88.620 282.817 C 88.302 282.552,87.832 281.675,87.576 280.868 C 87.321 280.061,86.904 279.220,86.651 279.000 C 86.018 278.450,83.724 273.662,83.408 272.232 C 83.266 271.589,82.802 270.620,82.375 270.078 C 81.949 269.536,81.594 268.801,81.587 268.446 C 81.581 268.091,81.132 266.900,80.591 265.800 C 80.050 264.700,79.606 263.349,79.604 262.797 C 79.602 262.245,79.174 260.985,78.654 259.997 C 78.134 259.009,77.579 257.486,77.420 256.614 C 77.261 255.741,76.878 254.537,76.568 253.937 C 76.258 253.338,75.823 251.570,75.601 250.008 C 75.380 248.447,74.920 246.744,74.579 246.224 C 74.238 245.704,73.776 244.046,73.553 242.539 C 73.330 241.033,72.896 239.247,72.588 238.571 C 72.281 237.895,71.848 235.420,71.625 233.072 C 71.388 230.568,70.970 228.420,70.614 227.877 C 70.268 227.350,69.824 225.152,69.582 222.775 C 69.348 220.479,68.895 217.824,68.575 216.876 C 68.255 215.928,67.826 212.418,67.622 209.076 C 67.397 205.383,66.997 202.294,66.603 201.200 C 66.219 200.133,65.795 196.956,65.563 193.400 C 65.347 190.100,64.902 185.960,64.572 184.200 C 64.236 182.402,63.805 176.354,63.588 170.400 C 63.349 163.828,62.976 158.812,62.608 157.200 C 62.207 155.449,61.880 150.290,61.605 141.400 C 61.381 134.140,61.008 126.220,60.776 123.800 C 59.664 112.213,59.229 81.228,60.164 80.293 C 60.583 79.874,62.477 79.663,67.503 79.473 C 71.228 79.332,75.429 78.951,76.838 78.626 C 78.247 78.301,82.401 77.847,86.069 77.617 C 89.737 77.387,93.787 76.933,95.069 76.607 C 96.351 76.281,99.679 75.845,102.464 75.636 C 105.816 75.386,107.974 75.027,108.848 74.575 C 109.574 74.200,111.544 73.738,113.225 73.550 C 114.907 73.362,116.911 72.946,117.680 72.624 C 118.449 72.303,120.525 71.859,122.294 71.637 C 124.063 71.415,126.206 70.883,127.055 70.456 C 127.905 70.028,129.485 69.554,130.567 69.404 C 131.648 69.254,132.915 68.881,133.380 68.576 C 133.846 68.271,135.422 67.852,136.883 67.645 C 138.348 67.438,140.046 66.912,140.670 66.472 C 141.291 66.033,142.501 65.555,143.358 65.408 C 144.216 65.262,145.306 64.887,145.782 64.575 C 146.258 64.263,147.595 63.828,148.755 63.609 C 149.914 63.389,151.323 62.847,151.885 62.404 C 152.448 61.962,153.206 61.600,153.569 61.600 C 153.933 61.600,154.944 61.236,155.815 60.790 C 156.687 60.345,158.114 59.787,158.986 59.552 C 159.858 59.316,161.007 58.780,161.540 58.361 C 162.072 57.943,162.710 57.600,162.957 57.600 C 163.204 57.600,164.215 57.172,165.203 56.649 C 166.191 56.126,167.570 55.575,168.267 55.425 C 168.963 55.274,169.626 54.910,169.739 54.616 C 169.852 54.321,170.632 53.856,171.472 53.582 C 172.312 53.308,173.429 52.750,173.954 52.342 C 174.479 51.934,175.230 51.600,175.623 51.600 C 176.017 51.600,176.847 51.175,177.469 50.655 C 178.091 50.135,179.050 49.570,179.600 49.400 C 180.150 49.229,181.029 48.755,181.554 48.345 C 182.079 47.935,182.740 47.600,183.023 47.600 C 183.307 47.600,184.073 47.150,184.727 46.600 C 185.381 46.050,186.101 45.600,186.327 45.600 C 186.553 45.600,187.260 45.162,187.896 44.626 C 188.533 44.090,189.537 43.531,190.127 43.383 C 190.717 43.234,191.200 42.958,191.200 42.768 C 191.200 42.386,195.947 39.200,196.516 39.200 C 196.713 39.200,197.326 38.844,197.880 38.409 C 198.885 37.618,200.400 37.858,200.400 38.809 " stroke="none" fill="#3574bb" fill-rule="evenodd"></path><path id="path1" d="M197.800 40.510 C 197.140 40.735,196.091 41.342,195.469 41.860 C 194.847 42.377,193.992 42.800,193.569 42.800 C 193.146 42.800,192.800 43.048,192.800 43.351 C 192.800 43.655,192.223 44.142,191.517 44.434 C 190.812 44.727,189.916 45.284,189.527 45.673 C 189.138 46.062,188.351 46.498,187.777 46.642 C 187.202 46.786,186.306 47.330,185.785 47.852 C 185.263 48.373,184.475 48.800,184.032 48.800 C 183.590 48.800,183.048 49.136,182.828 49.547 C 182.608 49.958,181.864 50.407,181.174 50.545 C 180.485 50.683,179.384 51.247,178.729 51.798 C 178.075 52.349,177.304 52.800,177.018 52.800 C 176.732 52.800,176.275 53.069,176.002 53.398 C 175.728 53.727,174.761 54.217,173.853 54.486 C 172.944 54.755,171.844 55.303,171.408 55.703 C 170.972 56.103,170.162 56.538,169.608 56.669 C 169.054 56.800,168.298 57.170,167.929 57.490 C 167.559 57.810,166.479 58.247,165.529 58.460 C 164.578 58.674,163.440 59.178,163.000 59.581 C 162.560 59.984,161.570 60.447,160.800 60.609 C 160.030 60.771,158.997 61.220,158.505 61.606 C 158.012 61.992,156.818 62.426,155.851 62.571 C 154.884 62.717,153.785 63.174,153.410 63.588 C 153.036 64.003,151.980 64.464,151.064 64.614 C 150.149 64.764,149.109 65.144,148.752 65.458 C 148.396 65.772,146.956 66.232,145.552 66.481 C 144.149 66.729,142.638 67.254,142.196 67.646 C 141.753 68.039,140.583 68.486,139.596 68.641 C 138.608 68.795,137.196 69.242,136.457 69.634 C 135.718 70.025,133.925 70.473,132.472 70.628 C 131.020 70.784,129.593 71.149,129.302 71.441 C 128.649 72.094,126.213 72.795,124.585 72.798 C 123.916 72.799,122.695 73.144,121.871 73.564 C 120.900 74.059,119.043 74.427,116.587 74.611 C 114.504 74.767,112.800 75.036,112.800 75.208 C 112.800 75.780,110.356 76.385,107.057 76.631 C 105.266 76.765,103.178 77.153,102.418 77.495 C 101.512 77.902,98.552 78.280,93.818 78.594 C 89.848 78.857,86.060 79.294,85.400 79.565 C 83.938 80.166,74.967 80.780,67.490 80.791 C 60.745 80.802,61.105 80.332,61.612 88.455 C 61.810 91.615,62.164 104.910,62.399 118.000 C 62.727 136.218,62.971 142.551,63.438 145.000 C 64.075 148.339,64.773 159.010,64.790 165.680 C 64.796 167.839,65.070 170.590,65.409 171.880 C 65.791 173.336,66.178 177.850,66.447 184.000 C 66.758 191.081,67.044 194.173,67.478 195.144 C 67.826 195.922,68.245 198.788,68.472 201.944 C 68.688 204.945,69.133 208.300,69.462 209.400 C 69.791 210.500,70.247 213.920,70.475 217.000 C 70.762 220.881,71.117 223.091,71.629 224.200 C 72.043 225.094,72.491 227.300,72.646 229.200 C 72.799 231.070,73.178 232.993,73.490 233.472 C 73.801 233.952,74.250 236.202,74.487 238.472 C 74.741 240.905,75.154 242.874,75.492 243.268 C 75.807 243.635,76.291 245.165,76.566 246.668 C 76.841 248.170,77.344 250.030,77.685 250.800 C 78.025 251.570,78.432 253.265,78.589 254.566 C 78.747 255.880,79.218 257.398,79.648 257.980 C 80.074 258.555,80.532 259.740,80.665 260.613 C 80.799 261.486,81.154 262.484,81.454 262.831 C 81.754 263.178,82.210 264.514,82.469 265.800 C 82.727 267.086,83.249 268.449,83.628 268.828 C 84.008 269.208,84.450 270.122,84.611 270.859 C 84.772 271.597,85.236 272.623,85.642 273.141 C 86.047 273.658,86.501 274.738,86.650 275.541 C 86.800 276.343,87.240 277.225,87.629 277.500 C 88.018 277.776,88.451 278.522,88.591 279.159 C 88.731 279.796,89.195 280.634,89.623 281.021 C 90.050 281.407,90.400 282.045,90.400 282.437 C 90.400 282.830,90.940 283.742,91.600 284.464 C 92.260 285.187,92.800 286.055,92.800 286.393 C 92.800 286.731,93.160 287.232,93.600 287.507 C 94.040 287.782,94.400 288.249,94.400 288.544 C 94.400 288.840,94.895 289.631,95.500 290.304 C 97.253 292.252,98.800 294.483,98.800 295.064 C 98.800 295.359,99.039 295.600,99.330 295.600 C 99.622 295.600,100.387 296.245,101.030 297.034 C 102.773 299.171,107.158 303.600,107.531 303.600 C 107.710 303.600,108.247 304.050,108.725 304.600 C 109.203 305.150,109.764 305.600,109.970 305.600 C 110.177 305.600,110.460 305.960,110.600 306.400 C 110.740 306.840,111.072 307.200,111.338 307.200 C 111.935 307.200,116.081 310.272,116.520 311.040 C 116.696 311.348,117.073 311.600,117.358 311.600 C 117.643 311.600,118.202 311.960,118.600 312.400 C 118.998 312.840,119.535 313.200,119.792 313.200 C 120.050 313.200,120.678 313.645,121.189 314.188 C 121.700 314.732,122.721 315.376,123.459 315.619 C 124.196 315.863,124.800 316.220,124.800 316.412 C 124.800 316.605,125.414 317.054,126.164 317.410 C 126.914 317.765,127.842 318.404,128.226 318.828 C 128.610 319.253,129.228 319.600,129.600 319.600 C 129.972 319.600,130.602 319.960,131.000 320.400 C 131.398 320.840,131.960 321.200,132.248 321.200 C 132.536 321.200,133.387 321.740,134.139 322.400 C 134.891 323.060,135.762 323.600,136.075 323.600 C 136.388 323.600,137.255 324.050,138.000 324.600 C 138.745 325.150,139.568 325.600,139.829 325.600 C 140.089 325.600,140.528 325.872,140.804 326.205 C 141.080 326.537,142.047 327.173,142.953 327.618 C 146.167 329.195,147.904 330.209,148.576 330.900 C 148.951 331.285,149.569 331.600,149.951 331.600 C 150.332 331.600,151.255 332.050,152.000 332.600 C 152.745 333.150,153.563 333.600,153.816 333.600 C 154.069 333.600,154.602 333.960,155.000 334.400 C 155.398 334.840,155.941 335.200,156.206 335.200 C 156.471 335.200,157.348 335.648,158.155 336.195 C 158.961 336.742,160.046 337.297,160.566 337.427 C 161.086 337.558,161.891 338.100,162.353 338.632 C 162.816 339.165,163.521 339.600,163.920 339.600 C 164.318 339.600,165.255 340.050,166.000 340.600 C 166.745 341.150,167.563 341.600,167.816 341.600 C 168.069 341.600,168.593 341.950,168.979 342.377 C 169.366 342.805,170.192 343.266,170.814 343.403 C 171.436 343.540,172.161 343.912,172.425 344.230 C 172.689 344.549,173.692 345.157,174.653 345.582 C 175.614 346.007,176.400 346.542,176.400 346.770 C 176.400 346.998,176.895 347.302,177.500 347.445 C 178.105 347.588,179.173 348.131,179.873 348.653 C 180.574 349.174,181.328 349.600,181.551 349.600 C 181.773 349.600,182.198 349.947,182.495 350.372 C 182.793 350.796,183.495 351.259,184.055 351.399 C 184.616 351.540,186.048 352.355,187.238 353.209 C 188.427 354.064,190.165 355.121,191.100 355.559 C 192.035 355.997,192.800 356.526,192.800 356.734 C 192.800 356.943,193.236 357.223,193.769 357.357 C 194.302 357.490,195.252 358.032,195.879 358.559 C 197.563 359.977,199.776 360.076,201.266 358.801 C 202.875 357.423,205.774 355.615,206.386 355.607 C 206.708 355.603,207.338 355.235,207.786 354.789 C 208.849 353.729,212.075 351.617,212.645 351.607 C 212.890 351.603,213.769 351.060,214.600 350.400 C 215.431 349.740,216.257 349.200,216.437 349.200 C 216.617 349.200,217.428 348.750,218.238 348.200 C 219.049 347.650,220.003 347.200,220.360 347.200 C 220.716 347.200,221.232 346.840,221.507 346.400 C 221.782 345.960,222.240 345.600,222.526 345.600 C 222.811 345.600,223.655 345.150,224.400 344.600 C 225.145 344.050,226.049 343.600,226.408 343.600 C 226.767 343.600,227.475 343.159,227.981 342.621 C 228.486 342.082,229.403 341.531,230.017 341.396 C 230.631 341.261,231.226 340.910,231.339 340.616 C 231.452 340.321,232.232 339.860,233.072 339.591 C 233.912 339.322,234.960 338.787,235.400 338.402 C 236.232 337.676,237.479 336.967,240.206 335.672 C 241.089 335.253,242.046 334.626,242.333 334.280 C 242.620 333.934,243.368 333.539,243.994 333.401 C 244.621 333.264,245.229 332.902,245.345 332.598 C 245.462 332.294,246.284 331.827,247.172 331.561 C 248.060 331.295,249.088 330.745,249.456 330.339 C 249.823 329.932,250.331 329.600,250.584 329.600 C 250.837 329.600,251.655 329.150,252.400 328.600 C 253.145 328.050,254.053 327.600,254.416 327.600 C 254.779 327.600,255.387 327.256,255.767 326.837 C 256.147 326.417,257.030 325.842,257.729 325.560 C 258.428 325.278,259.136 324.825,259.303 324.553 C 259.470 324.282,260.280 323.847,261.103 323.586 C 261.926 323.325,262.812 322.845,263.070 322.520 C 263.523 321.950,264.603 321.284,267.600 319.727 C 268.370 319.327,269.062 318.860,269.137 318.689 C 269.212 318.518,269.944 318.037,270.764 317.619 C 271.583 317.201,272.489 316.575,272.776 316.229 C 273.063 315.883,273.609 315.600,273.990 315.600 C 274.370 315.600,275.231 315.105,275.904 314.500 C 277.732 312.855,280.071 311.200,280.568 311.200 C 280.810 311.200,281.232 310.840,281.507 310.400 C 281.782 309.960,282.224 309.600,282.489 309.600 C 282.755 309.600,283.338 309.237,283.786 308.794 C 284.234 308.350,285.950 306.906,287.600 305.584 C 289.250 304.261,290.780 302.995,291.000 302.770 C 291.220 302.544,292.075 301.649,292.900 300.780 C 293.725 299.911,294.568 299.200,294.773 299.200 C 294.978 299.200,295.249 298.885,295.374 298.500 C 295.500 298.115,296.457 296.860,297.501 295.712 C 300.211 292.732,301.600 290.955,301.600 290.468 C 301.600 290.235,301.934 289.810,302.343 289.523 C 302.751 289.235,303.200 288.640,303.340 288.200 C 303.480 287.760,304.046 286.877,304.598 286.238 C 305.149 285.599,305.600 284.840,305.600 284.552 C 305.600 284.264,305.945 283.843,306.367 283.617 C 306.790 283.391,307.252 282.674,307.395 282.022 C 307.538 281.371,307.978 280.424,308.373 279.919 C 308.767 279.413,309.229 278.550,309.400 278.000 C 309.570 277.450,310.135 276.491,310.655 275.869 C 311.175 275.247,311.600 274.384,311.600 273.951 C 311.600 273.518,312.050 272.318,312.600 271.285 C 313.150 270.252,313.600 269.114,313.600 268.757 C 313.600 268.400,313.962 267.648,314.404 267.085 C 314.847 266.523,315.388 265.116,315.608 263.959 C 315.827 262.802,316.267 261.568,316.584 261.217 C 316.902 260.866,317.278 259.774,317.421 258.790 C 317.563 257.805,318.027 256.506,318.451 255.902 C 318.891 255.275,319.369 253.631,319.565 252.071 C 319.753 250.568,320.178 248.813,320.509 248.169 C 320.840 247.526,321.302 245.767,321.535 244.261 C 321.768 242.754,322.243 241.089,322.589 240.561 C 322.962 239.992,323.373 237.983,323.596 235.641 C 323.803 233.464,324.242 230.989,324.570 230.142 C 324.899 229.294,325.345 226.946,325.561 224.925 C 325.777 222.903,326.255 220.667,326.623 219.955 C 327.095 219.043,327.393 216.951,327.634 212.876 C 327.821 209.694,328.240 206.170,328.563 205.045 C 328.886 203.920,329.339 200.287,329.568 196.971 C 329.804 193.560,330.260 190.172,330.618 189.171 C 331.077 187.884,331.349 184.774,331.611 177.800 C 331.809 172.520,332.169 166.940,332.410 165.400 C 333.058 161.263,333.545 154.094,333.579 148.200 C 333.612 142.363,334.241 134.220,334.845 131.800 C 335.230 130.261,336.019 83.501,335.689 81.763 C 335.535 80.949,335.260 80.919,325.625 80.672 C 316.527 80.438,312.031 79.986,311.000 79.203 C 310.780 79.035,307.720 78.771,304.200 78.615 C 299.577 78.410,297.165 78.118,295.513 77.565 C 294.255 77.144,292.545 76.799,291.713 76.798 C 289.359 76.794,285.581 76.083,284.898 75.514 C 284.558 75.231,282.430 74.793,280.168 74.539 C 277.907 74.286,275.549 73.801,274.928 73.461 C 274.308 73.121,272.774 72.732,271.521 72.596 C 270.266 72.459,268.827 72.022,268.321 71.624 C 267.784 71.203,266.315 70.779,264.800 70.608 C 263.370 70.447,261.570 69.989,260.800 69.589 C 260.030 69.189,258.686 68.763,257.813 68.642 C 256.940 68.521,255.763 68.079,255.195 67.660 C 254.628 67.241,253.231 66.769,252.090 66.612 C 250.949 66.455,249.578 65.983,249.044 65.564 C 248.511 65.144,247.724 64.800,247.297 64.800 C 246.074 64.800,244.084 63.997,243.861 63.413 C 243.749 63.122,242.748 62.758,241.636 62.605 C 240.525 62.452,239.178 61.983,238.644 61.564 C 238.111 61.144,237.378 60.800,237.017 60.800 C 236.152 60.800,234.000 59.677,234.000 59.225 C 234.000 59.030,233.285 58.750,232.412 58.602 C 231.538 58.454,230.413 58.016,229.912 57.628 C 229.410 57.240,228.500 56.800,227.890 56.651 C 227.279 56.502,226.443 56.043,226.031 55.631 C 225.619 55.219,224.732 54.761,224.060 54.613 C 223.387 54.465,222.424 54.025,221.919 53.633 C 221.413 53.242,220.510 52.802,219.911 52.656 C 219.312 52.510,218.502 52.056,218.111 51.648 C 217.720 51.240,216.712 50.684,215.872 50.413 C 215.032 50.141,214.252 49.679,214.139 49.384 C 214.026 49.090,213.386 48.729,212.718 48.582 C 212.008 48.426,211.421 48.000,211.305 47.558 C 211.183 47.090,210.753 46.800,210.184 46.800 C 209.677 46.800,208.727 46.350,208.073 45.800 C 207.419 45.250,206.710 44.800,206.497 44.800 C 206.284 44.800,205.431 44.260,204.600 43.600 C 203.769 42.940,202.846 42.400,202.548 42.400 C 202.251 42.400,201.782 42.040,201.507 41.600 C 201.232 41.160,200.727 40.800,200.384 40.800 C 200.041 40.800,199.589 40.643,199.380 40.450 C 199.162 40.249,198.489 40.275,197.800 40.510 " stroke="none" fill="#fbfbfc" fill-rule="evenodd"></path><path id="path2" d="M197.090 39.612 C 196.040 40.188,194.960 40.884,194.690 41.159 C 194.421 41.433,195.322 41.027,196.692 40.255 C 198.063 39.483,199.288 39.019,199.415 39.224 C 199.654 39.610,201.200 40.533,201.200 40.289 C 201.200 40.213,200.705 39.793,200.100 39.357 L 199.000 38.564 197.090 39.612 M204.441 42.572 C 206.438 43.999,209.255 45.613,208.984 45.174 C 208.855 44.965,208.176 44.500,207.475 44.141 C 206.774 43.781,205.691 43.063,205.069 42.544 C 204.447 42.025,203.746 41.600,203.510 41.600 C 203.275 41.600,203.693 42.037,204.441 42.572 M184.840 47.207 C 183.872 47.863,183.232 48.400,183.418 48.400 C 183.782 48.400,186.800 46.388,186.800 46.146 C 186.800 45.899,186.655 45.977,184.840 47.207 M215.200 48.984 C 215.200 49.094,215.920 49.551,216.800 50.000 C 217.680 50.449,218.400 50.726,218.400 50.616 C 218.400 50.506,217.680 50.049,216.800 49.600 C 215.920 49.151,215.200 48.874,215.200 48.984 M170.400 55.000 C 169.655 55.550,169.162 56.000,169.305 56.000 C 169.447 56.000,170.228 55.550,171.038 55.000 C 171.849 54.450,172.341 54.000,172.134 54.000 C 171.926 54.000,171.145 54.450,170.400 55.000 M161.400 59.227 C 160.740 59.650,160.405 59.997,160.656 59.998 C 160.906 59.999,161.536 59.646,162.056 59.213 C 163.245 58.223,162.959 58.229,161.400 59.227 M152.200 63.010 C 150.125 64.288,150.627 64.282,153.038 63.000 C 154.073 62.450,154.667 62.006,154.360 62.012 C 154.052 62.019,153.080 62.468,152.200 63.010 M148.200 64.400 C 147.696 64.617,147.622 64.744,148.000 64.744 C 148.330 64.744,148.960 64.589,149.400 64.400 C 149.904 64.183,149.978 64.056,149.600 64.056 C 149.270 64.056,148.640 64.211,148.200 64.400 M250.800 65.400 C 251.350 65.714,252.070 65.971,252.400 65.970 C 252.730 65.969,252.394 65.706,251.654 65.384 C 249.951 64.645,249.494 64.653,250.800 65.400 M140.406 67.223 C 139.640 67.650,139.230 68.000,139.497 68.000 C 139.763 68.000,140.570 67.641,141.290 67.201 C 142.967 66.179,142.247 66.197,140.406 67.223 M133.000 69.411 C 132.120 69.701,131.760 69.944,132.200 69.951 C 132.640 69.958,133.540 69.717,134.200 69.414 C 135.712 68.722,135.096 68.721,133.000 69.411 M268.400 70.832 C 271.768 72.066,272.438 72.152,270.000 71.038 C 268.790 70.485,267.440 70.031,267.000 70.029 C 266.560 70.027,267.190 70.389,268.400 70.832 M118.600 73.200 C 118.096 73.417,118.022 73.544,118.400 73.544 C 118.730 73.544,119.360 73.389,119.800 73.200 C 120.304 72.983,120.378 72.856,120.000 72.856 C 119.670 72.856,119.040 73.011,118.600 73.200 M277.600 73.182 C 277.930 73.405,278.545 73.591,278.967 73.594 C 279.990 73.602,279.671 73.373,278.200 73.044 C 277.324 72.848,277.162 72.885,277.600 73.182 M108.600 75.411 C 107.720 75.701,107.360 75.944,107.800 75.951 C 108.240 75.958,109.140 75.717,109.800 75.414 C 111.312 74.722,110.696 74.721,108.600 75.411 M103.700 76.276 C 104.085 76.376,104.715 76.376,105.100 76.276 C 105.485 76.175,105.170 76.093,104.400 76.093 C 103.630 76.093,103.315 76.175,103.700 76.276 M292.305 76.283 C 292.802 76.379,293.522 76.375,293.905 76.275 C 294.287 76.175,293.880 76.096,293.000 76.101 C 292.120 76.105,291.807 76.187,292.305 76.283 M96.600 77.200 C 95.530 77.472,95.508 77.505,96.400 77.505 C 96.950 77.505,97.940 77.368,98.600 77.200 C 99.670 76.928,99.692 76.895,98.800 76.895 C 98.250 76.895,97.260 77.032,96.600 77.200 M298.600 77.197 C 299.364 77.528,302.314 77.755,301.967 77.456 C 301.875 77.377,300.900 77.209,299.800 77.082 C 298.513 76.933,298.085 76.974,298.600 77.197 M92.705 77.883 C 93.202 77.979,93.922 77.975,94.305 77.875 C 94.687 77.775,94.280 77.696,93.400 77.701 C 92.520 77.705,92.207 77.787,92.705 77.883 M303.100 77.882 C 303.595 77.978,304.405 77.978,304.900 77.882 C 305.395 77.787,304.990 77.709,304.000 77.709 C 303.010 77.709,302.605 77.787,303.100 77.882 M87.105 78.283 C 87.602 78.379,88.322 78.375,88.705 78.275 C 89.087 78.175,88.680 78.096,87.800 78.101 C 86.920 78.105,86.607 78.187,87.105 78.283 M308.705 78.283 C 309.202 78.379,309.922 78.375,310.305 78.275 C 310.687 78.175,310.280 78.096,309.400 78.101 C 308.520 78.105,308.207 78.187,308.705 78.283 M83.700 78.676 C 84.085 78.776,84.715 78.776,85.100 78.676 C 85.485 78.575,85.170 78.493,84.400 78.493 C 83.630 78.493,83.315 78.575,83.700 78.676 M312.500 78.676 C 312.885 78.776,313.515 78.776,313.900 78.676 C 314.285 78.575,313.970 78.493,313.200 78.493 C 312.430 78.493,312.115 78.575,312.500 78.676 M79.000 79.200 L 77.400 79.486 78.800 79.496 C 79.570 79.501,80.740 79.368,81.400 79.200 C 83.028 78.786,81.313 78.786,79.000 79.200 M316.200 79.223 C 317.080 79.405,318.340 79.542,319.000 79.527 C 319.900 79.507,319.750 79.420,318.400 79.180 C 315.986 78.750,314.094 78.787,316.200 79.223 M73.507 79.890 C 74.226 79.979,75.306 79.977,75.907 79.886 C 76.508 79.795,75.920 79.722,74.600 79.724 C 73.280 79.726,72.788 79.801,73.507 79.890 M321.700 79.887 C 322.305 79.978,323.295 79.978,323.900 79.887 C 324.505 79.795,324.010 79.720,322.800 79.720 C 321.590 79.720,321.095 79.795,321.700 79.887 M63.111 80.293 C 64.051 80.378,65.491 80.377,66.311 80.291 C 67.130 80.205,66.360 80.136,64.600 80.137 C 62.840 80.139,62.170 80.209,63.111 80.293 M331.300 80.291 C 332.125 80.378,333.475 80.378,334.300 80.291 C 335.125 80.205,334.450 80.134,332.800 80.134 C 331.150 80.134,330.475 80.205,331.300 80.291 M336.286 80.685 C 336.604 80.911,336.819 82.612,336.907 85.615 L 337.043 90.200 337.021 85.433 C 337.004 81.547,336.889 80.635,336.400 80.502 C 335.970 80.385,335.938 80.437,336.286 80.685 M60.562 94.200 C 60.562 97.720,60.624 99.106,60.698 97.281 C 60.772 95.456,60.772 92.576,60.697 90.881 C 60.622 89.186,60.561 90.680,60.562 94.200 M336.559 100.800 C 336.559 103.990,336.621 105.295,336.697 103.700 C 336.773 102.105,336.773 99.495,336.697 97.900 C 336.621 96.305,336.559 97.610,336.559 100.800 M60.924 106.800 C 60.916 108.890,61.033 112.760,61.184 115.400 L 61.460 120.200 61.476 116.400 C 61.484 114.310,61.367 110.440,61.216 107.800 L 60.940 103.000 60.924 106.800 M336.161 116.800 C 336.161 120.210,336.222 121.605,336.297 119.900 C 336.372 118.195,336.372 115.405,336.297 113.700 C 336.222 111.995,336.161 113.390,336.161 116.800 M61.753 127.000 C 61.753 129.640,61.818 130.668,61.897 129.284 C 61.975 127.901,61.974 125.741,61.895 124.484 C 61.816 123.228,61.752 124.360,61.753 127.000 M335.737 131.000 C 335.739 132.760,335.809 133.430,335.893 132.489 C 335.978 131.549,335.977 130.109,335.891 129.289 C 335.805 128.470,335.736 129.240,335.737 131.000 M335.054 138.542 C 334.888 140.491,334.836 142.169,334.939 142.272 C 335.199 142.532,335.720 136.698,335.520 135.762 C 335.430 135.343,335.221 136.594,335.054 138.542 M62.137 141.000 C 62.139 142.760,62.209 143.430,62.293 142.489 C 62.378 141.549,62.377 140.109,62.291 139.289 C 62.205 138.470,62.136 139.240,62.137 141.000 M334.520 145.600 C 334.520 146.810,334.595 147.305,334.687 146.700 C 334.778 146.095,334.778 145.105,334.687 144.500 C 334.595 143.895,334.520 144.390,334.520 145.600 M62.514 147.400 C 62.517 148.500,62.595 148.903,62.687 148.295 C 62.779 147.686,62.777 146.786,62.682 146.295 C 62.587 145.803,62.511 146.300,62.514 147.400 M334.131 151.800 C 334.133 153.340,334.205 153.921,334.292 153.091 C 334.379 152.261,334.377 151.001,334.289 150.291 C 334.200 149.581,334.129 150.260,334.131 151.800 M62.880 151.600 C 62.868 152.370,63.003 153.810,63.180 154.800 C 63.476 156.467,63.501 156.497,63.520 155.200 C 63.532 154.430,63.397 152.990,63.220 152.000 C 62.924 150.333,62.899 150.303,62.880 151.600 M63.724 159.400 C 63.726 160.720,63.801 161.212,63.890 160.493 C 63.979 159.774,63.977 158.694,63.886 158.093 C 63.795 157.492,63.722 158.080,63.724 159.400 M333.734 162.000 C 333.734 163.650,333.805 164.325,333.891 163.500 C 333.978 162.675,333.978 161.325,333.891 160.500 C 333.805 159.675,333.734 160.350,333.734 162.000 M64.137 167.800 C 64.139 169.560,64.209 170.230,64.293 169.289 C 64.378 168.349,64.377 166.909,64.291 166.089 C 64.205 165.270,64.136 166.040,64.137 167.800 M333.073 168.960 C 332.915 170.918,332.863 172.596,332.956 172.689 C 333.203 172.936,333.712 167.063,333.522 166.162 C 333.433 165.743,333.231 167.002,333.073 168.960 M64.520 174.400 C 64.520 175.610,64.595 176.105,64.687 175.500 C 64.778 174.895,64.778 173.905,64.687 173.300 C 64.595 172.695,64.520 173.190,64.520 174.400 M332.520 176.400 C 332.520 177.610,332.595 178.105,332.687 177.500 C 332.778 176.895,332.778 175.905,332.687 175.300 C 332.595 174.695,332.520 175.190,332.520 176.400 M64.885 178.600 C 64.877 179.260,65.010 180.700,65.182 181.800 C 65.436 183.435,65.497 183.545,65.517 182.400 C 65.530 181.630,65.397 180.190,65.220 179.200 C 64.988 177.891,64.896 177.728,64.885 178.600 M332.124 182.200 C 332.126 183.520,332.201 184.012,332.290 183.293 C 332.379 182.574,332.377 181.494,332.286 180.893 C 332.195 180.292,332.122 180.880,332.124 182.200 M65.720 186.800 C 65.720 188.010,65.795 188.505,65.887 187.900 C 65.978 187.295,65.978 186.305,65.887 185.700 C 65.795 185.095,65.720 185.590,65.720 186.800 M331.701 188.200 C 331.705 189.080,331.787 189.393,331.883 188.895 C 331.979 188.398,331.975 187.678,331.875 187.295 C 331.775 186.913,331.696 187.320,331.701 188.200 M331.040 191.640 C 330.893 192.557,330.852 193.385,330.947 193.480 C 331.042 193.576,331.246 192.910,331.400 192.000 C 331.554 191.090,331.596 190.262,331.493 190.160 C 331.390 190.057,331.187 190.723,331.040 191.640 M66.101 193.000 C 66.105 193.880,66.187 194.193,66.283 193.695 C 66.379 193.198,66.375 192.478,66.275 192.095 C 66.175 191.713,66.096 192.120,66.101 193.000 M330.109 198.400 C 330.109 199.390,330.187 199.795,330.282 199.300 C 330.378 198.805,330.378 197.995,330.282 197.500 C 330.187 197.005,330.109 197.410,330.109 198.400 M66.868 198.400 C 66.888 199.439,67.518 201.146,67.532 200.200 C 67.538 199.760,67.389 199.040,67.200 198.600 C 66.989 198.110,66.861 198.032,66.868 198.400 M329.709 203.600 C 329.709 204.590,329.787 204.995,329.882 204.500 C 329.978 204.005,329.978 203.195,329.882 202.700 C 329.787 202.205,329.709 202.610,329.709 203.600 M68.109 207.200 C 68.109 208.190,68.187 208.595,68.282 208.100 C 68.378 207.605,68.378 206.795,68.282 206.300 C 68.187 205.805,68.109 206.210,68.109 207.200 M329.055 207.855 C 328.913 208.886,328.874 209.808,328.969 209.902 C 329.063 209.996,329.265 209.239,329.418 208.218 C 329.571 207.198,329.610 206.276,329.504 206.171 C 329.398 206.065,329.196 206.823,329.055 207.855 M328.493 212.000 C 328.493 212.770,328.575 213.085,328.676 212.700 C 328.776 212.315,328.776 211.685,328.676 211.300 C 328.575 210.915,328.493 211.230,328.493 212.000 M68.887 213.600 C 68.891 214.150,69.032 215.140,69.200 215.800 L 69.505 217.000 69.513 215.800 C 69.517 215.140,69.376 214.150,69.200 213.600 L 68.880 212.600 68.887 213.600 M328.109 215.600 C 328.109 216.590,328.187 216.995,328.282 216.500 C 328.378 216.005,328.378 215.195,328.282 214.700 C 328.187 214.205,328.109 214.610,328.109 215.600 M69.693 218.400 C 69.693 219.170,69.775 219.485,69.876 219.100 C 69.976 218.715,69.976 218.085,69.876 217.700 C 69.775 217.315,69.693 217.630,69.693 218.400 M327.505 219.600 C 327.354 220.370,327.130 221.450,327.007 222.000 C 326.884 222.550,327.064 222.280,327.406 221.400 C 327.748 220.520,327.972 219.440,327.904 219.000 C 327.821 218.474,327.685 218.680,327.505 219.600 M325.050 232.050 C 324.909 232.753,324.869 233.402,324.959 233.492 C 325.050 233.583,325.248 233.091,325.400 232.400 C 325.552 231.709,325.593 231.059,325.491 230.958 C 325.389 230.856,325.191 231.347,325.050 232.050 M72.868 236.000 C 72.888 237.039,73.518 238.746,73.532 237.800 C 73.538 237.360,73.389 236.640,73.200 236.200 C 72.989 235.710,72.861 235.632,72.868 236.000 M323.301 240.856 C 323.033 241.566,322.896 242.229,322.996 242.329 C 323.234 242.568,324.061 240.384,323.907 239.922 C 323.842 239.726,323.569 240.146,323.301 240.856 M316.865 262.617 C 316.609 263.178,316.407 263.854,316.416 264.119 C 316.424 264.383,316.697 263.988,317.022 263.239 C 317.705 261.665,317.561 261.090,316.865 262.617 M313.300 271.700 C 312.870 272.875,312.880 272.926,313.412 272.224 C 313.921 271.552,314.221 270.400,313.888 270.400 C 313.826 270.400,313.561 270.985,313.300 271.700 M86.000 276.666 C 86.000 276.874,86.450 277.655,87.000 278.400 C 87.550 279.145,88.000 279.638,88.000 279.495 C 88.000 279.353,87.550 278.572,87.000 277.762 C 86.450 276.951,86.000 276.459,86.000 276.666 M88.001 280.106 C 88.000 280.503,90.423 284.800,90.648 284.800 C 90.743 284.800,90.530 284.238,90.175 283.552 C 89.187 281.640,88.003 279.764,88.001 280.106 M306.801 284.198 C 306.286 284.748,305.939 285.264,306.032 285.346 C 306.124 285.428,306.619 284.978,307.130 284.347 C 308.276 282.935,308.074 282.844,306.801 284.198 M305.353 286.500 C 303.976 288.836,303.886 289.035,304.587 288.200 C 305.400 287.232,306.100 286.000,305.838 286.000 C 305.733 286.000,305.515 286.225,305.353 286.500 M93.966 289.900 C 94.183 290.285,94.834 291.140,95.412 291.800 C 96.208 292.708,96.148 292.538,95.164 291.100 C 93.880 289.222,93.202 288.544,93.966 289.900 M300.723 293.100 C 300.018 293.921,299.490 294.800,299.701 294.800 C 299.783 294.800,300.249 294.260,300.737 293.600 C 301.701 292.296,301.692 291.972,300.723 293.100 M99.200 296.600 C 99.946 297.370,100.647 298.000,100.757 298.000 C 100.867 298.000,100.346 297.370,99.600 296.600 C 98.854 295.830,98.153 295.200,98.043 295.200 C 97.933 295.200,98.454 295.830,99.200 296.600 M298.776 295.700 C 297.864 296.490,295.830 298.800,296.046 298.800 C 296.153 298.800,297.013 297.990,297.957 297.000 C 299.598 295.278,300.000 294.639,298.776 295.700 M293.739 301.046 L 291.800 302.892 293.600 301.390 C 296.015 299.374,296.199 299.200,295.919 299.200 C 295.786 299.200,294.805 300.031,293.739 301.046 M107.200 304.491 C 107.200 304.562,108.002 305.375,108.983 306.297 C 109.963 307.220,110.672 307.732,110.558 307.435 C 110.373 306.953,107.200 304.172,107.200 304.491 M287.538 306.637 C 285.306 308.483,284.664 309.170,286.200 308.069 C 288.004 306.776,289.834 305.204,289.538 305.202 C 289.394 305.201,288.494 305.847,287.538 306.637 M112.144 308.709 C 112.460 309.221,114.800 310.953,114.800 310.675 C 114.800 310.576,114.139 309.991,113.332 309.375 C 112.524 308.759,111.989 308.459,112.144 308.709 M278.820 313.221 C 276.602 314.724,276.240 315.093,277.800 314.264 C 279.037 313.606,281.155 312.019,280.800 312.016 C 280.690 312.015,279.799 312.557,278.820 313.221 M117.374 312.758 C 117.523 312.999,118.016 313.395,118.471 313.638 C 119.062 313.954,119.220 313.956,119.026 313.642 C 118.877 313.401,118.384 313.005,117.929 312.762 C 117.338 312.446,117.180 312.444,117.374 312.758 M273.694 316.680 C 272.777 317.275,272.090 317.824,272.167 317.900 C 272.286 318.019,275.038 316.295,275.556 315.777 C 276.032 315.302,275.192 315.709,273.694 316.680 M123.000 316.607 C 123.440 316.966,124.160 317.435,124.600 317.651 L 125.400 318.044 124.600 317.393 C 124.160 317.034,123.440 316.565,123.000 316.349 L 122.200 315.956 123.000 316.607 M126.749 318.939 C 127.039 319.288,128.115 320.028,129.138 320.582 C 131.091 321.638,130.502 321.086,127.811 319.336 C 126.937 318.768,126.459 318.589,126.749 318.939 M267.144 320.824 L 266.200 321.647 267.400 320.945 C 268.979 320.020,269.003 320.000,268.511 320.000 C 268.279 320.000,267.664 320.371,267.144 320.824 M262.841 323.434 C 262.093 323.965,261.678 324.400,261.919 324.400 C 262.159 324.400,262.860 323.956,263.478 323.413 C 264.891 322.169,264.608 322.179,262.841 323.434 M259.800 325.200 C 259.140 325.637,258.780 325.992,259.000 325.988 C 259.401 325.982,261.576 324.423,261.200 324.412 C 261.090 324.408,260.460 324.763,259.800 325.200 M139.927 327.000 C 140.581 327.550,141.238 328.000,141.388 328.000 C 141.539 328.000,141.127 327.550,140.473 327.000 C 139.819 326.450,139.162 326.000,139.012 326.000 C 138.861 326.000,139.273 326.450,139.927 327.000 M256.800 327.000 C 256.055 327.550,255.615 327.994,255.822 327.986 C 256.224 327.970,258.755 326.005,258.378 326.002 C 258.255 326.001,257.545 326.450,256.800 327.000 M143.052 328.766 C 144.887 329.885,146.800 330.846,146.800 330.648 C 146.800 330.423,142.503 328.000,142.106 328.001 C 141.938 328.002,142.363 328.346,143.052 328.766 M147.421 331.234 C 147.695 331.677,150.016 332.918,150.209 332.724 C 150.284 332.650,149.635 332.200,148.768 331.725 C 147.900 331.250,147.294 331.029,147.421 331.234 M245.469 333.377 C 244.188 334.105,242.928 334.917,242.669 335.180 C 242.282 335.576,247.838 332.619,248.367 332.148 C 248.974 331.607,247.433 332.260,245.469 333.377 M157.800 337.200 C 158.900 337.852,159.980 338.388,160.200 338.389 C 160.420 338.391,159.661 337.854,158.514 337.196 C 157.367 336.538,156.287 336.003,156.114 336.007 C 155.941 336.011,156.700 336.548,157.800 337.200 M161.903 339.500 C 162.421 339.995,163.060 340.395,163.322 340.388 C 163.585 340.381,163.440 340.176,163.000 339.932 C 162.560 339.688,161.921 339.288,161.580 339.044 C 161.240 338.800,161.385 339.005,161.903 339.500 M231.800 341.200 C 231.140 341.637,230.780 341.992,231.000 341.988 C 231.401 341.982,233.576 340.423,233.200 340.412 C 233.090 340.408,232.460 340.763,231.800 341.200 M170.033 344.131 C 170.713 344.663,173.200 346.025,173.200 345.865 C 173.200 345.606,170.605 344.000,170.186 344.000 C 170.010 344.000,169.942 344.059,170.033 344.131 M175.394 347.191 C 175.512 347.381,176.420 347.990,177.413 348.545 C 178.406 349.100,179.123 349.399,179.006 349.209 C 178.888 349.019,177.980 348.410,176.987 347.855 C 175.994 347.300,175.277 347.001,175.394 347.191 M180.200 350.067 C 180.640 350.310,181.369 350.800,181.819 351.155 C 182.270 351.510,182.132 351.305,181.513 350.700 C 180.894 350.095,180.165 349.605,179.894 349.612 C 179.622 349.619,179.760 349.823,180.200 350.067 M214.840 351.207 C 213.872 351.863,213.232 352.400,213.418 352.400 C 213.782 352.400,216.800 350.388,216.800 350.146 C 216.800 349.899,216.655 349.977,214.840 351.207 M210.651 353.583 C 209.579 354.212,208.409 355.052,208.051 355.450 C 207.433 356.136,207.441 356.142,208.200 355.554 C 208.640 355.214,209.855 354.447,210.900 353.851 C 211.945 353.254,212.800 352.684,212.800 352.583 C 212.800 352.323,212.802 352.322,210.651 353.583 M204.200 357.627 C 203.540 358.050,203.205 358.397,203.456 358.398 C 203.706 358.399,204.336 358.046,204.856 357.613 C 206.045 356.623,205.759 356.629,204.200 357.627 M194.400 358.785 C 194.950 359.246,195.760 359.810,196.200 360.038 C 196.746 360.322,196.682 360.187,196.000 359.615 C 195.450 359.154,194.640 358.590,194.200 358.362 C 193.654 358.078,193.718 358.213,194.400 358.785 " stroke="none" fill="#92b7dc" fill-rule="evenodd"></path><path id="path3" d="M195.599 40.894 C 193.745 41.959,192.132 42.980,192.014 43.162 C 191.896 43.344,191.080 43.879,190.200 44.350 C 188.325 45.356,187.436 45.897,185.800 47.027 C 185.140 47.483,183.201 48.542,181.492 49.380 C 179.782 50.218,178.286 51.061,178.168 51.252 C 178.049 51.444,176.298 52.411,174.276 53.402 C 172.254 54.392,170.330 55.371,170.000 55.577 C 168.952 56.231,165.015 57.931,163.903 58.210 C 163.315 58.358,162.632 58.721,162.386 59.017 C 162.140 59.314,161.007 59.860,159.869 60.231 C 158.731 60.602,157.620 61.038,157.400 61.200 C 157.180 61.362,156.057 61.802,154.905 62.178 C 153.752 62.554,152.714 63.016,152.597 63.204 C 152.481 63.393,151.354 63.839,150.093 64.196 C 148.832 64.553,147.233 65.104,146.540 65.422 C 145.846 65.740,144.932 66.000,144.507 66.000 C 144.083 66.000,142.856 66.445,141.781 66.990 C 140.705 67.534,138.830 68.184,137.613 68.435 C 136.396 68.685,135.086 69.055,134.701 69.258 C 134.317 69.461,132.967 69.817,131.701 70.051 C 130.436 70.284,128.680 70.798,127.800 71.193 C 126.920 71.588,125.390 72.035,124.400 72.186 C 123.410 72.337,121.340 72.790,119.800 73.193 C 118.260 73.596,116.027 74.043,114.838 74.185 C 113.649 74.328,111.669 74.780,110.438 75.190 C 109.207 75.600,107.120 76.051,105.800 76.192 C 104.480 76.333,101.150 76.783,98.400 77.192 C 95.650 77.601,91.052 78.140,88.183 78.391 C 85.313 78.642,82.253 79.016,81.383 79.223 C 80.512 79.430,75.660 79.797,70.600 80.039 C 64.460 80.331,61.230 80.640,60.888 80.965 C 60.477 81.357,60.455 83.960,60.775 94.226 C 61.981 132.789,62.638 148.367,63.205 151.800 C 63.423 153.120,63.872 159.150,64.203 165.200 C 64.534 171.250,64.983 177.460,65.201 179.000 C 65.419 180.540,65.780 184.590,66.002 188.000 C 66.392 193.996,66.938 198.453,67.368 199.148 C 67.482 199.332,67.859 202.345,68.205 205.842 C 68.551 209.339,68.995 212.830,69.191 213.600 C 69.386 214.370,69.657 216.080,69.793 217.400 C 70.195 221.308,70.869 225.353,71.236 226.053 C 71.424 226.413,71.769 228.033,72.002 229.653 C 72.235 231.274,72.765 234.220,73.181 236.200 C 73.596 238.180,74.150 240.880,74.412 242.200 C 74.674 243.520,75.040 244.788,75.225 245.017 C 75.409 245.247,75.913 246.957,76.343 248.817 C 77.692 254.646,78.750 258.349,79.335 259.292 C 79.646 259.791,80.116 261.098,80.380 262.195 C 80.643 263.292,81.004 264.372,81.181 264.595 C 81.358 264.818,81.793 266.011,82.148 267.248 C 82.502 268.484,83.046 269.706,83.357 269.964 C 83.667 270.222,84.041 270.909,84.187 271.491 C 84.781 273.858,89.837 283.375,92.762 287.634 C 100.832 299.381,110.060 308.047,123.912 316.886 C 125.734 318.049,127.984 319.491,128.912 320.092 C 129.841 320.693,131.050 321.380,131.600 321.619 C 132.150 321.858,132.960 322.380,133.400 322.778 C 133.840 323.177,135.410 324.138,136.888 324.914 C 138.367 325.689,140.056 326.701,140.642 327.162 C 141.228 327.623,141.885 328.000,142.102 328.000 C 142.456 328.000,143.908 328.822,152.200 333.720 C 153.520 334.500,156.040 335.889,157.800 336.807 C 159.560 337.725,161.270 338.707,161.600 338.988 C 161.930 339.270,163.451 340.158,164.980 340.961 C 166.509 341.764,168.039 342.668,168.380 342.971 C 168.721 343.273,169.630 343.805,170.400 344.153 C 171.170 344.500,172.340 345.111,173.000 345.510 C 176.342 347.530,178.955 349.056,179.923 349.552 C 180.515 349.855,181.360 350.426,181.800 350.821 C 182.240 351.215,183.860 352.197,185.400 353.001 C 186.940 353.806,188.400 354.720,188.644 355.032 C 188.888 355.345,189.221 355.600,189.384 355.600 C 189.735 355.600,194.090 358.211,195.800 359.446 C 197.766 360.866,199.226 360.981,200.820 359.843 C 201.579 359.301,203.370 358.189,204.800 357.373 C 206.230 356.556,207.731 355.601,208.136 355.249 C 208.836 354.642,211.690 352.952,218.400 349.170 C 220.050 348.240,221.679 347.241,222.020 346.950 C 222.361 346.659,223.891 345.764,225.420 344.961 C 226.949 344.158,228.470 343.271,228.800 342.991 C 229.130 342.711,230.639 341.829,232.153 341.031 C 233.667 340.232,235.377 339.255,235.953 338.860 C 236.529 338.464,238.170 337.548,239.600 336.823 C 241.030 336.098,242.470 335.279,242.800 335.002 C 243.130 334.726,244.641 333.848,246.157 333.052 C 247.673 332.255,249.113 331.441,249.357 331.242 C 249.601 331.043,251.240 330.118,253.000 329.187 C 254.760 328.256,256.470 327.270,256.800 326.997 C 257.130 326.723,258.750 325.745,260.400 324.823 C 262.050 323.901,264.210 322.621,265.200 321.980 C 266.190 321.338,267.450 320.592,268.000 320.322 C 268.550 320.052,269.478 319.464,270.061 319.016 C 270.645 318.567,272.055 317.660,273.195 317.000 C 274.334 316.340,275.477 315.611,275.733 315.381 C 275.990 315.150,277.280 314.257,278.600 313.396 C 280.998 311.832,281.796 311.223,287.795 306.380 C 291.858 303.100,298.284 296.624,300.079 294.000 C 300.455 293.450,301.305 292.280,301.968 291.400 C 303.830 288.928,306.000 285.621,306.000 285.254 C 306.000 285.073,306.351 284.606,306.780 284.218 C 307.209 283.829,308.221 282.137,309.028 280.456 C 309.835 278.775,310.801 276.950,311.174 276.400 C 311.548 275.850,312.445 273.870,313.169 272.000 C 313.893 270.130,314.738 268.150,315.048 267.600 C 315.688 266.463,316.955 262.850,317.853 259.600 C 318.187 258.390,318.713 257.007,319.022 256.527 C 319.331 256.046,319.835 254.516,320.143 253.127 C 321.345 247.692,322.056 244.896,322.870 242.400 C 323.336 240.970,323.934 238.450,324.198 236.800 C 324.777 233.182,325.806 227.681,326.667 223.600 C 327.757 218.426,329.009 209.603,329.646 202.600 C 329.866 200.180,330.406 196.040,330.845 193.400 C 331.285 190.760,331.817 185.900,332.029 182.600 C 332.240 179.300,332.681 173.630,333.007 170.000 C 333.334 166.370,333.784 159.299,334.007 154.287 C 334.230 149.275,334.683 142.525,335.012 139.287 C 335.573 133.774,335.966 122.649,336.640 93.123 L 336.920 80.845 335.960 80.631 C 335.432 80.512,331.220 80.234,326.600 80.012 C 321.980 79.790,316.580 79.345,314.600 79.022 C 312.620 78.699,308.418 78.236,305.262 77.993 C 302.106 77.750,299.136 77.404,298.662 77.225 C 298.188 77.045,295.820 76.677,293.400 76.408 C 290.980 76.138,288.032 75.581,286.848 75.171 C 285.664 74.760,283.242 74.225,281.465 73.981 C 279.688 73.738,277.956 73.394,277.617 73.217 C 277.278 73.039,275.650 72.671,274.000 72.399 C 272.350 72.127,270.515 71.656,269.922 71.353 C 269.329 71.050,267.439 70.450,265.722 70.018 C 259.155 68.369,256.746 67.653,256.177 67.181 C 255.853 66.912,254.646 66.452,253.494 66.158 C 250.552 65.408,245.566 63.670,244.994 63.195 C 244.730 62.976,243.543 62.459,242.357 62.047 C 237.045 60.200,236.144 59.831,235.246 59.137 C 234.721 58.732,234.109 58.400,233.885 58.400 C 233.661 58.400,232.335 57.860,230.938 57.200 C 229.541 56.540,228.231 56.000,228.028 56.000 C 227.824 56.000,227.406 55.749,227.099 55.441 C 226.791 55.134,225.114 54.231,223.370 53.435 C 221.627 52.638,219.930 51.817,219.600 51.609 C 219.270 51.401,217.470 50.385,215.600 49.350 C 213.730 48.315,212.110 47.353,212.000 47.211 C 211.890 47.069,210.540 46.259,209.000 45.411 C 207.460 44.563,205.750 43.530,205.200 43.114 C 204.650 42.699,203.023 41.594,201.585 40.658 L 198.970 38.956 195.599 40.894 M200.384 40.800 C 200.727 40.800,201.232 41.160,201.507 41.600 C 201.782 42.040,202.251 42.400,202.548 42.400 C 202.846 42.400,203.769 42.940,204.600 43.600 C 205.431 44.260,206.284 44.800,206.497 44.800 C 206.710 44.800,207.419 45.250,208.073 45.800 C 208.727 46.350,209.677 46.800,210.184 46.800 C 210.753 46.800,211.183 47.090,211.305 47.558 C 211.421 48.000,212.008 48.426,212.718 48.582 C 213.386 48.729,214.026 49.090,214.139 49.384 C 214.252 49.679,215.032 50.141,215.872 50.413 C 216.712 50.684,217.720 51.240,218.111 51.648 C 218.502 52.056,219.312 52.510,219.911 52.656 C 220.510 52.802,221.413 53.242,221.919 53.633 C 222.424 54.025,223.387 54.465,224.060 54.613 C 224.732 54.761,225.619 55.219,226.031 55.631 C 226.443 56.043,227.279 56.502,227.890 56.651 C 228.500 56.800,229.410 57.240,229.912 57.628 C 230.413 58.016,231.538 58.454,232.412 58.602 C 233.285 58.750,234.000 59.030,234.000 59.225 C 234.000 59.677,236.152 60.800,237.017 60.800 C 237.378 60.800,238.111 61.144,238.644 61.564 C 239.178 61.983,240.525 62.452,241.636 62.605 C 242.748 62.758,243.749 63.122,243.861 63.413 C 244.084 63.997,246.074 64.800,247.297 64.800 C 247.724 64.800,248.511 65.144,249.044 65.564 C 249.578 65.983,250.949 66.455,252.090 66.612 C 253.231 66.769,254.628 67.241,255.195 67.660 C 255.763 68.079,256.940 68.521,257.813 68.642 C 258.686 68.763,260.030 69.189,260.800 69.589 C 261.570 69.989,263.370 70.447,264.800 70.608 C 266.315 70.779,267.784 71.203,268.321 71.624 C 268.827 72.022,270.266 72.459,271.521 72.596 C 272.774 72.732,274.308 73.121,274.928 73.461 C 275.549 73.801,277.907 74.286,280.168 74.539 C 282.430 74.793,284.558 75.231,284.898 75.514 C 285.581 76.083,289.359 76.794,291.713 76.798 C 292.545 76.799,294.255 77.144,295.513 77.565 C 297.165 78.118,299.577 78.410,304.200 78.615 C 307.720 78.771,310.780 79.035,311.000 79.203 C 312.031 79.986,316.527 80.438,325.625 80.672 C 335.260 80.919,335.535 80.949,335.689 81.763 C 336.019 83.501,335.230 130.261,334.845 131.800 C 334.241 134.220,333.612 142.363,333.579 148.200 C 333.545 154.094,333.058 161.263,332.410 165.400 C 332.169 166.940,331.809 172.520,331.611 177.800 C 331.349 184.774,331.077 187.884,330.618 189.171 C 330.260 190.172,329.804 193.560,329.568 196.971 C 329.339 200.287,328.886 203.920,328.563 205.045 C 328.240 206.170,327.821 209.694,327.634 212.876 C 327.393 216.951,327.095 219.043,326.623 219.955 C 326.255 220.667,325.777 222.903,325.561 224.925 C 325.345 226.946,324.899 229.294,324.570 230.142 C 324.242 230.989,323.803 233.464,323.596 235.641 C 323.373 237.983,322.962 239.992,322.589 240.561 C 322.243 241.089,321.768 242.754,321.535 244.261 C 321.302 245.767,320.840 247.526,320.509 248.169 C 320.178 248.813,319.753 250.568,319.565 252.071 C 319.369 253.631,318.891 255.275,318.451 255.902 C 318.027 256.506,317.563 257.805,317.421 258.790 C 317.278 259.774,316.902 260.866,316.584 261.217 C 316.267 261.568,315.827 262.802,315.608 263.959 C 315.388 265.116,314.847 266.523,314.404 267.085 C 313.962 267.648,313.600 268.400,313.600 268.757 C 313.600 269.114,313.150 270.252,312.600 271.285 C 312.050 272.318,311.600 273.518,311.600 273.951 C 311.600 274.384,311.175 275.247,310.655 275.869 C 310.135 276.491,309.570 277.450,309.400 278.000 C 309.229 278.550,308.767 279.413,308.373 279.919 C 307.978 280.424,307.538 281.371,307.395 282.022 C 307.252 282.674,306.790 283.391,306.367 283.617 C 305.945 283.843,305.600 284.264,305.600 284.552 C 305.600 284.840,305.149 285.599,304.598 286.238 C 304.046 286.877,303.480 287.760,303.340 288.200 C 303.200 288.640,302.751 289.235,302.343 289.523 C 301.934 289.810,301.600 290.235,301.600 290.468 C 301.600 290.955,300.211 292.732,297.501 295.712 C 296.457 296.860,295.500 298.115,295.374 298.500 C 295.249 298.885,294.978 299.200,294.773 299.200 C 294.568 299.200,293.725 299.911,292.900 300.780 C 292.075 301.649,291.220 302.544,291.000 302.770 C 290.780 302.995,289.250 304.261,287.600 305.584 C 285.950 306.906,284.234 308.350,283.786 308.794 C 283.338 309.237,282.755 309.600,282.489 309.600 C 282.224 309.600,281.782 309.960,281.507 310.400 C 281.232 310.840,280.810 311.200,280.568 311.200 C 280.071 311.200,277.732 312.855,275.904 314.500 C 275.231 315.105,274.370 315.600,273.990 315.600 C 273.609 315.600,273.063 315.883,272.776 316.229 C 272.489 316.575,271.583 317.201,270.764 317.619 C 269.944 318.037,269.212 318.518,269.137 318.689 C 269.062 318.860,268.370 319.327,267.600 319.727 C 264.603 321.284,263.523 321.950,263.070 322.520 C 262.812 322.845,261.926 323.325,261.103 323.586 C 260.280 323.847,259.470 324.282,259.303 324.553 C 259.136 324.825,258.428 325.278,257.729 325.560 C 257.030 325.842,256.147 326.417,255.767 326.837 C 255.387 327.256,254.779 327.600,254.416 327.600 C 254.053 327.600,253.145 328.050,252.400 328.600 C 251.655 329.150,250.837 329.600,250.584 329.600 C 250.331 329.600,249.823 329.932,249.456 330.339 C 249.088 330.745,248.060 331.295,247.172 331.561 C 246.284 331.827,245.462 332.294,245.345 332.598 C 245.229 332.902,244.621 333.264,243.994 333.401 C 243.368 333.539,242.620 333.934,242.333 334.280 C 242.046 334.626,241.089 335.253,240.206 335.672 C 237.479 336.967,236.232 337.676,235.400 338.402 C 234.960 338.787,233.912 339.322,233.072 339.591 C 232.232 339.860,231.452 340.321,231.339 340.616 C 231.226 340.910,230.631 341.261,230.017 341.396 C 229.403 341.531,228.486 342.082,227.981 342.621 C 227.475 343.159,226.767 343.600,226.408 343.600 C 226.049 343.600,225.145 344.050,224.400 344.600 C 223.655 345.150,222.811 345.600,222.526 345.600 C 222.240 345.600,221.782 345.960,221.507 346.400 C 221.232 346.840,220.716 347.200,220.360 347.200 C 220.003 347.200,219.049 347.650,218.238 348.200 C 217.428 348.750,216.617 349.200,216.437 349.200 C 216.257 349.200,215.431 349.740,214.600 350.400 C 213.769 351.060,212.890 351.603,212.645 351.607 C 212.075 351.617,208.849 353.729,207.786 354.789 C 207.338 355.235,206.708 355.603,206.386 355.607 C 205.774 355.615,202.875 357.423,201.266 358.801 C 199.776 360.076,197.563 359.977,195.879 358.559 C 195.252 358.032,194.302 357.490,193.769 357.357 C 193.236 357.223,192.800 356.943,192.800 356.734 C 192.800 356.526,192.035 355.997,191.100 355.559 C 190.165 355.121,188.427 354.064,187.238 353.209 C 186.048 352.355,184.616 351.540,184.055 351.399 C 183.495 351.259,182.793 350.796,182.495 350.372 C 182.198 349.947,181.773 349.600,181.551 349.600 C 181.328 349.600,180.574 349.174,179.873 348.653 C 179.173 348.131,178.105 347.588,177.500 347.445 C 176.895 347.302,176.400 346.998,176.400 346.770 C 176.400 346.542,175.614 346.007,174.653 345.582 C 173.692 345.157,172.689 344.549,172.425 344.230 C 172.161 343.912,171.436 343.540,170.814 343.403 C 170.192 343.266,169.366 342.805,168.979 342.377 C 168.593 341.950,168.069 341.600,167.816 341.600 C 167.563 341.600,166.745 341.150,166.000 340.600 C 165.255 340.050,164.318 339.600,163.920 339.600 C 163.521 339.600,162.816 339.165,162.353 338.632 C 161.891 338.100,161.086 337.558,160.566 337.427 C 160.046 337.297,158.961 336.742,158.155 336.195 C 157.348 335.648,156.471 335.200,156.206 335.200 C 155.941 335.200,155.398 334.840,155.000 334.400 C 154.602 333.960,154.069 333.600,153.816 333.600 C 153.563 333.600,152.745 333.150,152.000 332.600 C 151.255 332.050,150.332 331.600,149.951 331.600 C 149.569 331.600,148.951 331.285,148.576 330.900 C 147.904 330.209,146.167 329.195,142.953 327.618 C 142.047 327.173,141.080 326.537,140.804 326.205 C 140.528 325.872,140.089 325.600,139.829 325.600 C 139.568 325.600,138.745 325.150,138.000 324.600 C 137.255 324.050,136.388 323.600,136.075 323.600 C 135.762 323.600,134.891 323.060,134.139 322.400 C 133.387 321.740,132.536 321.200,132.248 321.200 C 131.960 321.200,131.398 320.840,131.000 320.400 C 130.602 319.960,129.972 319.600,129.600 319.600 C 129.228 319.600,128.610 319.253,128.226 318.828 C 127.842 318.404,126.914 317.765,126.164 317.410 C 125.414 317.054,124.800 316.605,124.800 316.412 C 124.800 316.220,124.196 315.863,123.459 315.619 C 122.721 315.376,121.700 314.732,121.189 314.188 C 120.678 313.645,120.050 313.200,119.792 313.200 C 119.535 313.200,118.998 312.840,118.600 312.400 C 118.202 311.960,117.643 311.600,117.358 311.600 C 117.073 311.600,116.696 311.348,116.520 311.040 C 116.081 310.272,111.935 307.200,111.338 307.200 C 111.072 307.200,110.740 306.840,110.600 306.400 C 110.460 305.960,110.177 305.600,109.970 305.600 C 109.764 305.600,109.203 305.150,108.725 304.600 C 108.247 304.050,107.710 303.600,107.531 303.600 C 107.158 303.600,102.773 299.171,101.030 297.034 C 100.387 296.245,99.622 295.600,99.330 295.600 C 99.039 295.600,98.800 295.359,98.800 295.064 C 98.800 294.483,97.253 292.252,95.500 290.304 C 94.895 289.631,94.400 288.840,94.400 288.544 C 94.400 288.249,94.040 287.782,93.600 287.507 C 93.160 287.232,92.800 286.731,92.800 286.393 C 92.800 286.055,92.260 285.187,91.600 284.464 C 90.940 283.742,90.400 282.830,90.400 282.437 C 90.400 282.045,90.050 281.407,89.623 281.021 C 89.195 280.634,88.731 279.796,88.591 279.159 C 88.451 278.522,88.018 277.776,87.629 277.500 C 87.240 277.225,86.800 276.343,86.650 275.541 C 86.501 274.738,86.047 273.658,85.642 273.141 C 85.236 272.623,84.772 271.597,84.611 270.859 C 84.450 270.122,84.008 269.208,83.628 268.828 C 83.249 268.449,82.727 267.086,82.469 265.800 C 82.210 264.514,81.754 263.178,81.454 262.831 C 81.154 262.484,80.799 261.486,80.665 260.613 C 80.532 259.740,80.074 258.555,79.648 257.980 C 79.218 257.398,78.747 255.880,78.589 254.566 C 78.432 253.265,78.025 251.570,77.685 250.800 C 77.344 250.030,76.841 248.170,76.566 246.668 C 76.291 245.165,75.807 243.635,75.492 243.268 C 75.154 242.874,74.741 240.905,74.487 238.472 C 74.250 236.202,73.801 233.952,73.490 233.472 C 73.178 232.993,72.799 231.070,72.646 229.200 C 72.491 227.300,72.043 225.094,71.629 224.200 C 71.117 223.091,70.762 220.881,70.475 217.000 C 70.247 213.920,69.791 210.500,69.462 209.400 C 69.133 208.300,68.688 204.945,68.472 201.944 C 68.245 198.788,67.826 195.922,67.478 195.144 C 67.044 194.173,66.758 191.081,66.447 184.000 C 66.178 177.850,65.791 173.336,65.409 171.880 C 65.070 170.590,64.796 167.839,64.790 165.680 C 64.773 159.010,64.075 148.339,63.438 145.000 C 62.971 142.551,62.727 136.218,62.399 118.000 C 62.164 104.910,61.810 91.615,61.612 88.455 C 61.105 80.332,60.745 80.802,67.490 80.791 C 74.967 80.780,83.938 80.166,85.400 79.565 C 86.060 79.294,89.848 78.857,93.818 78.594 C 98.552 78.280,101.512 77.902,102.418 77.495 C 103.178 77.153,105.266 76.765,107.057 76.631 C 110.356 76.385,112.800 75.780,112.800 75.208 C 112.800 75.036,114.504 74.767,116.587 74.611 C 119.043 74.427,120.900 74.059,121.871 73.564 C 122.695 73.144,123.916 72.799,124.585 72.798 C 126.213 72.795,128.649 72.094,129.302 71.441 C 129.593 71.149,131.020 70.784,132.472 70.628 C 133.925 70.473,135.718 70.025,136.457 69.634 C 137.196 69.242,138.608 68.795,139.596 68.641 C 140.583 68.486,141.753 68.039,142.196 67.646 C 142.638 67.254,144.149 66.729,145.552 66.481 C 146.956 66.232,148.396 65.772,148.752 65.458 C 149.109 65.144,150.149 64.764,151.064 64.614 C 151.980 64.464,153.036 64.003,153.410 63.588 C 153.785 63.174,154.884 62.717,155.851 62.571 C 156.818 62.426,158.012 61.992,158.505 61.606 C 158.997 61.220,160.030 60.771,160.800 60.609 C 161.570 60.447,162.560 59.984,163.000 59.581 C 163.440 59.178,164.578 58.674,165.529 58.460 C 166.479 58.247,167.559 57.810,167.929 57.490 C 168.298 57.170,169.054 56.800,169.608 56.669 C 170.162 56.538,170.972 56.103,171.408 55.703 C 171.844 55.303,172.944 54.755,173.853 54.486 C 174.761 54.217,175.728 53.727,176.002 53.398 C 176.275 53.069,176.732 52.800,177.018 52.800 C 177.304 52.800,178.075 52.349,178.729 51.798 C 179.384 51.247,180.485 50.683,181.174 50.545 C 181.864 50.407,182.608 49.958,182.828 49.547 C 183.048 49.136,183.590 48.800,184.032 48.800 C 184.475 48.800,185.263 48.373,185.785 47.852 C 186.306 47.330,187.202 46.786,187.777 46.642 C 188.351 46.498,189.138 46.062,189.527 45.673 C 189.916 45.284,190.812 44.727,191.517 44.434 C 192.223 44.142,192.800 43.655,192.800 43.351 C 192.800 43.048,193.146 42.800,193.569 42.800 C 193.992 42.800,194.847 42.377,195.469 41.860 C 196.866 40.698,198.866 39.977,199.380 40.450 C 199.589 40.643,200.041 40.800,200.384 40.800 " stroke="none" fill="#b2cae6" fill-rule="evenodd"></path><path id="path4" d="M197.880 38.409 C 197.326 38.844,196.713 39.200,196.516 39.200 C 195.947 39.200,191.200 42.386,191.200 42.768 C 191.200 42.958,190.717 43.234,190.127 43.383 C 189.537 43.531,188.533 44.090,187.896 44.626 C 187.260 45.162,186.553 45.600,186.327 45.600 C 186.101 45.600,185.381 46.050,184.727 46.600 C 184.073 47.150,183.307 47.600,183.023 47.600 C 182.740 47.600,182.079 47.935,181.554 48.345 C 181.029 48.755,180.150 49.229,179.600 49.400 C 179.050 49.570,178.091 50.135,177.469 50.655 C 176.847 51.175,176.017 51.600,175.623 51.600 C 175.230 51.600,174.479 51.934,173.954 52.342 C 173.429 52.750,172.312 53.308,171.472 53.582 C 170.632 53.856,169.852 54.321,169.739 54.616 C 169.626 54.910,168.963 55.274,168.267 55.425 C 167.570 55.575,166.191 56.126,165.203 56.649 C 164.215 57.172,163.204 57.600,162.957 57.600 C 162.710 57.600,162.072 57.943,161.540 58.361 C 161.007 58.780,159.858 59.316,158.986 59.552 C 158.114 59.787,156.687 60.345,155.815 60.790 C 154.944 61.236,153.933 61.600,153.569 61.600 C 153.206 61.600,152.448 61.962,151.885 62.404 C 151.323 62.847,149.914 63.389,148.755 63.609 C 147.595 63.828,146.258 64.263,145.782 64.575 C 145.306 64.887,144.216 65.262,143.358 65.408 C 142.501 65.555,141.291 66.033,140.670 66.472 C 140.046 66.912,138.348 67.438,136.883 67.645 C 135.422 67.852,133.846 68.271,133.380 68.576 C 132.915 68.881,131.648 69.254,130.567 69.404 C 129.485 69.554,127.905 70.028,127.055 70.456 C 126.206 70.883,124.063 71.415,122.294 71.637 C 120.525 71.859,118.449 72.303,117.680 72.624 C 116.911 72.946,114.907 73.362,113.225 73.550 C 111.544 73.738,109.574 74.200,108.848 74.575 C 107.974 75.027,105.816 75.386,102.464 75.636 C 99.679 75.845,96.351 76.281,95.069 76.607 C 93.787 76.933,89.737 77.387,86.069 77.617 C 82.401 77.847,78.247 78.301,76.838 78.626 C 75.429 78.951,71.228 79.332,67.503 79.473 C 62.477 79.663,60.583 79.874,60.164 80.293 C 59.229 81.228,59.664 112.213,60.776 123.800 C 61.008 126.220,61.381 134.140,61.605 141.400 C 61.880 150.290,62.207 155.449,62.608 157.200 C 62.976 158.812,63.349 163.828,63.588 170.400 C 63.805 176.354,64.236 182.402,64.572 184.200 C 64.902 185.960,65.347 190.100,65.563 193.400 C 65.795 196.956,66.219 200.133,66.603 201.200 C 66.997 202.294,67.397 205.383,67.622 209.076 C 67.826 212.418,68.255 215.928,68.575 216.876 C 68.895 217.824,69.348 220.479,69.582 222.775 C 69.824 225.152,70.268 227.350,70.614 227.877 C 70.970 228.420,71.388 230.568,71.625 233.072 C 71.848 235.420,72.281 237.895,72.588 238.571 C 72.896 239.247,73.330 241.033,73.553 242.539 C 73.776 244.046,74.238 245.704,74.579 246.224 C 74.920 246.744,75.380 248.447,75.601 250.008 C 75.823 251.570,76.258 253.338,76.568 253.937 C 76.878 254.537,77.261 255.741,77.420 256.614 C 77.579 257.486,78.134 259.009,78.654 259.997 C 79.174 260.985,79.602 262.245,79.604 262.797 C 79.606 263.349,80.050 264.700,80.591 265.800 C 81.132 266.900,81.581 268.091,81.587 268.446 C 81.594 268.801,81.949 269.536,82.375 270.078 C 82.802 270.620,83.266 271.589,83.408 272.232 C 83.724 273.662,86.018 278.450,86.651 279.000 C 86.904 279.220,87.321 280.061,87.576 280.868 C 87.832 281.675,88.302 282.552,88.620 282.817 C 88.939 283.082,89.200 283.508,89.200 283.764 C 89.200 284.020,89.733 284.853,90.384 285.615 C 91.035 286.377,91.575 287.197,91.584 287.437 C 91.600 287.867,95.397 293.226,96.517 294.400 C 96.832 294.730,97.301 295.405,97.559 295.900 C 97.817 296.395,98.292 296.800,98.614 296.800 C 98.936 296.800,99.200 297.040,99.200 297.333 C 99.200 297.831,104.645 303.478,107.095 305.521 C 107.703 306.027,108.765 306.927,109.456 307.521 C 110.147 308.114,111.227 309.009,111.856 309.509 C 112.485 310.009,113.654 310.954,114.453 311.609 C 115.252 312.264,116.079 312.800,116.291 312.800 C 116.503 312.800,117.002 313.160,117.400 313.600 C 117.798 314.040,118.297 314.400,118.509 314.400 C 118.721 314.400,119.509 314.940,120.261 315.600 C 121.013 316.260,121.892 316.800,122.214 316.800 C 122.536 316.800,122.800 316.989,122.800 317.220 C 122.800 317.452,123.420 317.900,124.178 318.217 C 124.936 318.533,126.008 319.244,126.560 319.796 C 127.112 320.348,127.932 320.800,128.382 320.800 C 128.832 320.800,129.200 320.983,129.200 321.206 C 129.200 321.430,129.875 321.921,130.700 322.298 C 131.525 322.674,132.709 323.391,133.331 323.891 C 133.953 324.391,134.690 324.800,134.969 324.800 C 135.248 324.800,135.793 325.150,136.179 325.577 C 136.566 326.005,137.447 326.478,138.136 326.630 C 138.825 326.781,139.589 327.179,139.834 327.514 C 140.271 328.112,141.627 328.919,144.397 330.230 C 145.165 330.594,146.304 331.321,146.927 331.846 C 147.551 332.371,148.388 332.800,148.788 332.800 C 149.187 332.800,149.611 333.052,149.729 333.360 C 149.847 333.668,150.632 334.141,151.472 334.413 C 152.312 334.684,153.309 335.228,153.686 335.622 C 154.064 336.015,154.784 336.466,155.286 336.624 C 155.789 336.781,156.613 337.233,157.119 337.627 C 157.624 338.022,158.569 338.461,159.219 338.604 C 159.868 338.747,160.400 339.039,160.400 339.254 C 160.400 339.469,161.186 339.993,162.147 340.418 C 163.108 340.843,164.111 341.451,164.375 341.770 C 164.639 342.088,165.425 342.474,166.122 342.627 C 166.819 342.780,167.589 343.179,167.834 343.514 C 168.271 344.112,169.627 344.919,172.397 346.230 C 173.165 346.594,174.304 347.321,174.927 347.846 C 175.551 348.371,176.220 348.800,176.413 348.800 C 176.606 348.800,177.428 349.250,178.238 349.800 C 179.049 350.350,180.027 350.800,180.413 350.800 C 180.799 350.800,181.221 351.078,181.352 351.418 C 181.482 351.758,182.191 352.288,182.926 352.595 C 183.662 352.902,184.482 353.417,184.748 353.738 C 185.015 354.059,185.669 354.431,186.202 354.565 C 186.736 354.699,187.620 355.256,188.168 355.804 C 188.715 356.352,189.414 356.800,189.720 356.800 C 190.026 356.800,190.602 357.160,191.000 357.600 C 191.398 358.040,191.952 358.400,192.231 358.400 C 192.510 358.400,193.247 358.816,193.869 359.325 C 196.478 361.460,199.015 362.431,199.880 361.626 C 200.310 361.226,201.053 360.774,201.531 360.622 C 202.009 360.470,202.587 359.998,202.814 359.573 C 203.042 359.148,203.568 358.800,203.983 358.800 C 204.399 358.800,205.273 358.350,205.927 357.800 C 206.581 357.250,207.290 356.800,207.503 356.800 C 207.716 356.800,208.569 356.260,209.400 355.600 C 210.231 354.940,211.157 354.400,211.459 354.400 C 211.761 354.400,212.316 354.040,212.693 353.600 C 213.070 353.160,213.706 352.800,214.107 352.800 C 214.508 352.800,215.285 352.352,215.832 351.804 C 216.380 351.256,217.259 350.700,217.785 350.568 C 218.311 350.436,219.052 349.984,219.433 349.564 C 219.813 349.144,220.374 348.800,220.680 348.800 C 220.986 348.800,221.670 348.366,222.201 347.836 C 222.731 347.305,223.701 346.754,224.355 346.610 C 225.009 346.466,225.768 346.080,226.041 345.751 C 226.313 345.423,227.173 344.888,227.952 344.562 C 228.731 344.237,229.697 343.617,230.100 343.185 C 230.502 342.753,231.150 342.400,231.540 342.400 C 231.930 342.400,232.628 342.047,233.090 341.616 C 233.553 341.185,234.410 340.712,234.994 340.566 C 235.578 340.419,236.267 339.962,236.524 339.550 C 236.782 339.137,237.284 338.800,237.640 338.800 C 237.997 338.800,238.925 338.368,239.703 337.840 C 240.481 337.312,241.502 336.758,241.972 336.609 C 242.441 336.460,243.296 335.902,243.871 335.369 C 244.446 334.836,245.216 334.400,245.581 334.400 C 245.946 334.400,246.855 333.950,247.600 333.400 C 248.345 332.850,249.180 332.400,249.455 332.400 C 249.730 332.400,250.190 332.064,250.477 331.654 C 250.765 331.243,251.566 330.783,252.259 330.631 C 252.951 330.479,253.824 330.015,254.200 329.600 C 254.576 329.185,255.404 328.731,256.041 328.591 C 256.678 328.451,257.424 328.018,257.700 327.630 C 257.975 327.241,258.888 326.697,259.728 326.421 C 260.568 326.145,261.348 325.679,261.461 325.384 C 261.574 325.090,262.193 324.733,262.837 324.592 C 263.480 324.451,264.184 324.004,264.400 323.600 C 264.616 323.196,265.322 322.749,265.969 322.607 C 266.616 322.465,267.368 322.080,267.641 321.751 C 267.913 321.423,268.736 320.903,269.468 320.597 C 270.201 320.291,270.800 319.860,270.800 319.639 C 270.800 319.418,271.610 318.879,272.600 318.441 C 273.590 318.003,274.400 317.455,274.400 317.222 C 274.400 316.990,274.678 316.800,275.018 316.800 C 275.358 316.800,276.045 316.395,276.544 315.900 C 277.043 315.405,278.115 314.688,278.926 314.306 C 279.737 313.925,280.400 313.430,280.400 313.206 C 280.400 312.983,280.657 312.800,280.971 312.800 C 281.285 312.800,281.896 312.350,282.329 311.800 C 282.761 311.250,283.289 310.800,283.503 310.800 C 285.367 310.800,300.745 295.779,302.339 292.400 C 302.703 291.630,303.405 290.672,303.900 290.271 C 304.395 289.870,304.800 289.375,304.800 289.171 C 304.800 288.967,305.166 288.434,305.613 287.988 C 306.059 287.541,306.529 286.657,306.655 286.023 C 306.782 285.389,307.201 284.788,307.586 284.688 C 307.972 284.587,308.416 283.986,308.573 283.352 C 308.731 282.718,309.182 281.840,309.577 281.400 C 309.972 280.960,310.413 280.100,310.558 279.490 C 310.702 278.879,311.171 278.029,311.600 277.600 C 312.029 277.171,312.502 276.321,312.651 275.710 C 312.800 275.100,313.234 274.197,313.615 273.705 C 313.996 273.212,314.431 271.987,314.582 270.981 C 314.733 269.976,315.112 269.055,315.424 268.935 C 315.737 268.815,316.194 267.971,316.439 267.059 C 316.685 266.146,317.206 264.770,317.596 264.000 C 317.986 263.230,318.433 261.707,318.590 260.616 C 318.746 259.525,319.197 258.222,319.591 257.721 C 319.985 257.219,320.431 255.952,320.581 254.905 C 320.732 253.857,321.186 252.280,321.590 251.400 C 321.995 250.520,322.449 248.540,322.600 247.000 C 322.754 245.432,323.140 243.903,323.477 243.524 C 323.809 243.153,324.318 241.353,324.610 239.524 C 324.901 237.696,325.401 235.480,325.721 234.600 C 326.041 233.720,326.427 231.290,326.578 229.200 C 326.750 226.820,327.135 224.802,327.607 223.800 C 328.109 222.733,328.452 220.800,328.633 218.000 C 328.783 215.690,329.046 213.620,329.218 213.400 C 329.771 212.690,330.338 208.338,330.615 202.677 C 330.790 199.079,331.092 196.738,331.479 195.961 C 331.877 195.163,332.203 192.487,332.461 187.884 C 332.674 184.098,333.119 179.650,333.450 178.000 C 333.832 176.099,334.196 170.532,334.443 162.800 C 334.685 155.239,335.064 149.383,335.438 147.400 C 336.091 143.947,336.765 129.290,336.791 118.000 C 336.799 114.150,336.981 109.470,337.194 107.600 C 337.407 105.730,337.770 98.980,338.000 92.600 L 338.418 81.000 337.565 80.300 C 336.887 79.744,335.916 79.596,332.856 79.581 C 328.435 79.558,322.268 79.029,319.517 78.436 C 318.481 78.213,314.629 77.841,310.957 77.609 C 307.286 77.377,303.363 76.922,302.241 76.598 C 301.118 76.273,297.831 75.840,294.936 75.637 C 291.302 75.381,289.370 75.068,288.695 74.626 C 288.158 74.274,286.117 73.790,284.159 73.551 C 282.202 73.311,280.121 72.869,279.536 72.566 C 278.951 72.264,276.901 71.838,274.980 71.620 C 272.863 71.379,271.217 70.977,270.798 70.598 C 270.418 70.254,268.979 69.791,267.600 69.569 C 266.221 69.347,264.553 68.886,263.893 68.545 C 263.233 68.203,261.618 67.772,260.305 67.587 C 258.992 67.401,257.621 66.982,257.259 66.655 C 256.896 66.328,255.700 65.838,254.600 65.566 C 253.500 65.295,251.973 64.741,251.206 64.336 C 250.439 63.931,249.259 63.600,248.584 63.600 C 247.908 63.600,246.776 63.172,246.067 62.649 C 245.358 62.127,244.087 61.588,243.241 61.453 C 242.396 61.318,241.487 60.945,241.221 60.626 C 240.956 60.306,239.762 59.841,238.569 59.594 C 237.376 59.346,236.400 58.991,236.400 58.805 C 236.400 58.619,235.545 58.151,234.500 57.765 C 233.455 57.380,232.330 56.842,232.000 56.569 C 231.670 56.297,230.664 55.878,229.764 55.639 C 228.863 55.399,227.801 54.843,227.402 54.402 C 227.002 53.961,226.368 53.600,225.992 53.600 C 225.616 53.600,224.872 53.257,224.340 52.839 C 223.807 52.420,222.613 51.873,221.686 51.623 C 220.759 51.373,220.000 51.017,220.000 50.830 C 220.000 50.644,219.325 50.178,218.500 49.795 C 217.675 49.411,216.730 48.881,216.400 48.615 C 216.070 48.349,215.178 47.885,214.417 47.583 C 213.657 47.281,212.757 46.790,212.417 46.491 C 211.127 45.354,208.172 43.614,207.520 43.607 C 207.146 43.603,206.680 43.314,206.484 42.965 C 206.113 42.301,203.917 40.850,201.700 39.803 C 200.985 39.465,200.400 39.018,200.400 38.809 C 200.400 37.858,198.885 37.618,197.880 38.409 M203.552 41.600 C 203.765 41.600,204.447 42.025,205.069 42.544 C 206.125 43.425,207.407 44.215,209.950 45.552 C 210.528 45.855,211.360 46.411,211.800 46.787 C 212.240 47.162,213.770 48.063,215.200 48.788 C 216.630 49.513,218.250 50.406,218.800 50.773 C 220.527 51.926,236.019 59.394,238.800 60.415 C 239.570 60.697,240.371 61.079,240.580 61.264 C 240.789 61.449,241.253 61.600,241.612 61.600 C 241.971 61.600,243.069 62.008,244.053 62.506 C 245.037 63.004,247.723 64.012,250.021 64.747 C 252.320 65.481,255.190 66.493,256.400 66.995 C 257.610 67.497,259.410 68.110,260.400 68.358 C 261.390 68.606,263.370 69.098,264.800 69.451 C 266.230 69.805,268.365 70.458,269.545 70.904 C 270.724 71.349,272.884 71.937,274.345 72.209 C 279.069 73.091,283.333 74.026,286.386 74.850 C 288.028 75.293,290.896 75.829,292.758 76.040 C 294.621 76.252,297.687 76.685,299.572 77.002 C 301.458 77.320,305.340 77.773,308.200 78.009 C 311.060 78.245,315.200 78.709,317.400 79.040 C 319.600 79.370,324.769 79.770,328.887 79.927 C 333.378 80.099,336.549 80.389,336.811 80.651 C 337.126 80.966,337.071 88.124,336.612 106.444 C 336.020 130.111,335.832 134.161,334.816 145.200 C 334.604 147.510,334.234 153.977,333.995 159.571 C 333.756 165.164,333.479 169.872,333.381 170.031 C 333.282 170.191,332.849 175.064,332.418 180.861 C 331.986 186.657,331.459 191.983,331.246 192.696 C 331.033 193.408,330.654 196.108,330.405 198.696 C 330.155 201.283,329.773 204.750,329.555 206.400 C 329.336 208.050,328.821 212.010,328.409 215.200 C 327.997 218.390,327.393 221.829,327.066 222.842 C 326.740 223.855,326.273 226.327,326.029 228.335 C 325.785 230.344,325.422 232.417,325.222 232.942 C 325.022 233.468,324.645 235.406,324.383 237.249 C 324.122 239.092,323.633 241.195,323.298 241.923 C 322.962 242.650,322.368 244.720,321.977 246.523 C 320.910 251.443,319.780 255.566,318.886 257.800 C 318.445 258.900,317.575 261.420,316.951 263.400 C 316.328 265.380,315.576 267.298,315.281 267.662 C 314.986 268.026,314.488 269.177,314.174 270.219 C 313.861 271.260,313.447 272.312,313.254 272.556 C 313.062 272.800,312.686 273.677,312.420 274.504 C 312.154 275.331,311.719 276.231,311.455 276.504 C 311.191 276.777,310.273 278.440,309.417 280.200 C 308.560 281.960,307.520 283.850,307.106 284.400 C 306.692 284.950,305.644 286.480,304.777 287.800 C 300.759 293.918,298.615 296.543,293.536 301.566 C 290.175 304.889,287.446 307.234,284.507 309.324 C 283.238 310.226,282.020 311.176,281.800 311.435 C 281.580 311.694,280.410 312.556,279.200 313.351 C 277.990 314.147,276.820 314.938,276.600 315.111 C 275.378 316.068,272.310 318.000,272.011 318.000 C 271.819 318.000,271.153 318.421,270.531 318.936 C 269.909 319.451,268.187 320.546,266.704 321.369 C 265.221 322.192,263.904 323.032,263.778 323.235 C 263.652 323.439,262.886 323.934,262.075 324.335 C 260.258 325.234,257.538 326.774,257.000 327.208 C 256.780 327.386,255.160 328.288,253.400 329.213 C 251.640 330.138,249.930 331.121,249.600 331.397 C 249.270 331.673,245.980 333.587,242.290 335.650 C 238.599 337.712,234.729 339.892,233.690 340.494 C 232.650 341.096,231.176 341.868,230.414 342.209 C 229.652 342.551,228.932 342.980,228.814 343.162 C 228.622 343.459,227.410 344.168,223.954 346.007 C 223.326 346.341,222.495 346.838,222.107 347.112 C 221.433 347.587,216.320 350.707,214.065 352.020 C 211.143 353.720,208.423 355.370,206.800 356.426 C 205.810 357.070,204.427 357.865,203.727 358.193 C 203.027 358.520,202.340 358.973,202.200 359.200 C 200.755 361.538,197.944 361.264,193.533 358.357 C 192.066 357.391,190.281 356.240,189.565 355.800 C 188.849 355.360,187.619 354.598,186.832 354.106 C 186.044 353.614,184.655 352.864,183.744 352.439 C 182.833 352.014,181.977 351.486,181.841 351.266 C 181.704 351.045,180.379 350.195,178.896 349.377 C 177.413 348.558,175.930 347.665,175.600 347.391 C 175.270 347.118,173.561 346.138,171.803 345.214 C 170.045 344.290,168.515 343.392,168.403 343.220 C 168.291 343.047,166.850 342.217,165.200 341.374 C 163.550 340.532,161.913 339.606,161.562 339.315 C 161.211 339.025,159.518 338.073,157.800 337.200 C 156.082 336.327,154.389 335.363,154.038 335.059 C 153.372 334.482,151.958 333.700,149.615 332.612 C 148.853 332.259,147.953 331.728,147.615 331.432 C 147.277 331.136,145.560 330.139,143.800 329.215 C 142.040 328.291,140.330 327.302,140.000 327.017 C 139.670 326.731,138.140 325.825,136.600 325.003 C 135.060 324.181,133.710 323.383,133.600 323.231 C 133.490 323.078,132.140 322.264,130.600 321.422 C 129.060 320.580,127.440 319.591,127.000 319.224 C 126.560 318.857,125.030 317.855,123.600 316.996 C 122.170 316.137,120.651 315.112,120.225 314.717 C 119.798 314.323,119.332 314.000,119.188 314.000 C 118.838 314.000,111.509 308.474,109.000 306.319 C 101.127 299.555,91.716 287.968,88.406 280.966 C 87.895 279.885,87.261 278.730,86.996 278.400 C 86.732 278.070,85.932 276.450,85.219 274.800 C 84.506 273.150,83.505 270.900,82.996 269.800 C 81.586 266.753,80.000 262.467,79.998 261.692 C 79.996 261.311,79.703 260.460,79.347 259.800 C 78.603 258.423,76.014 249.799,75.984 248.600 C 75.974 248.160,75.686 247.080,75.344 246.200 C 74.538 244.121,72.947 237.071,72.366 233.000 C 72.115 231.240,71.565 228.586,71.144 227.102 C 70.722 225.618,70.194 222.918,69.969 221.102 C 69.744 219.286,69.309 216.353,69.003 214.583 C 68.698 212.814,68.258 209.183,68.026 206.513 C 67.794 203.843,67.336 200.521,67.007 199.129 C 66.679 197.738,66.219 194.080,65.987 191.000 C 65.754 187.920,65.306 183.060,64.991 180.200 C 64.677 177.340,64.233 171.040,64.006 166.200 C 63.778 161.360,63.503 156.950,63.395 156.400 C 62.801 153.391,62.332 146.099,61.798 131.600 C 61.470 122.690,61.026 111.201,60.812 106.070 C 60.165 90.632,60.222 81.119,60.966 80.576 C 61.344 80.299,64.372 80.031,68.694 79.892 C 72.602 79.767,78.590 79.300,82.000 78.855 C 85.410 78.411,90.000 77.872,92.200 77.659 C 99.457 76.956,106.153 75.960,109.365 75.105 C 111.105 74.642,113.805 74.040,115.365 73.769 C 120.559 72.865,126.177 71.575,128.200 70.822 C 130.579 69.936,137.594 68.000,138.426 68.000 C 138.748 68.000,139.662 67.651,140.458 67.225 C 141.253 66.799,142.870 66.181,144.052 65.851 C 147.310 64.943,149.987 64.003,152.200 62.988 C 153.300 62.484,155.730 61.494,157.600 60.789 C 159.470 60.084,161.630 59.175,162.400 58.769 C 164.481 57.671,168.297 56.000,168.721 56.000 C 168.925 56.000,169.521 55.669,170.046 55.266 C 170.571 54.862,172.350 53.929,174.000 53.192 C 175.650 52.456,177.360 51.561,177.800 51.204 C 178.240 50.847,179.950 49.869,181.600 49.032 C 183.250 48.194,184.870 47.289,185.200 47.022 C 185.731 46.591,187.327 45.632,190.874 43.612 C 191.465 43.275,192.905 42.353,194.074 41.563 C 195.243 40.772,196.830 39.768,197.600 39.333 L 199.000 38.540 201.083 40.070 C 202.229 40.911,203.340 41.600,203.552 41.600 " stroke="none" fill="#8cacd4" fill-rule="evenodd"></path></g></svg>