<svg width="24" height="15" viewBox="0 0 24 15" fill="none" xmlns="http://www.w3.org/2000/svg">
<path d="M4.91206 2.93971C8.82496 -0.943118 15.169 -0.943118 19.0819 2.93971L19.5528 3.40701C19.7485 3.60115 19.7485 3.91592 19.5528 4.11006L17.9419 5.70861C17.8441 5.80568 17.6855 5.80568 17.5877 5.70861L16.9396 5.06555C14.2099 2.35679 9.7841 2.35679 7.05437 5.06555L6.36036 5.75422C6.26254 5.85129 6.10394 5.85129 6.00611 5.75422L4.39518 4.15566C4.19953 3.96152 4.19953 3.64676 4.39518 3.45261L4.91206 2.93971ZM22.4135 6.24569L23.8472 7.66841C24.0429 7.86255 24.0429 8.17731 23.8472 8.37145L17.3824 14.7867C17.1868 14.9808 16.8696 14.9808 16.6739 14.7867C16.6739 14.7867 16.6739 14.7867 16.6739 14.7867L12.0856 10.2336C12.0367 10.1851 11.9574 10.1851 11.9085 10.2336H11.9085L7.32022 14.7867C7.12458 14.9808 6.80738 14.9808 6.61173 14.7867C6.61173 14.7867 6.61173 14.7867 6.61173 14.7867L0.146734 8.37137C-0.0489112 8.17723 -0.0489112 7.86246 0.146734 7.66832L1.58047 6.2456C1.77612 6.05146 2.09332 6.05146 2.28896 6.2456L6.87736 10.7987C6.92627 10.8473 7.00558 10.8473 7.05449 10.7987C7.05449 10.7987 7.05449 10.7987 7.05449 10.7987L11.6427 6.2456C11.8383 6.05146 12.1555 6.05145 12.3511 6.24559C12.3512 6.24559 12.3512 6.24559 12.3512 6.2456L16.9396 10.7987C16.9885 10.8473 17.0678 10.8473 17.1167 10.7987L21.705 6.24569C21.9006 6.05154 22.2178 6.05154 22.4135 6.24569Z" fill="#3B99FC"/>
</svg>
