<svg width="53" height="55" viewBox="0 0 53 55" fill="none" xmlns="http://www.w3.org/2000/svg">
<g filter="url(#filter0_d)">
<path fill-rule="evenodd" clip-rule="evenodd" d="M26.7309 33.8177L27.4346 31.6671L27.0464 29.1261L27.0663 29.157L27.458 31.8084L26.7765 33.8528L26.505 34.1326L26.5027 34.129C26.4935 34.1142 26.4824 34.1008 26.4698 34.089L26.7309 33.8177ZM18.5486 19.7694L18.5517 19.7719L18.7203 19.8318L18.7751 19.8631L24.36 24.3084L24.4031 24.3554L27.3914 28.9807C27.4045 29.0039 27.4138 29.029 27.4188 29.0551L27.8457 31.7967C27.8535 31.8275 27.8535 31.8598 27.8457 31.8907L27.1329 34.0252C27.1249 34.0531 27.1101 34.0787 27.0898 34.0996L25.8852 35.3263L23.8066 38.5183L19.8003 38.6721L19.79 38.6697L19.7272 38.6721L19.6844 38.6451L15.6128 37.6947H15.57L11.1907 35.5004L7.22436 32.5218C7.20803 32.5069 7.19364 32.4901 7.1815 32.4716L5.1282 29.2767C5.11678 29.2572 5.1076 29.2365 5.1009 29.2149L4.0061 24.4824C3.99947 24.4553 3.99882 24.4272 4.0042 24.3998C4.00571 24.3921 4.00768 24.3846 4.01011 24.3772L4.00059 24.3358L5.61366 22.1019L5.57268 21.9232C5.55517 21.8778 5.55517 21.8276 5.57268 21.7822L6.42645 20.2156C6.43759 20.1928 6.45364 20.1728 6.47344 20.1569L8.99568 18.0616C9.00279 18.0556 9.01025 18.0503 9.01802 18.0454L9.02187 18.0431L9.14058 17.9424L14.1946 18.191L18.5486 19.7694Z" fill="#99FFCC"/>
</g>
<path d="M26.5332 34.3317L26.1686 34.3712L25.7367 31.6128L22.7131 26.9524L17.0621 22.4735L12.6 20.8951L7.42064 20.6465L6.57657 20.7688L4.00076 24.3361L5.1143 29.1741L7.20269 32.4375L11.2329 35.484L15.6593 37.7017L19.8004 38.6724L23.8068 38.5185L26.5332 34.3317Z" fill="#99FFCC"/>
<path d="M19.7274 38.6724L23.6664 38.5218C23.6983 38.5208 23.7295 38.5122 23.7573 38.4967C23.7851 38.4812 23.8087 38.4594 23.8262 38.4329L26.5029 34.334C26.5227 34.3035 26.5332 34.2679 26.5332 34.2316C26.5332 34.1953 26.5227 34.1598 26.5029 34.1293C26.4835 34.0981 26.4557 34.0729 26.4226 34.0565C26.3896 34.0402 26.3526 34.0332 26.3158 34.0365L26.1483 34.0559L25.7587 31.537C25.7537 31.5112 25.7445 31.4864 25.7314 31.4636L22.7586 26.9011L22.7158 26.8547L17.1598 22.4699L17.1053 22.439L12.7181 20.8937H12.6597L7.56739 20.6465L6.69854 20.7701C6.67233 20.7734 6.64703 20.782 6.62425 20.7952C6.60148 20.8085 6.58168 20.8263 6.56604 20.8474L4.03741 24.3243C4.02101 24.3469 4.00974 24.3728 4.00436 24.4001C3.99898 24.4275 3.99963 24.4556 4.00626 24.4827L5.10107 29.2152C5.10777 29.2368 5.11694 29.2575 5.12837 29.277L7.18167 32.4719C7.19381 32.4903 7.2082 32.5072 7.22452 32.5221L11.1908 35.5007L15.5701 37.695H15.613L19.6845 38.6454L19.7274 38.6724ZM23.5612 38.1393L19.7469 38.2861L15.726 37.3473L11.3934 35.1839L7.49723 32.2401L5.48289 29.107L4.41143 24.4711L6.8427 21.1178L7.59074 21.0058L12.6207 21.253L16.9494 22.7751L22.4547 27.129L25.3886 31.6297L25.8054 34.2915C25.8124 34.3327 25.8324 34.3706 25.8625 34.3997C25.8927 34.4289 25.9313 34.4478 25.973 34.4538L23.5612 38.1393Z" fill="#070618"/>
<path d="M26.7318 33.8177L27.4355 31.6671L27.0141 28.9087L24.0637 24.2483L18.5495 19.7694L14.1955 18.191L9.14148 17.9424L6.64737 20.0575L5.8044 21.632L6.89098 26.47L8.92881 29.7334L12.8614 32.7799L17.1807 34.9976L21.2215 35.9683L24.837 35.7868L26.7318 33.8177Z" fill="#99FFCC"/>
<path d="M24.0599 33.0663L21.8006 33.2647L18.3008 32.4713L15.0071 30.6664L11.7679 28.0603L10.2941 25.6049L9.4075 22.3006L11.1768 20.6465L15.0071 20.9956L18.3008 21.9991L22.8816 25.6446C22.8816 25.6446 25.2381 29.3535 25.3859 29.3535C25.5336 29.3535 25.6309 31.2059 25.6309 31.2059L24.0599 33.0663Z" fill="#99FFCC"/>
<path fill-rule="evenodd" clip-rule="evenodd" d="M8.84032 21.997C8.85088 21.9721 8.86641 21.9496 8.88604 21.9308L10.6681 20.2976C10.688 20.2781 10.7121 20.2634 10.7386 20.2546C10.765 20.2457 10.7932 20.2431 10.8208 20.2467L14.6785 20.5913H14.7177L18.031 21.5822L18.0976 21.6135L22.6956 25.2285C22.715 25.2399 22.7311 25.2561 22.7426 25.2755C23.5533 26.5287 24.8966 28.5496 25.1747 28.8512C25.3274 28.8825 25.4489 29.1214 25.5429 30.8643C25.5445 30.9142 25.5278 30.963 25.4959 31.0014L25.0082 31.5708C25.0092 31.59 25.0098 31.6004 25.0098 31.6004L23.4314 33.4294L21.1559 33.6292L17.6311 32.8459L14.3256 31.056L11.0593 28.4829L9.57493 26.0586L8.29423 22.4006L8.84032 21.997ZM10.4501 21.0347L10.903 20.6188L14.655 20.9556L17.9136 21.9308L22.4606 25.4987C24.27 28.2872 24.8105 28.9883 24.9985 29.1645C25.1009 29.7008 25.1611 30.2442 25.1786 30.7899L24.9718 31.0311C24.9302 30.493 24.8567 29.7675 24.7631 29.7675C24.6142 29.7675 22.2408 26.1056 22.2408 26.1056L17.639 22.4946L14.3256 21.5076L10.4501 21.0347ZM25.0102 29.1919L25.0611 29.2233C25.0428 29.2152 25.0257 29.2046 25.0102 29.1919Z" fill="#070618"/>
<path fill-rule="evenodd" clip-rule="evenodd" d="M21.487 36.2914L25.0376 36.1167C25.0867 36.1148 25.1331 36.0937 25.1669 36.058L27.0898 34.0998C27.1101 34.0789 27.1249 34.0533 27.1329 34.0253L27.8457 31.8909C27.8535 31.86 27.8535 31.8277 27.8457 31.7969L27.4188 29.0553C27.4138 29.0292 27.4045 29.004 27.3914 28.9809L24.4031 24.3555L24.36 24.3086L18.7751 19.8633L18.7203 19.832L14.3103 18.2654H14.2516L9.13275 18.0148C9.08284 18.0131 9.03407 18.0298 8.99568 18.0618L6.47344 20.1571C6.45364 20.173 6.43759 20.193 6.42645 20.2158L5.57268 21.7824C5.55517 21.8278 5.55517 21.878 5.57268 21.9234L6.65307 26.6334L5.12992 28.9181C5.10157 28.9613 5.09144 29.0139 5.10171 29.0645C5.11198 29.1151 5.14183 29.1596 5.18475 29.1884C5.21718 29.2099 5.25546 29.2209 5.29438 29.2197C5.32678 29.2201 5.3588 29.2124 5.38751 29.1973C5.41622 29.1823 5.44074 29.1604 5.45889 29.1335L6.85935 27.0328L8.69137 29.9077L7.19445 32.1531C7.16611 32.1963 7.15598 32.2489 7.16624 32.2995C7.17651 32.3501 7.20636 32.3946 7.24929 32.4234C7.28137 32.4461 7.31961 32.4584 7.35891 32.4586C7.39116 32.4586 7.42287 32.4503 7.45099 32.4346C7.47911 32.4188 7.50271 32.396 7.5195 32.3685L8.96833 30.1953L12.6428 32.9782L11.1773 35.1765C11.149 35.2197 11.1388 35.2723 11.1491 35.3229C11.1594 35.3736 11.1892 35.4181 11.2322 35.4468C11.2642 35.4695 11.3025 35.4818 11.3418 35.482C11.3741 35.482 11.4058 35.4738 11.4339 35.458C11.462 35.4422 11.4856 35.4195 11.5024 35.3919L12.9744 33.184L17.0373 35.2372L15.6165 37.34C15.6029 37.3599 15.5931 37.3824 15.5879 37.4062C15.5826 37.4301 15.582 37.4547 15.5859 37.4788C15.5899 37.5029 15.5984 37.526 15.611 37.5466C15.6236 37.5673 15.64 37.5852 15.6593 37.5992C15.6813 37.6163 15.7069 37.6277 15.7341 37.6325C15.763 37.6326 15.7915 37.6252 15.817 37.6109C15.8425 37.5967 15.8642 37.5761 15.8801 37.551L17.3913 35.3534L21.0645 36.2181L19.6489 38.3415C19.6202 38.3842 19.6095 38.4365 19.619 38.487C19.6285 38.5376 19.6576 38.5824 19.6999 38.6117C19.7322 38.634 19.7703 38.6462 19.8095 38.647C19.8418 38.6467 19.8736 38.6387 19.9022 38.6237C19.9308 38.6087 19.9554 38.5872 19.974 38.5608L21.487 36.2914ZM12.9983 32.7603L17.2763 34.9147C17.2948 34.9039 17.3152 34.8965 17.3366 34.8931C17.3817 34.8859 17.4277 34.897 17.4652 34.9241C17.4899 34.942 17.5097 34.9659 17.5229 34.9934L21.3953 35.9053L24.9554 35.729L26.7765 33.853L27.458 31.8086L27.0663 29.1572L24.1172 24.5945L18.5636 20.1923L14.2124 18.6492L9.19543 18.4064L6.75939 20.4312L5.97609 21.8999L7.05699 26.5997L9.08183 29.776L12.9983 32.7603Z" fill="#070618"/>
<path d="M13.9155 22.4492L17.6503 24.6948L19.0814 24.2672L20.2246 29.6596L14.5559 27.3486L15.3811 26.5012L13.9155 22.4492Z" fill="#99FFCC"/>
<path d="M26.5332 34.3317L26.1686 34.3712L25.7367 31.6128L22.7131 26.9524L17.0621 22.4735L12.6 20.8951L7.42064 20.6465L6.57657 20.7688L4.00076 24.3361L5.1143 29.1741L7.20269 32.4375L11.2329 35.484L15.6593 37.7017L19.8004 38.6724L23.8068 38.5185L26.5332 34.3317Z" fill="#99FFCC"/>
<path d="M19.7274 38.6724L23.6664 38.5218C23.6983 38.5208 23.7295 38.5122 23.7573 38.4967C23.7851 38.4812 23.8087 38.4594 23.8262 38.4329L26.5029 34.334C26.5227 34.3035 26.5332 34.2679 26.5332 34.2316C26.5332 34.1953 26.5227 34.1598 26.5029 34.1293C26.4835 34.0981 26.4557 34.0729 26.4226 34.0565C26.3896 34.0402 26.3526 34.0332 26.3158 34.0365L26.1483 34.0559L25.7587 31.537C25.7537 31.5112 25.7445 31.4864 25.7314 31.4636L22.7586 26.9011L22.7158 26.8547L17.1598 22.4699L17.1053 22.439L12.7181 20.8937H12.6597L7.56739 20.6465L6.69854 20.7701C6.67233 20.7734 6.64703 20.782 6.62425 20.7952C6.60148 20.8085 6.58168 20.8263 6.56604 20.8474L4.03741 24.3243C4.02101 24.3469 4.00974 24.3728 4.00436 24.4001C3.99898 24.4275 3.99963 24.4556 4.00626 24.4827L5.10107 29.2152C5.10777 29.2368 5.11694 29.2575 5.12837 29.277L7.18167 32.4719C7.19381 32.4903 7.2082 32.5072 7.22452 32.5221L11.1908 35.5007L15.5701 37.695H15.613L19.6845 38.6454L19.7274 38.6724ZM23.5612 38.1393L19.7469 38.2861L15.726 37.3473L11.3934 35.1839L7.49723 32.2401L5.48289 29.107L4.41143 24.4711L6.8427 21.1178L7.59074 21.0058L12.6207 21.253L16.9494 22.7751L22.4547 27.129L25.3886 31.6297L25.8054 34.2915C25.8124 34.3327 25.8324 34.3706 25.8625 34.3997C25.8927 34.4289 25.9313 34.4478 25.973 34.4538L23.5612 38.1393Z" fill="#070618"/>
<path d="M26.7318 33.8177L27.4355 31.6671L27.0141 28.9087L24.0637 24.2483L18.5495 19.7694L14.1955 18.191L9.14148 17.9424L6.64737 20.0575L5.8044 21.632L6.89098 26.47L8.92881 29.7334L12.8614 32.7799L17.1807 34.9976L21.2215 35.9683L24.837 35.7868L26.7318 33.8177Z" fill="#99FFCC"/>
<path d="M24.0599 33.0663L21.8006 33.2647L18.3008 32.4713L15.0071 30.6664L11.7679 28.0603L10.2941 25.6049L9.4075 22.3006L11.1768 20.6465L15.0071 20.9956L18.3008 21.9991L22.8816 25.6446C22.8816 25.6446 25.2381 29.3535 25.3859 29.3535C25.5336 29.3535 25.6309 31.2059 25.6309 31.2059L24.0599 33.0663Z" fill="#99FFCC"/>
<path d="M21.5206 33.0967L23.7961 32.8969C23.8474 32.8927 23.8951 32.8689 23.9293 32.8304L25.4959 31.0014C25.5278 30.963 25.5445 30.9142 25.5429 30.8643C25.4489 29.1214 25.3274 28.8825 25.1747 28.8512C24.8966 28.5496 23.5533 26.5287 22.7426 25.2755C22.7311 25.2561 22.715 25.2399 22.6956 25.2285L18.0976 21.6135L18.031 21.5822L14.7177 20.5913H14.6785L10.8208 20.2467C10.7932 20.2431 10.765 20.2457 10.7386 20.2546C10.7121 20.2634 10.688 20.2781 10.6681 20.2976L8.88604 21.9308C8.8602 21.9555 8.84147 21.9867 8.83183 22.0212C8.82218 22.0556 8.82197 22.092 8.8312 22.1266L9.75157 25.3773L9.77509 25.4282L11.2595 27.8525C11.2718 27.8734 11.2877 27.8919 11.3064 27.9073L14.5689 30.4687L17.9136 32.2703L17.9645 32.2899L21.4893 33.0732L21.5206 33.0967ZM23.6982 32.517L21.5324 32.705L18.0741 31.9217L14.7843 30.1515L11.5767 27.6214L10.1237 25.248L9.27377 22.1149L10.903 20.6188L14.655 20.9556L17.9136 21.9308L22.4606 25.4987C24.27 28.2872 24.8105 28.9883 24.9985 29.1645C25.1009 29.7008 25.1611 30.2442 25.1786 30.7899L23.6982 32.517ZM25.0102 29.1919L25.0611 29.2233C25.0428 29.2152 25.0257 29.2046 25.0102 29.1919Z" fill="#070618"/>
<path d="M23.4314 33.4299L21.1559 33.6297L17.6311 32.8464L14.3256 31.0565L11.0593 28.4834L9.57489 26.0591L8.29419 22.4011L10.1859 21.0029L14.3256 21.5082L17.6389 22.4951L22.2408 26.1061C22.2408 26.1061 24.6142 29.768 24.763 29.768C24.9119 29.768 25.0098 31.6009 25.0098 31.6009L23.4314 33.4299Z" fill="#070618"/>
<path d="M21.3757 36.2969L25.0376 36.1167C25.0867 36.1148 25.1331 36.0937 25.1669 36.058L27.0898 34.0998C27.1101 34.0789 27.1249 34.0533 27.1329 34.0253L27.8457 31.8909C27.8535 31.86 27.8535 31.8277 27.8457 31.7969L27.4188 29.0553C27.4138 29.0292 27.4045 29.004 27.3914 28.9809L24.4031 24.3555L24.36 24.3086L18.7751 19.8633L18.7203 19.832L14.3103 18.2654H14.2516L9.13275 18.0148C9.08284 18.0131 9.03407 18.0298 8.99568 18.0618L6.47344 20.1571C6.45364 20.173 6.43759 20.193 6.42645 20.2158L5.57268 21.7824C5.55517 21.8278 5.55517 21.878 5.57268 21.9234L6.67319 26.7211C6.67992 26.743 6.68914 26.764 6.70063 26.7838L8.76462 30.0227C8.77683 30.0414 8.79129 30.0585 8.8077 30.0736L12.7947 33.0932L17.1968 35.3178H17.2399L21.3326 36.2812L21.3757 36.2969ZM24.9554 35.729L21.3953 35.9053L17.3534 34.9536L12.9983 32.7603L9.08183 29.776L7.05699 26.5997L5.97609 21.8999L6.75939 20.4312L9.19543 18.4064L14.2124 18.6492L18.5636 20.1923L24.1172 24.5945L27.0663 29.1572L27.458 31.8086L26.7765 33.853L24.9554 35.729Z" fill="#070618"/>
<path d="M19.8087 38.6466C19.841 38.6463 19.8728 38.6384 19.9014 38.6234C19.93 38.6084 19.9546 38.5868 19.9733 38.5605L21.5398 36.2106C21.5684 36.1668 21.5786 36.1136 21.5684 36.0623C21.5581 36.0111 21.5282 35.9659 21.485 35.9364C21.4418 35.9081 21.3892 35.8979 21.3386 35.9082C21.288 35.9185 21.2435 35.9483 21.2147 35.9913L19.6482 38.3411C19.6194 38.3838 19.6087 38.4361 19.6182 38.4867C19.6278 38.5373 19.6568 38.5821 19.6991 38.6114C19.7314 38.6336 19.7695 38.6459 19.8087 38.6466Z" fill="#070618"/>
<path d="M15.7334 37.6322C15.7624 37.6322 15.7909 37.6248 15.8164 37.6106C15.8418 37.5964 15.8635 37.5758 15.8795 37.5507L17.5142 35.1734C17.5383 35.1331 17.5466 35.0847 17.5373 35.0383C17.5281 34.9918 17.5021 34.9508 17.4646 34.9237C17.4271 34.8967 17.3811 34.8856 17.336 34.8928C17.2909 34.8999 17.2502 34.9248 17.2222 34.9623L15.6159 37.3396C15.6023 37.3595 15.5925 37.382 15.5873 37.4059C15.582 37.4297 15.5814 37.4544 15.5853 37.4785C15.5893 37.5026 15.5978 37.5256 15.6104 37.5463C15.623 37.5669 15.6394 37.5848 15.6587 37.5988C15.6807 37.6159 15.7063 37.6273 15.7334 37.6322Z" fill="#070618"/>
<path d="M11.3415 35.4819C11.3737 35.4819 11.4054 35.4736 11.4335 35.4579C11.4617 35.4421 11.4852 35.4193 11.502 35.3918L13.0686 33.0419C13.0834 33.0209 13.0938 32.9972 13.0992 32.9722C13.1046 32.9471 13.1049 32.9212 13.1002 32.8961C13.0954 32.8709 13.0857 32.8469 13.0716 32.8255C13.0574 32.8042 13.0391 32.7859 13.0177 32.7717C12.9739 32.7431 12.9207 32.7329 12.8694 32.7431C12.8182 32.7534 12.773 32.7833 12.7435 32.8265L11.1769 35.1764C11.1486 35.2196 11.1385 35.2722 11.1487 35.3228C11.159 35.3734 11.1889 35.4179 11.2318 35.4466C11.2639 35.4693 11.3022 35.4816 11.3415 35.4819Z" fill="#070618"/>
<path d="M7.3586 32.4585C7.39084 32.4585 7.42256 32.4502 7.45068 32.4344C7.4788 32.4186 7.50239 32.3959 7.51919 32.3684L9.08578 30.0185C9.1145 29.9758 9.12528 29.9235 9.11576 29.8729C9.10623 29.8224 9.07716 29.7776 9.03486 29.7482C8.99108 29.7197 8.93786 29.7094 8.88661 29.7197C8.83536 29.73 8.79017 29.7599 8.76073 29.8031L7.19414 32.153C7.1658 32.1961 7.15566 32.2488 7.16593 32.2994C7.1762 32.35 7.20605 32.3945 7.24897 32.4232C7.28106 32.4459 7.3193 32.4582 7.3586 32.4585Z" fill="#070618"/>
<path d="M5.29538 29.2199C5.32778 29.2202 5.3598 29.2126 5.38851 29.1975C5.41722 29.1825 5.44174 29.1606 5.45989 29.1337L7.02648 26.7838C7.04062 26.7622 7.05037 26.738 7.05517 26.7127C7.05997 26.6873 7.05972 26.6612 7.05445 26.636C7.04918 26.6107 7.03897 26.5867 7.02442 26.5654C7.00988 26.544 6.99129 26.5258 6.96968 26.5116C6.94808 26.4975 6.92391 26.4877 6.89854 26.4829C6.87317 26.4781 6.84714 26.4784 6.82186 26.4836C6.79658 26.4889 6.77258 26.4991 6.75125 26.5137C6.72991 26.5282 6.71165 26.5468 6.69751 26.5684L5.13091 28.9183C5.10257 28.9615 5.09244 29.0141 5.10271 29.0647C5.11298 29.1153 5.14282 29.1598 5.18575 29.1885C5.21818 29.2101 5.25646 29.221 5.29538 29.2199Z" fill="#070618"/>
<path d="M13.9155 22.4492L17.6503 24.6948L19.0814 24.2672L20.2246 29.6596L14.5559 27.3486L15.3811 26.5012L13.9155 22.4492Z" fill="#99FFCC"/>
<g filter="url(#filter1_d)">
<path fill-rule="evenodd" clip-rule="evenodd" d="M37.5038 15.1027L38.0888 13.9059L38.0688 12.3931L38.0783 12.4134L38.0913 13.9912L37.5279 15.1279L37.3475 15.2684L37.3462 15.2656C37.342 15.2561 37.3365 15.2473 37.33 15.2393L37.5038 15.1027ZM33.8742 6.24702L33.8772 6.25028L33.9696 6.29832L33.999 6.32104L36.8942 9.36655L36.9155 9.39745L38.2822 12.3371C38.2879 12.3516 38.2913 12.367 38.2921 12.3827L38.3183 14.0159C38.3203 14.0345 38.3177 14.0533 38.3107 14.0707L37.7217 15.2573C37.7147 15.273 37.704 15.2867 37.6905 15.2972L36.8871 15.9157L35.4177 17.6058L33.0692 17.3701L33.0634 17.3679L33.0266 17.3642L33.0038 17.3449L30.7071 16.46L30.6821 16.4566L28.3069 14.8214L26.2363 12.7625C26.228 12.7525 26.221 12.7415 26.2154 12.7297L25.2777 10.7001C25.2727 10.6878 25.269 10.675 25.2668 10.6619L25.0129 7.81358C25.0113 7.79726 25.0132 7.78078 25.0185 7.76528C25.0198 7.76171 25.0212 7.75821 25.0228 7.75479L25.0238 7.75255L25.0216 7.72767L26.1431 6.55667L26.1338 6.44971C26.1273 6.42184 26.1314 6.39254 26.1453 6.36751L26.7703 5.52344C26.7787 5.51105 26.7896 5.50066 26.8025 5.493L28.4433 4.47619C28.4465 4.4742 28.4498 4.47236 28.4532 4.47069L28.5371 4.41748L31.4637 4.97299L33.8742 6.24702Z" fill="#99FFCC"/>
</g>
<path d="M37.3473 15.3865L37.1315 15.3799L37.1037 13.7366L35.7194 10.7737L32.7883 7.70315L30.3149 6.42034L27.3152 5.85465L26.8131 5.85741L25.0215 7.72813L25.2777 10.6394L26.2303 12.7119L28.3326 14.8155L30.7334 16.4681L33.0691 17.3705L35.4175 17.6063L37.3473 15.3865Z" fill="#99FFCC"/>
<path d="M33.0265 17.3646L35.3354 17.5967C35.3541 17.5987 35.3729 17.5963 35.3904 17.5895C35.4079 17.5827 35.4234 17.5719 35.4358 17.5579L37.3294 15.3854C37.3434 15.3692 37.3525 15.3494 37.3554 15.3282C37.3584 15.307 37.3551 15.2855 37.346 15.266C37.3373 15.2463 37.3231 15.2294 37.3052 15.2171C37.2872 15.2049 37.2663 15.1979 37.2445 15.1968L37.1453 15.1944L37.1227 13.6942C37.1219 13.6787 37.1186 13.6635 37.1128 13.6491L35.7501 10.7474L35.7289 10.7169L32.8456 7.70898L32.8163 7.68653L30.3839 6.42915L30.3498 6.4244L27.4007 5.86657L26.8841 5.86808C26.8686 5.86787 26.8531 5.8708 26.8388 5.87669C26.8244 5.88259 26.8114 5.89132 26.8006 5.90236L25.0438 7.72422C25.0324 7.73607 25.0237 7.75024 25.0184 7.76574C25.013 7.78124 25.0111 7.79772 25.0128 7.81404L25.2667 10.6623C25.2688 10.6754 25.2725 10.6883 25.2776 10.7006L26.2152 12.7302C26.2208 12.7419 26.2278 12.7529 26.2361 12.763L28.3068 14.8218L30.6819 16.457L30.7069 16.4605L33.0037 17.3454L33.0265 17.3646ZM35.3051 17.3652L33.0692 17.1409L30.801 16.267L28.4506 14.6536L26.4181 12.6207L25.4981 10.6303L25.2499 7.8402L26.9399 6.08251L27.3852 6.07796L30.2979 6.63072L32.6981 7.86984L35.5544 10.8556L36.8994 13.7182L36.9262 15.304C36.927 15.3286 36.9355 15.3523 36.9507 15.3717C36.9659 15.3912 36.9869 15.4054 37.0107 15.4122L35.3051 17.3652Z" fill="#070618"/>
<path d="M37.5032 15.1024L38.0882 13.9056L38.0665 12.2631L36.7249 9.30616L33.8736 6.24677L31.4631 4.97274L28.5366 4.41724L26.9105 5.44788L26.2911 6.29744L26.5316 9.20654L27.4547 11.2749L29.5002 13.3706L31.8384 15.0145L34.1157 15.9088L36.2385 16.0966L37.5032 15.1024Z" fill="#99FFCC"/>
<path d="M36.0087 14.4479L34.6753 14.38L32.6991 13.6331L30.9254 12.3132L29.2484 10.5306L28.5885 8.9792L28.34 6.98057L29.506 6.15984L31.711 6.67452L33.5498 7.52722L35.9246 10.0248C35.9246 10.0248 36.9973 12.3788 37.0835 12.3908C37.1696 12.4028 37.0758 13.4908 37.0758 13.4908L36.0087 14.4479Z" fill="#99FFCC"/>
<path fill-rule="evenodd" clip-rule="evenodd" d="M28.0327 6.75804C28.0409 6.74414 28.0519 6.73204 28.0651 6.72253L29.2368 5.91504C29.25 5.90529 29.2653 5.89867 29.2814 5.89567C29.2976 5.89268 29.3142 5.8934 29.33 5.89777L31.5513 6.41209L31.5741 6.41527L33.4255 7.26216L33.4618 7.28584L35.849 9.76706C35.8594 9.77531 35.8675 9.78605 35.8726 9.79829C36.2435 10.5949 36.8626 11.8823 37.0002 12.0807C37.0867 12.1114 37.1381 12.2606 37.0514 13.2844C37.0483 13.3136 37.0346 13.3407 37.0128 13.3605L36.6827 13.6525C36.6817 13.6642 36.6812 13.6705 36.6812 13.6705L35.6123 14.6087L34.2694 14.5403L32.2778 13.7973L30.4959 12.4852L28.8004 10.7196L28.1319 9.18546L27.6823 6.94859L28.0327 6.75804ZM29.0498 6.32715L29.3477 6.12138L31.508 6.62255L33.3287 7.45586L35.6901 9.90554C36.5186 11.6784 36.7767 12.1311 36.872 12.2491C36.8882 12.5701 36.8792 12.8918 36.845 13.2114L36.7053 13.3349C36.7247 13.0178 36.7408 12.5894 36.6862 12.5818C36.5994 12.5697 35.5131 10.2417 35.5131 10.2417L33.1232 7.76249L31.2715 6.91788L29.0498 6.32715ZM36.8767 12.266L36.9038 12.2884C36.8938 12.2822 36.8847 12.2747 36.8767 12.266Z" fill="#070618"/>
<path fill-rule="evenodd" clip-rule="evenodd" d="M34.2463 16.119L36.3302 16.3055C36.359 16.3084 36.3878 16.2999 36.4103 16.2818L37.6906 15.2962C37.7041 15.2857 37.7148 15.272 37.7218 15.2563L38.3108 14.0697C38.3178 14.0524 38.3205 14.0335 38.3184 14.0149L38.2922 12.3817C38.2914 12.3661 38.2881 12.3507 38.2823 12.3361L36.9157 9.3965L36.8944 9.3656L33.9991 6.32009L33.9697 6.29737L31.5257 5.02571L31.4914 5.02094L28.5272 4.45897C28.4982 4.45394 28.4684 4.45973 28.4434 4.47524L26.8026 5.49205C26.7898 5.4997 26.7788 5.5101 26.7704 5.52249L26.1454 6.36655C26.1315 6.39158 26.1274 6.42089 26.1339 6.44876L26.3813 9.28284L25.3076 10.4912C25.2875 10.5141 25.2774 10.544 25.2792 10.5743C25.2811 10.6047 25.2949 10.633 25.3176 10.6533C25.3348 10.6685 25.3562 10.6779 25.379 10.6804C25.3978 10.6833 25.4171 10.6814 25.4351 10.675C25.453 10.6685 25.4691 10.6577 25.4819 10.6436L26.4691 9.53246L27.3036 11.3572L26.2481 12.5452C26.2281 12.568 26.2179 12.5979 26.2198 12.6282C26.2217 12.6586 26.2355 12.6869 26.2581 12.7072C26.275 12.723 26.2963 12.7333 26.3192 12.7366C26.338 12.7393 26.3572 12.737 26.3748 12.7301C26.3925 12.7232 26.4081 12.7118 26.4202 12.6972L27.4417 11.5474L29.3586 13.4691L28.3257 14.6316C28.3057 14.6545 28.2955 14.6844 28.2974 14.7147C28.2992 14.745 28.313 14.7734 28.3357 14.7936C28.3526 14.8095 28.3739 14.8198 28.3968 14.8231C28.4156 14.8257 28.4348 14.8235 28.4524 14.8166C28.4701 14.8097 28.4857 14.7983 28.4977 14.7836L29.5352 13.616L31.7372 15.143L30.738 16.2536C30.7284 16.2641 30.7209 16.2764 30.7159 16.2899C30.7109 16.3033 30.7085 16.3177 30.7088 16.3321C30.7092 16.3464 30.7123 16.3606 30.718 16.3736C30.7236 16.3867 30.7317 16.3984 30.7418 16.4082C30.7533 16.4199 30.7673 16.4287 30.7827 16.4337C30.7996 16.4361 30.8168 16.4341 30.8328 16.4279C30.8488 16.4216 30.8632 16.4114 30.8745 16.3981L31.9342 15.2394L34.0059 16.0421L33.008 17.1651C32.9878 17.1877 32.9773 17.2173 32.9787 17.2475C32.9802 17.2778 32.9935 17.3063 33.0158 17.3268C33.0328 17.3424 33.054 17.3527 33.0768 17.3563C33.0957 17.3587 33.1149 17.3567 33.1327 17.3502C33.1506 17.3438 33.1668 17.3333 33.1798 17.3194L34.2463 16.119ZM29.5867 13.373L31.9027 14.9743C31.9144 14.9695 31.9269 14.9669 31.9396 14.9666C31.9665 14.9661 31.9925 14.9763 32.0121 14.9951C32.0251 15.0076 32.0346 15.0231 32.0401 15.0402L34.2237 15.8864L36.3137 16.0728L37.528 15.1269L38.0914 13.9903L38.0784 12.4125L36.7296 9.51257L33.8491 6.49472L31.4374 5.24154L28.5319 4.69242L26.9471 5.67513L26.371 6.46783L26.6195 9.2959L27.5421 11.3123L29.5831 13.3704L29.5867 13.373Z" fill="#070618"/>
<path d="M30.9562 7.43281L32.9514 9.04548L33.8205 8.91245L34.049 12.1494L30.9316 10.3415L31.4815 9.91442L30.9562 7.43281Z" fill="#99FFCC"/>
<path d="M37.3473 15.3865L37.1315 15.3799L37.1037 13.7366L35.7194 10.7737L32.7883 7.70315L30.3149 6.42034L27.3152 5.85465L26.8131 5.85741L25.0215 7.72813L25.2777 10.6394L26.2303 12.7119L28.3326 14.8155L30.7334 16.4681L33.0691 17.3705L35.4175 17.6063L37.3473 15.3865Z" fill="#99FFCC"/>
<path d="M33.0265 17.3646L35.3354 17.5967C35.3541 17.5987 35.3729 17.5963 35.3904 17.5895C35.4079 17.5827 35.4234 17.5719 35.4358 17.5579L37.3294 15.3854C37.3434 15.3692 37.3525 15.3494 37.3554 15.3282C37.3584 15.307 37.3551 15.2855 37.346 15.266C37.3373 15.2463 37.3231 15.2294 37.3052 15.2171C37.2872 15.2049 37.2663 15.1979 37.2445 15.1968L37.1453 15.1944L37.1227 13.6942C37.1219 13.6787 37.1186 13.6635 37.1128 13.6491L35.7501 10.7474L35.7289 10.7169L32.8456 7.70898L32.8163 7.68653L30.3839 6.42915L30.3498 6.4244L27.4007 5.86657L26.8841 5.86808C26.8686 5.86787 26.8531 5.8708 26.8388 5.87669C26.8244 5.88259 26.8114 5.89132 26.8006 5.90236L25.0438 7.72422C25.0324 7.73607 25.0237 7.75024 25.0184 7.76574C25.013 7.78124 25.0111 7.79772 25.0128 7.81404L25.2667 10.6623C25.2688 10.6754 25.2725 10.6883 25.2776 10.7006L26.2152 12.7302C26.2208 12.7419 26.2278 12.7529 26.2361 12.763L28.3068 14.8218L30.6819 16.457L30.7069 16.4605L33.0037 17.3454L33.0265 17.3646ZM35.3051 17.3652L33.0692 17.1409L30.801 16.267L28.4506 14.6536L26.4181 12.6207L25.4981 10.6303L25.2499 7.8402L26.9399 6.08251L27.3852 6.07796L30.2979 6.63072L32.6981 7.86984L35.5544 10.8556L36.8994 13.7182L36.9262 15.304C36.927 15.3286 36.9355 15.3523 36.9507 15.3717C36.9659 15.3912 36.9869 15.4054 37.0107 15.4122L35.3051 17.3652Z" fill="#070618"/>
<path d="M37.5032 15.1024L38.0882 13.9056L38.0665 12.2631L36.7249 9.30616L33.8736 6.24677L31.4631 4.97274L28.5366 4.41724L26.9105 5.44788L26.2911 6.29744L26.5316 9.20654L27.4547 11.2749L29.5002 13.3706L31.8384 15.0145L34.1157 15.9088L36.2385 16.0966L37.5032 15.1024Z" fill="#99FFCC"/>
<path d="M36.0087 14.4479L34.6753 14.38L32.6991 13.6331L30.9254 12.3132L29.2484 10.5306L28.5885 8.9792L28.34 6.98057L29.506 6.15984L31.711 6.67452L33.5498 7.52722L35.9246 10.0248C35.9246 10.0248 36.9973 12.3788 37.0835 12.3908C37.1696 12.4028 37.0758 13.4908 37.0758 13.4908L36.0087 14.4479Z" fill="#99FFCC"/>
<path d="M34.5248 14.2593L35.8678 14.3277C35.8981 14.3294 35.9278 14.3193 35.9508 14.2997L37.0128 13.3605C37.0346 13.3407 37.0483 13.3136 37.0514 13.2844C37.1381 12.2606 37.0867 12.1114 37.0002 12.0807C36.8626 11.8823 36.2435 10.5949 35.8726 9.79829C35.8675 9.78605 35.8594 9.77531 35.849 9.76706L33.4618 7.28584L33.4255 7.26216L31.5741 6.41527L31.5513 6.41209L29.33 5.89777C29.3142 5.8934 29.2976 5.89268 29.2814 5.89567C29.2653 5.89867 29.25 5.90529 29.2368 5.91504L28.0651 6.72253C28.048 6.73485 28.0346 6.75154 28.0262 6.77084C28.0177 6.79014 28.0147 6.81135 28.0172 6.83225L28.2898 8.80236L28.2994 8.83396L28.9679 10.3681C28.9734 10.3812 28.9812 10.3933 28.9909 10.4038L30.685 12.1623L32.4888 13.4844L32.5169 13.5L34.5085 14.243L34.5248 14.2593ZM35.8416 14.0982L34.5635 14.0319L32.6107 13.2942L30.8364 11.9948L29.1716 10.2591L28.5173 8.75723L28.2762 6.86135L29.3477 6.12138L31.508 6.62255L33.3287 7.45586L35.6901 9.90554C36.5186 11.6784 36.7767 12.1311 36.872 12.2491C36.8882 12.5701 36.8792 12.8918 36.845 13.2114L35.8416 14.0982ZM36.8767 12.266L36.9038 12.2884C36.8938 12.2822 36.8847 12.2747 36.8767 12.266Z" fill="#070618"/>
<path d="M35.6113 14.6087L34.2683 14.5403L32.2767 13.7973L30.4948 12.4852L28.7993 10.7196L28.1308 9.18545L27.6812 6.94858L28.8978 6.28702L31.2704 6.91788L33.1221 7.76249L35.512 10.2417C35.512 10.2417 36.5984 12.5697 36.6851 12.5818C36.7719 12.5938 36.6801 13.6705 36.6801 13.6705L35.6113 14.6087Z" fill="#070618"/>
<path d="M34.1804 16.1131L36.3302 16.3055C36.359 16.3084 36.3878 16.2999 36.4103 16.2818L37.6906 15.2962C37.7041 15.2857 37.7148 15.272 37.7218 15.2563L38.3108 14.0697C38.3178 14.0524 38.3205 14.0335 38.3184 14.0149L38.2922 12.3817C38.2914 12.3661 38.2881 12.3507 38.2823 12.3361L36.9157 9.3965L36.8944 9.3656L33.9991 6.32009L33.9697 6.29737L31.5257 5.02571L31.4914 5.02094L28.5272 4.45897C28.4982 4.45394 28.4684 4.45973 28.4434 4.47524L26.8026 5.49205C26.7898 5.4997 26.7788 5.5101 26.7704 5.52249L26.1454 6.36655C26.1315 6.39158 26.1274 6.42089 26.1339 6.44876L26.3859 9.33551C26.388 9.3488 26.3917 9.36181 26.3968 9.37427L27.3371 11.4304C27.3427 11.4423 27.3497 11.4535 27.3581 11.4636L29.4374 13.5481L31.8234 15.2028L31.8485 15.2063L34.1566 16.1005L34.1804 16.1131ZM36.3137 16.0728L34.2237 15.8864L31.9444 15.0031L29.5832 13.3706L27.5421 11.3123L26.6195 9.2959L26.371 6.46783L26.9471 5.67513L28.5319 4.69242L31.4374 5.24154L33.8491 6.49472L36.7296 9.51257L38.0784 12.4125L38.0914 13.9903L37.528 15.1269L36.3137 16.0728Z" fill="#070618"/>
<path d="M33.0752 17.3561C33.094 17.3585 33.1132 17.3565 33.1311 17.3501C33.149 17.3436 33.1651 17.3331 33.1781 17.3192L34.2824 16.0763C34.3026 16.0531 34.3129 16.0229 34.3111 15.9922C34.3093 15.9615 34.2955 15.9327 34.2727 15.912C34.2498 15.892 34.2199 15.8818 34.1896 15.8837C34.1592 15.8856 34.1309 15.8994 34.1107 15.922L33.0063 17.1649C32.9861 17.1875 32.9756 17.2171 32.9771 17.2474C32.9785 17.2776 32.9918 17.3061 33.0141 17.3266C33.0311 17.3422 33.0523 17.3525 33.0752 17.3561Z" fill="#070618"/>
<path d="M30.782 16.4341C30.7988 16.4365 30.816 16.4345 30.8321 16.4282C30.8481 16.422 30.8624 16.4118 30.8737 16.3984L32.02 15.1451C32.0373 15.1236 32.0461 15.096 32.0444 15.0682C32.0428 15.0404 32.031 15.0144 32.0113 14.9955C31.9917 14.9767 31.9658 14.9665 31.9389 14.967C31.912 14.9675 31.8862 14.9787 31.8669 14.9983L30.7372 16.254C30.7276 16.2645 30.7201 16.2768 30.7151 16.2903C30.7101 16.3037 30.7077 16.3181 30.7081 16.3324C30.7084 16.3468 30.7115 16.3609 30.7172 16.374C30.7229 16.3871 30.731 16.3988 30.7411 16.4086C30.7525 16.4203 30.7666 16.4291 30.782 16.4341Z" fill="#070618"/>
<path d="M28.3963 14.8232C28.4151 14.8258 28.4343 14.8236 28.4519 14.8166C28.4696 14.8097 28.4852 14.7984 28.4972 14.7837L29.6016 13.5408C29.6119 13.5298 29.6198 13.5168 29.625 13.5026C29.6302 13.4885 29.6325 13.4734 29.6318 13.4583C29.6311 13.4433 29.6274 13.4285 29.6208 13.4149C29.6143 13.4013 29.6051 13.3891 29.5938 13.3791C29.5706 13.3589 29.5404 13.3486 29.5097 13.3504C29.479 13.3522 29.4502 13.366 29.4295 13.3888L28.3252 14.6317C28.3052 14.6546 28.295 14.6844 28.2969 14.7148C28.2987 14.7451 28.3125 14.7735 28.3352 14.7937C28.3521 14.8096 28.3734 14.8198 28.3963 14.8232Z" fill="#070618"/>
<path d="M26.3191 12.7364C26.3379 12.739 26.357 12.7368 26.3747 12.7298C26.3924 12.7229 26.408 12.7116 26.42 12.6969L27.5243 11.454C27.5445 11.4315 27.5551 11.4019 27.5536 11.3716C27.5522 11.3413 27.5389 11.3129 27.5166 11.2923C27.4934 11.2721 27.4632 11.2618 27.4325 11.2636C27.4017 11.2655 27.373 11.2792 27.3523 11.302L26.248 12.5449C26.228 12.5678 26.2178 12.5976 26.2196 12.628C26.2215 12.6583 26.2353 12.6867 26.258 12.7069C26.2749 12.7228 26.2962 12.733 26.3191 12.7364Z" fill="#070618"/>
<path d="M25.3782 10.6811C25.3971 10.684 25.4164 10.6821 25.4344 10.6757C25.4523 10.6692 25.4684 10.6584 25.4812 10.6443L26.5855 9.40139C26.5955 9.38994 26.6031 9.37664 26.608 9.36224C26.6128 9.34784 26.6148 9.33262 26.6138 9.31745C26.6128 9.30229 26.6088 9.28747 26.602 9.27385C26.5953 9.26023 26.5859 9.24807 26.5745 9.23807C26.563 9.22807 26.5497 9.22042 26.5353 9.21556C26.5209 9.2107 26.5057 9.20873 26.4905 9.20975C26.4754 9.21077 26.4605 9.21477 26.4469 9.22151C26.4333 9.22826 26.4212 9.23763 26.4111 9.24907L25.3068 10.4919C25.2868 10.5148 25.2766 10.5447 25.2785 10.575C25.2804 10.6054 25.2942 10.6337 25.3169 10.654C25.334 10.6692 25.3555 10.6787 25.3782 10.6811Z" fill="#070618"/>
<path d="M30.9562 7.43281L32.9514 9.04548L33.8205 8.91245L34.049 12.1494L30.9316 10.3415L31.4815 9.91442L30.9562 7.43281Z" fill="#99FFCC"/>
<g filter="url(#filter2_d)">
<path fill-rule="evenodd" clip-rule="evenodd" d="M47.2463 37.5948L47.2589 37.5494C47.2656 37.5241 47.2669 37.4977 47.2625 37.4719C47.258 37.4461 47.2481 37.4215 47.2334 37.3999L46.2854 35.9925L46.2526 35.956L44.4295 34.4283C44.4118 34.4123 44.3911 34.4001 44.3685 34.3926C44.3459 34.385 44.3219 34.3823 44.2982 34.3845L40.0979 34.72H40.0578L36.7106 35.8138C36.6894 35.8212 36.6696 35.8323 36.6523 35.8466L32.1128 39.4746C32.0959 39.4854 32.0821 39.5005 32.0727 39.5183L29.71 43.1645C29.6968 43.1842 29.6882 43.2066 29.6845 43.2301L29.2871 45.4469C29.2798 45.4744 29.2798 45.5033 29.2871 45.5308L29.8121 47.2445C29.8223 47.2788 29.8427 47.3093 29.8705 47.332L29.8967 47.3538L31.2704 49.2136C31.2782 49.2251 31.2881 49.235 31.2996 49.2427L32.9805 50.6757C33.0087 50.699 33.0427 50.7141 33.0789 50.7194L35.8208 51.0002L35.839 50.9819H35.8791L39.2336 50.2163H39.2774L42.7922 48.3932L45.9717 45.9977C45.9893 45.9825 46.0052 45.9653 46.0191 45.9466L47.5905 43.3834C47.6 43.3674 47.6074 43.3502 47.6124 43.3323L48.4911 39.668C48.4969 39.6444 48.4977 39.6198 48.4933 39.5959C48.4889 39.5721 48.4794 39.5494 48.4656 39.5294L47.2463 37.5948Z" fill="#99FFCC"/>
</g>
<path d="M30.0657 47.1795L31.4876 49.1046L33.1831 50.5193L35.925 50.8001L39.2794 50.0344L42.7943 48.2113L45.9482 45.8304L47.5197 43.2562L48.3984 39.6101L46.2108 36.1426" fill="#99FFCC"/>
<path d="M35.925 50.9823H35.9651L39.3195 50.2166H39.3633L42.8781 48.3936L46.0576 45.998C46.0753 45.9828 46.0912 45.9657 46.105 45.947L47.6765 43.3838C47.6859 43.3678 47.6933 43.3506 47.6984 43.3327L48.5771 39.6683C48.5829 39.6447 48.5836 39.6202 48.5792 39.5963C48.5748 39.5724 48.5654 39.5497 48.5516 39.5298L46.3639 36.0587C46.3512 36.0383 46.3346 36.0206 46.3151 36.0067C46.2956 35.9928 46.2735 35.9828 46.2502 35.9774C46.2268 35.972 46.2026 35.9712 46.1789 35.9751C46.1553 35.9791 46.1326 35.9876 46.1123 36.0003C46.0919 36.013 46.0743 36.0296 46.0603 36.0491C46.0464 36.0686 46.0364 36.0907 46.031 36.114C46.0256 36.1374 46.0248 36.1616 46.0288 36.1852C46.0327 36.2089 46.0413 36.2315 46.054 36.2519L48.1942 39.6574L47.3629 43.2014L45.8242 45.7209L42.6995 48.08L39.232 49.8629L35.9286 50.6141L33.2742 50.3442L31.6371 48.9769L30.226 47.07C30.1965 47.0321 30.1534 47.0072 30.1058 47.0004C30.0582 46.9936 30.0098 47.0055 29.9708 47.0335C29.9517 47.0479 29.9355 47.0659 29.9233 47.0865C29.9111 47.1071 29.9031 47.1299 29.8997 47.1536C29.8963 47.1773 29.8976 47.2014 29.9036 47.2246C29.9095 47.2478 29.92 47.2696 29.9343 47.2888L31.3563 49.2139C31.3641 49.2254 31.374 49.2353 31.3855 49.2431L33.0664 50.676C33.0946 50.6993 33.1287 50.7145 33.1648 50.7198L35.9067 51.0005L35.925 50.9823Z" fill="#070618"/>
<path d="M30.0659 47.1786L31.7686 48.5933L34.5105 48.8741L37.8577 48.123L41.3725 46.2999L44.5265 43.919L46.098 41.3448L47.1699 37.4908L46.2219 36.0834L44.3989 34.5557L40.1985 34.8911L36.8514 35.985L32.3119 39.6129L29.9492 43.259L29.5518 45.4722L30.0659 47.1786Z" fill="#99FFCC"/>
<path d="M34.511 49.0566H34.5511L37.8983 48.2909H37.942L41.4533 46.4679L44.6364 44.0687C44.6555 44.0562 44.6707 44.0385 44.6801 44.0177L46.2516 41.4654C46.2618 41.4511 46.2692 41.435 46.2735 41.418L47.3454 37.5494C47.3521 37.5241 47.3534 37.4977 47.349 37.4719C47.3446 37.4461 47.3346 37.4215 47.3199 37.3999L46.3719 35.9925L46.3391 35.956L44.516 34.4283C44.4984 34.4123 44.4776 34.4001 44.455 34.3926C44.4324 34.385 44.4085 34.3823 44.3847 34.3845L40.1844 34.72H40.1443L36.7971 35.8138C36.7759 35.8212 36.7561 35.8323 36.7388 35.8466L32.1994 39.4746C32.1824 39.4854 32.1686 39.5005 32.1593 39.5183L29.7965 43.1645C29.7834 43.1842 29.7747 43.2066 29.771 43.2301L29.3736 45.4469C29.3663 45.4744 29.3663 45.5033 29.3736 45.5308L29.8986 47.2445C29.9089 47.2788 29.9292 47.3093 29.957 47.332L31.6597 48.7467C31.6883 48.7688 31.7223 48.7827 31.7582 48.7868L34.5001 49.0676L34.511 49.0566ZM37.7925 47.9373L34.511 48.692L31.8566 48.4185L30.2341 47.0731L29.7382 45.4542L30.1028 43.3212L32.4145 39.7371L36.9065 36.1493L40.188 35.0846L44.2936 34.7601L46.0511 36.2186L46.937 37.5348L45.8979 41.283L44.3556 43.8062L41.2309 46.1652L37.7925 47.9373Z" fill="#070618"/>
<path d="M35.9249 50.7813L34.5102 48.8562L37.85 48.127L39.2793 50.0157L35.9249 50.7813Z" fill="#99FFCC"/>
<path d="M35.9243 50.9633H35.9644L39.3188 50.1976C39.3485 50.1915 39.3761 50.1779 39.399 50.1581C39.422 50.1383 39.4396 50.113 39.4501 50.0846C39.4604 50.0556 39.4634 50.0244 39.4589 49.9939C39.4545 49.9634 39.4427 49.9345 39.4245 49.9096L37.9916 48.0209C37.9711 47.9932 37.9428 47.9722 37.9104 47.9605C37.8779 47.9489 37.8428 47.947 37.8093 47.9553L34.4694 48.6845C34.4398 48.6906 34.4122 48.7043 34.3892 48.724C34.3662 48.7438 34.3487 48.7691 34.3382 48.7975C34.3279 48.826 34.3248 48.8565 34.3293 48.8864C34.3337 48.9163 34.3456 48.9447 34.3637 48.9689L35.7784 50.894C35.7954 50.9165 35.8175 50.9345 35.8428 50.9465C35.8682 50.9586 35.8962 50.9643 35.9243 50.9633ZM38.9761 49.9023L36.0118 50.5768L34.8341 48.9762L37.7838 48.3308L38.9761 49.9023Z" fill="#070618"/>
<path d="M42.7686 48.226L41.343 46.3118L44.5078 43.9199L45.9043 45.8451L42.7686 48.226Z" fill="#99FFCC"/>
<path d="M42.7687 48.4081C42.808 48.4071 42.8461 48.3944 42.8781 48.3716L46.032 45.9907C46.0699 45.9611 46.0949 45.918 46.1016 45.8704C46.1084 45.8228 46.0965 45.7744 46.0684 45.7354L44.6537 43.8139C44.6395 43.7944 44.6216 43.7779 44.6009 43.7654C44.5803 43.7529 44.5573 43.7446 44.5334 43.741C44.5099 43.7368 44.4858 43.7375 44.4625 43.7431C44.4393 43.7488 44.4175 43.7592 44.3985 43.7738L41.2337 46.1657C41.2145 46.1801 41.1984 46.198 41.1862 46.2187C41.174 46.2393 41.166 46.2621 41.1626 46.2858C41.1592 46.3095 41.1605 46.3336 41.1664 46.3568C41.1724 46.38 41.1828 46.4018 41.1972 46.4209L42.6229 48.3351C42.6366 48.3548 42.6545 48.3712 42.6753 48.3831C42.6961 48.3951 42.7193 48.4024 42.7432 48.4044L42.7687 48.4081ZM45.6674 45.8084L42.8052 47.9705L41.5983 46.348L44.4714 44.1785L45.6674 45.8084Z" fill="#070618"/>
<path d="M37.189 46.2668L34.3852 46.9086L32.5621 46.7153L31.7526 46.0371L31.5156 45.3079L31.7526 43.9552L33.7325 40.907L37.7432 37.6911L40.5252 36.8197L43.7047 36.5645L44.7183 37.4432L45.0137 37.8734L44.2589 40.608L43.0228 42.6535L40.2882 44.7172L37.189 46.2668Z" fill="#070618"/>
<path d="M47.1217 43.7922C47.1535 43.7922 47.1847 43.7819 47.2118 43.7623C47.2388 43.7427 47.2607 43.7147 47.2749 43.6813C47.2891 43.648 47.2951 43.6107 47.2923 43.5736C47.2894 43.5365 47.2778 43.5011 47.2587 43.4712L45.9231 41.3567C45.8958 41.3144 45.8555 41.2861 45.8108 41.2779C45.766 41.2696 45.7203 41.2821 45.6833 41.3125C45.6653 41.3284 45.6501 41.3482 45.6387 41.3708C45.6272 41.3935 45.6197 41.4186 45.6165 41.4447C45.6133 41.4708 45.6146 41.4973 45.6202 41.5228C45.6257 41.5484 45.6356 41.5723 45.649 41.5934L46.9745 43.716C46.992 43.7416 47.0145 43.7619 47.0401 43.7752C47.0658 43.7885 47.0938 43.7943 47.1217 43.7922Z" fill="#070618"/>
<path d="M41.4199 37.9199L40.2555 41.4055L40.9345 42.4129L36.3854 44.6326L37.1866 39.5956L38.1372 40.0825L41.4199 37.9199Z" fill="#99FFCC"/>
<path d="M30.0657 47.1795L31.4876 49.1046L33.1831 50.5193L35.925 50.8001L39.2794 50.0344L42.7943 48.2113L45.9482 45.8304L47.5197 43.2562L48.3984 39.6101L46.2108 36.1426" fill="#99FFCC"/>
<path d="M35.925 50.9823H35.9651L39.3195 50.2166H39.3633L42.8781 48.3936L46.0576 45.998C46.0753 45.9828 46.0912 45.9657 46.105 45.947L47.6765 43.3838C47.6859 43.3678 47.6933 43.3506 47.6984 43.3327L48.5771 39.6683C48.5829 39.6447 48.5836 39.6202 48.5792 39.5963C48.5748 39.5724 48.5654 39.5497 48.5516 39.5298L46.3639 36.0587C46.3512 36.0383 46.3346 36.0206 46.3151 36.0067C46.2956 35.9928 46.2735 35.9828 46.2502 35.9774C46.2268 35.972 46.2026 35.9712 46.1789 35.9751C46.1553 35.9791 46.1326 35.9876 46.1123 36.0003C46.0919 36.013 46.0743 36.0296 46.0603 36.0491C46.0464 36.0686 46.0364 36.0907 46.031 36.114C46.0256 36.1374 46.0248 36.1616 46.0288 36.1852C46.0327 36.2089 46.0413 36.2315 46.054 36.2519L48.1942 39.6574L47.3629 43.2014L45.8242 45.7209L42.6995 48.08L39.232 49.8629L35.9286 50.6141L33.2742 50.3442L31.6371 48.9769L30.226 47.07C30.1965 47.0321 30.1534 47.0072 30.1058 47.0004C30.0582 46.9936 30.0098 47.0055 29.9708 47.0335C29.9517 47.0479 29.9355 47.0659 29.9233 47.0865C29.9111 47.1071 29.9031 47.1299 29.8997 47.1536C29.8963 47.1773 29.8976 47.2014 29.9036 47.2246C29.9095 47.2478 29.92 47.2696 29.9343 47.2888L31.3563 49.2139C31.3641 49.2254 31.374 49.2353 31.3855 49.2431L33.0664 50.676C33.0946 50.6993 33.1287 50.7145 33.1648 50.7198L35.9067 51.0005L35.925 50.9823Z" fill="#070618"/>
<path d="M30.0659 47.1786L31.7686 48.5933L34.5105 48.8741L37.8577 48.123L41.3725 46.2999L44.5265 43.919L46.098 41.3448L47.1699 37.4908L46.2219 36.0834L44.3989 34.5557L40.1985 34.8911L36.8514 35.985L32.3119 39.6129L29.9492 43.259L29.5518 45.4722L30.0659 47.1786Z" fill="#99FFCC"/>
<path d="M34.511 49.0566H34.5511L37.8983 48.2909H37.942L41.4533 46.4679L44.6364 44.0687C44.6555 44.0562 44.6707 44.0385 44.6801 44.0177L46.2516 41.4654C46.2618 41.4511 46.2692 41.435 46.2735 41.418L47.3454 37.5494C47.3521 37.5241 47.3534 37.4977 47.349 37.4719C47.3446 37.4461 47.3346 37.4215 47.3199 37.3999L46.3719 35.9925L46.3391 35.956L44.516 34.4283C44.4984 34.4123 44.4776 34.4001 44.455 34.3926C44.4324 34.385 44.4085 34.3823 44.3847 34.3845L40.1844 34.72H40.1443L36.7971 35.8138C36.7759 35.8212 36.7561 35.8323 36.7388 35.8466L32.1994 39.4746C32.1824 39.4854 32.1686 39.5005 32.1593 39.5183L29.7965 43.1645C29.7834 43.1842 29.7747 43.2066 29.771 43.2301L29.3736 45.4469C29.3663 45.4744 29.3663 45.5033 29.3736 45.5308L29.8986 47.2445C29.9089 47.2788 29.9292 47.3093 29.957 47.332L31.6597 48.7467C31.6883 48.7688 31.7223 48.7827 31.7582 48.7868L34.5001 49.0676L34.511 49.0566ZM37.7925 47.9373L34.511 48.692L31.8566 48.4185L30.2341 47.0731L29.7382 45.4542L30.1028 43.3212L32.4145 39.7371L36.9065 36.1493L40.188 35.0846L44.2936 34.7601L46.0511 36.2186L46.937 37.5348L45.8979 41.283L44.3556 43.8062L41.2309 46.1652L37.7925 47.9373Z" fill="#070618"/>
<path d="M35.9249 50.7813L34.5102 48.8562L37.85 48.127L39.2793 50.0157L35.9249 50.7813Z" fill="#99FFCC"/>
<path d="M35.9243 50.9633H35.9644L39.3188 50.1976C39.3485 50.1915 39.3761 50.1779 39.399 50.1581C39.422 50.1383 39.4396 50.113 39.4501 50.0846C39.4604 50.0556 39.4634 50.0244 39.4589 49.9939C39.4545 49.9634 39.4427 49.9345 39.4245 49.9096L37.9916 48.0209C37.9711 47.9932 37.9428 47.9722 37.9104 47.9605C37.8779 47.9489 37.8428 47.947 37.8093 47.9553L34.4694 48.6845C34.4398 48.6906 34.4122 48.7043 34.3892 48.724C34.3662 48.7438 34.3487 48.7691 34.3382 48.7975C34.3279 48.826 34.3248 48.8565 34.3293 48.8864C34.3337 48.9163 34.3456 48.9447 34.3637 48.9689L35.7784 50.894C35.7954 50.9165 35.8175 50.9345 35.8428 50.9465C35.8682 50.9586 35.8962 50.9643 35.9243 50.9633ZM38.9761 49.9023L36.0118 50.5768L34.8341 48.9762L37.7838 48.3308L38.9761 49.9023Z" fill="#070618"/>
<path d="M42.7686 48.226L41.343 46.3118L44.5078 43.9199L45.9043 45.8451L42.7686 48.226Z" fill="#99FFCC"/>
<path d="M42.7687 48.4081C42.808 48.4071 42.8461 48.3944 42.8781 48.3716L46.032 45.9907C46.0699 45.9611 46.0949 45.918 46.1016 45.8704C46.1084 45.8228 46.0965 45.7744 46.0684 45.7354L44.6537 43.8139C44.6395 43.7944 44.6216 43.7779 44.6009 43.7654C44.5803 43.7529 44.5573 43.7446 44.5334 43.741C44.5099 43.7368 44.4858 43.7375 44.4625 43.7431C44.4393 43.7488 44.4175 43.7592 44.3985 43.7738L41.2337 46.1657C41.2145 46.1801 41.1984 46.198 41.1862 46.2187C41.174 46.2393 41.166 46.2621 41.1626 46.2858C41.1592 46.3095 41.1605 46.3336 41.1664 46.3568C41.1724 46.38 41.1828 46.4018 41.1972 46.4209L42.6229 48.3351C42.6366 48.3548 42.6545 48.3712 42.6753 48.3831C42.6961 48.3951 42.7193 48.4024 42.7432 48.4044L42.7687 48.4081ZM45.6674 45.8084L42.8052 47.9705L41.5983 46.348L44.4714 44.1785L45.6674 45.8084Z" fill="#070618"/>
<path d="M37.189 46.2668L34.3852 46.9086L32.5621 46.7153L31.7526 46.0371L31.5156 45.3079L31.7526 43.9552L33.7325 40.907L37.7432 37.6911L40.5252 36.8197L43.7047 36.5645L44.7183 37.4432L45.0137 37.8734L44.2589 40.608L43.0228 42.6535L40.2882 44.7172L37.189 46.2668Z" fill="#070618"/>
<path d="M47.1217 43.7922C47.1535 43.7922 47.1847 43.7819 47.2118 43.7623C47.2388 43.7427 47.2607 43.7147 47.2749 43.6813C47.2891 43.648 47.2951 43.6107 47.2923 43.5736C47.2894 43.5365 47.2778 43.5011 47.2587 43.4712L45.9231 41.3567C45.8958 41.3144 45.8555 41.2861 45.8108 41.2779C45.766 41.2696 45.7203 41.2821 45.6833 41.3125C45.6653 41.3284 45.6501 41.3482 45.6387 41.3708C45.6272 41.3935 45.6197 41.4186 45.6165 41.4447C45.6133 41.4708 45.6146 41.4973 45.6202 41.5228C45.6257 41.5484 45.6356 41.5723 45.649 41.5934L46.9745 43.716C46.992 43.7416 47.0145 43.7619 47.0401 43.7752C47.0658 43.7885 47.0938 43.7943 47.1217 43.7922Z" fill="#070618"/>
<path d="M41.4199 37.9199L40.2555 41.4055L40.9345 42.4129L36.3854 44.6326L37.1866 39.5956L38.1372 40.0825L41.4199 37.9199Z" fill="#99FFCC"/>
<path d="M30.0657 47.1795L31.4876 49.1046L33.1831 50.5193L35.925 50.8001L39.2794 50.0344L42.7943 48.2113L45.9482 45.8304L47.5197 43.2562L48.3984 39.6101L46.2108 36.1426" fill="#99FFCC"/>
<path d="M35.925 50.9823H35.9651L39.3195 50.2166H39.3633L42.8781 48.3936L46.0576 45.998C46.0753 45.9828 46.0912 45.9657 46.105 45.947L47.6765 43.3838C47.6859 43.3678 47.6933 43.3506 47.6984 43.3327L48.5771 39.6683C48.5829 39.6447 48.5836 39.6202 48.5792 39.5963C48.5748 39.5724 48.5654 39.5497 48.5516 39.5298L46.3639 36.0587C46.3512 36.0383 46.3346 36.0206 46.3151 36.0067C46.2956 35.9928 46.2735 35.9828 46.2502 35.9774C46.2268 35.972 46.2026 35.9712 46.1789 35.9751C46.1553 35.9791 46.1326 35.9876 46.1123 36.0003C46.0919 36.013 46.0743 36.0296 46.0603 36.0491C46.0464 36.0686 46.0364 36.0907 46.031 36.114C46.0256 36.1374 46.0248 36.1616 46.0288 36.1852C46.0327 36.2089 46.0413 36.2315 46.054 36.2519L48.1942 39.6574L47.3629 43.2014L45.8242 45.7209L42.6995 48.08L39.232 49.8629L35.9286 50.6141L33.2742 50.3442L31.6371 48.9769L30.226 47.07C30.1965 47.0321 30.1534 47.0072 30.1058 47.0004C30.0582 46.9936 30.0098 47.0055 29.9708 47.0335C29.9517 47.0479 29.9355 47.0659 29.9233 47.0865C29.9111 47.1071 29.9031 47.1299 29.8997 47.1536C29.8963 47.1773 29.8976 47.2014 29.9036 47.2246C29.9095 47.2478 29.92 47.2696 29.9343 47.2888L31.3563 49.2139C31.3641 49.2254 31.374 49.2353 31.3855 49.2431L33.0664 50.676C33.0946 50.6993 33.1287 50.7145 33.1648 50.7198L35.9067 51.0005L35.925 50.9823Z" fill="#070618"/>
<path d="M30.0659 47.1786L31.7686 48.5933L34.5105 48.8741L37.8577 48.123L41.3725 46.2999L44.5265 43.919L46.098 41.3448L47.1699 37.4908L46.2219 36.0834L44.3989 34.5557L40.1985 34.8911L36.8514 35.985L32.3119 39.6129L29.9492 43.259L29.5518 45.4722L30.0659 47.1786Z" fill="#99FFCC"/>
<path d="M34.511 49.0566H34.5511L37.8983 48.2909H37.942L41.4533 46.4679L44.6364 44.0687C44.6555 44.0562 44.6707 44.0385 44.6801 44.0177L46.2516 41.4654C46.2618 41.4511 46.2692 41.435 46.2735 41.418L47.3454 37.5494C47.3521 37.5241 47.3534 37.4977 47.349 37.4719C47.3446 37.4461 47.3346 37.4215 47.3199 37.3999L46.3719 35.9925L46.3391 35.956L44.516 34.4283C44.4984 34.4123 44.4776 34.4001 44.455 34.3926C44.4324 34.385 44.4085 34.3823 44.3847 34.3845L40.1844 34.72H40.1443L36.7971 35.8138C36.7759 35.8212 36.7561 35.8323 36.7388 35.8466L32.1994 39.4746C32.1824 39.4854 32.1686 39.5005 32.1593 39.5183L29.7965 43.1645C29.7834 43.1842 29.7747 43.2066 29.771 43.2301L29.3736 45.4469C29.3663 45.4744 29.3663 45.5033 29.3736 45.5308L29.8986 47.2445C29.9089 47.2788 29.9292 47.3093 29.957 47.332L31.6597 48.7467C31.6883 48.7688 31.7223 48.7827 31.7582 48.7868L34.5001 49.0676L34.511 49.0566ZM37.7925 47.9373L34.511 48.692L31.8566 48.4185L30.2341 47.0731L29.7382 45.4542L30.1028 43.3212L32.4145 39.7371L36.9065 36.1493L40.188 35.0846L44.2936 34.7601L46.0511 36.2186L46.937 37.5348L45.8979 41.283L44.3556 43.8062L41.2309 46.1652L37.7925 47.9373Z" fill="#070618"/>
<path d="M35.9249 50.7813L34.5102 48.8562L37.85 48.127L39.2793 50.0157L35.9249 50.7813Z" fill="#99FFCC"/>
<path d="M35.9243 50.9633H35.9644L39.3188 50.1976C39.3485 50.1915 39.3761 50.1779 39.399 50.1581C39.422 50.1383 39.4396 50.113 39.4501 50.0846C39.4604 50.0556 39.4634 50.0244 39.4589 49.9939C39.4545 49.9634 39.4427 49.9345 39.4245 49.9096L37.9916 48.0209C37.9711 47.9932 37.9428 47.9722 37.9104 47.9605C37.8779 47.9489 37.8428 47.947 37.8093 47.9553L34.4694 48.6845C34.4398 48.6906 34.4122 48.7043 34.3892 48.724C34.3662 48.7438 34.3487 48.7691 34.3382 48.7975C34.3279 48.826 34.3248 48.8565 34.3293 48.8864C34.3337 48.9163 34.3456 48.9447 34.3637 48.9689L35.7784 50.894C35.7954 50.9165 35.8175 50.9345 35.8428 50.9465C35.8682 50.9586 35.8962 50.9643 35.9243 50.9633ZM38.9761 49.9023L36.0118 50.5768L34.8341 48.9762L37.7838 48.3308L38.9761 49.9023Z" fill="#070618"/>
<path d="M42.7686 48.226L41.343 46.3118L44.5078 43.9199L45.9043 45.8451L42.7686 48.226Z" fill="#99FFCC"/>
<path d="M42.7687 48.4081C42.808 48.4071 42.8461 48.3944 42.8781 48.3716L46.032 45.9907C46.0699 45.9611 46.0949 45.918 46.1016 45.8704C46.1084 45.8228 46.0965 45.7744 46.0684 45.7354L44.6537 43.8139C44.6395 43.7944 44.6216 43.7779 44.6009 43.7654C44.5803 43.7529 44.5573 43.7446 44.5334 43.741C44.5099 43.7368 44.4858 43.7375 44.4625 43.7431C44.4393 43.7488 44.4175 43.7592 44.3985 43.7738L41.2337 46.1657C41.2145 46.1801 41.1984 46.198 41.1862 46.2187C41.174 46.2393 41.166 46.2621 41.1626 46.2858C41.1592 46.3095 41.1605 46.3336 41.1664 46.3568C41.1724 46.38 41.1828 46.4018 41.1972 46.4209L42.6229 48.3351C42.6366 48.3548 42.6545 48.3712 42.6753 48.3831C42.6961 48.3951 42.7193 48.4024 42.7432 48.4044L42.7687 48.4081ZM45.6674 45.8084L42.8052 47.9705L41.5983 46.348L44.4714 44.1785L45.6674 45.8084Z" fill="#070618"/>
<path d="M37.189 46.2668L34.3852 46.9086L32.5621 46.7153L31.7526 46.0371L31.5156 45.3079L31.7526 43.9552L33.7325 40.907L37.7432 37.6911L40.5252 36.8197L43.7047 36.5645L44.7183 37.4432L45.0137 37.8734L44.2589 40.608L43.0228 42.6535L40.2882 44.7172L37.189 46.2668Z" fill="#070618"/>
<path d="M47.1217 43.7922C47.1535 43.7922 47.1847 43.7819 47.2118 43.7623C47.2388 43.7427 47.2607 43.7147 47.2749 43.6813C47.2891 43.648 47.2951 43.6107 47.2923 43.5736C47.2894 43.5365 47.2778 43.5011 47.2587 43.4712L45.9231 41.3567C45.8958 41.3144 45.8555 41.2861 45.8108 41.2779C45.766 41.2696 45.7203 41.2821 45.6833 41.3125C45.6653 41.3284 45.6501 41.3482 45.6387 41.3708C45.6272 41.3935 45.6197 41.4186 45.6165 41.4447C45.6133 41.4708 45.6146 41.4973 45.6202 41.5228C45.6257 41.5484 45.6356 41.5723 45.649 41.5934L46.9745 43.716C46.992 43.7416 47.0145 43.7619 47.0401 43.7752C47.0658 43.7885 47.0938 43.7943 47.1217 43.7922Z" fill="#070618"/>
<path d="M41.4199 37.9199L40.2555 41.4055L40.9345 42.4129L36.3854 44.6326L37.1866 39.5956L38.1372 40.0825L41.4199 37.9199Z" fill="#99FFCC"/>
<path d="M35.925 50.9823H35.9651L39.3195 50.2166H39.3633L42.8781 48.3936L46.0576 45.998C46.0753 45.9828 46.0912 45.9657 46.105 45.947L47.6765 43.3838C47.6859 43.3678 47.6933 43.3506 47.6984 43.3327L48.5771 39.6683C48.5829 39.6447 48.5836 39.6202 48.5792 39.5963C48.5748 39.5724 48.5654 39.5497 48.5516 39.5298L46.3639 36.0587C46.3512 36.0383 46.3346 36.0206 46.3151 36.0067C46.2956 35.9928 46.2735 35.9828 46.2502 35.9774C46.2268 35.972 46.2026 35.9712 46.1789 35.9751C46.1553 35.9791 46.1326 35.9876 46.1123 36.0003C46.0919 36.013 46.0743 36.0296 46.0603 36.0491C46.0464 36.0686 46.0364 36.0907 46.031 36.114C46.0256 36.1374 46.0248 36.1616 46.0288 36.1852C46.0327 36.2089 46.0413 36.2315 46.054 36.2519L48.1942 39.6574L47.3629 43.2014L45.8242 45.7209L42.6995 48.08L39.232 49.8629L35.9286 50.6141L33.2742 50.3442L31.6371 48.9769L30.226 47.07C30.1965 47.0321 30.1534 47.0072 30.1058 47.0004C30.0582 46.9936 30.0098 47.0055 29.9708 47.0335C29.9517 47.0479 29.9355 47.0659 29.9233 47.0865C29.9111 47.1071 29.9031 47.1299 29.8997 47.1536C29.8963 47.1773 29.8976 47.2014 29.9036 47.2246C29.9095 47.2478 29.92 47.2696 29.9343 47.2888L31.3563 49.2139C31.3641 49.2254 31.374 49.2353 31.3855 49.2431L33.0664 50.676C33.0946 50.6993 33.1287 50.7145 33.1648 50.7198L35.9067 51.0005L35.925 50.9823Z" fill="#070618"/>
<path d="M30.0659 47.1786L31.7686 48.5933L34.5105 48.8741L37.8577 48.123L41.3725 46.2999L44.5265 43.919L46.098 41.3448L47.1699 37.4908L46.2219 36.0834L44.3989 34.5557L40.1985 34.8911L36.8514 35.985L32.3119 39.6129L29.9492 43.259L29.5518 45.4722L30.0659 47.1786Z" fill="#99FFCC"/>
<path d="M34.511 49.0566H34.5511L37.8983 48.2909H37.942L41.4533 46.4679L44.6364 44.0687C44.6555 44.0562 44.6707 44.0385 44.6801 44.0177L46.2516 41.4654C46.2618 41.4511 46.2692 41.435 46.2735 41.418L47.3454 37.5494C47.3521 37.5241 47.3534 37.4977 47.349 37.4719C47.3446 37.4461 47.3346 37.4215 47.3199 37.3999L46.3719 35.9925L46.3391 35.956L44.516 34.4283C44.4984 34.4123 44.4776 34.4001 44.455 34.3926C44.4324 34.385 44.4085 34.3823 44.3847 34.3845L40.1844 34.72H40.1443L36.7971 35.8138C36.7759 35.8212 36.7561 35.8323 36.7388 35.8466L32.1994 39.4746C32.1824 39.4854 32.1686 39.5005 32.1593 39.5183L29.7965 43.1645C29.7834 43.1842 29.7747 43.2066 29.771 43.2301L29.3736 45.4469C29.3663 45.4744 29.3663 45.5033 29.3736 45.5308L29.8986 47.2445C29.9089 47.2788 29.9292 47.3093 29.957 47.332L31.6597 48.7467C31.6883 48.7688 31.7223 48.7827 31.7582 48.7868L34.5001 49.0676L34.511 49.0566ZM37.7925 47.9373L34.511 48.692L31.8566 48.4185L30.2341 47.0731L29.7382 45.4542L30.1028 43.3212L32.4145 39.7371L36.9065 36.1493L40.188 35.0846L44.2936 34.7601L46.0511 36.2186L46.937 37.5348L45.8979 41.283L44.3556 43.8062L41.2309 46.1652L37.7925 47.9373Z" fill="#070618"/>
<path d="M35.9249 50.7813L34.5102 48.8562L37.85 48.127L39.2793 50.0157L35.9249 50.7813Z" fill="#99FFCC"/>
<path d="M35.9243 50.9633H35.9644L39.3188 50.1976C39.3485 50.1915 39.3761 50.1779 39.399 50.1581C39.422 50.1383 39.4396 50.113 39.4501 50.0846C39.4604 50.0556 39.4634 50.0244 39.4589 49.9939C39.4545 49.9634 39.4427 49.9345 39.4245 49.9096L37.9916 48.0209C37.9711 47.9932 37.9428 47.9722 37.9104 47.9605C37.8779 47.9489 37.8428 47.947 37.8093 47.9553L34.4694 48.6845C34.4398 48.6906 34.4122 48.7043 34.3892 48.724C34.3662 48.7438 34.3487 48.7691 34.3382 48.7975C34.3279 48.826 34.3248 48.8565 34.3293 48.8864C34.3337 48.9163 34.3456 48.9447 34.3637 48.9689L35.7784 50.894C35.7954 50.9165 35.8175 50.9345 35.8428 50.9465C35.8682 50.9586 35.8962 50.9643 35.9243 50.9633ZM38.9761 49.9023L36.0118 50.5768L34.8341 48.9762L37.7838 48.3308L38.9761 49.9023Z" fill="#070618"/>
<path d="M42.7687 48.4081C42.808 48.4071 42.8461 48.3944 42.8781 48.3716L46.032 45.9907C46.0699 45.9611 46.0949 45.918 46.1016 45.8704C46.1084 45.8228 46.0965 45.7744 46.0684 45.7354L44.6537 43.8139C44.6395 43.7944 44.6216 43.7779 44.6009 43.7654C44.5803 43.7529 44.5573 43.7446 44.5334 43.741C44.5099 43.7368 44.4858 43.7375 44.4625 43.7431C44.4393 43.7488 44.4175 43.7592 44.3985 43.7738L41.2337 46.1657C41.2145 46.1801 41.1984 46.198 41.1862 46.2187C41.174 46.2393 41.166 46.2621 41.1626 46.2858C41.1592 46.3095 41.1605 46.3336 41.1664 46.3568C41.1724 46.38 41.1828 46.4018 41.1972 46.4209L42.6229 48.3351C42.6366 48.3548 42.6545 48.3712 42.6753 48.3831C42.6961 48.3951 42.7193 48.4024 42.7432 48.4044L42.7687 48.4081ZM45.6674 45.8084L42.8052 47.9705L41.5983 46.348L44.4714 44.1785L45.6674 45.8084Z" fill="#070618"/>
<path d="M37.189 46.2668L34.3852 46.9086L32.5621 46.7153L31.7526 46.0371L31.5156 45.3079L31.7526 43.9552L33.7325 40.907L37.7432 37.6911L40.5252 36.8197L43.7047 36.5645L44.7183 37.4432L45.0137 37.8734L44.2589 40.608L43.0228 42.6535L40.2882 44.7172L37.189 46.2668Z" fill="#070618"/>
<path d="M41.4199 37.9199L40.2555 41.4055L40.9345 42.4129L36.3854 44.6326L37.1866 39.5956L38.1372 40.0825L41.4199 37.9199Z" fill="#99FFCC"/>
<path d="M30.0657 47.1795L31.4876 49.1046L33.1831 50.5193L35.925 50.8001L39.2794 50.0344L42.7943 48.2113L45.9482 45.8304L47.5197 43.2562L48.3984 39.6101L46.2108 36.1426" fill="#99FFCC"/>
<path d="M35.925 50.9823H35.9651L39.3195 50.2166H39.3633L42.8781 48.3936L46.0576 45.998C46.0753 45.9828 46.0912 45.9657 46.105 45.947L47.6765 43.3838C47.6859 43.3678 47.6933 43.3506 47.6984 43.3327L48.5771 39.6683C48.5829 39.6447 48.5836 39.6202 48.5792 39.5963C48.5748 39.5724 48.5654 39.5497 48.5516 39.5298L46.3639 36.0587C46.3512 36.0383 46.3346 36.0206 46.3151 36.0067C46.2956 35.9928 46.2735 35.9828 46.2502 35.9774C46.2268 35.972 46.2026 35.9712 46.1789 35.9751C46.1553 35.9791 46.1326 35.9876 46.1123 36.0003C46.0919 36.013 46.0743 36.0296 46.0603 36.0491C46.0464 36.0686 46.0364 36.0907 46.031 36.114C46.0256 36.1374 46.0248 36.1616 46.0288 36.1852C46.0327 36.2089 46.0413 36.2315 46.054 36.2519L48.1942 39.6574L47.3629 43.2014L45.8242 45.7209L42.6995 48.08L39.232 49.8629L35.9286 50.6141L33.2742 50.3442L31.6371 48.9769L30.226 47.07C30.1965 47.0321 30.1534 47.0072 30.1058 47.0004C30.0582 46.9936 30.0098 47.0055 29.9708 47.0335C29.9517 47.0479 29.9355 47.0659 29.9233 47.0865C29.9111 47.1071 29.9031 47.1299 29.8997 47.1536C29.8963 47.1773 29.8976 47.2014 29.9036 47.2246C29.9095 47.2478 29.92 47.2696 29.9343 47.2888L31.3563 49.2139C31.3641 49.2254 31.374 49.2353 31.3855 49.2431L33.0664 50.676C33.0946 50.6993 33.1287 50.7145 33.1648 50.7198L35.9067 51.0005L35.925 50.9823Z" fill="#070618"/>
<path d="M30.0659 47.1786L31.7686 48.5933L34.5105 48.8741L37.8577 48.123L41.3725 46.2999L44.5265 43.919L46.098 41.3448L47.1699 37.4908L46.2219 36.0834L44.3989 34.5557L40.1985 34.8911L36.8514 35.985L32.3119 39.6129L29.9492 43.259L29.5518 45.4722L30.0659 47.1786Z" fill="#99FFCC"/>
<path d="M34.511 49.0566H34.5511L37.8983 48.2909H37.942L41.4533 46.4679L44.6364 44.0687C44.6555 44.0562 44.6707 44.0385 44.6801 44.0177L46.2516 41.4654C46.2618 41.4511 46.2692 41.435 46.2735 41.418L47.3454 37.5494C47.3521 37.5241 47.3534 37.4977 47.349 37.4719C47.3446 37.4461 47.3346 37.4215 47.3199 37.3999L46.3719 35.9925L46.3391 35.956L44.516 34.4283C44.4984 34.4123 44.4776 34.4001 44.455 34.3926C44.4324 34.385 44.4085 34.3823 44.3847 34.3845L40.1844 34.72H40.1443L36.7971 35.8138C36.7759 35.8212 36.7561 35.8323 36.7388 35.8466L32.1994 39.4746C32.1824 39.4854 32.1686 39.5005 32.1593 39.5183L29.7965 43.1645C29.7834 43.1842 29.7747 43.2066 29.771 43.2301L29.3736 45.4469C29.3663 45.4744 29.3663 45.5033 29.3736 45.5308L29.8986 47.2445C29.9089 47.2788 29.9292 47.3093 29.957 47.332L31.6597 48.7467C31.6883 48.7688 31.7223 48.7827 31.7582 48.7868L34.5001 49.0676L34.511 49.0566ZM37.7925 47.9373L34.511 48.692L31.8566 48.4185L30.2341 47.0731L29.7382 45.4542L30.1028 43.3212L32.4145 39.7371L36.9065 36.1493L40.188 35.0846L44.2936 34.7601L46.0511 36.2186L46.937 37.5348L45.8979 41.283L44.3556 43.8062L41.2309 46.1652L37.7925 47.9373Z" fill="#070618"/>
<path d="M35.9249 50.7813L34.5102 48.8562L37.85 48.127L39.2793 50.0157L35.9249 50.7813Z" fill="#99FFCC"/>
<path d="M35.9243 50.9633H35.9644L39.3188 50.1976C39.3485 50.1915 39.3761 50.1779 39.399 50.1581C39.422 50.1383 39.4396 50.113 39.4501 50.0846C39.4604 50.0556 39.4634 50.0244 39.4589 49.9939C39.4545 49.9634 39.4427 49.9345 39.4245 49.9096L37.9916 48.0209C37.9711 47.9932 37.9428 47.9722 37.9104 47.9605C37.8779 47.9489 37.8428 47.947 37.8093 47.9553L34.4694 48.6845C34.4398 48.6906 34.4122 48.7043 34.3892 48.724C34.3662 48.7438 34.3487 48.7691 34.3382 48.7975C34.3279 48.826 34.3248 48.8565 34.3293 48.8864C34.3337 48.9163 34.3456 48.9447 34.3637 48.9689L35.7784 50.894C35.7954 50.9165 35.8175 50.9345 35.8428 50.9465C35.8682 50.9586 35.8962 50.9643 35.9243 50.9633ZM38.9761 49.9023L36.0118 50.5768L34.8341 48.9762L37.7838 48.3308L38.9761 49.9023Z" fill="#070618"/>
<path d="M42.7686 48.226L41.343 46.3118L44.5078 43.9199L45.9043 45.8451L42.7686 48.226Z" fill="#99FFCC"/>
<path d="M42.7687 48.4081C42.808 48.4071 42.8461 48.3944 42.8781 48.3716L46.032 45.9907C46.0699 45.9611 46.0949 45.918 46.1016 45.8704C46.1084 45.8228 46.0965 45.7744 46.0684 45.7354L44.6537 43.8139C44.6395 43.7944 44.6216 43.7779 44.6009 43.7654C44.5803 43.7529 44.5573 43.7446 44.5334 43.741C44.5099 43.7368 44.4858 43.7375 44.4625 43.7431C44.4393 43.7488 44.4175 43.7592 44.3985 43.7738L41.2337 46.1657C41.2145 46.1801 41.1984 46.198 41.1862 46.2187C41.174 46.2393 41.166 46.2621 41.1626 46.2858C41.1592 46.3095 41.1605 46.3336 41.1664 46.3568C41.1724 46.38 41.1828 46.4018 41.1972 46.4209L42.6229 48.3351C42.6366 48.3548 42.6545 48.3712 42.6753 48.3831C42.6961 48.3951 42.7193 48.4024 42.7432 48.4044L42.7687 48.4081ZM45.6674 45.8084L42.8052 47.9705L41.5983 46.348L44.4714 44.1785L45.6674 45.8084Z" fill="#070618"/>
<path d="M37.189 46.2668L34.3852 46.9086L32.5621 46.7153L31.7526 46.0371L31.5156 45.3079L31.7526 43.9552L33.7325 40.907L37.7432 37.6911L40.5252 36.8197L43.7047 36.5645L44.7183 37.4432L45.0137 37.8734L44.2589 40.608L43.0228 42.6535L40.2882 44.7172L37.189 46.2668Z" fill="#070618"/>
<path d="M47.1217 43.7922C47.1535 43.7922 47.1847 43.7819 47.2118 43.7623C47.2388 43.7427 47.2607 43.7147 47.2749 43.6813C47.2891 43.648 47.2951 43.6107 47.2923 43.5736C47.2894 43.5365 47.2778 43.5011 47.2587 43.4712L45.9231 41.3567C45.8958 41.3144 45.8555 41.2861 45.8108 41.2779C45.766 41.2696 45.7203 41.2821 45.6833 41.3125C45.6653 41.3284 45.6501 41.3482 45.6387 41.3708C45.6272 41.3935 45.6197 41.4186 45.6165 41.4447C45.6133 41.4708 45.6146 41.4973 45.6202 41.5228C45.6257 41.5484 45.6356 41.5723 45.649 41.5934L46.9745 43.716C46.992 43.7416 47.0145 43.7619 47.0401 43.7752C47.0658 43.7885 47.0938 43.7943 47.1217 43.7922Z" fill="#070618"/>
<path d="M41.4199 37.9199L40.2555 41.4055L40.9345 42.4129L36.3854 44.6326L37.1866 39.5956L38.1372 40.0825L41.4199 37.9199Z" fill="#99FFCC"/>
<path d="M30.0657 47.1795L31.4876 49.1046L33.1831 50.5193L35.925 50.8001L39.2794 50.0344L42.7943 48.2113L45.9482 45.8304L47.5197 43.2562L48.3984 39.6101L46.2108 36.1426" fill="#99FFCC"/>
<path d="M35.925 50.9823H35.9651L39.3195 50.2166H39.3633L42.8781 48.3936L46.0576 45.998C46.0753 45.9828 46.0912 45.9657 46.105 45.947L47.6765 43.3838C47.6859 43.3678 47.6933 43.3506 47.6984 43.3327L48.5771 39.6683C48.5829 39.6447 48.5836 39.6202 48.5792 39.5963C48.5748 39.5724 48.5654 39.5497 48.5516 39.5298L46.3639 36.0587C46.3512 36.0383 46.3346 36.0206 46.3151 36.0067C46.2956 35.9928 46.2735 35.9828 46.2502 35.9774C46.2268 35.972 46.2026 35.9712 46.1789 35.9751C46.1553 35.9791 46.1326 35.9876 46.1123 36.0003C46.0919 36.013 46.0743 36.0296 46.0603 36.0491C46.0464 36.0686 46.0364 36.0907 46.031 36.114C46.0256 36.1374 46.0248 36.1616 46.0288 36.1852C46.0327 36.2089 46.0413 36.2315 46.054 36.2519L48.1942 39.6574L47.3629 43.2014L45.8242 45.7209L42.6995 48.08L39.232 49.8629L35.9286 50.6141L33.2742 50.3442L31.6371 48.9769L30.226 47.07C30.1965 47.0321 30.1534 47.0072 30.1058 47.0004C30.0582 46.9936 30.0098 47.0055 29.9708 47.0335C29.9517 47.0479 29.9355 47.0659 29.9233 47.0865C29.9111 47.1071 29.9031 47.1299 29.8997 47.1536C29.8963 47.1773 29.8976 47.2014 29.9036 47.2246C29.9095 47.2478 29.92 47.2696 29.9343 47.2888L31.3563 49.2139C31.3641 49.2254 31.374 49.2353 31.3855 49.2431L33.0664 50.676C33.0946 50.6993 33.1287 50.7145 33.1648 50.7198L35.9067 51.0005L35.925 50.9823Z" fill="#070618"/>
<path d="M30.0659 47.1786L31.7686 48.5933L34.5105 48.8741L37.8577 48.123L41.3725 46.2999L44.5265 43.919L46.098 41.3448L47.1699 37.4908L46.2219 36.0834L44.3989 34.5557L40.1985 34.8911L36.8514 35.985L32.3119 39.6129L29.9492 43.259L29.5518 45.4722L30.0659 47.1786Z" fill="#99FFCC"/>
<path d="M34.511 49.0566H34.5511L37.8983 48.2909H37.942L41.4533 46.4679L44.6364 44.0687C44.6555 44.0562 44.6707 44.0385 44.6801 44.0177L46.2516 41.4654C46.2618 41.4511 46.2692 41.435 46.2735 41.418L47.3454 37.5494C47.3521 37.5241 47.3534 37.4977 47.349 37.4719C47.3446 37.4461 47.3346 37.4215 47.3199 37.3999L46.3719 35.9925L46.3391 35.956L44.516 34.4283C44.4984 34.4123 44.4776 34.4001 44.455 34.3926C44.4324 34.385 44.4085 34.3823 44.3847 34.3845L40.1844 34.72H40.1443L36.7971 35.8138C36.7759 35.8212 36.7561 35.8323 36.7388 35.8466L32.1994 39.4746C32.1824 39.4854 32.1686 39.5005 32.1593 39.5183L29.7965 43.1645C29.7834 43.1842 29.7747 43.2066 29.771 43.2301L29.3736 45.4469C29.3663 45.4744 29.3663 45.5033 29.3736 45.5308L29.8986 47.2445C29.9089 47.2788 29.9292 47.3093 29.957 47.332L31.6597 48.7467C31.6883 48.7688 31.7223 48.7827 31.7582 48.7868L34.5001 49.0676L34.511 49.0566ZM37.7925 47.9373L34.511 48.692L31.8566 48.4185L30.2341 47.0731L29.7382 45.4542L30.1028 43.3212L32.4145 39.7371L36.9065 36.1493L40.188 35.0846L44.2936 34.7601L46.0511 36.2186L46.937 37.5348L45.8979 41.283L44.3556 43.8062L41.2309 46.1652L37.7925 47.9373Z" fill="#070618"/>
<path d="M35.9249 50.7813L34.5102 48.8562L37.85 48.127L39.2793 50.0157L35.9249 50.7813Z" fill="#99FFCC"/>
<path d="M35.9243 50.9633H35.9644L39.3188 50.1976C39.3485 50.1915 39.3761 50.1779 39.399 50.1581C39.422 50.1383 39.4396 50.113 39.4501 50.0846C39.4604 50.0556 39.4634 50.0244 39.4589 49.9939C39.4545 49.9634 39.4427 49.9345 39.4245 49.9096L37.9916 48.0209C37.9711 47.9932 37.9428 47.9722 37.9104 47.9605C37.8779 47.9489 37.8428 47.947 37.8093 47.9553L34.4694 48.6845C34.4398 48.6906 34.4122 48.7043 34.3892 48.724C34.3662 48.7438 34.3487 48.7691 34.3382 48.7975C34.3279 48.826 34.3248 48.8565 34.3293 48.8864C34.3337 48.9163 34.3456 48.9447 34.3637 48.9689L35.7784 50.894C35.7954 50.9165 35.8175 50.9345 35.8428 50.9465C35.8682 50.9586 35.8962 50.9643 35.9243 50.9633ZM38.9761 49.9023L36.0118 50.5768L34.8341 48.9762L37.7838 48.3308L38.9761 49.9023Z" fill="#070618"/>
<path d="M42.7686 48.226L41.343 46.3118L44.5078 43.9199L45.9043 45.8451L42.7686 48.226Z" fill="#99FFCC"/>
<path d="M42.7687 48.4081C42.808 48.4071 42.8461 48.3944 42.8781 48.3716L46.032 45.9907C46.0699 45.9611 46.0949 45.918 46.1016 45.8704C46.1084 45.8228 46.0965 45.7744 46.0684 45.7354L44.6537 43.8139C44.6395 43.7944 44.6216 43.7779 44.6009 43.7654C44.5803 43.7529 44.5573 43.7446 44.5334 43.741C44.5099 43.7368 44.4858 43.7375 44.4625 43.7431C44.4393 43.7488 44.4175 43.7592 44.3985 43.7738L41.2337 46.1657C41.2145 46.1801 41.1984 46.198 41.1862 46.2187C41.174 46.2393 41.166 46.2621 41.1626 46.2858C41.1592 46.3095 41.1605 46.3336 41.1664 46.3568C41.1724 46.38 41.1828 46.4018 41.1972 46.4209L42.6229 48.3351C42.6366 48.3548 42.6545 48.3712 42.6753 48.3831C42.6961 48.3951 42.7193 48.4024 42.7432 48.4044L42.7687 48.4081ZM45.6674 45.8084L42.8052 47.9705L41.5983 46.348L44.4714 44.1785L45.6674 45.8084Z" fill="#070618"/>
<path d="M37.189 46.2668L34.3852 46.9086L32.5621 46.7153L31.7526 46.0371L31.5156 45.3079L31.7526 43.9552L33.7325 40.907L37.7432 37.6911L40.5252 36.8197L43.7047 36.5645L44.7183 37.4432L45.0137 37.8734L44.2589 40.608L43.0228 42.6535L40.2882 44.7172L37.189 46.2668Z" fill="#070618"/>
<path d="M47.1217 43.7922C47.1535 43.7922 47.1847 43.7819 47.2118 43.7623C47.2388 43.7427 47.2607 43.7147 47.2749 43.6813C47.2891 43.648 47.2951 43.6107 47.2923 43.5736C47.2894 43.5365 47.2778 43.5011 47.2587 43.4712L45.9231 41.3567C45.8958 41.3144 45.8555 41.2861 45.8108 41.2779C45.766 41.2696 45.7203 41.2821 45.6833 41.3125C45.6653 41.3284 45.6501 41.3482 45.6387 41.3708C45.6272 41.3935 45.6197 41.4186 45.6165 41.4447C45.6133 41.4708 45.6146 41.4973 45.6202 41.5228C45.6257 41.5484 45.6356 41.5723 45.649 41.5934L46.9745 43.716C46.992 43.7416 47.0145 43.7619 47.0401 43.7752C47.0658 43.7885 47.0938 43.7943 47.1217 43.7922Z" fill="#070618"/>
<path d="M41.4199 37.9199L40.2555 41.4055L40.9345 42.4129L36.3854 44.6326L37.1866 39.5956L38.1372 40.0825L41.4199 37.9199Z" fill="#99FFCC"/>
<path d="M30.0657 47.1795L31.4876 49.1046L33.1831 50.5193L35.925 50.8001L39.2794 50.0344L42.7943 48.2113L45.9482 45.8304L47.5197 43.2562L48.3984 39.6101L46.2108 36.1426" fill="#99FFCC"/>
<path d="M35.925 50.9823H35.9651L39.3195 50.2166H39.3633L42.8781 48.3936L46.0576 45.998C46.0753 45.9828 46.0912 45.9657 46.105 45.947L47.6765 43.3838C47.6859 43.3678 47.6933 43.3506 47.6984 43.3327L48.5771 39.6683C48.5829 39.6447 48.5836 39.6202 48.5792 39.5963C48.5748 39.5724 48.5654 39.5497 48.5516 39.5298L46.3639 36.0587C46.3512 36.0383 46.3346 36.0206 46.3151 36.0067C46.2956 35.9928 46.2735 35.9828 46.2502 35.9774C46.2268 35.972 46.2026 35.9712 46.1789 35.9751C46.1553 35.9791 46.1326 35.9876 46.1123 36.0003C46.0919 36.013 46.0743 36.0296 46.0603 36.0491C46.0464 36.0686 46.0364 36.0907 46.031 36.114C46.0256 36.1374 46.0248 36.1616 46.0288 36.1852C46.0327 36.2089 46.0413 36.2315 46.054 36.2519L48.1942 39.6574L47.3629 43.2014L45.8242 45.7209L42.6995 48.08L39.232 49.8629L35.9286 50.6141L33.2742 50.3442L31.6371 48.9769L30.226 47.07C30.1965 47.0321 30.1534 47.0072 30.1058 47.0004C30.0582 46.9936 30.0098 47.0055 29.9708 47.0335C29.9517 47.0479 29.9355 47.0659 29.9233 47.0865C29.9111 47.1071 29.9031 47.1299 29.8997 47.1536C29.8963 47.1773 29.8976 47.2014 29.9036 47.2246C29.9095 47.2478 29.92 47.2696 29.9343 47.2888L31.3563 49.2139C31.3641 49.2254 31.374 49.2353 31.3855 49.2431L33.0664 50.676C33.0946 50.6993 33.1287 50.7145 33.1648 50.7198L35.9067 51.0005L35.925 50.9823Z" fill="#070618"/>
<path d="M30.0659 47.1786L31.7686 48.5933L34.5105 48.8741L37.8577 48.123L41.3725 46.2999L44.5265 43.919L46.098 41.3448L47.1699 37.4908L46.2219 36.0834L44.3989 34.5557L40.1985 34.8911L36.8514 35.985L32.3119 39.6129L29.9492 43.259L29.5518 45.4722L30.0659 47.1786Z" fill="#99FFCC"/>
<path d="M34.511 49.0566H34.5511L37.8983 48.2909H37.942L41.4533 46.4679L44.6364 44.0687C44.6555 44.0562 44.6707 44.0385 44.6801 44.0177L46.2516 41.4654C46.2618 41.4511 46.2692 41.435 46.2735 41.418L47.3454 37.5494C47.3521 37.5241 47.3534 37.4977 47.349 37.4719C47.3446 37.4461 47.3346 37.4215 47.3199 37.3999L46.3719 35.9925L46.3391 35.956L44.516 34.4283C44.4984 34.4123 44.4776 34.4001 44.455 34.3926C44.4324 34.385 44.4085 34.3823 44.3847 34.3845L40.1844 34.72H40.1443L36.7971 35.8138C36.7759 35.8212 36.7561 35.8323 36.7388 35.8466L32.1994 39.4746C32.1824 39.4854 32.1686 39.5005 32.1593 39.5183L29.7965 43.1645C29.7834 43.1842 29.7747 43.2066 29.771 43.2301L29.3736 45.4469C29.3663 45.4744 29.3663 45.5033 29.3736 45.5308L29.8986 47.2445C29.9089 47.2788 29.9292 47.3093 29.957 47.332L31.6597 48.7467C31.6883 48.7688 31.7223 48.7827 31.7582 48.7868L34.5001 49.0676L34.511 49.0566ZM37.7925 47.9373L34.511 48.692L31.8566 48.4185L30.2341 47.0731L29.7382 45.4542L30.1028 43.3212L32.4145 39.7371L36.9065 36.1493L40.188 35.0846L44.2936 34.7601L46.0511 36.2186L46.937 37.5348L45.8979 41.283L44.3556 43.8062L41.2309 46.1652L37.7925 47.9373Z" fill="#070618"/>
<path d="M35.9249 50.7813L34.5102 48.8562L37.85 48.127L39.2793 50.0157L35.9249 50.7813Z" fill="#99FFCC"/>
<path d="M35.9243 50.9633H35.9644L39.3188 50.1976C39.3485 50.1915 39.3761 50.1779 39.399 50.1581C39.422 50.1383 39.4396 50.113 39.4501 50.0846C39.4604 50.0556 39.4634 50.0244 39.4589 49.9939C39.4545 49.9634 39.4427 49.9345 39.4245 49.9096L37.9916 48.0209C37.9711 47.9932 37.9428 47.9722 37.9104 47.9605C37.8779 47.9489 37.8428 47.947 37.8093 47.9553L34.4694 48.6845C34.4398 48.6906 34.4122 48.7043 34.3892 48.724C34.3662 48.7438 34.3487 48.7691 34.3382 48.7975C34.3279 48.826 34.3248 48.8565 34.3293 48.8864C34.3337 48.9163 34.3456 48.9447 34.3637 48.9689L35.7784 50.894C35.7954 50.9165 35.8175 50.9345 35.8428 50.9465C35.8682 50.9586 35.8962 50.9643 35.9243 50.9633ZM38.9761 49.9023L36.0118 50.5768L34.8341 48.9762L37.7838 48.3308L38.9761 49.9023Z" fill="#070618"/>
<path d="M42.7686 48.226L41.343 46.3118L44.5078 43.9199L45.9043 45.8451L42.7686 48.226Z" fill="#99FFCC"/>
<path d="M42.7687 48.4081C42.808 48.4071 42.8461 48.3944 42.8781 48.3716L46.032 45.9907C46.0699 45.9611 46.0949 45.918 46.1016 45.8704C46.1084 45.8228 46.0965 45.7744 46.0684 45.7354L44.6537 43.8139C44.6395 43.7944 44.6216 43.7779 44.6009 43.7654C44.5803 43.7529 44.5573 43.7446 44.5334 43.741C44.5099 43.7368 44.4858 43.7375 44.4625 43.7431C44.4393 43.7488 44.4175 43.7592 44.3985 43.7738L41.2337 46.1657C41.2145 46.1801 41.1984 46.198 41.1862 46.2187C41.174 46.2393 41.166 46.2621 41.1626 46.2858C41.1592 46.3095 41.1605 46.3336 41.1664 46.3568C41.1724 46.38 41.1828 46.4018 41.1972 46.4209L42.6229 48.3351C42.6366 48.3548 42.6545 48.3712 42.6753 48.3831C42.6961 48.3951 42.7193 48.4024 42.7432 48.4044L42.7687 48.4081ZM45.6674 45.8084L42.8052 47.9705L41.5983 46.348L44.4714 44.1785L45.6674 45.8084Z" fill="#070618"/>
<path d="M37.189 46.2668L34.3852 46.9086L32.5621 46.7153L31.7526 46.0371L31.5156 45.3079L31.7526 43.9552L33.7325 40.907L37.7432 37.6911L40.5252 36.8197L43.7047 36.5645L44.7183 37.4432L45.0137 37.8734L44.2589 40.608L43.0228 42.6535L40.2882 44.7172L37.189 46.2668Z" fill="#070618"/>
<path d="M47.1217 43.7922C47.1535 43.7922 47.1847 43.7819 47.2118 43.7623C47.2388 43.7427 47.2607 43.7147 47.2749 43.6813C47.2891 43.648 47.2951 43.6107 47.2923 43.5736C47.2894 43.5365 47.2778 43.5011 47.2587 43.4712L45.9231 41.3567C45.8958 41.3144 45.8555 41.2861 45.8108 41.2779C45.766 41.2696 45.7203 41.2821 45.6833 41.3125C45.6653 41.3284 45.6501 41.3482 45.6387 41.3708C45.6272 41.3935 45.6197 41.4186 45.6165 41.4447C45.6133 41.4708 45.6146 41.4973 45.6202 41.5228C45.6257 41.5484 45.6356 41.5723 45.649 41.5934L46.9745 43.716C46.992 43.7416 47.0145 43.7619 47.0401 43.7752C47.0658 43.7885 47.0938 43.7943 47.1217 43.7922Z" fill="#070618"/>
<path d="M41.4199 37.9199L40.2555 41.4055L40.9345 42.4129L36.3854 44.6326L37.1866 39.5956L38.1372 40.0825L41.4199 37.9199Z" fill="#99FFCC"/>
<path d="M35.925 50.9823H35.9651L39.3195 50.2166H39.3633L42.8781 48.3936L46.0576 45.998C46.0753 45.9828 46.0912 45.9657 46.105 45.947L47.6765 43.3838C47.6859 43.3678 47.6933 43.3506 47.6984 43.3327L48.5771 39.6683C48.5829 39.6447 48.5836 39.6202 48.5792 39.5963C48.5748 39.5724 48.5654 39.5497 48.5516 39.5298L46.3639 36.0587C46.3512 36.0383 46.3346 36.0206 46.3151 36.0067C46.2956 35.9928 46.2735 35.9828 46.2502 35.9774C46.2268 35.972 46.2026 35.9712 46.1789 35.9751C46.1553 35.9791 46.1326 35.9876 46.1123 36.0003C46.0919 36.013 46.0743 36.0296 46.0603 36.0491C46.0464 36.0686 46.0364 36.0907 46.031 36.114C46.0256 36.1374 46.0248 36.1616 46.0288 36.1852C46.0327 36.2089 46.0413 36.2315 46.054 36.2519L48.1942 39.6574L47.3629 43.2014L45.8242 45.7209L42.6995 48.08L39.232 49.8629L35.9286 50.6141L33.2742 50.3442L31.6371 48.9769L30.226 47.07C30.1965 47.0321 30.1534 47.0072 30.1058 47.0004C30.0582 46.9936 30.0098 47.0055 29.9708 47.0335C29.9517 47.0479 29.9355 47.0659 29.9233 47.0865C29.9111 47.1071 29.9031 47.1299 29.8997 47.1536C29.8963 47.1773 29.8976 47.2014 29.9036 47.2246C29.9095 47.2478 29.92 47.2696 29.9343 47.2888L31.3563 49.2139C31.3641 49.2254 31.374 49.2353 31.3855 49.2431L33.0664 50.676C33.0946 50.6993 33.1287 50.7145 33.1648 50.7198L35.9067 51.0005L35.925 50.9823Z" fill="#070618"/>
<path d="M30.0659 47.1786L31.7686 48.5933L34.5105 48.8741L37.8577 48.123L41.3725 46.2999L44.5265 43.919L46.098 41.3448L47.1699 37.4908L46.2219 36.0834L44.3989 34.5557L40.1985 34.8911L36.8514 35.985L32.3119 39.6129L29.9492 43.259L29.5518 45.4722L30.0659 47.1786Z" fill="#99FFCC"/>
<path d="M34.511 49.0566H34.5511L37.8983 48.2909H37.942L41.4533 46.4679L44.6364 44.0687C44.6555 44.0562 44.6707 44.0385 44.6801 44.0177L46.2516 41.4654C46.2618 41.4511 46.2692 41.435 46.2735 41.418L47.3454 37.5494C47.3521 37.5241 47.3534 37.4977 47.349 37.4719C47.3446 37.4461 47.3346 37.4215 47.3199 37.3999L46.3719 35.9925L46.3391 35.956L44.516 34.4283C44.4984 34.4123 44.4776 34.4001 44.455 34.3926C44.4324 34.385 44.4085 34.3823 44.3847 34.3845L40.1844 34.72H40.1443L36.7971 35.8138C36.7759 35.8212 36.7561 35.8323 36.7388 35.8466L32.1994 39.4746C32.1824 39.4854 32.1686 39.5005 32.1593 39.5183L29.7965 43.1645C29.7834 43.1842 29.7747 43.2066 29.771 43.2301L29.3736 45.4469C29.3663 45.4744 29.3663 45.5033 29.3736 45.5308L29.8986 47.2445C29.9089 47.2788 29.9292 47.3093 29.957 47.332L31.6597 48.7467C31.6883 48.7688 31.7223 48.7827 31.7582 48.7868L34.5001 49.0676L34.511 49.0566ZM37.7925 47.9373L34.511 48.692L31.8566 48.4185L30.2341 47.0731L29.7382 45.4542L30.1028 43.3212L32.4145 39.7371L36.9065 36.1493L40.188 35.0846L44.2936 34.7601L46.0511 36.2186L46.937 37.5348L45.8979 41.283L44.3556 43.8062L41.2309 46.1652L37.7925 47.9373Z" fill="#070618"/>
<path d="M35.9249 50.7813L34.5102 48.8562L37.85 48.127L39.2793 50.0157L35.9249 50.7813Z" fill="#99FFCC"/>
<path d="M35.9243 50.9633H35.9644L39.3188 50.1976C39.3485 50.1915 39.3761 50.1779 39.399 50.1581C39.422 50.1383 39.4396 50.113 39.4501 50.0846C39.4604 50.0556 39.4634 50.0244 39.4589 49.9939C39.4545 49.9634 39.4427 49.9345 39.4245 49.9096L37.9916 48.0209C37.9711 47.9932 37.9428 47.9722 37.9104 47.9605C37.8779 47.9489 37.8428 47.947 37.8093 47.9553L34.4694 48.6845C34.4398 48.6906 34.4122 48.7043 34.3892 48.724C34.3662 48.7438 34.3487 48.7691 34.3382 48.7975C34.3279 48.826 34.3248 48.8565 34.3293 48.8864C34.3337 48.9163 34.3456 48.9447 34.3637 48.9689L35.7784 50.894C35.7954 50.9165 35.8175 50.9345 35.8428 50.9465C35.8682 50.9586 35.8962 50.9643 35.9243 50.9633ZM38.9761 49.9023L36.0118 50.5768L34.8341 48.9762L37.7838 48.3308L38.9761 49.9023Z" fill="#070618"/>
<path d="M42.7687 48.4081C42.808 48.4071 42.8461 48.3944 42.8781 48.3716L46.032 45.9907C46.0699 45.9611 46.0949 45.918 46.1016 45.8704C46.1084 45.8228 46.0965 45.7744 46.0684 45.7354L44.6537 43.8139C44.6395 43.7944 44.6216 43.7779 44.6009 43.7654C44.5803 43.7529 44.5573 43.7446 44.5334 43.741C44.5099 43.7368 44.4858 43.7375 44.4625 43.7431C44.4393 43.7488 44.4175 43.7592 44.3985 43.7738L41.2337 46.1657C41.2145 46.1801 41.1984 46.198 41.1862 46.2187C41.174 46.2393 41.166 46.2621 41.1626 46.2858C41.1592 46.3095 41.1605 46.3336 41.1664 46.3568C41.1724 46.38 41.1828 46.4018 41.1972 46.4209L42.6229 48.3351C42.6366 48.3548 42.6545 48.3712 42.6753 48.3831C42.6961 48.3951 42.7193 48.4024 42.7432 48.4044L42.7687 48.4081ZM45.6674 45.8084L42.8052 47.9705L41.5983 46.348L44.4714 44.1785L45.6674 45.8084Z" fill="#070618"/>
<path d="M37.189 46.2668L34.3852 46.9086L32.5621 46.7153L31.7526 46.0371L31.5156 45.3079L31.7526 43.9552L33.7325 40.907L37.7432 37.6911L40.5252 36.8197L43.7047 36.5645L44.7183 37.4432L45.0137 37.8734L44.2589 40.608L43.0228 42.6535L40.2882 44.7172L37.189 46.2668Z" fill="#070618"/>
<path d="M41.4199 37.9199L40.2555 41.4055L40.9345 42.4129L36.3854 44.6326L37.1866 39.5956L38.1372 40.0825L41.4199 37.9199Z" fill="#99FFCC"/>
<defs>
<filter id="filter0_d" x="0" y="13.9424" width="31.851" height="28.7298" filterUnits="userSpaceOnUse" color-interpolation-filters="sRGB">
<feFlood flood-opacity="0" result="BackgroundImageFix"/>
<feColorMatrix in="SourceAlpha" type="matrix" values="0 0 0 0 0 0 0 0 0 0 0 0 0 0 0 0 0 0 127 0" result="hardAlpha"/>
<feOffset/>
<feGaussianBlur stdDeviation="2"/>
<feComposite in2="hardAlpha" operator="out"/>
<feColorMatrix type="matrix" values="0 0 0 0 0.6 0 0 0 0 1 0 0 0 0 0.801575 0 0 0 1 0"/>
<feBlend mode="normal" in2="BackgroundImageFix" result="effect1_dropShadow"/>
<feBlend mode="normal" in="SourceGraphic" in2="effect1_dropShadow" result="shape"/>
</filter>
<filter id="filter1_d" x="21.0117" y="0.417969" width="21.3066" height="21.1883" filterUnits="userSpaceOnUse" color-interpolation-filters="sRGB">
<feFlood flood-opacity="0" result="BackgroundImageFix"/>
<feColorMatrix in="SourceAlpha" type="matrix" values="0 0 0 0 0 0 0 0 0 0 0 0 0 0 0 0 0 0 127 0" result="hardAlpha"/>
<feOffset/>
<feGaussianBlur stdDeviation="2"/>
<feComposite in2="hardAlpha" operator="out"/>
<feColorMatrix type="matrix" values="0 0 0 0 0.6 0 0 0 0 1 0 0 0 0 0.801575 0 0 0 1 0"/>
<feBlend mode="normal" in2="BackgroundImageFix" result="effect1_dropShadow"/>
<feBlend mode="normal" in="SourceGraphic" in2="effect1_dropShadow" result="shape"/>
</filter>
<filter id="filter2_d" x="25.2812" y="30.3838" width="27.2145" height="24.6164" filterUnits="userSpaceOnUse" color-interpolation-filters="sRGB">
<feFlood flood-opacity="0" result="BackgroundImageFix"/>
<feColorMatrix in="SourceAlpha" type="matrix" values="0 0 0 0 0 0 0 0 0 0 0 0 0 0 0 0 0 0 127 0" result="hardAlpha"/>
<feOffset/>
<feGaussianBlur stdDeviation="2"/>
<feComposite in2="hardAlpha" operator="out"/>
<feColorMatrix type="matrix" values="0 0 0 0 0.6 0 0 0 0 1 0 0 0 0 0.801575 0 0 0 1 0"/>
<feBlend mode="normal" in2="BackgroundImageFix" result="effect1_dropShadow"/>
<feBlend mode="normal" in="SourceGraphic" in2="effect1_dropShadow" result="shape"/>
</filter>
</defs>
</svg>
