<svg width="48" height="59" viewBox="0 0 48 59" fill="none" xmlns="http://www.w3.org/2000/svg">
<path d="M2.88646 53.6113H8.82916H31.9208L30.0531 54.5652L34.1281 56.155L12.225 58.0628L13.5833 56.9499L0 56.155L4.75416 54.5652L2.88646 53.6113Z" fill="#070618"/>
<g filter="url(#filter0_f)">
<path d="M39.4895 27.6471L35.8833 26.8227L34.1799 25.4818L35.2817 25.1722L32.7773 20.1216L33.7042 20.3862L34.0802 17.7493L32.877 15.6884L35.6822 14.0378L35.8833 12.5943L37.3129 9.13845L40.104 4.78906L38.9876 8.78025L40.4529 11.2551H42.1932V13.5231L46.0005 16.6153L42.9959 24.8626L39.4895 27.6471Z" fill="#99FFCC"/>
</g>
<path d="M34.5011 33.2267L36.9298 33.7396L37.0047 32.9752L36.7 31.8154L37.0557 31.4447L37.8795 31.592L38.4173 33.187L38.5297 32.9504L38.4531 31.8385L38.0718 30.7283L38.9279 30.3742L39.9491 31.367L40.2895 32.5252L40.5346 32.5053L40.4597 31.5324L40.2895 30.2088L41.1439 30.0615L41.8809 31.5672V33.1224L39.7993 35.419L33.6807 38.5411L31.7677 38.2747L30.127 36.6797" fill="white"/>
<path d="M33.529 38.9093H33.4905L31.6062 38.6368C31.5486 38.6283 31.4952 38.6016 31.4536 38.5606L29.8376 36.9286C29.7877 36.8773 29.7598 36.8083 29.7598 36.7364C29.7598 36.6646 29.7877 36.5956 29.8376 36.5443C29.8625 36.5189 29.8921 36.4988 29.9248 36.4851C29.9575 36.4714 29.9925 36.4643 30.0278 36.4643C30.0632 36.4643 30.0982 36.4714 30.1309 36.4851C30.1635 36.4988 30.1932 36.5189 30.2181 36.5443L31.7705 38.1119L33.4804 38.3574L39.3865 35.2272L41.3361 32.9942V31.567L40.7259 30.2685L40.337 30.3379L40.4728 31.4349L40.5482 32.4507C40.5538 32.5223 40.5309 32.5932 40.4847 32.6478C40.4385 32.7025 40.3727 32.7363 40.3018 32.7419L40.0604 32.7622C39.9983 32.768 39.9362 32.7515 39.885 32.7156C39.8338 32.6796 39.7967 32.6266 39.7804 32.5658L39.4636 31.4485L38.6354 30.6122L38.1878 30.8052L38.4845 31.7041C38.4916 31.7261 38.4961 31.7488 38.498 31.7718L38.5734 32.9078C38.5765 32.9531 38.5685 32.9985 38.5499 33.0399L38.4393 33.282C38.4167 33.3316 38.3799 33.3732 38.3335 33.4013C38.2871 33.4294 38.2334 33.4427 38.1794 33.4394C38.1251 33.435 38.0734 33.4141 38.0312 33.3793C37.989 33.3445 37.9582 33.2976 37.9431 33.2447L37.4636 31.7668L36.9607 31.672L36.8115 31.8328L37.0747 32.8756C37.0805 32.9064 37.0805 32.938 37.0747 32.9688L37.0009 33.7526C36.9967 33.7907 36.9847 33.8276 36.9656 33.8608C36.9466 33.894 36.9209 33.9229 36.8903 33.9456C36.8598 33.9681 36.8249 33.9839 36.7879 33.9918C36.7509 33.9996 36.7126 33.9995 36.6757 33.9913L34.2818 33.4665C34.2123 33.4507 34.1519 33.4079 34.1136 33.3473C34.0753 33.2868 34.0622 33.2134 34.0772 33.1431C34.0846 33.1082 34.0987 33.075 34.1188 33.0456C34.1389 33.0161 34.1646 32.991 34.1944 32.9717C34.2242 32.9523 34.2574 32.9391 34.2923 32.9328C34.3271 32.9265 34.3629 32.9272 34.3974 32.9349L36.493 33.3954L36.5349 32.9637L36.2465 31.8226C36.2353 31.7786 36.2353 31.7324 36.2464 31.6883C36.2575 31.6442 36.2795 31.6036 36.3102 31.5704L36.6606 31.1912C36.6914 31.158 36.7299 31.1331 36.7727 31.1189C36.8155 31.1047 36.8611 31.1016 36.9054 31.1099L37.7168 31.2606C37.7404 31.2659 37.7635 31.2739 37.7855 31.2843L37.6078 30.7307C37.5858 30.6656 37.589 30.5946 37.6166 30.5318C37.6443 30.4691 37.6944 30.4191 37.757 30.3921L38.5952 30.0298C38.6448 30.0091 38.6994 30.0035 38.7521 30.0137C38.8048 30.024 38.8534 30.0496 38.8919 30.0874L39.8978 31.1031L39.7804 30.1483C39.7716 30.0792 39.7895 30.0093 39.8304 29.9532C39.8713 29.8971 39.9321 29.859 40 29.847L40.8383 29.6963C40.8962 29.6863 40.9558 29.6956 41.0081 29.7228C41.0604 29.7499 41.1026 29.7935 41.1283 29.847L41.8542 31.3875C41.8711 31.4241 41.8803 31.464 41.881 31.5044V33.0957C41.8806 33.162 41.8561 33.2259 41.8123 33.2752L39.762 35.625C39.7406 35.6503 39.7144 35.671 39.6849 35.6859L33.6498 38.8805C33.6123 38.8996 33.571 38.9094 33.529 38.9093Z" fill="#070618"/>
<path d="M35.3059 35.2223L35.2695 34.9369L36.7074 34.7054L36.853 33.3789L37.1061 33.4148L36.9352 34.9602L35.3059 35.2223Z" fill="#070618"/>
<path d="M2.84748 35.96L1.10938 45.7161L2.43332 47.389L5.62606 46.6083L5.62267 44.7741L3.91512 43.9934L6.61902 38.7516L5.4733 38.1665L4.79775 37.0546L2.84748 35.96Z" fill="white"/>
<path d="M2.38987 47.7572C2.34755 47.7576 2.30568 47.7484 2.26747 47.7302C2.22926 47.7121 2.19571 47.6855 2.16936 47.6525L0.80428 45.9522C0.779108 45.9209 0.760939 45.8847 0.750978 45.8459C0.741017 45.8071 0.739502 45.7666 0.746534 45.7272L2.54038 35.8214C2.54808 35.7775 2.56625 35.736 2.59335 35.7005C2.62045 35.665 2.6557 35.6365 2.69614 35.6174C2.73667 35.5985 2.7811 35.5895 2.82582 35.591C2.87053 35.5925 2.91425 35.6045 2.9534 35.6261L4.96425 36.7388C5.00609 36.7619 5.0411 36.7956 5.06576 36.8364L5.72205 37.8985L6.8316 38.4583C6.86499 38.4749 6.89474 38.4979 6.91908 38.526C6.94342 38.5542 6.96187 38.5869 6.97336 38.6223C6.98457 38.6575 6.98865 38.6946 6.98534 38.7314C6.98204 38.7683 6.97142 38.8041 6.95411 38.8368L4.30446 43.8943L5.7938 44.5657C5.84277 44.588 5.8843 44.6239 5.91345 44.669C5.94261 44.7141 5.95817 44.7666 5.9583 44.8203V46.6829C5.95852 46.746 5.9374 46.8073 5.89835 46.857C5.85929 46.9067 5.80458 46.9418 5.74305 46.9567L2.45463 47.7502C2.4334 47.7551 2.41166 47.7574 2.38987 47.7572ZM1.32406 45.701L2.49663 47.1642L5.40002 46.4666V45.0052L3.80569 44.2849C3.77089 44.2693 3.7397 44.2467 3.7141 44.2185C3.6885 44.1903 3.66904 44.1571 3.65694 44.121C3.64383 44.0853 3.63845 44.0473 3.64116 44.0094C3.64388 43.9716 3.65462 43.9347 3.67268 43.9012L6.32233 38.8211L5.39653 38.3537C5.34993 38.331 5.31099 38.2952 5.28452 38.2508L4.62473 37.1835L3.02165 36.2975L1.32406 45.701Z" fill="#070618"/>
<path d="M8.66857 44.672L8.40081 53.6084L7.35352 55.7279L14.9371 55.3092L14.7337 53.7216L16.5114 48.9042L20.2685 48.0049L22.197 54.4184L29.0248 55.8687L26.5252 51.7892L28.0842 47.7303L27.8826 37.0862L25.2847 27.4805L7.78226 33.2642L10.8496 38.3408L8.66857 44.672Z" fill="white"/>
<path d="M29.1144 56.2361C29.0956 56.2378 29.0768 56.2378 29.058 56.2361L22.1709 54.795C22.1226 54.7848 22.0779 54.7619 22.0415 54.7286C22.0052 54.6953 21.9784 54.6528 21.9642 54.6057L20.0929 48.4713L16.6989 49.2728L14.9797 53.857L15.1762 55.368C15.1813 55.4056 15.1785 55.4438 15.1679 55.4803C15.1573 55.5167 15.1392 55.5505 15.1147 55.5795C15.0908 55.6083 15.0611 55.6318 15.0275 55.6486C14.994 55.6653 14.9573 55.6749 14.9199 55.6767L7.27574 56.0962C7.22781 56.0988 7.18004 56.0888 7.13717 56.0673C7.0943 56.0458 7.05782 56.0134 7.03136 55.9734C7.00519 55.9333 6.98986 55.887 6.98687 55.8392C6.98388 55.7914 6.99331 55.7437 7.01426 55.7006L8.03963 53.6541L8.30794 44.8336C8.30969 44.8058 8.31486 44.7783 8.32332 44.7517L10.4817 38.5798L7.45688 33.646C7.43507 33.6109 7.42158 33.5713 7.41744 33.5303C7.41329 33.4892 7.4186 33.4477 7.43296 33.409C7.44644 33.3694 7.46887 33.3334 7.4985 33.3038C7.52813 33.2743 7.56417 33.2519 7.60385 33.2384L25.2556 27.4945C25.2908 27.4827 25.3282 27.4783 25.3652 27.4815C25.4023 27.4847 25.4383 27.4955 25.4709 27.5133C25.5037 27.5312 25.5326 27.5556 25.5558 27.5849C25.579 27.6142 25.5961 27.6478 25.6059 27.6838L28.2257 37.2342C28.2308 37.2561 28.2343 37.2783 28.236 37.3007L28.4377 47.8744C28.4392 47.91 28.4328 47.9455 28.4189 47.9784L26.8962 51.8821L29.3468 55.8217C29.3764 55.8661 29.3922 55.9183 29.3922 55.9717C29.3922 56.0251 29.3764 56.0773 29.3468 56.1218C29.3207 56.1587 29.2857 56.1884 29.2451 56.2084C29.2045 56.2283 29.1596 56.2378 29.1144 56.2361ZM22.4495 54.2868L28.5487 55.5624L26.3579 52.0527C26.3359 52.0164 26.3224 51.9755 26.3186 51.9333C26.3147 51.891 26.3206 51.8485 26.3357 51.8088L27.8891 47.8283L27.6874 37.3383L25.1531 28.1034L8.10628 33.6545L11.0115 38.4024C11.0326 38.4372 11.0456 38.4762 11.0498 38.5166C11.0539 38.557 11.049 38.5978 11.0354 38.6361L8.85651 44.8899L8.58821 53.7274C8.58751 53.7672 8.57757 53.8063 8.55916 53.8417L7.71494 55.5266L14.5952 55.1514L14.4243 53.8655C14.4174 53.8212 14.4228 53.7758 14.4396 53.7342L16.2323 48.9488C16.2477 48.9065 16.2734 48.8688 16.3072 48.839C16.3409 48.8092 16.3816 48.7883 16.4254 48.7782L20.2142 47.8846C20.2821 47.8685 20.3535 47.8788 20.4141 47.9133C20.4748 47.9478 20.52 48.004 20.5406 48.0705L22.4495 54.2868Z" fill="#070618"/>
<path d="M9.45258 6.42804C9.36998 6.42804 8.1377 7.39816 8.1377 7.39816L8.87605 22.3676L6.98633 25.5268L12.3285 30.4302L17.9167 27.3613L24.154 29.5232L27.1884 22.2908L27.1294 6.15184L26.2258 5.70856L25.3206 5.654L25.152 3.99168L20.3038 1.30469L15.3729 1.60987L10.2246 4.73845L10.3932 6.40076L9.45258 6.42804Z" fill="white"/>
<path d="M12.1809 30.7984C12.1144 30.7985 12.0502 30.7734 12.0005 30.728L6.70557 25.7893C6.66028 25.7465 6.63073 25.689 6.62191 25.6264C6.61308 25.5638 6.62552 25.5001 6.65712 25.4458L8.49505 22.336L7.76489 7.35157C7.76319 7.30752 7.77168 7.26369 7.78969 7.22368C7.80771 7.18368 7.83471 7.14864 7.86848 7.12146C9.14668 6.09114 9.23023 6.09114 9.33215 6.09114L9.9704 6.07225L9.83674 4.69848C9.83112 4.64659 9.8403 4.59413 9.86314 4.54749C9.88598 4.50085 9.9215 4.46203 9.96539 4.43575L15.0631 1.28294C15.1003 1.26037 15.1421 1.24686 15.1851 1.24345L20.0723 0.93607C20.123 0.932821 20.1735 0.944754 20.2177 0.970416L25.013 3.66128C25.0512 3.68303 25.0837 3.71388 25.1078 3.75124C25.132 3.78859 25.147 3.83136 25.1517 3.87593L25.2904 5.31668L25.9587 5.35789C25.9937 5.3591 26.028 5.3685 26.059 5.38536L26.9562 5.83012C27.0013 5.85268 27.0394 5.88784 27.066 5.93157C27.0926 5.9753 27.1066 6.02583 27.1066 6.0774L27.1885 22.3188C27.1887 22.356 27.1813 22.3929 27.1668 22.427L24.1592 29.7097C24.1328 29.774 24.0837 29.8258 24.0217 29.8545C23.9597 29.8831 23.8895 29.8866 23.8251 29.8642L17.7449 27.7349L12.3146 30.7657C12.2735 30.7882 12.2275 30.7995 12.1809 30.7984ZM7.23022 25.5334L12.2194 30.187L17.5911 27.1836C17.6238 27.1653 17.6599 27.1542 17.697 27.1509C17.7341 27.1477 17.7714 27.1524 17.8067 27.1647L23.7599 29.258L26.6555 22.2638L26.5753 6.25255L25.8769 5.90911L25.0414 5.85588C24.9778 5.85182 24.9176 5.82479 24.8714 5.77954C24.8252 5.7343 24.7961 5.67376 24.7891 5.6086L24.6404 4.07856L20.0272 1.48042L15.2837 1.7775L10.3865 4.80666L10.5335 6.30579C10.5371 6.34343 10.5331 6.38142 10.5219 6.41744C10.5107 6.45346 10.4925 6.48675 10.4683 6.51529C10.4441 6.54393 10.4144 6.56711 10.381 6.58337C10.3477 6.59962 10.3114 6.6086 10.2745 6.60974L9.40232 6.63549C9.25027 6.73166 8.76406 7.10601 8.30792 7.46834L9.03473 22.3926C9.03654 22.4474 9.02322 22.5016 8.99631 22.5489L7.23022 25.5334Z" fill="#070618"/>
<path d="M11.3752 17.7622L11.0254 13.2623L18.0855 14.8164L24.9832 12.3652V17.2334L18.3541 20.4761L11.3752 17.7622Z" fill="#070618"/>
<path d="M6.75519 24.7548C6.62996 24.7548 5.00525 27.5742 5.00525 27.5742L5.12879 29.7497L1.47656 35.5429L2.88126 35.761L6.01392 39.2655L7.83834 39.1762L6.18655 51.0752L13.5688 47.1964L16.8318 46.0375L29.6941 46.3809L28.5095 40.0845L27.934 37.1157L33.9709 35.5584L34.5344 32.0934L32.5746 29.954L30.7384 28.091L29.4572 25.4622L26.8289 22.3184L16.3833 28.1219L8.80978 22.3184L6.75519 24.7548Z" fill="white"/>
<path d="M6.43048 51.4443C6.37429 51.4444 6.31952 51.4262 6.27394 51.3925C6.23355 51.3632 6.20181 51.323 6.18221 51.2764C6.16261 51.2297 6.15591 51.1785 6.16284 51.1282L7.76026 39.4862L6.27225 39.5622C6.23226 39.564 6.19236 39.5567 6.15542 39.5409C6.11847 39.5251 6.08537 39.5011 6.05847 39.4707L3.00671 36.0156L1.70555 35.81C1.66111 35.8026 1.61912 35.784 1.58331 35.756C1.54749 35.728 1.51895 35.6914 1.5002 35.6493C1.48192 35.6071 1.47404 35.5609 1.47727 35.5148C1.4805 35.4687 1.49473 35.4241 1.51871 35.385L5.10407 29.634L4.98624 27.5333C4.98245 27.479 4.99477 27.4248 5.02159 27.3778C6.17462 25.3549 6.58703 24.7088 6.7907 24.5015L8.83586 22.0518C8.88007 21.9962 8.9436 21.9605 9.01301 21.9521C9.08243 21.9437 9.1523 21.9634 9.20787 22.0069L16.5991 27.7389L26.835 21.9844C26.8899 21.9539 26.9534 21.9437 27.0147 21.9557C27.0761 21.9677 27.1315 22.001 27.1717 22.0501L29.7774 25.2115C29.7907 25.2288 29.8025 25.2473 29.8127 25.2668L31.0785 27.8805L32.8729 29.7238L34.8305 31.8833C34.8584 31.9142 34.879 31.9514 34.8907 31.9918C34.9024 32.0323 34.9048 32.0749 34.8979 32.1165L34.339 35.6027C34.3304 35.6558 34.3069 35.7052 34.2713 35.7448C34.2357 35.7844 34.1896 35.8125 34.1387 35.8256L28.3803 37.3302L30.0804 46.3826C30.0887 46.4232 30.0877 46.4653 30.0775 46.5055C30.0673 46.5457 30.0481 46.5828 30.0214 46.6141C29.9956 46.6458 29.9631 46.6712 29.9264 46.6882C29.8896 46.7053 29.8496 46.7136 29.8093 46.7126L17.0687 46.3774L13.8873 47.5193L6.56178 51.4132C6.52124 51.4347 6.47609 51.4454 6.43048 51.4443ZM8.07335 38.9161C8.11094 38.9163 8.14809 38.9244 8.18254 38.9398C8.21698 38.9553 8.24799 38.9778 8.27366 39.006C8.3003 39.0364 8.32014 39.0724 8.33178 39.1115C8.34341 39.1506 8.34654 39.1918 8.34098 39.2323L6.77219 50.6738L13.6483 47.0184C13.6595 47.0118 13.6713 47.0066 13.6837 47.0028L16.929 45.8367C16.9602 45.8247 16.9934 45.8194 17.0266 45.8212L29.4828 46.1477L27.7995 37.1644C27.7867 37.0947 27.8003 37.0227 27.8376 36.9629C27.8748 36.9032 27.9328 36.8603 27.9998 36.8431L33.8323 35.3211L34.3373 32.1493L32.4773 30.097L30.6577 28.2295C30.6372 28.2083 30.6201 28.1838 30.6072 28.157L29.3397 25.5484L26.899 22.5839L16.7018 28.3142C16.6565 28.3402 16.6049 28.3521 16.5531 28.3485C16.5014 28.3448 16.4518 28.3257 16.4106 28.2934L9.08162 22.6115L7.20142 24.8573C7.18485 24.8773 7.16557 24.8948 7.14418 24.9092C6.97586 25.113 6.20829 26.3948 5.52994 27.5817L5.64776 29.6876C5.65321 29.7484 5.63837 29.8093 5.60568 29.8603L2.19875 35.3297L3.18347 35.4852C3.24537 35.4939 3.30215 35.5251 3.34337 35.5733L6.37324 39.0025L8.05651 38.9179L8.07335 38.9161Z" fill="#070618"/>
<path d="M8.20133 51.8116C8.18541 51.8135 8.16937 51.8135 8.15345 51.8116L6.09515 51.3276C6.02853 51.3116 5.96976 51.2641 5.93154 51.1954C5.89333 51.1268 5.87873 51.0425 5.89091 50.9608C5.89741 50.9203 5.91036 50.8817 5.92903 50.8474C5.9477 50.813 5.97172 50.7835 5.99972 50.7604C6.02773 50.7374 6.05917 50.7214 6.09224 50.7132C6.12532 50.7051 6.15938 50.705 6.19248 50.7129L8.24919 51.1969C8.31602 51.2125 8.37505 51.2599 8.41334 51.3287C8.45163 51.3975 8.46604 51.482 8.45342 51.5638C8.44127 51.6343 8.40952 51.6976 8.36357 51.7428C8.31761 51.7879 8.26029 51.8123 8.20133 51.8116Z" fill="#070618"/>
<path d="M28.1645 48.1266C28.1306 48.1264 28.0972 48.1185 28.0662 48.1034C28.0353 48.0883 28.0076 48.0662 27.9849 48.0386C27.9434 47.9864 27.9223 47.9183 27.9262 47.8491C27.9301 47.7799 27.9587 47.7151 28.0057 47.6689L29.3652 46.3494C29.3886 46.3265 29.4159 46.3089 29.4456 46.2976C29.4753 46.2863 29.5067 46.2816 29.538 46.2837C29.5693 46.2858 29.6 46.2947 29.6281 46.3099C29.6563 46.3251 29.6814 46.3463 29.7021 46.3722C29.723 46.3978 29.739 46.4277 29.7493 46.4601C29.7595 46.4925 29.7638 46.5268 29.7619 46.5611C29.7599 46.5953 29.7518 46.6288 29.738 46.6596C29.7242 46.6904 29.7049 46.7178 29.6813 46.7404L28.3218 48.0614C28.2785 48.1037 28.2225 48.127 28.1645 48.1266Z" fill="#070618"/>
<path d="M16.6811 46.2828L14.332 31.7035L24.2494 23.4248" fill="white"/>
<path d="M16.7253 46.2828L14.332 31.7071L24.4468 23.4248L24.6167 23.6414L14.6247 31.8206L16.9928 46.2364L16.7253 46.2828Z" fill="#070618"/>
<path d="M16.5371 36.856L16.8317 38.1725L18.741 38.042V36.3291L16.5371 36.856Z" fill="#070618"/>
<path d="M16.9043 40.1739L17.1989 41.4908L19.1082 41.3588V39.6475L16.9043 40.1739Z" fill="#070618"/>
<path d="M26.7242 30.7145L26.457 30.7686L27.7402 37.2569L28.0074 37.2029L26.7242 30.7145Z" fill="#070618"/>
<path d="M8.93911 33.3077L7.70117 39.1572L7.96756 39.2149L9.2055 33.3653L8.93911 33.3077Z" fill="#070618"/>
<path d="M13.1326 55.1308H12.8633V53.0959L12.8934 53.0569L16.329 48.8633L16.5364 49.0362L13.1326 53.1942V55.1308Z" fill="#070618"/>
<path d="M20.5573 48.4952C20.514 48.4953 20.4713 48.4855 20.4333 48.4667C20.3954 48.4479 20.3633 48.4207 20.3401 48.3876L20.2501 48.2626C20.2256 48.2285 20.2116 48.1892 20.2093 48.1486C20.207 48.108 20.2167 48.0676 20.2372 48.0315C20.2571 47.9949 20.2874 47.9638 20.325 47.9413C20.3626 47.9189 20.4061 47.9058 20.4511 47.9036L22.8734 47.7582C22.9416 47.7546 23.0086 47.7755 23.0598 47.8164C23.111 47.8572 23.1423 47.9147 23.1468 47.9762C23.1492 48.0068 23.1449 48.0376 23.134 48.0666C23.1231 48.0957 23.1059 48.1225 23.0835 48.1455C23.061 48.1685 23.0337 48.1872 23.0032 48.2006C22.9726 48.2139 22.9394 48.2217 22.9056 48.2233L20.7953 48.3454C20.7753 48.389 20.741 48.426 20.6972 48.4516C20.6565 48.4786 20.6077 48.4938 20.5573 48.4952Z" fill="#070618"/>
<path d="M24.7599 54.7632L23.1523 52.743L20.209 48.2769L20.4472 48.127L23.3835 52.5844L24.984 54.5942L24.7599 54.7632Z" fill="#070618"/>
<path d="M28.211 40.7526L24.5362 39.6319L24.25 38.1719L28.0257 39.2974L27.9479 39.5434L24.5941 38.5449L24.7679 39.4325L28.2904 40.5066L28.211 40.7526Z" fill="#070618"/>
<path d="M9.28568 41.49L13.5972 39.2774L13.4962 38.1719L9.18945 40.3339" fill="white"/>
<path d="M9.04208 41.8592L8.9225 41.6063L13.3208 39.1762L13.2421 38.2441L8.94216 40.5681L8.82422 40.3134L13.4682 37.8037L13.5992 39.3424L9.04208 41.8592Z" fill="#070618"/>
<path d="M27.1895 24.2321L28.6947 25.8435L30.8626 26.0055L28.4542 23.4248L27.1895 24.2321Z" fill="white"/>
<path d="M31.2299 26.3742L28.7683 26.1812L27.1895 24.3917L28.6267 23.4248L31.2299 26.3742ZM28.8982 25.9379L30.612 26.0728L28.5801 23.7639L27.5808 24.4372L28.8982 25.9379Z" fill="#070618"/>
<path d="M27.9896 23.4248L27.1895 24.0639L28.5518 25.8917L29.7606 26.0055" fill="white"/>
<path d="M29.7402 26.0055L28.5682 25.8988L27.1895 24.0875L28.0353 23.4248L28.1707 23.6335L27.5301 24.1353L28.6847 25.6519L29.7606 25.7507L29.7402 26.0055Z" fill="#070618"/>
<path d="M4.87927 27.8485C4.82909 27.8482 4.77997 27.8346 4.73736 27.8092L4.17829 27.4816C4.11962 27.4471 4.07655 27.3929 4.05756 27.3295C4.03857 27.2661 4.04505 27.1982 4.07571 27.1392L5.43321 24.5561C5.44751 24.5282 5.46725 24.5032 5.49135 24.4824L7.01811 23.1245C7.06405 23.0842 7.12299 23.0601 7.18517 23.0562C7.24735 23.0523 7.30904 23.0689 7.36005 23.1032L7.60454 23.267C7.66381 23.3075 7.70392 23.3689 7.7161 23.4376C7.72827 23.5064 7.71152 23.577 7.66951 23.6339C7.62724 23.6907 7.5632 23.7291 7.49143 23.7408C7.41965 23.7525 7.34599 23.7364 7.28653 23.6962L7.22328 23.6536L5.89826 24.8346L4.67753 27.1572L5.01947 27.3571C5.05026 27.3749 5.07707 27.3984 5.09838 27.4261C5.11969 27.4539 5.13508 27.4854 5.14366 27.5189C5.15223 27.5524 5.15383 27.5871 5.14836 27.6212C5.14289 27.6553 5.13046 27.688 5.11179 27.7174C5.0879 27.7565 5.05401 27.789 5.01331 27.8119C4.97261 27.8348 4.92647 27.8474 4.87927 27.8485Z" fill="#070618"/>
<path d="M30.032 26.7424C29.9622 26.7428 29.8946 26.7185 29.8416 26.674C29.7886 26.6295 29.7536 26.5678 29.7431 26.5001C29.7321 26.4253 29.7515 26.3493 29.797 26.2883C29.8425 26.2274 29.9106 26.1864 29.9866 26.1741L30.3827 26.1135L28.3187 23.685L27.9554 23.8276C27.9198 23.8414 27.8819 23.8483 27.8436 23.8477C27.8054 23.8472 27.7676 23.8392 27.7325 23.8243C27.6974 23.8094 27.6656 23.7879 27.639 23.7609C27.6124 23.7339 27.5915 23.7021 27.5775 23.6672C27.5488 23.597 27.5498 23.5186 27.5801 23.4491C27.6104 23.3796 27.6676 23.3247 27.7392 23.2966L28.2988 23.0757C28.3561 23.0535 28.4191 23.0496 28.4788 23.0647C28.5386 23.0797 28.5919 23.1129 28.6312 23.1594L31.1621 26.1367C31.1951 26.1757 31.217 26.2227 31.2256 26.2727C31.2342 26.3228 31.2292 26.3742 31.2111 26.4217C31.1919 26.4683 31.1608 26.5092 31.1206 26.5404C31.0805 26.5717 31.0328 26.5922 30.9822 26.5999L30.0738 26.7371L30.032 26.7424Z" fill="#070618"/>
<path d="M8.82422 22.3479L14.5673 31.5363L27.0035 22.4272L27.1897 21.582L18.2411 26.9188L8.82422 22.3479Z" fill="#070618"/>
<path d="M14.4237 31.5358C14.392 31.5358 14.3605 31.5306 14.3306 31.5204L9.56839 29.8798C9.49955 29.8557 9.44289 29.8066 9.41017 29.7428C9.37745 29.6791 9.37118 29.6055 9.39267 29.5373L10.1131 27.0833L8.47186 22.3156C8.44783 22.2509 8.44966 22.1797 8.47701 22.1163C8.50436 22.0528 8.55523 22.0017 8.61948 21.9731C8.68123 21.9469 8.75055 21.943 8.81497 21.9622C8.87939 21.9813 8.9347 22.0223 8.97093 22.0776L14.6574 31.1043C14.6881 31.1527 14.7025 31.2092 14.6988 31.2659C14.695 31.3227 14.6732 31.3769 14.6363 31.4211C14.6119 31.4544 14.5801 31.482 14.5433 31.5018C14.5065 31.5217 14.4657 31.5333 14.4237 31.5358ZM10.0059 29.4465L13.7665 30.7429L9.78981 24.4374L10.6684 26.9959C10.6866 27.0516 10.6866 27.1115 10.6684 27.1672L10.0059 29.4465Z" fill="#070618"/>
<path d="M4.41602 27.1813L7.00586 28.955L9.19104 25.4364L7.23634 23.4248L5.77076 24.7597L4.41602 27.1813Z" fill="white"/>
<path d="M6.86653 28.955L4.04688 27.15L5.49018 24.7608L7.06214 23.4248L9.18921 25.4777L6.86653 28.955ZM4.41343 27.0742L6.77841 28.5886L8.83499 25.4966L7.04805 23.777L5.70166 24.9187L4.41343 27.0742Z" fill="#070618"/>
<path d="M7.01939 27.1119L6.98633 25.3512L7.35364 25.2686V27.0893L7.01939 27.1119Z" fill="#070618"/>
<path d="M8.08874 25.6367L5.51758 26.2307L5.59142 26.7428L8.03194 26.218L8.08874 25.6367Z" fill="#070618"/>
<path d="M15.3387 36.3281C15.303 36.3281 15.2676 36.3208 15.2347 36.3064C15.2018 36.2921 15.1721 36.2711 15.1471 36.2447C15.0967 36.1919 15.0684 36.1207 15.0684 36.0465C15.0684 35.9723 15.0967 35.9011 15.1471 35.8484L21.3207 29.6023V27.5272C21.3208 27.4878 21.329 27.4489 21.3446 27.4129C21.3603 27.377 21.383 27.3449 21.4114 27.3186L26.7399 22.3898C26.7932 22.3404 26.8633 22.3148 26.9347 22.3187C27.0062 22.3227 27.0733 22.3557 27.1212 22.4107C27.1688 22.4661 27.1932 22.5387 27.1891 22.6126C27.185 22.6866 27.1528 22.7558 27.0994 22.8052L21.8616 27.6523V29.7205C21.8614 29.7578 21.8541 29.7947 21.8399 29.829C21.8258 29.8633 21.8052 29.8944 21.7793 29.9203L15.5318 36.2481C15.5063 36.274 15.4761 36.2944 15.443 36.3081C15.4098 36.3218 15.3744 36.3286 15.3387 36.3281Z" fill="#070618"/>
<path d="M9.18945 6.48163L9.40552 12.6359L17.832 14.5768L25.5555 11.7733L25.7184 5.7816L24.8259 5.72852L9.18945 6.48163Z" fill="white"/>
<path d="M17.8395 14.9431C17.8188 14.9456 17.7979 14.9456 17.7772 14.9431L9.25322 12.9592C9.19512 12.9458 9.14303 12.9134 9.10503 12.8671C9.06702 12.8208 9.04523 12.7632 9.04302 12.7031L8.82442 6.41236C8.82168 6.34067 8.84722 6.27081 8.89543 6.21807C8.94365 6.16532 9.01062 6.13397 9.0817 6.13089L24.9038 5.35938H24.9324L25.8338 5.41533C25.9036 5.41928 25.9692 5.45052 26.0167 5.50244C26.0641 5.55436 26.0895 5.62286 26.0877 5.69341L25.9195 11.8197C25.9179 11.8743 25.9001 11.9271 25.8683 11.9712C25.8365 12.0154 25.7922 12.0489 25.7413 12.0673L17.9252 14.9329C17.8975 14.9414 17.8684 14.9449 17.8395 14.9431ZM9.57609 12.4691L17.8159 14.3869L25.3831 11.6128L25.5361 5.93589L24.9089 5.89689L9.37429 6.64805L9.57609 12.4691Z" fill="#070618"/>
<path d="M11.117 9.41504H10.5669L10.291 9.78372L10.5669 10.1524H11.117L11.3929 9.78372L11.117 9.41504Z" fill="#070618"/>
<path d="M24.3412 9.41504H23.7902L23.5156 9.78372L23.7902 10.1524H24.3412L24.6175 9.78372L24.3412 9.41504Z" fill="#070618"/>
<path d="M19.1055 13.8993L19.3447 14.6726L20.899 16.0519L23.4104 15.0481L23.5132 13.8398L19.1055 13.8993Z" fill="#95FFCB"/>
<path d="M16.5365 14.2674L16.3172 15.0401L14.8924 16.4201L12.5903 15.4171L12.4961 14.208L16.5365 14.2674Z" fill="#95FFCB"/>
<g filter="url(#filter1_f)">
<path d="M19.1055 13.8993L19.3447 14.6726L20.899 16.0519L23.4104 15.0481L23.5132 13.8398L19.1055 13.8993Z" fill="#95FFCB"/>
</g>
<g filter="url(#filter2_f)">
<path d="M16.5365 14.2674L16.3172 15.0401L14.8924 16.4201L12.5903 15.4171L12.4961 14.208L16.5365 14.2674Z" fill="#95FFCB"/>
</g>
<g filter="url(#filter3_f)">
<path d="M19.1055 13.8993L19.3447 14.6726L20.899 16.0519L23.4104 15.0481L23.5132 13.8398L19.1055 13.8993Z" fill="#95FFCB"/>
</g>
<g filter="url(#filter4_f)">
<path d="M16.5365 14.2674L16.3172 15.0401L14.8924 16.4201L12.5903 15.4171L12.4961 14.208L16.5365 14.2674Z" fill="#95FFCB"/>
</g>
<g filter="url(#filter5_f)">
<path d="M19.1055 13.8993L19.3447 14.6726L20.899 16.0519L23.4104 15.0481L23.5132 13.8398L19.1055 13.8993Z" fill="#95FFCB"/>
</g>
<g filter="url(#filter6_f)">
<path d="M16.5365 14.2674L16.3172 15.0401L14.8924 16.4201L12.5903 15.4171L12.4961 14.208L16.5365 14.2674Z" fill="#95FFCB"/>
</g>
<path d="M27.2679 35.5911L27.1895 35.3176L32.5585 33.8211L33.1539 31.167L33.4337 31.2288L32.8009 34.047L27.2679 35.5911Z" fill="#070618"/>
<path d="M4.26709 33.3787L4.04688 33.2089L6.35328 29.6869L6.73152 28.5859L6.98536 28.6882L6.58358 29.8403L4.26709 33.3787Z" fill="#070618"/>
<path d="M32.4388 33.7481L31.181 30.3961L28.8628 28.3316L28.291 26.0725L28.5613 26.0059L29.1123 28.1847L31.4183 30.239L32.6987 33.6525L32.4388 33.7481Z" fill="#070618"/>
<path d="M7.89428 37.4349L4.20877 33.3187L3.01578 33.6642L2.94531 33.4004L4.29235 33.0107L8.08765 37.2494L7.89428 37.4349Z" fill="#070618"/>
<path d="M8.41192 49.9699L8.08984 49.9271L8.79476 46.2258L8.86565 33.748H9.19178L9.11683 46.2583L8.41192 49.9699Z" fill="#070618"/>
<path d="M18.7391 9.46991L18.0579 9.25988L17.3588 7.94043L16.8349 9.27682L16.168 9.67654L17.6449 12.3646L18.7391 9.46991Z" fill="#070618"/>
<path d="M17.9301 4.99147L15.0684 1.76679L15.2722 1.58764L17.8964 4.54611L19.9833 1.30469L20.2107 1.45035L17.9301 4.99147Z" fill="#070618"/>
<path d="M18.3153 20.336L18.043 20.3408L18.1168 24.5751L18.3892 24.5703L18.3153 20.336Z" fill="#070618"/>
<path d="M11.2389 17.5083L8.6875 22.3223L8.92761 22.4524L11.479 17.6384L11.2389 17.5083Z" fill="#070618"/>
<path d="M24.8787 17.0317L24.6348 17.1543L26.8648 21.6913L27.1087 21.5687L24.8787 17.0317Z" fill="#070618"/>
<path d="M9.31904 12.234L7.95703 13.0508L8.09596 13.2877L9.45797 12.4709L9.31904 12.234Z" fill="#070618"/>
<path d="M25.88 11.6718L25.7617 11.9199L26.6244 12.3405L26.7427 12.0924L25.88 11.6718Z" fill="#070618"/>
<path d="M8.64605 51.4442L8.98386 50.2345L17.0915 46.6053H28.4084L28.5773 47.4694L29.7597 46.4325L17.0915 45.9141L13.7133 47.1238L6.61914 50.9258L8.64605 51.4442Z" fill="#070618"/>
<path d="M35.3319 21.2802L34.4785 17.0063L34.9783 15.9996L36.2466 15.735L41.1738 15.6943L41.815 15.7303L43.132 16.5131L42.3069 21.8501L40.8469 24.7573L39.173 26.553L38.0572 24.2187L37.1818 22.6923L35.3319 21.2802Z" fill="white"/>
<path d="M36.1595 15.8319L34.9015 16.0717L34.3359 17.0205L37.471 17.5874L41.7356 17.3861L43.3186 16.5646L42.0477 15.8452L41.3976 15.7979L36.1595 15.8319Z" fill="white"/>
<path fill-rule="evenodd" clip-rule="evenodd" d="M41.3445 15.5688C41.3408 15.5685 41.3372 15.5683 41.3335 15.5684L36.2681 15.6044C36.2597 15.6044 36.2513 15.6053 36.243 15.607L35.0266 15.8607C34.9902 15.8682 34.959 15.8914 34.9413 15.9239L34.411 16.8969C34.3893 16.9212 34.3775 16.9534 34.379 16.9867C34.379 17.0011 34.3813 17.0154 34.3862 17.0292L35.2499 21.3048C35.2513 21.334 35.2628 21.3628 35.2846 21.3857C35.2988 21.4006 35.3158 21.4113 35.334 21.4177L37.0739 22.764C37.0788 22.7713 37.0844 22.778 37.0906 22.784L37.9902 24.2708C37.9924 24.2758 37.9949 24.2806 37.9978 24.2853L39.1086 26.6944C39.1187 26.7163 39.1346 26.7343 39.1539 26.747C39.2058 26.7822 39.2771 26.7743 39.3198 26.7262L40.9873 24.8475C40.9946 24.8393 41.0009 24.8301 41.0058 24.8202L42.4564 21.9161C42.4658 21.8973 42.4703 21.8766 42.4696 21.8557L43.3159 16.5316C43.3175 16.5238 43.3184 16.5159 43.3186 16.5077C43.3187 16.5001 43.3182 16.4925 43.317 16.4851C43.3107 16.4457 43.2858 16.4113 43.2503 16.393L42.0299 15.6374C42.0127 15.6268 41.9933 15.6205 41.9732 15.6189L41.3445 15.5688ZM42.345 21.0278L43.0258 16.7448L41.8013 17.4398L42.345 21.0278ZM41.5554 17.5059L37.6944 17.7052L38.8231 22.4965L40.0347 23.7978L41.8719 19.5947L41.5554 17.5059ZM41.943 20.0635L42.2074 21.8081L40.443 23.495L41.943 20.0635ZM41.9123 22.4396L40.7867 24.693L39.5289 26.11L40.1829 24.0931L41.9123 22.4396ZM37.3965 22.8012L38.0774 23.9268L38.5212 22.7022L37.3965 22.8012ZM38.7564 22.7956L39.9292 24.0553L39.203 26.2952L38.2428 24.2128L38.7564 22.7956ZM38.4501 22.0165L36.8612 19.9514C36.8573 19.9414 36.852 19.9318 36.8452 19.9227L34.8073 17.1757L37.4321 17.6948L38.4501 22.0165ZM36.5789 19.9878L34.7417 17.5113L35.4564 21.0493L36.5789 19.9878ZM35.5749 21.2849L37.2267 22.5631L38.4677 22.4538L36.7288 20.1936L35.5749 21.2849ZM35.1358 16.0954L36.2825 15.8563L41.3298 15.8204L41.9224 15.8677L42.9448 16.5006L41.6248 17.2499L37.5465 17.4605L34.6987 16.8972L35.1358 16.0954Z" fill="#070618"/>
<path d="M36.4922 16.1165L37.2844 14.1778L37.9481 14.1167L38.6505 11.1445L39.7026 14.1271L41.1632 16.0658L39.0172 16.5132L37.1606 16.458L36.4922 16.1165Z" fill="white"/>
<path fill-rule="evenodd" clip-rule="evenodd" d="M38.806 10.9282C38.7878 10.8749 38.7362 10.84 38.6796 10.8429C38.6231 10.8459 38.5754 10.8858 38.5628 10.9408L37.8696 13.9721L37.2864 14.0277C37.239 14.0322 37.1981 14.0628 37.1807 14.1069L36.376 16.1421C36.3524 16.2018 36.3776 16.2696 36.4345 16.2997L37.1134 16.6582C37.1305 16.6672 37.1495 16.6722 37.1688 16.6728L39.0389 16.7302C39.047 16.7312 39.0551 16.7313 39.0631 16.7307C39.0706 16.7305 39.0781 16.7295 39.0854 16.7279L41.2164 16.2688C41.2485 16.2715 41.2807 16.2619 41.3061 16.2417C41.3289 16.2273 41.3468 16.2059 41.3567 16.1801C41.372 16.1403 41.3661 16.0955 41.3409 16.0611L39.8685 14.0413L38.806 10.9282ZM40.8759 16.0843L39.3724 16.4082L40.0271 15.5886L40.8759 16.0843ZM39.9785 14.6211L40.7997 15.7476L40.1099 15.3448L39.9785 14.6211ZM39.633 14.1342L38.7103 11.4309L38.1147 14.0352L38.5748 14.739C38.5809 14.7483 38.5857 14.7584 38.5891 14.769L39.1012 16.3429L39.8612 15.3915L39.633 14.1342ZM37.7091 14.2406L37.9331 14.2193L38.0821 14.4472L37.7091 14.2406ZM38.8775 16.4731L38.4018 15.0106L36.7323 16.1716L37.206 16.4218L38.8775 16.4731ZM37.3618 14.3367L36.7675 15.8397L38.2341 14.8198L37.3618 14.3367Z" fill="#070618"/>
<defs>
<filter id="filter0_f" x="30.7773" y="2.78906" width="17.2231" height="26.858" filterUnits="userSpaceOnUse" color-interpolation-filters="sRGB">
<feFlood flood-opacity="0" result="BackgroundImageFix"/>
<feBlend mode="normal" in="SourceGraphic" in2="BackgroundImageFix" result="shape"/>
<feGaussianBlur stdDeviation="1" result="effect1_foregroundBlur"/>
</filter>
<filter id="filter1_f" x="15.1055" y="9.83984" width="12.4077" height="10.2121" filterUnits="userSpaceOnUse" color-interpolation-filters="sRGB">
<feFlood flood-opacity="0" result="BackgroundImageFix"/>
<feBlend mode="normal" in="SourceGraphic" in2="BackgroundImageFix" result="shape"/>
<feGaussianBlur stdDeviation="2" result="effect1_foregroundBlur"/>
</filter>
<filter id="filter2_f" x="8.49609" y="10.208" width="12.0404" height="10.2121" filterUnits="userSpaceOnUse" color-interpolation-filters="sRGB">
<feFlood flood-opacity="0" result="BackgroundImageFix"/>
<feBlend mode="normal" in="SourceGraphic" in2="BackgroundImageFix" result="shape"/>
<feGaussianBlur stdDeviation="2" result="effect1_foregroundBlur"/>
</filter>
<filter id="filter3_f" x="15.1055" y="9.83984" width="12.4077" height="10.2121" filterUnits="userSpaceOnUse" color-interpolation-filters="sRGB">
<feFlood flood-opacity="0" result="BackgroundImageFix"/>
<feBlend mode="normal" in="SourceGraphic" in2="BackgroundImageFix" result="shape"/>
<feGaussianBlur stdDeviation="2" result="effect1_foregroundBlur"/>
</filter>
<filter id="filter4_f" x="8.49609" y="10.208" width="12.0404" height="10.2121" filterUnits="userSpaceOnUse" color-interpolation-filters="sRGB">
<feFlood flood-opacity="0" result="BackgroundImageFix"/>
<feBlend mode="normal" in="SourceGraphic" in2="BackgroundImageFix" result="shape"/>
<feGaussianBlur stdDeviation="2" result="effect1_foregroundBlur"/>
</filter>
<filter id="filter5_f" x="15.1055" y="9.83984" width="12.4077" height="10.2121" filterUnits="userSpaceOnUse" color-interpolation-filters="sRGB">
<feFlood flood-opacity="0" result="BackgroundImageFix"/>
<feBlend mode="normal" in="SourceGraphic" in2="BackgroundImageFix" result="shape"/>
<feGaussianBlur stdDeviation="2" result="effect1_foregroundBlur"/>
</filter>
<filter id="filter6_f" x="8.49609" y="10.208" width="12.0404" height="10.2121" filterUnits="userSpaceOnUse" color-interpolation-filters="sRGB">
<feFlood flood-opacity="0" result="BackgroundImageFix"/>
<feBlend mode="normal" in="SourceGraphic" in2="BackgroundImageFix" result="shape"/>
<feGaussianBlur stdDeviation="2" result="effect1_foregroundBlur"/>
</filter>
</defs>
</svg>
