<svg width="379" height="120" viewBox="0 0 379 120" fill="none" xmlns="http://www.w3.org/2000/svg">
<path d="M379 10C379 4.47715 374.523 0 369 0H10C4.47716 0 0 4.47715 0 10V110C0 115.523 4.47715 120 10 120H369C374.523 120 379 115.523 379 110V10Z" fill="url(#paint0_linear)" fill-opacity="0.39"/>
<mask id="mask0" mask-type="alpha" maskUnits="userSpaceOnUse" x="0" y="11" width="379" height="110">
<path d="M10 12.0557H369C374.247 12.0557 378.5 16.309 378.5 21.5557V110C378.5 115.247 374.247 119.5 369 119.5H10C4.7533 119.5 0.5 115.247 0.5 110V21.5557C0.5 16.309 4.7533 12.0557 10 12.0557Z" fill="#070618" stroke="#99FFCC"/>
</mask>
<g mask="url(#mask0)">
<path opacity="0.5" d="M470.973 36.4443H-76.9098H-62.6295L-68.6305 37.0731H-76.8811V37.1016H-68.8778L-75.178 37.7637H-76.9041V37.7923H-75.4599L-76.9041 37.9447V38.0066L-74.8615 37.7923H-59.9023L-66.1334 38.4877H-76.8868V38.5163H-66.3981L-72.9571 39.2498H-76.9041V39.2831H-73.2448L-76.9213 39.6928V39.7594L-72.6004 39.2831H-56.8759L-63.3717 40.0548H-76.9098V40.0833H-63.6248L-70.4889 40.9026H-76.9098V40.9312H-70.7708L-76.9098 41.6647V41.7457L-70.1149 40.9312H-53.5216L-60.2878 41.7933H-76.9098V41.8266H-60.5582L-67.7214 42.7412H-76.9271V42.7793H-68.0321L-75.6152 43.7319H-76.9271V43.77H-75.9317L-76.9271 43.8986V43.9891L-75.201 43.7605H-57.1234L-64.603 44.7845H-76.9041V44.8274H-64.9309L-72.9053 45.9324H-76.9328V45.9753H-73.2505L-76.9328 46.4802V46.585L-72.4738 45.9753H-53.2569L-61.122 47.1375H-76.9328V47.1851H-61.4442L-69.8445 48.4235H-76.9213V48.4759H-70.1897L-76.9328 49.4714V49.5953L-69.3669 48.4759H-48.8209L-57.083 49.8001H-76.9041V49.8572H-57.4513L-66.3175 51.2862H-76.9271V51.3433H-66.6858L-76.2194 52.8723H-76.9271V52.9342H-76.6164L-76.9271 52.9866V53.1343L-75.7015 52.9342H-52.8599L-62.2497 54.5822H-76.9271V54.6537H-62.6295L-72.7788 56.4303H-76.9155V56.5018H-73.2045L-76.9155 57.1543V57.3306L-72.2149 56.5018H-47.5149L-57.4801 58.4356H-76.9155V58.5118H-57.8943L-68.7455 60.6171H-76.9155V60.7028H-69.2001L-76.9155 62.1985V62.4175L-68.1242 60.7028H-41.2263L-51.8358 63.0034H-76.9155V63.0987H-52.2731L-63.901 65.6231H-76.9041V65.7279H-64.4015L-76.9041 68.4381V68.7334L-76.5301 68.6525H-45.4954L-58.0554 71.7294H-76.9041V71.858H-58.602L-72.5774 75.2922H-76.9213V75.4351H-73.1643L-76.9213 76.3877V76.7355L-71.7834 75.4685H-37.2621L-50.8232 79.279H-76.9386V79.4409H-51.3985L-66.7202 83.7706H-76.9386V83.9516H-67.3646L-76.9386 86.6618V87.1381L-65.8112 83.9658H-26.8136L-41.5715 88.8957H-76.9558V89.1053H-42.1928L-59.1198 94.7686H-76.9558V95.002H-59.8563L-76.9558 100.718V101.361L-58.0726 94.9972H-13.2985L-29.3624 101.556H-76.9213V101.837H-30.0528L-48.89 109.529H-76.9386V109.863H-49.7013L-72.0998 119.018H-76.9386V119.418H-73.078L-76.9386 120.994V121.947L-70.7765 119.408H-13.3042L-34.391 130.463H-76.9674V130.94H-35.3518L-61.3464 144.572H-76.9674V145.181H-62.5144L-76.9501 152.759V154.346L-59.6894 145.181H11.1944L-12.3261 162.414H-76.9961V163.191H-13.3906L-44.0685 185.663H-76.9961V186.697H-45.3688L-76.8868 209.798V212.903L-41.675 186.706H50.8594L25.7279 217.238H-76.8868V218.667H470.996V217.238H368.381L343.249 186.706H435.784L470.996 212.903V209.798L439.483 186.697H470.996V185.663H438.045L407.367 163.191H470.973V162.424H406.285L382.765 145.191H453.666L470.927 154.355V152.769L456.468 145.191H470.927V144.581H455.312L429.311 130.949H470.927V130.473H428.35L407.264 119.418H464.736L470.898 121.956V121.004L467.037 119.427H470.898V119.027H466.122L443.724 109.882H470.961V109.549H442.907L424.075 101.861H470.961V101.575H423.397L407.338 95.021H452.084L470.973 101.38V100.737L453.873 95.021H470.973V94.7876H453.137L436.204 89.1053H470.95V88.8766H435.565L420.813 83.942H459.817L470.95 87.1143V86.638L461.376 83.9325H470.95V83.7515H460.726L445.41 79.4218H470.955V79.2599H444.834L431.285 75.4018H465.806L470.944 76.6688V76.3544L467.187 75.4018H470.944V75.2589H466.588L452.625 71.8247H470.944V71.6961H452.095L439.564 68.6334H470.581L470.955 68.7144V68.4477L458.447 65.7375H470.955V65.6326H457.964L446.324 63.113H470.955V63.0177H445.881L435.266 60.7171H462.164L470.961 62.4319V62.2127L463.246 60.7219H470.967V60.6362H462.785L451.94 58.5309H470.961V58.4546H451.526L441.555 56.5208H466.261L470.961 57.3496V57.1734L467.25 56.5208H470.961V56.4494H466.819L456.669 54.668H470.961V54.5965H456.278L446.894 52.9485H469.753L470.978 53.1486V53.0152L470.668 52.9628H470.978V52.9009H470.271L460.737 51.3719H470.978V51.3147H460.369L451.508 49.8858H470.984V49.8287H451.163L442.901 48.5045H463.418L470.984 49.6238V49.5L464.235 48.5045H470.984V48.4521H463.907L455.507 47.2137H470.996V47.1661H455.191L447.326 46.0039H466.548L471.007 46.6136V46.5088L467.325 46.0039H471.007V45.961H466.98L459.005 44.875H470.996V44.8322H458.7L451.221 43.8081H469.293L471.019 44.0415V43.9653L470.018 43.8367H471.019V43.7843H469.707L462.124 42.8317H471.019V42.7935H461.813L454.615 41.8457H470.967V41.8123H454.339L447.573 40.9502H464.161L470.955 41.7647V41.6838L464.816 40.9502H470.955V40.9216H464.534L457.682 40.1024H470.955V40.0738H457.435L450.939 39.3022H466.698L470.996 39.7785V39.7118L467.319 39.3022H470.996V39.2689H467.055L460.49 38.5353H470.996V38.5115H460.237L454.011 37.8113H468.97L471.019 38.0304V37.9638L469.569 37.8113H471.019V37.7732H469.293L462.964 37.1112H470.967V37.0826H462.716L456.715 36.4538H470.967L470.973 36.4443ZM441.325 36.4443L446.969 37.0731H432.384L427.062 36.4443H441.325ZM205.107 40.0833L205.319 40.9026H188.743L188.956 40.0833H205.107ZM188.997 40.0548L189.198 39.2831H204.911L205.112 40.0548H188.997ZM165.442 130.435L168.318 119.38H225.785L228.662 130.435H165.442ZM228.788 130.911L232.344 144.543H161.759L165.309 130.911H228.788ZM170.89 109.477L172.892 101.789H221.222L223.23 109.477H170.89ZM223.299 109.81L225.681 118.956H168.433L170.81 109.81H223.299ZM174.739 94.6971L176.212 89.0386H217.885L219.364 94.6971H174.739ZM219.421 94.9305L221.119 101.489H172.979L174.705 94.9305H219.421ZM177.616 83.7134L178.767 79.3742H215.405L216.556 83.7134H177.616ZM216.556 83.8944L217.845 88.829H176.275L177.564 83.8944H216.556ZM179.82 75.2351L180.729 71.8009H213.42L214.312 75.2351H179.82ZM214.341 75.378L215.348 79.2218H178.796L179.797 75.378H214.341ZM181.586 68.4762L182.311 65.6898H211.827L212.552 68.4762H181.586ZM212.575 68.5953L213.38 71.6723H180.746L181.54 68.5953H212.575ZM182.34 65.5945L183.001 63.0701H211.142L211.804 65.5945H182.34ZM183.623 60.6362L184.198 58.5309H209.963L210.503 60.6362H183.623ZM210.492 60.7219L211.067 63.0225H182.978L183.554 60.7219H210.492ZM184.727 56.4351L185.188 54.6537H208.915L209.381 56.4351H184.727ZM209.41 56.5065L209.911 58.4404H184.198L184.704 56.5065H209.41ZM227.591 47.147H207.77L207.443 45.9848H226.665L227.591 47.147ZM226.493 44.856H245.128L246.59 45.9467H227.35L226.493 44.856ZM185.642 52.8723L186.039 51.3433H208.058L208.449 52.8723H185.642ZM208.467 52.9342L208.898 54.5822H185.199L185.625 52.9342H208.467ZM185.982 48.4331H165.488L166.477 47.1947H186.327L185.982 48.4331ZM207.776 47.1947H227.632L228.621 48.4331H208.116L207.776 47.1947ZM208.064 51.2862H186.057L186.425 49.8572H207.661L208.064 51.2862ZM186.361 47.147H166.546L167.478 45.9848H186.661L186.361 47.147ZM166.736 45.9467H147.513L148.981 44.856H167.611L166.736 45.9467ZM146.771 45.9467H127.549L129.603 44.856H148.233L146.771 45.9467ZM147.479 45.9896H166.696L165.746 47.1518H145.891L147.479 45.9896ZM165.7 47.1947L164.688 48.4331H144.188L145.856 47.1947H165.7ZM165.465 48.4855H185.987L185.613 49.8096H164.383L165.465 48.4855ZM185.602 49.8668L185.205 51.2957H163.203L164.354 49.8668H185.602ZM185.188 51.3433L184.756 52.8723H161.932L163.157 51.3433H185.188ZM209.393 52.8723L208.961 51.3433H230.969L232.194 52.8723H209.393ZM208.944 51.2862L208.547 49.8572H229.778L230.928 51.2862H208.944ZM208.53 49.8096L208.156 48.4855H228.679L229.743 49.8096H208.53ZM228.437 47.1947H248.287L249.956 48.4331H229.456L228.437 47.1947ZM228.397 47.147L227.442 45.9848H246.664L248.218 47.147H228.397ZM245.882 44.856H264.518L266.572 45.9467H247.372L245.882 44.856ZM245.83 44.8131L244.432 43.789H262.504L264.437 44.8131H245.83ZM245.082 44.8131H226.475L225.624 43.789H243.701L245.082 44.8131ZM226.636 45.9467H207.419L207.115 44.856H225.733L226.636 45.9467ZM207.65 49.8096H186.425L186.77 48.4855H207.293L207.65 49.8096ZM186.678 45.9467H167.461L168.336 44.856H186.971L186.678 45.9467ZM167.639 44.8131H149.015L150.396 43.789H168.474L167.639 44.8131ZM148.29 44.8131H129.666L131.593 43.789H149.677L148.29 44.8131ZM128.935 44.8131H110.311L112.796 43.789H130.874L128.935 44.8131ZM128.855 44.856L126.778 45.9467H107.567L110.207 44.856H128.855ZM127.462 45.9896H146.685L145.103 47.1518H125.282L127.462 45.9896ZM145.028 47.1947L143.302 48.4331H122.808L125.144 47.1947H145.028ZM144.084 48.4855H164.636L163.543 49.8096H142.335L144.084 48.4855ZM163.474 49.8668L162.323 51.2957H140.35L142.26 49.8668H163.474ZM162.26 51.3433L161 52.8723H138.17L140.224 51.3433H162.26ZM161.857 52.9342H184.704L184.238 54.5822H160.534L161.857 52.9342ZM184.221 54.6537L183.721 56.4351H159.049L160.482 54.6537H184.221ZM209.853 54.6537H233.587L235.019 56.4351H210.348L209.853 54.6537ZM209.853 54.5822L209.387 52.9342H232.235L233.552 54.5822H209.853ZM231.832 51.3433H253.816L255.87 52.8723H233.103L231.832 51.3433ZM231.78 51.2862L230.629 49.8572H251.866L253.77 51.2862H231.78ZM230.566 49.8096L229.479 48.4855H250.002L251.785 49.8096H230.566ZM249.064 47.1947H268.914L271.249 48.4331H250.75L249.064 47.1947ZM249 47.147L247.418 45.9848H266.641L268.827 47.147H249ZM265.243 44.856H283.879L286.519 45.9467H267.32L265.243 44.856ZM265.162 44.8131L263.212 43.789H281.289L283.775 44.8131H265.162ZM279.546 42.7888H297.1L299.977 43.7414H281.922L279.546 42.7888ZM281.186 43.7414H263.125L261.284 42.7888H278.833L281.186 43.7414ZM262.412 43.7414H244.352L243.034 42.7888H260.588L262.412 43.7414ZM243.632 43.7414H225.578L224.784 42.7888H242.332L243.632 43.7414ZM225.71 44.8036H207.092L206.81 43.7795H224.876L225.71 44.8036ZM207.299 48.4235H186.799L187.121 47.1851H206.976L207.299 48.4235ZM186.983 44.8036H168.37L169.193 43.7795H187.271L186.983 44.8036ZM168.502 43.7367H150.448L151.742 42.784H169.296L168.502 43.7367ZM149.729 43.7367H131.668L133.486 42.784H151.04L149.729 43.7367ZM130.949 43.7367H112.894L115.23 42.784H132.784L130.949 43.7367ZM112.187 43.7367H94.1204L96.9972 42.784H114.551L112.187 43.7367ZM93.407 43.7367H75.3408L78.7354 42.784H96.2895L93.407 43.7367ZM94.0169 43.7747H112.089L109.58 44.7988H90.9559L94.0169 43.7747ZM109.482 44.8417L106.807 45.9372H87.6016L90.8351 44.8464L109.482 44.8417ZM107.474 45.9753H126.691L124.482 47.1375H104.667L107.474 45.9753ZM124.39 47.1804L122.031 48.4188H101.531L104.54 47.1804H124.39ZM122.75 48.4712H143.279L141.466 49.7953H120.242L122.75 48.4712ZM141.397 49.8525L139.458 51.2814H117.457L120.138 49.8525H141.397ZM139.366 51.3338L137.284 52.8628H114.471L117.348 51.3338H139.366ZM138.106 52.9247H160.948L159.596 54.5727H135.868L138.106 52.9247ZM159.538 54.6442L158.048 56.4256H133.4L135.793 54.6442H159.538ZM158.998 56.5018H183.698L183.157 58.4356H157.444L158.998 56.5018ZM183.162 58.5118L182.587 60.6171H155.73L157.456 58.5118H183.162ZM210.969 58.5118H236.734L238.46 60.6171H211.614L210.969 58.5118ZM210.969 58.4356L210.429 56.5018H235.129L236.676 58.4356H210.969ZM234.559 54.6489H258.292L260.686 56.4303H235.98L234.559 54.6489ZM234.502 54.5775L233.149 52.9294H255.991L258.2 54.5775H234.502ZM254.731 51.3386H276.738L279.615 52.8675H256.808L254.731 51.3386ZM254.65 51.2814L252.711 49.8525H273.942L276.623 51.2814H254.65ZM252.631 49.8048L250.83 48.4807H271.347L273.85 49.8048H252.631ZM269.713 47.1899H289.563L292.566 48.4283H272.072L269.713 47.1899ZM269.621 47.1423L267.406 45.9801H286.611L289.442 47.1423H269.621ZM284.627 44.8512H303.251L306.49 45.942H287.285L284.627 44.8512ZM284.523 44.8084L282.014 43.7843H300.086L303.13 44.8084H284.523ZM297.814 42.784H315.362L318.762 43.7367H300.708L297.814 42.784ZM297.699 42.7459L294.977 41.8314H312.036L315.23 42.7459H297.699ZM296.997 42.7459H279.465L277.233 41.8314H294.298L296.997 42.7459ZM278.764 42.7459H261.209L259.483 41.8314H276.543L278.764 42.7459ZM260.531 42.7459H243.005L241.757 41.8314H258.822L260.531 42.7459ZM242.292 42.7459H224.761L224.013 41.8314H241.072L242.292 42.7459ZM224.859 43.7367H206.804L206.516 42.784H224.07L224.859 43.7367ZM206.971 47.1328H187.15L187.455 45.9706H206.637L206.971 47.1328ZM187.305 43.7367H169.239L170.01 42.784H187.564L187.305 43.7367ZM169.354 42.7364H151.817L153.037 41.8219H170.102L169.354 42.7364ZM151.115 42.7364H133.567L135.293 41.8219H152.352L151.115 42.7364ZM132.882 42.7364H115.351L117.56 41.8219H134.62L132.882 42.7364ZM114.649 42.7364H97.1123L99.8164 41.8219H116.882L114.649 42.7364ZM96.4161 42.7364H78.885L82.0725 41.8219H99.1376L96.4161 42.7364ZM78.1831 42.7364H60.6462L64.3285 41.8219H81.3878L78.1831 42.7364ZM78.045 42.7745L74.6504 43.7271H56.5842L60.4966 42.7745H78.045ZM75.2142 43.7747H93.2919L90.2311 44.7988H71.624L75.2142 43.7747ZM90.1102 44.8417L86.8537 45.9324H67.6598L71.4802 44.8417H90.1102ZM87.4866 45.9753H106.704L103.873 47.1375H84.0574L87.4866 45.9753ZM103.752 47.1804L100.72 48.4188H80.2199L83.8964 47.1804H103.752ZM101.416 48.4712H121.939L119.413 49.7953H98.1997L101.416 48.4712ZM119.309 49.8525L116.6 51.2814H94.621L98.0732 49.8525H119.309ZM116.479 51.329L113.567 52.858H90.7719L94.4772 51.329H116.479ZM114.356 52.9199H137.197L134.948 54.568H111.249L114.356 52.9199ZM134.856 54.6442L132.428 56.4256H107.774L111.134 54.6442H134.856ZM133.314 56.5018H158.014L156.42 58.4356H130.69L133.314 56.5018ZM156.362 58.5118L154.636 60.6171H127.784L130.615 58.5118H156.362ZM155.632 60.7028H182.524L181.879 63.0034H153.796L155.632 60.7028ZM181.856 63.0844L181.143 65.6088H151.702L153.722 63.0844H181.856ZM181.114 65.7136L180.332 68.5048H149.383L151.61 65.7136H181.114ZM212.983 65.7136H242.493L244.726 68.5048H213.771L212.983 65.7136ZM212.983 65.6088L212.27 63.0844H240.41L242.436 65.6088H212.983ZM212.241 62.9891L211.597 60.6885H238.489L240.336 62.9891H212.241ZM237.758 58.4975H263.522L266.353 60.6028H239.432L237.758 58.4975ZM237.695 58.4213L236.107 56.4875H260.807L263.402 58.4213H237.695ZM259.259 54.6346H282.992L286.353 56.416H261.687L259.259 54.6346ZM259.167 54.5632L256.917 52.9151H279.759L282.877 54.5632H259.167ZM277.636 51.3243H299.655L303.366 52.8532H280.559L277.636 51.3243ZM277.527 51.2671L274.817 49.8382H296.053L299.505 51.2671H277.527ZM274.713 49.7905L272.187 48.4664H292.71L295.926 49.7905H274.713ZM290.374 47.1756H310.224L313.906 48.414H293.412L290.374 47.1756ZM290.253 47.128L287.423 45.9658H306.645L310.097 47.128H290.253ZM304.016 44.8369H322.652L326.472 45.9277H307.273L304.016 44.8369ZM303.889 44.794L300.828 43.77H318.831L322.427 44.794H303.889ZM316.087 42.7697H333.635L337.548 43.7223H319.487L316.087 42.7697ZM315.949 42.7316L312.733 41.8171H329.763L333.445 42.7316H315.949ZM312.612 41.779L309.574 40.9169H326.167L329.654 41.779H312.612ZM311.933 41.779H294.885L292.313 40.9169H308.912L311.933 41.779ZM294.206 41.779H277.164L275.058 40.9169H291.652L294.206 41.779ZM276.485 41.779H259.455L257.815 40.9169H274.402L276.485 41.779ZM258.764 41.779H241.722L240.543 40.9169H257.142L258.764 41.779ZM241.043 41.779H224.001L223.288 40.9169H239.887L241.043 41.779ZM224.076 42.7316H206.551L206.298 41.8171H223.322L224.076 42.7316ZM206.683 45.9277H187.483L187.765 44.8369H206.395L206.683 45.9277ZM187.616 42.7316H170.085L170.81 41.8171H187.869L187.616 42.7316ZM170.159 41.779H153.117L154.268 40.9169H170.867L170.159 41.779ZM152.439 41.779H135.396L137.019 40.9169H153.612L152.439 41.779ZM134.712 41.779H117.675L119.758 40.9169H136.352L134.712 41.779ZM116.991 41.779H99.9545L102.498 40.9169H119.091L116.991 41.779ZM99.2699 41.779H82.2279L85.2485 40.9169H101.842L99.2699 41.779ZM81.5489 41.779H64.5069L67.9935 40.9169H84.5868L81.5489 41.779ZM63.828 41.779H46.7859L50.7502 40.9169H67.3434L63.828 41.779ZM63.6841 41.8123L59.973 42.7269H42.442L46.6248 41.8123H63.6841ZM59.8235 42.765L55.8996 43.7176H37.8334L42.2694 42.765H59.8235ZM56.4519 43.7652H74.5296L70.9048 44.7893H52.3036L56.4519 43.7652ZM70.761 44.8322L66.9176 45.9229H47.7238L52.1367 44.8322H70.761ZM67.5275 45.9658H86.7617L83.3095 47.128H63.4885L67.5275 45.9658ZM83.1426 47.1708L79.4374 48.4093H58.9432L63.2929 47.1708H83.1426ZM80.1047 48.4616H100.633L97.3884 49.7858H76.1751L80.1047 48.4616ZM97.2561 49.843L93.7694 51.2719H71.7909L76.0025 49.843H97.2561ZM93.6256 51.3195L89.8858 52.8485H67.0787L71.6125 51.3195H93.6256ZM90.6453 52.9104H113.487L110.345 54.5584H86.6465L90.6453 52.9104ZM110.207 54.6299L106.813 56.4113H82.1473L86.4682 54.6299H110.207ZM107.659 56.4875H132.364L129.723 58.4213H104.022L107.659 56.4875ZM129.614 58.4975L126.737 60.6028H99.8912L103.855 58.4975H129.614ZM127.698 60.6885H154.596L152.697 62.9891H124.609L127.698 60.6885ZM152.611 63.0701L150.54 65.5945H121.093L124.493 63.0701H152.611ZM150.453 65.6946L148.152 68.4857H117.198L120.938 65.6946H150.453ZM149.303 68.5905H180.309L179.44 71.6723H146.8L149.303 68.5905ZM179.417 71.8009L178.456 75.2303H143.935L146.691 71.8009H179.417ZM214.715 71.8009H247.401L250.151 75.2303H215.676L214.715 71.8009ZM214.68 71.6723L213.806 68.5905H244.823L247.297 71.6723H214.68ZM243.69 65.6946H273.194L276.934 68.4857H245.968L243.69 65.6946ZM243.598 65.5898L241.527 63.0701H269.667L273.062 65.5898H243.598ZM241.446 62.9748L239.553 60.6743H266.451L269.541 62.9748H241.446ZM264.529 58.4784H290.288L294.252 60.5838H267.406L264.529 58.4784ZM264.414 58.4023L261.779 56.4684H286.485L290.127 58.4023H264.414ZM283.93 54.6156H307.669L311.99 56.397H287.331L283.93 54.6156ZM283.804 54.5441L280.662 52.8961H303.51L307.537 54.5441H283.804ZM300.489 51.3052H322.502L327.03 52.8342H304.223L300.489 51.3052ZM300.345 51.2481L296.893 49.8191H318.124L322.347 51.2481H300.345ZM296.732 49.7715L293.487 48.4473H314.01L317.94 49.7715H296.732ZM310.972 47.1566H330.828L335.171 48.395H314.677L310.972 47.1566ZM310.834 47.1089L307.382 45.9467H326.599L330.672 47.1089H310.834ZM323.348 44.8179H341.978L346.397 45.9086H327.197L323.348 44.8179ZM323.204 44.775L319.585 43.7509H337.663L341.811 44.775H323.204ZM334.291 42.7507H351.845L356.281 43.7033H338.232L334.291 42.7507ZM334.142 42.7126L330.436 41.7981H347.49L351.678 42.7126H334.142ZM330.292 41.76L326.783 40.8978H343.376L347.34 41.76H330.292ZM340.125 40.05H356.275L360.481 40.8693H343.894L340.125 40.05ZM343.221 40.8693H326.65L323.331 40.05H339.441L343.221 40.8693ZM325.96 40.8693H309.384L306.507 40.05H322.646L325.96 40.8693ZM308.699 40.8693H292.123L289.69 40.05H305.8L308.699 40.8693ZM291.439 40.8693H274.863L272.883 40.05H288.993L291.439 40.8693ZM274.178 40.8693H257.625L256.066 40.05H272.176L274.178 40.8693ZM256.917 40.8693H240.341L239.231 40.05H255.341L256.917 40.8693ZM239.657 40.8693H223.081L222.408 40.05H238.517L239.657 40.8693ZM223.138 41.76H206.096L205.855 40.8978H222.471L223.138 41.76ZM206.2 44.7845H187.604L187.863 43.7557H206.062L206.2 44.7845ZM187.696 41.76H170.666L171.356 40.8978H187.949L187.696 41.76ZM170.706 40.8693H154.28L155.373 40.05H171.483L170.706 40.8693ZM153.445 40.8693H137.019L138.555 40.05H154.665L153.445 40.8693ZM136.185 40.8693H119.62L121.605 40.05H137.715L136.185 40.8693ZM118.924 40.8693H102.365L104.788 40.05H120.897L118.924 40.8693ZM101.663 40.8693H85.0989L87.9756 40.05H104.114L101.663 40.8693ZM84.4027 40.8693H67.8382L71.1407 40.05H87.2507L84.4027 40.8693ZM67.142 40.8693H50.5775L54.3231 40.05H70.433L67.142 40.8693ZM49.8814 40.8693H33.3169L37.4997 40.05H53.6499L49.8814 40.8693ZM32.6207 40.8693H16.0504L20.6533 40.05H36.8035L32.6207 40.8693ZM33.1097 40.8978H49.703L45.7388 41.76H28.7025L33.1097 40.8978ZM45.5662 41.7933L41.3833 42.7078H23.8465L28.5184 41.7933H45.5662ZM41.1934 42.7459L36.7517 43.6985H18.697L23.6508 42.7459H41.1934ZM37.2811 43.7462H55.3702L51.1989 44.7702H32.8796L37.2811 43.7462ZM51.0148 44.8131L46.5788 45.9039H27.7014L32.7069 44.8131H51.0148ZM47.1656 45.9467H66.3883L62.2917 47.1089H42.4708L47.1656 45.9467ZM62.1249 47.1518L57.7522 48.3902H37.2523L42.2694 47.1518H62.1249ZM58.3908 48.4426H78.9138L74.9496 49.7667H53.7535L58.3908 48.4426ZM74.7885 49.8239L70.5423 51.2528H48.5695L53.5578 49.8239H74.7885ZM70.364 51.3005L65.7957 52.8294H42.9943L48.3624 51.3005H70.364ZM66.5206 52.8913H89.3623L85.3348 54.5394H61.6358L66.5206 52.8913ZM85.1621 54.6108L80.801 56.3922H56.4692L61.7566 54.6108H85.1621ZM81.6064 56.4684H106.306L102.624 58.4023H76.9231L81.6064 56.4684ZM102.469 58.4784L98.4413 60.5838H71.601L76.6987 58.4784H102.469ZM99.3562 60.6695H126.248L123.113 62.9701H95.0353L99.3562 60.6695ZM122.98 63.051L119.528 65.5755H90.4151L95.1733 63.051H122.98ZM119.39 65.6803L115.598 68.4715H84.6616L89.9031 65.6803H119.39ZM116.692 68.5715H147.709L145.183 71.6532H112.854L116.692 68.5715ZM145.062 71.7818L142.232 75.2112H107.774L112.377 71.7818H145.062ZM143.503 75.3589H178.025L176.972 79.198H140.408L143.503 75.3589ZM176.926 79.3599L175.717 83.6896H136.818L140.27 79.3504L176.926 79.3599ZM216.493 79.3599H253.149L256.601 83.6896H217.707L216.493 79.3599ZM216.453 79.198L215.365 75.3589H249.921L253.005 79.198H216.453ZM248.356 71.7818H281.048L285.651 75.2112H251.515L248.356 71.7818ZM248.252 71.6532L245.704 68.5715H276.721L280.892 71.6485L248.252 71.6532ZM274.017 65.6755H303.872L309.114 68.4667H278.154L274.017 65.6755ZM273.867 65.5707L270.415 63.051H298.556L303.308 65.5707H273.867ZM270.3 62.9558L267.159 60.6552H294.057L298.694 63.0177L270.3 62.9558ZM290.95 58.4642H316.714L321.806 60.5695H294.966L290.95 58.4642ZM290.794 58.3832L287.118 56.478H311.818L316.507 58.3832H290.794ZM308.256 54.5965H331.99L337.283 56.3779H312.617L308.256 54.5965ZM308.089 54.5251L304.062 52.8818H326.898L331.794 54.5251H308.089ZM323.049 51.2862H345.062L350.424 52.8151H327.617L323.049 51.2862ZM322.87 51.229L318.624 49.8001H339.861L344.849 51.229H322.87ZM318.463 49.7525L314.499 48.4283H335.022L339.671 49.7525H318.463ZM331.288 47.1375H351.138L356.155 48.3759H335.661L331.288 47.1375ZM331.121 47.0899L327.024 45.9277H346.247L350.948 47.0899H331.121ZM342.398 44.7988H361.028L366.028 45.8896H346.834L342.398 44.7988ZM342.225 44.7559L338.054 43.7319H356.132L360.832 44.7559H342.225ZM352.219 42.7316H369.768L374.727 43.6842H356.673L352.219 42.7316ZM352.047 42.6935L347.847 41.779H364.9L369.578 42.6935H352.047ZM347.68 41.7409L343.716 40.8788H360.309L364.728 41.7409H347.68ZM356.592 40.0309H372.702L377.305 40.8502H360.735L356.592 40.0309ZM356.425 40.0024L352.444 39.2307H368.174L372.564 40.0024H356.425ZM355.781 40.0024H339.671L336.104 39.2307H351.84L355.781 40.0024ZM339.003 40.0024H322.865L319.717 39.2307H335.453L339.003 40.0024ZM322.226 40.0024H306.116L303.389 39.2307H319.407L322.226 40.0024ZM305.443 40.0024H289.333L287.031 39.2307H302.767L305.443 40.0024ZM288.665 40.0024H272.555L270.663 39.2307H286.393L288.665 40.0024ZM271.882 40.0024H255.772L254.294 39.2307H270.03L271.882 40.0024ZM255.111 40.0024H239.001L237.942 39.2307H253.678L255.111 40.0024ZM238.328 40.0024H222.189L221.55 39.2307H237.286L238.328 40.0024ZM221.573 40.0309L222.229 40.8502H205.647L205.411 40.0309H221.573ZM205.716 43.689H187.668L187.921 42.7364H205.475L205.716 43.689ZM187.742 40.8311H171.172L171.822 40.0119H187.932L187.742 40.8311ZM171.201 39.9833H155.091L156.126 39.2117H171.874L171.201 39.9833ZM154.423 39.9833H138.314L139.769 39.2117H155.505L154.423 39.9833ZM137.64 39.9833H121.502L123.377 39.2117H139.108L137.64 39.9833ZM120.863 39.9833H104.753L107.054 39.2117H122.785L120.863 39.9833ZM104.08 39.9833H87.9699L90.6798 39.2117H106.41L104.08 39.9833ZM87.3025 39.9833H71.1638L74.2937 39.2117H90.0296L87.3025 39.9833ZM70.5251 39.9833H54.4152L57.9593 39.2117H73.6953L70.5251 39.9833ZM53.7477 39.9833H37.6378L41.602 39.2117H57.6199L53.7477 39.9833ZM36.9646 39.9833H20.8546L25.2446 39.2117H40.9748L36.9646 39.9833ZM20.1872 39.9833H4.07723L8.89303 39.2117H24.6232L20.1872 39.9833ZM20.0089 40.0119L15.36 40.8311H-1.2045L3.86435 40.0119H20.0089ZM15.8318 40.8597H32.425L27.9891 41.7218H10.9585L15.8318 40.8597ZM27.805 41.7552L23.1158 42.6697H5.58473L10.7629 41.7552H27.805ZM22.9259 42.7078L17.9549 43.6604H-0.0997895L5.37178 42.7078H22.9259ZM18.4669 43.7081H36.9071L32.1834 44.7321H13.5706L18.4669 43.7081ZM31.6253 44.775L26.5967 45.8657H7.4028L12.9952 44.775H31.6253ZM27.1606 45.9086H46.3832L41.6537 47.0708H21.827L27.1606 45.9086ZM41.4639 47.1137L36.418 48.3521H15.9296L21.6141 47.1137H41.4639ZM37.0279 48.4045H57.5508L52.8732 49.7286H31.6656L37.0279 48.4045ZM52.6833 49.7858L47.6662 51.2147H25.6819L31.4354 49.7858H52.6833ZM47.4591 51.2624L42.0622 52.7913H19.2551L25.446 51.2624H47.4591ZM42.7469 52.8532H65.5943L60.6693 54.5013H36.9703L42.7469 52.8532ZM60.4621 54.5727L55.1344 56.3541H30.4746L36.723 54.5727H60.4621ZM55.9053 56.4303H80.5995L75.8759 58.3641H50.1633L55.9053 56.4303ZM75.6745 58.4404L70.4963 60.5409H43.6502L49.8986 58.4356L75.6745 58.4404ZM71.3882 60.6314H98.2803L93.9018 62.932H65.8014L71.3882 60.6314ZM93.7062 63.0129L88.8962 65.5374H59.4552L65.577 63.0129H93.7062ZM88.7006 65.6422L83.3958 68.4334H52.4417L59.1906 65.6422H88.7006ZM84.4199 68.5334H115.432L111.232 71.6103H78.6088L84.4199 68.5334ZM111.053 71.7437L106.376 75.1732H71.9002L78.3672 71.7437H111.053ZM107.555 75.3208H142.076L138.912 79.1599H102.371L107.555 75.3208ZM138.808 79.3218L135.241 83.6515H96.3471L102.175 79.3123L138.808 79.3218ZM136.645 83.842H175.643L174.256 88.7671H132.692L136.645 83.842ZM174.198 88.9862L172.605 94.6448H127.992L132.52 88.9862H174.198ZM220.802 94.6448L219.209 88.9862H260.882L265.415 94.6448H220.802ZM219.163 88.7671L217.77 83.8325H256.756L260.72 88.7671H219.163ZM254.604 79.3123H291.243L297.06 83.6515H258.16L254.604 79.3123ZM254.472 79.1503L251.302 75.3113H285.823L291.001 79.1503H254.472ZM282.36 71.7342H315.379L321.852 75.1636H287.331L282.36 71.7342ZM282.187 71.6056L277.97 68.5334H308.987L314.798 71.6151L282.187 71.6056ZM304.712 65.6326H334.216L340.96 68.4191H310.005L304.712 65.6326ZM304.511 65.5231L299.701 63.0034H327.836L333.957 65.5231H304.511ZM299.845 63.0177L295.466 60.7171H322.364L327.945 63.0177H299.845ZM318.066 58.5261H343.831L350.073 60.6314H323.227L318.066 58.5261ZM317.871 58.4451L313.141 56.5399H337.818L343.572 58.4451H317.871ZM333.279 54.6585H357.018L363.266 56.4399H338.606L333.279 54.6585ZM333.077 54.587L328.152 52.9437H350.988L356.742 54.587H333.077ZM346.31 51.3529H368.312L374.503 52.8818H351.696L346.31 51.3529ZM346.103 51.2957L341.086 49.8668H362.323L368.076 51.2957H346.103ZM340.89 49.8191L336.213 48.495H356.736L362.115 49.8191H340.89ZM352.294 47.2089H372.15L377.834 48.4473H357.34L352.294 47.2089ZM352.098 47.1613L347.375 45.9991H366.586L371.914 47.1613H352.098ZM362.133 44.8703H380.768L386.355 45.961H367.161L362.133 44.8703ZM361.937 44.8274L357.213 43.8033H375.291L380.55 44.8274H361.937ZM370.832 42.8031H388.386L393.858 43.7557H375.792L370.832 42.8031ZM370.642 42.765L365.947 41.8505H383.007L388.185 42.765H370.642ZM365.769 41.8123L361.327 40.9502H377.92L382.805 41.8123H365.769ZM373.749 40.1024H389.888L394.957 40.9216H378.381L373.749 40.1024ZM373.571 40.0738L369.163 39.3022H384.894L389.709 40.0738H373.571ZM380.763 38.5353H396.096L401.055 39.2689H385.342L380.763 38.5353ZM384.71 39.2689H368.997L364.82 38.5353H380.159L384.71 39.2689ZM368.364 39.2689H352.651L348.865 38.5353H364.204L368.364 39.2689ZM352.024 39.2689H336.305L332.91 38.5353H348.244L352.024 39.2689ZM335.678 39.2689H319.965L316.973 38.5353H332.312L335.678 39.2689ZM319.338 39.2689H303.619L301.03 38.5353H316.363L319.338 39.2689ZM302.992 39.2689H287.273L285.081 38.5353H300.414L302.992 39.2689ZM286.646 39.2689H270.927L269.132 38.5353H284.465L286.646 39.2689ZM270.3 39.2689H254.581L253.183 38.5353H268.522L270.3 39.2689ZM253.954 39.2689H238.236L237.24 38.5353H252.573L253.954 39.2689ZM237.614 39.2689H221.895L221.32 38.5353H236.653L237.614 39.2689ZM221.913 40.0738H205.803L205.584 39.3022H221.314L221.913 40.0738ZM205.803 42.7602H188.272L188.508 41.8457H205.567L205.803 42.7602ZM188.323 40.0738H172.213L172.829 39.3022H188.565L188.323 40.0738ZM172.213 39.2689H156.489L157.473 38.5353H172.806L172.213 39.2689ZM155.862 39.2689H140.143L141.524 38.5353H156.863L155.862 39.2689ZM139.522 39.2689H123.786L125.569 38.5353H140.903L139.522 39.2689ZM123.182 39.2689H107.457L109.632 38.5353H124.971L123.182 39.2689ZM106.836 39.2689H91.1113L93.6889 38.5353H109.016L106.836 39.2689ZM90.4899 39.2689H74.7655L77.74 38.5353H93.0733L90.4899 39.2689ZM74.1441 39.2689H58.4196L61.797 38.5353H77.136L74.1441 39.2689ZM57.7983 39.2689H42.0853L45.8596 38.5353H61.1928L57.7983 39.2689ZM41.4581 39.2689H25.7336L29.8992 38.5353H45.2267L41.4581 39.2689ZM25.1123 39.2689H9.39358L13.9504 38.5353H29.2836L25.1123 39.2689ZM8.76639 39.2689H-6.95806L-1.99849 38.5353H13.3175L8.76639 39.2689ZM-7.57941 39.2689H-23.2982L-17.9416 38.5353H-2.6084L-7.57941 39.2689ZM-7.15365 39.3022H8.57656L3.76083 40.0738H-12.3491L-7.15365 39.3022ZM3.55947 40.1024L-1.53249 40.9216H-18.1027L-12.5966 40.1024H3.55947ZM-1.04338 40.9502H15.5499L10.6478 41.8123H-6.39998L-1.04338 40.9502ZM10.4637 41.8457L5.28553 42.7602H-12.2571L-6.58981 41.8457H10.4637ZM5.06113 42.7983L-0.439301 43.7509H-18.494L-12.493 42.7983H5.06113ZM0.0612601 43.7986H18.1332L12.8514 44.8226H-5.75558L0.0612601 43.7986ZM12.6443 44.8655L7.02881 45.9562H-12.165L-5.99149 44.8655H12.6443ZM7.56392 45.9991H26.7866L21.43 47.1613H1.61477L7.56392 45.9991ZM21.2113 47.2042L15.5039 48.4426H-5.00183L1.32709 47.2042H21.2113ZM16.085 48.495H36.6021L31.211 49.8191H9.98615L16.085 48.495ZM30.9866 49.8763L25.1986 51.3052H3.20851L9.75606 49.8763H30.9866ZM24.9569 51.3529L18.7316 52.8818H-4.08128L2.9438 51.3529H24.9569ZM19.3818 52.9437H42.2233L36.4007 54.5918H12.7076L19.3818 52.9437ZM36.1648 54.6632L29.8705 56.4446H5.22225L12.4487 54.6632H36.1648ZM30.5954 56.5208H55.2954L49.5419 58.4546H23.8408L30.5954 56.5208ZM49.283 58.5309L42.9885 60.6362H16.1425L23.53 58.5309H49.283ZM43.8056 60.7219H70.6977L65.0707 63.0225H36.9071L43.8056 60.7219ZM64.8348 63.1034L58.6555 65.6279H29.2146L36.6942 63.1034H64.8348ZM58.3966 65.7327L51.6017 68.5239H20.636L28.8866 65.7327H58.3966ZM52.5453 68.6239H83.5109L77.648 71.7008H45.0196L52.5453 68.6239ZM77.4581 71.8342L70.9048 75.2637H36.4295L44.7549 71.8295L77.4581 71.8342ZM72.021 75.4113H106.542L101.301 79.2504H64.7428L72.021 75.4113ZM101.105 79.4123L95.1733 83.742H56.2793L64.4551 79.4028L101.105 79.4123ZM96.5024 83.9325H135.483L131.421 88.8576H89.8571L96.5024 83.9325ZM131.26 89.0767L126.605 94.7353H81.9689L89.5752 89.0767H131.26ZM128.193 94.9781H172.927L171.08 101.537H122.917L128.193 94.9781ZM170.965 101.837L168.802 109.529H116.444L122.635 101.837H170.965ZM168.698 109.863L166.126 119.008H108.861L116.203 109.863H168.698ZM225.388 109.863H277.883L285.219 119.008H227.925L225.388 109.863ZM225.296 109.529L223.127 101.837H271.457L277.624 109.529H225.296ZM223.046 101.556L221.205 94.9972H265.956L271.215 101.556H223.046ZM262.89 89.0957H304.557L312.163 94.7543H267.533L262.89 89.0957ZM262.711 88.8861L258.684 83.9516H297.658L304.298 88.8766L262.711 88.8861ZM293.032 79.4314H329.671L337.853 83.7706H298.941L293.032 79.4314ZM292.808 79.2694L287.561 75.4304H322.082L329.332 79.2694H292.808ZM316.68 71.8533H349.371L357.702 75.2827H323.216L316.68 71.8533ZM316.432 71.7247L310.558 68.6429H341.575L349.055 71.7247H316.432ZM335.73 65.747H365.234L373.49 68.5382H342.525L335.73 65.747ZM335.471 65.6422L329.297 63.1225H357.438L364.917 65.6422H335.471ZM329.05 63.0225L323.428 60.7219H350.321L357.15 63.0225H329.05ZM344.843 58.5309H370.613L378.001 60.6362H351.149L344.843 58.5309ZM344.602 58.4546L338.848 56.5208H363.554L370.349 58.4546H344.602ZM357.956 54.668H381.689L388.91 56.4494H364.25L357.956 54.668ZM357.72 54.5965L351.897 52.9485H374.739L381.413 54.5965H357.72ZM369.169 51.3576H391.182L398.202 52.8866H375.389L369.169 51.3576ZM368.928 51.3005L363.14 49.8715H384.376L390.9 51.3005H368.928ZM362.915 49.8239L357.536 48.4998H378.03L384.117 49.8239H362.915ZM372.915 47.2089H392.753L399.082 48.4473H378.611L372.915 47.2089ZM372.69 47.1613L367.34 45.9991H386.562L392.517 47.1613H372.69ZM381.482 44.8703H400.112L406.291 45.961H387.092L381.482 44.8703ZM381.263 44.8274L375.987 43.8033H394.065L399.876 44.8274H381.263ZM389.065 42.8031H406.613L412.614 43.7557H394.56L389.065 42.8031ZM388.852 42.765L383.674 41.8505H400.733L406.395 42.765H388.852ZM383.473 41.8123L378.571 40.9502H395.158L400.509 41.8123H383.473ZM390.526 40.1024H406.682L412.189 40.9216H395.613L390.526 40.1024ZM390.331 40.0738L385.521 39.3022H401.245L406.47 40.0738H390.331ZM396.694 38.5353H412.039L417.396 39.2689H401.683L396.694 38.5353ZM396.499 38.5115L391.769 37.8113H406.728L411.82 38.5115H396.499ZM395.889 38.5115H380.567L376.217 37.8113H391.177L395.889 38.5115ZM379.957 38.5115H364.635L360.671 37.8113H375.63L379.957 38.5115ZM364.026 38.5115H348.704L345.108 37.8113H360.067L364.026 38.5115ZM348.094 38.5115H332.778L329.556 37.8113H344.515L348.094 38.5115ZM332.162 38.5115H316.841L314.01 37.8113H328.969L332.162 38.5115ZM316.225 38.5115H300.909L298.446 37.8113H313.406L316.225 38.5115ZM300.299 38.5115H284.977L282.895 37.8113H297.854L300.299 38.5115ZM284.368 38.5115H269.034L267.308 37.8113H282.267L284.368 38.5115ZM268.436 38.5115H253.114L251.785 37.8113H266.744L268.436 38.5115ZM252.499 38.5115H237.183L236.228 37.8113H251.187L252.499 38.5115ZM236.573 38.5115H221.251L220.676 37.8113H235.635L236.573 38.5115ZM221.251 39.2689H205.538L205.325 38.5353H220.664L221.251 39.2689ZM205.573 41.8123H188.525L188.749 40.9502H205.337L205.573 41.8123ZM188.559 39.2689H172.835L173.41 38.5353H188.749L188.559 39.2689ZM172.846 38.5115H157.513L158.451 37.8113H173.41L172.846 38.5115ZM156.909 38.5115H141.582L142.893 37.8113H157.853L156.909 38.5115ZM140.977 38.5115H125.65L127.376 37.8113H142.335L140.977 38.5115ZM125.046 38.5115H109.718L111.79 37.8113H126.749L125.046 38.5115ZM109.12 38.5115H93.7925L96.2377 37.8113H111.197L109.12 38.5115ZM93.1883 38.5115H77.8552L80.6859 37.8113H95.6451L93.1883 38.5115ZM77.251 38.5115H61.935L65.1397 37.8113H80.099L77.251 38.5115ZM61.3194 38.5115H45.9919L49.5707 37.8113H64.5299L61.3194 38.5115ZM45.3878 38.5115H30.0603L34.0188 37.8113H48.978L45.3878 38.5115ZM29.4562 38.5115H14.1288L18.4669 37.8113H33.4261L29.4562 38.5115ZM13.5246 38.5115H-1.80289L2.90932 37.8113H17.8686L13.5246 38.5115ZM-2.40121 38.5115H-17.7517L-12.6541 37.8113H2.30516L-2.40121 38.5115ZM-18.3386 38.5115H-33.6546L-28.1887 37.8113H-13.2294L-18.3386 38.5115ZM-18.5457 38.5353L-23.9253 39.2689H-39.6152L-33.8617 38.5353H-18.5457ZM-23.511 39.3022H-7.77508L-13.0166 40.0738H-29.1265L-23.511 39.3022ZM-13.2294 40.1024L-18.7586 40.9216H-35.3403L-29.3969 40.1024H-13.2294ZM-18.3271 40.9502H-1.73385L-7.11341 41.8123H-24.1554L-18.3271 40.9502ZM-7.32629 41.8457L-13.005 42.7602H-30.5419L-24.3914 41.8457H-7.32629ZM-13.2352 42.7983L-19.2592 43.7509H-37.3138L-30.8008 42.7983H-13.2352ZM-18.7816 43.7986H-0.709699L-6.54381 44.8226H-25.1566L-18.7816 43.7986ZM-6.77973 44.8655L-12.982 45.9562H-32.1931L-25.4212 44.8655H-6.77973ZM-12.4699 45.9991H6.74689L0.768938 47.1613H-19.0463L-12.4699 45.9991ZM0.52157 47.2042L-5.86486 48.4426H-26.3821L-19.3512 47.2042H0.52157ZM-5.29526 48.495H15.2276L9.1116 49.8191H-12.119L-5.29526 48.495ZM8.85847 49.8763L2.2994 51.3052H-19.6964L-12.3951 49.8763H8.85847ZM2.029 51.3529L-5.02486 52.8818H-27.8435L-20.0014 51.3529H2.029ZM-4.40351 52.9437H18.4382L11.7237 54.5918H-11.9982L-4.40351 52.9437ZM11.4533 54.6632L4.1981 56.4446H-20.4847L-12.2974 54.6632H11.4533ZM4.87699 56.5208H29.5828L22.7303 58.4261H-2.97087L4.87699 56.5208ZM22.4484 58.5261L15.0147 60.6314H-11.8083L-3.28152 58.5261H22.4484ZM15.78 60.7171H42.6606L35.7564 63.0177H7.68472L15.78 60.7171ZM35.5147 63.0987L27.9718 65.6231H-1.46914L7.38553 63.0987H35.5147ZM27.6554 65.7279L19.3414 68.5191H-11.6069L-1.82586 65.7279H27.6554ZM20.2448 68.6239H51.2564L43.7193 71.7056H11.0966L20.2448 68.6239ZM43.3971 71.8295L35.0026 75.2637H0.527333L10.7226 71.8295H43.3971ZM36.0383 75.4066H70.5596L63.2353 79.2504H26.6772L36.0383 75.4066ZM62.9534 79.4123L54.6741 83.742H15.78L26.309 79.4028L62.9534 79.4123ZM55.8938 83.9754H94.8914L88.1655 88.9004H46.6018L55.8938 83.9754ZM87.8836 89.1148L80.1623 94.7733H35.532L46.1991 89.1148H87.8836ZM81.6179 95.021H126.363L120.967 101.575H72.792L81.6179 95.021ZM120.742 101.861L114.413 109.549H62.0558L72.4122 101.861H120.742ZM114.137 109.882L106.611 119.027H49.3463L61.6358 109.882H114.137ZM108.579 119.408H166.046L162.933 130.463H99.7014L108.579 119.408ZM162.801 130.954L158.957 144.586H88.3668L99.2986 130.954H162.801ZM161.65 145.196H232.54L237.033 162.429H157.156L161.65 145.196ZM231.377 130.954H294.856L305.788 144.586H235.203L231.377 130.954ZM231.239 130.478L228.127 119.422H285.599L294.471 130.478H231.239ZM280.035 109.877H332.531L344.82 119.022H287.555L280.035 109.877ZM279.753 109.544L273.424 101.856H321.754L332.111 109.544H279.753ZM273.188 101.57L267.797 95.0163H312.502L321.317 101.57H273.188ZM306.277 89.1148H347.95L358.623 94.7686H313.993L306.277 89.1148ZM305.989 88.9052L299.258 83.9706H338.255L347.547 88.9052H305.989ZM331.19 79.4504H367.737L378.266 83.7896H339.366L331.19 79.4504ZM330.879 79.2885L323.492 75.4018H358.013L367.351 79.2456L330.879 79.2885ZM350.729 71.8676H383.421L393.61 75.3017H359.089L350.729 71.8676ZM350.413 71.739L342.87 68.6715H373.887L383.035 71.7533L350.413 71.739ZM366.482 65.7755H395.929L405.71 68.5667H374.739L366.482 65.7755ZM366.166 65.6708L358.623 63.1463H386.723L395.578 65.6708H366.166ZM358.335 63.051L351.431 60.7505H378.329L386.384 63.051H358.335ZM371.689 58.5594H397.454L405.975 60.6647H379.106L371.689 58.5594ZM371.407 58.4832L364.584 56.5494H389.289L397.114 58.4832H371.407ZM382.713 54.6966H406.447L414.628 56.478H389.968L382.713 54.6966ZM382.425 54.6251L375.717 52.9771H398.558L406.124 54.6251H382.425ZM392.126 51.3862H414.139L421.987 52.9151H399.18L392.126 51.3862ZM391.844 51.329L385.291 49.9001H406.521L413.823 51.329H391.844ZM384.997 49.8239L378.881 48.4998H399.381L406.176 49.8239H384.997ZM393.576 47.2089H413.426L420.456 48.4473H399.957L393.576 47.2089ZM393.328 47.1613L387.35 45.9991H406.573L413.155 47.1613H393.328ZM400.877 44.8703H419.519L426.285 45.961H407.091L400.877 44.8703ZM400.641 44.8274L394.778 43.8033H412.827L419.196 44.8274H400.641ZM407.338 42.8031H424.892L431.405 43.7557H413.339L407.338 42.8031ZM407.102 42.765L401.424 41.8505H418.483L424.639 42.765H407.102ZM401.205 41.8123L395.825 40.9502H412.419L418.236 41.8123H401.205ZM407.338 40.1024H423.477L429.421 40.9216H412.845L407.338 40.1024ZM407.125 40.0738L401.884 39.3022H417.614L423.258 40.0738H407.125ZM412.649 38.5353H427.982L433.736 39.2689H418.017L412.649 38.5353ZM412.442 38.5115L407.344 37.8113H422.303L427.775 38.5115H412.442ZM417.453 37.1159H432.05L437.619 37.778H422.66L417.453 37.1159ZM422.056 37.778H407.097L402.241 37.1159H416.837L422.056 37.778ZM406.521 37.778H391.562L387.063 37.1159H401.683L406.521 37.778ZM390.987 37.778H376.027L371.885 37.1159H386.476L390.987 37.778ZM375.452 37.778H360.493L356.713 37.1159H371.31L375.452 37.778ZM359.918 37.778H344.958L341.541 37.1159H356.137L359.918 37.778ZM344.383 37.778H329.424L326.363 37.1159H340.948L344.383 37.778ZM328.848 37.778H313.889L311.185 37.1159H325.776L328.848 37.778ZM313.314 37.778H298.354L296.013 37.1159H310.61L313.314 37.778ZM297.779 37.778H282.82L280.841 37.1159H295.432L297.779 37.778ZM282.245 37.778H267.285L265.657 37.1159H280.254L282.245 37.778ZM266.71 37.778H251.751L250.485 37.1159H265.082L266.71 37.778ZM251.175 37.778H236.216L235.313 37.1159H249.909L251.175 37.778ZM235.641 37.778H220.681L220.135 37.1159H234.732L235.641 37.778ZM220.681 38.5115H205.366L205.17 37.8113H220.129L220.681 38.5115ZM188.818 38.5115H173.502L174.078 37.8113H189.037L188.818 38.5115ZM173.485 37.7828H158.526L159.418 37.1207H174.02L173.485 37.7828ZM157.95 37.7828H142.991L144.245 37.1207H158.842L157.95 37.7828ZM142.416 37.7828H127.457L129.068 37.1207H143.664L142.416 37.7828ZM126.881 37.7828H111.922L113.901 37.1207H128.498L126.881 37.7828ZM111.347 37.7828H96.3873L98.6888 37.1207H113.286L111.347 37.7828ZM95.812 37.7828H80.8527L83.5454 37.1207H98.1422L95.812 37.7828ZM80.2774 37.7828H65.3181L68.3732 37.1207H82.9701L80.2774 37.7828ZM64.7428 37.7828H49.7835L53.1781 37.1207H67.7864L64.7428 37.7828ZM49.2082 37.7828H34.2489L38.0175 37.1207H52.6085L49.2082 37.7828ZM33.6736 37.7828H18.7143L22.8396 37.1207H37.4422L33.6736 37.7828ZM18.139 37.7828H3.17971L7.66176 37.1207H22.2585L18.139 37.7828ZM2.60436 37.7828H-12.3549L-7.51037 37.1207H6.98856L2.60436 37.7828ZM-12.9302 37.7828H-27.8895L-22.7113 37.1207H-8.12028L-12.9302 37.7828ZM-28.4649 37.7828H-43.4241L-37.8546 37.1207H-23.2694L-28.4649 37.7828ZM-43.9995 37.7828H-58.9587L-53.044 37.1207H-38.4473L-43.9995 37.7828ZM-43.6312 37.8113H-28.672L-34.1551 38.5067H-49.4769L-43.6312 37.8113ZM-34.3853 38.5353L-40.1388 39.2689H-55.8518L-49.7013 38.5353H-34.3853ZM-39.7648 39.3022H-24.0346L-29.6961 40.0738H-45.8061L-39.7648 39.3022ZM-29.9205 40.1024L-35.8927 40.9216H-52.4572L-46.065 40.1024H-29.9205ZM-35.467 40.9502H-18.8736L-24.7078 41.8123H-41.7556L-35.467 40.9502ZM-24.9552 41.8457L-31.123 42.7602H-48.6541L-42.0087 41.8457H-24.9552ZM-31.3819 42.7983L-37.918 43.7509H-55.9726L-48.9302 42.7983H-31.3819ZM-37.4692 43.7986H-19.3915L-25.7779 44.8226H-44.385L-37.4692 43.7986ZM-26.0426 44.8655L-32.8375 45.9562H-52.0314L-44.6669 44.8655H-26.0426ZM-32.3715 45.9991H-13.1489L-19.754 47.1613H-39.575L-32.3715 45.9991ZM-20.0301 47.2042L-27.0897 48.4426H-47.6702L-39.9662 47.2042H-20.0301ZM-26.5605 48.495H-6.0375L-12.867 49.8191H-34.0688L-26.5605 48.495ZM-13.1546 49.8763L-20.4789 51.3052H-42.4518L-34.3968 49.8763H-13.1546ZM-20.7666 51.3529L-28.6432 52.8818H-51.4618L-42.7855 51.3529H-20.7666ZM-28.0564 52.9437H-5.21471L-12.8382 54.5918H-36.5314L-28.0564 52.9437ZM-13.1316 54.6632L-21.3419 56.4446H-46.0305L-36.8823 54.6632H-13.1316ZM-20.7091 56.5208H3.98523L-3.87991 58.4546H-29.5868L-20.7091 56.5208ZM-4.21359 58.5309L-12.7807 60.6362H-39.6383L-29.9723 58.5309H-4.21359ZM-12.0615 60.7219H14.8307L6.58585 63.0177H-21.4973L-12.0615 60.7219ZM6.34993 63.1034L-2.55081 65.6279H-31.9975L-21.7735 63.1034H6.34993ZM-2.94784 65.7279L-12.7634 68.5191H-43.7118L-32.4463 65.7279H-2.94784ZM-11.9291 68.6239H19.0883L9.88262 71.7056H-22.7401L-11.9291 68.6239ZM9.49135 71.8342L-0.761461 75.2637H-35.2426L-23.2003 71.8342H9.49135ZM0.187891 75.4113H34.7092L25.3021 79.2504H-11.2559L0.187891 75.4113ZM24.9282 79.4123L14.3244 83.742H-24.656L-11.7911 79.4123H24.9282ZM15.4175 83.9325H54.4094L45.008 88.8576H3.44436L15.4175 83.9325ZM44.6168 89.0719L33.8232 94.7305H-10.8072L2.93228 89.0719H44.6168ZM35.1522 94.9781H79.8861L70.853 101.551H22.6785L35.1522 94.9781ZM70.5596 101.818L60.0651 109.506H7.70776L22.2297 101.818H70.5596ZM59.6279 109.839L47.1427 118.984H-10.1283L7.13241 109.839H59.6279ZM48.8917 119.365H106.352L97.2504 130.42H33.9152L48.8917 119.365ZM96.7441 130.94L85.5189 144.572H14.9285L33.2593 130.94H96.7441ZM87.8376 145.191H158.744L153.9 162.424H74.0175L87.8376 145.191ZM153.67 163.2L147.341 185.673H55.3587L73.3961 163.2H153.67ZM156.88 163.2H237.165L243.017 185.673H151.012L156.88 163.2ZM240.376 163.2H320.667L338.698 185.673H246.705L240.376 163.2ZM240.151 162.424L235.307 145.191H306.208L320.017 162.424H240.151ZM297.336 130.949H360.832L379.157 144.581H308.561L297.336 130.949ZM296.939 130.473L287.837 119.418H345.298L360.159 130.473H296.939ZM334.567 109.872H387.063L404.324 119.018H347.024L334.567 109.872ZM334.113 109.539L323.618 101.851H371.948L386.453 109.539H334.113ZM323.227 101.566L314.28 95.0115H359.008L371.384 101.566H323.227ZM349.555 89.1053H391.228L404.968 94.7638H360.332L349.555 89.1053ZM349.147 88.8909L339.746 83.9563H378.743L390.705 88.8909H349.147ZM369.227 79.4361H405.865L418.742 83.7753H379.819L369.227 79.4361ZM368.83 79.2742L359.417 75.4351H393.938L405.348 79.2742H368.83ZM384.658 71.858H417.35L429.392 75.2875H394.916L384.658 71.858ZM384.272 71.7294L375.067 68.6572H406.078L416.889 71.739L384.272 71.7294ZM397.08 65.7422H426.59L437.855 68.5286H406.884L397.08 65.7422ZM396.706 65.6326L387.794 63.113H415.946L426.164 65.6326H396.706ZM387.477 63.0177L379.353 60.7171H406.251L415.566 63.0177H387.477ZM398.409 58.5261H424.173L433.839 60.6314H406.976L398.409 58.5261ZM398.087 58.4451L390.216 56.5399H414.916L423.794 58.4737L398.087 58.4451ZM407.333 54.6585H431.072L440.226 56.4399H415.554L407.333 54.6585ZM407.022 54.587L399.381 52.9437H422.223L430.686 54.587H407.022ZM414.962 51.3529H436.975L445.651 52.8818H422.844L414.962 51.3529ZM414.663 51.2957L407.333 49.8668H428.563L436.618 51.2957H414.663ZM407.051 49.8191L400.215 48.495H420.744L428.264 49.8191H407.051ZM414.214 47.2042H434.064L441.768 48.4426H421.245L414.214 47.2042ZM413.932 47.1566L407.321 45.9896H426.544L433.759 47.1566H413.932ZM420.261 44.8655H438.891L446.255 45.9515H426.998L420.261 44.8655ZM420.002 44.8226L413.61 43.7986H431.687L438.592 44.8226H420.002ZM425.6 42.7935H443.108L450.156 43.7462H432.09L425.6 42.7935ZM425.347 42.7555L419.168 41.8457H436.204L442.849 42.7555H425.347ZM418.932 41.8028L413.098 40.9407H429.685L435.974 41.8028H418.932ZM424.139 40.0929H440.231L446.624 40.9074H430.048L424.139 40.0929ZM423.909 40.0595L418.247 39.2879H433.977L440.042 40.0595H423.909ZM428.603 38.5258H443.937L450.087 39.2593H434.374L428.603 38.5258ZM428.379 38.4972L422.896 37.8018H437.855L443.701 38.4972H428.379ZM432.625 37.1016H447.222L453.148 37.7685H438.189L432.625 37.1016ZM426.521 36.4443L431.825 37.0778H417.217L412.24 36.4443H426.521ZM411.7 36.4443L416.659 37.0778H402.08L397.442 36.4443H411.7ZM396.873 36.4443L401.475 37.0778H386.896L382.604 36.4443H396.873ZM382.051 36.4443L386.326 37.0778H371.747L367.8 36.4443H382.051ZM367.225 36.4443L371.166 37.0778H356.58L352.973 36.4443H367.225ZM352.409 36.4443L355.994 37.0778H341.414L338.152 36.4443H352.409ZM337.582 36.4443L340.833 37.0778H326.248L323.331 36.4443H337.582ZM322.761 36.4443L325.638 37.0778H311.058L308.481 36.4443H322.761ZM307.94 36.4443L310.5 37.0778H295.921L293.683 36.4443H307.94ZM293.113 36.4443L295.334 37.0778H280.754L278.861 36.4443H293.113ZM278.292 36.4443L280.173 37.0778H265.588L264.04 36.4443H278.292ZM263.471 36.4443L265.001 37.0778H250.439L249.236 36.4443H263.471ZM248.649 36.4443L249.84 37.0778H235.255L234.392 36.4443H248.649ZM233.823 36.4443L234.674 37.0778H220.089L219.571 36.4443H233.823ZM220.089 37.778H205.13L204.94 37.1159H219.536L220.089 37.778ZM219.03 36.4586L219.536 37.0873H204.911L204.733 36.4586H219.03ZM189.952 36.4586H204.203L204.37 37.0873H189.779L189.952 36.4586ZM189.779 37.1159H204.336L204.508 37.778H189.549L189.779 37.1159ZM189.601 37.8113H204.56L204.738 38.5115H189.376L189.601 37.8113ZM204.744 38.5401L204.934 39.2736H189.209L189.405 38.5401H204.744ZM175.131 36.4634H189.376L189.198 37.0969H174.613L175.131 36.4634ZM189.198 37.1207L189.008 37.7828H174.049L174.584 37.1207H189.198ZM174.561 36.4634L174.037 37.0969H159.446L160.298 36.4634H174.561ZM159.734 36.4634L158.888 37.0969H144.286L145.477 36.4634H159.734ZM144.913 36.4634L143.705 37.0969H129.125L130.661 36.4634H144.913ZM130.092 36.4634L128.544 37.0969H113.953L115.829 36.4634H130.092ZM115.27 36.4634L113.36 37.0873H98.7866L101.007 36.4586L115.27 36.4634ZM100.444 36.4634L98.2112 37.0969H83.6317L86.1805 36.4634H100.444ZM85.6225 36.4634L83.0448 37.0969H68.4538L71.3306 36.4634H85.6225ZM70.8013 36.4634L67.8784 37.0969H53.2874L56.5382 36.4634H70.8013ZM55.9744 36.4634L52.7121 37.0969H38.1326L41.7228 36.4634H55.9744ZM41.1532 36.4634L37.5515 37.0969H22.9604L26.8901 36.4634H41.1532ZM26.332 36.4634L22.3851 37.0969H7.79408L12.0689 36.4634H26.332ZM11.5109 36.4634L7.21873 37.0969H-7.39533L-2.79248 36.4634H11.5109ZM-3.31607 36.4634L-7.91892 37.0969H-22.5042L-17.5389 36.4634H-3.31607ZM-18.143 36.4634L-23.114 37.0969H-37.7051L-32.4003 36.4634H-18.143ZM-32.9641 36.4634L-38.2805 37.0969H-52.8715L-47.2099 36.4634H-32.9641ZM-62.0368 36.4634H-47.791L-53.4583 37.0969H-68.0378L-62.0368 36.4634ZM-74.5969 37.7732L-68.3082 37.1112H-53.7115L-59.6606 37.7732H-74.5969ZM-59.3097 37.8018H-44.3504L-50.2133 38.502H-65.5063L-59.3097 37.8018ZM-72.33 39.2641L-65.7824 38.5306H-50.4607L-56.6228 39.2641H-72.33ZM-56.22 39.2927H-40.4898L-46.5655 40.0643H-62.7043L-56.22 39.2927ZM-69.8099 40.9216L-62.9747 40.1072H-46.8245L-53.2339 40.9074L-69.8099 40.9216ZM-52.8196 40.955H-36.2322L-42.5323 41.8123H-59.5858L-52.8196 40.955ZM-59.8505 41.8505H-42.7912L-49.4596 42.7602H-67.0022L-59.8505 41.8505ZM-74.8558 43.7557L-67.2841 42.7745H-49.7357L-56.8126 43.7271L-74.8558 43.7557ZM-56.3638 43.789H-38.2977L-45.2422 44.8179H-63.8492L-56.3638 43.789ZM-72.0998 45.9324L-64.1484 44.8417H-45.5184L-52.9002 45.9324H-72.0998ZM-52.44 45.9753H-33.2173L-40.4552 47.1375H-60.2705L-52.44 45.9753ZM-68.9872 48.4188L-60.6157 47.1804H-40.766L-48.4873 48.4188H-68.9872ZM-47.9867 48.4712H-27.4695L-35.0124 49.8239H-56.2258L-47.9867 48.4712ZM-56.5652 49.8525H-35.3346L-43.4356 51.2814H-65.4084L-56.5652 49.8525ZM-75.2758 52.858L-65.7709 51.329H-43.7578L-52.4687 52.858H-75.2758ZM-51.9106 52.9199H-29.069L-37.5613 54.568H-61.2716L-51.9106 52.9199ZM-71.7719 56.4113L-61.6572 54.6299H-37.9237L-47.1294 56.4113H-71.7719ZM-46.5022 56.4827H-21.7965L-30.7203 58.4166H-56.4271L-46.5022 56.4827ZM-67.6523 60.598L-56.8414 58.4975H-31.077L-40.789 60.598H-67.6523ZM-40.1331 60.6838H-13.2352L-22.602 62.9844H-50.6908L-40.1331 60.6838ZM-51.1339 63.0653H-22.999L-33.2691 65.5898H-62.7158L-51.1339 63.0653ZM-75.9835 68.4762L-63.2106 65.685H-33.7006L-45.0236 68.4762H-75.9835ZM-44.2756 68.5905H-13.241L-24.1209 71.6675H-56.7378L-44.2756 68.5905ZM-71.1677 75.2303L-57.2672 71.7961H-24.5812L-36.6637 75.2303H-71.1677ZM-35.8237 75.3732H-1.26778L-12.7749 79.217H-49.3273L-35.8237 75.3732ZM-65.115 83.7182L-49.8911 79.379H-13.2467L-26.2209 83.7182H-65.115ZM-25.1968 83.8992H13.7835L1.70108 88.8338H-39.8627L-25.1968 83.8992ZM-57.2844 94.7067L-40.4783 89.0481H1.19477L-12.6656 94.7067H-57.2844ZM-11.4688 94.9401H33.2651L20.7626 101.499H-27.3889L-11.4688 94.9401ZM-28.1081 101.837H20.2217L5.5617 109.525H-46.7612L-28.1081 101.837ZM-69.7984 118.984L-47.5954 109.839H4.90002L-12.539 118.984H-69.7984ZM-11.0028 119.384H46.4637L31.3721 130.439H-31.8537L-11.0028 119.384ZM-58.4927 144.562L-32.78 130.93H30.7047L12.092 144.562H-58.4927ZM14.0942 145.172H84.9895L70.853 162.424H-9.0178L14.0942 145.172ZM-40.3229 185.658L-10.1168 163.186H70.1684L51.6707 185.658H-40.3229ZM30.0201 217.233L54.5129 186.701H147.047L138.457 217.233H30.0201ZM142.79 217.233L150.741 186.701H243.276L251.227 217.233H142.79ZM364.003 217.233H255.571L246.981 186.701H339.544L364.003 217.233ZM434.34 185.658H342.329L323.831 163.186H404.116L434.34 185.658ZM403.081 162.405H323.21L309.05 145.186H379.946L403.081 162.405ZM452.504 144.562H381.954L363.341 130.93H426.82L452.504 144.562ZM425.871 130.439H362.656L347.599 119.399H405.071L425.871 130.439ZM463.821 118.999H406.567L389.134 109.853H441.63L463.821 118.999ZM440.807 109.52H388.49L373.824 101.832H422.154L440.807 109.52ZM421.446 101.546H373.295L360.786 94.9925H405.52L421.446 101.546ZM451.365 94.7448H406.751L392.897 89.0862H434.57L451.365 94.7448ZM433.949 88.8766H392.385L380.302 83.9516H419.294L433.949 88.8766ZM459.207 83.761H420.307L407.338 79.4218H443.977L459.207 83.761ZM443.407 79.2599H406.861L395.354 75.4018H429.875L443.407 79.2599ZM465.271 75.2732H430.796L418.679 71.8438H451.37L465.271 75.2732ZM450.829 71.7151H418.195L407.321 68.6429H438.327L450.829 71.7151ZM470.081 68.5191H439.081L427.758 65.7279H457.273L470.081 68.5191ZM456.848 65.6326H427.407L417.125 63.113H445.266L456.848 65.6326ZM444.771 63.0177H416.682L407.321 60.7171H434.213L444.771 63.0177ZM461.727 60.6362H434.881L425.169 58.5309H450.933L461.727 60.6362ZM450.501 58.4594H424.789L415.871 56.5256H440.611L450.501 58.4594ZM465.841 56.4541H441.187L431.981 54.6727H455.714L465.841 56.4541ZM455.34 54.5918H431.641L423.143 52.9437H445.985L455.34 54.5918ZM469.344 52.8818H446.56L437.849 51.3529H459.863L469.344 52.8818ZM459.471 51.2957H437.493L429.392 49.8668H450.628L459.471 51.2957ZM450.266 49.8191H429.052L421.504 48.495H442.027L450.266 49.8191ZM463.021 48.4426H442.544L434.817 47.2042H454.667L463.021 48.4426ZM454.328 47.1566H434.535L427.297 45.9944H446.56L454.328 47.1566ZM466.145 45.9562H446.952L439.564 44.8655H458.2L466.145 45.9562ZM457.889 44.8226H439.288L432.384 43.8081H450.456L457.889 44.8226ZM468.901 43.7605H450.876L443.81 42.8078H461.364L468.901 43.7605ZM461.042 42.7602H443.511L436.837 41.8457H453.896L461.042 42.7602ZM453.62 41.8076H436.601L430.272 40.9454H446.865L453.62 41.8076ZM463.85 40.9169H447.274L440.864 40.0976H457.015L463.85 40.9169ZM456.75 40.0691H440.64L434.564 39.2974H450.294L456.75 40.0691ZM466.376 39.2641H450.657L444.489 38.5306H459.811L466.376 39.2641ZM459.581 38.5067H444.259L438.396 37.8066H453.355L459.581 38.5067ZM468.643 37.778H453.683L447.734 37.1159H462.342L468.643 37.778ZM462.112 37.0826H447.527L441.865 36.4491H456.134L462.112 37.0826Z" fill="#99FFCC"/>
</g>
<defs>
<linearGradient id="paint0_linear" x1="191.501" y1="36" x2="191.501" y2="88.8889" gradientUnits="userSpaceOnUse">
<stop stop-color="#99FFCC" stop-opacity="0"/>
<stop offset="0.0001" stop-color="#B0FFD8" stop-opacity="0.1"/>
<stop offset="0.302083" stop-color="#99FFCC" stop-opacity="0.28"/>
<stop offset="1" stop-color="#99FFCC"/>
</linearGradient>
</defs>
</svg>
