<svg width="539" height="135" viewBox="0 0 539 135" fill="none" xmlns="http://www.w3.org/2000/svg">
<path d="M539 10C539 4.47715 534.523 0 529 0H10.002C4.47911 0 0.00195312 4.47715 0.00195312 10V125C0.00195312 130.523 4.47912 135 10.002 135H529C534.523 135 539 130.523 539 125V10Z" fill="url(#paint0_linear)" fill-opacity="0.39"/>
<mask id="mask0" mask-type="alpha" maskUnits="userSpaceOnUse" x="0" y="0" width="538" height="135">
<path d="M10.002 0.5H527.998C533.245 0.5 537.498 4.7533 537.498 10V125C537.498 130.247 533.245 134.5 527.998 134.5H10.0019C4.75524 134.5 0.501953 130.247 0.501953 125V10C0.501953 4.7533 4.75525 0.5 10.002 0.5Z" fill="#070618" stroke="#99FFCC"/>
</mask>
<g mask="url(#mask0)">
<path opacity="0.5" d="M548.973 76H1.09022H15.3705L9.36953 76.7073H1.11895V76.7395H9.12217L2.82198 77.4843H1.09591V77.5164H2.54006L1.09591 77.6879V77.7576L3.13845 77.5164H18.0977L11.8666 78.2988H1.11319V78.3309H11.6019L5.04291 79.1561H1.09591V79.1936H4.75524L1.07871 79.6545V79.7295L5.39963 79.1936H21.1241L14.6283 80.0617H1.09022V80.0939H14.3752L7.51114 81.0155H1.09022V81.0477H7.22922L1.09022 81.8729V81.964L7.88514 81.0477H24.4784L17.7122 82.0176H1.09022V82.0551H17.4418L10.2786 83.0839H1.07295V83.1268H9.96792L2.38477 84.1985H1.07295V84.2414H2.0683L1.07295 84.386V84.4878L2.79901 84.2306H20.8766L13.397 85.3827H1.09591V85.4309H13.0691L5.09468 86.6741H1.06719V86.7223H4.74948L1.06719 87.2904V87.4082L5.52619 86.7223H24.7431L16.878 88.0298H1.06719V88.0834H16.5558L8.15554 89.4766H1.07871V89.5355H7.81034L1.06719 90.6555V90.7948L8.63313 89.5355H29.1791L20.917 91.0252H1.09591V91.0895H20.5487L11.6825 92.6971H1.07295V92.7614H11.3142L1.78062 94.4814H1.07295V94.5511H1.38359L1.07295 94.61V94.7762L2.29846 94.5511H25.1401L15.7503 96.4051H1.07295V96.4855H15.3705L5.22124 98.4842H1.08446V98.5646H4.79548L1.08446 99.2987V99.497L5.78508 98.5646H30.4851L20.5199 100.74H1.08446V100.826H20.1057L9.25449 103.194H1.08446V103.291H8.79993L1.08446 104.973V105.22L9.87585 103.291H36.7737L26.1642 105.879H1.08446V105.986H25.7269L14.099 108.826H1.09591V108.944H13.5985L1.09591 111.993V112.325L1.46991 112.234H32.5046L19.9446 115.696H1.09591V115.84H19.398L5.4226 119.704H1.07871V119.865H4.83572L1.07871 120.936V121.328L6.21659 119.902H40.7379L27.1768 124.189H1.06143V124.371H26.6015L11.2798 129.242H1.06143V129.446H10.6354L1.06143 132.495V133.03L12.1888 129.462H51.1864L36.4285 135.008H1.04415V135.244H35.8072L18.8802 141.615H1.04415V141.877H18.1437L1.04415 148.308V149.031L19.9274 141.872H64.7015L48.6376 149.251H1.07871V149.567H47.9472L29.11 158.221H1.06143V158.596H28.2987L5.90019 168.895H1.06143V169.345H4.92204L1.06143 171.119V172.19L7.22346 169.334H64.6958L43.609 181.771H1.03263V182.307H42.6482L16.6536 197.643H1.03263V198.329H15.4856L1.04991 206.854V208.639L18.3106 198.329H89.1945L65.6739 217.716H1.00391V218.59H64.6094L33.9315 243.871H1.00391V245.034H32.6312L1.11319 271.022V274.516L36.325 245.044H128.859L103.728 279.392H1.11319V281H548.996V279.392H446.381L421.249 245.044H513.784L548.996 274.516V271.022L517.483 245.034H548.996V243.871H516.045L485.367 218.59H548.973V217.727H484.285L460.765 198.34H531.666L548.927 208.65V206.865L534.468 198.34H548.927V197.654H533.312L507.311 182.318H548.927V181.782H506.35L485.264 169.345H542.736L548.898 172.201V171.129L545.037 169.356H548.898V168.906H544.122L521.724 158.617H548.961V158.242H520.907L502.075 149.594H548.961V149.272H501.397L485.338 141.899H530.084L548.973 149.052V148.329L531.873 141.899H548.973V141.636H531.137L514.204 135.244H548.95V134.986H513.565L498.813 129.435H537.817L548.95 133.004V132.468L539.376 129.424H548.95V129.221H538.726L523.41 124.35H548.955V124.167H522.834L509.285 119.827H543.806L548.944 121.252V120.899L545.187 119.827H548.944V119.666H544.588L530.625 115.803H548.944V115.658H530.095L517.564 112.213H548.581L548.955 112.304V112.004L536.447 108.955H548.955V108.837H535.964L524.324 106.002H548.955V105.895H523.881L513.266 103.307H540.164L548.961 105.236V104.989L541.246 103.312H548.967V103.216H540.785L529.94 100.847H548.961V100.762H529.526L519.555 98.586H544.261L548.961 99.5184V99.3202L545.25 98.586H548.961V98.5057H544.819L534.669 96.5016H548.961V96.4212H534.278L524.894 94.5672H547.753L548.978 94.7922V94.6422L548.668 94.5833H548.978V94.5136H548.271L538.737 92.7935H548.978V92.7292H538.369L529.508 91.1217H548.984V91.0574H529.163L520.901 89.5677H541.418L548.984 90.827V90.6876L542.235 89.5677H548.984V89.5087H541.907L533.507 88.1156H548.996V88.0619H533.191L525.326 86.7545H544.548L549.007 87.4404V87.3225L545.325 86.7545H549.007V86.7063H544.98L537.005 85.4845H548.996V85.4363H536.7L529.221 84.2842H547.293L549.019 84.5468V84.4611L548.018 84.3164H549.019V84.2574H547.707L540.124 83.1857H549.019V83.1429H539.813L532.615 82.0765H548.967V82.039H532.339L525.573 81.0691H542.161L548.955 81.9854V81.8943L542.816 81.0691H548.955V81.037H542.534L535.682 80.1153H548.955V80.0832H535.435L528.939 79.2151H544.698L548.996 79.7509V79.6759L545.319 79.2151H548.996V79.1776H545.055L538.49 78.3524H548.996V78.3256H538.237L532.011 77.5379H546.97L549.019 77.7844V77.7094L547.569 77.5379H549.019V77.495H547.293L540.964 76.7502H548.967V76.718H540.716L534.715 76.0107H548.967L548.973 76ZM519.325 76L524.969 76.7073H510.384L505.062 76H519.325ZM283.107 80.0939L283.319 81.0155H266.743L266.956 80.0939H283.107ZM266.997 80.0617L267.198 79.1936H282.911L283.112 80.0617H266.997ZM243.442 181.739L246.318 169.302H303.785L306.662 181.739H243.442ZM306.788 182.275L310.344 197.611H239.759L243.309 182.275H306.788ZM248.89 158.162L250.892 149.513H299.222L301.23 158.162H248.89ZM301.299 158.537L303.681 168.825H246.433L248.81 158.537H301.299ZM252.739 141.534L254.212 135.169H295.885L297.364 141.534H252.739ZM297.421 141.797L299.119 149.176H250.979L252.705 141.797H297.421ZM255.616 129.178L256.767 124.296H293.405L294.556 129.178H255.616ZM294.556 129.381L295.845 134.933H254.275L255.564 129.381H294.556ZM257.82 119.64L258.729 115.776H291.42L292.312 119.64H257.82ZM292.341 119.8L293.348 124.125H256.796L257.797 119.8H292.341ZM259.586 112.036L260.311 108.901H289.827L290.552 112.036H259.586ZM290.575 112.17L291.38 115.631H258.746L259.54 112.17H290.575ZM260.34 108.794L261.001 105.954H289.142L289.804 108.794H260.34ZM261.623 103.216L262.198 100.847H287.963L288.503 103.216H261.623ZM288.492 103.312L289.067 105.9H260.978L261.554 103.312H288.492ZM262.727 98.4896L263.188 96.4855H286.915L287.381 98.4896H262.727ZM287.41 98.57L287.911 100.746H262.198L262.704 98.57H287.41ZM305.591 88.0405H285.77L285.443 86.7331H304.665L305.591 88.0405ZM304.493 85.4631H323.128L324.59 86.6902H305.35L304.493 85.4631ZM263.642 94.4814L264.039 92.7614H286.058L286.449 94.4814H263.642ZM286.467 94.5511L286.898 96.4051H263.199L263.625 94.5511H286.467ZM263.982 89.4873H243.488L244.477 88.0941H264.327L263.982 89.4873ZM285.776 88.0941H305.632L306.621 89.4873H286.116L285.776 88.0941ZM286.064 92.6971H264.057L264.425 91.0895H285.661L286.064 92.6971ZM264.361 88.0405H244.546L245.478 86.7331H264.661L264.361 88.0405ZM244.736 86.6902H225.513L226.981 85.4631H245.611L244.736 86.6902ZM224.771 86.6902H205.549L207.603 85.4631H226.233L224.771 86.6902ZM225.479 86.7384H244.696L243.746 88.0459H223.891L225.479 86.7384ZM243.7 88.0941L242.688 89.4873H222.188L223.856 88.0941H243.7ZM243.465 89.5463H263.987L263.613 91.0359H242.383L243.465 89.5463ZM263.602 91.1002L263.205 92.7078H241.203L242.354 91.1002H263.602ZM263.188 92.7614L262.756 94.4814H239.932L241.157 92.7614H263.188ZM287.393 94.4814L286.961 92.7614H308.969L310.194 94.4814H287.393ZM286.944 92.6971L286.547 91.0895H307.778L308.928 92.6971H286.944ZM286.53 91.0359L286.156 89.5463H306.679L307.743 91.0359H286.53ZM306.437 88.0941H326.287L327.956 89.4873H307.456L306.437 88.0941ZM306.397 88.0405L305.442 86.7331H324.664L326.218 88.0405H306.397ZM323.882 85.4631H342.518L344.572 86.6902H325.372L323.882 85.4631ZM323.83 85.4149L322.432 84.2628H340.504L342.437 85.4149H323.83ZM323.082 85.4149H304.475L303.624 84.2628H321.701L323.082 85.4149ZM304.636 86.6902H285.419L285.115 85.4631H303.733L304.636 86.6902ZM285.65 91.0359H264.425L264.77 89.5463H285.293L285.65 91.0359ZM264.678 86.6902H245.461L246.336 85.4631H264.971L264.678 86.6902ZM245.639 85.4149H227.015L228.396 84.2628H246.474L245.639 85.4149ZM226.29 85.4149H207.666L209.593 84.2628H227.677L226.29 85.4149ZM206.935 85.4149H188.311L190.796 84.2628H208.874L206.935 85.4149ZM206.855 85.4631L204.778 86.6902H185.567L188.207 85.4631H206.855ZM205.462 86.7384H224.685L223.103 88.0459H203.282L205.462 86.7384ZM223.028 88.0941L221.302 89.4873H200.808L203.144 88.0941H223.028ZM222.084 89.5463H242.636L241.543 91.0359H220.335L222.084 89.5463ZM241.474 91.1002L240.323 92.7078H218.35L220.26 91.1002H241.474ZM240.26 92.7614L239 94.4814H216.17L218.224 92.7614H240.26ZM239.857 94.5511H262.704L262.238 96.4051H238.534L239.857 94.5511ZM262.221 96.4855L261.721 98.4896H237.049L238.482 96.4855H262.221ZM287.853 96.4855H311.587L313.019 98.4896H288.348L287.853 96.4855ZM287.853 96.4051L287.387 94.5511H310.235L311.552 96.4051H287.853ZM309.832 92.7614H331.816L333.87 94.4814H311.103L309.832 92.7614ZM309.78 92.6971L308.629 91.0895H329.866L331.77 92.6971H309.78ZM308.566 91.0359L307.479 89.5463H328.002L329.785 91.0359H308.566ZM327.064 88.0941H346.914L349.249 89.4873H328.75L327.064 88.0941ZM327 88.0405L325.418 86.7331H344.641L346.827 88.0405H327ZM343.243 85.4631H361.879L364.519 86.6902H345.32L343.243 85.4631ZM343.162 85.4149L341.212 84.2628H359.289L361.775 85.4149H343.162ZM357.546 83.1375H375.1L377.977 84.2092H359.922L357.546 83.1375ZM359.186 84.2092H341.125L339.284 83.1375H356.833L359.186 84.2092ZM340.412 84.2092H322.352L321.034 83.1375H338.588L340.412 84.2092ZM321.632 84.2092H303.578L302.784 83.1375H320.332L321.632 84.2092ZM303.71 85.4042H285.092L284.81 84.2521H302.876L303.71 85.4042ZM285.299 89.4766H264.799L265.121 88.0834H284.976L285.299 89.4766ZM264.983 85.4042H246.37L247.193 84.2521H265.271L264.983 85.4042ZM246.502 84.2039H228.448L229.742 83.1322H247.296L246.502 84.2039ZM227.729 84.2039H209.668L211.486 83.1322H229.04L227.729 84.2039ZM208.949 84.2039H190.894L193.23 83.1322H210.784L208.949 84.2039ZM190.187 84.2039H172.12L174.997 83.1322H192.551L190.187 84.2039ZM171.407 84.2039H153.341L156.735 83.1322H174.29L171.407 84.2039ZM172.017 84.2467H190.089L187.58 85.3988H168.956L172.017 84.2467ZM187.482 85.447L184.807 86.6795H165.602L168.835 85.4524L187.482 85.447ZM185.474 86.7223H204.691L202.482 88.0298H182.667L185.474 86.7223ZM202.39 88.078L200.031 89.4712H179.531L182.54 88.078H202.39ZM200.75 89.5302H221.279L219.466 91.0198H198.242L200.75 89.5302ZM219.397 91.0841L217.458 92.6917H195.457L198.138 91.0841H219.397ZM217.366 92.7506L215.284 94.4707H192.471L195.348 92.7506H217.366ZM216.106 94.5404H238.948L237.596 96.3944H213.868L216.106 94.5404ZM237.538 96.4748L236.048 98.4789H211.4L213.793 96.4748H237.538ZM236.998 98.5646H261.698L261.157 100.74H235.444L236.998 98.5646ZM261.162 100.826L260.587 103.194H233.73L235.456 100.826H261.162ZM288.969 100.826H314.734L316.46 103.194H289.614L288.969 100.826ZM288.969 100.74L288.429 98.5646H313.129L314.676 100.74H288.969ZM312.559 96.4802H336.292L338.686 98.4842H313.98L312.559 96.4802ZM312.502 96.3998L311.149 94.5457H333.991L336.2 96.3998H312.502ZM332.731 92.756H354.738L357.615 94.4761H334.808L332.731 92.756ZM332.65 92.6917L330.711 91.0841H351.942L354.623 92.6917H332.65ZM330.631 91.0306L328.83 89.5409H349.347L351.85 91.0306H330.631ZM347.713 88.0888H367.563L370.566 89.482H350.072L347.713 88.0888ZM347.621 88.0352L345.406 86.7277H364.611L367.442 88.0352H347.621ZM362.626 85.4577H381.251L384.49 86.6848H365.285L362.626 85.4577ZM362.523 85.4095L360.014 84.2574H378.086L381.13 85.4095H362.523ZM375.814 83.1322H393.362L396.762 84.2039H378.708L375.814 83.1322ZM375.699 83.0893L372.977 82.0605H390.036L393.23 83.0893H375.699ZM374.997 83.0893H357.465L355.233 82.0605H372.298L374.997 83.0893ZM356.764 83.0893H339.209L337.483 82.0605H354.543L356.764 83.0893ZM338.531 83.0893H321.005L319.757 82.0605H336.822L338.531 83.0893ZM320.292 83.0893H302.761L302.013 82.0605H319.072L320.292 83.0893ZM302.859 84.2039H284.804L284.516 83.1322H302.07L302.859 84.2039ZM284.971 88.0245H265.15L265.455 86.717H284.637L284.971 88.0245ZM265.305 84.2039H247.239L248.01 83.1322H265.564L265.305 84.2039ZM247.354 83.0786H229.817L231.037 82.0497H248.102L247.354 83.0786ZM229.115 83.0786H211.567L213.293 82.0497H230.352L229.115 83.0786ZM210.882 83.0786H193.351L195.56 82.0497H212.62L210.882 83.0786ZM192.649 83.0786H175.112L177.816 82.0497H194.882L192.649 83.0786ZM174.416 83.0786H156.885L160.072 82.0497H177.138L174.416 83.0786ZM156.183 83.0786H138.646L142.329 82.0497H159.388L156.183 83.0786ZM156.045 83.1214L152.65 84.1931H134.584L138.497 83.1214H156.045ZM153.214 84.2467H171.292L168.231 85.3988H149.624L153.214 84.2467ZM168.11 85.447L164.854 86.6741H145.66L149.48 85.447H168.11ZM165.487 86.7223H184.704L181.873 88.0298H162.057L165.487 86.7223ZM181.752 88.078L178.72 89.4712H158.22L161.896 88.078H181.752ZM179.416 89.5302H199.939L197.413 91.0198H176.2L179.416 89.5302ZM197.309 91.0841L194.6 92.6917H172.621L176.073 91.0841H197.309ZM194.479 92.7453L191.567 94.4654H168.772L172.477 92.7453H194.479ZM192.356 94.535H215.197L212.948 96.3891H189.249L192.356 94.535ZM212.856 96.4748L210.428 98.4789H185.774L189.134 96.4748H212.856ZM211.314 98.5646H236.014L234.42 100.74H208.69L211.314 98.5646ZM234.362 100.826L232.636 103.194H205.784L208.615 100.826H234.362ZM233.632 103.291H260.524L259.879 105.879H231.796L233.632 103.291ZM259.856 105.97L259.143 108.81H229.702L231.722 105.97H259.856ZM259.114 108.928L258.332 112.068H227.383L229.61 108.928H259.114ZM290.983 108.928H320.493L322.726 112.068H291.771L290.983 108.928ZM290.983 108.81L290.27 105.97H318.41L320.436 108.81H290.983ZM290.241 105.863L289.597 103.275H316.489L318.336 105.863H290.241ZM315.758 100.81H341.522L344.353 103.178H317.432L315.758 100.81ZM315.695 100.724L314.107 98.5485H338.807L341.402 100.724H315.695ZM337.259 96.4641H360.992L364.353 98.4682H339.687L337.259 96.4641ZM337.167 96.3837L334.917 94.5297H357.759L360.877 96.3837H337.167ZM355.636 92.7399H377.655L381.366 94.46H358.559L355.636 92.7399ZM355.527 92.6756L352.817 91.0681H374.053L377.505 92.6756H355.527ZM352.713 91.0145L350.187 89.5248H370.71L373.926 91.0145H352.713ZM368.374 88.0727H388.224L391.906 89.4659H371.412L368.374 88.0727ZM368.253 88.0191L365.423 86.7116H384.645L388.097 88.0191H368.253ZM382.016 85.4417H400.652L404.472 86.6688H385.273L382.016 85.4417ZM381.889 85.3934L378.828 84.2414H396.831L400.427 85.3934H381.889ZM394.087 83.1161H411.635L415.548 84.1878H397.487L394.087 83.1161ZM393.949 83.0732L390.733 82.0444H407.763L411.445 83.0732H393.949ZM390.612 82.0015L387.574 81.0316H404.167L407.654 82.0015H390.612ZM389.933 82.0015H372.885L370.313 81.0316H386.912L389.933 82.0015ZM372.206 82.0015H355.164L353.058 81.0316H369.652L372.206 82.0015ZM354.485 82.0015H337.455L335.815 81.0316H352.402L354.485 82.0015ZM336.764 82.0015H319.722L318.543 81.0316H335.142L336.764 82.0015ZM319.043 82.0015H302.001L301.288 81.0316H317.887L319.043 82.0015ZM302.076 83.0732H284.551L284.298 82.0444H301.322L302.076 83.0732ZM284.683 86.6688H265.483L265.765 85.4417H284.395L284.683 86.6688ZM265.616 83.0732H248.085L248.81 82.0444H265.869L265.616 83.0732ZM248.159 82.0015H231.117L232.268 81.0316H248.867L248.159 82.0015ZM230.439 82.0015H213.396L215.019 81.0316H231.612L230.439 82.0015ZM212.712 82.0015H195.675L197.758 81.0316H214.352L212.712 82.0015ZM194.991 82.0015H177.955L180.498 81.0316H197.091L194.991 82.0015ZM177.27 82.0015H160.228L163.248 81.0316H179.842L177.27 82.0015ZM159.549 82.0015H142.507L145.994 81.0316H162.587L159.549 82.0015ZM141.828 82.0015H124.786L128.75 81.0316H145.343L141.828 82.0015ZM141.684 82.039L137.973 83.0679H120.442L124.625 82.039H141.684ZM137.823 83.1107L133.9 84.1824H115.833L120.269 83.1107H137.823ZM134.452 84.236H152.53L148.905 85.3881H130.304L134.452 84.236ZM148.761 85.4363L144.918 86.6634H125.724L130.137 85.4363H148.761ZM145.527 86.7116H164.762L161.31 88.0191H141.488L145.527 86.7116ZM161.143 88.0673L157.437 89.4605H136.943L141.293 88.0673H161.143ZM158.105 89.5195H178.633L175.388 91.0091H154.175L158.105 89.5195ZM175.256 91.0735L171.769 92.681H149.791L154.002 91.0735H175.256ZM171.626 92.7346L167.886 94.4547H145.079L149.612 92.7346H171.626ZM168.645 94.5243H191.487L188.345 96.3783H164.647L168.645 94.5243ZM188.207 96.4587L184.813 98.4628H160.147L164.468 96.4587H188.207ZM185.659 98.5485H210.364L207.723 100.724H182.022L185.659 98.5485ZM207.614 100.81L204.737 103.178H177.891L181.855 100.81H207.614ZM205.698 103.275H232.596L230.697 105.863H202.609L205.698 103.275ZM230.611 105.954L228.54 108.794H199.093L202.493 105.954H230.611ZM228.453 108.907L226.152 112.047H195.198L198.938 108.907H228.453ZM227.303 112.164H258.309L257.44 115.631H224.8L227.303 112.164ZM257.417 115.776L256.456 119.634H221.935L224.691 115.776H257.417ZM292.715 115.776H325.401L328.151 119.634H293.676L292.715 115.776ZM292.68 115.631L291.806 112.164H322.823L325.297 115.631H292.68ZM321.69 108.907H351.194L354.934 112.047H323.968L321.69 108.907ZM321.598 108.789L319.527 105.954H347.667L351.062 108.789H321.598ZM319.446 105.847L317.553 103.259H344.451L347.541 105.847H319.446ZM342.529 100.788H368.288L372.252 103.157H345.406L342.529 100.788ZM342.414 100.703L339.779 98.5271H364.485L368.127 100.703H342.414ZM361.93 96.4426H385.669L389.99 98.4467H365.331L361.93 96.4426ZM361.804 96.3623L358.662 94.5082H381.51L385.537 96.3623H361.804ZM378.489 92.7185H400.502L405.03 94.4386H382.223L378.489 92.7185ZM378.345 92.6542L374.893 91.0466H396.124L400.347 92.6542H378.345ZM374.732 90.9931L371.487 89.5034H392.01L395.94 90.9931H374.732ZM388.972 88.0513H408.828L413.171 89.4444H392.677L388.972 88.0513ZM388.834 87.9976L385.382 86.6902H404.599L408.672 87.9976H388.834ZM401.348 85.4202H419.978L424.397 86.6473H405.197L401.348 85.4202ZM401.204 85.372L397.585 84.2199H415.663L419.811 85.372H401.204ZM412.291 83.0946H429.845L434.281 84.1663H416.232L412.291 83.0946ZM412.142 83.0518L408.436 82.0229H425.49L429.678 83.0518H412.142ZM408.292 81.9801L404.783 81.0102H421.376L425.34 81.9801H408.292ZM418.125 80.0564H434.275L438.481 80.978H421.894L418.125 80.0564ZM421.221 80.978H404.65L401.331 80.0564H417.441L421.221 80.978ZM403.96 80.978H387.384L384.507 80.0564H400.646L403.96 80.978ZM386.699 80.978H370.123L367.69 80.0564H383.8L386.699 80.978ZM369.439 80.978H352.863L350.883 80.0564H366.993L369.439 80.978ZM352.178 80.978H335.625L334.066 80.0564H350.176L352.178 80.978ZM334.917 80.978H318.341L317.231 80.0564H333.341L334.917 80.978ZM317.657 80.978H301.081L300.408 80.0564H316.517L317.657 80.978ZM301.138 81.9801H284.096L283.855 81.0102H300.471L301.138 81.9801ZM284.2 85.3827H265.604L265.863 84.2253H284.062L284.2 85.3827ZM265.696 81.9801H248.666L249.356 81.0102H265.949L265.696 81.9801ZM248.706 80.978H232.28L233.373 80.0564H249.483L248.706 80.978ZM231.445 80.978H215.019L216.555 80.0564H232.665L231.445 80.978ZM214.185 80.978H197.62L199.605 80.0564H215.715L214.185 80.978ZM196.924 80.978H180.365L182.788 80.0564H198.897L196.924 80.978ZM179.663 80.978H163.099L165.976 80.0564H182.114L179.663 80.978ZM162.403 80.978H145.838L149.141 80.0564H165.251L162.403 80.978ZM145.142 80.978H128.578L132.323 80.0564H148.433L145.142 80.978ZM127.881 80.978H111.317L115.5 80.0564H131.65L127.881 80.978ZM110.621 80.978H94.0504L98.6533 80.0564H114.803L110.621 80.978ZM111.11 81.0102H127.703L123.739 81.9801H106.702L111.11 81.0102ZM123.566 82.0176L119.383 83.0464H101.847L106.518 82.0176H123.566ZM119.193 83.0893L114.752 84.161H96.697L101.651 83.0893H119.193ZM115.281 84.2146H133.37L129.199 85.3666H110.88L115.281 84.2146ZM129.015 85.4149L124.579 86.642H105.701L110.707 85.4149H129.015ZM125.166 86.6902H144.388L140.292 87.9976H120.471L125.166 86.6902ZM140.125 88.0459L135.752 89.4391H115.252L120.269 88.0459H140.125ZM136.391 89.4981H156.914L152.95 90.9877H131.753L136.391 89.4981ZM152.788 91.052L148.542 92.6595H126.57L131.558 91.052H152.788ZM148.364 92.7132L143.796 94.4332H120.994L126.362 92.7132H148.364ZM144.521 94.5029H167.362L163.335 96.3569H139.636L144.521 94.5029ZM163.162 96.4373L158.801 98.4414H134.469L139.757 96.4373H163.162ZM159.606 98.5271H184.306L180.624 100.703H154.923L159.606 98.5271ZM180.469 100.788L176.441 103.157H149.601L154.699 100.788H180.469ZM177.356 103.253H204.248L201.113 105.841H173.035L177.356 103.253ZM200.98 105.933L197.528 108.773H168.415L173.173 105.933H200.98ZM197.39 108.89L193.598 112.031H162.662L167.903 108.89H197.39ZM194.692 112.143H225.709L223.183 115.61H190.854L194.692 112.143ZM223.062 115.755L220.232 119.613H185.774L190.376 115.755H223.062ZM221.503 119.779H256.025L254.972 124.098H218.408L221.503 119.779ZM254.926 124.28L253.717 129.151H214.818L218.27 124.269L254.926 124.28ZM294.493 124.28H331.149L334.601 129.151H295.707L294.493 124.28ZM294.453 124.098L293.365 119.779H327.921L331.005 124.098H294.453ZM326.356 115.755H359.048L363.651 119.613H329.515L326.356 115.755ZM326.252 115.61L323.704 112.143H354.721L358.892 115.605L326.252 115.61ZM352.017 108.885H381.872L387.114 112.025H356.154L352.017 108.885ZM351.867 108.767L348.415 105.933H376.556L381.308 108.767H351.867ZM348.3 105.825L345.159 103.237H372.057L376.694 105.895L348.3 105.825ZM368.95 100.772H394.714L399.806 103.141H372.966L368.95 100.772ZM368.794 100.681L365.118 98.5378H389.818L394.507 100.681H368.794ZM386.256 96.4212H409.99L415.283 98.4253H390.617L386.256 96.4212ZM386.089 96.3408L382.062 94.4921H404.898L409.794 96.3408H386.089ZM401.049 92.6971H423.062L428.424 94.4171H405.617L401.049 92.6971ZM400.87 92.6328L396.624 91.0252H417.861L422.849 92.6328H400.87ZM396.463 90.9716L392.499 89.482H413.022L417.671 90.9716H396.463ZM409.288 88.0298H429.138L434.155 89.423H413.661L409.288 88.0298ZM409.121 87.9762L405.024 86.6688H424.247L428.948 87.9762H409.121ZM420.398 85.3988H439.028L444.028 86.6259H424.834L420.398 85.3988ZM420.225 85.3505L416.054 84.1985H434.132L438.832 85.3505H420.225ZM430.219 83.0732H447.768L452.727 84.1449H434.673L430.219 83.0732ZM430.047 83.0303L425.847 82.0015H442.9L447.578 83.0303H430.047ZM425.68 81.9586L421.716 80.9888H438.309L442.728 81.9586H425.68ZM434.592 80.0349H450.702L455.305 80.9566H438.735L434.592 80.0349ZM434.425 80.0028L430.444 79.1347H446.174L450.564 80.0028H434.425ZM433.781 80.0028H417.671L414.104 79.1347H429.84L433.781 80.0028ZM417.003 80.0028H400.865L397.717 79.1347H413.453L417.003 80.0028ZM400.226 80.0028H384.116L381.389 79.1347H397.407L400.226 80.0028ZM383.443 80.0028H367.333L365.031 79.1347H380.767L383.443 80.0028ZM366.665 80.0028H350.555L348.663 79.1347H364.393L366.665 80.0028ZM349.882 80.0028H333.772L332.294 79.1347H348.03L349.882 80.0028ZM333.111 80.0028H317.001L315.942 79.1347H331.678L333.111 80.0028ZM316.328 80.0028H300.189L299.55 79.1347H315.286L316.328 80.0028ZM299.573 80.0349L300.229 80.9566H283.647L283.411 80.0349H299.573ZM283.716 84.1503H265.668L265.921 83.0786H283.475L283.716 84.1503ZM265.742 80.9352H249.172L249.822 80.0135H265.932L265.742 80.9352ZM249.201 79.9814H233.091L234.126 79.1133H249.874L249.201 79.9814ZM232.423 79.9814H216.314L217.769 79.1133H233.505L232.423 79.9814ZM215.64 79.9814H199.502L201.377 79.1133H217.108L215.64 79.9814ZM198.863 79.9814H182.753L185.054 79.1133H200.785L198.863 79.9814ZM182.08 79.9814H165.97L168.68 79.1133H184.41L182.08 79.9814ZM165.302 79.9814H149.164L152.294 79.1133H168.03L165.302 79.9814ZM148.525 79.9814H132.415L135.959 79.1133H151.695L148.525 79.9814ZM131.748 79.9814H115.638L119.602 79.1133H135.62L131.748 79.9814ZM114.965 79.9814H98.8546L103.245 79.1133H118.975L114.965 79.9814ZM98.1872 79.9814H82.0772L86.893 79.1133H102.623L98.1872 79.9814ZM98.0089 80.0135L93.36 80.9352H76.7955L81.8644 80.0135H98.0089ZM93.8318 80.9673H110.425L105.989 81.9372H88.9585L93.8318 80.9673ZM105.805 81.9747L101.116 83.0036H83.5847L88.7629 81.9747H105.805ZM100.926 83.0464L95.9549 84.1181H77.9002L83.3718 83.0464H100.926ZM96.4669 84.1717H114.907L110.183 85.3238H91.5706L96.4669 84.1717ZM109.625 85.372L104.597 86.5991H85.4028L90.9952 85.372H109.625ZM105.161 86.6473H124.383L119.654 87.9548H99.827L105.161 86.6473ZM119.464 88.003L114.418 89.3962H93.9296L99.6141 88.003H119.464ZM115.028 89.4552H135.551L130.873 90.9448H109.666L115.028 89.4552ZM130.683 91.0091L125.666 92.6167H103.682L109.435 91.0091H130.683ZM125.459 92.6703L120.062 94.3904H97.2551L103.446 92.6703H125.459ZM120.747 94.46H143.594L138.669 96.314H114.97L120.747 94.46ZM138.462 96.3944L133.134 98.3985H108.475L114.723 96.3944H138.462ZM133.905 98.4842H158.6L153.876 100.66H128.163L133.905 98.4842ZM153.675 100.746L148.496 103.109H121.65L127.899 100.74L153.675 100.746ZM149.388 103.21H176.28L171.902 105.799H143.801L149.388 103.21ZM171.706 105.89L166.896 108.73H137.455L143.577 105.89H171.706ZM166.701 108.848L161.396 111.988H130.442L137.191 108.848H166.701ZM162.42 112.1H193.432L189.232 115.562H156.609L162.42 112.1ZM189.053 115.712L184.376 119.57H149.9L156.367 115.712H189.053ZM185.555 119.736H220.076L216.912 124.055H180.371L185.555 119.736ZM216.808 124.237L213.241 129.108H174.347L180.175 124.226L216.808 124.237ZM214.645 129.322H253.643L252.256 134.863H210.692L214.645 129.322ZM252.198 135.11L250.605 141.475H205.992L210.52 135.11H252.198ZM298.802 141.475L297.209 135.11H338.882L343.415 141.475H298.802ZM297.163 134.863L295.77 129.312H334.756L338.72 134.863H297.163ZM332.604 124.226H369.243L375.06 129.108H336.16L332.604 124.226ZM332.472 124.044L329.302 119.725H363.823L369.001 124.044H332.472ZM360.36 115.701H393.379L399.852 119.559H365.331L360.36 115.701ZM360.187 115.556L355.97 112.1H386.987L392.798 115.567L360.187 115.556ZM382.712 108.837H412.216L418.96 111.972H388.005L382.712 108.837ZM382.511 108.714L377.701 105.879H405.836L411.957 108.714H382.511ZM377.845 105.895L373.466 103.307H400.364L405.945 105.895H377.845ZM396.066 100.842H421.831L428.073 103.21H401.227L396.066 100.842ZM395.871 100.751L391.141 98.6075H415.818L421.572 100.751H395.871ZM411.279 96.4909H435.018L441.266 98.495H416.606L411.279 96.4909ZM411.077 96.4105L406.152 94.5618H428.988L434.742 96.4105H411.077ZM424.31 92.7721H446.312L452.503 94.4921H429.696L424.31 92.7721ZM424.103 92.7078L419.086 91.1002H440.323L446.076 92.7078H424.103ZM418.891 91.0466L414.213 89.557H434.736L440.115 91.0466H418.891ZM430.294 88.1102H450.15L455.834 89.5034H435.34L430.294 88.1102ZM430.098 88.0566L425.375 86.7491H444.586L449.914 88.0566H430.098ZM440.133 85.4792H458.768L464.355 86.7063H445.161L440.133 85.4792ZM439.937 85.4309L435.213 84.2789H453.291L458.55 85.4309H439.937ZM448.832 83.1536H466.386L471.858 84.2253H453.792L448.832 83.1536ZM448.642 83.1107L443.947 82.0819H461.007L466.185 83.1107H448.642ZM443.769 82.039L439.327 81.0691H455.92L460.805 82.039H443.769ZM451.749 80.1153H467.888L472.957 81.037H456.381L451.749 80.1153ZM451.571 80.0832L447.163 79.2151H462.894L467.709 80.0832H451.571ZM458.763 78.3524H474.096L479.055 79.1776H463.342L458.763 78.3524ZM462.71 79.1776H446.997L442.82 78.3524H458.159L462.71 79.1776ZM446.364 79.1776H430.651L426.865 78.3524H442.204L446.364 79.1776ZM430.024 79.1776H414.305L410.91 78.3524H426.244L430.024 79.1776ZM413.678 79.1776H397.965L394.973 78.3524H410.312L413.678 79.1776ZM397.338 79.1776H381.619L379.03 78.3524H394.363L397.338 79.1776ZM380.992 79.1776H365.273L363.081 78.3524H378.414L380.992 79.1776ZM364.646 79.1776H348.927L347.132 78.3524H362.465L364.646 79.1776ZM348.3 79.1776H332.581L331.183 78.3524H346.522L348.3 79.1776ZM331.954 79.1776H316.236L315.24 78.3524H330.573L331.954 79.1776ZM315.614 79.1776H299.895L299.32 78.3524H314.653L315.614 79.1776ZM299.913 80.0832H283.803L283.584 79.2151H299.314L299.913 80.0832ZM283.803 83.1053H266.272L266.508 82.0765H283.567L283.803 83.1053ZM266.323 80.0832H250.213L250.829 79.2151H266.565L266.323 80.0832ZM250.213 79.1776H234.489L235.473 78.3524H250.806L250.213 79.1776ZM233.862 79.1776H218.143L219.524 78.3524H234.863L233.862 79.1776ZM217.522 79.1776H201.786L203.569 78.3524H218.903L217.522 79.1776ZM201.182 79.1776H185.457L187.632 78.3524H202.971L201.182 79.1776ZM184.836 79.1776H169.111L171.689 78.3524H187.016L184.836 79.1776ZM168.49 79.1776H152.766L155.74 78.3524H171.073L168.49 79.1776ZM152.144 79.1776H136.42L139.797 78.3524H155.136L152.144 79.1776ZM135.798 79.1776H120.085L123.86 78.3524H139.193L135.798 79.1776ZM119.458 79.1776H103.734L107.899 78.3524H123.227L119.458 79.1776ZM103.112 79.1776H87.3936L91.9504 78.3524H107.284L103.112 79.1776ZM86.7664 79.1776H71.0419L76.0015 78.3524H91.3175L86.7664 79.1776ZM70.4206 79.1776H54.7018L60.0584 78.3524H75.3916L70.4206 79.1776ZM70.8463 79.2151H86.5766L81.7608 80.0832H65.6509L70.8463 79.2151ZM81.5595 80.1153L76.4675 81.037H59.8973L65.4034 80.1153H81.5595ZM76.9566 81.0691H93.5499L88.6478 82.039H71.6L76.9566 81.0691ZM88.4637 82.0765L83.2855 83.1053H65.743L71.4102 82.0765H88.4637ZM83.0611 83.1482L77.5607 84.2199H59.506L65.507 83.1482H83.0611ZM78.0613 84.2735H96.1332L90.8514 85.4256H72.2444L78.0613 84.2735ZM90.6443 85.4738L85.0288 86.7009H65.835L72.0085 85.4738H90.6443ZM85.5639 86.7491H104.787L99.43 88.0566H79.6148L85.5639 86.7491ZM99.2113 88.1048L93.5039 89.4981H72.9982L79.3271 88.1048H99.2113ZM94.085 89.557H114.602L109.211 91.0466H87.9861L94.085 89.557ZM108.987 91.1109L103.199 92.7185H81.2085L87.7561 91.1109H108.987ZM102.957 92.7721L96.7316 94.4921H73.9187L80.9438 92.7721H102.957ZM97.3818 94.5618H120.223L114.401 96.4159H90.7076L97.3818 94.5618ZM114.165 96.4962L107.87 98.5003H83.2223L90.4487 96.4962H114.165ZM108.595 98.586H133.295L127.542 100.762H101.841L108.595 98.586ZM127.283 100.847L120.989 103.216H94.1425L101.53 100.847H127.283ZM121.806 103.312H148.698L143.071 105.9H114.907L121.806 103.312ZM142.835 105.991L136.656 108.831H107.215L114.694 105.991H142.835ZM136.397 108.949L129.602 112.089H98.636L106.887 108.949H136.397ZM130.545 112.202H161.511L155.648 115.664H123.02L130.545 112.202ZM155.458 115.814L148.905 119.672H114.43L122.755 115.808L155.458 115.814ZM150.021 119.838H184.542L179.301 124.157H142.743L150.021 119.838ZM179.105 124.339L173.173 129.21H134.279L142.455 124.328L179.105 124.339ZM174.502 129.424H213.483L209.421 134.965H167.857L174.502 129.424ZM209.26 135.211L204.605 141.577H159.969L167.575 135.211H209.26ZM206.193 141.851H250.927L249.08 149.229H200.917L206.193 141.851ZM248.965 149.567L246.802 158.221H194.444L200.635 149.567H248.965ZM246.698 158.596L244.126 168.884H186.861L194.203 158.596H246.698ZM303.388 158.596H355.883L363.219 168.884H305.925L303.388 158.596ZM303.296 158.221L301.127 149.567H349.457L355.624 158.221H303.296ZM301.046 149.251L299.205 141.872H343.956L349.215 149.251H301.046ZM340.89 135.233H382.557L390.163 141.599H345.533L340.89 135.233ZM340.711 134.997L336.684 129.446H375.658L382.298 134.986L340.711 134.997ZM371.032 124.36H407.671L415.853 129.242H376.941L371.032 124.36ZM370.808 124.178L365.561 119.859H400.082L407.332 124.178H370.808ZM394.68 115.835H427.371L435.702 119.693H401.216L394.68 115.835ZM394.432 115.69L388.558 112.223H419.575L427.055 115.69H394.432ZM413.73 108.965H443.234L451.49 112.106H420.525L413.73 108.965ZM413.471 108.848L407.297 106.013H435.438L442.917 108.848H413.471ZM407.05 105.9L401.428 103.312H428.321L435.15 105.9H407.05ZM422.843 100.847H448.613L456.001 103.216H429.149L422.843 100.847ZM422.602 100.762L416.848 98.586H441.554L448.349 100.762H422.602ZM435.956 96.5016H459.689L466.91 98.5057H442.25L435.956 96.5016ZM435.72 96.4212L429.897 94.5672H452.739L459.413 96.4212H435.72ZM447.169 92.7775H469.182L476.202 94.4975H453.389L447.169 92.7775ZM446.928 92.7132L441.14 91.1056H462.376L468.9 92.7132H446.928ZM440.915 91.052L435.536 89.5624H456.03L462.117 91.052H440.915ZM450.915 88.1102H470.753L477.082 89.5034H456.611L450.915 88.1102ZM450.69 88.0566L445.34 86.7491H464.562L470.517 88.0566H450.69ZM459.482 85.4792H478.112L484.291 86.7063H465.092L459.482 85.4792ZM459.263 85.4309L453.987 84.2789H472.065L477.876 85.4309H459.263ZM467.065 83.1536H484.613L490.614 84.2253H472.56L467.065 83.1536ZM466.852 83.1107L461.674 82.0819H478.733L484.395 83.1107H466.852ZM461.473 82.039L456.571 81.0691H473.158L478.509 82.039H461.473ZM468.526 80.1153H484.682L490.189 81.037H473.613L468.526 80.1153ZM468.331 80.0832L463.521 79.2151H479.245L484.47 80.0832H468.331ZM474.694 78.3524H490.039L495.396 79.1776H479.683L474.694 78.3524ZM474.499 78.3256L469.769 77.5379H484.728L489.82 78.3256H474.499ZM473.889 78.3256H458.567L454.217 77.5379H469.177L473.889 78.3256ZM457.957 78.3256H442.635L438.671 77.5379H453.63L457.957 78.3256ZM442.026 78.3256H426.704L423.108 77.5379H438.067L442.026 78.3256ZM426.094 78.3256H410.778L407.556 77.5379H422.515L426.094 78.3256ZM410.162 78.3256H394.841L392.01 77.5379H406.969L410.162 78.3256ZM394.225 78.3256H378.909L376.446 77.5379H391.406L394.225 78.3256ZM378.299 78.3256H362.977L360.895 77.5379H375.854L378.299 78.3256ZM362.368 78.3256H347.034L345.308 77.5379H360.267L362.368 78.3256ZM346.436 78.3256H331.114L329.785 77.5379H344.744L346.436 78.3256ZM330.499 78.3256H315.183L314.228 77.5379H329.187L330.499 78.3256ZM314.573 78.3256H299.251L298.676 77.5379H313.635L314.573 78.3256ZM299.251 79.1776H283.538L283.325 78.3524H298.664L299.251 79.1776ZM283.573 82.039H266.525L266.749 81.0691H283.337L283.573 82.039ZM266.559 79.1776H250.835L251.41 78.3524H266.749L266.559 79.1776ZM250.846 78.3256H235.513L236.451 77.5379H251.41L250.846 78.3256ZM234.909 78.3256H219.582L220.893 77.5379H235.853L234.909 78.3256ZM218.977 78.3256H203.65L205.376 77.5379H220.335L218.977 78.3256ZM203.046 78.3256H187.718L189.79 77.5379H204.749L203.046 78.3256ZM187.12 78.3256H171.792L174.238 77.5379H189.197L187.12 78.3256ZM171.188 78.3256H155.855L158.686 77.5379H173.645L171.188 78.3256ZM155.251 78.3256H139.935L143.14 77.5379H158.099L155.251 78.3256ZM139.319 78.3256H123.992L127.571 77.5379H142.53L139.319 78.3256ZM123.388 78.3256H108.06L112.019 77.5379H126.978L123.388 78.3256ZM107.456 78.3256H92.1288L96.4669 77.5379H111.426L107.456 78.3256ZM91.5246 78.3256H76.1971L80.9093 77.5379H95.8686L91.5246 78.3256ZM75.5988 78.3256H60.2483L65.3459 77.5379H80.3052L75.5988 78.3256ZM59.6614 78.3256H44.3454L49.8113 77.5379H64.7706L59.6614 78.3256ZM59.4543 78.3524L54.0747 79.1776H38.3848L44.1383 78.3524H59.4543ZM54.489 79.2151H70.2249L64.9834 80.0832H48.8735L54.489 79.2151ZM64.7706 80.1153L59.2414 81.037H42.6597L48.6031 80.1153H64.7706ZM59.6729 81.0691H76.2662L70.8866 82.039H53.8446L59.6729 81.0691ZM70.6737 82.0765L64.995 83.1053H47.4581L53.6086 82.0765H70.6737ZM64.7648 83.1482L58.7408 84.2199H40.6862L47.1992 83.1482H64.7648ZM59.2184 84.2735H77.2903L71.4562 85.4256H52.8434L59.2184 84.2735ZM71.2203 85.4738L65.018 86.7009H45.8069L52.5788 85.4738H71.2203ZM65.5301 86.7491H84.7469L78.7689 88.0566H58.9537L65.5301 86.7491ZM78.5216 88.1048L72.1351 89.4981H51.6179L58.6488 88.1048H78.5216ZM72.7047 89.557H93.2276L87.1116 91.0466H65.881L72.7047 89.557ZM86.8585 91.1109L80.2994 92.7185H58.3036L65.6049 91.1109H86.8585ZM80.029 92.7721L72.9751 94.4921H50.1565L57.9986 92.7721H80.029ZM73.5965 94.5618H96.4382L89.7237 96.4159H66.0018L73.5965 94.5618ZM89.4533 96.4962L82.1981 98.5003H57.5153L65.7026 96.4962H89.4533ZM82.877 98.586H107.583L100.73 100.729H75.0291L82.877 98.586ZM100.448 100.842L93.0147 103.21H66.1917L74.7185 100.842H100.448ZM93.78 103.307H120.661L113.756 105.895H85.6847L93.78 103.307ZM113.515 105.986L105.972 108.826H76.5309L85.3855 105.986H113.515ZM105.655 108.944L97.3414 112.084H66.3931L76.1741 108.944H105.655ZM98.2448 112.202H129.256L121.719 115.669H89.0966L98.2448 112.202ZM121.397 115.808L113.003 119.672H78.5273L88.7226 115.808H121.397ZM114.038 119.832H148.56L141.235 124.157H104.677L114.038 119.832ZM140.953 124.339L132.674 129.21H93.78L104.309 124.328L140.953 124.339ZM133.894 129.472H172.891L166.165 135.013H124.602L133.894 129.472ZM165.884 135.254L158.162 141.62H113.532L124.199 135.254H165.884ZM159.618 141.899H204.363L198.967 149.272H150.792L159.618 141.899ZM198.742 149.594L192.413 158.242H140.056L150.412 149.594H198.742ZM192.137 158.617L184.611 168.906H127.346L139.636 158.617H192.137ZM186.579 169.334H244.046L240.933 181.771H177.701L186.579 169.334ZM240.801 182.323L236.957 197.659H166.367L177.299 182.323H240.801ZM239.65 198.345H310.54L315.033 217.732H235.156L239.65 198.345ZM309.377 182.323H372.856L383.788 197.659H313.203L309.377 182.323ZM309.239 181.787L306.127 169.35H363.599L372.471 181.787H309.239ZM358.035 158.612H410.531L422.82 168.9H365.555L358.035 158.612ZM357.753 158.237L351.424 149.588H399.754L410.111 158.237H357.753ZM351.188 149.267L345.797 141.893H390.502L399.317 149.267H351.188ZM384.277 135.254H425.95L436.623 141.615H391.993L384.277 135.254ZM383.989 135.018L377.258 129.467H416.255L425.547 135.018H383.989ZM409.19 124.382H445.737L456.266 129.263H417.366L409.19 124.382ZM408.879 124.2L401.492 119.827H436.013L445.351 124.151L408.879 124.2ZM428.729 115.851H461.421L471.61 119.715H437.089L428.729 115.851ZM428.413 115.706L420.87 112.256H451.887L461.035 115.723L428.413 115.706ZM444.482 108.998H473.929L483.71 112.138H452.739L444.482 108.998ZM444.166 108.88L436.623 106.04H464.723L473.578 108.88H444.166ZM436.335 105.933L429.431 103.344H456.329L464.384 105.933H436.335ZM449.689 100.879H475.454L483.975 103.248H457.106L449.689 100.879ZM449.407 100.794L442.584 98.6182H467.289L475.114 100.794H449.407ZM460.713 96.5338H484.447L492.628 98.5378H467.968L460.713 96.5338ZM460.425 96.4534L453.717 94.5993H476.558L484.124 96.4534H460.425ZM470.126 92.8096H492.139L499.987 94.5297H477.18L470.126 92.8096ZM469.844 92.7453L463.291 91.1378H484.521L491.823 92.7453H469.844ZM462.997 91.052L456.881 89.5624H477.381L484.176 91.052H462.997ZM471.576 88.1102H491.426L498.456 89.5034H477.957L471.576 88.1102ZM471.328 88.0566L465.35 86.7491H484.573L491.155 88.0566H471.328ZM478.877 85.4792H497.519L504.285 86.7063H485.091L478.877 85.4792ZM478.641 85.4309L472.778 84.2789H490.827L497.196 85.4309H478.641ZM485.338 83.1536H502.892L509.405 84.2253H491.339L485.338 83.1536ZM485.102 83.1107L479.424 82.0819H496.483L502.639 83.1107H485.102ZM479.205 82.039L473.825 81.0691H490.419L496.236 82.039H479.205ZM485.338 80.1153H501.477L507.421 81.037H490.845L485.338 80.1153ZM485.125 80.0832L479.884 79.2151H495.614L501.258 80.0832H485.125ZM490.649 78.3524H505.982L511.736 79.1776H496.017L490.649 78.3524ZM490.442 78.3256L485.344 77.5379H500.303L505.775 78.3256H490.442ZM495.453 76.7555H510.05L515.619 77.5004H500.66L495.453 76.7555ZM500.056 77.5004H485.097L480.241 76.7555H494.837L500.056 77.5004ZM484.521 77.5004H469.562L465.063 76.7555H479.683L484.521 77.5004ZM468.987 77.5004H454.027L449.885 76.7555H464.476L468.987 77.5004ZM453.452 77.5004H438.493L434.713 76.7555H449.31L453.452 77.5004ZM437.918 77.5004H422.958L419.541 76.7555H434.137L437.918 77.5004ZM422.383 77.5004H407.424L404.363 76.7555H418.948L422.383 77.5004ZM406.848 77.5004H391.889L389.185 76.7555H403.776L406.848 77.5004ZM391.314 77.5004H376.354L374.013 76.7555H388.61L391.314 77.5004ZM375.779 77.5004H360.82L358.841 76.7555H373.432L375.779 77.5004ZM360.245 77.5004H345.285L343.657 76.7555H358.254L360.245 77.5004ZM344.71 77.5004H329.751L328.485 76.7555H343.082L344.71 77.5004ZM329.175 77.5004H314.216L313.313 76.7555H327.909L329.175 77.5004ZM313.641 77.5004H298.681L298.135 76.7555H312.732L313.641 77.5004ZM298.681 78.3256H283.366L283.17 77.5379H298.129L298.681 78.3256ZM266.818 78.3256H251.502L252.078 77.5379H267.037L266.818 78.3256ZM251.485 77.5057H236.526L237.418 76.7609H252.02L251.485 77.5057ZM235.95 77.5057H220.991L222.245 76.7609H236.842L235.95 77.5057ZM220.416 77.5057H205.457L207.068 76.7609H221.664L220.416 77.5057ZM204.881 77.5057H189.922L191.901 76.7609H206.498L204.881 77.5057ZM189.347 77.5057H174.387L176.689 76.7609H191.286L189.347 77.5057ZM173.812 77.5057H158.853L161.545 76.7609H176.142L173.812 77.5057ZM158.277 77.5057H143.318L146.373 76.7609H160.97L158.277 77.5057ZM142.743 77.5057H127.784L131.178 76.7609H145.786L142.743 77.5057ZM127.208 77.5057H112.249L116.018 76.7609H130.609L127.208 77.5057ZM111.674 77.5057H96.7143L100.84 76.7609H115.442L111.674 77.5057ZM96.139 77.5057H81.1797L85.6618 76.7609H100.259L96.139 77.5057ZM80.6044 77.5057H65.6451L70.4896 76.7609H84.9886L80.6044 77.5057ZM65.0698 77.5057H50.1105L55.2887 76.7609H69.8797L65.0698 77.5057ZM49.5351 77.5057H34.5759L40.1454 76.7609H54.7306L49.5351 77.5057ZM34.0005 77.5057H19.0413L24.956 76.7609H39.5527L34.0005 77.5057ZM34.3688 77.5379H49.328L43.8449 78.3202H28.5231L34.3688 77.5379ZM43.6147 78.3524L37.8612 79.1776H22.1482L28.2987 78.3524H43.6147ZM38.2352 79.2151H53.9654L48.3039 80.0832H32.1939L38.2352 79.2151ZM48.0795 80.1153L42.1073 81.037H25.5428L31.935 80.1153H48.0795ZM42.533 81.0691H59.1264L53.2922 82.039H36.2444L42.533 81.0691ZM53.0448 82.0765L46.877 83.1053H29.3459L35.9912 82.0765H53.0448ZM46.6181 83.1482L40.082 84.2199H22.0274L29.0698 83.1482H46.6181ZM40.5308 84.2735H58.6085L52.2221 85.4256H33.615L40.5308 84.2735ZM51.9574 85.4738L45.1625 86.7009H25.9686L33.3331 85.4738H51.9574ZM45.6285 86.7491H64.8511L58.246 88.0566H38.425L45.6285 86.7491ZM57.9699 88.1048L50.9103 89.4981H30.3298L38.0338 88.1048H57.9699ZM51.4395 89.557H71.9625L65.133 91.0466H43.9312L51.4395 89.557ZM64.8454 91.1109L57.5211 92.7185H35.5482L43.6032 91.1109H64.8454ZM57.2334 92.7721L49.3568 94.4921H26.5382L35.2145 92.7721H57.2334ZM49.9436 94.5618H72.7853L65.1618 96.4159H41.4686L49.9436 94.5618ZM64.8684 96.4962L56.6581 98.5003H31.9695L41.1177 96.4962H64.8684ZM57.2909 98.586H81.9852L74.1201 100.762H48.4132L57.2909 98.586ZM73.7864 100.847L65.2193 103.216H38.3617L48.0277 100.847H73.7864ZM65.9385 103.312H92.8307L84.5858 105.895H56.5027L65.9385 103.312ZM84.3499 105.991L75.4492 108.831H46.0025L56.2265 105.991H84.3499ZM75.0522 108.944L65.2366 112.084H34.2882L45.5537 108.944H75.0522ZM66.0709 112.202H97.0883L87.8826 115.669H55.2599L66.0709 112.202ZM87.4913 115.814L77.2385 119.672H42.7574L54.7997 115.814H87.4913ZM78.1879 119.838H112.709L103.302 124.157H66.7441L78.1879 119.838ZM102.928 124.339L92.3243 129.21H53.344L66.2089 124.339H102.928ZM93.4175 129.424H132.409L123.008 134.965H81.4444L93.4175 129.424ZM122.617 135.206L111.823 141.572H67.1928L80.9323 135.206H122.617ZM113.152 141.851H157.886L148.853 149.245H100.679L113.152 141.851ZM148.56 149.545L138.065 158.194H85.7078L100.23 149.545H148.56ZM137.628 158.569L125.143 168.857H67.8717L85.1324 158.569H137.628ZM126.892 169.286H184.352L175.25 181.723H111.915L126.892 169.286ZM174.744 182.307L163.519 197.643H92.9285L111.259 182.307H174.744ZM165.838 198.34H236.744L231.9 217.727H152.018L165.838 198.34ZM231.67 218.6L225.341 243.882H133.359L151.396 218.6H231.67ZM234.88 218.6H315.165L321.017 243.882H229.012L234.88 218.6ZM318.376 218.6H398.667L416.698 243.882H324.705L318.376 218.6ZM318.151 217.727L313.307 198.34H384.208L398.017 217.727H318.151ZM375.336 182.318H438.832L457.157 197.654H386.561L375.336 182.318ZM374.939 181.782L365.837 169.345H423.298L438.159 181.782H374.939ZM412.567 158.607H465.063L482.324 168.895H425.024L412.567 158.607ZM412.113 158.231L401.618 149.583H449.948L464.453 158.231H412.113ZM401.227 149.261L392.28 141.888H437.008L449.384 149.261H401.227ZM427.555 135.244H469.228L482.968 141.609H438.332L427.555 135.244ZM427.147 135.002L417.746 129.451H456.743L468.705 135.002H427.147ZM447.227 124.366H483.865L496.742 129.247H457.819L447.227 124.366ZM446.83 124.184L437.417 119.865H471.938L483.348 124.184H446.83ZM462.658 115.84H495.35L507.392 119.699H472.916L462.658 115.84ZM462.272 115.696L453.067 112.24H484.078L494.889 115.706L462.272 115.696ZM475.08 108.96H504.59L515.855 112.095H484.884L475.08 108.96ZM474.706 108.837L465.794 106.002H493.946L504.164 108.837H474.706ZM465.477 105.895L457.353 103.307H484.251L493.566 105.895H465.477ZM476.409 100.842H502.173L511.839 103.21H484.976L476.409 100.842ZM476.087 100.751L468.216 98.6075H492.916L501.794 100.783L476.087 100.751ZM485.333 96.4909H509.072L518.226 98.495H493.554L485.333 96.4909ZM485.022 96.4105L477.381 94.5618H500.223L508.686 96.4105H485.022ZM492.962 92.7721H514.975L523.651 94.4921H500.844L492.962 92.7721ZM492.663 92.7078L485.333 91.1002H506.563L514.618 92.7078H492.663ZM485.051 91.0466L478.215 89.557H498.744L506.264 91.0466H485.051ZM492.214 88.1048H512.064L519.768 89.4981H499.245L492.214 88.1048ZM491.932 88.0513L485.321 86.7384H504.544L511.759 88.0513H491.932ZM498.261 85.4738H516.891L524.255 86.6955H504.998L498.261 85.4738ZM498.002 85.4256L491.61 84.2735H509.687L516.592 85.4256H498.002ZM503.6 83.1429H521.108L528.156 84.2146H510.09L503.6 83.1429ZM503.347 83.1L497.168 82.0765H514.204L520.849 83.1H503.347ZM496.932 82.0283L491.098 81.0584H507.685L513.974 82.0283H496.932ZM502.139 80.1046H518.231L524.624 81.0209H508.048L502.139 80.1046ZM501.909 80.0671L496.247 79.199H511.977L518.042 80.0671H501.909ZM506.603 78.3417H521.937L528.087 79.1669H512.374L506.603 78.3417ZM506.379 78.3095L500.896 77.5272H515.855L521.701 78.3095H506.379ZM510.625 76.7395H525.222L531.148 77.4896H516.189L510.625 76.7395ZM504.521 76L509.825 76.7127H495.217L490.24 76H504.521ZM489.7 76L494.659 76.7127H480.08L475.442 76H489.7ZM474.873 76L479.475 76.7127H464.896L460.604 76H474.873ZM460.051 76L464.326 76.7127H449.747L445.8 76H460.051ZM445.225 76L449.166 76.7127H434.58L430.973 76H445.225ZM430.409 76L433.994 76.7127H419.414L416.152 76H430.409ZM415.582 76L418.833 76.7127H404.248L401.331 76H415.582ZM400.761 76L403.638 76.7127H389.058L386.481 76H400.761ZM385.94 76L388.5 76.7127H373.921L371.683 76H385.94ZM371.113 76L373.334 76.7127H358.754L356.861 76H371.113ZM356.292 76L358.173 76.7127H343.588L342.04 76H356.292ZM341.471 76L343.001 76.7127H328.439L327.236 76H341.471ZM326.649 76L327.84 76.7127H313.255L312.392 76H326.649ZM311.823 76L312.674 76.7127H298.089L297.571 76H311.823ZM298.089 77.5004H283.13L282.94 76.7555H297.536L298.089 77.5004ZM297.03 76.0161L297.536 76.7234H282.911L282.733 76.0161H297.03ZM267.952 76.0161H282.203L282.37 76.7234H267.779L267.952 76.0161ZM267.779 76.7555H282.336L282.508 77.5004H267.549L267.779 76.7555ZM267.601 77.5379H282.56L282.738 78.3256H267.376L267.601 77.5379ZM282.744 78.3577L282.934 79.1829H267.209L267.405 78.3577H282.744ZM253.131 76.0214H267.376L267.198 76.7341H252.613L253.131 76.0214ZM267.198 76.7609L267.008 77.5057H252.049L252.584 76.7609H267.198ZM252.561 76.0214L252.037 76.7341H237.446L238.298 76.0214H252.561ZM237.734 76.0214L236.888 76.7341H222.286L223.477 76.0214H237.734ZM222.913 76.0214L221.705 76.7341H207.125L208.661 76.0214H222.913ZM208.092 76.0214L206.544 76.7341H191.953L193.829 76.0214H208.092ZM193.27 76.0214L191.36 76.7234H176.787L179.007 76.0161L193.27 76.0214ZM178.444 76.0214L176.211 76.7341H161.632L164.181 76.0214H178.444ZM163.622 76.0214L161.045 76.7341H146.454L149.331 76.0214H163.622ZM148.801 76.0214L145.878 76.7341H131.287L134.538 76.0214H148.801ZM133.974 76.0214L130.712 76.7341H116.133L119.723 76.0214H133.974ZM119.153 76.0214L115.551 76.7341H100.96L104.89 76.0214H119.153ZM104.332 76.0214L100.385 76.7341H85.7941L90.0689 76.0214H104.332ZM89.5109 76.0214L85.2187 76.7341H70.6047L75.2075 76.0214H89.5109ZM74.6839 76.0214L70.0811 76.7341H55.4958L60.4611 76.0214H74.6839ZM59.857 76.0214L54.886 76.7341H40.2949L45.5997 76.0214H59.857ZM45.0359 76.0214L39.7195 76.7341H25.1285L30.7901 76.0214H45.0359ZM15.9632 76.0214H30.209L24.5417 76.7341H9.96216L15.9632 76.0214ZM3.40309 77.495L9.69176 76.7502H24.2885L18.3394 77.495H3.40309ZM18.6903 77.5272H33.6496L27.7867 78.3149H12.4937L18.6903 77.5272ZM5.67003 79.1722L12.2176 78.347H27.5393L21.3772 79.1722H5.67003ZM21.78 79.2044H37.5102L31.4345 80.0724H15.2957L21.78 79.2044ZM8.19009 81.037L15.0253 80.1207H31.1755L24.7661 81.0209L8.19009 81.037ZM25.1804 81.0745H41.7678L35.4677 82.039H18.4142L25.1804 81.0745ZM18.1495 82.0819H35.2088L28.5404 83.1053H10.9978L18.1495 82.0819ZM3.14421 84.2253L10.7159 83.1214H28.2643L21.1874 84.1931L3.14421 84.2253ZM21.6362 84.2628H39.7023L32.7578 85.4202H14.1508L21.6362 84.2628ZM5.90019 86.6741L13.8516 85.447H32.4816L25.0998 86.6741H5.90019ZM25.56 86.7223H44.7827L37.5448 88.0298H17.7295L25.56 86.7223ZM9.01281 89.4712L17.3843 88.078H37.234L29.5127 89.4712H9.01281ZM30.0133 89.5302H50.5305L42.9876 91.052H21.7742L30.0133 89.5302ZM21.4348 91.0841H42.6654L34.5644 92.6917H12.5916L21.4348 91.0841ZM2.72421 94.4654L12.2291 92.7453H34.2422L25.5313 94.4654H2.72421ZM26.0894 94.535H48.931L40.4387 96.3891H16.7284L26.0894 94.535ZM6.22811 98.4628L16.3428 96.4587H40.0763L30.8706 98.4628H6.22811ZM31.4978 98.5432H56.2035L47.2797 100.719H21.5729L31.4978 98.5432ZM10.3477 103.173L21.1586 100.81H46.923L37.211 103.173H10.3477ZM37.8669 103.269H64.7648L55.398 105.858H27.3092L37.8669 103.269ZM26.8661 105.949H55.001L44.7309 108.789H15.2842L26.8661 105.949ZM2.01654 112.036L14.7894 108.896H44.2994L32.9764 112.036H2.01654ZM33.7244 112.164H64.759L53.8791 115.626H21.2622L33.7244 112.164ZM6.83226 119.634L20.7328 115.771H53.4188L41.3363 119.634H6.83226ZM42.1763 119.795H76.7322L65.2251 124.119H28.6727L42.1763 119.795ZM12.885 129.183L28.1089 124.301H64.7533L51.779 129.183H12.885ZM52.8032 129.387H91.7835L79.7011 134.938H38.1373L52.8032 129.387ZM20.7156 141.545L37.5217 135.179H79.1948L65.3344 141.545H20.7156ZM66.5312 141.808H111.265L98.7626 149.186H50.6111L66.5312 141.808ZM49.8919 149.567H98.2217L83.5617 158.215H31.2388L49.8919 149.567ZM8.20161 168.857L30.4046 158.569H82.9L65.461 168.857H8.20161ZM66.9972 169.307H124.464L109.372 181.745H46.1463L66.9972 169.307ZM19.5073 197.632L45.22 182.296H108.705L90.092 197.632H19.5073ZM92.0942 198.318H162.99L148.853 217.727H68.9822L92.0942 198.318ZM37.6771 243.866L67.8832 218.584H148.168L129.671 243.866H37.6771ZM108.02 279.387L132.513 245.039H225.047L216.457 279.387H108.02ZM220.79 279.387L228.741 245.039H321.276L329.227 279.387H220.79ZM442.003 279.387H333.571L324.981 245.039H417.544L442.003 279.387ZM512.34 243.866H420.329L401.831 218.584H482.116L512.34 243.866ZM481.081 217.705H401.21L387.05 198.334H457.946L481.081 217.705ZM530.504 197.632H459.954L441.341 182.296H504.82L530.504 197.632ZM503.871 181.745H440.656L425.599 169.324H483.071L503.871 181.745ZM541.821 168.873H484.567L467.134 158.585H519.63L541.821 168.873ZM518.807 158.21H466.49L451.824 149.561H500.154L518.807 158.21ZM499.446 149.24H451.295L438.786 141.867H483.52L499.446 149.24ZM529.365 141.588H484.751L470.897 135.222H512.57L529.365 141.588ZM511.949 134.986H470.385L458.302 129.446H497.294L511.949 134.986ZM537.207 129.231H498.307L485.338 124.35H521.977L537.207 129.231ZM521.407 124.167H484.861L473.354 119.827H507.875L521.407 124.167ZM543.271 119.682H508.796L496.679 115.824H529.37L543.271 119.682ZM528.829 115.68H496.195L485.321 112.223H516.327L528.829 115.68ZM548.081 112.084H517.081L505.758 108.944H535.273L548.081 112.084ZM534.848 108.837H505.407L495.125 106.002H523.266L534.848 108.837ZM522.771 105.895H494.682L485.321 103.307H512.213L522.771 105.895ZM539.727 103.216H512.881L503.169 100.847H528.933L539.727 103.216ZM528.501 100.767H502.789L493.871 98.5914H518.611L528.501 100.767ZM543.841 98.511H519.187L509.981 96.5069H533.714L543.841 98.511ZM533.34 96.4159H509.641L501.143 94.5618H523.985L533.34 96.4159ZM547.344 94.4921H524.56L515.849 92.7721H537.863L547.344 94.4921ZM537.471 92.7078H515.493L507.392 91.1002H528.628L537.471 92.7078ZM528.266 91.0466H507.052L499.504 89.557H520.027L528.266 91.0466ZM541.021 89.4981H520.544L512.817 88.1048H532.667L541.021 89.4981ZM532.328 88.0513H512.535L505.297 86.7438H524.56L532.328 88.0513ZM544.145 86.7009H524.952L517.564 85.4738H536.2L544.145 86.7009ZM535.889 85.4256H517.288L510.384 84.2842H528.456L535.889 85.4256ZM546.901 84.2306H528.876L521.81 83.1589H539.364L546.901 84.2306ZM539.042 83.1053H521.511L514.837 82.0765H531.896L539.042 83.1053ZM531.62 82.0336H514.601L508.272 81.0638H524.865L531.62 82.0336ZM541.85 81.0316H525.274L518.864 80.11H535.015L541.85 81.0316ZM534.75 80.0778H518.64L512.564 79.2097H528.294L534.75 80.0778ZM544.376 79.1722H528.657L522.489 78.347H537.811L544.376 79.1722ZM537.581 78.3202H522.259L516.396 77.5325H531.355L537.581 78.3202ZM546.643 77.5004H531.683L525.734 76.7555H540.342L546.643 77.5004ZM540.112 76.718H525.527L519.865 76.0053H534.134L540.112 76.718Z" fill="#99FFCC"/>
</g>
<defs>
<linearGradient id="paint0_linear" x1="269.501" y1="75.5" x2="269.501" y2="135" gradientUnits="userSpaceOnUse">
<stop stop-color="#99FFCC" stop-opacity="0"/>
<stop offset="0.114583" stop-color="#B0FFD8" stop-opacity="0.1"/>
<stop offset="0.34375" stop-color="#99FFCC" stop-opacity="0.28"/>
<stop offset="0.588542" stop-color="#99FFCC"/>
</linearGradient>
</defs>
</svg>
