<svg width="24" height="23" viewBox="0 0 24 23" fill="none" xmlns="http://www.w3.org/2000/svg">
<path d="M5.68565 11.64L3.0871 14.166L0.480469 11.64L3.07903 9.12174L5.68565 11.64ZM12.0045 5.51644L16.4672 9.84124L19.0739 7.32301L12.0126 0.47998L4.95128 7.32301L7.5579 9.84124L12.0045 5.51644ZM20.9219 9.12174L18.3234 11.64L20.9219 14.166L23.5205 11.64L20.9219 9.12174ZM12.0045 17.7635L7.54176 13.4387L4.93513 15.957L11.9964 22.8L19.0577 15.957L16.4511 13.4387L12.0045 17.7635ZM12.0045 14.166L14.6031 11.64L12.0045 9.12174L9.40594 11.64L12.0045 14.166Z" fill="#EEB81C"/>
</svg>
