<svg width="32" height="32" viewBox="0 0 32 32" fill="none" xmlns="http://www.w3.org/2000/svg">
<path d="M31.5211 19.8705C29.3837 28.4421 20.7016 33.6586 12.1281 31.5209C3.55829 29.3838 -1.65873 20.702 0.479147 12.1309C2.61541 3.55876 11.2981 -1.65828 19.8689 0.478845C28.4414 2.61543 33.6584 11.2988 31.5211 19.8705Z" fill="#F7931A"/>
<path d="M22.8184 13.9831C23.1272 11.8219 21.5543 10.6598 19.4029 9.88499L20.1009 6.9572L18.3971 6.51307L17.7179 9.36392C17.2698 9.24716 16.8096 9.13695 16.3526 9.02782L17.0371 6.15842L15.3343 5.71429L14.6358 8.64098C14.2649 8.55259 13.9007 8.46529 13.5476 8.37363L13.5497 8.36435L11.1995 7.75053L10.7461 9.65419C10.7461 9.65419 12.0102 9.95756 11.9836 9.97611C12.6737 10.1562 12.7984 10.6341 12.7776 11.0128L11.9825 14.3481C12.03 14.3607 12.0916 14.3792 12.1599 14.4076C12.103 14.3929 12.0425 14.3765 11.9799 14.3612L10.8656 19.0339C10.7811 19.2532 10.5672 19.5823 10.0846 19.4573C10.1019 19.483 8.84617 19.1343 8.84617 19.1343L8 21.1744L10.2177 21.7527C10.6303 21.8608 11.0346 21.9742 11.4327 22.0806L10.7274 25.0423L12.4296 25.4864L13.1281 22.5564C13.593 22.6885 14.0442 22.8101 14.4861 22.9253L13.7901 25.8416L15.4945 26.2857L16.1982 23.3279C19.104 23.903 21.2888 23.6711 22.2085 20.9223C22.9498 18.7093 22.1715 17.4325 20.643 16.5999C21.7562 16.3315 22.5951 15.5654 22.8189 13.9831H22.8184ZM18.9251 19.693C18.3987 21.906 14.8356 20.71 13.6806 20.41L14.6165 16.4864C15.771 16.7881 19.4754 17.3851 18.9251 19.693ZM19.452 13.9509C18.9715 15.9643 16.0063 14.9412 15.0443 14.6902L15.8925 11.1323C16.8545 11.3833 19.9523 11.8514 19.452 13.9509Z" fill="white"/>
</svg>
