<svg width="20" height="34" viewBox="0 0 20 34" fill="none" xmlns="http://www.w3.org/2000/svg">
<path id="Vector" d="M2.84378 21.8502L1.06738 12.9608L2.10102 10.8685L4.72812 10.3135L14.9383 10.2222L16.2665 10.2952L18.9979 11.9274L17.2983 23.0278L14.276 29.0801L10.8092 32.8174L8.49314 27.9682L6.67832 24.7951L2.84378 21.8502Z" fill="white"/>
<path id="Vector_2" d="M4.65159 10.3062L2.13243 10.8338L1 12.9242L7.28235 14.1657L15.8296 13.7148L19 11.9073L16.4516 10.3262L15.1399 10.2222L4.65159 10.3062Z" stroke="#070618" stroke-width="0.5" stroke-miterlimit="10" stroke-linecap="round"/>
<path id="Vector_3" d="M19 11.9072L17.2456 23.035L12.5475 27.5537L10.7912 32.9998L8.47149 27.9718L6.5469 24.7859L2.81116 21.8866L1 12.9242L5.64133 19.1937" stroke="#070618" stroke-width="0.5" stroke-miterlimit="10" stroke-linecap="round" stroke-linejoin="round"/>
<path id="Vector_4" d="M7.28223 14.166L9.71723 24.5033L8.47137 27.9722" stroke="#070618" stroke-width="0.5" stroke-miterlimit="10" stroke-linecap="round"/>
<path id="Vector_5" d="M6.54727 24.786L9.71771 24.5031L5.64169 19.1938L2.81152 21.8868" stroke="#070618" stroke-width="0.5" stroke-miterlimit="10"/>
<path id="Vector_6" d="M9.7168 24.503L12.547 27.5538L16.537 18.374" stroke="#070618" stroke-width="0.5" stroke-miterlimit="10"/>
<path id="Vector_7" d="M10.792 33L14.246 29.0783L17.2463 23.0352L15.8303 13.7148" stroke="#070618" stroke-width="0.5" stroke-miterlimit="10" stroke-linecap="round"/>
<path id="Vector_8" d="M5.11914 11.2593L6.78394 7.01081L8.17982 6.87754L9.65436 0.385254L11.8735 6.9104L14.9506 11.1516L10.4337 12.121L6.51501 12.0023L5.11914 11.2593Z" fill="white" stroke="#070618" stroke-width="0.5" stroke-miterlimit="10" stroke-linecap="round" stroke-linejoin="round"/>
<path id="Vector_9" d="M5.15332 11.2263L9.2202 8.38369L6.7486 7.01074" stroke="#070618" stroke-width="0.5" stroke-miterlimit="10" stroke-linecap="round" stroke-linejoin="round"/>
<path id="Vector_10" d="M8.21289 6.84473L9.21909 8.38381L10.432 12.1211L12.3712 9.66547L14.9233 11.1571" stroke="#070618" stroke-width="0.5" stroke-miterlimit="10" stroke-linecap="round" stroke-linejoin="round"/>
<path id="Vector_11" d="M11.8721 6.91064L12.3715 9.66566" stroke="#070618" stroke-width="0.5" stroke-miterlimit="10" stroke-linecap="round" stroke-linejoin="round"/>
</svg>
