<svg width="30" height="30" viewBox="0 0 30 30" fill="none" xmlns="http://www.w3.org/2000/svg">
<circle cx="15" cy="15" r="15" fill="white"/>
<path fill-rule="evenodd" clip-rule="evenodd" d="M18.2322 10.0065L18.6823 10.0028L19.6742 10.0583L21.7116 11.2647L20.4352 19.49L18.1766 23.9705L15.5873 26.738L13.8611 23.1405L12.5069 20.788L9.64536 18.6117L8.3252 12.0247L9.09833 10.4733L11.0603 10.0655L11.6821 10.0604L12.6635 7.66754L13.6903 7.5733L14.7769 2.99268L16.4044 7.58939L18.2322 10.0065Z" fill="white"/>
<path fill-rule="evenodd" clip-rule="evenodd" d="M18.9459 9.80994C18.9403 9.8095 18.9346 9.80929 18.9289 9.80933L11.093 9.86483C11.08 9.86492 11.0671 9.8663 11.0543 9.86894L9.17254 10.2598C9.11629 10.2715 9.06806 10.3071 9.04064 10.3573L8.22172 11.8542C8.18397 11.8949 8.16471 11.9506 8.17115 12.0074C8.17208 12.0239 8.17511 12.0402 8.18026 12.0561L9.51611 18.6439C9.51701 18.6907 9.53484 18.7373 9.56985 18.7739C9.5919 18.7969 9.61829 18.8134 9.64655 18.8233L12.3377 20.898C12.3457 20.9098 12.3549 20.9206 12.3652 20.9304L13.7604 23.2279L13.7642 23.2352L15.4829 26.9488C15.4939 26.9761 15.5113 27.0012 15.535 27.022C15.6159 27.093 15.7396 27.0855 15.8112 27.0051L18.3908 24.1097C18.4021 24.097 18.4117 24.0828 18.4194 24.0676L20.6634 19.5919C20.6762 19.5664 20.6831 19.5386 20.6838 19.5104L21.9931 11.3035C21.9972 11.2885 21.9994 11.273 21.9997 11.2571C22.0006 11.2086 21.9833 11.1623 21.9523 11.1266C21.9364 11.108 21.9169 11.0923 21.8946 11.0806L20.0061 9.9158C19.9796 9.89945 19.9495 9.88963 19.9184 9.88716L18.9459 9.80994ZM20.492 18.2289L21.5459 11.6229L19.6503 12.6949L20.1521 15.9942C20.1554 16.0071 20.1575 16.0204 20.1581 16.0339L20.492 18.2289ZM19.8698 16.7407L20.2784 19.4272L17.5514 22.0248L19.8698 16.7407ZM19.7599 16.0182L19.2697 12.7955L13.2996 13.1026L15.0455 20.4869L16.9194 22.4922L19.7599 16.0182ZM19.8197 20.4025L18.0804 23.8716L16.1378 26.0521L17.1482 22.9473L19.8197 20.4025ZM12.8374 20.9554L13.8914 22.6911L14.5783 20.8027L12.8374 20.9554ZM14.469 19.749L12.8937 13.0866L8.83284 12.2864L11.9851 16.5199C11.9958 16.5342 12.0042 16.5496 12.0104 16.5654L14.469 19.749ZM11.5724 16.6192L8.73107 12.8034L9.83649 18.2548L11.5724 16.6192ZM10.019 18.6185L12.5743 20.5885L14.494 20.4201L11.8039 16.9367L10.019 18.6185ZM15.6324 26.3411L14.1472 23.132L14.9419 20.9473L16.756 22.8885L15.6324 26.3411ZM9.34141 10.6216L11.1154 10.2531L18.9232 10.1978L19.8398 10.2706L21.4215 11.2462L19.3795 12.4009L13.0706 12.7254L8.66537 11.8574L9.34141 10.6216Z" fill="#070618"/>
<path fill-rule="evenodd" clip-rule="evenodd" d="M14.8213 2.52712C14.9088 2.52261 14.9886 2.57629 15.0168 2.65856L16.6605 7.45635L18.9382 10.5692C18.977 10.6223 18.9862 10.6913 18.9626 10.7526C18.939 10.814 18.8858 10.8593 18.8212 10.8732L15.4491 11.597C15.4335 11.6004 15.4176 11.6018 15.4016 11.6013L12.4842 11.512C12.4543 11.5111 12.425 11.5034 12.3985 11.4895L11.3482 10.937C11.2602 10.8907 11.2213 10.7862 11.2578 10.6942L12.5026 7.55755C12.5296 7.48955 12.5927 7.44233 12.6661 7.43538L13.5683 7.34981L14.6406 2.67795C14.6601 2.59322 14.7339 2.53163 14.8213 2.52712Z" fill="white"/>
<path fill-rule="evenodd" clip-rule="evenodd" d="M15.0187 2.65856C14.9905 2.57629 14.9107 2.52261 14.8233 2.52712C14.7358 2.53163 14.662 2.59322 14.6426 2.67795L13.5702 7.34981L12.668 7.43538C12.5947 7.44233 12.5315 7.48954 12.5045 7.55755L11.2597 10.6942C11.2232 10.7862 11.2622 10.8907 11.3502 10.937L12.4005 11.4895C12.4269 11.5034 12.4562 11.5111 12.4861 11.512L15.3737 11.6004C15.3947 11.6035 15.4157 11.6031 15.436 11.5996C15.441 11.599 15.446 11.5981 15.451 11.597L18.7455 10.8898C18.7993 10.8951 18.8535 10.878 18.8944 10.8422C18.9258 10.8203 18.9505 10.7893 18.9646 10.7526C18.9882 10.6913 18.979 10.6223 18.9401 10.5692L16.6624 7.45635L15.0187 2.65856ZM18.2207 10.6051L15.8966 11.1039L16.9087 9.84177L18.2207 10.6051ZM16.8321 8.34928L18.1031 10.0864L17.0354 9.46523L16.8321 8.34928ZM16.2972 7.59699L14.8707 3.43324L13.9495 7.44643L14.662 8.5324C14.6715 8.54673 14.6789 8.56224 14.6842 8.57851L15.4763 11.0043L16.6511 9.53912L16.2972 7.59699ZM13.3238 7.76341L13.6689 7.73068L13.8984 8.08048L13.3238 7.76341ZM15.1301 11.2043L14.3948 8.95233L11.8133 10.741L12.5436 11.1252L15.1301 11.2043ZM12.7851 7.91064L11.8638 10.2322L14.1375 8.65686L12.7851 7.91064Z" fill="#070618"/>
</svg>
