<svg width="20" height="34" viewBox="0 0 20 34" fill="none" xmlns="http://www.w3.org/2000/svg">
<path d="M2.84378 22.465L1.06738 13.5755L2.10102 11.4832L4.72812 10.9282L14.9383 10.8369L16.2665 10.9099L18.9979 12.5421L17.2983 23.6426L14.276 29.6948L10.8092 33.4321L8.49314 28.583L6.67832 25.4099L2.84378 22.465Z" fill="#070618"/>
<path d="M4.65159 10.9209L2.13243 11.4485L1 13.539L7.28235 14.7805L15.8296 14.3295L19 12.5221L16.4516 10.941L15.1399 10.8369L4.65159 10.9209Z" stroke="white" stroke-width="0.5" stroke-miterlimit="10" stroke-linecap="round"/>
<path d="M19 12.522L17.2456 23.6498L12.5475 28.1684L10.7912 33.6146L8.47149 28.5865L6.5469 25.4006L2.81116 22.5014L1 13.5389L5.64133 19.8084" stroke="white" stroke-width="0.5" stroke-miterlimit="10" stroke-linecap="round" stroke-linejoin="round"/>
<path d="M7.28223 14.7808L9.71723 25.118L8.47137 28.5869" stroke="white" stroke-width="0.5" stroke-miterlimit="10" stroke-linecap="round"/>
<path d="M6.54727 25.4008L9.71771 25.1178L5.64169 19.8086L2.81152 22.5015" stroke="white" stroke-width="0.5" stroke-miterlimit="10"/>
<path d="M9.7168 25.1177L12.547 28.1685L16.537 18.9888" stroke="white" stroke-width="0.5" stroke-miterlimit="10"/>
<path d="M10.792 33.6147L14.246 29.6931L17.2463 23.6499L15.8303 14.3296" stroke="white" stroke-width="0.5" stroke-miterlimit="10" stroke-linecap="round"/>
<path d="M5.11914 11.874L6.78394 7.62556L8.17982 7.49228L9.65436 1L11.8735 7.52515L14.9506 11.7663L10.4337 12.7358L6.51501 12.6171L5.11914 11.874Z" fill="#070618" stroke="white" stroke-width="0.5" stroke-miterlimit="10" stroke-linecap="round" stroke-linejoin="round"/>
<path d="M5.15332 11.8411L9.2202 8.99844L6.7486 7.62549" stroke="white" stroke-width="0.5" stroke-miterlimit="10" stroke-linecap="round" stroke-linejoin="round"/>
<path d="M8.21289 7.45947L9.21909 8.99856L10.432 12.7358L12.3712 10.2802L14.9233 11.7718" stroke="white" stroke-width="0.5" stroke-miterlimit="10" stroke-linecap="round" stroke-linejoin="round"/>
<path d="M11.8721 7.52539L12.3715 10.2804" stroke="white" stroke-width="0.5" stroke-miterlimit="10" stroke-linecap="round" stroke-linejoin="round"/>
</svg>
