<svg width="17" height="17" viewBox="0 0 17 17" fill="none" xmlns="http://www.w3.org/2000/svg">
<path d="M7.08333 4.25V5.66667H3.54167V13.4583H11.3333V9.91667H12.75V14.1667C12.75 14.3545 12.6754 14.5347 12.5425 14.6675C12.4097 14.8004 12.2295 14.875 12.0417 14.875H2.83333C2.64547 14.875 2.4653 14.8004 2.33247 14.6675C2.19963 14.5347 2.125 14.3545 2.125 14.1667V4.95833C2.125 4.77047 2.19963 4.5903 2.33247 4.45747C2.4653 4.32463 2.64547 4.25 2.83333 4.25H7.08333ZM14.875 2.125V7.79167H13.4583V4.54254L7.93829 10.0633L6.93671 9.06171L12.456 3.54167H9.20833V2.125H14.875Z" fill="white"/>
</svg>
