<svg width="15" height="16" viewBox="0 0 15 16" fill="none" xmlns="http://www.w3.org/2000/svg">
<rect width="15" height="15" transform="translate(0 0.5)" fill="#070618"/>
<path d="M6.25 4.25V5.5H3.125V12.375H10V9.25H11.25V13C11.25 13.1658 11.1842 13.3247 11.0669 13.4419C10.9497 13.5592 10.7908 13.625 10.625 13.625H2.5C2.33424 13.625 2.17527 13.5592 2.05806 13.4419C1.94085 13.3247 1.875 13.1658 1.875 13V4.875C1.875 4.70924 1.94085 4.55027 2.05806 4.43306C2.17527 4.31585 2.33424 4.25 2.5 4.25H6.25ZM13.125 2.375V7.375H11.875V4.50813L7.00437 9.37937L6.12063 8.49563L10.9906 3.625H8.125V2.375H13.125Z" fill="#99FFCC"/>
</svg>
