<svg width="12" height="12" viewBox="0 0 12 12" fill="none" xmlns="http://www.w3.org/2000/svg">
<path d="M4.83333 2.5V3.66667H1.91667V10.0833H8.33333V7.16667H9.5V10.6667C9.5 10.8214 9.43854 10.9697 9.32915 11.0791C9.21975 11.1885 9.07138 11.25 8.91667 11.25H1.33333C1.17862 11.25 1.03025 11.1885 0.920854 11.0791C0.811458 10.9697 0.75 10.8214 0.75 10.6667V3.08333C0.75 2.92862 0.811458 2.78025 0.920854 2.67085C1.03025 2.56146 1.17862 2.5 1.33333 2.5H4.83333ZM11.25 0.75V5.41667H10.0833V2.74092L5.53742 7.28742L4.71258 6.46258L9.25792 1.91667H6.58333V0.75H11.25Z" fill="#070618"/>
</svg>
