<svg width="16" height="16" viewBox="0 0 16 16" fill="none" xmlns="http://www.w3.org/2000/svg">
<circle cx="8" cy="8" r="8" fill="white" fill-opacity="0.1"/>
<path fill-rule="evenodd" clip-rule="evenodd" d="M11.8056 8.19879C11.8056 6.70093 10.6356 5.52371 9.23856 5.52371L6.14521 5.52371C5.89273 5.52371 5.66473 5.37273 5.56617 5.14028C5.46762 4.90783 5.51762 4.63898 5.69316 4.45751L8.07032 2L8.97443 2.87454L7.62861 4.26585L9.23856 4.26585C11.3688 4.26585 13.0635 6.04536 13.0635 8.19879L13.0635 11.2423L11.8056 11.2423L11.8056 8.19879Z" fill="#99FFCC"/>
<path fill-rule="evenodd" clip-rule="evenodd" d="M10.4975 11.0549C10.596 11.2874 10.546 11.5562 10.3705 11.7377L7.9933 14.1952L7.0892 13.3207L8.43502 11.9294L6.82507 11.9294C4.69485 11.9294 3.00015 10.1499 3.00015 7.99643L3.00015 4.95288L4.25802 4.95288L4.25802 7.99643C4.25802 9.49429 5.42804 10.6715 6.82507 10.6715L9.91841 10.6715C10.1709 10.6715 10.3989 10.8225 10.4975 11.0549Z" fill="#99FFCC"/>
</svg>
