<svg width="18" height="19" viewBox="0 0 18 19" fill="none" xmlns="http://www.w3.org/2000/svg">
<path d="M10.5 14.75H11.25V16.25H1.5V14.75H2.25V3.5C2.25 3.30109 2.32902 3.11032 2.46967 2.96967C2.61032 2.82902 2.80109 2.75 3 2.75H9.75C9.94891 2.75 10.1397 2.82902 10.2803 2.96967C10.421 3.11032 10.5 3.30109 10.5 3.5V9.5H12C12.3978 9.5 12.7794 9.65804 13.0607 9.93934C13.342 10.2206 13.5 10.6022 13.5 11V14C13.5 14.1989 13.579 14.3897 13.7197 14.5303C13.8603 14.671 14.0511 14.75 14.25 14.75C14.4489 14.75 14.6397 14.671 14.7803 14.5303C14.921 14.3897 15 14.1989 15 14V8.75H13.5C13.3011 8.75 13.1103 8.67098 12.9697 8.53033C12.829 8.38968 12.75 8.19891 12.75 8V5.3105L11.5072 4.06775L12.5677 3.00725L16.2803 6.71975C16.35 6.7893 16.4053 6.87195 16.443 6.96295C16.4807 7.05395 16.5001 7.1515 16.5 7.25V14C16.5 14.5967 16.2629 15.169 15.841 15.591C15.419 16.0129 14.8467 16.25 14.25 16.25C13.6533 16.25 13.081 16.0129 12.659 15.591C12.2371 15.169 12 14.5967 12 14V11H10.5V14.75ZM3.75 14.75H9V4.25H3.75V14.75ZM6.75 8.75H9L6 13.25V10.25H3.75L6.75 5.75V8.75Z" fill="#F1E26E"/>
</svg>
