<svg width="20" height="20" viewBox="0 0 20 20" fill="none" xmlns="http://www.w3.org/2000/svg">
<circle cx="10" cy="10" r="10" fill="#41F4FF"/>
<path d="M9.948 7.896C9.676 7.896 9.448 7.808 9.264 7.632C9.088 7.448 9 7.22 9 6.948C9 6.668 9.088 6.44 9.264 6.264C9.44 6.088 9.668 6 9.948 6C10.228 6 10.456 6.088 10.632 6.264C10.808 6.44 10.896 6.668 10.896 6.948C10.896 7.22 10.804 7.448 10.62 7.632C10.444 7.808 10.22 7.896 9.948 7.896ZM9.228 14.76C9.188 14.76 9.152 14.748 9.12 14.724C9.096 14.692 9.084 14.656 9.084 14.616V8.724C9.084 8.684 9.096 8.652 9.12 8.628C9.152 8.596 9.188 8.58 9.228 8.58H10.632C10.672 8.58 10.704 8.596 10.728 8.628C10.76 8.652 10.776 8.684 10.776 8.724V14.616C10.776 14.656 10.76 14.692 10.728 14.724C10.704 14.748 10.672 14.76 10.632 14.76H9.228Z" fill="#070618"/>
</svg>
