<svg width="14" height="14" viewBox="0 0 14 14" fill="none" xmlns="http://www.w3.org/2000/svg">
<path d="M4.08366 4.08333V1.75C4.08366 1.59529 4.14512 1.44692 4.25451 1.33752C4.36391 1.22813 4.51228 1.16667 4.66699 1.16667H12.2503C12.405 1.16667 12.5534 1.22813 12.6628 1.33752C12.7722 1.44692 12.8337 1.59529 12.8337 1.75V9.33333C12.8337 9.48804 12.7722 9.63642 12.6628 9.74581C12.5534 9.85521 12.405 9.91667 12.2503 9.91667H9.91699V12.2459C9.91699 12.5703 9.65508 12.8333 9.32958 12.8333H1.75441C1.67725 12.8334 1.60083 12.8183 1.52952 12.7888C1.45822 12.7593 1.39343 12.716 1.33887 12.6615C1.28431 12.6069 1.24104 12.5421 1.21155 12.4708C1.18206 12.3995 1.16692 12.3231 1.16699 12.2459L1.16874 4.67075C1.16874 4.34642 1.43066 4.08333 1.75616 4.08333H4.08366ZM5.25033 4.08333H9.32958C9.65391 4.08333 9.91699 4.34525 9.91699 4.67075V8.75H11.667V2.33333H5.25033V4.08333ZM2.33541 5.25L2.33366 11.6667H8.75033V5.25H2.33541Z" fill="white"/>
</svg>
