<svg width="15" height="16" viewBox="0 0 15 16" fill="none" xmlns="http://www.w3.org/2000/svg">
<g clip-path="url(#clip0)">
<rect width="15" height="15" transform="translate(0 0.5)" fill="#070618"/>
<rect width="14" height="14" transform="translate(1 2)" fill="#070618"/>
<path d="M5.08366 6.08333V3.75C5.08366 3.59529 5.14512 3.44692 5.25451 3.33752C5.36391 3.22813 5.51228 3.16667 5.66699 3.16667H13.2503C13.405 3.16667 13.5534 3.22813 13.6628 3.33752C13.7722 3.44692 13.8337 3.59529 13.8337 3.75V11.3333C13.8337 11.488 13.7722 11.6364 13.6628 11.7458C13.5534 11.8552 13.405 11.9167 13.2503 11.9167H10.917V14.2459C10.917 14.5703 10.6551 14.8333 10.3296 14.8333H2.75441C2.67725 14.8334 2.60083 14.8183 2.52952 14.7888C2.45822 14.7593 2.39343 14.716 2.33887 14.6615C2.28431 14.6069 2.24104 14.5421 2.21155 14.4708C2.18206 14.3995 2.16692 14.3231 2.16699 14.2459L2.16874 6.67075C2.16874 6.34642 2.43066 6.08333 2.75616 6.08333H5.08366ZM6.25033 6.08333H10.3296C10.6539 6.08333 10.917 6.34525 10.917 6.67075V10.75H12.667V4.33333H6.25033V6.08333ZM3.33541 7.25L3.33366 13.6667H9.75033V7.25H3.33541Z" fill="#99FFCC"/>
</g>
<defs>
<clipPath id="clip0">
<rect width="15" height="15" fill="white" transform="translate(0 0.5)"/>
</clipPath>
</defs>
</svg>
