<svg width="26" height="26" viewBox="0 0 26 26" fill="none" xmlns="http://www.w3.org/2000/svg">
<g clip-path="url(#clip0)">
<path d="M13.0006 0C5.82001 0 0 5.82001 0 13.0006C0 20.18 5.82001 26.0013 13.0006 26.0013C20.1813 26.0013 26.0013 20.1813 26.0013 13.0006C26 5.82001 20.18 0 13.0006 0ZM8.60332 18.7282C5.46148 18.7282 2.91507 16.164 2.91507 13.0006C2.91507 9.83726 5.46148 7.27311 8.60332 7.27311C11.7452 7.27311 14.2916 9.83726 14.2916 13.0006C14.2916 16.164 11.7452 18.7282 8.60332 18.7282ZM17.6881 18.3924C16.1171 18.3924 14.8439 15.9778 14.8439 13.0006C14.8439 10.0235 16.1171 7.60883 17.6881 7.60883C19.259 7.60883 20.5322 10.0222 20.5322 13.0006C20.5322 15.9778 19.259 18.3924 17.6881 18.3924ZM22.0841 17.8312C21.5317 17.8312 21.0845 15.6687 21.0845 13.0006C21.0845 10.3326 21.5317 8.17005 22.0841 8.17005C22.6365 8.17005 23.0849 10.3326 23.0849 13.0006C23.0849 15.6674 22.6377 17.8312 22.0841 17.8312Z" fill="#070618"/>
</g>
<defs>
<clipPath id="clip0">
<rect width="26" height="26" fill="white"/>
</clipPath>
</defs>
</svg>
