<svg width="27" height="27" viewBox="0 0 27 27" fill="none" xmlns="http://www.w3.org/2000/svg">
<path d="M13.4501 0C6.25207 0 0.410156 5.84191 0.410156 13.04C0.410156 20.2381 6.25207 26.08 13.4501 26.08C20.6482 26.08 26.4901 20.2381 26.4901 13.04C26.4901 5.84191 20.6482 0 13.4501 0ZM19.0313 12.8487C18.5792 15.6741 18.0924 18.7689 18.0924 18.7689C18.0924 18.7689 18.0141 19.6382 17.3795 19.786C16.7362 19.9338 15.6843 19.2557 15.4931 19.1079C15.3453 18.9949 12.6677 17.2997 11.6854 16.4738C11.4246 16.2478 11.1203 15.7958 11.7202 15.2655C13.0763 14.0223 14.6933 12.4749 15.6756 11.4926C16.1277 11.0405 16.5797 9.98863 14.6933 11.2665C12.0157 13.1095 9.38167 14.8482 9.38167 14.8482C9.38167 14.8482 8.78183 15.222 7.65169 14.883C6.52156 14.5439 5.20018 14.0919 5.20018 14.0919C5.20018 14.0919 4.29607 13.5268 5.84348 12.927C5.84348 12.927 12.3635 10.2494 14.6237 9.31055C15.4931 8.93674 18.4314 7.72836 18.4314 7.72836C18.4314 7.72836 19.7876 7.19807 19.6746 8.48468C19.6311 9.00628 19.3268 10.858 19.0313 12.8487Z" fill="#070618"/>
</svg>
