<svg width="25" height="20" viewBox="0 0 25 20" fill="none" xmlns="http://www.w3.org/2000/svg">
<path d="M25 2.36923C24.0833 2.76923 23.0938 3.04615 22.0521 3.16923C23.1146 2.54359 23.9271 1.55897 24.3125 0.379487C23.3229 0.953846 22.2187 1.37436 21.0521 1.61026C20.1146 0.615385 18.7812 0 17.3125 0C14 0 11.5729 3.04615 12.3125 6.20513C8.05208 5.98974 4.27083 3.97949 1.73958 0.923077C0.395833 3.18974 1.04167 6.1641 3.32292 7.6718C2.48958 7.64103 1.69792 7.41539 1 7.0359C0.947917 9.37436 2.64583 11.559 5.11458 12.0513C4.39583 12.2462 3.60417 12.2872 2.80208 12.1333C3.45833 14.1436 5.34375 15.6 7.59375 15.641C5.4375 17.3128 2.71875 18.0513 0 17.7333C2.27083 19.1692 4.96875 20 7.86458 20C17.3854 20 22.7708 12.0821 22.4375 4.97436C23.4375 4.26667 24.3125 3.38462 25 2.36923Z" fill="#070618"/>
</svg>
