<svg width="30" height="30" viewBox="0 0 30 30" fill="none" xmlns="http://www.w3.org/2000/svg">
<circle cx="15" cy="15" r="14.5" fill="#070618" stroke="white"/>
<path d="M10.0665 14.5L8.03643 16.424L6 14.5L8.03012 12.582L10.0665 14.5ZM15.0032 9.83602L18.4897 13.13L20.5261 11.212L15.0095 6L9.49282 11.212L11.5292 13.13L15.0032 9.83602ZM21.9699 12.582L19.9398 14.5L21.9699 16.424L24 14.5L21.9699 12.582ZM15.0032 19.164L11.5166 15.87L9.48021 17.788L14.9968 23L20.5135 17.788L18.4771 15.87L15.0032 19.164ZM15.0032 16.424L17.0333 14.5L15.0032 12.582L12.973 14.5L15.0032 16.424Z" fill="#EEB81C"/>
</svg>
