<svg width="30" height="30" viewBox="0 0 30 30" fill="none" xmlns="http://www.w3.org/2000/svg">
<circle cx="15" cy="15" r="15" fill="#070618"/>
<path fill-rule="evenodd" clip-rule="evenodd" d="M18.2351 10.0065L18.6852 10.0028L19.6772 10.0583L21.7145 11.2647L20.4381 19.49L18.1795 23.9705L15.5902 26.738L13.8641 23.1405L12.5099 20.788L9.64829 18.6117L8.32812 12.0247L9.10126 10.4733L11.0633 10.0655L11.685 10.0604L12.6664 7.66754L13.6932 7.5733L14.7798 2.99268L16.4073 7.58939L18.2351 10.0065Z" fill="white"/>
<path fill-rule="evenodd" clip-rule="evenodd" d="M18.9479 9.81019C18.9422 9.80974 18.9365 9.80954 18.9309 9.80958L11.095 9.86507C11.082 9.86516 11.069 9.86654 11.0563 9.86919L9.17449 10.2601C9.11824 10.2717 9.07001 10.3074 9.04259 10.3575L8.22368 11.8544C8.18593 11.8951 8.16666 11.9508 8.1731 12.0077C8.17403 12.0241 8.17706 12.0404 8.18221 12.0563L9.51806 18.6442C9.51896 18.691 9.53679 18.7375 9.57181 18.7741C9.59386 18.7972 9.62025 18.8137 9.64851 18.8236L12.3397 20.8983C12.3476 20.91 12.3569 20.9209 12.3671 20.9306L13.7623 23.2282L13.7662 23.2355L15.4849 26.9491C15.4959 26.9763 15.5133 27.0015 15.5369 27.0222C15.6179 27.0933 15.7416 27.0857 15.8132 27.0053L18.3927 24.11C18.4041 24.0972 18.4137 24.0831 18.4213 24.0678L20.6653 19.5921C20.6781 19.5666 20.685 19.5388 20.6858 19.5107L21.9951 11.3037C21.9991 11.2888 22.0014 11.2732 22.0017 11.2573C22.0026 11.2089 21.9853 11.1626 21.9543 11.1269C21.9383 11.1082 21.9188 11.0925 21.8966 11.0808L20.0081 9.91605C19.9815 9.89969 19.9515 9.88987 19.9204 9.8874L18.9479 9.81019ZM20.4939 18.2291L21.5478 11.6232L19.6522 12.6951L20.154 15.9944C20.1574 16.0073 20.1594 16.0207 20.1601 16.0341L20.4939 18.2291ZM19.8717 16.741L20.2803 19.4274L17.5534 22.025L19.8717 16.741ZM19.7618 16.0184L19.2717 12.7958L13.3015 13.1029L15.0474 20.4871L16.9214 22.4924L19.7618 16.0184ZM19.8217 20.4027L18.0824 23.8719L16.1398 26.0523L17.1502 22.9475L19.8217 20.4027ZM12.8393 20.9556L13.8934 22.6914L14.5803 20.8029L12.8393 20.9556ZM14.4709 19.7493L12.8957 13.0868L8.8348 12.2867L11.9871 16.5201C11.9978 16.5345 12.0062 16.5498 12.0124 16.5657L14.4709 19.7493ZM11.5744 16.6195L8.73303 12.8036L9.83844 18.2551L11.5744 16.6195ZM10.0209 18.6188L12.5763 20.5887L14.496 20.4204L11.8059 16.9369L10.0209 18.6188ZM15.6344 26.3413L14.1492 23.1323L14.9438 20.9475L16.758 22.8888L15.6344 26.3413ZM9.34336 10.6219L11.1173 10.2534L18.9251 10.1981L19.8418 10.2709L21.4235 11.2464L19.3814 12.4012L13.0726 12.7257L8.66732 11.8576L9.34336 10.6219Z" fill="#070618"/>
<path fill-rule="evenodd" clip-rule="evenodd" d="M14.8233 2.52712C14.9107 2.52261 14.9905 2.57629 15.0187 2.65856L16.6624 7.45635L18.9401 10.5692C18.979 10.6223 18.9882 10.6913 18.9646 10.7526C18.941 10.814 18.8878 10.8593 18.8231 10.8732L15.451 11.597C15.4354 11.6004 15.4195 11.6018 15.4036 11.6013L12.4861 11.512C12.4562 11.5111 12.4269 11.5034 12.4005 11.4895L11.3502 10.937C11.2622 10.8907 11.2232 10.7862 11.2597 10.6942L12.5045 7.55755C12.5315 7.48955 12.5947 7.44233 12.668 7.43538L13.5702 7.34981L14.6426 2.67795C14.662 2.59322 14.7358 2.53163 14.8233 2.52712Z" fill="white"/>
<path fill-rule="evenodd" clip-rule="evenodd" d="M15.0226 2.65856C14.9944 2.57629 14.9146 2.52261 14.8272 2.52712C14.7397 2.53163 14.666 2.59322 14.6465 2.67795L13.5741 7.34981L12.6719 7.43538C12.5986 7.44233 12.5354 7.48954 12.5084 7.55755L11.2636 10.6942C11.2271 10.7862 11.2661 10.8907 11.3541 10.937L12.4044 11.4895C12.4308 11.5034 12.4601 11.5111 12.49 11.512L15.3776 11.6004C15.3986 11.6035 15.4196 11.6031 15.4399 11.5996C15.4449 11.599 15.4499 11.5981 15.4549 11.597L18.7495 10.8898C18.8032 10.8951 18.8574 10.878 18.8983 10.8422C18.9297 10.8203 18.9544 10.7893 18.9685 10.7526C18.9921 10.6913 18.9829 10.6223 18.944 10.5692L16.6663 7.45635L15.0226 2.65856ZM18.2246 10.6051L15.9005 11.1039L16.9126 9.84177L18.2246 10.6051ZM16.836 8.34928L18.107 10.0864L17.0393 9.46523L16.836 8.34928ZM16.3011 7.59699L14.8746 3.43324L13.9534 7.44643L14.666 8.5324C14.6754 8.54673 14.6828 8.56224 14.6881 8.57851L15.4802 11.0043L16.655 9.53912L16.3011 7.59699ZM13.3277 7.76341L13.6728 7.73068L13.9023 8.08048L13.3277 7.76341ZM15.134 11.2043L14.3987 8.95233L11.8172 10.741L12.5475 11.1252L15.134 11.2043ZM12.789 7.91064L11.8677 10.2322L14.1414 8.65686L12.789 7.91064Z" fill="#070618"/>
</svg>
