<svg width="30" height="30" viewBox="0 0 30 30" fill="none" xmlns="http://www.w3.org/2000/svg">
<path d="M30 15C30 23.2843 23.2843 30 15 30C6.71573 30 0 23.2843 0 15C0 6.71573 6.71573 0 15 0C23.2843 0 30 6.71573 30 15Z" fill="#50AF95"/>
<path fill-rule="evenodd" clip-rule="evenodd" d="M8.19845 6.07198L4.00992 13.9999C3.99669 14.032 3.99669 14.068 4.00992 14.1001C4.01607 14.1314 4.03282 14.1597 4.05748 14.1803L15.3855 23.9532C15.4176 23.9812 15.4583 23.9976 15.5011 24C15.5462 23.9986 15.5893 23.9821 15.6235 23.9532L26.9447 14.1803C26.9682 14.1588 26.9848 14.1309 26.9922 14.1001C27.0026 14.0698 27.0026 14.0369 26.9922 14.0066L22.797 6.07198C22.7824 6.04514 22.7613 6.02217 22.7357 6.00511C22.7066 5.99897 22.6765 5.99897 22.6474 6.00511H8.36843C8.33938 5.9983 8.30909 5.9983 8.28004 6.00511C8.25106 6.02018 8.2273 6.04349 8.21198 6.07198H8.19845Z" fill="#50AF95"/>
<path fill-rule="evenodd" clip-rule="evenodd" d="M16.1756 16.4578C16.1078 16.4578 15.7556 16.4578 14.9696 16.4578C14.3462 16.4578 13.8989 16.4578 13.7431 16.4578C11.3309 16.3408 9.52854 15.8864 9.52854 15.3356C9.52854 14.7849 11.3309 14.3305 13.7431 14.2134V16.0034C13.9057 16.0034 14.3529 16.0447 14.983 16.0447C15.7284 16.0447 16.1078 16.0447 16.1756 16.0034V14.2203C18.581 14.3374 20.3835 14.7917 20.3835 15.3356C20.3835 15.8795 18.5878 16.3408 16.1756 16.4578ZM16.1756 14.0344V12.4372H19.5635V10H10.4026V12.4372H13.7906V14.0275C11.0802 14.1652 9 14.716 9 15.4527C9 16.1893 11.0328 16.747 13.7906 16.8847V22H16.2231V16.8847C18.9334 16.747 21 16.1962 21 15.4527C21 14.7091 18.9673 14.1652 16.2231 14.0275L16.1756 14.0344Z" fill="white"/>
</svg>
