<svg width="14" height="14" viewBox="0 0 14 14" fill="none" xmlns="http://www.w3.org/2000/svg">
<path d="M3.18805 2.58576C4.24655 1.66856 5.60071 1.16456 7.0013 1.16651C10.2231 1.16651 12.8346 3.77809 12.8346 6.99984C12.8346 8.24584 12.4438 9.40084 11.7788 10.3482L9.91797 6.99984H11.668C11.668 6.08496 11.3992 5.19023 10.8949 4.42691C10.3905 3.66359 9.67293 3.06535 8.83132 2.70658C7.98972 2.34781 7.06122 2.24434 6.16128 2.40902C5.26133 2.5737 4.42965 2.99928 3.76964 3.63284L3.18805 2.58576ZM10.8146 11.4139C9.75606 12.3311 8.40189 12.8351 7.0013 12.8332C3.77955 12.8332 1.16797 10.2216 1.16797 6.99984C1.16797 5.75384 1.5588 4.59884 2.2238 3.65151L4.08464 6.99984H2.33464C2.33456 7.91473 2.60341 8.80946 3.10775 9.57278C3.61209 10.3361 4.32968 10.9343 5.17128 11.2931C6.01289 11.6519 6.94139 11.7554 7.84133 11.5907C8.74127 11.426 9.57296 11.0004 10.233 10.3668L10.8146 11.4139Z" fill="white" fill-opacity="0.2"/>
</svg>
