<svg width="95" height="95" viewBox="0 0 95 95" fill="none" xmlns="http://www.w3.org/2000/svg">
<g filter="url(#filter0_d)">
<path d="M56.24 81.1391C37.4554 86.1724 18.147 75.0247 13.1137 56.24C8.08033 37.4554 19.228 18.147 38.0127 13.1137C56.7974 8.08033 76.1057 19.228 81.1391 38.0127C86.1724 56.7974 75.0247 76.1057 56.24 81.1391ZM38.8866 16.3752C21.9032 20.9259 11.8246 38.3827 16.3752 55.3661C20.9259 72.3495 38.3827 82.4282 55.3661 77.8775C72.3495 73.3268 82.4282 55.87 77.8775 38.8866C73.3268 21.9033 55.87 11.8246 38.8866 16.3752Z" fill="#99FFCC"/>
</g>
<circle cx="47" cy="47" r="33" fill="#070618"/>
<g filter="url(#filter1_d)">
<path d="M34 47.2791L43.8154 57L63 38" stroke="#99FFCC" stroke-width="5" stroke-linecap="round"/>
</g>
<defs>
<filter id="filter0_d" x="0" y="0" width="94.2527" height="94.2527" filterUnits="userSpaceOnUse" color-interpolation-filters="sRGB">
<feFlood flood-opacity="0" result="BackgroundImageFix"/>
<feColorMatrix in="SourceAlpha" type="matrix" values="0 0 0 0 0 0 0 0 0 0 0 0 0 0 0 0 0 0 127 0" result="hardAlpha"/>
<feOffset/>
<feGaussianBlur stdDeviation="2"/>
<feComposite in2="hardAlpha" operator="out"/>
<feColorMatrix type="matrix" values="0 0 0 0 0.6 0 0 0 0 1 0 0 0 0 0.801575 0 0 0 1 0"/>
<feBlend mode="normal" in2="BackgroundImageFix" result="effect1_dropShadow"/>
<feBlend mode="normal" in="SourceGraphic" in2="effect1_dropShadow" result="shape"/>
</filter>
<filter id="filter1_d" x="27.5" y="31.5" width="42" height="33.0186" filterUnits="userSpaceOnUse" color-interpolation-filters="sRGB">
<feFlood flood-opacity="0" result="BackgroundImageFix"/>
<feColorMatrix in="SourceAlpha" type="matrix" values="0 0 0 0 0 0 0 0 0 0 0 0 0 0 0 0 0 0 127 0" result="hardAlpha"/>
<feOffset/>
<feGaussianBlur stdDeviation="2"/>
<feComposite in2="hardAlpha" operator="out"/>
<feColorMatrix type="matrix" values="0 0 0 0 0.6 0 0 0 0 1 0 0 0 0 0.801575 0 0 0 1 0"/>
<feBlend mode="normal" in2="BackgroundImageFix" result="effect1_dropShadow"/>
<feBlend mode="normal" in="SourceGraphic" in2="effect1_dropShadow" result="shape"/>
</filter>
</defs>
</svg>
