<svg width="34" height="34" viewBox="0 0 34 34" fill="none" xmlns="http://www.w3.org/2000/svg">
<g filter="url(#filter0_d)">
<path d="M19.2944 26.5845C13.7947 28.0581 8.14171 24.7944 6.66807 19.2946C5.19442 13.7949 8.4582 8.14191 13.9579 6.66827C19.4576 5.19462 25.1106 8.4584 26.5843 13.9581C28.0579 19.4578 24.7942 25.1108 19.2944 26.5845ZM14.2138 7.62318C9.24145 8.95551 6.29065 14.0664 7.62298 19.0388C8.95531 24.0111 14.0662 26.9619 19.0386 25.6296C24.0109 24.2972 26.9617 19.1863 25.6294 14.214C24.297 9.24165 19.1861 6.29084 14.2138 7.62318Z" fill="#99FFCC"/>
</g>
<g filter="url(#filter1_d)">
<path d="M13 16.9302L15.7077 20L21 14" stroke="#99FFCC" stroke-width="2" stroke-linecap="round"/>
</g>
<defs>
<filter id="filter0_d" x="0" y="0" width="33.2528" height="33.2528" filterUnits="userSpaceOnUse" color-interpolation-filters="sRGB">
<feFlood flood-opacity="0" result="BackgroundImageFix"/>
<feColorMatrix in="SourceAlpha" type="matrix" values="0 0 0 0 0 0 0 0 0 0 0 0 0 0 0 0 0 0 127 0" result="hardAlpha"/>
<feOffset/>
<feGaussianBlur stdDeviation="2"/>
<feComposite in2="hardAlpha" operator="out"/>
<feColorMatrix type="matrix" values="0 0 0 0 0.6 0 0 0 0 1 0 0 0 0 0.801575 0 0 0 1 0"/>
<feBlend mode="normal" in2="BackgroundImageFix" result="effect1_dropShadow"/>
<feBlend mode="normal" in="SourceGraphic" in2="effect1_dropShadow" result="shape"/>
</filter>
<filter id="filter1_d" x="8" y="9" width="18" height="16.5117" filterUnits="userSpaceOnUse" color-interpolation-filters="sRGB">
<feFlood flood-opacity="0" result="BackgroundImageFix"/>
<feColorMatrix in="SourceAlpha" type="matrix" values="0 0 0 0 0 0 0 0 0 0 0 0 0 0 0 0 0 0 127 0" result="hardAlpha"/>
<feOffset/>
<feGaussianBlur stdDeviation="2"/>
<feComposite in2="hardAlpha" operator="out"/>
<feColorMatrix type="matrix" values="0 0 0 0 0.6 0 0 0 0 1 0 0 0 0 0.801575 0 0 0 1 0"/>
<feBlend mode="normal" in2="BackgroundImageFix" result="effect1_dropShadow"/>
<feBlend mode="normal" in="SourceGraphic" in2="effect1_dropShadow" result="shape"/>
</filter>
</defs>
</svg>
