<svg width="15" height="15" viewBox="0 0 15 15" fill="none" xmlns="http://www.w3.org/2000/svg">
<path fill-rule="evenodd" clip-rule="evenodd" d="M2 1H13C13.5523 1 14 1.44772 14 2V13C14 13.5523 13.5523 14 13 14H2C1.44772 14 1 13.5523 1 13V2C1 1.44772 1.44772 1 2 1ZM0 2C0 0.89543 0.895431 0 2 0H13C14.1046 0 15 0.895431 15 2V13C15 14.1046 14.1046 15 13 15H2C0.89543 15 0 14.1046 0 13V2ZM12.1429 5.35714V3.92857H11.0714V2.85714H9.64286V3.92857H8.57143V5.35714H9.64286V6.42857L11.0714 6.42857V5.35714H12.1429ZM6.3923 11.1147L5.38215 12.1248L4.6246 11.3673L3.86691 12.125L2.85676 11.1148L3.61444 10.3571L2.85677 9.59945L3.86692 8.5893L4.6246 9.34697L5.38214 8.58943L6.39229 9.59958L5.63475 10.3571L6.3923 11.1147ZM7.14286 5.35714V3.92857L2.85714 3.92857V5.35714H7.14286ZM8.57143 10V8.57143H12.1429V10H8.57143ZM8.57143 10.7143V12.1429H12.1429V10.7143H8.57143Z" fill="white"/>
</svg>
