<svg width="15" height="15" viewBox="0 0 15 15" fill="none" xmlns="http://www.w3.org/2000/svg">
<path d="M8.30177 5.19085L9.12719 6.01626C9.5064 6.39544 9.80722 6.8456 10.0125 7.34104C10.2177 7.83648 10.3233 8.3675 10.3233 8.90377C10.3233 9.44003 10.2177 9.97105 10.0125 10.4665C9.80722 10.9619 9.5064 11.4121 9.12719 11.7913L8.92069 11.9972C8.15487 12.763 7.11621 13.1932 6.03319 13.1932C4.95017 13.1932 3.9115 12.763 3.14569 11.9972C2.37988 11.2314 1.94965 10.1927 1.94965 9.10968C1.94965 8.02666 2.37988 6.98799 3.14569 6.22218L3.9711 7.0476C3.69832 7.318 3.48163 7.63963 3.33348 7.994C3.18533 8.34837 3.10863 8.72852 3.10779 9.11262C3.10695 9.49671 3.18198 9.87719 3.32858 10.2322C3.47518 10.5872 3.69045 10.9098 3.96205 11.1814C4.23365 11.453 4.55622 11.6683 4.91124 11.8149C5.26626 11.9615 5.64674 12.0365 6.03083 12.0357C6.41493 12.0348 6.79508 11.9581 7.14945 11.81C7.50383 11.6618 7.82545 11.4451 8.09585 11.1723L8.30235 10.9658C8.84914 10.4189 9.15631 9.67716 9.15631 8.90377C9.15631 8.13037 8.84914 7.38864 8.30235 6.84168L7.47694 6.01626L8.30235 5.19143L8.30177 5.19085ZM12.2206 8.69727L11.3958 7.87243C11.6686 7.60203 11.8852 7.2804 12.0334 6.92603C12.1815 6.57165 12.2582 6.19151 12.2591 5.80741C12.2599 5.42331 12.1849 5.04284 12.0383 4.68782C11.8917 4.3328 11.6764 4.01023 11.4048 3.73863C11.1332 3.46703 10.8107 3.25175 10.4556 3.10516C10.1006 2.95856 9.72014 2.88352 9.33604 2.88436C8.95195 2.88521 8.5718 2.9619 8.21742 3.11006C7.86305 3.25821 7.54143 3.4749 7.27102 3.74768L7.06452 3.95418C6.51773 4.50114 6.21056 5.24287 6.21056 6.01626C6.21056 6.78966 6.51773 7.53139 7.06452 8.07835L7.88994 8.90377L7.06452 9.7286L6.23969 8.90377C5.86047 8.52459 5.55966 8.07443 5.35442 7.57899C5.14919 7.08355 5.04356 6.55253 5.04356 6.01626C5.04356 5.48 5.14919 4.94898 5.35442 4.45354C5.55966 3.9581 5.86047 3.50794 6.23969 3.12876L6.44619 2.92285C7.212 2.15704 8.25067 1.72681 9.33369 1.72681C10.4167 1.72681 11.4554 2.15704 12.2212 2.92285C12.987 3.68866 13.4172 4.72733 13.4172 5.81035C13.4172 6.89337 12.987 7.93204 12.2212 8.69785L12.2206 8.69727Z" fill="white"/>
</svg>
