<svg width="13" height="15" viewBox="0 0 13 15" fill="none" xmlns="http://www.w3.org/2000/svg">
<path fill-rule="evenodd" clip-rule="evenodd" d="M4.83949 0.836016C4.92422 0.66673 5.0973 0.559814 5.28661 0.559814H9.38092C9.47985 0.559814 9.57657 0.589166 9.65882 0.644155L12.7274 2.69569C12.9296 2.83091 13.0052 3.09206 12.9064 3.31438L8.81207 12.5288C8.75498 12.6573 8.64641 12.7558 8.51299 12.8002L3.90142 14.3344C3.6733 14.4103 3.42347 14.3131 3.30661 14.103L0.746572 9.50023C0.666271 9.35586 0.66247 9.18114 0.736415 9.0334L4.83949 0.836016ZM5.59548 1.55981L1.74883 9.2449L3.97905 13.2547L7.98786 11.921L11.8216 3.29303L9.22917 1.55981H5.59548Z" fill="white"/>
<path fill-rule="evenodd" clip-rule="evenodd" d="M4.83949 0.836016C4.92423 0.66673 5.0973 0.559814 5.28661 0.559814H9.38092C9.52141 0.559814 9.65542 0.618922 9.75015 0.722671C9.84489 0.826421 9.8916 0.965239 9.87886 1.10515L8.85309 12.3711C8.83858 12.5304 8.7487 12.6732 8.61129 12.7551C8.47389 12.8371 8.30556 12.8484 8.15846 12.7854L0.986845 9.71689C0.86016 9.66268 0.76146 9.5586 0.714054 9.42922C0.666649 9.29983 0.674739 9.15662 0.736415 9.0334L4.83949 0.836016ZM5.59548 1.55981L1.86824 9.00632L7.91957 11.5955L8.83333 1.55981H5.59548Z" fill="white"/>
</svg>
