<svg width="10" height="16" viewBox="0 0 10 16" fill="none" xmlns="http://www.w3.org/2000/svg">
<path fill-rule="evenodd" clip-rule="evenodd" d="M3.13542 1.72998L2.13464 1.72998L2.13464 0.72998H8.13464V1.72998L7.13542 1.72998V9.27636C7.13542 9.36428 7.15861 9.45065 7.20264 9.52675L9.19989 12.9788C9.77846 13.9788 9.05685 15.23 7.90154 15.23H2.36931C1.214 15.23 0.492385 13.9788 1.07096 12.9788L3.06821 9.52675C3.11224 9.45065 3.13542 9.36428 3.13542 9.27636V1.72998ZM4.13542 1.72998V9.27636C4.13542 9.54013 4.06587 9.79923 3.93378 10.0275L2.65951 12.23L7.61134 12.23L6.33707 10.0275C6.20498 9.79923 6.13542 9.54013 6.13542 9.27636V8.72998H5.63464V8.22998H6.13542V7.72998H5.63464V7.22998H6.13542V6.72998H5.63464V6.22998H6.13542V5.72998H5.63464V5.22998H6.13542V1.72998H4.13542ZM7.90063 12.73L2.37022 12.73L1.93652 13.4796C1.74367 13.8129 1.9842 14.23 2.36931 14.23H7.90154C8.28665 14.23 8.52718 13.8129 8.33433 13.4796L7.90063 12.73Z" fill="white"/>
</svg>
