<svg width="18" height="17" viewBox="0 0 18 17" fill="none" xmlns="http://www.w3.org/2000/svg">
<path d="M4.96101 4.39772L3.28912 3.43542L1.83285 2.21651L1.74337 1.96265L3.06502 3.03394L3.20635 3.1485L3.38826 3.14544L5.37748 3.11206L5.40296 3.11163L5.42827 3.10861L7.54808 2.85591L8.98295 3.3667L9.14802 3.42547L9.31367 3.36833L10.843 2.84083L12.9096 3.14034L12.9473 3.14581L12.9854 3.1455L14.9913 3.12906L15.1641 3.12765L15.2991 3.01986L16.6132 1.97097L16.517 2.23787L15.094 3.48436L13.432 4.39227L12.4636 4.92127L13.4998 5.3006L14.405 5.63197L14.8262 6.03439L14.692 6.19192L13.4709 6.63729L12.7897 6.53873L12.1862 6.4514L12.2188 7.06033L12.3833 10.1304L12.3855 10.1714L12.3944 10.2116L12.7352 11.7524L9.1853 15.8845L5.63609 11.7252L6.01932 10.1554L6.03069 10.1089L6.033 10.061L6.1808 7.00793L6.21251 6.35298L5.57253 6.49574L4.89636 6.64658L3.61346 6.16174L3.53112 6.06332L4.00977 5.58674L4.86704 5.30629L5.93342 4.95743L4.96101 4.39772Z" stroke="white"/>
<path d="M6.18353 7.45996L8.18353 11.46H10.1835L12.1835 7.45996" stroke="white"/>
</svg>
