<svg width="41" height="41" viewBox="0 0 41 41" fill="none" xmlns="http://www.w3.org/2000/svg">
<path d="M0.5 5.5C0.5 2.73858 2.73858 0.5 5.5 0.5H35.5C38.2614 0.5 40.5 2.73858 40.5 5.5V35.5C40.5 38.2614 38.2614 40.5 35.5 40.5H5.5C2.73858 40.5 0.5 38.2614 0.5 35.5V5.5Z" fill="#070618"/>
<path d="M25.54 23.1784C21.8924 23.1784 18.9355 20.1669 18.9355 16.4519C18.9355 15.3598 19.191 14.3285 19.6445 13.4167C16.9969 14.293 15.083 16.8264 15.083 19.8152C15.083 23.5301 18.0399 26.5417 21.6875 26.5417C24.2628 26.5417 26.4938 25.0405 27.583 22.8504C26.9397 23.0633 26.253 23.1784 25.54 23.1784Z" stroke="white"/>
</svg>
