<svg width="213" height="263" viewBox="0 0 213 263" fill="none" xmlns="http://www.w3.org/2000/svg">
<mask id="mask0" mask-type="alpha" maskUnits="userSpaceOnUse" x="0" y="0" width="213" height="263">
<rect x="-0.498105" y="-0.501806" width="212.191" height="261.053" rx="9.5" transform="matrix(-0.996357 -7.4378e-08 0.000146074 -1.00361 211.42 261.995)" fill="#C4C4C4" stroke="white"/>
</mask>
<g mask="url(#mask0)">
<g opacity="0.5">
<path d="M62.2874 78.2047L63.4331 77.5954L63.7927 76.4495L63.1572 75.4327L61.9019 75.1455L60.7561 75.7547L60.3965 76.9007L61.032 77.9174L62.2874 78.2047Z" fill="white" fill-opacity="0.3"/>
<path d="M174.325 103.839L175.471 103.23L175.831 102.084L175.195 101.067L173.94 100.78L172.794 101.389L172.435 102.535L173.07 103.552L174.325 103.839Z" fill="white" fill-opacity="0.3"/>
<path d="M96.5234 114.832L97.0069 114.943L97.4518 114.713L97.5928 114.264L97.3422 113.874L96.8587 113.764L96.4138 113.994L96.2728 114.443L96.5234 114.832Z" fill="white"/>
<path d="M76.1288 122.442L77.1467 122.675L78.0742 122.181L78.3633 121.26L77.8488 120.437L76.831 120.204L75.912 120.699L75.6228 121.62L76.1288 122.442Z" fill="white"/>
<path d="M188.166 148.076L189.184 148.309L190.112 147.816L190.401 146.894L189.886 146.071L188.869 145.838L187.95 146.333L187.66 147.255L188.166 148.076Z" fill="white"/>
<path d="M35.7616 202.987L36.7795 203.22L37.707 202.727L37.9961 201.805L37.4817 200.982L36.4638 200.749L35.5448 201.244L35.2556 202.166L35.7616 202.987Z" fill="white"/>
<path d="M147.799 228.621L148.817 228.854L149.745 228.361L150.034 227.44L149.519 226.617L148.501 226.384L147.582 226.879L147.293 227.8L147.799 228.621Z" fill="white"/>
<path d="M62.9385 44.9979L63.4304 45.1105L63.8377 44.9713L63.9374 44.6539L63.6685 44.3517L63.1766 44.2391L62.7668 44.386L62.6672 44.7035L62.9385 44.9979Z" fill="white"/>
<path d="M174.977 70.6322L175.469 70.7448L175.876 70.6056L175.975 70.2881L175.707 69.986L175.215 69.8734L174.805 70.0203L174.705 70.3378L174.977 70.6322Z" fill="white"/>
<path d="M68.9681 92.5906L70.1138 91.9814L70.4758 90.8277L69.8403 89.8109L68.585 89.5236L67.4392 90.1329L67.0772 91.2866L67.7127 92.3034L68.9681 92.5906Z" fill="white" fill-opacity="0.3"/>
<path d="M181.006 118.225L182.152 117.616L182.514 116.462L181.878 115.445L180.623 115.158L179.477 115.767L179.115 116.921L179.751 117.938L181.006 118.225Z" fill="white" fill-opacity="0.3"/>
<path d="M27.9062 55.1236L28.3897 55.2342L28.8371 54.9964L28.9756 54.555L28.7274 54.158L28.2439 54.0474L27.7965 54.2852L27.658 54.7266L27.9062 55.1236Z" fill="white" fill-opacity="0.3"/>
<path d="M139.944 80.7579L140.427 80.8685L140.875 80.6306L141.013 80.1893L140.765 79.7923L140.282 79.6816L139.834 79.9195L139.696 80.3609L139.944 80.7579Z" fill="white" fill-opacity="0.3"/>
<path d="M41.5393 179.107L42.6851 178.498L43.0447 177.352L42.4092 176.335L41.1538 176.048L40.0081 176.657L39.6485 177.803L40.284 178.82L41.5393 179.107Z" fill="white"/>
<path d="M153.577 204.742L154.723 204.132L155.082 202.986L154.447 201.97L153.191 201.682L152.046 202.292L151.686 203.438L152.322 204.454L153.577 204.742Z" fill="white"/>
<path d="M80.9189 17.8281L82.0562 17.2169L82.4182 16.0632L81.7888 15.0561L80.5249 14.7669L79.3816 15.3684L79.0196 16.5221L79.6551 17.5389L80.9189 17.8281Z" fill="white" fill-opacity="0.3"/>
<path d="M192.957 43.4625L194.094 42.8513L194.456 41.6976L193.827 40.6905L192.563 40.4013L191.42 41.0028L191.058 42.1565L191.693 43.1733L192.957 43.4625Z" fill="white" fill-opacity="0.3"/>
<path d="M107.958 204.246L108.594 204.391L109.164 204.082L109.343 203.509L109.029 203.005L108.393 202.86L107.825 203.162L107.645 203.735L107.958 204.246Z" fill="white" fill-opacity="0.3"/>
<path d="M21.2251 29.5977L21.7085 29.7083L22.1535 29.4782L22.2944 29.0291L22.0438 28.6398L21.5604 28.5292L21.1154 28.7593L20.9745 29.2084L21.2251 29.5977Z" fill="white"/>
<path d="M133.262 55.232L133.746 55.3426L134.191 55.1124L134.332 54.6634L134.081 54.2741L133.597 54.1634L133.153 54.3936L133.012 54.8427L133.262 55.232Z" fill="white"/>
<path d="M91.6777 191.003L92.1697 191.115L92.6086 190.875L92.7471 190.434L92.5074 190.039L92.0154 189.926L91.5765 190.166L91.438 190.608L91.6777 191.003Z" fill="white"/>
<path d="M39.9554 113.057L41.1011 112.448L41.4607 111.302L40.8252 110.285L39.5698 109.998L38.4241 110.607L38.0645 111.753L38.7 112.77L39.9554 113.057Z" fill="white"/>
<path d="M151.993 138.691L153.139 138.082L153.499 136.936L152.863 135.919L151.608 135.632L150.462 136.241L150.103 137.387L150.738 138.404L151.993 138.691Z" fill="white"/>
<path d="M110.368 42.8815L110.995 43.0251L111.571 42.7253L111.751 42.1523L111.43 41.6391L110.803 41.4955L110.233 41.8049L110.053 42.3779L110.368 42.8815Z" fill="white"/>
<path d="M51.5276 211.501L52.1553 211.644L52.7251 211.335L52.9049 210.762L52.5902 210.258L51.9625 210.115L51.3866 210.415L51.2068 210.988L51.5276 211.501Z" fill="white"/>
<path d="M163.566 237.135L164.193 237.279L164.763 236.969L164.943 236.396L164.628 235.893L164.001 235.749L163.425 236.049L163.245 236.622L163.566 237.135Z" fill="white"/>
<path d="M103.409 37.2729L103.901 37.3855L104.338 37.1534L104.478 36.7043L104.236 36.3169L103.744 36.2043L103.308 36.4364L103.167 36.8855L103.409 37.2729Z" fill="white"/>
<path d="M42.5258 11.4007L43.0178 11.5133L43.4567 11.2735L43.5952 10.8321L43.3555 10.437L42.8636 10.3245L42.4247 10.5643L42.2862 11.0056L42.5258 11.4007Z" fill="white"/>
<path d="M154.564 37.0351L155.056 37.1477L155.495 36.9079L155.633 36.4665L155.394 36.0714L154.902 35.9589L154.463 36.1987L154.324 36.64L154.564 37.0351Z" fill="white"/>
<path d="M69.7705 204.355L70.254 204.466L70.7013 204.228L70.8398 203.787L70.5917 203.39L70.1082 203.279L69.6608 203.517L69.5223 203.958L69.7705 204.355Z" fill="white"/>
<path d="M181.808 229.99L182.292 230.1L182.739 229.862L182.877 229.421L182.629 229.024L182.146 228.913L181.698 229.151L181.56 229.593L181.808 229.99Z" fill="white"/>
<path d="M67.8637 173.985L68.3472 174.096L68.7922 173.866L68.9331 173.416L68.6825 173.027L68.199 172.916L67.7541 173.147L67.6131 173.596L67.8637 173.985Z" fill="white"/>
<path d="M179.902 199.619L180.385 199.73L180.83 199.5L180.971 199.051L180.721 198.661L180.237 198.551L179.792 198.781L179.651 199.23L179.902 199.619Z" fill="white"/>
<path d="M58.0136 120.537L58.4971 120.648L58.9421 120.417L59.083 119.968L58.8324 119.579L58.3489 119.469L57.904 119.699L57.7631 120.148L58.0136 120.537Z" fill="white"/>
<path d="M170.052 146.171L170.535 146.282L170.98 146.052L171.121 145.603L170.87 145.213L170.387 145.103L169.942 145.333L169.801 145.782L170.052 146.171Z" fill="white"/>
<path d="M74.5942 41.8086L75.0862 41.9212L75.5226 41.6891L75.6636 41.24L75.4215 40.8527L74.9295 40.7401L74.493 40.9722L74.3521 41.4213L74.5942 41.8086Z" fill="white"/>
<path d="M186.632 67.4429L187.124 67.5555L187.561 67.3234L187.702 66.8743L187.46 66.4869L186.968 66.3744L186.531 66.6065L186.39 67.0556L186.632 67.4429Z" fill="white"/>
<path d="M40.7146 66.7246L41.8604 66.1153L42.22 64.9694L41.5845 63.9526L40.3291 63.6654L39.1834 64.2746L38.8238 65.4206L39.4593 66.4373L40.7146 66.7246Z" fill="white"/>
<path d="M152.752 92.3588L153.898 91.7496L154.258 90.6037L153.622 89.5869L152.367 89.2996L151.221 89.9089L150.861 91.0548L151.497 92.0716L152.752 92.3588Z" fill="white"/>
<path d="M33.6458 158.259L34.7915 157.65L35.1536 156.496L34.5181 155.479L33.2542 155.19L32.1085 155.799L31.7465 156.953L32.382 157.97L33.6458 158.259Z" fill="white"/>
<path d="M145.683 183.893L146.829 183.284L147.191 182.13L146.556 181.113L145.292 180.824L144.146 181.433L143.784 182.587L144.42 183.604L145.683 183.893Z" fill="white"/>
<path d="M3.18415 23.8435L3.81182 23.9871L4.39015 23.6796L4.56995 23.1066L4.24674 22.6011L3.61906 22.4575L3.05165 22.7592L2.87185 23.3322L3.18415 23.8435Z" fill="white"/>
<path d="M115.222 49.4778L115.85 49.6214L116.428 49.3139L116.608 48.7409L116.285 48.2354L115.657 48.0918L115.09 48.3935L114.91 48.9665L115.222 49.4778Z" fill="white"/>
<path d="M78.5831 205.234L79.2108 205.378L79.7867 205.078L79.9664 204.505L79.6457 203.992L79.018 203.849L78.4397 204.156L78.2599 204.729L78.5831 205.234Z" fill="white"/>
<path d="M74.6279 210.944L75.1114 211.054L75.5563 210.824L75.6972 210.375L75.4467 209.986L74.9632 209.875L74.5182 210.106L74.3773 210.555L74.6279 210.944Z" fill="white"/>
</g>
</g>
</svg>
