<svg width="27" height="39" viewBox="0 0 27 39" fill="none" xmlns="http://www.w3.org/2000/svg">
<path d="M13.4248 37.181L2.19278 28.8316L3.28616 9.15067L1 5.47293L1.49699 2.68977L2.49098 1.49699L5.67173 1L7.95789 3.28616L13.3254 2.39158L18.5935 3.38556L21.0785 1L24.2592 1.39759L25.1538 2.88857L25.5514 5.67173L23.2653 9.44887L24.2592 28.931L13.4248 37.181Z" fill="#070618"/>
<path d="M13.3254 2.29218L7.95789 3.18677L5.57233 1L2.39158 1.39759L1.49699 2.59037L1 5.47293L3.28616 9.25007L2.68977 17.9971L2.19278 28.6328L13.3254 37.181L6.86451 27.0424L6.16872 21.0785L9.05127 18.5935L9.94586 19.6869L11.0392 17.5001L11.735 16.1086L11.0392 12.0332" stroke="white" stroke-width="0.5" stroke-miterlimit="10"/>
<path d="M2.29199 1.3976L5.37334 1.79519L6.96372 3.78316L10.6415 8.55429L6.66552 11.5362L3.18658 9.15068L4.18056 7.3615L2.39139 4.37955L2.88838 3.18677L6.46673 4.47895L7.06312 3.68376L7.85831 3.08737" stroke="white" stroke-width="0.5" stroke-miterlimit="10"/>
<path d="M13.3253 8.25611L10.9397 8.4549L10.1445 10.9399" stroke="white" stroke-width="0.5" stroke-miterlimit="10"/>
<path d="M2.29199 28.434L6.86432 27.0424" stroke="white" stroke-width="0.5" stroke-miterlimit="10"/>
<path d="M4.18066 7.36152L5.17465 5.07535L6.46683 4.67776" stroke="white" stroke-width="0.5" stroke-miterlimit="10"/>
<path d="M1 5.57235L2.39158 4.67776L5.17473 5.17476" stroke="white" stroke-width="0.5" stroke-miterlimit="10"/>
<path d="M5.96973 21.1779L9.74687 21.5755L13.2258 25.8496" stroke="white" stroke-width="0.5" stroke-miterlimit="10"/>
<path d="M13.3253 16.8044L12.0331 17.0032L11.5361 16.208L13.3253 15.6116" stroke="white" stroke-width="0.5" stroke-miterlimit="10"/>
<path d="M13.3253 19.0905V20.4821L10.8403 21.5755L10.1445 19.7863L13.3253 19.0905ZM13.3253 19.0905L12.1325 17.0032L11.1385 17.5996L13.3253 19.0905Z" stroke="white" stroke-width="0.5" stroke-miterlimit="10"/>
<path d="M10.1445 21.5755L13.3253 37.1811" stroke="white" stroke-width="0.5" stroke-miterlimit="10"/>
<path d="M13.5239 22.9671L15.4125 22.5695L17.0029 21.5755L17.8975 18.7923L15.9095 12.232L13.6233 11.1386L11.1384 12.232L9.15039 18.7923L10.1444 21.5755L11.7348 22.5695L13.5239 22.9671Z" stroke="white" stroke-width="0.5" stroke-miterlimit="10"/>
<path d="M24.3587 1.39761L21.2773 1.7952L19.687 3.78317L16.208 8.4549L20.1839 11.4368L23.5635 9.15068L22.5695 7.36151L24.3587 4.37956L23.8617 3.18678L20.2833 4.47896L19.5876 3.78317L18.7924 3.18678" stroke="white" stroke-width="0.5" stroke-miterlimit="10"/>
<path d="M18.5933 10.6417L16.8041 11.0392L15.6113 12.1326L19.8855 11.5362L20.4819 21.0785L23.8614 17.9971" stroke="white" stroke-width="0.5" stroke-miterlimit="10"/>
<path d="M24.3585 28.434L19.7861 27.0424" stroke="white" stroke-width="0.5" stroke-miterlimit="10"/>
<path d="M22.4707 7.36151L21.4767 5.07534L20.1846 4.67775" stroke="white" stroke-width="0.5" stroke-miterlimit="10"/>
<path d="M25.7499 5.57234L24.3584 4.67775L21.5752 5.17474" stroke="white" stroke-width="0.5" stroke-miterlimit="10"/>
<path d="M20.1837 21.1779L16.6053 21.4761L13.3252 25.8496V37.181" stroke="white" stroke-width="0.5" stroke-miterlimit="10"/>
<path d="M13.3252 16.8044L14.6174 17.0032L15.1144 16.208L13.3252 15.5122V11.0393" stroke="white" stroke-width="0.5" stroke-miterlimit="10"/>
<path d="M13.3252 19.0905V20.4821L16.1084 21.6749L17.0029 19.8857L13.3252 19.0905ZM13.3252 19.0905L14.6174 17.0032L15.8102 17.5995L13.3252 19.0905Z" stroke="white" stroke-width="0.5" stroke-miterlimit="10"/>
<path d="M17.0029 21.5755L13.3252 37.181" stroke="white" stroke-width="0.5" stroke-miterlimit="10"/>
<path d="M10.6416 8.75309L3.28613 9.25009" stroke="white" stroke-width="0.5" stroke-miterlimit="10"/>
<path d="M15.7119 12.1326L15.0162 16.208L15.7119 17.5996L16.8053 19.7863L17.6999 18.6929L20.5825 21.1779L19.8867 27.1418L13.4258 37.2804L24.5584 28.7322L24.0614 18.196L23.5644 9.34949L25.8506 5.57235L25.3536 2.68979L24.459 1.49701L21.2783 1.09942L18.8927 3.38558L13.5252 2.491V8.4549L16.2089 8.6537L17.1035 11.1387" stroke="white" stroke-width="0.5" stroke-miterlimit="10"/>
<path d="M6.765 11.5362L11.0391 12.1326L9.84635 11.0392L8.05718 10.6416L6.765 11.5362ZM6.765 11.5362L2.78906 17.9971L6.16861 21.0785L6.765 11.5362Z" stroke="white" stroke-width="0.5" stroke-miterlimit="10"/>
<path d="M20.1846 11.5363L23.8623 17.9972" stroke="white" stroke-width="0.5" stroke-miterlimit="10"/>
<path d="M23.464 9.34948L16.0091 8.75309L13.4248 11.0393L10.6416 8.75309" stroke="white" stroke-width="0.5" stroke-miterlimit="10"/>
<path d="M7.36133 3.68376L13.524 5.96993L19.7861 3.68376" stroke="white" stroke-width="0.5" stroke-miterlimit="10"/>
</svg>
