<svg width="31" height="38" viewBox="0 0 31 38" fill="none" xmlns="http://www.w3.org/2000/svg">
<path d="M26.6567 22.1202L29.9503 25.0454L27.0931 18.1999L25.1248 7.43228L22.2816 3.96099L19.5619 2.99265L18.6607 3.97601L16.3887 1.8085L15.4857 2.35648L14.4651 1.81648L12.2115 4.1116L11.3018 3.02691L8.59066 4.12662L5.77631 7.62138L3.89742 18.405L1.09661 25.1651L4.36583 22.2127L2.47656 30.4928L4.95281 27.326L4.08822 37.1258L8.14137 32.2109L11.3286 36.7692L13.8107 35.0174L15.6257 36.0983L17.3184 35.0028L19.815 36.734L22.9638 32.0406L27.0576 36.9217L26.1118 27.1294L28.6142 30.2756L26.6567 22.1202Z" fill="#070618"/>
<path d="M26.7249 21.918L26.275 21.579L26.3895 22.1466L28.2161 29.9791L26.1864 27.2605L25.8482 26.8075L25.8505 27.3756L26.7876 37.0297L23.0681 32.3865L22.955 32.1598L22.8438 32.3875L19.8361 37.1721L17.4744 35.4776L17.3618 35.3644L17.2501 35.4785L15.5729 36.6217L13.8863 35.4925L13.7737 35.3793L13.662 35.4934L11.4256 36.9798L8.37831 32.2202L8.26524 31.9934L8.0424 32.3352L4.36149 37.0091L5.21845 27.3475L5.2161 26.7794L4.8816 27.2353L2.8746 29.9706L4.63613 22.1232L4.74591 21.5547L4.29881 21.8974L1.6181 24.4082L4.17066 18.0347L6.03065 6.89191L8.70712 3.35847L11.2818 2.32518L12.071 3.34452L12.1836 3.45768L12.4073 3.34313L14.6405 1.06139L15.4277 1.62624L15.5403 1.7394L15.652 1.62531L16.4345 1.05395L18.6865 3.31708L18.7991 3.43024L18.9108 3.31615L19.6914 2.2903L22.2746 3.3022L24.9803 6.81331L26.9327 17.9403L29.538 24.2924L26.7249 21.918ZM15.5394 1.51216L15.5931 14.465L15.5394 1.51216ZM15.5394 1.51216L15.5931 14.465L15.5394 1.51216ZM12.7018 20.2718L12.5855 19.2497L12.7018 20.2718ZM12.7018 20.2718L12.5855 19.2497L12.7018 20.2718ZM14.1534 18.7887L13.1338 16.2932L14.1534 18.7887ZM14.1534 18.7887L13.1338 16.2932L14.1534 18.7887ZM13.1338 16.2932L10.7716 14.485L6.4966 11.094L7.9717 15.292L8.98651 16.6513L13.1338 16.2932ZM13.1338 16.2932L10.7716 14.485L6.4966 11.094L7.9717 15.292L8.98651 16.6513L13.1338 16.2932ZM10.7711 14.3714L13.1433 18.5656L10.7711 14.3714ZM10.7711 14.3714L13.1433 18.5656L10.7711 14.3714ZM8.63363 12.6759L8.64023 14.2666L9.87836 15.3977L11.6748 15.9584L8.63363 12.6759ZM8.63363 12.6759L8.64023 14.2666L9.87836 15.3977L11.6748 15.9584L8.63363 12.6759ZM12.9313 21.5207L12.7018 20.2718L13.9371 20.7212L14.1529 18.6751L15.4942 17.6469L13.9367 20.6076L15.5465 30.2589L14.1807 25.3787L12.9313 21.5207ZM12.9313 21.5207L9.66588 18.2392L9.09864 16.6508L11.0081 17.4383L12.6971 19.1356L13.1433 18.5656L13.1334 16.1796L15.5927 14.3514L11.6517 10.3909L8.70665 3.24485L6.4966 11.094L12.9313 21.5207ZM12.9313 21.5207L9.66588 18.2392L9.09864 16.6508L11.0081 17.4383L12.6971 19.1356L13.1433 18.5656L13.1334 16.1796L15.5927 14.3514L11.6517 10.3909L8.70665 3.24485L6.4966 11.094L12.9313 21.5207ZM12.9313 21.5207L12.7018 20.2718L13.9371 20.7212L14.1529 18.6751L15.4942 17.6469L13.9367 20.6076L15.5465 30.2589L14.1807 25.3787L12.9313 21.5207ZM15.5927 14.3514L6.60826 10.98L5.91852 6.89237L15.5927 14.3514ZM15.5927 14.3514L6.60826 10.98L5.91852 6.89237L15.5927 14.3514ZM15.5927 14.3514L12.2947 3.22997L15.5927 14.3514ZM15.5927 14.3514L12.2947 3.22997L15.5927 14.3514ZM4.52401 22.1237L7.9717 15.292L4.05853 18.0352L6.49613 10.9804L4.52401 22.1237ZM4.52401 22.1237L7.9717 15.292L4.05853 18.0352L6.49613 10.9804L4.52401 22.1237ZM8.155 32.4484L9.55375 18.2396L4.9942 27.3484L8.155 32.4484ZM8.155 32.4484L9.55375 18.2396L4.9942 27.3484L8.155 32.4484ZM13.8858 35.3788L9.66588 18.2392L13.8858 35.3788ZM13.8858 35.3788L9.66588 18.2392L13.8858 35.3788ZM18.4204 20.2481L18.5283 19.225L18.4204 20.2481ZM18.4204 20.2481L18.5283 19.225L18.4204 20.2481ZM16.9566 18.7771L17.9554 16.2732L16.9566 18.7771ZM16.9566 18.7771L17.9554 16.2732L16.9566 18.7771ZM17.9554 16.2732L20.3025 14.4455L24.5492 11.0192L23.109 15.2292L22.1055 16.5969L17.9554 16.2732ZM17.9554 16.2732L20.3025 14.4455L24.5492 11.0192L23.109 15.2292L22.1055 16.5969L17.9554 16.2732ZM20.302 14.3319L17.9648 18.5456L20.302 14.3319ZM20.302 14.3319L17.9648 18.5456L20.302 14.3319ZM19.4116 15.9263L21.2033 15.3507L22.432 14.2094L22.4254 12.6187L19.4116 15.9263ZM19.4116 15.9263L21.2033 15.3507L22.432 14.2094L22.4254 12.6187L19.4116 15.9263ZM18.2013 21.4989L18.4204 20.2481L17.1888 20.7077L16.9566 18.7771L15.6068 17.76L17.1888 20.7077L15.6591 30.372L16.9844 25.4807L18.2013 21.4989ZM18.2013 21.4989L21.4393 18.1903L21.9934 16.5973L20.0905 17.4006L18.4157 19.1119L17.9648 18.5456L17.9549 16.1596L15.4805 14.3519L19.388 10.2452L22.2737 3.07495L24.5488 10.9055L18.2013 21.4989ZM18.2013 21.4989L21.4393 18.1903L21.9934 16.5973L20.0905 17.4006L18.4157 19.1119L17.9648 18.5456L17.9549 16.1596L15.4805 14.3519L19.388 10.2452L22.2737 3.07495L24.5488 10.9055L18.2013 21.4989ZM18.2013 21.4989L18.4204 20.2481L17.1888 20.7077L16.9566 18.7771L15.6068 17.76L17.1888 20.7077L15.6591 30.372L16.9844 25.4807L18.2013 21.4989ZM15.5927 14.3514L24.5488 10.9055L25.092 6.69922L15.5927 14.3514ZM15.5927 14.3514L24.5488 10.9055L25.092 6.69922L15.5927 14.3514ZM15.5927 14.3514L18.7977 3.08937L15.5927 14.3514ZM15.5927 14.3514L18.7977 3.08937L15.5927 14.3514ZM26.6133 22.0321L23.109 15.2292L27.0448 17.9399L24.5488 10.9055L26.6133 22.0321ZM26.6133 22.0321L23.109 15.2292L27.0448 17.9399L24.5488 10.9055L26.6133 22.0321ZM23.0681 32.3865L21.4393 18.1903L26.0743 27.261L23.0681 32.3865ZM23.0681 32.3865L21.4393 18.1903L26.0743 27.261L23.0681 32.3865ZM17.3618 35.3644L21.4393 18.1903L17.3618 35.3644ZM17.3618 35.3644L21.4393 18.1903L17.3618 35.3644ZM8.64023 14.2666L9.87836 15.3977L11.6748 15.9584L10.7711 14.3714L8.63363 12.6759L8.64023 14.2666V14.2666ZM19.4116 15.9263L20.302 14.3319L22.4254 12.6187L22.432 14.2094L21.2033 15.3507L19.4116 15.9263Z" stroke="url(#paint0_linear)" stroke-width="0.5" stroke-miterlimit="10"/>
<defs>
<linearGradient id="paint0_linear" x1="1.41184" y1="19.1792" x2="29.7219" y2="19.0618" gradientUnits="userSpaceOnUse">
<stop stop-color="#C1E5F1"/>
<stop offset="0.5128" stop-color="white" stop-opacity="0.7"/>
<stop offset="1" stop-color="#BBC3F6"/>
</linearGradient>
</defs>
</svg>
