<svg width="27" height="38" viewBox="0 0 27 38" fill="none" xmlns="http://www.w3.org/2000/svg">
<path d="M13.6471 37.2559L1.20553 27.2534L4.25699 14.5179L2.97147 13.8814L3.06515 10.4595L4.34571 9.81305L5.63123 10.4496L6.26779 9.16409L6.25703 6.38417L9.12774 2.20312L13.826 0.58112L18.4302 2.27405L21.3332 6.43277L21.2374 9.32002L21.777 10.601L22.9502 9.848L24.3426 10.4841L24.3559 13.9056L23.2892 14.5512L26.2244 27.0497L13.6471 37.2559Z" fill="#060519"/>
<path d="M7.55765 10.656L9.02227 2.31044" stroke="#D8D8D8" stroke-width="0.5" stroke-miterlimit="10"/>
<path d="M13.6472 9.45631L12.3725 11.5997L7.56107 11.6183L4.25813 14.6249L7.55694 10.5491L13.6472 9.45631Z" stroke="#D8D8D8" stroke-width="0.5" stroke-miterlimit="10"/>
<path d="M12.3797 13.5242L8.21606 15.1442L7.45398 11.6187L7.45025 10.6564L13.633 5.82105L19.7461 10.6089L19.7498 11.5711L19.015 15.1024L14.9458 13.5143" stroke="#D8D8D8" stroke-width="0.5" stroke-miterlimit="10"/>
<path d="M4.18307 23.072L8.21542 15.1442L4.15039 14.6253" stroke="#D8D8D8" stroke-width="0.5" stroke-miterlimit="10"/>
<path d="M9.02136 2.31046L6.15024 6.38459L6.16182 9.37835L4.25753 14.6249L4.28979 22.9646L7.50525 24.9837L9.32454 25.4043L13.0667 25.3899L13.8152 25.387L13.7908 19.0787L11.9661 17.2681L12.4858 13.4169L12.4784 11.4923L13.7614 11.4874" stroke="#D8D8D8" stroke-width="0.5" stroke-miterlimit="10"/>
<path d="M13.6548 11.5947L14.9379 11.5897L14.9453 13.5143L15.4948 17.3613L13.6842 19.186L13.7086 25.4943L14.457 25.4914L18.1992 25.4769L20.0152 25.0422L23.3223 23.1048L23.29 14.7651L21.3452 9.53343L21.3328 6.32583L18.4298 2.16712L13.826 0.581103L9.02127 2.31044L13.6325 5.82101L13.6465 9.45629L14.9379 11.5897L19.7492 11.5711L23.0754 14.552L19.7451 10.5019L13.6461 9.34937" stroke="#D8D8D8" stroke-width="0.5" stroke-miterlimit="10"/>
<path d="M11.8604 17.3754L10.0407 16.8479L9.51684 19.6298L7.50604 24.9837" stroke="#D8D8D8" stroke-width="0.5" stroke-miterlimit="10"/>
<path d="M11.0159 20.1587L13.6847 19.0791" stroke="#D8D8D8" stroke-width="0.5" stroke-miterlimit="10"/>
<path d="M13.722 29.0227L10.3005 29.0359L7.50488 24.9837" stroke="#D8D8D8" stroke-width="0.5" stroke-miterlimit="10"/>
<path d="M23.2158 22.9983L19.1222 15.102L23.1831 14.5516" stroke="#D8D8D8" stroke-width="0.5" stroke-miterlimit="10"/>
<path d="M15.4952 17.3613L17.3108 16.8197L17.8562 19.5976L19.9087 25.0426" stroke="#D8D8D8" stroke-width="0.5" stroke-miterlimit="10"/>
<path d="M16.3605 20.138L13.6834 19.0791L11.0066 18.1272L9.51514 19.5229L11.0145 20.1587" stroke="#D8D8D8" stroke-width="0.5" stroke-miterlimit="10"/>
<path d="M16.3621 20.138L17.8565 19.4906L16.3546 18.2134L13.6849 19.0791" stroke="#D8D8D8" stroke-width="0.5" stroke-miterlimit="10"/>
<path d="M23.1829 14.5516L26.225 27.0497L13.7543 37.1486" stroke="#D8D8D8" stroke-width="0.5" stroke-miterlimit="10"/>
<path d="M13.7227 29.0227L17.1442 29.0094L19.9084 24.9357" stroke="#D8D8D8" stroke-width="0.5" stroke-miterlimit="10"/>
<path d="M21.6705 10.6014L22.951 9.95492L24.3435 10.5911L24.3567 14.0125L23.183 14.6586L24.3435 10.5911" stroke="#D8D8D8" stroke-width="0.5" stroke-miterlimit="10"/>
<path d="M11.008 18.1272L10.0404 16.7409L4.18377 22.965L1.20614 27.1465" stroke="#D8D8D8" stroke-width="0.5" stroke-miterlimit="10"/>
<path d="M5.63277 10.6635L4.45417 10.0265L3.06669 10.6734L3.07993 14.0948L4.25853 14.7318L1.20583 27.1465L13.647 37.0421L5.63277 10.6635ZM13.7539 37.0417L10.3015 29.0359L13.7088 25.3874L17.1443 29.0095L13.7539 37.0417Z" stroke="#D8D8D8" stroke-width="0.5" stroke-miterlimit="10"/>
<path d="M16.3544 18.2134L17.3109 16.7128L23.2155 22.8914L26.2254 27.0497L17.1446 29.0094" stroke="#D8D8D8" stroke-width="0.5" stroke-miterlimit="10"/>
<path d="M9.02246 2.31044L18.3245 2.27446L13.6337 5.82102" stroke="#D8D8D8" stroke-width="0.5" stroke-miterlimit="10"/>
<path d="M6.15039 6.38457L7.55689 10.656" stroke="#D8D8D8" stroke-width="0.5" stroke-miterlimit="10"/>
<path d="M21.2268 6.32624L19.8534 10.6084L18.3242 2.27445" stroke="#D8D8D8" stroke-width="0.5" stroke-miterlimit="10"/>
<path d="M4.15091 14.6253L3.06641 10.6734" stroke="#D8D8D8" stroke-width="0.5" stroke-miterlimit="10"/>
<path d="M1.20605 27.1465L10.3013 28.929" stroke="#D8D8D8" stroke-width="0.5" stroke-miterlimit="10"/>
<path d="M10.0392 16.7409L12.3786 13.4173" stroke="#D8D8D8" stroke-width="0.5" stroke-miterlimit="10"/>
<path d="M17.31 16.7128L14.9453 13.5143" stroke="#D8D8D8" stroke-width="0.5" stroke-miterlimit="10"/>
</svg>
