<svg width="33" height="44" viewBox="0 0 47 44" fill="none" xmlns="http://www.w3.org/2000/svg">
<path d="M11.8519 12.4266L7.29271 9.82137L3.17517 6.3472L1.53173 1.74556L8.03936 6.95166L8.11052 7.00859L8.20162 7.00637L13.5656 6.87554L13.5764 6.87527L13.5871 6.87408L19.4185 6.22614L23.5519 7.647L23.632 7.67451L23.7123 7.64775L27.9748 6.22692L33.8047 7.00425L33.8212 7.00644H33.8378H39.2017H39.2894L39.3579 6.95166L45.8655 1.74555L44.2213 6.34946L40.1046 9.95151L35.5501 12.424L35.0541 12.6932L35.5868 12.8797L38.1532 13.7779L40.166 15.6723L38.9227 17.1415L35.1169 18.537L33.0838 18.2829L32.7887 18.246L32.8031 18.543L33.1956 26.6543L33.1966 26.6757L33.2012 26.6965L34.2205 31.2832L23.9118 43.1382H23.6332H23.3554L13.0478 31.1556L14.1949 26.4397L14.2005 26.4165L14.2017 26.3927L14.5941 18.2814L14.6102 17.9499L14.2872 18.0259L12.137 18.5318L8.08472 17.0122L7.09318 15.8004L9.24353 13.65L11.7997 12.8831L12.3578 12.7157L11.8519 12.4266Z" fill="#070619" stroke="#967F51" stroke-width="0.5"/>
<path d="M46.3961 1L44.6953 6.10228" stroke="#967F51" stroke-width="0.5" stroke-miterlimit="10" stroke-linecap="round" stroke-linejoin="round"/>
<path d="M16.0458 15.5219V12.1204L11.7285 12.5129" stroke="#967F51" stroke-width="0.5" stroke-miterlimit="10" stroke-linecap="round" stroke-linejoin="round"/>
<path d="M23.6334 30.9596L19.7086 29.6513L18.1387 26.2498" stroke="#967F51" stroke-width="0.5" stroke-miterlimit="10" stroke-linecap="round" stroke-linejoin="round"/>
<path d="M18.1378 26.2498L16.9603 23.6332L16.0445 15.5219L14.3438 18.4001" stroke="#967F51" stroke-width="0.5" stroke-miterlimit="10" stroke-linecap="round" stroke-linejoin="round"/>
<path d="M23.6337 37.7626L17.0923 30.6979L15.1299 23.3716L16.0457 15.5219L18.4006 14.737" stroke="#967F51" stroke-width="0.5" stroke-miterlimit="10" stroke-linecap="round" stroke-linejoin="round"/>
<path d="M21.1465 21.1475H23.763" stroke="#967F51" stroke-width="0.5" stroke-miterlimit="10" stroke-linecap="round" stroke-linejoin="round"/>
<path d="M23.6338 29.2588L20.1014 28.4738L18.7931 25.9881L20.8864 21.0166L18.139 14.7369L19.9706 13.8211L23.5029 12.5128L18.2698 12.9053L15.7841 11.9895L15.3916 8.84965L23.5029 7.27972" stroke="#967F51" stroke-width="0.5" stroke-miterlimit="10" stroke-linecap="round" stroke-linejoin="round"/>
<path d="M2.70117 6.10229L8.32677 6.49478" stroke="#967F51" stroke-width="0.5" stroke-miterlimit="10" stroke-linecap="round" stroke-linejoin="round"/>
<path d="M23.6338 12.5129V30.9596" stroke="#967F51" stroke-width="0.5" stroke-miterlimit="10" stroke-linecap="round" stroke-linejoin="round"/>
<path d="M16.0459 12.1204L9.76613 14.6061L7.80371 16.4377" stroke="#967F51" stroke-width="0.5" stroke-miterlimit="10" stroke-linecap="round" stroke-linejoin="round"/>
<path d="M24.1565 43.3882H23.3716L12.9053 31.2212L13.8211 26.9039L14.4753 18.4001L12.2512 18.9234L8.32636 17.4843L6.88725 15.9144L9.24215 13.6903L11.9895 12.7745L7.14891 10.158L2.83159 6.49478L1 1.00002L8.32636 6.75644H13.4286L19.4467 5.97147L23.6332 7.41058L19.4467 5.97147" stroke="#967F51" stroke-width="0.5" stroke-miterlimit="10" stroke-linecap="round" stroke-linejoin="round"/>
<path d="M23.6327 12.5129L15.5214 8.71886L7.01758 9.89631L8.19503 6.49479L15.6522 8.71886" stroke="#967F51" stroke-width="0.5" stroke-miterlimit="10" stroke-linecap="round" stroke-linejoin="round"/>
<path d="M16.0459 15.5219L18.9241 26.2498L23.7647 24.2874" stroke="#967F51" stroke-width="0.5" stroke-miterlimit="10" stroke-linecap="round" stroke-linejoin="round"/>
<path d="M20.2314 28.343L23.633 24.0257" stroke="#967F51" stroke-width="0.5" stroke-miterlimit="10" stroke-linecap="round" stroke-linejoin="round"/>
<path d="M18.6621 13.0362L18.5312 14.6061L23.6335 21.1475" stroke="#967F51" stroke-width="0.5" stroke-miterlimit="10" stroke-linecap="round" stroke-linejoin="round"/>
<path d="M9.50381 14.7369L9.11133 13.4286" stroke="#967F51" stroke-width="0.5" stroke-miterlimit="10" stroke-linecap="round" stroke-linejoin="round"/>
<path d="M19.8382 29.6513L17.3525 30.8287L13.0352 30.9596" stroke="#967F51" stroke-width="0.5" stroke-miterlimit="10" stroke-linecap="round" stroke-linejoin="round"/>
<path d="M16.8303 23.3716L15.1296 23.2407L13.8213 26.6423" stroke="#967F51" stroke-width="0.5" stroke-miterlimit="10" stroke-linecap="round" stroke-linejoin="round"/>
<path d="M31.3525 15.5219V12.1204L35.6699 12.5129" stroke="#967F51" stroke-width="0.5" stroke-miterlimit="10" stroke-linecap="round" stroke-linejoin="round"/>
<path d="M23.6338 30.9596L27.5586 29.6513L29.1286 26.2498" stroke="#967F51" stroke-width="0.5" stroke-miterlimit="10" stroke-linecap="round" stroke-linejoin="round"/>
<path d="M29.2588 26.2498L30.4362 23.6332L31.352 15.5219L33.0528 18.4001" stroke="#967F51" stroke-width="0.5" stroke-miterlimit="10" stroke-linecap="round" stroke-linejoin="round"/>
<path d="M23.6338 37.7626L30.1752 30.6979L32.1376 23.2407L31.2218 15.391L28.8669 14.606" stroke="#967F51" stroke-width="0.5" stroke-miterlimit="10" stroke-linecap="round" stroke-linejoin="round"/>
<path d="M26.2503 21.1475H23.6338" stroke="#967F51" stroke-width="0.5" stroke-miterlimit="10" stroke-linecap="round" stroke-linejoin="round"/>
<path d="M23.7637 29.2588L27.296 28.4738L28.6043 25.9881L26.5111 21.0166L29.2584 14.4752L27.4268 13.8211L23.8945 12.5128L29.1276 12.9053L31.6133 11.9895L32.0058 8.84965L23.8945 7.27972" stroke="#967F51" stroke-width="0.5" stroke-miterlimit="10" stroke-linecap="round" stroke-linejoin="round"/>
<path d="M44.6969 6.10229L39.0713 6.49478" stroke="#967F51" stroke-width="0.5" stroke-miterlimit="10" stroke-linecap="round" stroke-linejoin="round"/>
<path d="M31.3525 12.1204L37.6323 14.6061L39.4639 16.4377" stroke="#967F51" stroke-width="0.5" stroke-miterlimit="10" stroke-linecap="round" stroke-linejoin="round"/>
<path d="M23.2402 43.3882H24.0252L34.4914 31.2212L33.5756 26.9039L32.9215 18.4001L35.1456 18.9234L39.0704 17.4843L40.5095 15.9144L38.1546 13.6903L35.4072 12.7745L40.117 10.2888L44.3035 6.62558L46.1351 1.13081L38.8087 6.88723H33.7065L27.6884 6.10227L23.5019 7.54137L27.6884 6.10227" stroke="#967F51" stroke-width="0.5" stroke-miterlimit="10" stroke-linecap="round" stroke-linejoin="round"/>
<path d="M31.3526 15.5219L28.4744 26.2498L23.6338 24.2874" stroke="#967F51" stroke-width="0.5" stroke-miterlimit="10" stroke-linecap="round" stroke-linejoin="round"/>
<path d="M27.1652 28.343L23.7637 24.0257" stroke="#967F51" stroke-width="0.5" stroke-miterlimit="10" stroke-linecap="round" stroke-linejoin="round"/>
<path d="M28.7351 13.0362L28.866 14.6061L23.7637 21.1475" stroke="#967F51" stroke-width="0.5" stroke-miterlimit="10" stroke-linecap="round" stroke-linejoin="round"/>
<path d="M37.7637 14.7369L38.1562 13.4286" stroke="#967F51" stroke-width="0.5" stroke-miterlimit="10" stroke-linecap="round" stroke-linejoin="round"/>
<path d="M27.5586 29.6513L30.0443 30.8287L34.3616 30.9596" stroke="#967F51" stroke-width="0.5" stroke-miterlimit="10" stroke-linecap="round" stroke-linejoin="round"/>
<path d="M30.5674 23.3716L32.2681 23.2407L33.5764 26.6423" stroke="#967F51" stroke-width="0.5" stroke-miterlimit="10" stroke-linecap="round" stroke-linejoin="round"/>
<path d="M23.6338 7.27975V12.5129L31.7451 8.71886L40.3797 9.89631L39.2023 6.49479L31.7451 8.71886" stroke="#967F51" stroke-width="0.5" stroke-miterlimit="10" stroke-linecap="round" stroke-linejoin="round"/>
<path d="M16.0459 15.5219L19.4474 17.3535L18.4008 14.737L16.0459 15.5219Z" stroke="#967F51" stroke-width="0.5" stroke-miterlimit="10" stroke-linecap="round" stroke-linejoin="round"/>
<path d="M28.9978 14.737L27.9512 17.3535L31.3527 15.6527L28.9978 14.737Z" stroke="#967F51" stroke-width="0.5" stroke-miterlimit="10" stroke-linecap="round" stroke-linejoin="round"/>
</svg>
