<svg width="25" height="36" viewBox="0 0 25 36" fill="none" xmlns="http://www.w3.org/2000/svg">
<path d="M12.3827 35.0759L1.53513 27.1409L2.59109 8.43708L0.383179 4.94192L0.86316 2.29693L1.82312 1.16336L4.895 0.69104L7.10291 2.86371L12.2867 2.01353L17.3745 2.95817L19.7744 0.69104L22.8463 1.0689L23.7103 2.48585L24.0942 5.13084L21.8863 8.72047L22.8463 27.2354L12.3827 35.0759Z" fill="#070618"/>
<path d="M12.2867 1.91907L7.10291 2.76925L4.799 0.69104L1.72713 1.0689L0.86316 2.20246L0.383179 4.94192L2.59109 8.53154L2.01511 16.8444L1.53513 26.952L12.2867 35.0759L6.04695 25.4406L5.37498 19.7728L8.15887 17.4112L9.02284 18.4503L10.0788 16.372L10.7508 15.0496L10.0788 11.1765" stroke="white" stroke-width="0.5" stroke-miterlimit="10" stroke-linejoin="round"/>
<path d="M1.63184 1.0697L4.60772 1.44756L6.14366 3.33684L9.69552 7.8711L5.85567 10.705L2.4958 8.43789L3.45576 6.73754L1.72783 3.90362L2.20781 2.77005L5.66368 3.99808L6.23965 3.24237L7.00762 2.67559" stroke="white" stroke-width="0.5" stroke-miterlimit="10" stroke-linejoin="round"/>
<path d="M12.2883 7.58691L9.9844 7.77584L9.21643 10.1374" stroke="white" stroke-width="0.5" stroke-miterlimit="10" stroke-linejoin="round"/>
<path d="M1.63184 26.7635L6.04766 25.441" stroke="white" stroke-width="0.5" stroke-miterlimit="10" stroke-linejoin="round"/>
<path d="M3.4563 6.73656L4.41626 4.56389L5.66421 4.18604" stroke="white" stroke-width="0.5" stroke-miterlimit="10" stroke-linejoin="round"/>
<path d="M0.383362 5.03621L1.72731 4.18604L4.4152 4.65835" stroke="white" stroke-width="0.5" stroke-miterlimit="10" stroke-linejoin="round"/>
<path d="M5.18439 19.8676L8.83224 20.2454L12.1921 24.3074" stroke="white" stroke-width="0.5" stroke-miterlimit="10" stroke-linejoin="round"/>
<path d="M12.2893 15.7108L11.0414 15.8998L10.5614 15.1441L12.2893 14.5773" stroke="white" stroke-width="0.5" stroke-miterlimit="10" stroke-linejoin="round"/>
<path d="M12.2883 17.8836V19.2061L9.8884 20.2452L9.21643 18.5449L12.2883 17.8836ZM12.2883 17.8836L11.1364 15.8999L10.1764 16.4667L12.2883 17.8836Z" stroke="white" stroke-width="0.5" stroke-miterlimit="10" stroke-linejoin="round"/>
<path d="M9.21643 20.245L12.2883 35.0758" stroke="white" stroke-width="0.5" stroke-miterlimit="10" stroke-linejoin="round"/>
<path d="M12.4794 21.5677L14.3033 21.1899L15.8393 20.2452L16.7032 17.6003L14.7833 11.3656L12.5754 10.3265L10.1755 11.3656L8.25555 17.6003L9.21552 20.2452L10.7515 21.1899L12.4794 21.5677Z" stroke="white" stroke-width="0.5" stroke-miterlimit="10" stroke-linejoin="round"/>
<path d="M22.9438 1.0697L19.9679 1.44756L18.432 3.33684L15.0721 7.77664L18.912 10.6106L22.1759 8.43789L21.2159 6.73754L22.9438 3.90362L22.4638 2.77005L19.008 3.99808L18.336 3.33684L17.568 2.77005" stroke="white" stroke-width="0.5" stroke-miterlimit="10" stroke-linejoin="round"/>
<path d="M17.3733 9.85437L15.6454 10.2322L14.4934 11.2713L18.6212 10.7045L19.1972 19.7731L22.4611 16.8447" stroke="white" stroke-width="0.5" stroke-miterlimit="10" stroke-linejoin="round"/>
<path d="M22.9405 26.7635L18.5247 25.441" stroke="white" stroke-width="0.5" stroke-miterlimit="10" stroke-linejoin="round"/>
<path d="M21.1184 6.73656L20.1584 4.56389L18.9105 4.18604" stroke="white" stroke-width="0.5" stroke-miterlimit="10" stroke-linejoin="round"/>
<path d="M24.2872 5.03621L22.9433 4.18604L20.2554 4.65835" stroke="white" stroke-width="0.5" stroke-miterlimit="10" stroke-linejoin="round"/>
<path d="M18.9105 19.8676L15.4546 20.1509L12.2867 24.3074V35.0762" stroke="white" stroke-width="0.5" stroke-miterlimit="10" stroke-linejoin="round"/>
<path d="M12.2867 15.711L13.5347 15.8999L14.0147 15.1442L12.2867 14.4829V10.2321" stroke="white" stroke-width="0.5" stroke-miterlimit="10" stroke-linejoin="round"/>
<path d="M12.2867 17.8836V19.2061L14.9746 20.3397L15.8386 18.6394L12.2867 17.8836ZM12.2867 17.8836L13.5347 15.8999L14.6866 16.4667L12.2867 17.8836Z" stroke="white" stroke-width="0.5" stroke-miterlimit="10" stroke-linejoin="round"/>
<path d="M15.8386 20.245L12.2867 35.0758" stroke="white" stroke-width="0.5" stroke-miterlimit="10" stroke-linejoin="round"/>
<path d="M9.69649 8.05896L2.59277 8.53128" stroke="white" stroke-width="0.5" stroke-miterlimit="10" stroke-linejoin="round"/>
<path d="M14.592 11.2707L13.92 15.1437L14.592 16.4662L15.648 18.5444L16.5119 17.5053L19.2958 19.8669L18.6238 25.5347L12.3841 35.17L23.1357 27.0461L22.6557 17.033L22.1757 8.62566L24.3836 5.03603L23.9036 2.29658L23.0397 1.16301L19.9678 0.785156L17.6639 2.95783L12.4801 2.10765V7.77549L15.072 7.96441L15.936 10.326" stroke="white" stroke-width="0.5" stroke-miterlimit="10" stroke-linejoin="round"/>
<path d="M5.95215 10.7045L10.08 11.2713L8.92803 10.2322L7.2001 9.85437L5.95215 10.7045ZM5.95215 10.7045L2.1123 16.8447L5.37618 19.7731L5.95215 10.7045Z" stroke="white" stroke-width="0.5" stroke-miterlimit="10" stroke-linejoin="round"/>
<path d="M18.9105 10.7037L22.4623 16.8439" stroke="white" stroke-width="0.5" stroke-miterlimit="10" stroke-linejoin="round"/>
<path d="M22.0786 8.62574L14.8789 8.05896L12.383 10.2316L9.69513 8.05896" stroke="white" stroke-width="0.5" stroke-miterlimit="10" stroke-linejoin="round"/>
<path d="M6.53021 3.2417L12.482 5.41437L18.5297 3.2417" stroke="white" stroke-width="0.5" stroke-miterlimit="10" stroke-linejoin="round"/>
</svg>
