<svg width="20" height="36" viewBox="0 0 20 36" fill="none" xmlns="http://www.w3.org/2000/svg">
<path d="M20 12.9649C20 12.8605 19.9477 12.7677 19.8606 12.7155L17.1138 11.0101C17.0732 10.9869 17.0267 10.9695 16.9861 10.9695L14.8026 10.8013L12.1545 6.92637L9.97096 0.203317C9.93031 0.0757011 9.81417 -0.00550917 9.6806 0.000291558C9.55285 0.00609229 9.44251 0.098904 9.40767 0.220719L7.75261 7.25121H6.39373C6.27758 7.25121 6.17306 7.32082 6.1266 7.43103L4.71545 10.8361L1.4518 11.5205C1.3705 11.5379 1.29501 11.5902 1.25436 11.6656L0.029036 13.922C0.0116144 13.9569 0.0058072 13.9975 0 14.0381C0 14.0497 0 14.0613 0 14.0729C0 14.0903 0 14.1019 0 14.1193L1.95703 23.7833C1.96864 23.8529 2.00929 23.9109 2.06156 23.9573L6.0511 27.0491L8.08943 30.4251L10.5865 35.8314C10.6388 35.9416 10.7491 36.0054 10.8653 35.9996C10.9582 35.9938 11.0337 35.9358 11.0801 35.8604L11.0918 35.8662L14.2044 31.0284L18.0546 25.1175C18.0778 25.0827 18.0894 25.0479 18.0952 25.0072V25.0014L19.9884 12.9997H19.9826C19.9942 12.9939 20 12.9823 20 12.9649ZM14.8432 12.263L12.892 12.6633L11.0337 13.0519L12.6539 11.2131L12.892 10.9405L12.9152 10.9173L12.9617 10.9463L13.4262 11.2711L14.8432 12.263ZM14.0592 10.7374L14.2683 11.0449L14.4135 11.2537L14.0941 11.0275L13.6295 10.7026L13.1185 10.343L12.8397 9.35687L12.6481 8.67239L14.0592 10.7374ZM9.73868 1.36346L11.6144 7.13519L12.5494 10.4532L12.41 10.6098L12.1719 10.8825L11.9338 11.1551L10.3717 12.9301L9.76771 10.9811L9.6748 10.6852L9.58188 10.3894L9.18119 9.10164C9.18119 9.09584 9.17538 9.09584 9.16957 9.09004C9.16376 9.07844 9.16376 9.06104 9.15796 9.04943L8.29849 7.50064L9.73868 1.36346ZM7.81069 7.83128L8.0662 8.29534L7.36353 7.83128H7.81069ZM5.13937 11.3407L5.27294 11.0159L5.4065 10.691L5.76074 9.83833L6.5331 7.9705L7.9849 8.92762L8.3856 9.19445L6.65505 10.43L6.06853 10.8477L5.482 11.2653L5.03484 11.5844L5.13937 11.3407ZM6.89315 10.9753L7.47968 10.5576L7.89779 10.2618L8.73984 9.65851L8.9547 10.343L9.04762 10.6388L9.14053 10.9347L9.84901 13.2202H6.05691L4.88386 12.4081L6.89315 10.9753ZM1.70151 12.06L4.44832 11.4857L4.1115 12.3036C4.05923 12.4313 4.09988 12.5763 4.21603 12.6517L5.8072 13.748C5.85366 13.7828 5.91173 13.8002 5.9698 13.8002H10.2439C10.2613 13.8002 10.2846 13.8002 10.302 13.7944L15.6156 12.6981C15.7085 12.6807 15.7898 12.6111 15.8246 12.5241C15.8595 12.4313 15.8479 12.3326 15.7956 12.2514L15.2207 11.4103L16.8641 11.5379L19.1405 12.9475L16.2021 14.6239L7.08479 15.1054L0.731707 13.8524L1.70151 12.06ZM7.43322 15.6681L16.0453 15.2156L16.7596 19.8968L12.6597 29.3172L9.95935 26.411L7.43322 15.6681ZM9.10569 25.3031L5.52846 20.6451L0.963995 14.4905L6.82346 15.6507L9.10569 25.3031ZM0.83043 15.2794L4.91289 20.7901L2.42741 23.1568L0.83043 15.2794ZM2.68873 23.7021L5.26132 21.2542L9.14053 26.3066L6.35889 26.556L2.68873 23.7021ZM6.75958 27.1013L9.26829 26.8809L8.28107 29.6188L6.75958 27.1013ZM10.8072 34.9149L8.66434 30.2743L9.80836 27.0955L12.4216 29.9089L10.8072 34.9149ZM13.7282 30.7152L11.8177 33.6909L13.0081 29.9959L16.1963 26.9331L13.7282 30.7152ZM13.5947 28.6211L16.9222 20.9757L17.5145 24.8564L13.5947 28.6211ZM17.8223 23.064L16.6086 15.0648L17.4797 14.5659L19.3322 13.5102L17.8223 23.064Z" fill="white"/>
</svg>
