<svg width="21" height="36" viewBox="0 0 21 36" fill="none" xmlns="http://www.w3.org/2000/svg">
<path d="M20.1025 12.9649C20.1025 12.8605 20.0503 12.7677 19.9632 12.7155L17.2164 11.0101C17.1757 10.9869 17.1293 10.9695 17.0886 10.9695L14.9051 10.8013L12.257 6.92637L10.0735 0.203317C10.0329 0.0757011 9.91671 -0.00550917 9.78314 0.000291558C9.65539 0.00609229 9.54505 0.098904 9.51021 0.220719L7.85515 7.25121H6.49627C6.38012 7.25121 6.27559 7.32082 6.22914 7.43103L4.81799 10.8361L1.55434 11.5205C1.47304 11.5379 1.39754 11.5902 1.35689 11.6656L0.131575 13.922C0.114153 13.9569 0.108346 13.9975 0.102539 14.0381C0.102539 14.0497 0.102539 14.0613 0.102539 14.0729C0.102539 14.0903 0.102539 14.1019 0.102539 14.1193L2.05957 23.7833C2.07118 23.8529 2.11183 23.9109 2.1641 23.9573L6.15364 27.0491L8.19197 30.4251L10.6891 35.8314C10.7413 35.9416 10.8517 36.0054 10.9678 35.9996C11.0607 35.9938 11.1362 35.9358 11.1827 35.8604L11.1943 35.8662L14.307 31.0284L18.1571 25.1175C18.1804 25.0827 18.192 25.0479 18.1978 25.0072V25.0014L20.0909 12.9997H20.0851C20.0967 12.9939 20.1025 12.9823 20.1025 12.9649ZM14.9457 12.263L12.9945 12.6633L11.1362 13.0519L12.7564 11.2131L12.9945 10.9405L13.0178 10.9173L13.0642 10.9463L13.5288 11.2711L14.9457 12.263ZM14.1618 10.7374L14.3708 11.0449L14.516 11.2537L14.1966 11.0275L13.732 10.7026L13.221 10.343L12.9423 9.35687L12.7506 8.67239L14.1618 10.7374ZM9.84122 1.36346L11.7169 7.13519L12.6519 10.4532L12.5125 10.6098L12.2744 10.8825L12.0363 11.1551L10.4742 12.9301L9.87025 10.9811L9.77734 10.6852L9.68442 10.3894L9.28372 9.10164C9.28372 9.09584 9.27792 9.09584 9.27211 9.09004C9.2663 9.07844 9.2663 9.06104 9.2605 9.04943L8.40103 7.50064L9.84122 1.36346ZM7.91322 7.83128L8.16874 8.29534L7.46607 7.83128H7.91322ZM5.24191 11.3407L5.37548 11.0159L5.50904 10.691L5.86328 9.83833L6.63564 7.9705L8.08744 8.92762L8.48814 9.19445L6.75759 10.43L6.17106 10.8477L5.58454 11.2653L5.13738 11.5844L5.24191 11.3407ZM6.99569 10.9753L7.58221 10.5576L8.00033 10.2618L8.84238 9.65851L9.05724 10.343L9.15016 10.6388L9.24307 10.9347L9.95155 13.2202H6.15945L4.9864 12.4081L6.99569 10.9753ZM1.80405 12.06L4.55086 11.4857L4.21404 12.3036C4.16177 12.4313 4.20242 12.5763 4.31857 12.6517L5.90974 13.748C5.9562 13.7828 6.01427 13.8002 6.07234 13.8002H10.3464C10.3639 13.8002 10.3871 13.8002 10.4045 13.7944L15.7181 12.6981C15.811 12.6807 15.8923 12.6111 15.9272 12.5241C15.962 12.4313 15.9504 12.3326 15.8981 12.2514L15.3232 11.4103L16.9667 11.5379L19.2431 12.9475L16.3046 14.6239L7.18732 15.1054L0.834246 13.8524L1.80405 12.06ZM7.53576 15.6681L16.1478 15.2156L16.8621 19.8968L12.7622 29.3172L10.0619 26.411L7.53576 15.6681ZM9.20823 25.3031L5.63099 20.6451L1.06653 14.4905L6.926 15.6507L9.20823 25.3031ZM0.932969 15.2794L5.01543 20.7901L2.52995 23.1568L0.932969 15.2794ZM2.79127 23.7021L5.36386 21.2542L9.24307 26.3066L6.46142 26.556L2.79127 23.7021ZM6.86212 27.1013L9.37083 26.8809L8.38361 29.6188L6.86212 27.1013ZM10.9097 34.9149L8.76688 30.2743L9.9109 27.0955L12.5241 29.9089L10.9097 34.9149ZM13.8308 30.7152L11.9202 33.6909L13.1107 29.9959L16.2988 26.9331L13.8308 30.7152ZM13.6972 28.6211L17.0247 20.9757L17.6171 24.8564L13.6972 28.6211ZM17.9248 23.064L16.7111 15.0648L17.5822 14.5659L19.4347 13.5102L17.9248 23.064Z" fill="#070618"/>
</svg>
