<svg width="20" height="20" viewBox="0 0 20 20" fill="none" xmlns="http://www.w3.org/2000/svg">
<path fill-rule="evenodd" clip-rule="evenodd" d="M10 20C15.5228 20 20 15.5228 20 10C20 4.47715 15.5228 0 10 0C4.47715 0 0 4.47715 0 10C0 15.5228 4.47715 20 10 20ZM9.264 7.632C9.448 7.808 9.676 7.896 9.948 7.896C10.22 7.896 10.444 7.808 10.62 7.632C10.804 7.448 10.896 7.22 10.896 6.948C10.896 6.668 10.808 6.44 10.632 6.264C10.456 6.088 10.228 6 9.948 6C9.668 6 9.44 6.088 9.264 6.264C9.088 6.44 9 6.668 9 6.948C9 7.22 9.088 7.448 9.264 7.632ZM9.12 14.724C9.152 14.748 9.188 14.76 9.228 14.76H10.632C10.672 14.76 10.704 14.748 10.728 14.724C10.76 14.692 10.776 14.656 10.776 14.616V8.724C10.776 8.684 10.76 8.652 10.728 8.628C10.704 8.596 10.672 8.58 10.632 8.58H9.228C9.188 8.58 9.152 8.596 9.12 8.628C9.096 8.652 9.084 8.684 9.084 8.724V14.616C9.084 14.656 9.096 14.692 9.12 14.724Z" fill="#22CAFF"/>
</svg>
