<svg width="22" height="19" viewBox="0 0 22 19" fill="none" xmlns="http://www.w3.org/2000/svg">
<path d="M20.918 17L11.392 0.499956C11.3042 0.347949 11.178 0.221722 11.026 0.133962C10.8739 0.0462015 10.7015 0 10.526 0C10.3504 0 10.178 0.0462015 10.026 0.133962C9.87398 0.221722 9.74775 0.347949 9.65997 0.499956L0.133975 17C0.0462074 17.152 0 17.3244 0 17.5C0 17.6755 0.0462029 17.8479 0.133968 17.9999C0.221734 18.152 0.347968 18.2782 0.499984 18.366C0.651999 18.4537 0.82444 18.5 0.999975 18.5H20.052C20.2275 18.5 20.4 18.4537 20.552 18.366C20.704 18.2782 20.8302 18.152 20.918 17.9999C21.0057 17.8479 21.052 17.6755 21.0519 17.5C21.0519 17.3244 21.0057 17.152 20.918 17Z" fill="#F1E26E"/>
<path d="M11.5254 13.5H9.52539V15.5H11.5254V13.5Z" fill="#070618"/>
<path d="M11.5254 6.5H9.52539V11.5H11.5254V6.5Z" fill="#070618"/>
</svg>
