<svg width="15" height="18" viewBox="0 0 15 18" fill="none" xmlns="http://www.w3.org/2000/svg">
<path fill-rule="evenodd" clip-rule="evenodd" d="M13.1592 9.14073C13.1592 7.05684 11.5314 5.41905 9.5878 5.41905L5.28421 5.41905C4.93295 5.41905 4.61574 5.209 4.47863 4.88561C4.34152 4.56222 4.41108 4.18818 4.6553 3.93571L7.9625 0.516723L9.22033 1.73342L7.34798 3.66906L9.5878 3.66906C12.5514 3.66906 14.9092 6.14479 14.9092 9.14073L14.9092 13.375L13.1592 13.375L13.1592 9.14073Z" fill="black"/>
<path fill-rule="evenodd" clip-rule="evenodd" d="M11.3388 13.1144C11.4759 13.4378 11.4063 13.8118 11.1621 14.0643L7.85489 17.4833L6.59707 16.2666L8.46942 14.3309L6.2296 14.3309C3.26595 14.3309 0.908217 11.8552 0.908217 8.85927L0.908217 4.62497L2.65821 4.62497L2.65821 8.85927C2.65821 10.9432 4.286 12.5809 6.2296 12.5809L10.5332 12.5809C10.8844 12.5809 11.2017 12.791 11.3388 13.1144Z" fill="black"/>
</svg>
