<?xml version="1.0" encoding="utf-8"?>
<!-- Generator: Adobe Illustrator 25.4.1, SVG Export Plug-In . SVG Version: 6.00 Build 0)  -->
<svg version="1.1" xmlns="http://www.w3.org/2000/svg" xmlns:xlink="http://www.w3.org/1999/xlink" x="0px" y="0px"
	 viewBox="0 0 318.3 301" style="enable-background:new 0 0 318.3 301;" xml:space="preserve">
<style type="text/css">
	.st0{opacity:0.5;fill:#066055;}
	.st1{fill:#FFFFFF;stroke:#070618;stroke-width:2.0859;stroke-linecap:round;stroke-linejoin:round;stroke-miterlimit:10;}
	.st2{fill:#FFFFFF;stroke:#070618;stroke-width:2.062;stroke-linecap:round;stroke-linejoin:round;stroke-miterlimit:10;}
	.st3{fill:none;stroke:#070618;stroke-width:1.043;stroke-miterlimit:10;}
	.st4{fill:none;stroke:#070618;stroke-width:2.0859;stroke-linecap:round;stroke-linejoin:round;stroke-miterlimit:10;}
	.st5{fill:#070618;}
	.st6{fill:none;stroke:#070618;stroke-width:1.043;stroke-linecap:round;stroke-linejoin:round;stroke-miterlimit:10;}
	.st7{fill:#FFFFFF;stroke:#070618;stroke-width:1.043;stroke-miterlimit:10;}
	.st8{opacity:0.5;fill:#064F48;}
</style>
<g id="tlo">
</g>
<g id="platofrma">
</g>
<g id="jacket">
</g>
<g id="gwaizdy">
</g>
<g id="busd">
</g>
<g id="usdt">
</g>
<g id="obrys_x5F_busd">
</g>
<g id="obrys_x5F_usdt">
</g>
<g id="form">
	<g>
		<g>
			<polygon class="st0" points="209.8,231.8 294.4,301.9 29.4,303.9 119.6,239.3 113.9,234.2 104.6,232.5 100.7,228.5 154.6,223.8 
				148.1,221.1 179.3,219.8 217,225 202.2,228.8"/>
			<polygon class="st1" points="98.9,155.3 91.5,194.5 96.5,200.9 108.7,197.9 108.7,191 102.2,188 112.5,168.2 118.2,157.1 
				130.5,137 121.4,125.5 120.5,111.8 			"/>
			<polygon class="st2" points="210.7,143.2 217.2,179.7 212.2,185.9 200.1,183 200.2,176.2 206.6,173.2 196.4,153.6 185,121 
				190.5,114.6 			"/>
			<polygon class="st1" points="120.6,191 119.6,224.9 115.6,232.9 144.7,231.3 143.9,225.3 150.7,207 165.1,203.6 172.5,227.9 
				198.7,233.4 193.7,217.1 195,202.6 194.3,162.3 184.3,126 117.2,147.9 129,167.1 			"/>
			<polyline class="st3" points="143.6,230.2 139.9,222.4 150.7,207 			"/>
			<polyline class="st4" points="165.5,204.2 165.1,203.6 174.9,203 			"/>
			<polyline class="st3" points="172.4,227.4 176.3,221 165.5,204.2 			"/>
			<g>
				<path class="st1" d="M122.3,45.5c-0.3,0-5.1,3.7-5.1,3.7l2.8,57l13.3,30.7l21.5-11.7l24.1,8.2l11.7-27.5l-0.3-61.4l-3.5-1.7
					l-3.5-0.2l-0.6-6.3L164,25.9l-19,1.2L125.2,39l0.6,6.3L122.3,45.5z"/>
				<path class="st5" d="M149.8,58.3"/>
				<polyline class="st3" points="145,27.1 155.6,39.1 164,25.9 				"/>
				<path class="st3" d="M128.4,70.9"/>
			</g>
			<polygon class="st6" points="122.3,45.5 135.8,55.7 174.7,53 183.4,42.5 			"/>
			<line class="st6" x1="136.3" y1="86" x2="135.8" y2="55.7"/>
			<line class="st6" x1="174.3" y1="53" x2="177" y2="87.3"/>
			<g>
				<path class="st7" d="M141.5,106.1"/>
				<path class="st7" d="M120,106.1"/>
				<path class="st1" d="M113,115.6c-0.5,0-6.7,10.7-6.7,10.7l0.5,8.2l-14,21.9l5.4,0.8l12,13.3l7-0.3l-6.3,45l21.6-8.5l9.2-5
					l59.5-4.2l-4.6-23.8l-2.1-11.2l23.2-5.9l2.2-13.1l-7.5-8.1l-7-7l0.6-7.7l-13.3-13.7l1.8-16l-41.7-7.3l-34.8,7.3l0.9,15.6
					L113,115.6z"/>
				<line class="st1" x1="110.8" y1="215.1" x2="119.2" y2="216.7"/>
				<line class="st1" x1="201" y1="197.3" x2="195" y2="202.6"/>
				<path class="st4" d="M151.8,154.8"/>
				<polyline class="st6" points="135.3,206.4 153.2,104.3 170.6,201.8 				"/>
				<line class="st7" x1="194.1" y1="162.7" x2="189.2" y2="138.1"/>
				<line class="st3" x1="117.1" y1="170.1" x2="121.9" y2="147.9"/>
				<polygon class="st7" points="191.1,113.4 196.7,120.2 204.9,120.9 195.8,110 				"/>
				<polyline class="st4" points="116.1,110.2 115.1,109.6 109.3,115 104.2,125.2 106.3,126.5 				"/>
				<polygon class="st7" points="104.3,124.3 113.9,131.1 120.2,114.3 114.7,109.8 109.3,115 				"/>
				<polygon class="st5" points="200.3,116.3 194.7,115.9 194.6,114.4 200.3,114.9 				"/>
				<polygon class="st5" points="196.5,112.3 197.5,119.4 198.9,119.3 198.1,112.7 				"/>
				<polyline class="st3" points="214.5,139.3 212.2,149.4 192.4,154.9 				"/>
				<polyline class="st3" points="103.5,147.7 112.4,135.1 112.4,130.4 				"/>
				<polyline class="st3" points="212.2,149.4 207.5,136.5 198.8,128.7 196.7,120.2 				"/>
				<polyline class="st3" points="118.3,163.6 103.5,147.7 98.4,149.1 				"/>
				<polyline class="st3" points="121.5,149 121.3,196.5 117,213.2 				"/>
				<polygon class="st5" points="119.6,216.6 120.9,212 141.3,211.9 195.5,199.8 196.2,201.6 200.7,197.7 141.8,201.8 132.6,206.4 
					111.8,214.6 				"/>
			</g>
			<polyline class="st3" points="118.9,106.5 153.2,104.3 191.4,107.7 			"/>
			<path class="st6" d="M174.3,53"/>
		</g>
		<path class="st8" d="M219.6,143.3l-7.5-8.1l-7-7l0.6-7.7l-5.3-5.5l0-0.1l-0.1,0l-2.2-2.2l0,0l0,0l-0.4-0.4l-1.8-2.2l-0.2,0.1
			l-3.3-3.4l1.8-16l-3.6-0.6l-0.2-45.7l-3.5-1.7l-3.5-0.2l-0.6-6.3L164,25.9l-19,1.2L125.2,39l0.6,6.3l-3.6,0.2
			c-0.3,0-5.1,3.7-5.1,3.7l2.1,41.3l-1.5,0.3l0.9,15.6l-2.7,4.5l-0.1-0.1l0.3-0.4l-0.9-0.7l-0.3,0.3l-0.1-0.1l-5.4,5.1l-5,9.3
			l0.2,0.2l-0.4,0.8l2.1,1.3l0.5,8l-14,21.9l5.4,0.8l0.4,0.4l-7,36.9l5.1,6.3l12.2-3l0-6.9l-6.5-3l9.2-17.6l5.8-0.3l-6.3,45l1.2-0.5
			l7.6,1.9l0.3-1.2l-0.3,9.5l-4,8l29.1-1.6l-0.4-3.2l5.6-18.1l16.1-3.6l6.6,21.5l26.2,5.5l-4.9-16.3l1.3-14.5l-0.1-2.7l0.6-0.1
			l0.6,1.9l4.5-3.9l-5.8,0.4l0-0.4l6-0.4l-4.6-23.8l-2.1-11.2l5.9-1.5l6.5,12.4l-6.5,2.9l0,6.9l12.1,2.9l5-6.3l-4-22.2l4.2-1.1
			L219.6,143.3z"/>
	</g>
</g>
<g id="hero">
</g>
<g id="cien">
</g>
</svg>
