<svg width="987" height="376" viewBox="0 0 987 376" fill="none" xmlns="http://www.w3.org/2000/svg" xmlns:xlink="http://www.w3.org/1999/xlink">
<mask id="mask0_377:93988" style="mask-type:alpha" maskUnits="userSpaceOnUse" x="29" y="0" width="920" height="332">
<mask id="mask1_377:93988" style="mask-type:alpha" maskUnits="userSpaceOnUse" x="29" y="0" width="920" height="332">
<path d="M29 10C29 4.47716 33.4772 0 39 0H939C944.523 0 949 4.47715 949 10V322C949 327.523 944.523 332 939 332H39C33.4772 332 29 327.523 29 322V10Z" fill="#C4C4C4"/>
</mask>
<g mask="url(#mask1_377:93988)">
<path d="M959.28 -175H7.03027V454.91H959.28V-175Z" fill="url(#paint0_linear_377:93988)"/>
</g>
</mask>
<g mask="url(#mask0_377:93988)">
<path d="M814.006 77.5354H64.5049V499.137H814.006V77.5354Z" fill="#070618"/>
<path d="M1054 -41H-17V609H1054V-41Z" fill="url(#paint1_radial_377:93988)"/>
<g opacity="0.5">
<path d="M814.006 77.5354H64.5049V499.137H814.006V77.5354Z" fill="#070618"/>
<path d="M1054 -41H-17V609H1054V-41Z" fill="url(#paint2_radial_377:93988)"/>
<path d="M370.824 228.407V227.617L370.217 227.049H369.373L368.766 227.617V228.407L369.373 228.975H370.217L370.824 228.407Z" fill="white"/>
<path d="M768.824 228.407V227.617L768.217 227.049H767.373L766.766 227.617V228.407L767.373 228.975H768.217L768.824 228.407Z" fill="white"/>
<path d="M32.7477 96.0885L31.1925 94.6338H29.0005L27.4453 96.0885V98.139L29.0005 99.5937H31.1925L32.7477 98.139V96.0885Z" fill="white" fill-opacity="0.3"/>
<path d="M429.748 96.0885L428.193 94.6338H426L424.445 96.0885V98.139L426 99.5937H428.193L429.748 98.139V96.0885Z" fill="white" fill-opacity="0.3"/>
<path d="M827.748 96.0885L826.193 94.6338H824L822.445 96.0885V98.139L824 99.5937H826.193L827.748 98.139V96.0885Z" fill="white" fill-opacity="0.3"/>
<path d="M353.984 194.283V193.258L353.199 192.537H352.103L351.333 193.258V194.283L352.103 195.017H353.199L353.984 194.283Z" fill="white"/>
<path d="M751.983 194.283V193.258L751.198 192.537H750.102L749.332 193.258V194.283L750.102 195.017H751.198L751.983 194.283Z" fill="white"/>
<path d="M84.1377 209.398V208.609L83.5452 208.041H82.6862L82.0938 208.609V209.398L82.6862 209.966H83.5452L84.1377 209.398Z" fill="white"/>
<path d="M481.138 209.398V208.609L480.545 208.041H479.686L479.094 208.609V209.398L479.686 209.966H480.545L481.138 209.398Z" fill="white"/>
<path d="M879.138 209.398V208.609L878.545 208.041H877.686L877.094 208.609V209.398L877.686 209.966H878.545L879.138 209.398Z" fill="white"/>
<path d="M266.28 76.8402V75.1776L265.021 74H263.259L262 75.1776V76.8402L263.259 78.0039H265.021L266.28 76.8402Z" fill="white"/>
<path d="M663.28 76.8402V75.1776L662.021 74H660.259L659 75.1776V76.8402L660.259 78.0039H662.021L663.28 76.8402Z" fill="white"/>
<path d="M370.217 110.976V110.172L369.802 109.618H369.195L368.766 110.172V110.976L369.195 111.53H369.802L370.217 110.976Z" fill="white"/>
<path d="M768.217 110.976V110.172L767.802 109.618H767.195L766.766 110.172V110.976L767.195 111.53H767.802L768.217 110.976Z" fill="white"/>
<path d="M353.377 76.8524V75.8272L352.607 75.0929H351.511L350.726 75.8272V76.8524L351.511 77.5728H352.607L353.377 76.8524Z" fill="white"/>
<path d="M751.378 76.8524V75.8272L750.608 75.0929H749.512L748.727 75.8272V76.8524L749.512 77.5728H750.608L751.378 76.8524Z" fill="white"/>
<path d="M55.6941 79.0275L54.139 77.5728H51.9321L50.377 79.0275V81.0779L51.9321 82.5327H54.139L55.6941 81.0779V79.0275Z" fill="white" fill-opacity="0.3"/>
<path d="M452.694 79.0275L451.139 77.5728H448.932L447.377 79.0275V81.0779L448.932 82.5327H451.139L452.694 81.0779V79.0275Z" fill="white" fill-opacity="0.3"/>
<path d="M850.694 79.0275L849.139 77.5728H846.932L845.377 79.0275V81.0779L846.932 82.5327H849.139L850.694 81.0779V79.0275Z" fill="white" fill-opacity="0.3"/>
<path d="M402.594 159.522V158.732L401.987 158.164H401.142L400.535 158.732V159.522L401.142 160.09H401.987L402.594 159.522Z" fill="white" fill-opacity="0.3"/>
<path d="M800.594 159.522V158.732L799.987 158.164H799.142L798.535 158.732V159.522L799.142 160.09H799.987L800.594 159.522Z" fill="white" fill-opacity="0.3"/>
<path d="M352.059 171.839V171.035L351.451 170.481H350.607L350 171.035V171.839L350.607 172.393H351.451L352.059 171.839Z" fill="white"/>
<path d="M750.059 171.839V171.035L749.451 170.481H748.607L748 171.035V171.839L748.607 172.393H749.451L750.059 171.839Z" fill="white"/>
<path d="M221.302 79.4547L219.747 78H217.555L216 79.4547V81.5052L217.555 82.9599H219.747L221.302 81.5052V79.4547Z" fill="white"/>
<path d="M541.302 59.4547L539.747 58H537.555L536 59.4547V61.5052L537.555 62.9599H539.747L541.302 61.5052V59.4547Z" fill="white"/>
<path d="M288.619 96.5673L287.064 95.1265H284.857L283.316 96.5673V98.6316L284.857 100.086H287.064L288.619 98.6316V96.5673Z" fill="white" fill-opacity="0.3"/>
<path d="M793.302 40.4409L791.747 39H789.54L788 40.4409V42.5052L789.54 43.9599H791.747L793.302 42.5052V40.4409Z" fill="white" fill-opacity="0.3"/>
<path d="M239.046 149.214V148.175L238.261 147.455H237.165L236.395 148.175V149.214L237.165 149.935H238.261L239.046 149.214Z" fill="white" fill-opacity="0.3"/>
<path d="M636.046 149.214V148.175L635.261 147.455H634.165L633.395 148.175V149.214L634.165 149.935H635.261L636.046 149.214Z" fill="white" fill-opacity="0.3"/>
<path d="M334 181.911V181.121L333.408 180.553H332.549L331.956 181.121V181.911L332.549 182.479H333.408L334 181.911Z" fill="white"/>
<path d="M731.001 181.911V181.121L730.409 180.553H729.549L728.957 181.121V181.911L729.549 182.479H730.409L731.001 181.911Z" fill="white"/>
<path d="M222.059 180.358V179.554L221.451 179H220.607L220 179.554V180.358L220.607 180.912H221.451L222.059 180.358Z" fill="white"/>
<path d="M619.059 180.358V179.554L618.451 179H617.607L617 179.554V180.358L617.607 180.912H618.451L619.059 180.358Z" fill="white"/>
<path d="M319.302 95.4547L317.747 94H315.555L314 95.4547V97.5052L315.555 98.9599H317.747L319.302 97.5052V95.4547Z" fill="white"/>
<path d="M565.302 159.455L563.747 158H561.555L560 159.455V161.505L561.555 162.96H563.747L565.302 161.505V159.455Z" fill="white"/>
<path d="M321.306 39.7085V38.6833L320.536 37.949H319.44L318.655 38.6833V39.7085L319.44 40.4289H320.536L321.306 39.7085Z" fill="white"/>
<path d="M718.307 39.7085V38.6833L717.537 37.949H716.441L715.656 38.6833V39.7085L716.441 40.4289H717.537L718.307 39.7085Z" fill="white"/>
<path d="M275.037 48.7416V47.7164L274.252 46.996H273.156L272.386 47.7164V48.7416L273.156 49.4759H274.252L275.037 48.7416Z" fill="white"/>
<path d="M672.038 48.7416V47.7164L671.253 46.996H670.157L669.387 47.7164V48.7416L670.157 49.4759H671.253L672.038 48.7416Z" fill="white"/>
<path d="M314.139 52.9949V52.1914L313.546 51.6372H312.687L312.095 52.1914V52.9949L312.687 53.5491H313.546L314.139 52.9949Z" fill="white"/>
<path d="M711.138 52.9949V52.1914L710.545 51.6372H709.686L709.094 52.1914V52.9949L709.686 53.5491H710.545L711.138 52.9949Z" fill="white"/>
<path d="M292.825 158.151V157.347L292.218 156.793H291.374L290.767 157.347V158.151L291.374 158.705H292.218L292.825 158.151Z" fill="white"/>
<path d="M689.824 158.151V157.347L689.217 156.793H688.373L687.766 157.347V158.151L688.373 158.705H689.217L689.824 158.151Z" fill="white"/>
<path d="M254.835 24.3577V23.568L254.228 23H253.384L252.776 23.568V24.3577L253.384 24.9258H254.228L254.835 24.3577Z" fill="white"/>
<path d="M651.834 24.3577V23.568L651.227 23H650.383L649.775 23.568V24.3577L650.383 24.9258H651.227L651.834 24.3577Z" fill="white"/>
<path d="M201.411 41.7867V40.997L200.819 40.429H199.96L199.367 40.997V41.7867L199.96 42.3547H200.819L201.411 41.7867Z" fill="white"/>
<path d="M598.411 41.7867V40.997L597.819 40.429H596.96L596.367 40.997V41.7867L596.96 42.3547H597.819L598.411 41.7867Z" fill="white"/>
<path d="M110.044 82.3577V81.568L109.451 81H108.592L108 81.568V82.3577L108.592 82.9258H109.451L110.044 82.3577Z" fill="white"/>
<path d="M507.044 82.3577V81.568L506.451 81H505.592L505 81.568V82.3577L505.592 82.9258H506.451L507.044 82.3577Z" fill="white"/>
<path d="M905.044 82.3577V81.568L904.451 81H903.592L903 81.568V82.3577L903.592 82.9258H904.451L905.044 82.3577Z" fill="white"/>
<path d="M334 94.7386V93.935L333.408 93.3809H332.549L331.956 93.935V94.7386L332.549 95.2928H333.408L334 94.7386Z" fill="white"/>
<path d="M731.001 94.7386V93.935L730.409 93.3809H729.549L728.957 93.935V94.7386L729.549 95.2928H730.409L731.001 94.7386Z" fill="white"/>
<path d="M293.302 127.455L291.747 126H289.555L288 127.455V129.505L289.555 130.96H291.747L293.302 129.505V127.455Z" fill="white"/>
<path d="M892.302 156.455L890.747 155H888.555L887 156.455V158.505L888.555 159.96H890.747L892.302 158.505V156.455Z" fill="white"/>
<path d="M78.3172 164.455L76.762 163H74.5552L73 164.455V166.519L74.5552 167.974H76.762L78.3172 166.519V164.455Z" fill="white"/>
<path d="M584.317 101.455L582.762 100H580.555L579 101.455V103.519L580.555 104.974H582.762L584.317 103.519V101.455Z" fill="white"/>
<path d="M190.302 151.455L188.747 150H186.555L185 151.455V153.505L186.555 154.96H188.747L190.302 153.505V151.455Z" fill="white"/>
<path d="M539.478 226.495L537.923 225.04H535.731L534.176 226.495V228.545L535.731 230H537.923L539.478 228.545V226.495Z" fill="white"/>
<path d="M331.097 212.155V211.13L330.312 210.396H329.216L328.446 211.13V212.155L329.216 212.876H330.312L331.097 212.155Z" fill="white"/>
<path d="M728.096 212.155V211.13L727.312 210.396H726.215L725.445 211.13V212.155L726.215 212.876H727.312L728.096 212.155Z" fill="white"/>
<path d="M252.805 193.507V192.482L252.035 191.748H250.939L250.154 192.482V193.507L250.939 194.242H252.035L252.805 193.507Z" fill="white"/>
<path d="M649.805 193.507V192.482L649.035 191.748H647.939L647.154 192.482V193.507L647.939 194.242H649.035L649.805 193.507Z" fill="white"/>
<path d="M284.812 221.189V220.163L284.042 219.443H282.946L282.161 220.163V221.189L282.946 221.923H284.042L284.812 221.189Z" fill="white"/>
<path d="M681.813 221.189V220.163L681.043 219.443H679.947L679.162 220.163V221.189L679.947 221.923H681.043L681.813 221.189Z" fill="white"/>
<path d="M323.929 225.442V224.638L323.322 224.084H322.477L321.87 224.638V225.442L322.477 225.996H323.322L323.929 225.442Z" fill="white"/>
<path d="M720.928 225.442V224.638L720.321 224.084H719.476L718.869 224.638V225.442L719.476 225.996H720.321L720.928 225.442Z" fill="white"/>
<path d="M264.61 196.805V196.015L264.018 195.447H263.159L262.566 196.015V196.805L263.159 197.373H264.018L264.61 196.805Z" fill="white"/>
<path d="M661.61 196.805V196.015L661.018 195.447H660.159L659.566 196.015V196.805L660.159 197.373H661.018L661.61 196.805Z" fill="white"/>
<path d="M189.415 214.234V213.444L188.823 212.876H187.964L187.371 213.444V214.234L187.964 214.802H188.823L189.415 214.234Z" fill="white"/>
<path d="M586.415 214.234V213.444L585.823 212.876H584.964L584.371 213.444V214.234L584.964 214.802H585.823L586.415 214.234Z" fill="white"/>
</g>
</g>
<rect x="420" y="11" width="102" height="107" fill="url(#pattern0)"/>
<g filter="url(#filter0_dd_377:93988)">
</g>
<rect x="65" y="37" width="201" height="203" fill="url(#pattern1)"/>
<rect x="65" y="37" width="201" height="203" fill="url(#pattern2)"/>
<rect x="65" y="37" width="201" height="203" fill="url(#pattern3)"/>
<rect x="681" y="31" width="216" height="216" fill="url(#pattern4)"/>
<rect x="681" y="31" width="216" height="216" fill="url(#pattern5)"/>
<rect x="681" y="31" width="216" height="216" fill="url(#pattern6)"/>
<g opacity="0.2" clip-path="url(#clip0_377:93988)">
<path d="M40.0177 272.018C34.4879 272.008 30 276.488 30 282.018V321.992C30 327.518 34.4818 331.997 40.0076 331.992L939.008 331.31C944.527 331.306 949 326.83 949 321.31V283.61C949 278.094 944.534 273.62 939.018 273.61L40.0177 272.018Z" fill="url(#paint3_radial_377:93988)"/>
</g>
<g style="mix-blend-mode:multiply" opacity="0.5">
<path d="M498.594 318.311L555.5 333.5H472H419.5L466.369 319.556L464.334 318.705L461.035 318.423L459.646 317.755L478.89 316.976L476.569 316.531L487.697 316.308L501.146 317.174L495.859 317.808L498.594 318.311Z" fill="#066055"/>
</g>
<path d="M458.985 293.378L456.359 307.492L458.138 309.769L462.432 308.705L462.425 306.208L460.13 305.147L463.768 298.011L465.743 294.04L470.09 286.792L466.871 282.673L466.548 277.731L458.985 293.378Z" fill="white"/>
<path fill-rule="evenodd" clip-rule="evenodd" d="M466.753 277.738C466.923 277.77 467.048 277.908 467.06 278.074L467.388 282.788L470.66 286.722C470.76 286.843 470.771 287.011 470.687 287.143L466.176 294.213L464.127 298.083L460.533 304.711L462.55 305.588C462.687 305.647 462.774 305.778 462.775 305.922L462.782 308.361C462.783 308.531 462.662 308.679 462.49 308.719L458.026 309.759C457.881 309.792 457.73 309.743 457.637 309.631L455.789 307.407C455.719 307.323 455.691 307.214 455.712 307.109L458.441 293.318C458.448 293.285 458.459 293.253 458.474 293.223L466.337 277.935C466.413 277.786 466.584 277.705 466.753 277.738ZM459.181 293.504L456.495 307.08L458.082 308.99L462.018 308.073L462.012 306.16L459.85 305.22C459.754 305.179 459.681 305.101 459.646 305.006C459.612 304.91 459.62 304.805 459.669 304.716L463.449 297.746L463.45 297.743L465.502 293.866C465.506 293.858 465.511 293.849 465.517 293.841L469.896 286.979L466.717 283.156C466.668 283.098 466.639 283.026 466.634 282.952L466.393 279.483L459.181 293.504Z" fill="#070618"/>
<path d="M499.072 289.263L501.474 302.302L499.646 304.538L495.23 303.495L495.233 301.045L497.595 300.001L493.855 292.992L489.705 281.328L491.712 279.038L499.072 289.263Z" fill="white"/>
<path fill-rule="evenodd" clip-rule="evenodd" d="M491.433 278.385C491.549 278.39 491.655 278.448 491.721 278.54L499.023 288.733C499.054 288.776 499.075 288.826 499.085 288.879L501.468 301.877C501.487 301.981 501.459 302.089 501.392 302.171L499.579 304.401C499.488 304.512 499.34 304.562 499.199 304.528L494.817 303.488C494.649 303.448 494.531 303.301 494.531 303.131L494.535 300.688C494.535 300.544 494.621 300.414 494.755 300.355L496.738 299.474L493.21 292.831C493.202 292.815 493.194 292.799 493.188 292.782L489.072 281.155C489.028 281.031 489.054 280.895 489.141 280.796L491.132 278.513C491.207 278.427 491.318 278.38 491.433 278.385ZM489.848 281.113L493.885 292.516L497.583 299.479C497.631 299.569 497.638 299.673 497.605 299.769C497.571 299.864 497.499 299.942 497.406 299.983L495.282 300.926L495.279 302.843L499.143 303.76L500.703 301.843L498.364 289.088L491.387 279.349L489.848 281.113Z" fill="#070618"/>
<path d="M466.642 306.321L466.28 318.468L464.859 321.348L475.156 320.777L474.88 318.619L477.293 312.075L482.395 310.854L485.01 319.567L494.282 321.538L492.543 315.699L493.007 310.48L492.731 296.013L489.205 282.962L465.44 290.82L469.604 297.719L466.642 306.321Z" fill="white"/>
<path fill-rule="evenodd" clip-rule="evenodd" d="M489.679 282.353C489.768 282.401 489.834 282.484 489.86 282.583L493.376 295.603C493.384 295.633 493.388 295.664 493.389 295.694L493.664 310.126C493.665 310.139 493.664 310.153 493.663 310.167L493.207 315.3L494.921 321.056C494.958 321.182 494.927 321.32 494.839 321.417C494.751 321.515 494.619 321.558 494.491 321.531L485.245 319.564C485.113 319.536 485.007 319.437 484.968 319.306L482.461 310.951L477.903 312.042L475.598 318.295L475.862 320.356C475.875 320.46 475.845 320.564 475.78 320.644C475.714 320.724 475.618 320.773 475.516 320.778L465.249 321.348C465.117 321.355 464.992 321.291 464.92 321.18C464.848 321.068 464.84 320.926 464.898 320.807L466.279 318.007L466.637 305.973C466.638 305.935 466.645 305.897 466.657 305.861L469.553 297.448L465.493 290.716C465.434 290.619 465.423 290.499 465.462 290.392C465.501 290.284 465.586 290.201 465.693 290.165L489.39 282.326C489.486 282.294 489.59 282.304 489.679 282.353ZM466.367 290.73L470.274 297.208C470.332 297.304 470.344 297.421 470.308 297.527L467.373 306.053L467.014 318.112C467.013 318.166 467 318.22 466.976 318.268L465.843 320.565L475.078 320.053L474.854 318.3C474.846 318.239 474.853 318.177 474.874 318.12L477.28 311.593C477.323 311.475 477.421 311.388 477.541 311.359L482.629 310.141C482.818 310.096 483.01 310.208 483.067 310.397L485.611 318.876L494.034 320.668L492.479 315.447C492.465 315.401 492.46 315.353 492.465 315.305L492.926 310.12L492.651 295.756L489.25 283.16L466.367 290.73Z" fill="#070618"/>
<path fill-rule="evenodd" clip-rule="evenodd" d="M473.824 317.375L477.936 311.945L477.606 311.731L473.359 317.338L474.829 320.231L475.195 320.072L473.824 317.375Z" fill="#070618"/>
<path fill-rule="evenodd" clip-rule="evenodd" d="M486.434 310.159C486.446 310.389 486.302 310.587 486.112 310.602L483.295 310.82C483.269 310.896 483.224 310.963 483.163 311.011C483.002 311.135 482.789 311.079 482.686 310.886L482.567 310.662C482.5 310.538 482.494 310.381 482.549 310.249C482.604 310.117 482.713 310.031 482.835 310.021L486.067 309.77C486.258 309.755 486.422 309.929 486.434 310.159Z" fill="#070618"/>
<path fill-rule="evenodd" clip-rule="evenodd" d="M482.85 311.077L487.089 317.176L485.55 319.577L485.204 319.387L486.616 317.184L482.512 311.278L482.85 311.077Z" fill="#070618"/>
<path d="M467.316 254.02C467.205 254.02 465.514 255.347 465.514 255.347L466.529 275.845L471.262 286.885L478.929 282.674L487.497 285.633L491.668 275.729L491.557 253.642L490.318 253.038L489.075 252.962L488.851 250.682L482.198 247L475.432 247.417L468.373 251.704L468.601 253.984L467.316 254.02Z" fill="white"/>
<path fill-rule="evenodd" clip-rule="evenodd" d="M482.25 247.001C482.322 246.996 482.393 247.012 482.456 247.045L489.248 250.66C489.358 250.718 489.431 250.826 489.443 250.947L489.64 252.872L490.586 252.927C490.635 252.93 490.684 252.942 490.728 252.963L491.993 253.556C492.124 253.617 492.207 253.745 492.208 253.886L492.321 275.565C492.321 275.615 492.311 275.665 492.291 275.711L488.033 285.432C487.955 285.61 487.749 285.699 487.56 285.636L478.97 282.784L471.289 286.84C471.195 286.889 471.085 286.898 470.984 286.864C470.883 286.831 470.801 286.757 470.759 286.662L465.927 275.826C465.909 275.786 465.898 275.742 465.896 275.698L464.86 255.58C464.854 255.459 464.908 255.344 465.006 255.27L465.239 255.561C465.006 255.27 465.006 255.27 465.006 255.27L465.081 255.213C465.129 255.178 465.197 255.126 465.279 255.065C465.444 254.943 465.664 254.779 465.889 254.615C466.112 254.452 466.342 254.286 466.525 254.161C466.615 254.099 466.698 254.044 466.765 254.003C466.797 253.983 466.832 253.963 466.864 253.946C466.88 253.938 466.902 253.928 466.927 253.918L466.928 253.918C466.943 253.912 466.998 253.892 467.069 253.89C467.072 253.89 467.076 253.89 467.079 253.89V254.259L467.069 253.89L467.973 253.866L468.014 254.26L468.392 254.223L468.381 253.855L467.973 253.866L467.781 252.023C467.766 251.881 467.837 251.743 467.963 251.669L475.169 247.462C475.222 247.432 475.281 247.414 475.342 247.41L482.25 247.001ZM465.629 255.735L466.652 275.595L471.291 285.999L478.754 282.059C478.847 282.009 478.958 282 479.059 282.034L487.472 284.827L491.561 275.493L491.45 254.12L490.465 253.659L489.271 253.589C489.085 253.578 488.934 253.438 488.916 253.257L488.707 251.213L482.187 247.743L475.481 248.141L468.561 252.181L468.77 254.186C468.78 254.288 468.747 254.39 468.677 254.467C468.607 254.544 468.508 254.589 468.402 254.592L467.173 254.625C467.172 254.626 467.171 254.626 467.171 254.626C467.121 254.657 467.051 254.703 466.964 254.763C466.79 254.882 466.567 255.042 466.345 255.205C466.124 255.366 465.906 255.528 465.742 255.65C465.701 255.681 465.662 255.71 465.629 255.735Z" fill="#070618"/>
<path fill-rule="evenodd" clip-rule="evenodd" d="M482.513 247.205L479.322 252.231L475.32 247.656L475.603 247.405L479.274 251.601L482.195 247L482.513 247.205Z" fill="#070618"/>
<path fill-rule="evenodd" clip-rule="evenodd" d="M489.031 252.99C489.064 253.058 489.055 253.139 489.009 253.197L485.925 257.036C485.892 257.076 485.845 257.101 485.794 257.105L471.871 258.115C471.826 258.118 471.781 258.105 471.745 258.077L466.894 254.312C466.832 254.263 466.806 254.18 466.829 254.103C466.852 254.026 466.919 253.972 466.997 253.968L488.856 252.885C488.93 252.881 488.998 252.922 489.031 252.99ZM467.528 254.325L471.914 257.729L485.688 256.729L488.454 253.287L467.528 254.325Z" fill="#070618"/>
<path fill-rule="evenodd" clip-rule="evenodd" d="M472.27 257.462C472.392 257.46 472.492 257.541 472.494 257.643L472.707 268.389C472.709 268.491 472.611 268.575 472.489 268.577C472.368 268.579 472.267 268.497 472.265 268.395L472.053 257.649C472.051 257.547 472.148 257.463 472.27 257.462Z" fill="#070618"/>
<path fill-rule="evenodd" clip-rule="evenodd" d="M485.946 256.808C486.045 256.8 486.132 256.875 486.14 256.976L487.088 269.034C487.096 269.134 487.023 269.222 486.924 269.23C486.825 269.238 486.739 269.163 486.731 269.063L485.782 257.005C485.774 256.904 485.848 256.816 485.946 256.808Z" fill="#070618"/>
<path d="M464.21 279.403C464.043 279.403 461.823 283.215 461.823 283.215L461.991 286.158L457.012 293.994L458.929 294.29L463.196 299.032L465.686 298.907L463.431 315L471.102 311.95L474.359 310.161L495.505 308.649L493.891 300.127L493.13 296.121L501.359 294.015L502.127 289.327L499.453 286.433L496.946 283.93L497.162 281.18L492.44 276.266L493.094 270.544L478.271 267.923L465.892 270.544L466.219 276.113L464.21 279.403Z" fill="white"/>
<path fill-rule="evenodd" clip-rule="evenodd" d="M477.872 267.277C477.918 267.267 477.966 267.267 478.013 267.275L492.807 269.891C493 269.925 493.133 270.105 493.111 270.301L492.478 275.837L497.069 280.614C497.143 280.691 497.181 280.796 497.172 280.903L496.97 283.475L499.35 285.852C499.352 285.854 499.354 285.856 499.356 285.858C499.357 285.859 499.359 285.861 499.36 285.862L502.029 288.75C502.108 288.834 502.142 288.951 502.124 289.064L501.357 293.744C501.333 293.89 501.225 294.008 501.083 294.044L493.208 296.06L493.902 299.713L495.513 308.218C495.533 308.323 495.507 308.431 495.443 308.516C495.378 308.6 495.281 308.653 495.175 308.66L474.151 310.164L470.971 311.91C470.957 311.917 470.943 311.924 470.929 311.929L463.273 314.974C463.151 315.023 463.011 315.002 462.907 314.92C462.804 314.838 462.751 314.706 462.77 314.575L464.957 298.961L462.921 299.063C462.81 299.069 462.702 299.024 462.628 298.941L458.457 294.306L456.674 294.03C456.55 294.011 456.444 293.93 456.392 293.815C456.341 293.7 456.35 293.567 456.418 293.461L461.322 285.742L461.162 282.925C461.158 282.852 461.176 282.779 461.213 282.716L461.533 282.904C461.213 282.716 461.212 282.716 461.213 282.716L461.308 282.551C461.369 282.447 461.457 282.298 461.562 282.119C461.773 281.762 462.056 281.285 462.344 280.808C462.632 280.332 462.927 279.852 463.161 279.49C463.278 279.31 463.383 279.154 463.466 279.041C463.507 278.986 463.548 278.932 463.586 278.89C463.6 278.875 463.618 278.857 463.638 278.838L465.542 275.72L465.223 270.28C465.212 270.096 465.337 269.932 465.517 269.893L477.872 267.277ZM461.909 282.996L462.07 285.82C462.074 285.899 462.054 285.976 462.012 286.042L457.349 293.38L458.7 293.589C458.784 293.602 458.861 293.644 458.918 293.708L463.06 298.309L465.369 298.193C465.479 298.188 465.586 298.232 465.661 298.314C465.736 298.396 465.77 298.508 465.755 298.618L463.593 314.045L470.635 311.244L473.866 309.471C473.913 309.445 473.965 309.43 474.018 309.426L494.706 307.946L493.173 299.853L492.413 295.855C492.377 295.662 492.496 295.472 492.686 295.424L500.664 293.382L501.362 289.124L498.822 286.376L496.325 283.883C496.248 283.805 496.208 283.698 496.216 283.588L496.42 281.011L491.822 276.228C491.745 276.148 491.708 276.037 491.721 275.927L492.334 270.565L477.955 268.022L465.982 270.557L466.29 275.794C466.294 275.87 466.275 275.946 466.236 276.011L464.23 279.295C464.202 279.341 464.164 279.38 464.12 279.41C464.107 279.426 464.088 279.45 464.062 279.485C463.992 279.58 463.897 279.721 463.782 279.897C463.555 280.249 463.265 280.721 462.978 281.195C462.692 281.669 462.41 282.144 462.2 282.5C462.095 282.678 462.008 282.826 461.948 282.93L461.909 282.996Z" fill="#070618"/>
<path fill-rule="evenodd" clip-rule="evenodd" d="M462.906 314.646C462.946 314.446 463.152 314.314 463.364 314.353L466.504 314.922C466.716 314.96 466.855 315.154 466.814 315.354C466.774 315.554 466.568 315.686 466.356 315.647L463.216 315.078C463.004 315.04 462.865 314.846 462.906 314.646Z" fill="#070618"/>
<path fill-rule="evenodd" clip-rule="evenodd" d="M495.504 307.933C495.629 308.087 495.616 308.322 495.475 308.458L493.541 310.33C493.4 310.466 493.185 310.452 493.06 310.298C492.936 310.144 492.949 309.909 493.089 309.773L495.024 307.901C495.165 307.765 495.38 307.779 495.504 307.933Z" fill="#070618"/>
<path fill-rule="evenodd" clip-rule="evenodd" d="M478.343 275.115C478.429 275.115 478.503 275.179 478.518 275.268L484.473 309.888C484.49 309.989 484.426 310.085 484.329 310.102C484.232 310.12 484.14 310.054 484.123 309.953L478.345 276.361L472.406 311.578C472.389 311.678 472.297 311.746 472.2 311.728C472.103 311.71 472.038 311.615 472.055 311.514L478.168 275.268C478.183 275.18 478.256 275.116 478.343 275.115Z" fill="#070618"/>
<path fill-rule="evenodd" clip-rule="evenodd" d="M491.35 287.538L492.975 295.969L492.639 296.038L491.014 287.608L491.35 287.538Z" fill="#070618"/>
<path fill-rule="evenodd" clip-rule="evenodd" d="M467.475 290.884L465.859 298.654L465.514 298.578L467.13 290.808L467.475 290.884Z" fill="#070618"/>
<path d="M491.666 278.303L493.809 280.754L496.897 281L493.468 277.077L491.666 278.303Z" fill="white"/>
<path fill-rule="evenodd" clip-rule="evenodd" d="M493.759 277.077L497.551 281.654L493.964 281.353L491.666 278.579L493.759 277.077ZM492.233 278.652L494.159 280.977L496.657 281.186L493.691 277.606L492.233 278.652Z" fill="#070618"/>
<path fill-rule="evenodd" clip-rule="evenodd" d="M464.506 276.529C464.642 276.401 464.848 276.388 464.999 276.496L465.347 276.746C465.523 276.872 465.565 277.119 465.44 277.297C465.315 277.476 465.07 277.518 464.894 277.391L464.806 277.328L462.922 279.097L461.185 282.583L461.67 282.882C461.854 282.995 461.913 283.239 461.801 283.425C461.688 283.612 461.448 283.671 461.263 283.558L460.469 283.069C460.295 282.962 460.231 282.738 460.323 282.553L462.255 278.677C462.276 278.635 462.304 278.597 462.338 278.565L464.506 276.529Z" fill="#070618"/>
<path d="M460.936 282.405L464.472 284.923L466.82 278.736L464.787 277.077L462.787 278.968L460.936 282.405Z" fill="white"/>
<path fill-rule="evenodd" clip-rule="evenodd" d="M464.72 277.077L466.82 278.808L464.522 284.923L460.936 282.345L462.735 278.972L464.72 277.077ZM464.737 277.554L463.022 279.192L461.397 282.236L464.352 284.361L466.397 278.922L464.737 277.554Z" fill="#070618"/>
<path d="M494.919 279.692L493.019 279.566L492.975 279.038L494.936 279.213L494.919 279.692Z" fill="#070618"/>
<path d="M493.629 278.385L494.177 280.346L494.937 280.327L494.478 278.468L493.629 278.385Z" fill="#070618"/>
<path fill-rule="evenodd" clip-rule="evenodd" d="M499.067 291.07L499.816 287.538L500.166 287.62L499.371 291.371L492.418 293.423L492.32 293.061L499.067 291.07Z" fill="#070618"/>
<path fill-rule="evenodd" clip-rule="evenodd" d="M464.204 284.272L464.188 286.089L460.615 290.808L460.281 290.584L463.779 285.964L463.794 284.269L464.204 284.272Z" fill="#070618"/>
<path fill-rule="evenodd" clip-rule="evenodd" d="M494.723 283.944L493.988 281L493.629 281.089L494.39 284.143L497.49 286.935L499.166 291.462L499.514 291.334L497.806 286.722L494.723 283.944Z" fill="#070618"/>
<path fill-rule="evenodd" clip-rule="evenodd" d="M460.857 290.154L466.167 296.418L465.898 296.692L460.741 290.607L459.073 291.117L458.975 290.729L460.857 290.154Z" fill="#070618"/>
<path fill-rule="evenodd" clip-rule="evenodd" d="M467.024 308.322L467.106 291.462L467.475 291.463L467.393 308.369L465.872 314.346L465.514 314.255L467.024 308.322Z" fill="#070618"/>
<path d="M466.356 315L466.824 313.42L474.182 313.368L493.72 309.163L493.954 309.812L495.589 308.462L474.348 309.871L471.049 311.462L463.551 314.323L466.356 315Z" fill="#070618"/>
<path fill-rule="evenodd" clip-rule="evenodd" d="M478.543 275.115L492.32 276.121L492.286 276.423L478.539 275.42L466.191 276.088L466.166 275.785L478.543 275.115Z" fill="#070618"/>
<g style="mix-blend-mode:multiply" opacity="0.5">
<path d="M502.129 289.171L499.442 286.265L496.922 283.75L497.14 280.988L495.243 279.012V278.972H495.207L494.439 278.175L494.307 278.035L493.646 277.241L493.581 277.284L492.409 276.066L493.067 270.318L491.763 270.088L491.681 253.671L490.437 253.068L489.19 252.992L488.965 250.715L482.276 247L475.487 247.417L468.405 251.699L468.63 253.951L467.34 254.012C467.229 254.012 465.532 255.338 465.532 255.338L466.268 270.16L465.718 270.279L466.046 275.872L465.074 277.478L465.032 277.442L465.128 277.28L464.796 277.047L464.681 277.155L464.656 277.133L462.73 278.972L460.944 282.32L461.022 282.378L460.887 282.651L461.637 283.107L461.801 285.981L456.799 293.852L458.725 294.15L458.861 294.297L456.359 307.56L458.167 309.834L462.52 308.789V306.274L460.186 305.197L463.481 298.899L465.535 298.795L463.27 314.961L463.692 314.796L466.404 315.478L466.525 315.054L466.422 318.453L464.992 321.327L475.376 320.755L475.226 319.595L477.188 313.1L482.951 311.807L485.277 319.566L494.628 321.538L492.874 315.697L493.342 310.474L493.321 309.497L493.521 309.454L493.753 310.125L495.375 308.724L493.31 308.868V308.739L495.454 308.584L493.853 300.02L493.088 295.997L495.186 295.458L497.498 299.912L495.189 300.961V303.426L499.506 304.475L501.292 302.229L499.863 294.265L501.364 293.881L502.129 289.171Z" fill="#064F48"/>
</g>
<defs>
<pattern id="pattern0" patternContentUnits="objectBoundingBox" width="1" height="1">
<use xlink:href="#image0_377:93988" transform="translate(0 -0.00177673) scale(0.000732601)"/>
</pattern>
<filter id="filter0_dd_377:93988" x="267.188" y="119.6" width="418.742" height="108.08" filterUnits="userSpaceOnUse" color-interpolation-filters="sRGB">
<feFlood flood-opacity="0" result="BackgroundImageFix"/>
<feColorMatrix in="SourceAlpha" type="matrix" values="0 0 0 0 0 0 0 0 0 0 0 0 0 0 0 0 0 0 127 0" result="hardAlpha"/>
<feOffset/>
<feGaussianBlur stdDeviation="4"/>
<feColorMatrix type="matrix" values="0 0 0 0 0.6 0 0 0 0 1 0 0 0 0 0.801575 0 0 0 1 0"/>
<feBlend mode="normal" in2="BackgroundImageFix" result="effect1_dropShadow_377:93988"/>
<feColorMatrix in="SourceAlpha" type="matrix" values="0 0 0 0 0 0 0 0 0 0 0 0 0 0 0 0 0 0 127 0" result="hardAlpha"/>
<feOffset/>
<feGaussianBlur stdDeviation="9"/>
<feColorMatrix type="matrix" values="0 0 0 0 0.6 0 0 0 0 1 0 0 0 0 0.801575 0 0 0 1 0"/>
<feBlend mode="normal" in2="effect1_dropShadow_377:93988" result="effect2_dropShadow_377:93988"/>
<feBlend mode="normal" in="SourceGraphic" in2="effect2_dropShadow_377:93988" result="shape"/>
</filter>
<pattern id="pattern1" patternContentUnits="objectBoundingBox" width="1" height="1">
<use xlink:href="#image1_377:93988" transform="translate(-0.00134221) scale(0.000908229)"/>
</pattern>
<pattern id="pattern2" patternContentUnits="objectBoundingBox" width="1" height="1">
<use xlink:href="#image1_377:93988" transform="translate(-0.00134221) scale(0.000908229)"/>
</pattern>
<pattern id="pattern3" patternContentUnits="objectBoundingBox" width="1" height="1">
<use xlink:href="#image1_377:93988" transform="translate(-0.00134221) scale(0.000908229)"/>
</pattern>
<pattern id="pattern4" patternContentUnits="objectBoundingBox" width="1" height="1">
<use xlink:href="#image2_377:93988" transform="translate(0 -0.00210615) scale(0.00084246)"/>
</pattern>
<pattern id="pattern5" patternContentUnits="objectBoundingBox" width="1" height="1">
<use xlink:href="#image2_377:93988" transform="translate(0 -0.00210615) scale(0.00084246)"/>
</pattern>
<pattern id="pattern6" patternContentUnits="objectBoundingBox" width="1" height="1">
<use xlink:href="#image2_377:93988" transform="translate(0 -0.00210615) scale(0.00084246)"/>
</pattern>
<linearGradient id="paint0_linear_377:93988" x1="483.15" y1="454.91" x2="483.15" y2="-175" gradientUnits="userSpaceOnUse">
<stop stop-color="#08061A"/>
<stop offset="0.2" stop-color="#044551"/>
<stop offset="0.36" stop-color="#007A7F"/>
<stop offset="0.61" stop-color="#96FAC9"/>
<stop offset="0.69" stop-color="#99FFCC"/>
<stop offset="0.76" stop-color="#99FFCC"/>
</linearGradient>
<radialGradient id="paint1_radial_377:93988" cx="0" cy="0" r="1" gradientUnits="userSpaceOnUse" gradientTransform="translate(417.111 -128.1) scale(725.191 660.186)">
<stop stop-color="#172D3A"/>
<stop offset="0.09" stop-color="#142936"/>
<stop offset="0.63" stop-color="#051923"/>
<stop offset="1" stop-color="#00131C"/>
</radialGradient>
<radialGradient id="paint2_radial_377:93988" cx="0" cy="0" r="1" gradientUnits="userSpaceOnUse" gradientTransform="translate(417.111 -128.1) scale(725.191 660.186)">
<stop stop-color="#172D3A"/>
<stop offset="0.09" stop-color="#142936"/>
<stop offset="0.63" stop-color="#051923"/>
<stop offset="1" stop-color="#00131C"/>
</radialGradient>
<radialGradient id="paint3_radial_377:93988" cx="0" cy="0" r="1" gradientUnits="userSpaceOnUse" gradientTransform="translate(493.682 301.952) scale(349.972 290.019)">
<stop stop-color="#00EFD9"/>
<stop offset="1" stop-color="#006A63"/>
</radialGradient>
<clipPath id="clip0_377:93988">
<rect width="987" height="97" fill="white" transform="translate(0 279)"/>
</clipPath>
</defs>
</svg>
