<svg id="Layer_1" data-name="Layer 1" xmlns="http://www.w3.org/2000/svg" xmlns:xlink="http://www.w3.org/1999/xlink" viewBox="0 0 381 299"><defs><style>.cls-1,.cls-2,.cls-7{fill:none;}.cls-2{stroke:#9fc;}.cls-14,.cls-3{fill:#fff;}.cls-4{fill:#070618;}.cls-5{fill:#08061a;}.cls-6{fill:#95ffcb;}.cls-7{stroke:#fff;stroke-width:0.4px;}.cls-8{fill:#07130f;}.cls-10,.cls-11,.cls-18,.cls-8,.cls-9{isolation:isolate;}.cls-10,.cls-11,.cls-8,.cls-9{opacity:0.8;}.cls-9{fill:#1f2a26;}.cls-10{fill:#030f0b;}.cls-11{fill:#0b1713;}.cls-12{fill:#f0b90b;}.cls-13{fill:#50af95;}.cls-13,.cls-14{fill-rule:evenodd;}.cls-15{clip-path:url(#clip-path);}.cls-16{fill:url(#linear-gradient);}.cls-17{opacity:0.2;}.cls-18{fill:#9fc;opacity:0.4;}</style><clipPath id="clip-path"><path class="cls-1" d="M9.5,0h362A9.5,9.5,0,0,1,381,9.5v280a9.5,9.5,0,0,1-9.5,9.5H9.5A9.5,9.5,0,0,1,0,289.5V9.5A9.5,9.5,0,0,1,9.5,0Z"/></clipPath><linearGradient id="linear-gradient" x1="-331.9" y1="477.56" x2="-331.9" y2="220.65" gradientTransform="matrix(1, 0, 0, -1, 564, 558.89)" gradientUnits="userSpaceOnUse"><stop offset="0.14" stop-color="#9fc" stop-opacity="0"/><stop offset="0.25" stop-color="#9fc" stop-opacity="0.08"/><stop offset="0.48" stop-color="#9fc" stop-opacity="0.28"/><stop offset="0.8" stop-color="#9fc" stop-opacity="0.59"/><stop offset="1" stop-color="#9fc"/></linearGradient></defs><path class="cls-2" d="M9.5,0h362A9.5,9.5,0,0,1,381,9.5v280a9.5,9.5,0,0,1-9.5,9.5H9.5A9.5,9.5,0,0,1,0,289.5V9.5A9.5,9.5,0,0,1,9.5,0Z"/><path class="cls-3" d="M214.26,148l13.4,16.28,5-2.48,12.13-3.19,4.63-6.73h5l.35-10.62-7.46-12.45-6.72-4.72-16.81,17.79Z"/><path class="cls-4" d="M227.66,164.88a.53.53,0,0,1-.24-.06.75.75,0,0,1-.2-.15l-13.41-16.28a.53.53,0,0,1-.11-.21.61.61,0,0,1,.07-.46.85.85,0,0,1,.17-.16l9.47-6.08,16.76-17.75a.58.58,0,0,1,.75-.08l6.72,4.73a.91.91,0,0,1,.17.17L255.28,141a.65.65,0,0,1,.08.31L255,151.93a.56.56,0,0,1-.17.39.59.59,0,0,1-.4.16h-4.69L245.27,159a.6.6,0,0,1-.33.23l-12.07,3.17-4.94,2.45A.6.6,0,0,1,227.66,164.88Zm-12.55-16.72,12.71,15.43,4.58-2.27.11,0,11.93-3.14,4.51-6.55a.53.53,0,0,1,.21-.18.59.59,0,0,1,.26-.07h4.43l.34-9.9-7.32-12.2-6.23-4.37L224.17,142.3a.28.28,0,0,1-.1.09Z"/><path class="cls-4" d="M232.27,154.41h0a.31.31,0,0,1-.2-.11.28.28,0,0,1-.06-.2l.46-4.06-2.18-5.12-5.41-2.82a.33.33,0,0,1-.13-.13.29.29,0,0,1,0-.18.42.42,0,0,1,.09-.16.3.3,0,0,1,.16-.08l4.25-.6a.28.28,0,0,1,.2,0l6.44,3.89.1.1a.37.37,0,0,1,0,.14l.09,5.72a.35.35,0,0,1-.08.22.31.31,0,0,1-.21.09.31.31,0,0,1-.31-.28l-.09-5.57-6.23-3.75-3.25.46,4.71,2.45a.27.27,0,0,1,.13.15l2.25,5.28a.39.39,0,0,1,0,.15l-.48,4.14a.24.24,0,0,1-.09.15.3.3,0,0,1-.16.08Z"/><path class="cls-3" d="M215.24,149.13l2.52-.55,3.92,1.94-1.4.56L220,153l3.64.55,3.08-2.22v-1.12l-2.8-5.56,1.12-5.56L222,133.28l-2.8-.55-.56,1.11,2.52,6.11L220,143.57l-2.52-5.84-4.21-.55-.84.83v1.39l3.36.83.84,3.06-1.95-1.11H213L210.47,145l-.28,2.78h2.52l1.12-.83Z"/><path class="cls-4" d="M223.65,154h-.07l-3.65-.56a.48.48,0,0,1-.29-.17.44.44,0,0,1-.08-.33l.28-1.95a.4.4,0,0,1,.09-.21.38.38,0,0,1,.19-.14l.47-.19-2.88-1.43-2.37.52a.49.49,0,0,1-.27,0,.46.46,0,0,1-.21-.18l-1.14-1.81-.73.54a.44.44,0,0,1-.27.09H210.2a.52.52,0,0,1-.18,0,.91.91,0,0,1-.16-.11.51.51,0,0,1-.09-.16.41.41,0,0,1,0-.19l.28-2.78a.47.47,0,0,1,.11-.26l2.53-2.78a.42.42,0,0,1,.15-.11.37.37,0,0,1,.18,0h1.68a.46.46,0,0,1,.23.06l1,.58-.48-1.77-3.12-.77a.43.43,0,0,1-.24-.16.45.45,0,0,1-.1-.27V138a.45.45,0,0,1,.14-.31l.84-.84a.48.48,0,0,1,.17-.1.46.46,0,0,1,.2,0l4.21.55a.43.43,0,0,1,.21.09.49.49,0,0,1,.14.18l2,4.72.71-2.3-2.46-6a.45.45,0,0,1,0-.37l.56-1.11a.45.45,0,0,1,.21-.2.46.46,0,0,1,.28,0l2.81.56a.48.48,0,0,1,.18.08.47.47,0,0,1,.13.15l3.08,5.84a.42.42,0,0,1,0,.29l-1.09,5.41,2.74,5.43a.45.45,0,0,1,0,.2v1.11a.35.35,0,0,1,0,.2.42.42,0,0,1-.13.16L223.9,154a.46.46,0,0,1-.25.08Zm-3.14-1.38,3,.46,2.74-2v-.78l-2.75-5.47a.42.42,0,0,1,0-.29l1.09-5.41-2.91-5.51-2.25-.44-.32.61,2.45,5.93a.55.55,0,0,1,0,.31l-1.12,3.62a.48.48,0,0,1-.16.22.54.54,0,0,1-.25.09.48.48,0,0,1-.26-.07.49.49,0,0,1-.18-.2l-2.42-5.61-3.73-.49-.55.55v.86l3,.75a.45.45,0,0,1,.19.11.37.37,0,0,1,.12.2l.84,3a.46.46,0,0,1,0,.26.42.42,0,0,1-.15.22.5.5,0,0,1-.24.09.48.48,0,0,1-.26-.06l-1.87-1h-1.36l-2.29,2.52-.21,2.14h1.86l1-.74a.53.53,0,0,1,.17-.08.6.6,0,0,1,.19,0,.36.36,0,0,1,.17.07.44.44,0,0,1,.14.13l1.24,2,2.21-.49a.41.41,0,0,1,.31,0l3.93,2a.42.42,0,0,1,.18.17.37.37,0,0,1,.06.25.43.43,0,0,1-.08.24.53.53,0,0,1-.2.16l-1.16.45Z"/><path class="cls-4" d="M225,142.11a.31.31,0,0,1-.13,0l-.1-.07a.33.33,0,0,1,0-.22.26.26,0,0,1,.1-.19l10.83-8.81.09,0,11.48-4.17.12,0,.11,0,.1.07a.21.21,0,0,1,.06.1.23.23,0,0,1,0,.11.27.27,0,0,1,0,.12.31.31,0,0,1-.07.09.24.24,0,0,1-.11.06L236,133.27l-10.79,8.78A.33.33,0,0,1,225,142.11Z"/><path class="cls-4" d="M223.25,150.8l-1.58-.14,0-.28,1.49.14.71-.47L222.2,146l1.15-6.68-2.19-4.63-2.6-.68.07-.27,2.73.72,2.28,4.82v0l-1.15,6.65,1.74,4.23Z"/><path class="cls-4" d="M215.66,140.28l-.45-1.36,2.19-1.31.15.24-2,1.19.39,1.15Z"/><path class="cls-4" d="M212.84,147.8l-.25-.12,1.7-3.38,2.28-1.13.13.25-2.2,1.09Z"/><path class="cls-4" d="M250.57,141.86l-1.32,10,.35.05,1.32-10Z"/><path class="cls-4" d="M232.77,162l-.23-.28,8.92-7.34,8.9-12,.29.21-9,12.07Z"/><path class="cls-3" d="M216.62,107.39l.43,2.38Z"/><path class="cls-3" d="M345.69,146.49l-13.41,16.27-5-2.48-12.13-3.19-4.64-6.72h-5l-.36-10.63,7.46-12.44,6.73-4.73,16.81,17.8Z"/><path class="cls-4" d="M332.28,163.33a.51.51,0,0,1-.25-.06l-4.95-2.45L315,157.65a.64.64,0,0,1-.33-.23l-4.46-6.49h-4.69a.58.58,0,0,1-.4-.16.59.59,0,0,1-.18-.39l-.34-10.61a.65.65,0,0,1,.08-.31L312.16,127a.65.65,0,0,1,.16-.17l6.72-4.73a.62.62,0,0,1,.39-.1.54.54,0,0,1,.36.18l16.76,17.74L346,146a.55.55,0,0,1,.17.17.85.85,0,0,1,.09.22.65.65,0,0,1,0,.24.53.53,0,0,1-.11.21l-13.41,16.27a.45.45,0,0,1-.2.16.58.58,0,0,1-.26.05Zm-16.77-6.73,11.92,3.13.11,0,4.59,2.28,12.71-15.43-9-5.77-.11-.09-16.47-17.44-6.23,4.37-7.32,12.2.34,9.91h4.46a.58.58,0,0,1,.26.06.55.55,0,0,1,.21.19Z"/><path class="cls-4" d="M327.68,152.86a.31.31,0,0,1-.2-.07.31.31,0,0,1-.09-.18l-.48-4.14a.39.39,0,0,1,0-.15l2.24-5.28a.29.29,0,0,1,.14-.15l4.71-2.45-3.25-.47-6.23,3.76-.09,5.56a.35.35,0,0,1-.1.21.32.32,0,0,1-.21.08l-.12,0-.09-.06a.27.27,0,0,1-.06-.1.5.5,0,0,1,0-.12l.09-5.72a.33.33,0,0,1,0-.14.52.52,0,0,1,.1-.11l6.45-3.89a.3.3,0,0,1,.19,0L335,140a.28.28,0,0,1,.17.07.35.35,0,0,1,.08.16.27.27,0,0,1,0,.18.33.33,0,0,1-.13.13l-5.4,2.85-2.18,5.12.47,4.06a.31.31,0,0,1-.07.21.27.27,0,0,1-.19.1Z"/><path class="cls-3" d="M344.71,147.59l-2.52-.56L338.27,149l1.4.55.28,1.95-3.64.56-3.08-2.23V148.7l2.79-5.56-1.12-5.57,3.09-5.83,2.8-.56.56,1.11-2.52,6.12L340,142l2.52-5.84,4.2-.56.84.83v1.39l-3.36.84-.84,3.06,2-1.12H347l2.52,2.79.28,2.78h-2.52l-1.12-.84Z"/><path class="cls-4" d="M336.31,152.48a.43.43,0,0,1-.27-.08L333,150.17a.4.4,0,0,1-.14-.15.54.54,0,0,1-.05-.21V148.7a.46.46,0,0,1,.05-.2l2.73-5.42-1.09-5.41a.45.45,0,0,1,.05-.3l3.08-5.84a.44.44,0,0,1,.12-.15.46.46,0,0,1,.19-.08l2.8-.56a.52.52,0,0,1,.28,0,.51.51,0,0,1,.21.2l.56,1.12a.42.42,0,0,1,0,.36l-2.46,6,.71,2.3,2-4.72a.49.49,0,0,1,.14-.18.54.54,0,0,1,.21-.08l4.2-.56a.5.5,0,0,1,.21,0,.45.45,0,0,1,.17.11l.84.83a.5.5,0,0,1,.14.31v1.39a.56.56,0,0,1-.1.28.46.46,0,0,1-.25.15l-3.11.77-.49,1.77,1-.58a.79.79,0,0,1,.22-.06h1.68a.58.58,0,0,1,.19,0,.83.83,0,0,1,.15.11l2.52,2.78a.54.54,0,0,1,.11.26l.28,2.78a.4.4,0,0,1,0,.19.51.51,0,0,1-.09.16.58.58,0,0,1-.15.11l-.18,0h-2.53a.46.46,0,0,1-.27-.09l-.73-.54-1.1,1.82a.51.51,0,0,1-.21.17.42.42,0,0,1-.27,0l-2.36-.53-2.88,1.43.47.19a.49.49,0,0,1,.18.14.4.4,0,0,1,.09.21l.28,1.95a.43.43,0,0,1-.08.33.44.44,0,0,1-.29.17l-3.65.56Zm-2.64-2.89,2.75,2,3-.46-.18-1.26-1.16-.45a.53.53,0,0,1-.2-.16.43.43,0,0,1-.08-.24.54.54,0,0,1,.06-.25.45.45,0,0,1,.19-.17l3.92-2a.41.41,0,0,1,.31,0l2.21.48,1.25-2a.3.3,0,0,1,.12-.13.41.41,0,0,1,.17-.07.41.41,0,0,1,.19,0,.38.38,0,0,1,.17.08l1,.74h1.86l-.21-2.14-2.29-2.53H345.4l-1.86,1.06a.58.58,0,0,1-.26.06.46.46,0,0,1-.25-.1.41.41,0,0,1-.15-.21.46.46,0,0,1,0-.26l.84-3.06a.45.45,0,0,1,.11-.19.59.59,0,0,1,.2-.12l3-.75v-.85l-.55-.55-3.74.49-2.42,5.61a.43.43,0,0,1-.17.21.49.49,0,0,1-.27.06.58.58,0,0,1-.25-.09.54.54,0,0,1-.15-.22l-1.12-3.62a.42.42,0,0,1,0-.31l2.44-5.93-.31-.61-2.25.44-2.91,5.52,1.09,5.4a.42.42,0,0,1,0,.29l-2.75,5.47Z"/><path class="cls-4" d="M335,140.57a.34.34,0,0,1-.19-.07L324,131.73l-11.43-4.16-.11,0-.08-.09a.27.27,0,0,1,0-.12.25.25,0,0,1,0-.12.21.21,0,0,1,.06-.1l.1-.07.12,0a.27.27,0,0,1,.12,0l11.49,4.17.09.05,10.83,8.8a.31.31,0,0,1,.11.2.27.27,0,0,1-.07.21.25.25,0,0,1-.1.08.31.31,0,0,1-.13,0Z"/><path class="cls-4" d="M336.69,149.26l-1-.65,1.74-4.22-1.15-6.69,0,0,2.27-4.79,2.72-.71.07.27-2.59.68-2.2,4.63,1.15,6.68-1.68,4.09.7.46,1.49-.13,0,.28Z"/><path class="cls-3" d="M302.32,116.73h3.92L321.58,122l-14.81,20-3.21,28-6.42,1.06-7.49,18.06-2.85.36L280.37,210h-1.06l-6.43-20.53-2.85-.36-7.49-18.06L256.12,170l-3.21-28-16.5-18.15,17.92-8.05Z"/><path class="cls-4" d="M280.38,210.6h-1.07a.58.58,0,0,1-.34-.11.56.56,0,0,1-.21-.29L272.45,190l-2.49-.31a.7.7,0,0,1-.28-.12.58.58,0,0,1-.18-.23l-7.37-17.77-6.1-1a.59.59,0,0,1-.32-.17.5.5,0,0,1-.15-.32l-3.19-27.79-16.38-18a.57.57,0,0,1-.12-.23.5.5,0,0,1,0-.27.7.7,0,0,1,.11-.23.55.55,0,0,1,.2-.17l17.92-8.05a.53.53,0,0,1,.25,0l48,.9h3.92a.43.43,0,0,1,.19,0l15.34,5.31a.52.52,0,0,1,.22.14.64.64,0,0,1,.14.22.62.62,0,0,1,0,.27.51.51,0,0,1-.1.24l-14.71,19.89-3.2,27.81a.51.51,0,0,1-.15.33.59.59,0,0,1-.32.17l-6.11,1-7.37,17.77a.58.58,0,0,1-.18.23.7.7,0,0,1-.28.12l-2.49.3-6.31,20.19a.54.54,0,0,1-.21.28.55.55,0,0,1-.33.11Zm-.65-1.14H280l6.29-20.13a.5.5,0,0,1,.18-.27.55.55,0,0,1,.29-.13l2.53-.31,7.37-17.74a.58.58,0,0,1,.18-.23.47.47,0,0,1,.26-.11l6-1L306.21,142a.63.63,0,0,1,.1-.27l14.35-19.39-14.52-5h-3.83l-47.86-.88-17.09,7.68,16,17.57a.64.64,0,0,1,.15.31l3.18,27.54,6,1a.57.57,0,0,1,.26.12.58.58,0,0,1,.18.23l7.36,17.75,2.52.31a.54.54,0,0,1,.3.13.58.58,0,0,1,.18.26Z"/><path class="cls-4" d="M280.74,174.56h-.06l-18.19-3.19.1-.56L280.73,174l16.36-3.18.11.56Z"/><path class="cls-5" d="M289.29,188.79l-9.27.71-10-1.07,3.57,1.77,6.77,1.77,6.41-1.52Z"/><path class="cls-5" d="M263.56,172.5l16.81,3.89,16.21-4.12.92-1.9-17.13,3.9-18.54-3.9Z"/><path class="cls-5" d="M267.18,95.66l2.14,26.91,10.34,6.73,17-9.13-3.09-14.6V93.18L280.73,85Z"/><path class="cls-3" d="M269.85,107.88,272.76,122l6.9,4.11,9.75-4.76,2.37-13.3-12.16-2.79Z"/><path class="cls-4" d="M279.66,126.68a.52.52,0,0,1-.31-.08l-6.9-4.11a.66.66,0,0,1-.17-.16.47.47,0,0,1-.09-.22L269.28,108a.54.54,0,0,1,.07-.41.61.61,0,0,1,.34-.25l9.77-2.62a.66.66,0,0,1,.28,0l12.14,2.78a.58.58,0,0,1,.44.66l-2.38,13.29a.58.58,0,0,1-.11.24.55.55,0,0,1-.2.17l-9.74,4.76a.62.62,0,0,1-.23.07Zm-6.39-5,6.43,3.83,9.2-4.5,2.23-12.49-11.49-2.63-9.11,2.44Z"/><path class="cls-3" d="M302.49,117l-7.65-8.45L297,93.39l-4.25-8.45-11.8-4.33-12.44,4.33-4.26,8.45,1.7,12.66-7.65,9.71,16.16,9.29-5.53-27,11.48-8,11.23,8.74-5,26.2Z"/><path class="cls-4" d="M274.42,125.62a.6.6,0,0,1-.29-.08L258,116.26a.58.58,0,0,1-.18-.17.54.54,0,0,1-.09-.22.53.53,0,0,1,.11-.46l7.51-9.52-1.67-12.43a.54.54,0,0,1,.05-.33L268,84.69a.54.54,0,0,1,.31-.28l12.45-4.33a.53.53,0,0,1,.39,0l11.8,4.33a.54.54,0,0,1,.31.28l4.26,8.44a.54.54,0,0,1,0,.33l-2.09,14.94,7.48,8.25a.48.48,0,0,1,.12.22.46.46,0,0,1,0,.26.51.51,0,0,1-.1.24.68.68,0,0,1-.21.17l-15.88,7.91a.63.63,0,0,1-.31,0,.57.57,0,0,1-.29-.11.53.53,0,0,1-.19-.25.55.55,0,0,1,0-.31L291,99,280.36,90.7l-10.83,7.57L275,124.92a.53.53,0,0,1,0,.25.57.57,0,0,1-.12.23.7.7,0,0,1-.19.15.53.53,0,0,1-.25,0Zm-15.3-10,14.49,8.33-5.28-25.79a.58.58,0,0,1,0-.32.55.55,0,0,1,.2-.25l11.49-8a.52.52,0,0,1,.34-.1.54.54,0,0,1,.34.12l11.21,8.73a.53.53,0,0,1,.19.26.5.5,0,0,1,0,.32l-4.77,25.08,14.18-7.07L294.39,109a.72.72,0,0,1-.12-.21.71.71,0,0,1,0-.25l2.11-15-4.08-8.09-11.39-4.18-12,4.18-4.07,8.09L266.46,106a.54.54,0,0,1,0,.22.42.42,0,0,1-.1.2Z"/><path class="cls-3" d="M269.67,85,269,89.64,271,97.46l7.89-6.18,3.65.3,6.52,6.1,4.47-4.5-.86-8.24-11.8-4Z"/><path class="cls-4" d="M289.11,97.94l-6.61-6.19L279,91.46l-8.05,6.31-2.16-8.12.74-4.83,11.39-4,12,4,.88,8.43ZM278.88,91.1l3.77.31,6.45,6,4.29-4.33-.84-8-11.64-3.91-11.07,3.92-.7,4.55,2,7.52Z"/><path class="cls-4" d="M269.5,114.81l-3.2-19.07-2.21-2.23.25-.25,2.29,2.32v0l3.21,19.12Z"/><path class="cls-4" d="M292.33,113.74l-.36,0,1.82-15.25,3-5.15.31.18-3,5.09Z"/><path class="cls-4" d="M280,210h-.36l.71-34.48-1.15-64.69h.36l1.14,64.71Z"/><path class="cls-4" d="M276.1,82.36l-.34.11,3,8.9.34-.11Z"/><path class="cls-4" d="M285.18,82.6l-2.81,8.92.34.1,2.81-8.91Z"/><path class="cls-6" d="M282.28,100.65l.24.75,1.6,1.34,2.58-1,.1-1.18-2.14-2.1Z"/><path class="cls-6" d="M274,100.65l.25.75,1.59,1.34,2.58-1,.11-1.18-2.14-2.1Z"/><path class="cls-5" d="M246.22,135l4.83,9.45,4.34,20.34-2.48-22.73Z"/><path class="cls-5" d="M305.53,150.37l2.66-7.18,10.6-17.37-12,16.23Z"/><path class="cls-4" d="M285.51,141.27l-2.86-.93-2.92-5.78-2.18,5.84-2.81,1.75,5.63,11.66Z"/><path class="cls-6" d="M277.68,143.16l1.47-.92L280,140l1.18,2.33,1.34.44-2.29,5.6Z"/><path class="cls-6" d="M277.68,143.16l1.47-.92L280,140l1.18,2.33,1.34.44-2.29,5.6Z"/><path class="cls-4" d="M285.62,141.4l-.23-.27,20.48-17.5.19-6.91h.36l-.2,7.06-.06,0Z"/><path class="cls-4" d="M254.74,117.75l-12.48,12,.25.26L255,118Z"/><path class="cls-4" d="M253.08,142.08l-.35-.07L255,129.84l0,0,2.39-4.15.3.18L255.38,130Z"/><path class="cls-4" d="M306.6,142.1,303.18,132l0-.05L306,123.4l8.57,7.3-.23.27-8.16-7-2.58,8,3.38,10Z"/><path class="cls-4" d="M256.22,170.17l-.2-.3,24.34-16.28.11.07,23.2,16.22-.21.29L280.36,154Z"/><path class="cls-4" d="M289.38,189.21l-9-12.53-10.43,12.15-3.12-15.69.35-.07,3,15,10.25-11.93,8.82,12.26,3.64-15.3.35.08Z"/><path class="cls-4" d="M306.21,118.76l-.12.34,14.2,5.08.12-.34Z"/><path class="cls-4" d="M255.29,119.63l-10.22,13,.28.22,10.22-13Z"/><path class="cls-4" d="M306.45,121.27l-.17.31,11.4,5.74.16-.31Z"/><path class="cls-6" d="M316.84,126.71a.89.89,0,0,0,0-1.77A.89.89,0,0,0,316.84,126.71Z"/><path class="cls-4" d="M309.38,140.34l-.36,0,1.32,10,.36-.05Z"/><path class="cls-4" d="M327.17,160.42l-9-7.39-8.92-12,.29-.21,8.91,12,8.91,7.34Z"/><path class="cls-4" d="M274.62,142.28l-17.17-16.42-3.4-9.84L238.53,126.1l-.19-.3,15.9-10.33,3.51,10.2L274.87,142Z"/><path class="cls-3" d="M361.12,115.31l.77-9.38.06,0-.05-.11v-.19l-.09,0L358,97.2l0-.06-.05,0-.6-1.82-6-3.38-6.53-1.32h-4l0,0-7.27,3.3L331.77,96l-.08.08-.08.05v0l-4.26,4.78v0l-1.44,10.47,3.14,6.09v.06l0,0L331.2,122l5.55,3.23v0l.1,0,.18.1v-.06l6.33,1.22-.08.07h.43l3.82-.13,7.23-3.28.19-.41v.33H355v-.42l.19.09,5.74-7.18.16-.31,0,.13,0-.06Zm-.26-.35-1.18-1.59-.05-.06-.4-6.37,2.36-.88ZM327.64,101l4.08-4.58,1.12,3.52.57,1.8-6,4.35.16-3.75ZM329,112l-1.55-5.54,6-4.35v9.37l-1.44.17Zm25.44,5-5.72,2.58-1.44-1.34-2.88-2.7,6.91-6.5,1.08,2.74Zm-17.19,3.26-3.36-8.5,5.81-.69,4.25,4.45Zm-3.38-18.46,7-6.5L344.68,99l-2.52,5.45v0l-6.63-2.16Zm8.57,2.8L345,99.14l6.39.13-.13,9.29Zm-8.71-2.53,1.86.6,6.46,2.1-2.39,6-5.93.57Zm10.45,13.28-4.25-4.45,2.39-6,8.78,4-.87.81Zm7.46-16c3.82,1,4.93,1.29,5.27,1.35l2,6-7.34,1.86Zm-2.08-6.58L351.29,99l-6.38-.13-3.78-3.69,6-1.74Zm7.36,7.62L351.63,99v0h0l-1.72-6.13,7.84,4.44ZM337.39,93l3.21,2.12-7,6.46L332,96.25Zm-4,18.81h.06l3.42,8.42-7.56-2.86-.3-5.05Zm15.35,8.06,5.7-2.57.26,5.54-8.23,1Zm5.9-3-3.13-8L359,107l.4,6.26-.29.24ZM349,92.58l-8.13,2.34,0,0h0l-3.17-2.07,3.2-1.94,6,1.24Zm-11.54,27.86,6.67-4.71h0l4.32,4.05-2.32,4.09-1.08-.42Zm21.7-13.8c-1.44-4.61-1.87-5.8-2-6.12l.62-2.33.14-.54,3.65,8.1ZM344.82,90.89l6.47,1.31,5.87,3.33.46,1.39L350,92.61l.24-.07-.5-.1,0-.06-.08,0-.25-.13,0,.1L342.3,90.9Zm-11.17,3.28,4.94-2.24-6.14,3.67ZM327.22,104l-.1,2.33,0,0,0,.08v.28l.07,0,1.15,4.14.41,1.41.29,4.61-2.8-5.43Zm4.2,17.76-1.94-4,4.61,1.74,2.91,1.09-.26,4.32Zm5.88-1.08,6.37,2.52,2.3.91-2.35,2.18L337.05,125Zm10.2,5.49-3.46.12,2.22-2.07h0l0,0,.57-.07,7-.89Zm13.29-10.83L355,122.59l-.25-5.41,0,0v0l4.68-3.56,1.31,1.78Z"/><path class="cls-7" d="M361.12,115.31l.77-9.38.06,0-.05-.11v-.19l-.09,0L358,97.2l0-.06-.05,0-.6-1.82-6-3.38-6.53-1.32h-4l0,0-7.27,3.3L331.77,96l-.08.08-.08.05v0l-4.26,4.78v0l-1.44,10.47,3.14,6.09v.06l0,0L331.2,122l5.55,3.23v0l.1,0,.18.1v-.06l6.33,1.22-.08.07h.43l3.82-.13,7.23-3.28.19-.41v.33H355v-.42l.19.09,5.74-7.18Zm0,0,0,.13,0-.06Zm-.26-.35-1.18-1.59-.05-.06-.4-6.37,2.36-.88ZM327.64,101l4.08-4.58,1.12,3.52.57,1.8-6,4.35.16-3.75ZM329,112l-1.55-5.54,6-4.35v9.37l-1.44.17Zm25.44,5-5.72,2.58-1.44-1.34-2.88-2.7,6.91-6.5,1.08,2.74Zm-17.19,3.26-3.36-8.5,5.81-.69,4.25,4.45Zm-3.38-18.46,7-6.5L344.68,99l-2.52,5.45v0l-6.63-2.16Zm8.57,2.8L345,99.14l6.39.13-.13,9.29Zm-8.71-2.53,1.86.6,6.46,2.1-2.39,6-5.93.57Zm10.45,13.28-4.25-4.45,2.39-6,8.78,4-.87.81Zm7.46-16c3.82,1,4.93,1.29,5.27,1.35l2,6-7.34,1.86Zm-2.08-6.58L351.29,99l-6.38-.13-3.78-3.69,6-1.74Zm7.36,7.62L351.63,99v0h0l-1.72-6.13,7.84,4.44ZM337.39,93l3.21,2.12-7,6.46L332,96.25Zm-4,18.81h.06l3.42,8.42-7.56-2.86-.3-5.05Zm15.35,8.06,5.7-2.57.26,5.54-8.23,1Zm5.9-3-3.13-8L359,107l.4,6.26-.29.24ZM349,92.58l-8.13,2.34,0,0h0l-3.17-2.07,3.2-1.94,6,1.24Zm-11.54,27.86,6.67-4.71h0l4.32,4.05-2.32,4.09-1.08-.42Zm21.7-13.8c-1.44-4.61-1.87-5.8-2-6.12l.62-2.33.14-.54,3.65,8.1ZM344.82,90.89l6.47,1.31,5.87,3.33.46,1.39L350,92.61l.24-.07-.5-.1,0-.06-.08,0-.25-.13,0,.1L342.3,90.9Zm-11.17,3.28,4.94-2.24-6.14,3.67ZM327.22,104l-.1,2.33,0,0,0,.08v.28l.07,0,1.15,4.14.41,1.41.29,4.61-2.8-5.43Zm4.2,17.76-1.94-4,4.61,1.74,2.91,1.09-.26,4.32Zm5.88-1.08,6.37,2.52,2.3.91-2.35,2.18L337.05,125Zm10.2,5.49-3.46.12,2.22-2.07h0l0,0,.57-.07,7-.89Zm13.29-10.83L355,122.59l-.25-5.41,0,0v0l4.68-3.56,1.31,1.78Z"/><path class="cls-8" d="M332.88,114.61l13.59-1,1.77,8-7.65.36Z"/><path class="cls-9" d="M346.47,113.63l3.06-15.32,7.45,7.07Z"/><path class="cls-8" d="M332.38,106.53l17.15-8.22-12.26-.47Z"/><path class="cls-8" d="M346.47,113.63l-14.09-7.1.5,8.08Z"/><path class="cls-10" d="M348.24,121.63l6.57-4.58L357,105.38l-10.51,8.25Z"/><path class="cls-11" d="M332.38,106.53l17.15-8.22-3.06,15.32Z"/><path class="cls-12" d="M344.25,102.59l1.56,1.59-3.93,3.92-1.56-1.56Z"/><path class="cls-12" d="M346.62,105l1.56,1.59-6.3,6.28-1.56-1.55Z"/><path class="cls-12" d="M339.51,107.31l1.56,1.6-1.56,1.55L338,108.91Z"/><path class="cls-12" d="M349,107.31l1.56,1.6-6.3,6.27-1.56-1.55Z"/><path class="cls-7" d="M233.69,115.31l.77-9.38.06,0-.05-.11v-.19l-.09,0-3.79-8.44,0-.06-.05,0-.6-1.82-6-3.38-6.53-1.32h-4l0,0-7.27,3.3L204.33,96l-.07.08-.08.05v0l-4.26,4.78v0l-1.44,10.47,3.14,6.09v.06l0,0,2.11,4.38,5.55,3.23v0l.1,0,.17.1v-.06l6.34,1.22-.08.07h.43l3.82-.13,7.23-3.28v.17l.19-.25h.08v0l.81-.37-.62.08,5.74-7.18.11.15,0-.33,0-.06Zm-.26-.35-1.18-1.59-.05-.06-.4-6.37,2.36-.88ZM200.21,101l4.08-4.58,1.12,3.52.57,1.8-6,4.35.16-3.75Zm1.35,11L200,106.47l6-4.35v9.37l-1.44.17ZM227,117l-5.72,2.58-1.44-1.34-2.88-2.7,6.91-6.5,1.08,2.74Zm-17.2,3.26-3.35-8.5,5.81-.69,4.25,4.45Zm-3.37-18.46,7-6.5L217.24,99l-2.51,5.45v0l-6.63-2.16Zm8.57,2.8,2.52-5.45,6.39.13-.13,9.29Zm-8.71-2.53,1.86.6,6.46,2.1-2.39,6-5.93.57Zm10.45,13.28-4.25-4.45,2.39-6,8.78,4-.87.81Zm7.46-16c3.82,1,4.93,1.29,5.27,1.35l2,6-7.34,1.86Zm-2.08-6.58L223.86,99l-6.38-.13-3.78-3.69,6-1.74Zm7.36,7.62L224.2,99v0h0l-1.72-6.13,7.84,4.44ZM210,93l3.22,2.12-7,6.46-1.69-5.33Zm-4,18.81h.06l3.42,8.42-7.56-2.86-.3-5.05Zm15.35,8.06,5.7-2.57.26,5.54-8.23,1Zm5.9-3-3.13-8,7.41-1.86.4,6.26-.29.24Zm-5.66-24.27-8.13,2.34,0,0h0l-3.16-2.07,3.2-1.94,6,1.24ZM210,120.44l6.67-4.71h0l4.31,4.05-2.31,4.09-1.08-.42Zm21.7-13.8c-1.44-4.61-1.87-5.8-2-6.12l.61-2.33.15-.54,3.65,8.1ZM217.39,90.89l6.47,1.31,5.87,3.33.46,1.39-7.61-4.31.24-.07-.51-.1v-.06l-.08,0-.25-.13,0,.1-7.13-1.47Zm-11.17,3.28,4.94-2.24L205,95.6ZM199.79,104l-.1,2.33,0,0,0,.08v.28l.07,0,1.15,4.14.41,1.41.29,4.61-2.8-5.43Zm4.2,17.76-1.94-4,4.61,1.74,2.91,1.09-.26,4.32Zm5.88-1.08,6.37,2.52,2.3.91-2.35,2.18L209.62,125Zm10.2,5.49-3.46.12,2.22-2.07h0l0,0,.57-.07,7-.89Zm13.29-10.83-5.76,7.24-.26-5.41,0,0v0l4.68-3.56,1.31,1.78Z"/><path class="cls-8" d="M204.63,113.83l14-1,1.81,8.08-7.86.37Z"/><path class="cls-9" d="M218.59,112.84l3.13-15.49,7.66,7.14Z"/><path class="cls-8" d="M204.12,105.66l17.6-8.31-12.58-.48Z"/><path class="cls-8" d="M218.59,112.84l-14.47-7.19.51,8.18Z"/><path class="cls-10" d="M220.4,120.93l6.75-4.63,2.23-11.81-10.79,8.35Z"/><path class="cls-11" d="M204.12,105.66l17.6-8.31-3.13,15.49Z"/><path class="cls-13" d="M211.33,103.36l-3.12,6a.09.09,0,0,0,0,.07.09.09,0,0,0,0,.07l8.43,7.39a.18.18,0,0,0,.09,0,.15.15,0,0,0,.09,0l8.42-7.39a.1.1,0,0,0,0-.07.09.09,0,0,0,0-.07l-3.12-6a.12.12,0,0,0,0,0l-.06,0H211.44a.1.1,0,0,0-.07,0,.1.1,0,0,0,0,0Z"/><path class="cls-14" d="M217.66,110.44s-.31,0-.9,0-.8,0-.92,0c-1.8-.09-3.15-.42-3.15-.82s1.35-.74,3.15-.83v1.31c.12,0,.46,0,.93,0a7.94,7.94,0,0,0,.89,0v-1.31c1.8.09,3.14.42,3.14.83s-1.34.73-3.14.82Zm0-1.78v-1.18h2.51v-1.79h-6.84v1.79h2.51v1.18c-2,.1-3.57.53-3.57,1s1.53,1,3.57,1.05v3.76h1.82v-3.76c2-.1,3.57-.53,3.57-1.05s-1.53-.95-3.57-1Z"/><g class="cls-15"><path class="cls-16" d="M692.1,81.61h-920V338.23h920Z"/></g><g class="cls-15"><g class="cls-17"><path class="cls-18" d="M9.51,25.31H-14.21V-2.76H9.51ZM-14,25H9.29V-2.49H-14Z"/><path class="cls-18" d="M33,25.31H9.28V-2.76H33ZM9.51,25H32.77V-2.49H9.51Z"/><path class="cls-18" d="M56.49,25.31H32.77V-2.76H56.49ZM33,25H56.26V-2.49H33Z"/><path class="cls-18" d="M80,25.31H56.26V-2.76H80ZM56.49,25H79.75V-2.49H56.49Z"/><path class="cls-18" d="M103.47,25.31H79.75V-2.76h23.72ZM80,25h23.25V-2.49H80Z"/><path class="cls-18" d="M127,25.31H103.24V-2.76H127ZM103.47,25h23.26V-2.49H103.47Z"/><path class="cls-18" d="M150.45,25.31H126.73V-2.76h23.72ZM127,25h23.26V-2.49H127Z"/><path class="cls-18" d="M173.94,25.31H150.22V-2.76h23.72ZM150.45,25h23.26V-2.49H150.45Z"/><path class="cls-18" d="M197.43,25.31H173.71V-2.76h23.72ZM173.94,25H197.2V-2.49H173.94Z"/><path class="cls-18" d="M220.92,25.31H197.2V-2.76h23.72ZM197.43,25H220.7V-2.49H197.43Z"/><path class="cls-18" d="M9.51,53.1H-14.21V25H9.51ZM-14,52.84H9.29V25.31H-14Z"/><path class="cls-18" d="M33,53.1H9.28V25H33ZM9.51,52.84H32.77V25.31H9.51Z"/><path class="cls-18" d="M56.49,53.1H32.77V25H56.49ZM33,52.84H56.26V25.31H33Z"/><path class="cls-18" d="M80,53.1H56.26V25H80Zm-23.5-.26H79.75V25.31H56.49Z"/><path class="cls-18" d="M103.47,53.1H79.75V25h23.72ZM80,52.84h23.25V25.31H80Z"/><path class="cls-18" d="M127,53.1H103.24V25H127Zm-23.49-.26h23.26V25.31H103.47Z"/><path class="cls-18" d="M150.45,53.1H126.73V25h23.72ZM127,52.84h23.26V25.31H127Z"/><path class="cls-18" d="M173.94,53.1H150.22V25h23.72Zm-23.49-.26h23.26V25.31H150.45Z"/><path class="cls-18" d="M197.43,53.1H173.71V25h23.72Zm-23.49-.26H197.2V25.31H173.94Z"/><path class="cls-18" d="M220.92,53.1H197.2V25h23.72Zm-23.49-.26H220.7V25.31H197.43Z"/><path class="cls-18" d="M9.51,80.9H-14.21V52.84H9.51ZM-14,80.63H9.29V53.1H-14Z"/><path class="cls-18" d="M33,80.9H9.28V52.84H33ZM9.51,80.63H32.77V53.1H9.51Z"/><path class="cls-18" d="M56.49,80.9H32.77V52.84H56.49ZM33,80.63H56.26V53.1H33Z"/><path class="cls-18" d="M80,80.9H56.26V52.84H80Zm-23.5-.27H79.75V53.1H56.49Z"/><path class="cls-18" d="M103.47,80.9H79.75V52.84h23.72ZM80,80.63h23.25V53.1H80Z"/><path class="cls-18" d="M127,80.9H103.24V52.84H127Zm-23.49-.27h23.26V53.1H103.47Z"/><path class="cls-18" d="M150.45,80.9H126.73V52.84h23.72ZM127,80.63h23.26V53.1H127Z"/><path class="cls-18" d="M173.94,80.9H150.22V52.84h23.72Zm-23.49-.27h23.26V53.1H150.45Z"/><path class="cls-18" d="M197.43,80.9H173.71V52.84h23.72Zm-23.49-.27H197.2V53.1H173.94Z"/><path class="cls-18" d="M220.92,80.9H197.2V52.84h23.72Zm-23.49-.27H220.7V53.1H197.43Z"/><path class="cls-18" d="M9.51,108.7H-14.21V80.63H9.51ZM-14,108.43H9.29V80.9H-14Z"/><path class="cls-18" d="M33,108.7H9.28V80.63H33Zm-23.49-.27H32.77V80.9H9.51Z"/><path class="cls-18" d="M56.49,108.7H32.77V80.63H56.49ZM33,108.43H56.26V80.9H33Z"/><path class="cls-18" d="M80,108.7H56.26V80.63H80Zm-23.5-.27H79.75V80.9H56.49Z"/><path class="cls-18" d="M103.47,108.7H79.75V80.63h23.72ZM80,108.43h23.25V80.9H80Z"/><path class="cls-18" d="M127,108.7H103.24V80.63H127Zm-23.49-.27h23.26V80.9H103.47Z"/><path class="cls-18" d="M150.45,108.7H126.73V80.63h23.72ZM127,108.43h23.26V80.9H127Z"/><path class="cls-18" d="M173.94,108.7H150.22V80.63h23.72Zm-23.49-.27h23.26V80.9H150.45Z"/><path class="cls-18" d="M197.43,108.7H173.71V80.63h23.72Zm-23.49-.27H197.2V80.9H173.94Z"/><path class="cls-18" d="M220.92,108.7H197.2V80.63h23.72Zm-23.49-.27H220.7V80.9H197.43Z"/><path class="cls-18" d="M9.51,136.5H-14.21V108.43H9.51ZM-14,136.22H9.29V108.7H-14Z"/><path class="cls-18" d="M33,136.5H9.28V108.43H33Zm-23.49-.28H32.77V108.7H9.51Z"/><path class="cls-18" d="M56.49,136.5H32.77V108.43H56.49ZM33,136.22H56.26V108.7H33Z"/><path class="cls-18" d="M80,136.5H56.26V108.43H80Zm-23.5-.28H79.75V108.7H56.49Z"/><path class="cls-18" d="M103.47,136.5H79.75V108.43h23.72ZM80,136.22h23.25V108.7H80Z"/><path class="cls-18" d="M127,136.5H103.24V108.43H127Zm-23.49-.28h23.26V108.7H103.47Z"/><path class="cls-18" d="M150.45,136.5H126.73V108.43h23.72ZM127,136.22h23.26V108.7H127Z"/><path class="cls-18" d="M173.94,136.5H150.22V108.43h23.72Zm-23.49-.28h23.26V108.7H150.45Z"/><path class="cls-18" d="M197.43,136.5H173.71V108.43h23.72Zm-23.49-.28H197.2V108.7H173.94Z"/><path class="cls-18" d="M220.92,136.5H197.2V108.43h23.72Zm-23.49-.28H220.7V108.7H197.43Z"/><path class="cls-18" d="M9.51,164.3H-14.21V136.22H9.51ZM-14,164H9.29V136.5H-14Z"/><path class="cls-18" d="M33,164.3H9.28V136.22H33ZM9.51,164H32.77V136.5H9.51Z"/><path class="cls-18" d="M56.49,164.3H32.77V136.22H56.49ZM33,164H56.26V136.5H33Z"/><path class="cls-18" d="M80,164.3H56.26V136.22H80ZM56.49,164H79.75V136.5H56.49Z"/><path class="cls-18" d="M103.47,164.3H79.75V136.22h23.72ZM80,164h23.25V136.5H80Z"/><path class="cls-18" d="M127,164.3H103.24V136.22H127ZM103.47,164h23.26V136.5H103.47Z"/><path class="cls-18" d="M150.45,164.3H126.73V136.22h23.72ZM127,164h23.26V136.5H127Z"/><path class="cls-18" d="M173.94,164.3H150.22V136.22h23.72ZM150.45,164h23.26V136.5H150.45Z"/><path class="cls-18" d="M197.43,164.3H173.71V136.22h23.72ZM173.94,164H197.2V136.5H173.94Z"/><path class="cls-18" d="M220.92,164.3H197.2V136.22h23.72ZM197.43,164H220.7V136.5H197.43Z"/><path class="cls-18" d="M9.51,192.1H-14.21V164H9.51ZM-14,191.84H9.29V164.3H-14Z"/><path class="cls-18" d="M33,192.1H9.28V164H33Zm-23.49-.26H32.77V164.3H9.51Z"/><path class="cls-18" d="M56.49,192.1H32.77V164H56.49ZM33,191.84H56.26V164.3H33Z"/><path class="cls-18" d="M80,192.1H56.26V164H80Zm-23.5-.26H79.75V164.3H56.49Z"/><path class="cls-18" d="M103.47,192.1H79.75V164h23.72ZM80,191.84h23.25V164.3H80Z"/><path class="cls-18" d="M127,192.1H103.24V164H127Zm-23.49-.26h23.26V164.3H103.47Z"/><path class="cls-18" d="M150.45,192.1H126.73V164h23.72ZM127,191.82h23.26V164.3H127Z"/><path class="cls-18" d="M173.94,192.1H150.22V164h23.72Zm-23.49-.28h23.26V164.3H150.45Z"/><path class="cls-18" d="M197.43,192.1H173.71V164h23.72Zm-23.49-.28H197.2V164.3H173.94Z"/><path class="cls-18" d="M220.92,192.1H197.2V164h23.72Zm-23.49-.28H220.7V164.3H197.43Z"/><path class="cls-18" d="M9.51,219.9H-14.21V191.84H9.51ZM-14,219.62H9.29V192.1H-14Z"/><path class="cls-18" d="M33,219.9H9.28V191.84H33Zm-23.49-.28H32.77V192.1H9.51Z"/><path class="cls-18" d="M56.49,219.9H32.77V191.84H56.49ZM33,219.62H56.26V192.1H33Z"/><path class="cls-18" d="M80,219.9H56.26V191.84H80Zm-23.5-.28H79.75V192.1H56.49Z"/><path class="cls-18" d="M103.47,219.9H79.75V191.84h23.72ZM80,219.62h23.25V192.1H80Z"/><path class="cls-18" d="M127,219.9H103.24V191.84H127Zm-23.49-.28h23.26V192.1H103.47Z"/><path class="cls-18" d="M150.45,219.9H126.73V191.84h23.72ZM127,219.62h23.26V192.1H127Z"/><path class="cls-18" d="M173.94,219.9H150.22V191.84h23.72Zm-23.49-.28h23.26V192.1H150.45Z"/><path class="cls-18" d="M197.43,219.9H173.71V191.84h23.72Zm-23.49-.28H197.2V192.1H173.94Z"/><path class="cls-18" d="M220.92,219.9H197.2V191.84h23.72Zm-23.49-.28H220.7V192.1H197.43Z"/><path class="cls-18" d="M9.51,247.71H-14.21V219.62H9.51ZM-14,247.42H9.29V219.9H-14Z"/><path class="cls-18" d="M33,247.71H9.28V219.62H33Zm-23.49-.27H32.77V219.9H9.51Z"/><path class="cls-18" d="M56.49,247.71H32.77V219.62H56.49ZM33,247.44H56.26V219.9H33Z"/><path class="cls-18" d="M80,247.71H56.26V219.62H80Zm-23.5-.27H79.75V219.9H56.49Z"/><path class="cls-18" d="M103.47,247.71H79.75V219.62h23.72ZM80,247.44h23.25V219.9H80Z"/><path class="cls-18" d="M127,247.71H103.24V219.62H127Zm-23.49-.27h23.26V219.9H103.47Z"/><path class="cls-18" d="M150.45,247.71H126.73V219.62h23.72ZM127,247.44h23.26V219.9H127Z"/><path class="cls-18" d="M173.94,247.71H150.22V219.62h23.72Zm-23.49-.27h23.26V219.9H150.45Z"/><path class="cls-18" d="M197.43,247.71H173.71V219.62h23.72Zm-23.49-.27H197.2V219.9H173.94Z"/><path class="cls-18" d="M220.92,247.71H197.2V219.62h23.72Zm-23.49-.27H220.7V219.9H197.43Z"/><path class="cls-18" d="M9.51,275.49H-14.21V247.42H9.51ZM-14,275.21H9.29v-27.5H-14Z"/><path class="cls-18" d="M33,275.49H9.28V247.42H33Zm-23.49-.28H32.77v-27.5H9.51Z"/><path class="cls-18" d="M56.49,275.49H32.77V247.42H56.49ZM33,275.21H56.26v-27.5H33Z"/><path class="cls-18" d="M80,275.49H56.26V247.42H80Zm-23.5-.28H79.75v-27.5H56.49Z"/><path class="cls-18" d="M103.47,275.49H79.75V247.42h23.72ZM80,275.21h23.25v-27.5H80Z"/><path class="cls-18" d="M127,275.49H103.24V247.42H127Zm-23.49-.28h23.26v-27.5H103.47Z"/><path class="cls-18" d="M150.45,275.49H126.73V247.42h23.72ZM127,275.21h23.26v-27.5H127Z"/><path class="cls-18" d="M173.94,275.49H150.22V247.42h23.72Zm-23.49-.28h23.26v-27.5H150.45Z"/><path class="cls-18" d="M197.43,275.49H173.71V247.42h23.72Zm-23.49-.28H197.2v-27.5H173.94Z"/><path class="cls-18" d="M220.92,275.49H197.2V247.42h23.72Zm-23.49-.28H220.7v-27.5H197.43Z"/><path class="cls-18" d="M9.51,303.28H-14.21V275.21H9.51ZM-14,303H9.29V275.48H-14Z"/><path class="cls-18" d="M33,303.28H9.28V275.21H33ZM9.51,303H32.77V275.48H9.51Z"/><path class="cls-18" d="M56.49,303.28H32.77V275.21H56.49ZM33,303H56.26V275.48H33Z"/><path class="cls-18" d="M80,303.28H56.26V275.21H80ZM56.49,303H79.75V275.48H56.49Z"/><path class="cls-18" d="M103.47,303.28H79.75V275.21h23.72ZM80,303h23.25V275.48H80Z"/><path class="cls-18" d="M127,303.28H103.24V275.21H127ZM103.47,303h23.26V275.48H103.47Z"/><path class="cls-18" d="M150.45,303.28H126.73V275.21h23.72ZM127,303h23.26V275.48H127Z"/><path class="cls-18" d="M173.94,303.28H150.22V275.21h23.72ZM150.45,303h23.26V275.48H150.45Z"/><path class="cls-18" d="M197.43,303.28H173.71V275.21h23.72ZM173.94,303H197.2V275.48H173.94Z"/><path class="cls-18" d="M220.92,303.28H197.2V275.21h23.72ZM197.43,303H220.7V275.48H197.43Z"/><path class="cls-18" d="M222,25.2a1.18,1.18,0,0,0-.88-.88,1.23,1.23,0,0,0-.66,0,1.15,1.15,0,0,0-.8.95,1,1,0,0,0,.11.62,1.05,1.05,0,0,0,.43.48,1.18,1.18,0,0,0,.63.18,1.34,1.34,0,0,0,.88-.46,1.24,1.24,0,0,0,.29-.92Z"/><path class="cls-18" d="M222,53a1.18,1.18,0,0,0-.88-.88,1.23,1.23,0,0,0-.66,0,1.15,1.15,0,0,0-.8,1,1.14,1.14,0,0,0,.54,1.1,1.18,1.18,0,0,0,.63.18,1.29,1.29,0,0,0,.88-.46A1.24,1.24,0,0,0,222,53Z"/><path class="cls-18" d="M222,80.77a1.18,1.18,0,0,0-.88-.88,1.23,1.23,0,0,0-.66,0,1.15,1.15,0,0,0-.8,1,1.14,1.14,0,0,0,.54,1.1,1.18,1.18,0,0,0,.63.18,1.29,1.29,0,0,0,.88-.46,1.24,1.24,0,0,0,.29-.92Z"/><path class="cls-18" d="M222,108.57a1.18,1.18,0,0,0-.88-.88,1.23,1.23,0,0,0-.66,0,1.15,1.15,0,0,0-.8,1,1,1,0,0,0,.11.62,1.11,1.11,0,0,0,.43.48,1.18,1.18,0,0,0,.63.18,1.34,1.34,0,0,0,.88-.46,1.24,1.24,0,0,0,.29-.92Z"/><path class="cls-18" d="M222,136.37a1.18,1.18,0,0,0-.88-.88,1.23,1.23,0,0,0-.66,0,1.16,1.16,0,0,0-.8.94,1,1,0,0,0,.11.63,1.11,1.11,0,0,0,.43.48,1.18,1.18,0,0,0,.63.18,1.34,1.34,0,0,0,.88-.46A1.24,1.24,0,0,0,222,136.37Z"/><path class="cls-18" d="M222,164.16a1.14,1.14,0,0,0-.31-.57,1.19,1.19,0,0,0-.58-.32,1.27,1.27,0,0,0-.67,0,1.19,1.19,0,0,0-.54.37,1.17,1.17,0,0,0-.26.59,1,1,0,0,0,.11.63,1.14,1.14,0,0,0,.44.48,1.21,1.21,0,0,0,.64.18,1.35,1.35,0,0,0,.88-.47,1.24,1.24,0,0,0,.29-.92Z"/><path class="cls-18" d="M222,192a1.14,1.14,0,0,0-.31-.57,1.18,1.18,0,0,0-.57-.31,1.23,1.23,0,0,0-.66,0,1.1,1.1,0,0,0-.54.36,1.18,1.18,0,0,0-.26.58,1.06,1.06,0,0,0,.11.63,1.11,1.11,0,0,0,.43.48,1.28,1.28,0,0,0,.63.18,1.38,1.38,0,0,0,.88-.46A1.24,1.24,0,0,0,222,192Z"/><path class="cls-18" d="M222,219.75a1.16,1.16,0,0,0-.31-.56,1.18,1.18,0,0,0-.57-.31,1.34,1.34,0,0,0-.66,0,1.19,1.19,0,0,0-.54.37,1.14,1.14,0,0,0-.26.58,1.06,1.06,0,0,0,.11.63,1.11,1.11,0,0,0,.43.48,1.28,1.28,0,0,0,.63.18,1.34,1.34,0,0,0,.88-.46A1.25,1.25,0,0,0,222,219.75Z"/><path class="cls-18" d="M222,247.55a1.16,1.16,0,0,0-.31-.56,1.18,1.18,0,0,0-.57-.31,1.34,1.34,0,0,0-.66,0,1.19,1.19,0,0,0-.54.37,1.14,1.14,0,0,0-.26.58,1.06,1.06,0,0,0,.11.63,1.16,1.16,0,0,0,.43.48,1.11,1.11,0,0,0,1.51-.28A1.25,1.25,0,0,0,222,247.55Z"/><path class="cls-18" d="M222,275.35a1.16,1.16,0,0,0-.31-.56,1.18,1.18,0,0,0-.57-.31,1.14,1.14,0,0,0-.66,0,1.19,1.19,0,0,0-.54.37,1.14,1.14,0,0,0-.26.58,1.14,1.14,0,0,0,.54,1.1,1.18,1.18,0,0,0,.63.18,1.29,1.29,0,0,0,.88-.46,1.22,1.22,0,0,0,.29-.92Z"/><path class="cls-18" d="M10.56,25.2a1,1,0,0,0-.31-.56,1.12,1.12,0,0,0-.57-.32,1.23,1.23,0,0,0-.66,0,1.15,1.15,0,0,0-.8.95,1.11,1.11,0,0,0,.11.62,1.05,1.05,0,0,0,.43.48,1.18,1.18,0,0,0,.63.18,1.34,1.34,0,0,0,.88-.46,1.24,1.24,0,0,0,.29-.92Z"/><path class="cls-18" d="M34.06,25.2A1.21,1.21,0,0,0,32,24.71a1.08,1.08,0,0,0-.25.59,1.1,1.1,0,0,0,.1.62,1.14,1.14,0,0,0,.44.48,1.16,1.16,0,0,0,.63.18,1.38,1.38,0,0,0,.87-.46,1.3,1.3,0,0,0,.3-.92Z"/><path class="cls-18" d="M57.54,25.2a1.18,1.18,0,0,0-.88-.88,1.23,1.23,0,0,0-.66,0,1.15,1.15,0,0,0-.8.95,1,1,0,0,0,.11.62,1.05,1.05,0,0,0,.43.48,1.18,1.18,0,0,0,.63.18,1.34,1.34,0,0,0,.88-.46,1.24,1.24,0,0,0,.29-.92Z"/><path class="cls-18" d="M81,25.2a1.18,1.18,0,0,0-.89-.88,1.24,1.24,0,0,0-.66,0,1.15,1.15,0,0,0-.8.95,1.11,1.11,0,0,0,.11.62,1.2,1.2,0,0,0,1.07.66,1.34,1.34,0,0,0,.87-.46,1.25,1.25,0,0,0,.3-.92Z"/><path class="cls-18" d="M104.52,25.2a1.11,1.11,0,0,0-.31-.56,1.16,1.16,0,0,0-.57-.32,1.23,1.23,0,0,0-.66,0,1.15,1.15,0,0,0-.8.95,1.1,1.1,0,0,0,.1.62,1.14,1.14,0,0,0,.44.48,1.18,1.18,0,0,0,.63.18,1.36,1.36,0,0,0,.88-.46,1.24,1.24,0,0,0,.29-.92Z"/><path class="cls-18" d="M128,25.2a1,1,0,0,0-.31-.56,1.12,1.12,0,0,0-.57-.32,1.24,1.24,0,0,0-.66,0,1.15,1.15,0,0,0-.8.95,1.16,1.16,0,0,0,.54,1.1,1.19,1.19,0,0,0,.64.18,1.34,1.34,0,0,0,.87-.46,1.24,1.24,0,0,0,.29-.92Z"/><path class="cls-18" d="M151.51,25.2a1.14,1.14,0,0,0-.31-.57,1.29,1.29,0,0,0-.58-.33,1.23,1.23,0,0,0-.66,0,1.17,1.17,0,0,0-.55.37,1,1,0,0,0-.26.59,1.12,1.12,0,0,0,.1.63,1.16,1.16,0,0,0,.45.48,1.19,1.19,0,0,0,.64.18,1.38,1.38,0,0,0,.87-.46,1.25,1.25,0,0,0,.3-.92Z"/><path class="cls-18" d="M175,25.2a1,1,0,0,0-.31-.56,1.12,1.12,0,0,0-.57-.32,1.24,1.24,0,0,0-.66,0,1.15,1.15,0,0,0-.8.95,1,1,0,0,0,.11.62,1.05,1.05,0,0,0,.43.48,1.19,1.19,0,0,0,.64.18,1.34,1.34,0,0,0,.87-.46,1.24,1.24,0,0,0,.29-.92Z"/><path class="cls-18" d="M198.49,25.2a1.18,1.18,0,0,0-.88-.88,1.23,1.23,0,0,0-.66,0,1.2,1.2,0,0,0-.55.36,1.08,1.08,0,0,0-.25.59,1.1,1.1,0,0,0,.1.62,1.14,1.14,0,0,0,.44.48,1.18,1.18,0,0,0,.63.18,1.38,1.38,0,0,0,.87-.46A1.3,1.3,0,0,0,198.49,25.2Z"/><path class="cls-18" d="M10.56,53a1,1,0,0,0-.31-.56,1.12,1.12,0,0,0-.57-.32,1.23,1.23,0,0,0-.66,0,1.15,1.15,0,0,0-.8,1,1.16,1.16,0,0,0,.11.63,1.08,1.08,0,0,0,.43.47,1.18,1.18,0,0,0,.63.18,1.29,1.29,0,0,0,.88-.46,1.2,1.2,0,0,0,.29-.92Z"/><path class="cls-18" d="M34.06,53A1.21,1.21,0,0,0,32,52.48a1.08,1.08,0,0,0-.25.59,1.15,1.15,0,0,0,.1.63,1.17,1.17,0,0,0,.44.47,1.16,1.16,0,0,0,.63.18,1.31,1.31,0,0,0,.87-.46,1.25,1.25,0,0,0,.3-.92Z"/><path class="cls-18" d="M57.54,53a1.18,1.18,0,0,0-.88-.88,1.23,1.23,0,0,0-.66,0,1.15,1.15,0,0,0-.8,1,1.14,1.14,0,0,0,.54,1.1,1.18,1.18,0,0,0,.63.18,1.29,1.29,0,0,0,.88-.46,1.24,1.24,0,0,0,.29-.92Z"/><path class="cls-18" d="M81,53a1.18,1.18,0,0,0-.89-.88,1.24,1.24,0,0,0-.66,0,1.15,1.15,0,0,0-.8,1,1.12,1.12,0,0,0,.55,1.1,1.13,1.13,0,0,0,.63.18,1.32,1.32,0,0,0,.88-.46A1.29,1.29,0,0,0,81,53Z"/><path class="cls-18" d="M104.52,53a1.11,1.11,0,0,0-.31-.56,1.16,1.16,0,0,0-.57-.32,1.23,1.23,0,0,0-.66,0,1.15,1.15,0,0,0-.8,1,1.15,1.15,0,0,0,.1.63,1.22,1.22,0,0,0,1.07.65,1.29,1.29,0,0,0,.88-.46A1.24,1.24,0,0,0,104.52,53Z"/><path class="cls-18" d="M128,53a1,1,0,0,0-.31-.56,1.12,1.12,0,0,0-.57-.32,1.24,1.24,0,0,0-.66,0,1.15,1.15,0,0,0-.8,1,1.16,1.16,0,0,0,.11.63,1.15,1.15,0,0,0,.43.47,1.19,1.19,0,0,0,.64.18,1.27,1.27,0,0,0,.87-.46A1.2,1.2,0,0,0,128,53Z"/><path class="cls-18" d="M151.51,53a1.17,1.17,0,0,0-.89-.89,1.14,1.14,0,0,0-.66,0,1.17,1.17,0,0,0-.55.37,1,1,0,0,0-.26.59,1.17,1.17,0,0,0,.1.64,1.29,1.29,0,0,0,.45.48,1.28,1.28,0,0,0,.64.17,1.36,1.36,0,0,0,.88-.46,1.29,1.29,0,0,0,.29-.92Z"/><path class="cls-18" d="M175,53a1,1,0,0,0-.31-.56,1.12,1.12,0,0,0-.57-.32,1.24,1.24,0,0,0-.66,0,1.15,1.15,0,0,0-.8,1,1.14,1.14,0,0,0,.54,1.1,1.19,1.19,0,0,0,.64.18,1.27,1.27,0,0,0,.87-.46A1.2,1.2,0,0,0,175,53Z"/><path class="cls-18" d="M198.49,53a1.21,1.21,0,0,0-2.09-.49,1.08,1.08,0,0,0-.25.59,1.15,1.15,0,0,0,.1.63,1.22,1.22,0,0,0,1.07.65,1.31,1.31,0,0,0,.87-.46,1.25,1.25,0,0,0,.3-.92Z"/><path class="cls-18" d="M10.56,80.77a1,1,0,0,0-.31-.56,1.12,1.12,0,0,0-.57-.32,1.23,1.23,0,0,0-.66,0,1.15,1.15,0,0,0-.8,1,1.16,1.16,0,0,0,.11.63,1.08,1.08,0,0,0,.43.47,1.18,1.18,0,0,0,.63.18,1.29,1.29,0,0,0,.88-.46,1.2,1.2,0,0,0,.29-.92Z"/><path class="cls-18" d="M34.06,80.77A1.21,1.21,0,0,0,32,80.28a1.08,1.08,0,0,0-.25.59,1.15,1.15,0,0,0,.1.63,1.17,1.17,0,0,0,.44.47,1.16,1.16,0,0,0,.63.18,1.31,1.31,0,0,0,.87-.46A1.25,1.25,0,0,0,34.06,80.77Z"/><path class="cls-18" d="M57.54,80.77a1.18,1.18,0,0,0-.88-.88,1.23,1.23,0,0,0-.66,0,1.15,1.15,0,0,0-.8,1,1.14,1.14,0,0,0,.54,1.1,1.18,1.18,0,0,0,.63.18,1.29,1.29,0,0,0,.88-.46,1.24,1.24,0,0,0,.29-.92Z"/><path class="cls-18" d="M81,80.77a1.18,1.18,0,0,0-.89-.88,1.24,1.24,0,0,0-.66,0,1.15,1.15,0,0,0-.8,1,1.12,1.12,0,0,0,.55,1.1,1.13,1.13,0,0,0,.63.18,1.32,1.32,0,0,0,.88-.46,1.29,1.29,0,0,0,.29-.92Z"/><path class="cls-18" d="M104.52,80.77a1.11,1.11,0,0,0-.31-.56,1.16,1.16,0,0,0-.57-.32,1.23,1.23,0,0,0-.66,0,1.15,1.15,0,0,0-.8,1,1.15,1.15,0,0,0,.1.63,1.22,1.22,0,0,0,1.07.65,1.29,1.29,0,0,0,.88-.46,1.24,1.24,0,0,0,.29-.92Z"/><path class="cls-18" d="M128,80.77a1,1,0,0,0-.31-.56,1.12,1.12,0,0,0-.57-.32,1.24,1.24,0,0,0-.66,0,1.15,1.15,0,0,0-.8,1,1.16,1.16,0,0,0,.11.63,1.15,1.15,0,0,0,.43.47,1.19,1.19,0,0,0,.64.18,1.27,1.27,0,0,0,.87-.46,1.2,1.2,0,0,0,.29-.92Z"/><path class="cls-18" d="M151.51,80.77a1.14,1.14,0,0,0-.31-.57,1.29,1.29,0,0,0-.58-.33,1.23,1.23,0,0,0-.66,0,1.17,1.17,0,0,0-.55.37,1,1,0,0,0-.26.59,1.12,1.12,0,0,0,.1.63,1.16,1.16,0,0,0,.45.48,1.19,1.19,0,0,0,.64.18,1.36,1.36,0,0,0,.88-.46A1.29,1.29,0,0,0,151.51,80.77Z"/><path class="cls-18" d="M175,80.77a1,1,0,0,0-.31-.56,1.12,1.12,0,0,0-.57-.32,1.24,1.24,0,0,0-.66,0,1.15,1.15,0,0,0-.8,1,1.14,1.14,0,0,0,.54,1.1,1.19,1.19,0,0,0,.64.18,1.27,1.27,0,0,0,.87-.46,1.2,1.2,0,0,0,.29-.92Z"/><path class="cls-18" d="M198.49,80.77a1.21,1.21,0,0,0-2.09-.49,1.08,1.08,0,0,0-.25.59,1.15,1.15,0,0,0,.1.63,1.22,1.22,0,0,0,1.07.65,1.31,1.31,0,0,0,.87-.46A1.25,1.25,0,0,0,198.49,80.77Z"/><path class="cls-18" d="M10.56,108.57a1,1,0,0,0-.31-.56,1.12,1.12,0,0,0-.57-.32,1.23,1.23,0,0,0-.66,0,1.15,1.15,0,0,0-.8,1,1.16,1.16,0,0,0,.54,1.1,1.18,1.18,0,0,0,.63.18,1.34,1.34,0,0,0,.88-.46,1.2,1.2,0,0,0,.29-.92Z"/><path class="cls-18" d="M34.06,108.57a1.21,1.21,0,0,0-2.09-.49,1.08,1.08,0,0,0-.25.59,1.1,1.1,0,0,0,.1.62,1.2,1.2,0,0,0,.44.48,1.16,1.16,0,0,0,.63.18,1.31,1.31,0,0,0,.87-.46A1.25,1.25,0,0,0,34.06,108.57Z"/><path class="cls-18" d="M57.54,108.57a1.18,1.18,0,0,0-.88-.88,1.23,1.23,0,0,0-.66,0,1.15,1.15,0,0,0-.8,1,1,1,0,0,0,.11.62,1.11,1.11,0,0,0,.43.48,1.18,1.18,0,0,0,.63.18,1.34,1.34,0,0,0,.88-.46,1.24,1.24,0,0,0,.29-.92Z"/><path class="cls-18" d="M81,108.57a1.18,1.18,0,0,0-.89-.88,1.24,1.24,0,0,0-.66,0,1.15,1.15,0,0,0-.8,1,1.11,1.11,0,0,0,.11.62,1.2,1.2,0,0,0,.44.48,1.13,1.13,0,0,0,.63.18,1.36,1.36,0,0,0,.88-.46,1.29,1.29,0,0,0,.29-.92Z"/><path class="cls-18" d="M104.52,108.57a1.11,1.11,0,0,0-.31-.56,1.16,1.16,0,0,0-.57-.32,1.23,1.23,0,0,0-.66,0,1.15,1.15,0,0,0-.8,1,1.1,1.1,0,0,0,.1.62,1.2,1.2,0,0,0,.44.48,1.18,1.18,0,0,0,.63.18,1.34,1.34,0,0,0,.88-.46A1.24,1.24,0,0,0,104.52,108.57Z"/><path class="cls-18" d="M128,108.57a1,1,0,0,0-.31-.56,1.12,1.12,0,0,0-.57-.32,1.24,1.24,0,0,0-.66,0,1.15,1.15,0,0,0-.8,1,1.11,1.11,0,0,0,.11.62,1.17,1.17,0,0,0,.43.48,1.19,1.19,0,0,0,.64.18,1.31,1.31,0,0,0,.87-.46,1.2,1.2,0,0,0,.29-.92Z"/><path class="cls-18" d="M151.51,108.57a1.14,1.14,0,0,0-.31-.57,1.29,1.29,0,0,0-.58-.33,1.23,1.23,0,0,0-.66,0,1.17,1.17,0,0,0-.55.37,1,1,0,0,0-.26.59,1.12,1.12,0,0,0,.1.63,1.16,1.16,0,0,0,.45.48,1.19,1.19,0,0,0,.64.18,1.36,1.36,0,0,0,.88-.46A1.29,1.29,0,0,0,151.51,108.57Z"/><path class="cls-18" d="M175,108.57a1,1,0,0,0-.31-.56,1.12,1.12,0,0,0-.57-.32,1.24,1.24,0,0,0-.66,0,1.15,1.15,0,0,0-.8,1,1,1,0,0,0,.11.62,1.11,1.11,0,0,0,.43.48,1.19,1.19,0,0,0,.64.18,1.31,1.31,0,0,0,.87-.46,1.2,1.2,0,0,0,.29-.92Z"/><path class="cls-18" d="M198.49,108.57a1.21,1.21,0,0,0-2.09-.49,1.08,1.08,0,0,0-.25.59,1.1,1.1,0,0,0,.1.62,1.2,1.2,0,0,0,.44.48,1.18,1.18,0,0,0,.63.18,1.31,1.31,0,0,0,.87-.46A1.25,1.25,0,0,0,198.49,108.57Z"/><path class="cls-18" d="M10.56,136.37a1,1,0,0,0-.31-.56,1.12,1.12,0,0,0-.57-.32,1.23,1.23,0,0,0-.66,0,1.16,1.16,0,0,0-.8.94,1.13,1.13,0,0,0,.11.63,1.11,1.11,0,0,0,.43.48,1.18,1.18,0,0,0,.63.18,1.34,1.34,0,0,0,.88-.46,1.2,1.2,0,0,0,.29-.92Z"/><path class="cls-18" d="M34.06,136.37a1.21,1.21,0,0,0-2.09-.49,1.08,1.08,0,0,0-.25.58,1.12,1.12,0,0,0,.1.63,1.2,1.2,0,0,0,.44.48,1.16,1.16,0,0,0,.63.18,1.31,1.31,0,0,0,.87-.46,1.25,1.25,0,0,0,.3-.92Z"/><path class="cls-18" d="M57.54,136.37a1.18,1.18,0,0,0-.88-.88,1.23,1.23,0,0,0-.66,0,1.16,1.16,0,0,0-.8.94,1,1,0,0,0,.11.63,1.11,1.11,0,0,0,.43.48,1.18,1.18,0,0,0,.63.18,1.34,1.34,0,0,0,.88-.46,1.24,1.24,0,0,0,.29-.92Z"/><path class="cls-18" d="M81,136.37a1.18,1.18,0,0,0-.89-.88,1.24,1.24,0,0,0-.66,0,1.16,1.16,0,0,0-.8.94,1.13,1.13,0,0,0,.11.63,1.2,1.2,0,0,0,.44.48,1.13,1.13,0,0,0,.63.18,1.36,1.36,0,0,0,.88-.46,1.29,1.29,0,0,0,.29-.92Z"/><path class="cls-18" d="M104.52,136.37a1.11,1.11,0,0,0-.31-.56,1.16,1.16,0,0,0-.57-.32,1.23,1.23,0,0,0-.66,0,1.16,1.16,0,0,0-.8.94,1.12,1.12,0,0,0,.1.63,1.2,1.2,0,0,0,.44.48,1.18,1.18,0,0,0,.63.18,1.34,1.34,0,0,0,.88-.46A1.24,1.24,0,0,0,104.52,136.37Z"/><path class="cls-18" d="M128,136.37a1,1,0,0,0-.31-.56,1.12,1.12,0,0,0-.57-.32,1.24,1.24,0,0,0-.66,0,1.16,1.16,0,0,0-.8.94,1.13,1.13,0,0,0,.11.63,1.17,1.17,0,0,0,.43.48,1.19,1.19,0,0,0,.64.18,1.31,1.31,0,0,0,.87-.46,1.2,1.2,0,0,0,.29-.92Z"/><path class="cls-18" d="M151.51,136.37a1.1,1.1,0,0,0-.31-.57,1.29,1.29,0,0,0-.58-.33,1.23,1.23,0,0,0-.66,0,1.15,1.15,0,0,0-.55.36,1.05,1.05,0,0,0-.26.6,1.1,1.1,0,0,0,.55,1.11,1.19,1.19,0,0,0,.64.18,1.36,1.36,0,0,0,.88-.46,1.29,1.29,0,0,0,.29-.92Z"/><path class="cls-18" d="M175,136.37a1,1,0,0,0-.31-.56,1.12,1.12,0,0,0-.57-.32,1.24,1.24,0,0,0-.66,0,1.16,1.16,0,0,0-.8.94,1,1,0,0,0,.11.63,1.11,1.11,0,0,0,.43.48,1.19,1.19,0,0,0,.64.18,1.31,1.31,0,0,0,.87-.46A1.2,1.2,0,0,0,175,136.37Z"/><path class="cls-18" d="M198.49,136.37a1.21,1.21,0,0,0-2.09-.49,1.08,1.08,0,0,0-.25.58,1.12,1.12,0,0,0,.1.63,1.2,1.2,0,0,0,.44.48,1.18,1.18,0,0,0,.63.18,1.31,1.31,0,0,0,.87-.46,1.25,1.25,0,0,0,.3-.92Z"/><path class="cls-18" d="M10.56,164.16a1.07,1.07,0,0,0-.31-.57,1.19,1.19,0,0,0-.58-.32,1.23,1.23,0,0,0-.66,0,1.18,1.18,0,0,0-.81,1,1.15,1.15,0,0,0,.55,1.11,1.24,1.24,0,0,0,.64.18,1.32,1.32,0,0,0,.88-.47A1.2,1.2,0,0,0,10.56,164.16Z"/><path class="cls-18" d="M34.06,164.16a1.16,1.16,0,0,0-.32-.57,1.12,1.12,0,0,0-.57-.32,1.23,1.23,0,0,0-1.22.4,1.08,1.08,0,0,0-.25.59,1,1,0,0,0,.11.63,1.08,1.08,0,0,0,.44.48,1.19,1.19,0,0,0,.64.18,1.32,1.32,0,0,0,.87-.47,1.25,1.25,0,0,0,.3-.92Z"/><path class="cls-18" d="M57.54,164.16a1.14,1.14,0,0,0-.31-.57,1.19,1.19,0,0,0-.58-.32,1.23,1.23,0,0,0-.66,0,1.18,1.18,0,0,0-.81,1,1,1,0,0,0,.11.63,1.14,1.14,0,0,0,.44.48,1.21,1.21,0,0,0,.64.18,1.35,1.35,0,0,0,.88-.47,1.24,1.24,0,0,0,.29-.92Z"/><path class="cls-18" d="M81,164.16a1.16,1.16,0,0,0-.32-.57,1.11,1.11,0,0,0-.58-.32,1.23,1.23,0,0,0-.66,0,1.28,1.28,0,0,0-.55.37,1.17,1.17,0,0,0-.26.59,1.22,1.22,0,0,0,.11.63,1.16,1.16,0,0,0,.45.48,1.19,1.19,0,0,0,.64.18,1.37,1.37,0,0,0,.88-.47A1.29,1.29,0,0,0,81,164.16Z"/><path class="cls-18" d="M104.52,164.16a1.23,1.23,0,0,0-.31-.57,1.19,1.19,0,0,0-.58-.32,1.27,1.27,0,0,0-.67,0,1.19,1.19,0,0,0-.54.37,1.17,1.17,0,0,0-.26.59,1,1,0,0,0,.11.63,1.14,1.14,0,0,0,.44.48,1.21,1.21,0,0,0,.64.18,1.35,1.35,0,0,0,.88-.47,1.24,1.24,0,0,0,.29-.92Z"/><path class="cls-18" d="M128,164.16a1.07,1.07,0,0,0-.31-.57,1.19,1.19,0,0,0-.58-.32,1.23,1.23,0,0,0-.66,0,1.18,1.18,0,0,0-.81,1,1.13,1.13,0,0,0,.11.63,1.1,1.1,0,0,0,.45.48,1.19,1.19,0,0,0,.64.18,1.37,1.37,0,0,0,.88-.47,1.24,1.24,0,0,0,.28-.92Z"/><path class="cls-18" d="M151.51,164.16a1.23,1.23,0,0,0-.31-.57,1.19,1.19,0,0,0-.58-.32,1.27,1.27,0,0,0-.67,0,1.19,1.19,0,0,0-.54.37,1,1,0,0,0-.26.59,1,1,0,0,0,.11.63,1.08,1.08,0,0,0,.44.48,1.19,1.19,0,0,0,.64.18,1.37,1.37,0,0,0,.88-.47,1.29,1.29,0,0,0,.29-.92Z"/><path class="cls-18" d="M175,164.16a1.07,1.07,0,0,0-.31-.57,1.19,1.19,0,0,0-.58-.32,1.23,1.23,0,0,0-.66,0,1.18,1.18,0,0,0-.81,1,1.15,1.15,0,0,0,.55,1.11,1.25,1.25,0,0,0,.65.18,1.32,1.32,0,0,0,.87-.47A1.2,1.2,0,0,0,175,164.16Z"/><path class="cls-18" d="M198.49,164.16a1.23,1.23,0,0,0-.31-.57,1.19,1.19,0,0,0-.58-.32,1.27,1.27,0,0,0-.67,0,1.19,1.19,0,0,0-.54.37,1,1,0,0,0-.26.59,1,1,0,0,0,.11.63,1.08,1.08,0,0,0,.44.48,1.19,1.19,0,0,0,.64.18,1.32,1.32,0,0,0,.87-.47,1.25,1.25,0,0,0,.3-.92Z"/><path class="cls-18" d="M10.56,192a1.07,1.07,0,0,0-.31-.57,1.18,1.18,0,0,0-.57-.31,1.23,1.23,0,0,0-.66,0,1.1,1.1,0,0,0-.54.36,1.18,1.18,0,0,0-.26.58,1.14,1.14,0,0,0,.11.63,1.11,1.11,0,0,0,.43.48,1.28,1.28,0,0,0,.63.18,1.38,1.38,0,0,0,.88-.46,1.24,1.24,0,0,0,.29-.92Z"/><path class="cls-18" d="M34.06,192a1.23,1.23,0,0,0-.31-.57,1.26,1.26,0,0,0-.58-.31,1.2,1.2,0,0,0-.65,0,1.13,1.13,0,0,0-.55.36,1.08,1.08,0,0,0-.25.58,1.14,1.14,0,0,0,.1.63,1.2,1.2,0,0,0,.44.48,1.25,1.25,0,0,0,.63.18,1.35,1.35,0,0,0,.87-.47,1.26,1.26,0,0,0,.3-.91Z"/><path class="cls-18" d="M57.54,192a1.14,1.14,0,0,0-.31-.57,1.18,1.18,0,0,0-.57-.31,1.23,1.23,0,0,0-.66,0,1.1,1.1,0,0,0-.54.36,1.18,1.18,0,0,0-.26.58,1.06,1.06,0,0,0,.11.63,1.11,1.11,0,0,0,.43.48,1.28,1.28,0,0,0,.63.18,1.38,1.38,0,0,0,.88-.46,1.24,1.24,0,0,0,.29-.92Z"/><path class="cls-18" d="M81,192a1.23,1.23,0,0,0-.31-.57,1.26,1.26,0,0,0-.58-.31,1.24,1.24,0,0,0-.66,0,1.1,1.1,0,0,0-.54.36,1.18,1.18,0,0,0-.26.58,1.14,1.14,0,0,0,.11.63,1.2,1.2,0,0,0,.44.48,1.22,1.22,0,0,0,.63.18,1.38,1.38,0,0,0,.87-.46A1.25,1.25,0,0,0,81,192Z"/><path class="cls-18" d="M104.52,192a1.14,1.14,0,0,0-.31-.57,1.22,1.22,0,0,0-1.23-.28,1.1,1.1,0,0,0-.54.36,1.18,1.18,0,0,0-.26.58,1.14,1.14,0,0,0,.1.63,1.2,1.2,0,0,0,.44.48,1.28,1.28,0,0,0,.63.18,1.41,1.41,0,0,0,.88-.46,1.24,1.24,0,0,0,.29-.92Z"/><path class="cls-18" d="M128,192a1.07,1.07,0,0,0-.31-.57,1.18,1.18,0,0,0-.57-.31,1.24,1.24,0,0,0-.66,0,1.1,1.1,0,0,0-.54.36,1.18,1.18,0,0,0-.26.58,1.14,1.14,0,0,0,.11.63,1.17,1.17,0,0,0,.43.48,1.28,1.28,0,0,0,.64.18,1.38,1.38,0,0,0,.87-.46A1.24,1.24,0,0,0,128,192Z"/><path class="cls-18" d="M151.51,192a1.17,1.17,0,0,0-.31-.58,1.28,1.28,0,0,0-.58-.32,1.23,1.23,0,0,0-.66,0,1.15,1.15,0,0,0-.55.36,1.05,1.05,0,0,0-.26.6,1.1,1.1,0,0,0,.55,1.11,1.19,1.19,0,0,0,.64.18,1.35,1.35,0,0,0,.87-.47,1.22,1.22,0,0,0,.3-.91Z"/><path class="cls-18" d="M175,192a1.07,1.07,0,0,0-.31-.57,1.18,1.18,0,0,0-.57-.31,1.24,1.24,0,0,0-.66,0,1.1,1.1,0,0,0-.54.36,1.18,1.18,0,0,0-.26.58,1.06,1.06,0,0,0,.11.63,1.11,1.11,0,0,0,.43.48,1.28,1.28,0,0,0,.64.18,1.38,1.38,0,0,0,.87-.46A1.24,1.24,0,0,0,175,192Z"/><path class="cls-18" d="M198.49,192a1.23,1.23,0,0,0-.31-.57,1.28,1.28,0,0,0-.57-.31,1.23,1.23,0,0,0-.66,0,1.13,1.13,0,0,0-.55.36,1.08,1.08,0,0,0-.25.58,1.14,1.14,0,0,0,.1.63,1.2,1.2,0,0,0,.44.48,1.28,1.28,0,0,0,.63.18,1.35,1.35,0,0,0,.87-.47A1.26,1.26,0,0,0,198.49,192Z"/><path class="cls-18" d="M10.56,219.75a1.08,1.08,0,0,0-.31-.56,1.18,1.18,0,0,0-.57-.31,1.34,1.34,0,0,0-.66,0,1.19,1.19,0,0,0-.54.37,1.09,1.09,0,0,0-.15,1.21,1.11,1.11,0,0,0,.43.48,1.28,1.28,0,0,0,.63.18,1.34,1.34,0,0,0,.88-.46,1.21,1.21,0,0,0,.29-.93Z"/><path class="cls-18" d="M34.06,219.75a1.24,1.24,0,0,0-.31-.56,1.26,1.26,0,0,0-.58-.31,1.3,1.3,0,0,0-.65,0,1.22,1.22,0,0,0-.55.37,1,1,0,0,0-.25.58,1.14,1.14,0,0,0,.1.63,1.2,1.2,0,0,0,.44.48,1.25,1.25,0,0,0,.63.18,1.32,1.32,0,0,0,.87-.47A1.23,1.23,0,0,0,34.06,219.75Z"/><path class="cls-18" d="M57.54,219.75a1.16,1.16,0,0,0-.31-.56,1.18,1.18,0,0,0-.57-.31,1.34,1.34,0,0,0-.66,0,1.19,1.19,0,0,0-.54.37,1.14,1.14,0,0,0-.26.58,1.06,1.06,0,0,0,.11.63,1.11,1.11,0,0,0,.43.48,1.28,1.28,0,0,0,.63.18,1.34,1.34,0,0,0,.88-.46,1.25,1.25,0,0,0,.29-.93Z"/><path class="cls-18" d="M81,219.75a1.24,1.24,0,0,0-.31-.56,1.26,1.26,0,0,0-.58-.31,1.35,1.35,0,0,0-.66,0,1.19,1.19,0,0,0-.54.37,1.09,1.09,0,0,0-.15,1.21,1.2,1.2,0,0,0,.44.48,1.22,1.22,0,0,0,.63.18,1.36,1.36,0,0,0,.88-.46,1.3,1.3,0,0,0,.29-.93Z"/><path class="cls-18" d="M104.52,219.75a1.16,1.16,0,0,0-.31-.56,1.23,1.23,0,0,0-.57-.31,1.34,1.34,0,0,0-.66,0,1.19,1.19,0,0,0-.54.37,1.12,1.12,0,0,0-.16,1.21,1.2,1.2,0,0,0,.44.48,1.28,1.28,0,0,0,.63.18,1.34,1.34,0,0,0,.88-.46A1.25,1.25,0,0,0,104.52,219.75Z"/><path class="cls-18" d="M128,219.75a1.08,1.08,0,0,0-.31-.56,1.18,1.18,0,0,0-.57-.31,1.34,1.34,0,0,0-.66,0,1.19,1.19,0,0,0-.54.37,1.09,1.09,0,0,0-.15,1.21,1.17,1.17,0,0,0,.43.48,1.28,1.28,0,0,0,.64.18,1.31,1.31,0,0,0,.87-.46,1.21,1.21,0,0,0,.29-.93Z"/><path class="cls-18" d="M151.51,219.75a1.19,1.19,0,0,0-.31-.57,1.28,1.28,0,0,0-.58-.32,1.23,1.23,0,0,0-.66,0,1.15,1.15,0,0,0-.55.36,1.05,1.05,0,0,0-.26.59,1.17,1.17,0,0,0,.1.64,1.22,1.22,0,0,0,.45.48,1.19,1.19,0,0,0,.64.18,1.41,1.41,0,0,0,.88-.46A1.3,1.3,0,0,0,151.51,219.75Z"/><path class="cls-18" d="M175,219.75a1.08,1.08,0,0,0-.31-.56,1.18,1.18,0,0,0-.57-.31,1.34,1.34,0,0,0-.66,0,1.19,1.19,0,0,0-.54.37,1.14,1.14,0,0,0-.26.58,1.06,1.06,0,0,0,.11.63,1.11,1.11,0,0,0,.43.48,1.28,1.28,0,0,0,.64.18,1.31,1.31,0,0,0,.87-.46A1.21,1.21,0,0,0,175,219.75Z"/><path class="cls-18" d="M198.49,219.75a1.24,1.24,0,0,0-.31-.56,1.26,1.26,0,0,0-.58-.31,1.3,1.3,0,0,0-.65,0,1.22,1.22,0,0,0-.55.37,1,1,0,0,0-.25.58,1.14,1.14,0,0,0,.1.63,1.2,1.2,0,0,0,.44.48,1.28,1.28,0,0,0,.63.18,1.32,1.32,0,0,0,.87-.47A1.23,1.23,0,0,0,198.49,219.75Z"/><path class="cls-18" d="M10.56,247.55a1.08,1.08,0,0,0-.31-.56,1.18,1.18,0,0,0-.57-.31,1.34,1.34,0,0,0-.66,0,1.19,1.19,0,0,0-.54.37,1.09,1.09,0,0,0-.15,1.21,1.16,1.16,0,0,0,.43.48,1.39,1.39,0,0,0,.63.18,1.38,1.38,0,0,0,.88-.46,1.21,1.21,0,0,0,.29-.93Z"/><path class="cls-18" d="M34.06,247.55a1.24,1.24,0,0,0-.31-.56,1.26,1.26,0,0,0-.58-.31,1.3,1.3,0,0,0-.65,0,1.22,1.22,0,0,0-.55.37,1,1,0,0,0-.25.58,1.14,1.14,0,0,0,.1.63,1.26,1.26,0,0,0,.44.48,1.36,1.36,0,0,0,.63.18,1.32,1.32,0,0,0,.87-.47,1.23,1.23,0,0,0,.3-.92Z"/><path class="cls-18" d="M57.54,247.55a1.16,1.16,0,0,0-.31-.56,1.18,1.18,0,0,0-.57-.31,1.34,1.34,0,0,0-.66,0,1.19,1.19,0,0,0-.54.37,1.14,1.14,0,0,0-.26.58,1.06,1.06,0,0,0,.11.63,1.16,1.16,0,0,0,.43.48,1.11,1.11,0,0,0,1.51-.28,1.25,1.25,0,0,0,.29-.93Z"/><path class="cls-18" d="M81,247.55a1.24,1.24,0,0,0-.31-.56,1.26,1.26,0,0,0-.58-.31,1.35,1.35,0,0,0-.66,0,1.19,1.19,0,0,0-.54.37,1.09,1.09,0,0,0-.15,1.21,1.26,1.26,0,0,0,.44.48,1.32,1.32,0,0,0,.63.18,1.41,1.41,0,0,0,.88-.46,1.3,1.3,0,0,0,.29-.93Z"/><path class="cls-18" d="M104.52,247.55a1.16,1.16,0,0,0-.31-.56,1.23,1.23,0,0,0-.57-.31,1.34,1.34,0,0,0-.66,0,1.19,1.19,0,0,0-.54.37,1.12,1.12,0,0,0-.16,1.21,1.26,1.26,0,0,0,.44.48,1.11,1.11,0,0,0,1.51-.28A1.25,1.25,0,0,0,104.52,247.55Z"/><path class="cls-18" d="M128,247.55a1.08,1.08,0,0,0-.31-.56,1.18,1.18,0,0,0-.57-.31,1.34,1.34,0,0,0-.66,0,1.19,1.19,0,0,0-.54.37,1.09,1.09,0,0,0-.15,1.21,1.24,1.24,0,0,0,.43.48,1.4,1.4,0,0,0,.64.18,1.36,1.36,0,0,0,.87-.46,1.21,1.21,0,0,0,.29-.93Z"/><path class="cls-18" d="M151.51,247.55a1.17,1.17,0,0,0-.89-.89,1.23,1.23,0,0,0-.66,0,1.15,1.15,0,0,0-.55.36,1.05,1.05,0,0,0-.26.59,1.17,1.17,0,0,0,.1.64,1.22,1.22,0,0,0,.45.48,1.19,1.19,0,0,0,.64.18,1.37,1.37,0,0,0,.88-.47,1.26,1.26,0,0,0,.29-.92Z"/><path class="cls-18" d="M175,247.55a1.08,1.08,0,0,0-.31-.56,1.18,1.18,0,0,0-.57-.31,1.34,1.34,0,0,0-.66,0,1.19,1.19,0,0,0-.54.37,1.14,1.14,0,0,0-.26.58,1.06,1.06,0,0,0,.11.63,1.16,1.16,0,0,0,.43.48,1.4,1.4,0,0,0,.64.18,1.36,1.36,0,0,0,.87-.46A1.21,1.21,0,0,0,175,247.55Z"/><path class="cls-18" d="M198.49,247.55a1.24,1.24,0,0,0-.31-.56,1.26,1.26,0,0,0-.58-.31,1.3,1.3,0,0,0-.65,0,1.22,1.22,0,0,0-.55.37,1,1,0,0,0-.25.58,1.14,1.14,0,0,0,.1.63,1.26,1.26,0,0,0,.44.48,1.39,1.39,0,0,0,.63.18,1.32,1.32,0,0,0,.87-.47,1.23,1.23,0,0,0,.3-.92Z"/><path class="cls-18" d="M10.56,275.35a1.08,1.08,0,0,0-.31-.56,1.18,1.18,0,0,0-.57-.31,1.14,1.14,0,0,0-.66,0,1.19,1.19,0,0,0-.54.37,1.14,1.14,0,0,0-.26.58,1.16,1.16,0,0,0,.11.63,1.08,1.08,0,0,0,.43.47,1.18,1.18,0,0,0,.63.18,1.29,1.29,0,0,0,.88-.46,1.18,1.18,0,0,0,.29-.92Z"/><path class="cls-18" d="M34.06,275.35a1.24,1.24,0,0,0-.31-.56,1.26,1.26,0,0,0-.58-.31,1.11,1.11,0,0,0-.65,0,1.22,1.22,0,0,0-.55.37,1,1,0,0,0-.25.58,1.15,1.15,0,0,0,.1.63,1.17,1.17,0,0,0,.44.47,1.16,1.16,0,0,0,.63.18,1.27,1.27,0,0,0,.87-.46,1.25,1.25,0,0,0,.3-.92Z"/><path class="cls-18" d="M57.54,275.35a1.16,1.16,0,0,0-.31-.56,1.18,1.18,0,0,0-.57-.31,1.14,1.14,0,0,0-.66,0,1.19,1.19,0,0,0-.54.37,1.14,1.14,0,0,0-.26.58,1.14,1.14,0,0,0,.54,1.1,1.18,1.18,0,0,0,.63.18,1.29,1.29,0,0,0,.88-.46,1.22,1.22,0,0,0,.29-.92Z"/><path class="cls-18" d="M81,275.35a1.24,1.24,0,0,0-.31-.56,1.26,1.26,0,0,0-.58-.31,1.15,1.15,0,0,0-.66,0,1.19,1.19,0,0,0-.54.37,1.14,1.14,0,0,0-.26.58,1.12,1.12,0,0,0,.55,1.1,1.13,1.13,0,0,0,.63.18,1.32,1.32,0,0,0,.88-.46,1.26,1.26,0,0,0,.29-.92Z"/><path class="cls-18" d="M104.52,275.35a1.16,1.16,0,0,0-.31-.56,1.23,1.23,0,0,0-.57-.31,1.14,1.14,0,0,0-.66,0,1.19,1.19,0,0,0-.54.37,1.14,1.14,0,0,0-.26.58,1.15,1.15,0,0,0,.1.63,1.22,1.22,0,0,0,1.07.65,1.29,1.29,0,0,0,.88-.46A1.22,1.22,0,0,0,104.52,275.35Z"/><path class="cls-18" d="M128,275.35a1.08,1.08,0,0,0-.31-.56,1.18,1.18,0,0,0-.57-.31,1.14,1.14,0,0,0-.66,0,1.19,1.19,0,0,0-.54.37,1.14,1.14,0,0,0-.26.58,1.16,1.16,0,0,0,.11.63,1.15,1.15,0,0,0,.43.47,1.19,1.19,0,0,0,.64.18,1.27,1.27,0,0,0,.87-.46,1.18,1.18,0,0,0,.29-.92Z"/><path class="cls-18" d="M151.51,275.35a1.17,1.17,0,0,0-.89-.89,1.34,1.34,0,0,0-.66,0,1.17,1.17,0,0,0-.55.37,1.05,1.05,0,0,0-.26.59,1.17,1.17,0,0,0,.1.64,1.22,1.22,0,0,0,.45.48,1.19,1.19,0,0,0,.64.18,1.37,1.37,0,0,0,.88-.47,1.27,1.27,0,0,0,.29-.92Z"/><path class="cls-18" d="M175,275.35a1.08,1.08,0,0,0-.31-.56,1.18,1.18,0,0,0-.57-.31,1.14,1.14,0,0,0-.66,0,1.19,1.19,0,0,0-.54.37,1.14,1.14,0,0,0-.26.58,1.14,1.14,0,0,0,.54,1.1,1.19,1.19,0,0,0,.64.18,1.27,1.27,0,0,0,.87-.46A1.18,1.18,0,0,0,175,275.35Z"/><path class="cls-18" d="M198.49,275.35a1.24,1.24,0,0,0-.31-.56,1.26,1.26,0,0,0-.58-.31,1.11,1.11,0,0,0-.65,0,1.22,1.22,0,0,0-.55.37,1,1,0,0,0-.25.58,1.15,1.15,0,0,0,.1.63,1.22,1.22,0,0,0,1.07.65,1.27,1.27,0,0,0,.87-.46,1.25,1.25,0,0,0,.3-.92Z"/><path class="cls-18" d="M244.4,25.31H220.68V-2.76H244.4ZM220.91,25h23.22V-2.49H220.87Z"/><path class="cls-18" d="M267.89,25.31H244.13V-2.76h23.72ZM244.4,25h23.28V-2.49H244.42Z"/><path class="cls-18" d="M291.38,25.31h-23.7V-2.76H291.4ZM267.89,25h23.26V-2.49H267.89Z"/><path class="cls-18" d="M314.87,25.31H291.15V-2.76h23.72ZM291.38,25h23.26V-2.49H291.38Z"/><path class="cls-18" d="M338.34,25.31H314.62V-2.76h23.72ZM314.85,25h23.26V-2.49H314.85Z"/><path class="cls-18" d="M361.9,25.31H338.18V-2.76H361.9ZM338.41,25h23.26V-2.49H338.34Z"/><path class="cls-18" d="M385.34,25.31H361.62V-2.76h23.72ZM361.85,25h23.26V-2.49H361.9Z"/><path class="cls-18" d="M244.4,53.1H220.68V25H244.4Zm-23.49-.26h23.22V25.31H220.87Z"/><path class="cls-18" d="M267.89,53.1H244.13V25h23.72Zm-23.49-.26h23.28V25.31H244.42Z"/><path class="cls-18" d="M291.38,53.1h-23.7V25H291.4Zm-23.49-.26h23.26V25.31H267.89Z"/><path class="cls-18" d="M314.87,53.1H291.15V25h23.72Zm-23.49-.26h23.26V25.31H291.38Z"/><path class="cls-18" d="M338.34,53.1H314.62V25h23.72Zm-23.49-.26h23.26V25.31H314.85Z"/><path class="cls-18" d="M361.9,53.1H338.18V25H361.9Zm-23.49-.26h23.26V25.31H338.34Z"/><path class="cls-18" d="M385.34,53.1H361.62V25h23.72Zm-23.49-.26h23.26V25.31H361.9Z"/><path class="cls-18" d="M244.4,80.9H220.68V52.84H244.4Zm-23.49-.27h23.22V53.1H220.87Z"/><path class="cls-18" d="M267.89,80.9H244.13V52.84h23.72Zm-23.49-.27h23.28V53.1H244.42Z"/><path class="cls-18" d="M291.38,80.9h-23.7V52.84H291.4Zm-23.49-.27h23.26V53.1H267.89Z"/><path class="cls-18" d="M314.87,80.9H291.15V52.84h23.72Zm-23.49-.27h23.26V53.1H291.38Z"/><path class="cls-18" d="M338.34,80.9H314.62V52.84h23.72Zm-23.49-.27h23.26V53.1H314.85Z"/><path class="cls-18" d="M361.9,80.9H338.18V52.84H361.9Zm-23.49-.27h23.26V53.1H338.34Z"/><path class="cls-18" d="M385.34,80.9H361.62V52.84h23.72Zm-23.49-.27h23.26V53.1H361.9Z"/><path class="cls-18" d="M244.4,108.7H220.68V80.63H244.4Zm-23.49-.27h23.22V80.9H220.87Z"/><path class="cls-18" d="M267.89,108.7H244.13V80.63h23.72Zm-23.49-.27h23.28V80.9H244.42Z"/><path class="cls-18" d="M291.38,108.7h-23.7V80.63H291.4Zm-23.49-.27h23.26V80.9H267.89Z"/><path class="cls-18" d="M314.87,108.7H291.15V80.63h23.72Zm-23.49-.27h23.26V80.9H291.38Z"/><path class="cls-18" d="M338.34,108.7H314.62V80.63h23.72Zm-23.49-.27h23.26V80.9H314.85Z"/><path class="cls-18" d="M361.9,108.7H338.18V80.63H361.9Zm-23.56-.27H361.6V80.9H338.34Z"/><path class="cls-18" d="M385.34,108.7H361.62V80.63h23.72Zm-23.44-.27h23.26V80.9H361.9Z"/><path class="cls-18" d="M244.4,136.5H220.68V108.43H244.4Zm-23.49-.28h23.22V108.7H220.87Z"/><path class="cls-18" d="M267.89,136.5H244.13V108.43h23.72Zm-23.49-.28h23.28V108.7H244.42Z"/><path class="cls-18" d="M291.38,136.5h-23.7V108.43H291.4Zm-23.49-.28h23.26V108.7H267.89Z"/><path class="cls-18" d="M314.87,136.5H291.15V108.43h23.72Zm-23.49-.28h23.26V108.7H291.38Z"/><path class="cls-18" d="M338.34,136.5H314.62V108.43h23.72Zm-23.49-.28h23.26V108.7H314.85Z"/><path class="cls-18" d="M361.9,136.5H338.18V108.43H361.9Zm-23.49-.28h23.26V108.7H338.34Z"/><path class="cls-18" d="M385.34,136.5H361.62V108.43h23.72Zm-23.49-.28h23.26V108.7H361.9Z"/><path class="cls-18" d="M244.4,164.3H220.68V136.22H244.4ZM220.91,164h23.22V136.5H220.87Z"/><path class="cls-18" d="M267.89,164.3H244.13V136.22h23.72ZM244.4,164h23.28V136.5H244.42Z"/><path class="cls-18" d="M291.38,164.3h-23.7V136.22H291.4ZM267.89,164h23.26V136.5H267.89Z"/><path class="cls-18" d="M314.87,164.3H291.15V136.22h23.72ZM291.38,164h23.26V136.5H291.38Z"/><path class="cls-18" d="M338.34,164.3H314.62V136.22h23.72ZM314.85,164h23.26V136.5H314.85Z"/><path class="cls-18" d="M361.9,164.3H338.18V136.22H361.9ZM338.41,164h23.26V136.5H338.34Z"/><path class="cls-18" d="M385.34,164.3H361.62V136.22h23.72ZM361.85,164h23.26V136.5H361.9Z"/><path class="cls-18" d="M244.4,192.1H220.68V164H244.4Zm-23.49-.28h23.22V164.3H220.87Z"/><path class="cls-18" d="M267.89,192.1H244.13V164h23.72Zm-23.49-.28h23.28V164.3H244.42Z"/><path class="cls-18" d="M291.38,192.1h-23.7V164H291.4Zm-23.49-.28h23.26V164.3H267.89Z"/><path class="cls-18" d="M314.87,192.1H291.15V164h23.72Zm-23.49-.28h23.26V164.3H291.38Z"/><path class="cls-18" d="M338.34,192.1H314.62V164h23.72Zm-23.49-.28h23.26V164.3H314.85Z"/><path class="cls-18" d="M361.9,192.1H338.18V164H361.9Zm-23.56-.26H361.6V164.3H338.34Z"/><path class="cls-18" d="M385.34,192.1H361.62V164h23.72Zm-23.44-.26h23.26V164.3H361.9Z"/><path class="cls-18" d="M244.4,219.9H220.68V191.84H244.4Zm-23.49-.28h23.22V192.1H220.87Z"/><path class="cls-18" d="M267.89,219.9H244.13V191.84h23.72Zm-23.49-.28h23.28V192.1H244.42Z"/><path class="cls-18" d="M291.38,219.9h-23.7V191.84H291.4Zm-23.49-.28h23.26V192.1H267.89Z"/><path class="cls-18" d="M314.87,219.9H291.15V191.84h23.72Zm-23.49-.28h23.26V192.1H291.38Z"/><path class="cls-18" d="M338.34,219.9H314.62V191.84h23.72Zm-23.49-.28h23.26V192.1H314.85Z"/><path class="cls-18" d="M361.9,219.9H338.18V191.84H361.9Zm-23.49-.28h23.26V192.1H338.34Z"/><path class="cls-18" d="M385.34,219.9H361.62V191.84h23.72Zm-23.49-.28h23.26V192.1H361.9Z"/><path class="cls-18" d="M244.4,247.71H220.68V219.62H244.4Zm-23.49-.27h23.22V219.9H220.87Z"/><path class="cls-18" d="M267.89,247.71H244.13V219.62h23.72Zm-23.49-.27h23.28V219.9H244.42Z"/><path class="cls-18" d="M291.38,247.71h-23.7V219.62H291.4Zm-23.49-.27h23.26V219.9H267.89Z"/><path class="cls-18" d="M314.87,247.71H291.15V219.62h23.72Zm-23.49-.27h23.26V219.9H291.38Z"/><path class="cls-18" d="M338.34,247.71H314.62V219.62h23.72Zm-23.49-.27h23.26V219.9H314.85Z"/><path class="cls-18" d="M361.9,247.71H338.18V219.62H361.9Zm-23.56-.29H361.6V219.9H338.34Z"/><path class="cls-18" d="M385.34,247.71H361.62V219.62h23.72Zm-23.44-.29h23.26V219.9H361.9Z"/><path class="cls-18" d="M244.4,275.49H220.68V247.42H244.4Zm-23.49-.28h23.22v-27.5H220.87Z"/><path class="cls-18" d="M267.89,275.49H244.13V247.42h23.72Zm-23.49-.28h23.28v-27.5H244.42Z"/><path class="cls-18" d="M291.38,275.49h-23.7V247.42H291.4Zm-23.49-.28h23.26v-27.5H267.89Z"/><path class="cls-18" d="M314.87,275.49H291.15V247.42h23.72Zm-23.49-.28h23.26v-27.5H291.38Z"/><path class="cls-18" d="M338.34,275.49H314.62V247.42h23.72Zm-23.49-.28h23.26v-27.5H314.85Z"/><path class="cls-18" d="M361.9,275.49H338.18V247.42H361.9Zm-23.49-.28h23.26v-27.5H338.34Z"/><path class="cls-18" d="M385.34,275.49H361.62V247.42h23.72Zm-23.49-.28h23.26v-27.5H361.9Z"/><path class="cls-18" d="M244.4,303.28H220.68V275.21H244.4ZM220.91,303h23.22V275.48H220.87Z"/><path class="cls-18" d="M267.89,303.28H244.13V275.21h23.72ZM244.4,303h23.28V275.48H244.42Z"/><path class="cls-18" d="M291.38,303.28h-23.7V275.21H291.4ZM267.89,303h23.26V275.48H267.89Z"/><path class="cls-18" d="M314.87,303.28H291.15V275.21h23.72ZM291.38,303h23.26V275.48H291.38Z"/><path class="cls-18" d="M338.34,303.28H314.62V275.21h23.72ZM314.85,303h23.26V275.48H314.85Z"/><path class="cls-18" d="M361.9,303.28H338.18V275.21H361.9ZM338.41,303h23.26V275.48H338.34Z"/><path class="cls-18" d="M385.34,303.28H361.62V275.21h23.72ZM361.85,303h23.26V275.48H361.9Z"/><path class="cls-18" d="M245.46,25.2a1.21,1.21,0,0,0-2.09-.49,1.17,1.17,0,0,0-.26.59,1.11,1.11,0,0,0,.11.62,1.14,1.14,0,0,0,.44.48,1.16,1.16,0,0,0,.63.18,1.38,1.38,0,0,0,.87-.46,1.3,1.3,0,0,0,.3-.92Z"/><path class="cls-18" d="M268.94,25.2a1.11,1.11,0,0,0-.31-.56,1.16,1.16,0,0,0-.57-.32,1.23,1.23,0,0,0-.66,0,1.15,1.15,0,0,0-.8.95,1.1,1.1,0,0,0,.1.62,1.14,1.14,0,0,0,.44.48,1.18,1.18,0,0,0,.63.18,1.34,1.34,0,0,0,.88-.46,1.24,1.24,0,0,0,.29-.92Z"/><path class="cls-18" d="M292.43,25.2a1,1,0,0,0-.31-.56,1.12,1.12,0,0,0-.57-.32,1.24,1.24,0,0,0-.66,0,1.15,1.15,0,0,0-.8.95,1.16,1.16,0,0,0,.54,1.1,1.19,1.19,0,0,0,.64.18,1.34,1.34,0,0,0,.87-.46A1.2,1.2,0,0,0,292.43,25.2Z"/><path class="cls-18" d="M315.93,25.2a1.14,1.14,0,0,0-.31-.57,1.21,1.21,0,0,0-.57-.32,1.17,1.17,0,0,0-.67,0,1.15,1.15,0,0,0-.55.36,1.12,1.12,0,0,0-.26.59,1.17,1.17,0,0,0,.1.64,1.2,1.2,0,0,0,1.08.66,1.34,1.34,0,0,0,.88-.46A1.25,1.25,0,0,0,315.93,25.2Z"/><path class="cls-18" d="M339.41,25.2a1,1,0,0,0-.31-.56,1.12,1.12,0,0,0-.57-.32,1.24,1.24,0,0,0-.66,0,1.15,1.15,0,0,0-.8.95,1.11,1.11,0,0,0,.11.62,1.05,1.05,0,0,0,.43.48,1.19,1.19,0,0,0,.64.18,1.34,1.34,0,0,0,.87-.46A1.24,1.24,0,0,0,339.41,25.2Z"/><path class="cls-18" d="M362.88,25.2a1.14,1.14,0,0,0-.31-.57,1.29,1.29,0,0,0-.58-.33,1.27,1.27,0,0,0-.67,0,1.19,1.19,0,0,0-.54.37,1.1,1.1,0,0,0-.27.59,1.22,1.22,0,0,0,.11.63,1.16,1.16,0,0,0,.45.48,1.19,1.19,0,0,0,.64.18,1.38,1.38,0,0,0,.87-.46A1.25,1.25,0,0,0,362.88,25.2Z"/><path class="cls-18" d="M245.46,53a1.21,1.21,0,0,0-2.09-.49,1.12,1.12,0,0,0,.29,1.69,1.16,1.16,0,0,0,.63.18,1.31,1.31,0,0,0,.87-.46,1.25,1.25,0,0,0,.3-.92Z"/><path class="cls-18" d="M268.94,53a1.11,1.11,0,0,0-.31-.56,1.16,1.16,0,0,0-.57-.32,1.23,1.23,0,0,0-.66,0,1.15,1.15,0,0,0-.8,1,1.15,1.15,0,0,0,.1.63,1.22,1.22,0,0,0,1.07.65,1.29,1.29,0,0,0,.88-.46A1.24,1.24,0,0,0,268.94,53Z"/><path class="cls-18" d="M292.44,53a1.13,1.13,0,0,0-.32-.56,1.12,1.12,0,0,0-.57-.32,1.24,1.24,0,0,0-.66,0,1.15,1.15,0,0,0-.8,1,1.16,1.16,0,0,0,.11.63,1.15,1.15,0,0,0,.43.47,1.19,1.19,0,0,0,.64.18,1.27,1.27,0,0,0,.87-.46A1.25,1.25,0,0,0,292.44,53Z"/><path class="cls-18" d="M315.93,53a1.19,1.19,0,0,0-.31-.57,1.21,1.21,0,0,0-.57-.32,1.17,1.17,0,0,0-.67,0,1.15,1.15,0,0,0-.55.36,1.12,1.12,0,0,0-.26.59,1.17,1.17,0,0,0,.1.64,1.2,1.2,0,0,0,1.08.66,1.29,1.29,0,0,0,.88-.46A1.25,1.25,0,0,0,315.93,53Z"/><path class="cls-18" d="M339.41,53a1,1,0,0,0-.31-.56,1.12,1.12,0,0,0-.57-.32,1.24,1.24,0,0,0-.66,0,1.15,1.15,0,0,0-.8,1,1.16,1.16,0,0,0,.11.63,1.08,1.08,0,0,0,.43.47,1.19,1.19,0,0,0,.64.18,1.27,1.27,0,0,0,.87-.46A1.2,1.2,0,0,0,339.41,53Z"/><path class="cls-18" d="M362.88,53a1.21,1.21,0,0,0-2.1-.5,1.1,1.1,0,0,0-.27.59,1.28,1.28,0,0,0,.11.64,1.29,1.29,0,0,0,.45.48,1.28,1.28,0,0,0,.64.17,1.36,1.36,0,0,0,.88-.46,1.29,1.29,0,0,0,.29-.92Z"/><path class="cls-18" d="M245.46,80.77a1.21,1.21,0,0,0-2.09-.49,1.12,1.12,0,0,0,.29,1.69,1.16,1.16,0,0,0,.63.18,1.31,1.31,0,0,0,.87-.46,1.25,1.25,0,0,0,.3-.92Z"/><path class="cls-18" d="M268.94,80.77a1.11,1.11,0,0,0-.31-.56,1.16,1.16,0,0,0-.57-.32,1.23,1.23,0,0,0-.66,0,1.15,1.15,0,0,0-.8,1,1.15,1.15,0,0,0,.1.63,1.22,1.22,0,0,0,1.07.65,1.29,1.29,0,0,0,.88-.46,1.24,1.24,0,0,0,.29-.92Z"/><path class="cls-18" d="M292.44,80.77a1.13,1.13,0,0,0-.32-.56,1.12,1.12,0,0,0-.57-.32,1.24,1.24,0,0,0-.66,0,1.15,1.15,0,0,0-.8,1,1.16,1.16,0,0,0,.11.63,1.15,1.15,0,0,0,.43.47,1.19,1.19,0,0,0,.64.18,1.27,1.27,0,0,0,.87-.46,1.25,1.25,0,0,0,.3-.92Z"/><path class="cls-18" d="M315.93,80.77a1.14,1.14,0,0,0-.31-.57,1.21,1.21,0,0,0-.57-.32,1.17,1.17,0,0,0-.67,0,1.15,1.15,0,0,0-.55.36,1.12,1.12,0,0,0-.26.59,1.17,1.17,0,0,0,.1.64,1.2,1.2,0,0,0,1.08.66,1.29,1.29,0,0,0,.88-.46,1.25,1.25,0,0,0,.3-.92Z"/><path class="cls-18" d="M339.41,80.77a1,1,0,0,0-.31-.56,1.12,1.12,0,0,0-.57-.32,1.24,1.24,0,0,0-.66,0,1.15,1.15,0,0,0-.8,1,1.16,1.16,0,0,0,.11.63,1.08,1.08,0,0,0,.43.47,1.19,1.19,0,0,0,.64.18,1.27,1.27,0,0,0,.87-.46,1.2,1.2,0,0,0,.29-.92Z"/><path class="cls-18" d="M362.88,80.77a1.14,1.14,0,0,0-.31-.57,1.29,1.29,0,0,0-.58-.33,1.27,1.27,0,0,0-.67,0,1.19,1.19,0,0,0-.54.37,1.1,1.1,0,0,0-.27.59,1.22,1.22,0,0,0,.11.63,1.16,1.16,0,0,0,.45.48,1.19,1.19,0,0,0,.64.18,1.36,1.36,0,0,0,.88-.46A1.29,1.29,0,0,0,362.88,80.77Z"/><path class="cls-18" d="M245.46,108.57a1.21,1.21,0,0,0-2.09-.49,1.17,1.17,0,0,0-.26.59,1.11,1.11,0,0,0,.11.62,1.2,1.2,0,0,0,.44.48,1.16,1.16,0,0,0,.63.18,1.31,1.31,0,0,0,.87-.46,1.25,1.25,0,0,0,.3-.92Z"/><path class="cls-18" d="M268.94,108.57a1.11,1.11,0,0,0-.31-.56,1.16,1.16,0,0,0-.57-.32,1.23,1.23,0,0,0-.66,0,1.15,1.15,0,0,0-.8,1,1.1,1.1,0,0,0,.1.62,1.2,1.2,0,0,0,.44.48,1.18,1.18,0,0,0,.63.18,1.34,1.34,0,0,0,.88-.46,1.24,1.24,0,0,0,.29-.92Z"/><path class="cls-18" d="M292.44,108.57a1.13,1.13,0,0,0-.32-.56,1.12,1.12,0,0,0-.57-.32,1.24,1.24,0,0,0-.66,0,1.15,1.15,0,0,0-.8,1,1.11,1.11,0,0,0,.11.62,1.17,1.17,0,0,0,.43.48,1.19,1.19,0,0,0,.64.18,1.31,1.31,0,0,0,.87-.46,1.25,1.25,0,0,0,.3-.92Z"/><path class="cls-18" d="M315.93,108.57a1.14,1.14,0,0,0-.31-.57,1.32,1.32,0,0,0-.57-.33,1.27,1.27,0,0,0-.67,0,1.15,1.15,0,0,0-.55.36,1.12,1.12,0,0,0-.26.59,1.17,1.17,0,0,0,.1.64,1.2,1.2,0,0,0,1.08.66,1.34,1.34,0,0,0,.88-.46A1.25,1.25,0,0,0,315.93,108.57Z"/><path class="cls-18" d="M339.41,108.57a1,1,0,0,0-.31-.56,1.12,1.12,0,0,0-.57-.32,1.24,1.24,0,0,0-.66,0,1.15,1.15,0,0,0-.8,1,1.16,1.16,0,0,0,.54,1.1,1.19,1.19,0,0,0,.64.18,1.31,1.31,0,0,0,.87-.46,1.2,1.2,0,0,0,.29-.92Z"/><path class="cls-18" d="M362.88,108.57a1.14,1.14,0,0,0-.31-.57,1.29,1.29,0,0,0-.58-.33,1.27,1.27,0,0,0-.67,0,1.19,1.19,0,0,0-.54.37,1.07,1.07,0,0,0-.27.59,1.22,1.22,0,0,0,.11.63,1.16,1.16,0,0,0,.45.48,1.19,1.19,0,0,0,.64.18,1.36,1.36,0,0,0,.88-.46A1.29,1.29,0,0,0,362.88,108.57Z"/><path class="cls-18" d="M245.46,136.37a1.21,1.21,0,0,0-2.09-.49,1.18,1.18,0,0,0-.26.58,1.13,1.13,0,0,0,.11.63,1.2,1.2,0,0,0,.44.48,1.16,1.16,0,0,0,.63.18,1.31,1.31,0,0,0,.87-.46,1.25,1.25,0,0,0,.3-.92Z"/><path class="cls-18" d="M268.94,136.37a1.11,1.11,0,0,0-.31-.56,1.16,1.16,0,0,0-.57-.32,1.23,1.23,0,0,0-.66,0,1.16,1.16,0,0,0-.8.94,1.12,1.12,0,0,0,.1.63,1.2,1.2,0,0,0,.44.48,1.18,1.18,0,0,0,.63.18,1.34,1.34,0,0,0,.88-.46A1.24,1.24,0,0,0,268.94,136.37Z"/><path class="cls-18" d="M292.44,136.37a1.13,1.13,0,0,0-.32-.56,1.12,1.12,0,0,0-.57-.32,1.24,1.24,0,0,0-.66,0,1.16,1.16,0,0,0-.8.94,1.13,1.13,0,0,0,.11.63,1.17,1.17,0,0,0,.43.48,1.19,1.19,0,0,0,.64.18,1.31,1.31,0,0,0,.87-.46A1.25,1.25,0,0,0,292.44,136.37Z"/><path class="cls-18" d="M315.93,136.37a1.1,1.1,0,0,0-.31-.57,1.32,1.32,0,0,0-.57-.33,1.27,1.27,0,0,0-.67,0,1.15,1.15,0,0,0-.55.36,1.09,1.09,0,0,0-.26.59,1.17,1.17,0,0,0,.1.64,1.26,1.26,0,0,0,.44.48,1.19,1.19,0,0,0,.64.18,1.34,1.34,0,0,0,.88-.46A1.25,1.25,0,0,0,315.93,136.37Z"/><path class="cls-18" d="M339.41,136.37a1,1,0,0,0-.31-.56,1.12,1.12,0,0,0-.57-.32,1.24,1.24,0,0,0-.66,0,1.16,1.16,0,0,0-.8.94,1.13,1.13,0,0,0,.11.63,1.11,1.11,0,0,0,.43.48,1.19,1.19,0,0,0,.64.18,1.31,1.31,0,0,0,.87-.46A1.2,1.2,0,0,0,339.41,136.37Z"/><path class="cls-18" d="M362.88,136.37a1.1,1.1,0,0,0-.31-.57,1.29,1.29,0,0,0-.58-.33,1.27,1.27,0,0,0-.67,0,1.17,1.17,0,0,0-.54.36,1.13,1.13,0,0,0-.27.6,1.26,1.26,0,0,0,.11.63,1.16,1.16,0,0,0,.45.48,1.19,1.19,0,0,0,.64.18,1.36,1.36,0,0,0,.88-.46,1.29,1.29,0,0,0,.29-.92Z"/><path class="cls-18" d="M245.46,164.16a1.16,1.16,0,0,0-.32-.57,1.12,1.12,0,0,0-.57-.32,1.23,1.23,0,0,0-1.22.4,1.08,1.08,0,0,0-.25.59,1.12,1.12,0,0,0,.1.63,1.16,1.16,0,0,0,.45.48,1.19,1.19,0,0,0,.64.18,1.32,1.32,0,0,0,.87-.47,1.25,1.25,0,0,0,.3-.92Z"/><path class="cls-18" d="M268.94,164.16a1.14,1.14,0,0,0-.31-.57,1.19,1.19,0,0,0-.58-.32,1.27,1.27,0,0,0-.67,0,1.19,1.19,0,0,0-.54.37,1.17,1.17,0,0,0-.26.59,1,1,0,0,0,.11.63,1.14,1.14,0,0,0,.44.48,1.21,1.21,0,0,0,.64.18,1.35,1.35,0,0,0,.88-.47,1.24,1.24,0,0,0,.29-.92Z"/><path class="cls-18" d="M292.44,164.16a1.16,1.16,0,0,0-.32-.57,1.19,1.19,0,0,0-.58-.32,1.23,1.23,0,0,0-.66,0,1.18,1.18,0,0,0-.81,1,1.22,1.22,0,0,0,.11.63,1.16,1.16,0,0,0,.45.48,1.19,1.19,0,0,0,.64.18,1.37,1.37,0,0,0,.88-.47,1.29,1.29,0,0,0,.29-.92Z"/><path class="cls-18" d="M315.93,164.16a1.23,1.23,0,0,0-.31-.57,1.19,1.19,0,0,0-.58-.32,1.23,1.23,0,0,0-.66,0,1.15,1.15,0,0,0-.55.36,1.21,1.21,0,0,0-.26.59,1.17,1.17,0,0,0,.1.64,1.26,1.26,0,0,0,.44.48,1.31,1.31,0,0,0,.64.18,1.35,1.35,0,0,0,.88-.47,1.25,1.25,0,0,0,.3-.92Z"/><path class="cls-18" d="M339.41,164.16a1.07,1.07,0,0,0-.31-.57,1.19,1.19,0,0,0-.58-.32,1.23,1.23,0,0,0-.66,0,1.18,1.18,0,0,0-.81,1,1.13,1.13,0,0,0,.11.63,1.1,1.1,0,0,0,.45.48,1.19,1.19,0,0,0,.64.18,1.32,1.32,0,0,0,.87-.47,1.2,1.2,0,0,0,.29-.92Z"/><path class="cls-18" d="M362.88,164.16a1.23,1.23,0,0,0-.31-.57,1.19,1.19,0,0,0-.58-.32,1.27,1.27,0,0,0-.67,0,1.19,1.19,0,0,0-.54.37,1,1,0,0,0-.26.59,1,1,0,0,0,.11.63,1.08,1.08,0,0,0,.44.48,1.19,1.19,0,0,0,.64.18,1.37,1.37,0,0,0,.88-.47,1.29,1.29,0,0,0,.29-.92Z"/><path class="cls-18" d="M245.46,192a1.23,1.23,0,0,0-.31-.57,1.26,1.26,0,0,0-.58-.31,1.2,1.2,0,0,0-.65,0,1.13,1.13,0,0,0-.55.36,1.18,1.18,0,0,0-.26.58,1.14,1.14,0,0,0,.11.63,1.2,1.2,0,0,0,.44.48,1.25,1.25,0,0,0,.63.18,1.35,1.35,0,0,0,.87-.47,1.26,1.26,0,0,0,.3-.91Z"/><path class="cls-18" d="M268.94,192a1.14,1.14,0,0,0-.31-.57,1.22,1.22,0,0,0-1.23-.28,1.1,1.1,0,0,0-.54.36,1.18,1.18,0,0,0-.26.58,1.14,1.14,0,0,0,.1.63,1.2,1.2,0,0,0,.44.48,1.28,1.28,0,0,0,.63.18,1.38,1.38,0,0,0,.88-.46,1.24,1.24,0,0,0,.29-.92Z"/><path class="cls-18" d="M292.43,192a1.07,1.07,0,0,0-.31-.57,1.18,1.18,0,0,0-.57-.31,1.24,1.24,0,0,0-.66,0,1.1,1.1,0,0,0-.54.36,1.18,1.18,0,0,0-.26.58,1.14,1.14,0,0,0,.11.63,1.17,1.17,0,0,0,.43.48,1.28,1.28,0,0,0,.64.18,1.38,1.38,0,0,0,.87-.46A1.2,1.2,0,0,0,292.43,192Z"/><path class="cls-18" d="M315.93,192a1.1,1.1,0,0,0-.31-.57,1.32,1.32,0,0,0-.57-.33,1.27,1.27,0,0,0-.67,0,1.15,1.15,0,0,0-.81.95,1.17,1.17,0,0,0,.1.64,1.26,1.26,0,0,0,.44.48,1.28,1.28,0,0,0,.64.18,1.34,1.34,0,0,0,.88-.46A1.25,1.25,0,0,0,315.93,192Z"/><path class="cls-18" d="M339.41,192a1.07,1.07,0,0,0-.31-.57,1.18,1.18,0,0,0-.57-.31,1.24,1.24,0,0,0-.66,0,1.1,1.1,0,0,0-.54.36,1.18,1.18,0,0,0-.26.58,1.14,1.14,0,0,0,.11.63,1.11,1.11,0,0,0,.43.48,1.28,1.28,0,0,0,.64.18,1.38,1.38,0,0,0,.87-.46A1.24,1.24,0,0,0,339.41,192Z"/><path class="cls-18" d="M362.88,192a1.17,1.17,0,0,0-.31-.58,1.23,1.23,0,0,0-1.25-.29,1.17,1.17,0,0,0-.54.36,1.13,1.13,0,0,0-.27.6,1.26,1.26,0,0,0,.11.63,1.16,1.16,0,0,0,.45.48,1.19,1.19,0,0,0,.64.18,1.35,1.35,0,0,0,.87-.47A1.22,1.22,0,0,0,362.88,192Z"/><path class="cls-18" d="M245.46,219.75a1.24,1.24,0,0,0-.31-.56,1.26,1.26,0,0,0-.58-.31,1.3,1.3,0,0,0-.65,0,1.22,1.22,0,0,0-.55.37,1.09,1.09,0,0,0-.15,1.21,1.2,1.2,0,0,0,.44.48,1.25,1.25,0,0,0,.63.18,1.32,1.32,0,0,0,.87-.47,1.23,1.23,0,0,0,.3-.92Z"/><path class="cls-18" d="M268.94,219.75a1.16,1.16,0,0,0-.31-.56,1.23,1.23,0,0,0-.57-.31,1.34,1.34,0,0,0-.66,0,1.19,1.19,0,0,0-.54.37,1.12,1.12,0,0,0-.16,1.21,1.2,1.2,0,0,0,.44.48,1.28,1.28,0,0,0,.63.18,1.34,1.34,0,0,0,.88-.46A1.25,1.25,0,0,0,268.94,219.75Z"/><path class="cls-18" d="M291.27,221.14a1.4,1.4,0,1,0-1.17-1.39A1.3,1.3,0,0,0,291.27,221.14Z"/><path class="cls-18" d="M314.75,221.14a1.4,1.4,0,1,0-1.17-1.39A1.29,1.29,0,0,0,314.75,221.14Z"/><path class="cls-18" d="M338.25,221.14a1.4,1.4,0,1,0-1.17-1.39A1.29,1.29,0,0,0,338.25,221.14Z"/><path class="cls-18" d="M361.73,221.14a1.4,1.4,0,1,0-1.17-1.39A1.3,1.3,0,0,0,361.73,221.14Z"/><path class="cls-18" d="M245.46,247.55a1.24,1.24,0,0,0-.31-.56,1.26,1.26,0,0,0-.58-.31,1.3,1.3,0,0,0-.65,0,1.22,1.22,0,0,0-.55.37,1.09,1.09,0,0,0-.15,1.21,1.26,1.26,0,0,0,.44.48,1.36,1.36,0,0,0,.63.18,1.32,1.32,0,0,0,.87-.47,1.23,1.23,0,0,0,.3-.92Z"/><path class="cls-18" d="M268.94,247.55a1.16,1.16,0,0,0-.31-.56,1.23,1.23,0,0,0-.57-.31,1.34,1.34,0,0,0-.66,0,1.19,1.19,0,0,0-.54.37,1.12,1.12,0,0,0-.16,1.21,1.26,1.26,0,0,0,.44.48,1.11,1.11,0,0,0,1.51-.28A1.25,1.25,0,0,0,268.94,247.55Z"/><path class="cls-18" d="M292.44,247.55a1.18,1.18,0,0,0-.89-.87,1.34,1.34,0,0,0-.66,0,1.19,1.19,0,0,0-.54.37,1.09,1.09,0,0,0-.15,1.21,1.24,1.24,0,0,0,.43.48,1.4,1.4,0,0,0,.64.18,1.36,1.36,0,0,0,.87-.46A1.26,1.26,0,0,0,292.44,247.55Z"/><path class="cls-18" d="M315.93,247.55a1.19,1.19,0,0,0-.31-.57,1.3,1.3,0,0,0-.57-.32,1.38,1.38,0,0,0-.67,0,1.17,1.17,0,0,0-.55.37,1.09,1.09,0,0,0-.26.59,1.12,1.12,0,0,0,.1.63,1.22,1.22,0,0,0,.44.49,1.28,1.28,0,0,0,.64.18,1.34,1.34,0,0,0,.88-.46,1.26,1.26,0,0,0,.3-.93Z"/><path class="cls-18" d="M339.41,247.55a1.08,1.08,0,0,0-.31-.56,1.18,1.18,0,0,0-.57-.31,1.34,1.34,0,0,0-.66,0,1.19,1.19,0,0,0-.54.37,1.09,1.09,0,0,0-.15,1.21,1.16,1.16,0,0,0,.43.48,1.4,1.4,0,0,0,.64.18,1.36,1.36,0,0,0,.87-.46A1.21,1.21,0,0,0,339.41,247.55Z"/><path class="cls-18" d="M362.88,247.55a1.17,1.17,0,0,0-.89-.89,1.27,1.27,0,0,0-.67,0,1.17,1.17,0,0,0-.54.36,1.14,1.14,0,0,0-.27.59,1.28,1.28,0,0,0,.11.64,1.22,1.22,0,0,0,.45.48,1.19,1.19,0,0,0,.64.18,1.37,1.37,0,0,0,.88-.47,1.26,1.26,0,0,0,.29-.92Z"/><path class="cls-18" d="M245.46,275.35a1.24,1.24,0,0,0-.31-.56,1.26,1.26,0,0,0-.58-.31,1.11,1.11,0,0,0-.65,0,1.22,1.22,0,0,0-.55.37,1.14,1.14,0,0,0-.26.58,1.18,1.18,0,0,0,1.18,1.28,1.27,1.27,0,0,0,.87-.46,1.25,1.25,0,0,0,.3-.92Z"/><path class="cls-18" d="M268.94,275.35a1.16,1.16,0,0,0-.31-.56,1.23,1.23,0,0,0-.57-.31,1.14,1.14,0,0,0-.66,0,1.19,1.19,0,0,0-.54.37,1.14,1.14,0,0,0-.26.58,1.15,1.15,0,0,0,.1.63,1.22,1.22,0,0,0,1.07.65,1.29,1.29,0,0,0,.88-.46,1.22,1.22,0,0,0,.29-.92Z"/><path class="cls-18" d="M292.44,275.35a1.18,1.18,0,0,0-.89-.87,1.14,1.14,0,0,0-.66,0,1.19,1.19,0,0,0-.54.37,1.14,1.14,0,0,0-.26.58,1.16,1.16,0,0,0,.11.63,1.15,1.15,0,0,0,.43.47,1.19,1.19,0,0,0,.64.18,1.27,1.27,0,0,0,.87-.46,1.23,1.23,0,0,0,.3-.92Z"/><path class="cls-18" d="M315.93,275.35a1.19,1.19,0,0,0-.31-.57,1.3,1.3,0,0,0-.57-.32,1.38,1.38,0,0,0-.67,0,1.17,1.17,0,0,0-.55.37,1.09,1.09,0,0,0-.26.59,1.15,1.15,0,0,0,.1.63,1.14,1.14,0,0,0,.44.48,1.29,1.29,0,0,0,.64.19,1.34,1.34,0,0,0,.88-.46,1.26,1.26,0,0,0,.3-.93Z"/><path class="cls-18" d="M339.41,275.35a1.08,1.08,0,0,0-.31-.56,1.18,1.18,0,0,0-.57-.31,1.14,1.14,0,0,0-.66,0,1.19,1.19,0,0,0-.54.37,1.14,1.14,0,0,0-.26.58,1.16,1.16,0,0,0,.11.63,1.08,1.08,0,0,0,.43.47,1.19,1.19,0,0,0,.64.18,1.27,1.27,0,0,0,.87-.46,1.18,1.18,0,0,0,.29-.92Z"/><path class="cls-18" d="M362.88,275.35a1.17,1.17,0,0,0-.89-.89,1.38,1.38,0,0,0-.67,0,1.19,1.19,0,0,0-.54.37,1.14,1.14,0,0,0-.27.59,1.28,1.28,0,0,0,.11.64,1.22,1.22,0,0,0,.45.48,1.19,1.19,0,0,0,.64.18,1.37,1.37,0,0,0,.88-.47,1.27,1.27,0,0,0,.29-.92Z"/></g></g><g class="cls-15"><path class="cls-16" d="M692.1,81.61h-920V338.23h920Z"/><path class="cls-4" d="M400.73,220.5H227.27l-81.77,83h337Z"/></g></svg>