<svg width="108" height="142" viewBox="0 0 108 142" fill="none" xmlns="http://www.w3.org/2000/svg">
<g style="mix-blend-mode:multiply">
<path d="M0 130.364H31.3452L43.9646 128.909L51.75 130.364L68.3895 126L61.8762 130.364H92.0001L75.3098 136.764L89.1505 142H27.2744H0L10.5841 136.764L0 130.364Z" fill="black"/>
</g>
<path d="M84.2846 80.1832L90.2446 81.4917L90.4283 79.5416L89.6807 76.5827L90.5536 75.6371L92.5751 76.0128L93.8949 80.0819L94.1706 79.4783L93.9826 76.6417L93.0471 73.8095L95.1479 72.9062L97.6538 75.4388L98.4891 78.3935L99.0906 78.3428L98.9068 75.8609L98.4891 72.4841L100.586 72.1084L102.394 75.9495V79.9172L97.2863 85.776L82.2715 93.741L77.577 93.0614L73.5508 88.9924" fill="white"/>
<path d="M82.2476 94.4625H82.1513L77.4433 93.7801C77.2995 93.7589 77.166 93.6921 77.0621 93.5894L73.0242 89.5036C72.8997 89.3752 72.8298 89.2025 72.8298 89.0226C72.8298 88.8426 72.8997 88.6699 73.0242 88.5415C73.0865 88.4781 73.1606 88.4277 73.2422 88.3934C73.3238 88.359 73.4113 88.3413 73.4996 88.3413C73.588 88.3413 73.6755 88.359 73.7571 88.3934C73.8387 88.4277 73.9128 88.4781 73.975 88.5415L77.8537 92.4662L82.1262 93.0808L96.8828 85.2441L101.754 79.6537V76.0808L100.229 72.83L99.2577 73.0038L99.597 75.7502L99.7855 78.2932C99.7994 78.4725 99.7423 78.65 99.6268 78.7867C99.5114 78.9235 99.347 79.0082 99.1698 79.0222L98.5666 79.0731C98.4115 79.0875 98.2563 79.0462 98.1283 78.9562C98.0004 78.8663 97.9079 78.7336 97.8671 78.5814L97.0754 75.7841L95.0063 73.6904L93.8879 74.1736L94.6293 76.4241C94.6469 76.4791 94.6581 76.536 94.6628 76.5937L94.8513 79.4376C94.8591 79.551 94.8389 79.6646 94.7926 79.7682L94.5162 80.3743C94.4598 80.4985 94.3677 80.6026 94.2518 80.673C94.136 80.7433 94.0018 80.7766 93.8669 80.7684C93.7312 80.7575 93.602 80.705 93.4965 80.6179C93.391 80.5309 93.3142 80.4133 93.2763 80.281L92.0784 76.5809L90.8218 76.3436L90.449 76.7462L91.1066 79.3571C91.1212 79.4341 91.1212 79.5132 91.1066 79.5902L90.9223 81.5525C90.9117 81.648 90.8817 81.7402 90.8341 81.8234C90.7866 81.9066 90.7224 81.9788 90.6459 82.0357C90.5696 82.0921 90.4824 82.1315 90.39 82.1513C90.2975 82.171 90.202 82.1706 90.1097 82.1501L84.1283 80.8362C83.9549 80.7967 83.8039 80.6895 83.7082 80.5379C83.6125 80.3863 83.5798 80.2026 83.6173 80.0267C83.6357 79.9391 83.671 79.8561 83.7213 79.7825C83.7715 79.7088 83.8356 79.6459 83.91 79.5974C83.9844 79.549 84.0675 79.5159 84.1546 79.5001C84.2417 79.4843 84.331 79.4861 84.4173 79.5054L89.6531 80.6582L89.7579 79.5774L89.0374 76.7208C89.0094 76.6105 89.0093 76.4948 89.0371 76.3844C89.0649 76.2741 89.1198 76.1726 89.1966 76.0893L90.072 75.1399C90.1489 75.0568 90.2452 74.9946 90.3521 74.959C90.459 74.9235 90.5729 74.9157 90.6836 74.9365L92.7109 75.3137C92.7701 75.3271 92.8277 75.347 92.8826 75.373L92.4386 73.9871C92.3837 73.8243 92.3916 73.6465 92.4607 73.4893C92.5298 73.3321 92.6551 73.2071 92.8114 73.1394L94.9057 72.2324C95.0297 72.1806 95.166 72.1666 95.2977 72.1922C95.4295 72.2178 95.5509 72.2819 95.6471 72.3765L98.1603 74.9195L97.8671 72.5291C97.8451 72.3561 97.8899 72.1811 97.992 72.0406C98.0942 71.9001 98.246 71.8049 98.4158 71.7747L100.51 71.3975C100.655 71.3725 100.804 71.3957 100.935 71.4637C101.065 71.5318 101.171 71.6409 101.235 71.7747L103.048 75.6316C103.091 75.7232 103.114 75.8228 103.115 75.924V79.908C103.114 80.074 103.053 80.2339 102.944 80.3573L97.821 86.2401C97.7675 86.3035 97.702 86.3554 97.6283 86.3927L82.5492 94.3904C82.4557 94.4381 82.3523 94.4628 82.2476 94.4625Z" fill="#070618"/>
<path d="M85.9101 85.0882L85.8101 84.4184L89.7621 83.875L90.162 80.7617L90.8577 80.846L90.3881 84.4732L85.9101 85.0882Z" fill="#070618"/>
<path d="M5.04302 87.251L0.720947 111.257L4.01315 115.373L11.9524 113.452L11.944 108.939L7.69789 107.018L14.4216 94.1201L11.5726 92.6804L9.89269 89.9446L5.04302 87.251Z" fill="white"/>
<path d="M3.99576 116.095C3.89313 116.096 3.7916 116.073 3.69893 116.029C3.60626 115.985 3.5249 115.921 3.461 115.84L0.150578 111.709C0.0895346 111.633 0.0454735 111.545 0.021317 111.45C-0.0028395 111.356 -0.00651356 111.258 0.0105409 111.162L4.36075 87.0907C4.37944 86.9839 4.42349 86.8832 4.48921 86.7969C4.55493 86.7106 4.64042 86.6413 4.73848 86.5949C4.83677 86.549 4.94452 86.527 5.05296 86.5307C5.16139 86.5344 5.26741 86.5636 5.36235 86.616L10.2388 89.3198C10.3403 89.376 10.4252 89.4579 10.485 89.5571L12.0765 92.138L14.7673 93.4984C14.8483 93.5386 14.9204 93.5945 14.9794 93.6629C15.0385 93.7313 15.0832 93.8108 15.1111 93.8967C15.1382 93.9824 15.1481 94.0725 15.1401 94.162C15.1321 94.2515 15.1064 94.3385 15.0644 94.418L8.63879 106.708L12.2505 108.339C12.3693 108.394 12.47 108.481 12.5407 108.59C12.6114 108.7 12.6492 108.828 12.6495 108.958V113.484C12.65 113.638 12.5988 113.787 12.5041 113.907C12.4094 114.028 12.2767 114.113 12.1275 114.15L4.15279 116.078C4.10132 116.09 4.0486 116.095 3.99576 116.095ZM1.41109 111.098L4.25465 114.654L11.2956 112.959V109.407L7.42923 107.657C7.34482 107.619 7.26919 107.564 7.20711 107.496C7.14502 107.427 7.09783 107.346 7.06849 107.259C7.03669 107.172 7.02365 107.08 7.03023 106.988C7.03682 106.896 7.06286 106.806 7.10668 106.725L13.5323 94.3798L11.2871 93.2441C11.1741 93.189 11.0797 93.1021 11.0155 92.9941L9.41547 90.4005L5.52788 88.2476L1.41109 111.098Z" fill="#070618"/>
<path d="M19.8665 109.134L19.1983 131.38L16.5847 136.656L35.5099 135.614L35.0024 131.662L39.4387 119.67L48.8145 117.431L53.6272 133.396L70.6662 137.006L64.4283 126.851L68.3191 116.748L67.8158 90.2513L61.3326 66.3398L17.6547 80.7372L25.3093 93.3743L19.8665 109.134Z" fill="white"/>
<path d="M70.6997 137.725C70.6532 137.729 70.6064 137.729 70.5599 137.725L53.4932 134.111C53.3735 134.086 53.2627 134.028 53.1726 133.945C53.0824 133.861 53.0162 133.755 52.9808 133.636L48.3436 118.254L39.933 120.264L35.6727 131.759L36.1597 135.548C36.1724 135.642 36.1654 135.738 36.1392 135.829C36.1129 135.921 36.068 136.005 36.0072 136.078C35.9479 136.15 35.8744 136.209 35.7913 136.251C35.7082 136.293 35.6173 136.317 35.5245 136.322L16.5817 137.374C16.4629 137.38 16.3445 137.355 16.2383 137.301C16.1321 137.247 16.0417 137.166 15.9761 137.066C15.9112 136.965 15.8733 136.849 15.8658 136.73C15.8584 136.61 15.8818 136.49 15.9337 136.382L18.4747 131.25L19.1396 109.133C19.1439 109.063 19.1567 108.994 19.1777 108.927L24.5264 93.451L17.0306 81.0794C16.9765 80.9914 16.9431 80.8922 16.9328 80.7891C16.9225 80.6861 16.9357 80.5821 16.9713 80.485C17.0047 80.3857 17.0603 80.2955 17.1337 80.2214C17.2071 80.1472 17.2965 80.0911 17.3948 80.0574L61.1372 65.6544C61.2246 65.6248 61.3171 65.6136 61.4089 65.6217C61.5007 65.6298 61.5899 65.6569 61.6708 65.7015C61.7522 65.7464 61.8237 65.8075 61.8812 65.8809C61.9387 65.9544 61.9809 66.0388 62.0054 66.1291L68.4975 90.077C68.5101 90.1318 68.5186 90.1876 68.5229 90.2437L69.0227 116.757C69.0265 116.847 69.0106 116.936 68.9761 117.018L65.2028 126.807L71.2756 136.685C71.349 136.797 71.3882 136.928 71.3882 137.062C71.3882 137.196 71.349 137.327 71.2756 137.438C71.2109 137.53 71.1242 137.605 71.0237 137.655C70.9231 137.705 70.8117 137.729 70.6997 137.725ZM54.1835 132.837L69.2979 136.035L63.8688 127.235C63.8142 127.144 63.781 127.041 63.7714 126.935C63.7619 126.829 63.7764 126.723 63.8137 126.623L67.6632 116.642L67.1635 90.3378L60.8831 67.1811L18.6398 81.1008L25.8392 93.0063C25.8914 93.0934 25.9238 93.1912 25.934 93.2925C25.9443 93.3938 25.9321 93.4962 25.8985 93.5922L20.499 109.274L19.8341 131.434C19.8324 131.534 19.8077 131.632 19.7621 131.721L17.6701 135.946L34.7198 135.005L34.2963 131.78C34.2794 131.669 34.2926 131.555 34.3344 131.451L38.7769 119.452C38.815 119.346 38.8787 119.251 38.9623 119.176C39.0459 119.102 39.1467 119.049 39.2554 119.024L48.6442 116.783C48.8125 116.743 48.9896 116.768 49.1397 116.855C49.2899 116.942 49.4019 117.082 49.4531 117.249L54.1835 132.837Z" fill="#070618"/>
<path d="M21.3056 13.5319C21.0993 13.5319 18.0203 15.9577 18.0203 15.9577L19.8651 53.3893L15.1436 61.2892L28.4912 73.5504L42.4538 65.8765L58.0381 71.2824L65.6196 53.1975L65.4722 12.8412L63.2146 11.7328L60.9528 11.5964L60.5316 7.43965L48.418 0.720703L36.098 1.48384L23.2347 9.30697L23.6559 13.4637L21.3056 13.5319Z" fill="white"/>
<path d="M28.4607 74.2717C28.2928 74.272 28.1306 74.2097 28.0052 74.0966L14.6405 61.8136C14.5262 61.7072 14.4516 61.5641 14.4293 61.4085C14.4071 61.2529 14.4385 61.0943 14.5182 60.9594L19.1573 53.2249L17.3143 15.9573C17.31 15.8477 17.3314 15.7387 17.3769 15.6392C17.4224 15.5397 17.4905 15.4526 17.5758 15.385C20.802 12.8224 21.0129 12.8224 21.2702 12.8224L22.8811 12.7755L22.5438 9.35878C22.5296 9.22971 22.5528 9.09925 22.6104 8.98325C22.668 8.86725 22.7577 8.77071 22.8685 8.70534L35.7355 0.864012C35.8294 0.807857 35.9347 0.774261 36.0434 0.765791L48.379 0.00130152C48.5069 -0.00677929 48.6344 0.022898 48.7459 0.0867241L60.8496 6.77917C60.9459 6.83325 61.028 6.90999 61.0889 7.00289C61.1498 7.0958 61.1878 7.20216 61.1997 7.31303L61.5497 10.8963L63.2366 10.9988C63.325 11.0018 63.4115 11.0252 63.4897 11.0671L65.7544 12.1733C65.8682 12.2294 65.9642 12.3168 66.0313 12.4256C66.0985 12.5343 66.134 12.66 66.1339 12.7883L66.3406 53.1822C66.3411 53.2747 66.3224 53.3664 66.2857 53.4512L58.6946 71.564C58.628 71.7241 58.5039 71.8528 58.3475 71.9241C58.191 71.9954 58.0136 72.0041 57.8511 71.9484L42.5043 66.6525L28.798 74.1906C28.6943 74.2466 28.5781 74.2745 28.4607 74.2717ZM15.9648 61.1772L28.5577 72.7513L42.1163 65.2815C42.1989 65.236 42.2898 65.2083 42.3835 65.2002C42.4771 65.1921 42.5714 65.2038 42.6603 65.2346L57.6866 70.4407L64.9952 53.0455L64.7928 13.2239L63.03 12.3697L60.9213 12.2373C60.7606 12.2272 60.6086 12.16 60.4921 12.0475C60.3756 11.935 60.3021 11.7844 60.2845 11.6223L59.9092 7.81699L48.2651 1.35516L36.2922 2.09402L23.9313 9.62784L24.3024 13.3563C24.3114 13.4499 24.3014 13.5444 24.2732 13.634C24.2449 13.7236 24.1989 13.8064 24.1379 13.8774C24.0768 13.9486 24.0018 14.0062 23.9176 14.0467C23.8334 14.0871 23.7418 14.1094 23.6487 14.1123L21.4473 14.1763C21.0635 14.4155 19.8363 15.3465 18.6849 16.2477L20.5195 53.3658C20.524 53.502 20.4904 53.6368 20.4225 53.7545L15.9648 61.1772Z" fill="#070618"/>
<path d="M26.1237 42.0366L25.238 30.4349L43.1103 34.4415L60.5713 28.1221V40.6732L43.7903 49.0336L26.1237 42.0366Z" fill="#070618"/>
<path d="M14.6835 59.4088C14.3693 59.4088 10.2938 66.4077 10.2938 66.4077L10.6037 71.8082L1.44214 86.1898L4.9658 86.7311L12.824 95.4308L17.4005 95.2091L13.257 124.748L31.7754 115.119L39.9605 112.242L72.2253 113.094L69.2535 97.4639L67.8101 90.0942L82.9534 86.2281L84.3671 77.6265L79.4509 72.3155L74.8447 67.6907L71.631 61.1649L65.0379 53.3604L38.8354 67.7674L19.8374 53.3604L14.6835 59.4088Z" fill="white"/>
<path d="M13.8392 125.469C13.6986 125.469 13.5616 125.424 13.4475 125.341C13.3464 125.269 13.267 125.17 13.218 125.054C13.1689 124.939 13.1521 124.813 13.1695 124.689L17.167 95.9412L13.4433 96.1289C13.3432 96.1333 13.2434 96.1153 13.1509 96.0762C13.0584 96.0371 12.9756 95.9779 12.9083 95.9028L5.27132 87.3711L2.01519 86.8635C1.90395 86.8452 1.79889 86.7994 1.70926 86.7302C1.61964 86.661 1.54822 86.5705 1.50129 86.4668C1.45553 86.3625 1.43583 86.2484 1.44391 86.1346C1.45199 86.0208 1.4876 85.9107 1.54762 85.8141L10.5199 71.6132L10.225 66.426C10.2156 66.2919 10.2464 66.158 10.3135 66.042C13.199 61.0468 14.231 59.4513 14.7407 58.9394L19.8587 52.8905C19.9693 52.7533 20.1283 52.665 20.302 52.6443C20.4757 52.6236 20.6506 52.6721 20.7896 52.7796L39.286 66.9336L64.9013 52.7241C65.0387 52.6487 65.1975 52.6237 65.351 52.6532C65.5045 52.6828 65.6433 52.7651 65.7438 52.8862L72.2645 60.6927C72.2978 60.7355 72.3274 60.7812 72.3529 60.8292L75.5206 67.2834L80.011 71.835L84.9099 77.1673C84.9798 77.2437 85.0313 77.3355 85.0606 77.4353C85.0898 77.5352 85.0959 77.6405 85.0784 77.7432L83.6799 86.3516C83.6584 86.4828 83.5995 86.6048 83.5104 86.7026C83.4214 86.8003 83.3061 86.8696 83.1787 86.9019L68.7682 90.6174L73.0227 112.97C73.0436 113.071 73.0411 113.175 73.0155 113.274C72.9899 113.373 72.9419 113.465 72.8753 113.542C72.8106 113.62 72.7293 113.683 72.6374 113.725C72.5454 113.767 72.4454 113.788 72.3445 113.785L40.4613 112.958L32.4999 115.777L14.1678 125.392C14.0664 125.445 13.9534 125.472 13.8392 125.469ZM17.9505 94.5335C18.0446 94.5339 18.1375 94.5538 18.2237 94.592C18.3099 94.6301 18.3875 94.6857 18.4518 94.7553C18.5184 94.8303 18.5681 94.9192 18.5972 95.0158C18.6263 95.1123 18.6342 95.2141 18.6202 95.3141L14.6944 123.567L31.9018 114.54C31.9297 114.524 31.9594 114.511 31.9902 114.502L40.1116 111.622C40.1896 111.593 40.2728 111.58 40.356 111.584L71.5273 112.39L67.315 90.2079C67.2829 90.0359 67.317 89.8579 67.4101 89.7105C67.5033 89.563 67.6486 89.4571 67.8162 89.4145L82.412 85.6563L83.6757 77.8242L79.0211 72.7564L74.4675 68.1451C74.4161 68.0927 74.3734 68.0322 74.3412 67.9659L71.1693 61.5245L65.0614 54.2044L39.543 68.3541C39.4298 68.4185 39.3005 68.4479 39.1711 68.4388C39.0416 68.4297 38.9175 68.3825 38.8142 68.3029L20.4737 54.2726L15.7685 59.8182C15.727 59.8676 15.6788 59.9107 15.6253 59.9462C15.204 60.4495 13.2832 63.6148 11.5856 66.5454L11.8805 71.7454C11.8941 71.8956 11.857 72.046 11.7752 72.172L3.2494 85.6776L5.71364 86.0615C5.86856 86.0829 6.01064 86.1601 6.11379 86.2791L13.696 94.7467L17.9084 94.5377L17.9505 94.5335Z" fill="#070618"/>
<path d="M18.8227 126.187C18.7825 126.191 18.742 126.191 18.7018 126.187L13.5066 125.24C13.3384 125.209 13.1901 125.116 13.0936 124.982C12.9971 124.847 12.9603 124.682 12.9911 124.523C13.0074 124.443 13.0401 124.368 13.0873 124.301C13.1344 124.234 13.195 124.176 13.2657 124.131C13.3364 124.086 13.4157 124.054 13.4992 124.038C13.5827 124.023 13.6687 124.022 13.7522 124.038L18.9435 124.984C19.1122 125.015 19.2612 125.108 19.3578 125.242C19.4545 125.377 19.4908 125.542 19.459 125.702C19.4283 125.84 19.3482 125.964 19.2322 126.052C19.1162 126.14 18.9715 126.188 18.8227 126.187Z" fill="#070618"/>
<path d="M68.4385 117.537C68.3455 117.536 68.2535 117.515 68.1685 117.473C68.0835 117.432 68.0074 117.371 67.945 117.296C67.831 117.153 67.773 116.966 67.7837 116.777C67.7944 116.587 67.8728 116.41 68.0021 116.283L71.7386 112.671C71.8029 112.608 71.878 112.56 71.9596 112.529C72.0411 112.498 72.1274 112.485 72.2135 112.491C72.2996 112.496 72.3838 112.521 72.4612 112.562C72.5387 112.604 72.6078 112.662 72.6646 112.733C72.7219 112.803 72.766 112.885 72.7942 112.974C72.8224 113.062 72.8341 113.156 72.8288 113.25C72.8235 113.344 72.8012 113.436 72.7632 113.52C72.7252 113.604 72.6723 113.679 72.6074 113.741L68.8709 117.358C68.7519 117.474 68.5979 117.538 68.4385 117.537Z" fill="#070618"/>
<path d="M39.8692 112.49L33.8911 76.6158L59.1291 56.2451" fill="white"/>
<path d="M39.932 112.489L33.8911 76.1643L59.4215 55.5234L59.8502 56.0632L34.6298 76.447L40.6069 112.374L39.932 112.489Z" fill="#070618"/>
<path d="M39.6604 89.4155L40.335 93.0203L44.708 92.6628V87.9727L39.6604 89.4155Z" fill="#070618"/>
<path d="M40.3813 97.3458L41.1524 100.952L46.15 100.59V95.9043L40.3813 97.3458Z" fill="#070618"/>
<path d="M64.9125 74.1224L64.2451 74.2568L67.451 90.4068L68.1184 90.2724L64.9125 74.1224Z" fill="#070618"/>
<path d="M20.48 80.5767L17.3872 95.1367L18.0527 95.2802L21.1455 80.7202L20.48 80.5767Z" fill="#070618"/>
<path d="M30.9734 134.843H30.2861V129.693L30.363 129.594L39.1309 118.979L39.6603 119.417L30.9734 129.942V134.843Z" fill="#070618"/>
<path d="M49.2529 118.258C49.136 118.258 49.0209 118.23 48.9183 118.175C48.8158 118.119 48.7292 118.039 48.6667 117.942L48.4236 117.576C48.3577 117.476 48.3197 117.36 48.3136 117.241C48.3075 117.122 48.3335 117.004 48.3889 116.898C48.4426 116.79 48.5244 116.699 48.6259 116.633C48.7273 116.567 48.8448 116.529 48.9663 116.522L55.5049 116.096C55.6889 116.085 55.8697 116.147 56.008 116.266C56.1462 116.386 56.2307 116.555 56.243 116.736C56.2494 116.825 56.2377 116.915 56.2083 117.001C56.179 117.086 56.1326 117.165 56.072 117.232C56.0114 117.3 55.9377 117.355 55.8552 117.394C55.7728 117.433 55.6832 117.456 55.5917 117.461L49.8954 117.819C49.8413 117.946 49.749 118.055 49.6306 118.13C49.5208 118.209 49.3891 118.254 49.2529 118.258Z" fill="#070618"/>
<path d="M60.0306 134.122L56.1464 129.073L49.0347 117.912L49.6103 117.537L56.7049 128.677L60.5721 133.7L60.0306 134.122Z" fill="#070618"/>
<path d="M69.0259 98.7886L59.8443 95.9703L59.1292 92.2988L68.5629 95.1293L68.3686 95.7479L59.989 93.2369L60.4231 95.4689L69.2244 98.17L69.0259 98.7886Z" fill="#070618"/>
<path d="M21.1635 100.952L32.449 95.1818L32.1847 92.2988L20.9116 97.9369" fill="white"/>
<path d="M20.7492 101.673L20.4423 101.044L31.7335 94.9946L31.5317 92.6744L20.4927 98.4594L20.1899 97.8254L32.112 91.5781L32.4484 95.4084L20.7492 101.673Z" fill="#070618"/>
<path d="M65.6194 57.779L69.4609 62.2815L74.9935 62.7343L68.8471 55.5234L65.6194 57.779Z" fill="white"/>
<path d="M75.7146 63.4554L69.5642 62.9362L65.6194 58.1238L69.2105 55.5234L75.7146 63.4554ZM69.8888 62.2818L74.1708 62.6449L69.094 56.4353L66.5973 58.2462L69.8888 62.2818Z" fill="#070618"/>
<path d="M67.8634 56.2451L65.6194 57.8522L69.44 62.4487L72.8302 62.7349" fill="white"/>
<path d="M72.7731 62.7349L69.4861 62.4665L65.6194 57.9116L67.9917 56.2451L68.3714 56.7699L66.5748 58.0318L69.8128 61.8456L72.8302 62.0939L72.7731 62.7349Z" fill="#070618"/>
<path d="M10.6143 67.0612C10.496 67.0604 10.3803 67.0256 10.28 66.9607L8.9629 66.1228C8.82469 66.0347 8.72323 65.8959 8.6785 65.7338C8.63376 65.5717 8.64902 65.3981 8.72125 65.2472L11.9192 58.6404C11.9529 58.5691 11.9994 58.5051 12.0562 58.4519L15.6529 54.9788C15.7611 54.8757 15.9 54.8141 16.0465 54.8041C16.1929 54.7942 16.3383 54.8367 16.4584 54.9244L17.0344 55.3433C17.174 55.4469 17.2685 55.6038 17.2972 55.7797C17.3259 55.9555 17.2864 56.1361 17.1875 56.2818C17.0879 56.427 16.937 56.5253 16.7679 56.5551C16.5989 56.585 16.4253 56.5439 16.2853 56.4409L16.1362 56.332L13.0148 59.3526L10.139 65.2933L10.9445 65.8044C11.0171 65.85 11.0802 65.91 11.1304 65.981C11.1806 66.052 11.2169 66.1327 11.2371 66.2183C11.2573 66.3039 11.2611 66.3928 11.2482 66.4799C11.2353 66.5671 11.206 66.6507 11.162 66.7261C11.1058 66.8258 11.0259 66.909 10.93 66.9677C10.8342 67.0263 10.7255 67.0585 10.6143 67.0612Z" fill="#070618"/>
<path d="M72.893 64.1768C72.7286 64.1777 72.5693 64.116 72.4444 64.0028C72.3194 63.8897 72.2371 63.7328 72.2125 63.5607C72.1865 63.3706 72.232 63.1773 72.3393 63.0222C72.4465 62.8672 72.6069 62.7629 72.786 62.7317L73.719 62.5777L68.8569 56.4029L68.0009 56.7654C67.9171 56.8006 67.8276 56.818 67.7375 56.8166C67.6474 56.8152 67.5585 56.795 67.4758 56.7571C67.3931 56.7192 67.3183 56.6644 67.2556 56.5959C67.1929 56.5273 67.1436 56.4464 67.1106 56.3576C67.0431 56.1792 67.0453 55.9797 67.1167 55.803C67.1882 55.6263 67.323 55.4869 67.4915 55.4153L68.8098 54.8536C68.9449 54.7972 69.0934 54.7874 69.2341 54.8257C69.3747 54.8639 69.5004 54.9482 69.5931 55.0665L75.5552 62.6366C75.633 62.736 75.6846 62.8553 75.7049 62.9826C75.7252 63.1098 75.7134 63.2405 75.6708 63.3614C75.6256 63.4798 75.5521 63.5838 75.4576 63.6632C75.3631 63.7426 75.2507 63.7947 75.1315 63.8144L72.9914 64.1633L72.893 64.1768Z" fill="#070618"/>
<path d="M20.1899 53.139L34.3958 76.4353L65.1577 53.3402L65.6184 51.1973L43.4832 64.7281L20.1899 53.139Z" fill="#070618"/>
<path d="M33.9431 76.4355C33.8662 76.4355 33.7898 76.4226 33.7173 76.3972L22.1686 72.3246C22.0017 72.2646 21.8643 72.1429 21.7849 71.9845C21.7056 71.8262 21.6904 71.6435 21.7425 71.4743L23.4897 65.3823L19.5095 53.5468C19.4512 53.3861 19.4556 53.2095 19.5219 53.0519C19.5883 52.8944 19.7116 52.7675 19.8674 52.6966C20.0172 52.6315 20.1853 52.6219 20.3415 52.6694C20.4977 52.717 20.6319 52.8185 20.7197 52.9559L34.5099 75.3642C34.5843 75.4844 34.6193 75.6246 34.6101 75.7656C34.601 75.9065 34.5481 76.0411 34.4588 76.1507C34.3994 76.2334 34.3223 76.3019 34.2331 76.3511C34.1439 76.4004 34.0449 76.4292 33.9431 76.4355ZM23.2297 71.249L32.3493 74.4672L22.7056 58.8141L24.8363 65.1655C24.8804 65.3038 24.8804 65.4523 24.8363 65.5906L23.2297 71.249Z" fill="#070618"/>
<path d="M9.37451 65.3198L15.6321 69.9452L20.9119 60.7693L16.189 55.5234L12.6478 59.0045L9.37451 65.3198Z" fill="white"/>
<path d="M15.3749 69.9452L8.65332 65.2381L12.0939 59.0074L15.8412 55.5234L20.9118 60.877L15.3749 69.9452ZM9.52713 65.0405L15.1648 68.9898L20.0674 60.9264L15.8076 56.4418L12.5981 59.4192L9.52713 65.0405Z" fill="#070618"/>
<path d="M15.2734 64.8978L15.1436 60.7652L16.5857 60.5713V64.8446L15.2734 64.8978Z" fill="#070618"/>
<path d="M18.0272 61.292L12.2585 62.8411L12.4242 64.1763L17.8998 62.8078L18.0272 61.292Z" fill="#070618"/>
<path d="M36.0247 87.9724C35.9334 87.9725 35.843 87.9543 35.7589 87.9189C35.6747 87.8835 35.5985 87.8316 35.5348 87.7663C35.4057 87.6361 35.3333 87.4602 35.3333 87.2769C35.3333 87.0935 35.4057 86.9176 35.5348 86.7874L51.3269 71.3558V66.2291C51.3274 66.1318 51.3483 66.0357 51.3883 65.9469C51.4282 65.8582 51.4864 65.7788 51.559 65.7139L65.1897 53.537C65.326 53.4148 65.5052 53.3517 65.6881 53.3613C65.8709 53.371 66.0425 53.4527 66.1651 53.5885C66.2869 53.7252 66.3493 53.9046 66.3388 54.0873C66.3284 54.2701 66.2458 54.4412 66.1093 54.5631L52.7107 66.5383V71.6478C52.7103 71.74 52.6915 71.8311 52.6553 71.9159C52.6191 72.0007 52.5664 72.0774 52.5001 72.1416L36.5189 87.7749C36.4536 87.8388 36.3764 87.8892 36.2915 87.9231C36.2067 87.957 36.116 87.9737 36.0247 87.9724Z" fill="#070618"/>
<path d="M20.9116 13.4397L21.4583 28.9876L42.7799 33.8908L62.3225 26.8084L62.7346 11.6712L60.4763 11.5371L20.9116 13.4397Z" fill="white"/>
<path d="M42.7835 34.6074C42.7318 34.6139 42.6794 34.6139 42.6276 34.6074L21.2651 29.6825C21.1195 29.6493 20.9889 29.569 20.8937 29.454C20.7984 29.3391 20.7438 29.196 20.7383 29.0469L20.1904 13.4304C20.1836 13.2524 20.2476 13.079 20.3684 12.9481C20.4893 12.8171 20.6571 12.7393 20.8352 12.7317L60.488 10.8164H60.5596L62.8185 10.9553C62.9936 10.9651 63.1581 11.0427 63.2769 11.1716C63.3957 11.3005 63.4595 11.4705 63.4549 11.6456L63.0335 26.8539C63.0295 26.9893 62.9848 27.1204 62.9051 27.23C62.8254 27.3397 62.7144 27.4228 62.5867 27.4684L42.9985 34.5822C42.9289 34.6034 42.8561 34.612 42.7835 34.6074ZM22.0742 28.466L42.7245 33.2268L61.6891 26.3403L62.0726 12.2476L60.5006 12.1508L21.5685 14.0155L22.0742 28.466Z" fill="#070618"/>
<path d="M25.958 20.9111H24.5181L23.7959 21.9928L24.5181 23.0744H25.958L26.6802 21.9928L25.958 20.9111Z" fill="#070618"/>
<path d="M59.127 20.9111H57.6848L56.9661 21.9928L57.6848 23.0744H59.127L59.8504 21.9928L59.127 20.9111Z" fill="#070618"/>
<path d="M46.1497 32.585L46.7368 34.3495L50.551 37.4968L56.7137 35.2063L56.966 32.4492L46.1497 32.585Z" fill="#95FFCB"/>
<path d="M39.6592 33.3055L39.1112 35.0686L35.5513 38.2175L29.7994 35.9289L29.564 33.1699L39.6592 33.3055Z" fill="#95FFCB"/>
<g filter="url(#filter0_f)">
<path d="M46.1497 32.585L46.7368 34.3495L50.551 37.4968L56.7137 35.2063L56.966 32.4492L46.1497 32.585Z" fill="#95FFCB"/>
</g>
<g filter="url(#filter1_f)">
<path d="M39.6592 33.3055L39.1112 35.0686L35.5513 38.2175L29.7994 35.9289L29.564 33.1699L39.6592 33.3055Z" fill="#95FFCB"/>
</g>
<g filter="url(#filter2_f)">
<path d="M46.1497 32.585L46.7368 34.3495L50.551 37.4968L56.7137 35.2063L56.966 32.4492L46.1497 32.585Z" fill="#95FFCB"/>
</g>
<g filter="url(#filter3_f)">
<path d="M39.6592 33.3055L39.1112 35.0686L35.5513 38.2175L29.7994 35.9289L29.564 33.1699L39.6592 33.3055Z" fill="#95FFCB"/>
</g>
<g filter="url(#filter4_f)">
<path d="M46.1497 32.585L46.7368 34.3495L50.551 37.4968L56.7137 35.2063L56.966 32.4492L46.1497 32.585Z" fill="#95FFCB"/>
</g>
<g filter="url(#filter5_f)">
<path d="M39.6592 33.3055L39.1112 35.0686L35.5513 38.2175L29.7994 35.9289L29.564 33.1699L39.6592 33.3055Z" fill="#95FFCB"/>
</g>
<path d="M66.5305 85.8095L66.3403 85.1407L79.3606 81.4821L80.8045 74.9932L81.4831 75.1442L79.9485 82.0343L66.5305 85.8095Z" fill="#070618"/>
<path d="M9.19372 80.762L8.65332 80.3532L14.3131 71.8749L15.2413 69.2246L15.8642 69.4707L14.8783 72.2441L9.19372 80.762Z" fill="#070618"/>
<path d="M79.4032 81.4826L76.3164 73.3655L70.6277 68.3663L69.2246 62.8956L69.8879 62.7344L71.2399 68.0107L76.8989 72.9851L80.0409 81.2511L79.4032 81.4826Z" fill="#070618"/>
<path d="M18.2608 90.8573L8.95834 80.794L5.94715 81.6385L5.76929 80.9937L9.16929 80.041L18.7488 90.4039L18.2608 90.8573Z" fill="#070618"/>
<path d="M19.3801 121.863L18.7478 121.757L20.1317 112.543L20.2708 81.4824H20.9111L20.7639 112.624L19.3801 121.863Z" fill="#070618"/>
<path d="M44.7072 21.2943L43.1787 20.7466L41.6102 17.3057L40.4348 20.7907L38.9385 21.8332L42.2521 28.843L44.7072 21.2943Z" fill="#070618"/>
<path d="M42.5564 10.0948L35.3333 1.89566L35.8477 1.44015L42.4714 8.96244L47.7389 0.720703L48.3128 1.09107L42.5564 10.0948Z" fill="#070618"/>
<path d="M43.9083 48.2906L43.2278 48.3027L43.4122 58.8423L44.0927 58.8302L43.9083 48.2906Z" fill="#070618"/>
<path d="M26.2258 41.249L19.8516 53.2314L20.4514 53.5554L26.8257 41.573L26.2258 41.249Z" fill="#070618"/>
<path d="M60.3019 40.0639L59.6924 40.3691L65.2637 51.6621L65.8732 51.3569L60.3019 40.0639Z" fill="#070618"/>
<path d="M21.4296 28.1222L18.0269 30.1553L18.374 30.745L21.7767 28.7119L21.4296 28.1222Z" fill="#070618"/>
<path d="M62.8034 26.7241L62.5078 27.3418L64.663 28.3887L64.9586 27.771L62.8034 26.7241Z" fill="#070618"/>
<path d="M19.4752 125.469L20.3174 122.472L40.5289 113.481H68.7407L69.1618 115.622L72.1093 113.053L40.5289 111.769L32.1074 114.766L14.4224 124.185L19.4752 125.469Z" fill="#070618"/>
<g filter="url(#filter6_f)">
<path d="M93.2177 67.0608L86.1383 65.5029L82.7943 62.9689L84.9572 62.3839L80.0408 52.8397L81.8604 53.3397L82.5986 48.3567L80.2365 44.4622L85.7435 41.3432L86.1383 38.6153L87.3159 30.8228L100.101 23.2242L93.022 18.5507L100.493 11.5371L97.348 16.2106L98.9204 18.9385L105.605 23.6153L101.674 28.6799L92.2324 31.4078L93.6091 33.1629L98.5256 36.0847V40.3704L106 46.2139L100.101 61.7989L93.2177 67.0608Z" fill="#99FFCC"/>
</g>
<path d="M85.3541 55.1078L83.646 46.5995L84.6453 44.5968L87.1798 44.0686L97.0344 43.9863L98.3173 44.0583L100.952 45.6221L99.3027 56.2532L96.3809 62.0455L93.0338 65.6189L90.8174 60.9687L89.0678 57.9302L85.3541 55.1078Z" fill="white"/>
<path d="M93.0238 66.3398H92.9934C92.9623 66.3344 92.9329 66.3214 92.9077 66.3021C92.8824 66.2827 92.862 66.2574 92.848 66.2284L90.6677 61.5125L88.9776 58.4753L85.3912 55.6333C85.3553 55.6031 85.3303 55.5614 85.3202 55.5148L83.6503 46.8702C83.6409 46.8265 83.6469 46.7808 83.6672 46.7413L84.6441 44.7108C84.6565 44.6835 84.6749 44.6596 84.6978 44.6409C84.7206 44.6221 84.7474 44.6091 84.776 44.6028L87.2571 44.0664H87.2942L96.928 43.9863L98.1922 44.0595C98.2235 44.0596 98.2541 44.0693 98.2801 44.0873L100.856 45.6756C100.889 45.6962 100.915 45.7262 100.932 45.7621C100.949 45.7979 100.955 45.8381 100.95 45.8776L99.3381 56.6747C99.334 56.6948 99.3284 56.7146 99.3212 56.7339L96.4649 62.6131C96.4556 62.6307 96.4442 62.6471 96.4311 62.6618L93.159 66.291C93.1217 66.3246 93.0732 66.3421 93.0238 66.3398ZM85.692 55.3755L89.2514 58.1967C89.2724 58.2114 89.2888 58.2319 89.2987 58.2559L91.0091 61.3418L93.0745 65.8034L96.137 62.4111L98.9662 56.5841L100.555 45.9577L98.1313 44.46L96.9246 44.3938L87.3247 44.4739L84.9585 44.9859L84.0526 46.8737L85.692 55.3755Z" fill="#070618"/>
<path d="M87.1485 44.0488L84.7377 44.5291L83.646 46.4503L89.6833 47.5918L97.9007 47.1838L100.952 45.539L98.5034 44.085L97.2394 43.9863L87.1485 44.0488Z" fill="white"/>
<path d="M89.7361 48.3128H89.699L83.8045 47.067C83.775 47.0599 83.7472 47.046 83.7234 47.0263C83.6995 47.0065 83.68 46.9814 83.6663 46.9528C83.653 46.9239 83.646 46.8921 83.646 46.86C83.646 46.8278 83.653 46.796 83.6663 46.7671L84.7313 44.686C84.7452 44.66 84.7641 44.6373 84.7867 44.6195C84.8093 44.6017 84.8353 44.5891 84.8628 44.5825L87.2219 44.0613H87.2623L97.1269 43.9863L98.3772 44.0934C98.4084 44.0942 98.4387 44.1041 98.4649 44.122L100.861 45.6998C100.889 45.7193 100.912 45.7458 100.928 45.7769C100.944 45.8081 100.952 45.8429 100.952 45.8783C100.95 45.9132 100.941 45.9471 100.924 45.977C100.907 46.007 100.883 46.0319 100.854 46.0496L97.8717 47.8345C97.8449 47.8509 97.815 47.8606 97.7841 47.8631L89.7428 48.3057L89.7361 48.3128ZM84.1415 46.7386L89.7698 47.9202L97.7234 47.4525L100.386 45.8462L98.2964 44.4897L97.1101 44.3897L87.2792 44.4647L85.0144 44.9644L84.1415 46.7386Z" fill="#070618"/>
<path d="M93.0114 66.3402C92.9743 66.3401 92.938 66.3288 92.9069 66.3078C92.8759 66.2867 92.8514 66.2567 92.8364 66.2215L90.6584 61.333L88.8809 58.2777L85.4035 55.4843C85.3667 55.4551 85.3415 55.4129 85.3328 55.3656L83.6496 46.6362C83.6412 46.5914 83.6476 46.545 83.6677 46.5044C83.6879 46.4639 83.7207 46.4316 83.7607 46.4127C83.801 46.3953 83.8458 46.3923 83.8879 46.4043C83.93 46.4163 83.967 46.4427 83.993 46.4791L88.3491 52.5897C88.3798 52.6328 88.3928 52.6867 88.3852 52.7397C88.3776 52.7928 88.3501 52.8405 88.3087 52.8725C88.2674 52.9033 88.2161 52.9161 88.1658 52.9083C88.1155 52.9005 88.0701 52.8726 88.0393 52.8306L84.1984 47.4393L85.7098 55.219L89.1603 58.0124C89.1787 58.0284 89.1946 58.0472 89.2075 58.0682L91.0118 61.1759L92.9946 65.6314L94.496 60.8128C94.5062 60.7811 94.5235 60.7524 94.5465 60.729L98.9227 56.3747L100.569 45.5992C100.573 45.5729 100.581 45.5476 100.594 45.5249C100.608 45.5022 100.625 45.4824 100.646 45.4668C100.667 45.4512 100.69 45.44 100.715 45.4339C100.74 45.4279 100.766 45.4271 100.791 45.4315C100.816 45.4358 100.84 45.4451 100.862 45.459C100.883 45.4729 100.902 45.4911 100.916 45.5125C100.931 45.534 100.942 45.5582 100.947 45.5839C100.953 45.6095 100.954 45.6361 100.949 45.662L99.2863 56.4585C99.2797 56.5013 99.2595 56.5406 99.229 56.5703L94.8528 60.9385L93.2134 66.1971C93.2017 66.2353 93.179 66.2688 93.1483 66.2932C93.1175 66.3176 93.0804 66.3315 93.0417 66.3332L93.0114 66.3402Z" fill="#070618"/>
<path d="M90.1353 47.5918L92.2985 57.8513L91.185 61.2924" fill="white"/>
<path d="M91.1874 62.011C91.1702 62.0144 91.1528 62.0144 91.1356 62.011C91.1162 62.0021 91.0984 61.9881 91.0832 61.9698C91.0679 61.9515 91.0556 61.9294 91.047 61.9046C91.0383 61.8799 91.0335 61.8531 91.0328 61.8258C91.0321 61.7986 91.0355 61.7714 91.0428 61.7459L91.9759 58.2888L90.1397 47.8483C90.1349 47.8219 90.134 47.7944 90.1371 47.7674C90.1402 47.7405 90.1473 47.7146 90.1579 47.6914C90.1686 47.6681 90.1826 47.6478 90.1991 47.6318C90.2157 47.6157 90.2344 47.6041 90.2543 47.5978C90.2742 47.5913 90.2949 47.5901 90.3151 47.5942C90.3354 47.5984 90.3548 47.6078 90.3723 47.622C90.3898 47.6361 90.405 47.6548 90.417 47.6768C90.4291 47.6988 90.4378 47.7238 90.4426 47.7503L92.2924 58.2306C92.3005 58.2699 92.3005 58.3113 92.2924 58.3505L91.3402 61.8657C91.3301 61.9088 91.3097 61.9463 91.2822 61.9725C91.2546 61.9987 91.2213 62.0122 91.1874 62.011Z" fill="#070618"/>
<path d="M88.9601 58.4019C88.9098 58.4014 88.8615 58.3852 88.8244 58.3563C88.7872 58.3274 88.7638 58.2879 88.7586 58.2453C88.7557 58.2227 88.7582 58.1998 88.766 58.178C88.7737 58.1562 88.7866 58.136 88.8037 58.1185C88.8209 58.1011 88.842 58.0868 88.8659 58.0765C88.8897 58.0662 88.9157 58.0601 88.9424 58.0586L91.7023 57.8478L88.066 53.7851L85.4333 55.9143C85.4146 55.9304 85.3923 55.9432 85.3678 55.952C85.3432 55.9607 85.3168 55.9652 85.2902 55.9652C85.2636 55.9652 85.2373 55.9607 85.2127 55.952C85.1881 55.9432 85.1658 55.9304 85.1471 55.9143C85.1098 55.8817 85.0889 55.8379 85.0889 55.7923C85.0889 55.7468 85.1098 55.703 85.1471 55.6704L87.9423 53.4086C87.985 53.3761 88.0407 53.3589 88.0978 53.3604C88.1261 53.3633 88.1535 53.3708 88.1784 53.3827C88.2033 53.3946 88.2251 53.4106 88.2427 53.4297L92.2571 57.893C92.2797 57.9173 92.2939 57.9465 92.2983 57.9773C92.3027 58.0082 92.297 58.0394 92.2818 58.0676C92.2678 58.096 92.2448 58.1205 92.2156 58.1386C92.1863 58.1566 92.1518 58.1675 92.1157 58.17L88.9883 58.408L88.9601 58.4019Z" fill="#070618"/>
<path d="M92.2993 58.414L94.9872 61.2927L98.7891 52.6396" fill="white"/>
<path d="M95.0246 61.2927C94.9991 61.2921 94.9741 61.2863 94.9508 61.2758C94.9276 61.2652 94.9068 61.2501 94.8895 61.2313L92.3523 58.4793C92.3183 58.4443 92.2993 58.3973 92.2993 58.3484C92.2993 58.2996 92.3183 58.2526 92.3523 58.2176C92.3872 58.1835 92.4339 58.1644 92.4826 58.1644C92.5312 58.1644 92.578 58.1835 92.6128 58.2176L94.9603 60.7629L98.4333 52.749C98.4536 52.7044 98.4906 52.6695 98.5364 52.652C98.5821 52.6344 98.6328 52.6357 98.6777 52.6554C98.6999 52.6649 98.72 52.6787 98.7368 52.696C98.7537 52.7134 98.767 52.7339 98.776 52.7564C98.7849 52.7789 98.7894 52.8029 98.7891 52.8272C98.7888 52.8514 98.7837 52.8754 98.7741 52.8976L95.1854 61.1699C95.1734 61.1984 95.1544 61.2234 95.1302 61.2426C95.1061 61.2618 95.0775 61.2746 95.0471 61.2798L95.0246 61.2927Z" fill="#070618"/>
<path d="M93.215 66.3398C93.1673 66.34 93.1213 66.3217 93.0866 66.2886C93.0673 66.2717 93.0516 66.2511 93.0403 66.228C93.0291 66.2049 93.0224 66.1797 93.0209 66.154C93.0193 66.1283 93.0228 66.1026 93.0312 66.0783C93.0396 66.0539 93.0526 66.0315 93.0697 66.0123L96.3144 62.3013L99.1096 56.629L97.7914 47.8153C97.7871 47.7899 97.7879 47.7639 97.7938 47.7389C97.7997 47.7138 97.8106 47.6902 97.8257 47.6695C97.8409 47.6488 97.86 47.6314 97.882 47.6184C97.904 47.6053 97.9284 47.5969 97.9537 47.5936C98.0042 47.5867 98.0554 47.5999 98.0964 47.6305C98.1374 47.6611 98.165 47.7065 98.1734 47.7573L99.5017 56.6256C99.5132 56.6634 99.5132 56.7038 99.5017 56.7416L96.6659 62.4923C96.6589 62.5072 96.6498 62.521 96.6389 62.5332L93.3772 66.2647C93.3582 66.2895 93.3335 66.3093 93.3053 66.3224C93.277 66.3354 93.246 66.3414 93.215 66.3398Z" fill="#070618"/>
<path d="M87.252 45.3534L88.9664 41.4364L90.3975 41.3142L91.9169 35.333L94.1906 41.3472L97.3472 45.2609L92.7079 46.1493L88.6831 46.037L87.252 45.3534Z" fill="white"/>
<path d="M92.6893 46.1493L88.8257 46.0409C88.7949 46.0388 88.7648 46.0312 88.7373 46.0185L87.3587 45.3551C87.3148 45.3345 87.281 45.2999 87.264 45.2579C87.247 45.216 87.248 45.1699 87.2668 45.1286L88.9105 41.3456C88.9245 41.3143 88.9477 41.2871 88.9776 41.2669C89.0075 41.2466 89.043 41.2341 89.0802 41.2308L90.3139 41.1255L91.7278 35.4765C91.7386 35.438 91.7625 35.4035 91.7961 35.3778C91.8296 35.3521 91.8713 35.3364 91.9151 35.333C91.9587 35.3329 92.0013 35.3448 92.0373 35.367C92.0732 35.3892 92.1009 35.4207 92.1166 35.4574L94.2941 41.2435L97.3093 44.9978C97.3287 45.0225 97.3411 45.0511 97.3455 45.0812C97.3498 45.1112 97.3459 45.1417 97.334 45.1701C97.3216 45.1987 97.3015 45.2241 97.2757 45.2442C97.2498 45.2642 97.2188 45.2782 97.1856 45.2849L92.7282 46.1429L92.6893 46.1493ZM88.8787 45.6772L92.6716 45.7825L96.8003 44.9851L93.9618 41.4349C93.9497 41.4204 93.9402 41.4042 93.9335 41.3871L91.9788 36.1879L90.6779 41.336C90.669 41.3734 90.647 41.4072 90.6152 41.4325C90.5834 41.4578 90.5434 41.4731 90.5012 41.4764L89.2463 41.5848L87.7122 45.1095L88.8787 45.6772Z" fill="#070618"/>
<path d="M87.4841 45.4281C87.4467 45.428 87.4098 45.4203 87.3768 45.4057C87.3437 45.3911 87.3155 45.37 87.2944 45.3443C87.2768 45.324 87.2643 45.3009 87.2576 45.2764C87.2509 45.252 87.2502 45.2267 87.2554 45.202C87.2607 45.1774 87.2719 45.1538 87.2883 45.1328C87.3047 45.1117 87.326 45.0936 87.3509 45.0796L91.6334 42.5964L89.1713 41.4603C89.1443 41.4485 89.1204 41.4322 89.1012 41.4124C89.082 41.3927 89.0678 41.3699 89.0595 41.3454C89.0512 41.321 89.049 41.2954 89.0529 41.2702C89.0569 41.2451 89.0669 41.2208 89.0825 41.1989C89.113 41.155 89.163 41.1226 89.2218 41.1089C89.2806 41.0951 89.3436 41.101 89.3973 41.1252L92.1783 42.4121C92.2135 42.427 92.2434 42.4494 92.2647 42.4771C92.2859 42.5048 92.2979 42.5367 92.2994 42.5696C92.3009 42.6023 92.2925 42.6348 92.2748 42.6641C92.2572 42.6934 92.2309 42.7185 92.1985 42.7371L87.6173 45.3946C87.5778 45.4163 87.5315 45.428 87.4841 45.4281Z" fill="#070618"/>
<path d="M90.8564 41.1016L91.8271 42.5751L92.9989 46.1492L94.8779 43.8018L97.3462 45.2308" fill="white"/>
<path d="M93.0627 46.149H93.03C92.9967 46.143 92.9658 46.1282 92.9404 46.1063C92.9151 46.0844 92.8964 46.0562 92.8862 46.0247L91.7883 42.7345L90.8865 41.3827C90.8731 41.3627 90.864 41.3402 90.8595 41.3167C90.8551 41.2931 90.8555 41.2689 90.8606 41.2455C90.8658 41.2221 90.8756 41.2 90.8896 41.1803C90.9036 41.1606 90.9214 41.1438 90.942 41.1309C90.9626 41.1178 90.9856 41.1089 91.0098 41.1046C91.0339 41.1002 91.0587 41.1006 91.0826 41.1056C91.1066 41.1107 91.1294 41.1203 91.1495 41.1339C91.1697 41.1475 91.1869 41.1649 91.2002 41.1851L92.1151 42.556C92.1246 42.5687 92.1323 42.5827 92.138 42.5974L93.1346 45.6007L94.6867 43.6878C94.7145 43.6529 94.7544 43.6291 94.799 43.6209C94.8435 43.6127 94.8895 43.6206 94.9285 43.6431L97.255 44.9726C97.2974 44.9971 97.3281 45.0371 97.3404 45.0837C97.3526 45.1304 97.3454 45.1798 97.3204 45.2213C97.3082 45.242 97.2919 45.2602 97.2725 45.2748C97.253 45.2894 97.2309 45.3002 97.2072 45.3064C97.1835 45.3126 97.1588 45.3142 97.1345 45.3111C97.1102 45.308 97.0867 45.3002 97.0655 45.2882L94.8925 44.0098L93.2228 46.0693C93.2054 46.0949 93.1815 46.1157 93.1535 46.1297C93.1254 46.1436 93.0942 46.1503 93.0627 46.149Z" fill="#070618"/>
<path d="M94.4624 41.1016L95.1835 43.9859L94.4624 41.1016Z" fill="white"/>
<path d="M95.0213 43.9859C94.9834 43.9852 94.9468 43.9696 94.9177 43.9416C94.8886 43.9137 94.8689 43.8752 94.8617 43.8325L94.4654 41.3198C94.4613 41.2958 94.4614 41.2711 94.4658 41.2471C94.4703 41.2231 94.4788 41.2004 94.4911 41.1803C94.5033 41.1602 94.5189 41.1432 94.5371 41.1301C94.5552 41.1171 94.5754 41.1084 94.5965 41.1044C94.6392 41.0958 94.6831 41.1067 94.7188 41.1348C94.7546 41.1629 94.7792 41.2059 94.7875 41.2545L95.181 43.764C95.1885 43.8129 95.179 43.8631 95.1544 43.904C95.1299 43.9449 95.0924 43.9731 95.0498 43.9827L95.0213 43.9859Z" fill="#070618"/>
<path d="M92.6812 66.3401H92.6159C92.5531 66.3286 92.4939 66.3026 92.4431 66.2642C92.3924 66.2258 92.3515 66.1761 92.3239 66.1191L90.1148 61.3588L88.318 58.4142L84.7966 55.694C84.7223 55.6363 84.6712 55.5544 84.6523 55.4628L82.9345 46.9623C82.9138 46.8734 82.9273 46.78 82.9723 46.7005L84.0614 44.7181C84.0882 44.6681 84.1259 44.6246 84.1716 44.5905C84.2173 44.5564 84.2699 44.5327 84.3259 44.5209L86.7308 44.0211H86.8098H87.3492L88.4932 41.1445C88.5188 41.0774 88.563 41.0189 88.6208 40.9755C88.6785 40.9322 88.7474 40.9059 88.8196 40.8997L89.8778 40.8011L91.2314 34.9153C91.2511 34.8328 91.2973 34.7589 91.3628 34.7044C91.4284 34.6498 91.51 34.6177 91.5955 34.6127C91.681 34.6089 91.7654 34.6328 91.8361 34.6806C91.9067 34.7284 91.9597 34.7977 91.9872 34.8779L94.0932 41.0153L96.2438 43.9565H96.8553L98.1471 44.0551C98.2101 44.0619 98.2709 44.0816 98.3258 44.1129L100.768 45.6158C100.834 45.6563 100.886 45.715 100.917 45.7846C100.949 45.8542 100.96 45.9315 100.947 46.0068L99.2602 56.5543C99.2558 56.5872 99.2466 56.6192 99.2327 56.6495L96.7214 62.3891C96.7011 62.4322 96.6732 62.4714 96.6389 62.5047L92.956 66.2177C92.8841 66.2925 92.7854 66.3365 92.6812 66.3401ZM85.3944 55.1772L88.8608 57.843C88.8981 57.8731 88.9306 57.9086 88.957 57.9484L90.7985 60.9746L90.8191 61.012L92.8014 65.2724L96.0342 62.015L98.4975 56.3877L100.14 46.1326L97.9994 44.8167L96.8382 44.7215H96.048C95.9854 44.7191 95.9242 44.7032 95.8684 44.675C95.8127 44.6468 95.7638 44.607 95.725 44.5583L93.4198 41.4063C93.3962 41.3754 93.3776 41.341 93.3648 41.3043L91.702 36.4182L90.5958 41.2363C90.577 41.3153 90.5338 41.3865 90.4722 41.4402C90.4107 41.4938 90.3338 41.5271 90.2522 41.5355L89.1529 41.6375L88.002 44.5379C87.9733 44.6096 87.9236 44.6712 87.8593 44.7148C87.7951 44.7584 87.7191 44.7821 87.6412 44.7827H86.8717L84.6729 45.235L83.7384 46.9351L85.3944 55.1772Z" fill="#070618"/>
<defs>
<filter id="filter0_f" x="42.1497" y="28.4492" width="18.8163" height="13.0476" filterUnits="userSpaceOnUse" color-interpolation-filters="sRGB">
<feFlood flood-opacity="0" result="BackgroundImageFix"/>
<feBlend mode="normal" in="SourceGraphic" in2="BackgroundImageFix" result="shape"/>
<feGaussianBlur stdDeviation="2" result="effect1_foregroundBlur"/>
</filter>
<filter id="filter1_f" x="25.564" y="29.1699" width="18.0952" height="13.0476" filterUnits="userSpaceOnUse" color-interpolation-filters="sRGB">
<feFlood flood-opacity="0" result="BackgroundImageFix"/>
<feBlend mode="normal" in="SourceGraphic" in2="BackgroundImageFix" result="shape"/>
<feGaussianBlur stdDeviation="2" result="effect1_foregroundBlur"/>
</filter>
<filter id="filter2_f" x="42.1497" y="28.4492" width="18.8163" height="13.0476" filterUnits="userSpaceOnUse" color-interpolation-filters="sRGB">
<feFlood flood-opacity="0" result="BackgroundImageFix"/>
<feBlend mode="normal" in="SourceGraphic" in2="BackgroundImageFix" result="shape"/>
<feGaussianBlur stdDeviation="2" result="effect1_foregroundBlur"/>
</filter>
<filter id="filter3_f" x="25.564" y="29.1699" width="18.0952" height="13.0476" filterUnits="userSpaceOnUse" color-interpolation-filters="sRGB">
<feFlood flood-opacity="0" result="BackgroundImageFix"/>
<feBlend mode="normal" in="SourceGraphic" in2="BackgroundImageFix" result="shape"/>
<feGaussianBlur stdDeviation="2" result="effect1_foregroundBlur"/>
</filter>
<filter id="filter4_f" x="42.1497" y="28.4492" width="18.8163" height="13.0476" filterUnits="userSpaceOnUse" color-interpolation-filters="sRGB">
<feFlood flood-opacity="0" result="BackgroundImageFix"/>
<feBlend mode="normal" in="SourceGraphic" in2="BackgroundImageFix" result="shape"/>
<feGaussianBlur stdDeviation="2" result="effect1_foregroundBlur"/>
</filter>
<filter id="filter5_f" x="25.564" y="29.1699" width="18.0952" height="13.0476" filterUnits="userSpaceOnUse" color-interpolation-filters="sRGB">
<feFlood flood-opacity="0" result="BackgroundImageFix"/>
<feBlend mode="normal" in="SourceGraphic" in2="BackgroundImageFix" result="shape"/>
<feGaussianBlur stdDeviation="2" result="effect1_foregroundBlur"/>
</filter>
<filter id="filter6_f" x="78.0408" y="9.53711" width="29.9591" height="59.5237" filterUnits="userSpaceOnUse" color-interpolation-filters="sRGB">
<feFlood flood-opacity="0" result="BackgroundImageFix"/>
<feBlend mode="normal" in="SourceGraphic" in2="BackgroundImageFix" result="shape"/>
<feGaussianBlur stdDeviation="1" result="effect1_foregroundBlur"/>
</filter>
</defs>
</svg>
