<svg width="920" height="332" viewBox="0 0 920 332" fill="none" xmlns="http://www.w3.org/2000/svg">
<mask id="mask0" style="mask-type:alpha" maskUnits="userSpaceOnUse" x="0" y="0" width="920" height="332">
<path d="M0 0H920V322C920 327.523 915.523 332 910 332H10C4.47715 332 0 327.523 0 322V0Z" fill="#C4C4C4"/>
</mask>
<g mask="url(#mask0)">
<path d="M930.28 -175H-21.9702V454.91H930.28V-175Z" fill="url(#paint0_linear)"/>
<path opacity="0.5" d="M930.28 72.3101H-21.9701H2.84985L-7.5802 73.6301H-21.9202V73.6901H-8.01013L-18.9602 75.08H-21.9602V75.14H-19.4502L-21.9602 75.46V75.59L-18.4102 75.14H7.58984L-3.24011 76.6H-21.9302V76.66H-3.7002L-15.1001 78.2H-21.9602V78.27H-15.6001L-21.9901 79.1301V79.27L-14.4801 78.27H12.8499L1.55981 79.89H-21.9701V79.95H1.11987L-10.8102 81.67H-21.9701V81.73H-11.3002L-21.9701 83.27V83.4401L-10.1602 81.73H18.6798L6.9198 83.54H-21.9701V83.61H6.44983L-6.00012 85.53H-22.0001V85.61H-6.54016L-19.7201 87.61H-22.0001V87.6901H-20.2701L-22.0001 87.96V88.15L-19.0001 87.67H12.4198L-0.5802 89.82H-21.9602V89.91H-1.15015L-15.0101 92.23H-22.0101V92.32H-15.6101L-22.0101 93.3801V93.6L-14.2601 92.32H19.1399L5.46985 94.76H-22.0101V94.86H4.90991L-9.69019 97.46H-21.9901V97.57H-10.2902L-22.0101 99.66V99.92L-8.86011 97.57H26.8499L12.4899 100.35H-21.9602V100.47H11.8499L-3.56018 103.47H-22.0001V103.59H-4.2002L-20.7701 106.8H-22.0001V106.93H-21.4602L-22.0001 107.04V107.35L-19.8701 106.93H19.8298L3.50989 110.39H-22.0001V110.54H2.84985L-14.7902 114.27H-21.9801V114.42H-15.5302L-21.9801 115.79V116.16L-13.8102 114.42H29.1199L11.7998 118.48H-21.9801V118.64H11.0798L-7.78015 123.06H-21.9801V123.24H-8.57019L-21.9801 126.38V126.84L-6.7002 123.24H40.0498L21.6099 128.07H-21.9801V128.27H20.8499L0.639893 133.57H-21.9602V133.79H-0.230103L-21.9602 139.48V140.1L-21.3102 139.93H32.6299L10.7998 146.39H-21.9602V146.66H9.84985L-14.4402 153.87H-21.9901V154.17H-15.4602L-21.9901 156.17V156.9L-13.0602 154.24H46.9398L23.3699 162.24H-22.0201V162.58H22.3699L-4.26013 171.67H-22.0201V172.05H-5.38013L-22.0201 177.74V178.74L-2.68018 172.08H65.0999L39.4498 182.43H-22.0502V182.87H38.3699L8.94983 194.76H-22.0502V195.25H7.6698L-22.0502 207.25V208.6L10.7699 195.24H88.5898L60.6698 209.01H-21.9901V209.6H59.4698L26.7299 225.75H-22.0201V226.45H25.3198L-13.6101 245.67H-22.0201V246.51H-15.3102L-22.0201 249.82V251.82L-11.3102 246.49H88.5798L51.9298 269.7H-22.0702V270.7H50.2599L5.07983 299.32H-22.0702V300.6H3.0498L-22.0402 316.51V319.84L7.95984 300.6H131.16L90.2799 336.78H-22.1201V338.41H88.4298L35.1099 385.59H-22.1201V387.76H32.8499L-21.9302 436.26V442.78L39.2699 387.78H200.1L156.42 451.88H-21.9302V454.88H930.32V451.88H751.97L708.29 387.78H869.12L930.32 442.78V436.26L875.55 387.76H930.32V385.59H873.05L819.73 338.41H930.28V336.8H817.85L776.97 300.62H900.2L930.2 319.86V316.53L905.07 300.62H930.2V299.34H903.06L857.87 270.72H930.2V269.72H856.2L819.55 246.51H919.44L930.15 251.84V249.84L923.44 246.53H930.15V245.69H921.85L882.92 226.49H930.26V225.79H881.5L848.77 209.65H930.26V209.05H847.59L819.68 195.29H897.45L930.28 208.64V207.29L900.56 195.29H930.28V194.8H899.28L869.85 182.87H930.24V182.39H868.74L843.1 172.03H910.89L930.24 178.69V177.69L913.6 172.01H930.24V171.63H912.47L885.85 162.54H930.25V162.2H884.85L861.3 154.1H921.3L930.23 156.76V156.1L923.7 154.1H930.23V153.8H922.66L898.39 146.59H930.23V146.32H897.47L875.69 139.89H929.6L930.25 140.06V139.5L908.51 133.81H930.25V133.59H907.67L887.44 128.3H930.25V128.1H886.67L868.22 123.27H914.97L930.26 126.87V126.41L916.85 123.28H930.27V123.1H916.05L897.2 118.68H930.26V118.52H896.48L879.15 114.46H922.09L930.26 116.2V115.83L923.81 114.46H930.26V114.31H923.06L905.42 110.57H930.26V110.42H904.74L888.43 106.96H928.16L930.29 107.38V107.1L929.75 106.99H930.29V106.86H929.06L912.49 103.65H930.29V103.53H911.85L896.45 100.53H930.3V100.41H895.85L881.49 97.6301H917.15L930.3 99.98V99.72L918.57 97.6301H930.3V97.52H918L903.4 94.92H930.32V94.82H902.85L889.18 92.3801H922.59L930.34 93.66V93.4401L923.94 92.3801H930.34V92.29H923.34L909.48 90.01H930.32V89.92H908.95L895.95 87.77H927.36L930.36 88.26V88.1L928.62 87.83H930.36V87.72H928.08L914.9 85.72H930.36V85.64H914.36L901.85 83.65H930.27V83.58H901.37L889.61 81.77H918.44L930.25 83.48V83.3101L919.58 81.77H930.25V81.71H919.09L907.18 79.9901H930.25V79.9301H906.75L895.46 78.3101H922.85L930.32 79.3101V79.17L923.93 78.3101H930.32V78.2401H923.47L912.06 76.7H930.32V76.65H911.62L900.8 75.1801H926.8L930.36 75.64V75.5001L927.84 75.1801H930.36V75.1H927.36L916.36 73.71H930.27V73.65H915.93L905.5 72.33H930.27L930.28 72.3101ZM878.75 72.3101L888.56 73.6301H863.21L853.96 72.3101H878.75ZM468.19 79.95L468.56 81.67H439.75L440.12 79.95H468.19ZM440.19 79.89L440.54 78.27H467.85L468.2 79.89H440.19ZM399.25 269.64L404.25 246.43H504.13L509.13 269.64H399.25ZM509.35 270.64L515.53 299.26H392.85L399.02 270.64H509.35ZM408.72 225.64L412.2 209.5H496.2L499.69 225.64H408.72ZM499.81 226.34L503.95 245.54H404.45L408.58 226.34H499.81ZM415.41 194.61L417.97 182.73H490.4L492.97 194.61H415.41ZM493.07 195.1L496.02 208.87H412.35L415.35 195.1H493.07ZM420.41 171.55L422.41 162.44H486.09L488.09 171.55H420.41ZM488.09 171.93L490.33 182.29H418.08L420.32 171.93H488.09ZM424.24 153.75L425.82 146.54H482.64L484.19 153.75H424.24ZM484.24 154.05L485.99 162.12H422.46L424.2 154.05H484.24ZM427.31 139.56L428.57 133.71H479.87L481.13 139.56H427.31ZM481.17 139.81L482.57 146.27H425.85L427.23 139.81H481.17ZM428.62 133.51L429.77 128.21H478.68L479.83 133.51H428.62ZM430.85 123.1L431.85 118.68H476.63L477.57 123.1H430.85ZM477.55 123.28L478.55 128.11H429.73L430.73 123.28H477.55ZM432.77 114.28L433.57 110.54H474.81L475.62 114.28H432.77ZM475.67 114.43L476.54 118.49H431.85L432.73 114.43H475.67ZM507.27 94.78H472.82L472.25 92.34H505.66L507.27 94.78ZM505.36 89.97H537.75L540.29 92.26H506.85L505.36 89.97ZM434.36 106.8L435.05 103.59H473.32L474 106.8H434.36ZM474.03 106.93L474.78 110.39H433.59L434.33 106.93H474.03ZM434.95 97.48H399.33L401.05 94.8801H435.55L434.95 97.48ZM472.83 94.8801H507.34L509.06 97.48H473.42L472.83 94.8801ZM473.33 103.47H435.08L435.72 100.47H472.63L473.33 103.47ZM435.61 94.78H401.17L402.79 92.34H436.13L435.61 94.78ZM401.5 92.26H368.09L370.64 89.97H403.02L401.5 92.26ZM366.8 92.26H333.39L336.96 89.97H369.34L366.8 92.26ZM368.03 92.35H401.43L399.78 94.79H365.27L368.03 92.35ZM399.7 94.8801L397.94 97.48H362.31L365.21 94.8801H399.7ZM399.29 97.59H434.96L434.31 100.37H397.41L399.29 97.59ZM434.29 100.49L433.6 103.49H395.36L397.36 100.49H434.29ZM433.57 103.59L432.82 106.8H393.15L395.28 103.59H433.57ZM475.64 106.8L474.89 103.59H513.14L515.27 106.8H475.64ZM474.86 103.47L474.17 100.47H511.07L513.07 103.47H474.86ZM474.14 100.37L473.49 97.59H509.16L511.01 100.37H474.14ZM508.74 94.8801H543.24L546.14 97.48H510.51L508.74 94.8801ZM508.67 94.78L507.01 92.34H540.42L543.12 94.78H508.67ZM539.06 89.97H571.45L575.02 92.26H541.65L539.06 89.97ZM538.97 89.8801L536.54 87.73H567.95L571.31 89.8801H538.97ZM537.67 89.8801H505.33L503.85 87.73H535.27L537.67 89.8801ZM505.61 92.26H472.21L471.68 89.97H504.04L505.61 92.26ZM472.61 100.37H435.72L436.32 97.59H471.99L472.61 100.37ZM436.16 92.26H402.76L404.28 89.97H436.67L436.16 92.26ZM403.07 89.8801H370.7L373.1 87.73H404.52L403.07 89.8801ZM369.44 89.8801H337.07L340.42 87.73H371.85L369.44 89.8801ZM335.8 89.8801H303.43L307.75 87.73H339.17L335.8 89.8801ZM335.66 89.97L332.05 92.26H298.66L303.25 89.97H335.66ZM333.24 92.35H366.65L363.9 94.79H329.45L333.24 92.35ZM363.77 94.8801L360.77 97.48H325.15L329.21 94.8801H363.77ZM362.13 97.59H397.85L395.95 100.37H359.09L362.13 97.59ZM395.83 100.49L393.83 103.49H355.64L358.96 100.49H395.83ZM393.72 103.59L391.53 106.8H351.85L355.42 103.59H393.72ZM393.02 106.93H432.73L431.92 110.39H390.72L393.02 106.93ZM431.89 110.54L431.02 114.28H388.14L390.63 110.54H431.89ZM476.44 110.54H517.69L520.18 114.28H477.3L476.44 110.54ZM476.44 110.39L475.63 106.93H515.34L517.63 110.39H476.44ZM514.64 103.59H552.85L556.42 106.8H516.85L514.64 103.59ZM514.55 103.47L512.55 100.47H549.46L552.77 103.47H514.55ZM512.44 100.37L510.55 97.59H546.22L549.32 100.37H512.44ZM544.59 94.8801H579.09L583.15 97.48H547.52L544.59 94.8801ZM544.48 94.78L541.73 92.34H575.14L578.94 94.78H544.48ZM572.71 89.97H605.1L609.69 92.26H576.32L572.71 89.97ZM572.57 89.8801L569.18 87.73H600.6L604.92 89.8801H572.57ZM597.57 85.6301H628.08L633.08 87.6301H601.7L597.57 85.6301ZM600.42 87.6301H569.03L565.83 85.6301H596.33L600.42 87.6301ZM567.79 87.6301H536.4L534.11 85.6301H564.62L567.79 87.6301ZM535.15 87.6301H503.77L502.39 85.6301H532.89L535.15 87.6301ZM504 89.86H471.64L471.15 87.71H502.55L504 89.86ZM472 97.46H436.37L436.93 94.86H471.44L472 97.46ZM436.69 89.86H404.34L405.77 87.71H437.19L436.69 89.86ZM404.57 87.6201H373.19L375.44 85.6201H405.95L404.57 87.6201ZM371.94 87.6201H340.55L343.71 85.6201H374.22L371.94 87.6201ZM339.3 87.6201H307.92L311.98 85.6201H342.49L339.3 87.6201ZM306.69 87.6201H275.29L280.29 85.6201H310.8L306.69 87.6201ZM274.05 87.6201H242.65L248.55 85.6201H279.06L274.05 87.6201ZM275.11 87.7H306.52L302.16 89.85H269.79L275.11 87.7ZM301.99 89.9401L297.34 92.2401H263.96L269.58 89.95L301.99 89.9401ZM298.5 92.32H331.9L328.06 94.76H293.62L298.5 92.32ZM327.9 94.85L323.8 97.45H288.17L293.4 94.85H327.9ZM325.05 97.5601H360.73L357.58 100.34H320.69L325.05 97.5601ZM357.46 100.46L354.09 103.46H315.85L320.51 100.46H357.46ZM353.93 103.57L350.31 106.78H310.66L315.66 103.57H353.93ZM351.74 106.91H391.44L389.09 110.37H347.85L351.74 106.91ZM388.99 110.52L386.4 114.26H343.56L347.72 110.52H388.99ZM388.05 114.42H430.98L430.04 118.48H385.35L388.05 114.42ZM430.05 118.64L429.05 123.06H382.37L385.37 118.64H430.05ZM478.38 118.64H523.16L526.16 123.06H479.5L478.38 118.64ZM478.38 118.48L477.44 114.42H520.37L523.06 118.48H478.38ZM519.38 110.53H560.63L564.79 114.27H521.85L519.38 110.53ZM519.28 110.38L516.93 106.92H556.63L560.47 110.38H519.28ZM554.44 103.58H592.69L597.69 106.79H558.05L554.44 103.58ZM554.3 103.46L550.93 100.46H587.83L592.49 103.46H554.3ZM550.79 100.36L547.66 97.58H583.32L587.67 100.36H550.79ZM580.48 94.8701H614.98L620.2 97.47H584.58L580.48 94.8701ZM580.32 94.77L576.47 92.33H609.85L614.77 94.77H580.32ZM606.4 89.96H638.77L644.4 92.2501H611.02L606.4 89.96ZM606.22 89.8701L601.86 87.72H633.27L638.56 89.8701H606.22ZM629.32 85.6201H659.82L665.73 87.6201H634.35L629.32 85.6201ZM629.12 85.54L624.39 83.6201H654.04L659.59 85.54H629.12ZM627.9 85.54H597.43L593.55 83.6201H623.21L627.9 85.54ZM596.21 85.54H565.7L562.7 83.6201H592.35L596.21 85.54ZM564.52 85.54H534.06L531.89 83.6201H561.55L564.52 85.54ZM532.82 85.54H502.35L501.05 83.6201H530.7L532.82 85.54ZM502.52 87.6201H471.14L470.64 85.6201H501.15L502.52 87.6201ZM471.43 94.7501H436.98L437.51 92.3101H470.85L471.43 94.7501ZM437.25 87.6201H405.85L407.19 85.6201H437.7L437.25 87.6201ZM406.05 85.52H375.57L377.69 83.6H407.35L406.05 85.52ZM374.35 85.52H343.85L346.85 83.6H376.5L374.35 85.52ZM342.66 85.52H312.19L316.03 83.6H345.68L342.66 85.52ZM310.97 85.52H280.49L285.19 83.6H314.85L310.97 85.52ZM279.28 85.52H248.81L254.35 83.6H284.01L279.28 85.52ZM247.59 85.52H217.11L223.51 83.6H253.16L247.59 85.52ZM247.35 85.6L241.45 87.6H210.05L216.85 85.6H247.35ZM242.43 87.7H273.85L268.53 89.85H236.19L242.43 87.7ZM268.32 89.9401L262.66 92.23H229.3L235.94 89.9401H268.32ZM263.76 92.32H297.16L292.24 94.76H257.8L263.76 92.32ZM292.03 94.85L286.76 97.45H251.13L257.52 94.85H292.03ZM287.97 97.5601H323.64L319.25 100.34H282.38L287.97 97.5601ZM319.07 100.46L314.36 103.46H276.16L282.16 100.46H319.07ZM314.15 103.56L309.09 106.77H269.47L275.91 103.56H314.15ZM310.46 106.9H350.16L346.25 110.36H305.06L310.46 106.9ZM346.09 110.52L341.87 114.26H299.02L304.86 110.52H346.09ZM343.41 114.42H386.34L383.57 118.48H338.85L343.41 114.42ZM383.47 118.64L380.47 123.06H333.8L338.72 118.64H383.47ZM382.2 123.24H428.94L427.82 128.07H379.01L382.2 123.24ZM427.78 128.24L426.54 133.54H375.37L378.88 128.24H427.78ZM426.49 133.76L425.13 139.62H371.34L375.21 133.76H426.49ZM481.88 133.76H533.17L537.05 139.62H483.25L481.88 133.76ZM481.88 133.54L480.64 128.24H529.55L533.07 133.54H481.88ZM480.59 128.04L479.47 123.21H526.21L529.42 128.04H480.59ZM524.94 118.61H569.72L574.64 123.03H527.85L524.94 118.61ZM524.83 118.45L522.07 114.39H565L569.51 118.45H524.83ZM562.31 110.5H603.56L609.4 114.24H566.53L562.31 110.5ZM562.15 110.35L558.24 106.89H597.94L603.36 110.35H562.15ZM594.25 103.55H632.52L638.97 106.76H599.33L594.25 103.55ZM594.06 103.43L589.35 100.43H626.26L632.26 103.43H594.06ZM589.17 100.33L584.78 97.55H620.45L626.04 100.33H589.17ZM616.39 94.84H650.89L657.29 97.4401H621.67L616.39 94.84ZM616.18 94.7401L611.26 92.3H644.67L650.67 94.7401H616.18ZM640.1 89.9301H672.49L679.13 92.22H645.76L640.1 89.9301ZM639.88 89.84L634.56 87.6901H665.85L672.1 89.84H639.88ZM661.08 85.59H691.58L698.38 87.59H666.99L661.08 85.59ZM660.84 85.51L655.25 83.59H684.85L691.25 85.51H660.84ZM655.04 83.51L649.76 81.7H678.6L684.66 83.51H655.04ZM653.86 83.51H624.23L619.76 81.7H648.61L653.86 83.51ZM623.05 83.51H593.43L589.77 81.7H618.61L623.05 83.51ZM592.25 83.51H562.65L559.8 81.7H588.63L592.25 83.51ZM561.45 83.51H531.83L529.78 81.7H558.63L561.45 83.51ZM530.65 83.51H501.03L499.79 81.7H528.64L530.65 83.51ZM501.16 85.51H470.7L470.26 83.59H499.85L501.16 85.51ZM470.93 92.22H437.56L438.05 89.9301H470.43L470.93 92.22ZM437.79 85.51H407.32L408.58 83.59H438.23L437.79 85.51ZM407.45 83.51H377.83L379.83 81.7H408.68L407.45 83.51ZM376.65 83.51H347.03L349.85 81.7H378.69L376.65 83.51ZM345.84 83.51H316.23L319.85 81.7H348.69L345.84 83.51ZM315.04 83.51H285.43L289.85 81.7H318.69L315.04 83.51ZM284.24 83.51H254.62L259.87 81.7H288.71L284.24 83.51ZM253.44 83.51H223.82L229.88 81.7H258.72L253.44 83.51ZM222.64 83.51H193.02L199.91 81.7H228.75L222.64 83.51ZM222.39 83.58L215.94 85.5001H185.47L192.74 83.58H222.39ZM215.68 85.58L208.86 87.58H177.46L185.17 85.58H215.68ZM209.82 87.6801H241.24L234.94 89.83H202.61L209.82 87.6801ZM234.69 89.92L228.01 92.21H194.65L202.32 89.92H234.69ZM229.07 92.3H262.5L256.5 94.7401H222.05L229.07 92.3ZM256.21 94.83L249.77 97.4301H214.15L221.71 94.83H256.21ZM250.93 97.54H286.61L280.97 100.32H244.1L250.93 97.54ZM280.74 100.44L274.68 103.44H236.48L243.8 100.44H280.74ZM274.43 103.54L267.93 106.75H228.29L236.17 103.54H274.43ZM269.25 106.88H308.95L303.49 110.34H262.3L269.25 106.88ZM303.25 110.49L297.35 114.23H254.48L261.99 110.49H303.25ZM298.82 114.39H341.76L337.17 118.45H292.5L298.82 114.39ZM336.98 118.61L331.98 123.03H285.32L292.21 118.61H336.98ZM333.65 123.21H380.4L377.1 128.04H328.28L333.65 123.21ZM376.95 128.21L373.35 133.51H322.17L328.08 128.21H376.95ZM373.2 133.72L369.2 139.58H315.4L321.9 133.72H373.2ZM371.2 139.8H425.09L423.58 146.27H366.85L371.2 139.8ZM423.54 146.54L421.87 153.74H361.87L366.66 146.54H423.54ZM484.89 146.54H541.7L546.48 153.74H486.56L484.89 146.54ZM484.83 146.27L483.31 139.8H537.22L541.52 146.27H484.83ZM535.25 133.72H586.53L593.03 139.58H539.21L535.25 133.72ZM535.09 133.5L531.49 128.21H580.4L586.3 133.5H535.09ZM531.35 128.01L528.06 123.18H574.81L580.18 128.01H531.35ZM571.47 118.57H616.24L623.13 122.99H576.47L571.47 118.57ZM571.27 118.41L566.69 114.35H609.63L615.96 118.41H571.27ZM605.19 110.46H646.45L653.96 114.2H611.1L605.19 110.46ZM604.97 110.31L599.51 106.85H639.22L646.22 110.31H604.97ZM633.97 103.51H672.23L680.1 106.72H640.46L633.97 103.51ZM633.72 103.39L627.72 100.39H664.62L671.96 103.39H633.72ZM627.44 100.29L621.8 97.51H657.47L664.3 100.29H627.44ZM652.19 94.8H686.7L694.25 97.4H658.63L652.19 94.8ZM651.95 94.7L645.95 92.26H679.35L686.43 94.7H651.95ZM673.7 89.89H706.08L713.76 92.1801H680.39L673.7 89.89ZM673.45 89.8L667.16 87.65H698.58L705.79 89.8H673.45ZM692.72 85.55H723.23L730.94 87.55H699.57L692.72 85.55ZM692.46 85.47L686.02 83.55H715.66L722.94 85.47H692.46ZM685.77 83.47L679.67 81.66H708.51L715.4 83.47H685.77ZM702.86 79.8801H730.93L738.24 81.6H709.41L702.86 79.8801ZM708.24 81.6H679.44L673.67 79.8801H701.67L708.24 81.6ZM678.24 81.6H649.43L644.43 79.8801H672.48L678.24 81.6ZM648.24 81.6H619.43L615.2 79.8801H643.2L648.24 81.6ZM618.24 81.6H589.43L585.99 79.8801H613.99L618.24 81.6ZM588.24 81.6H559.47L556.76 79.8801H584.76L588.24 81.6ZM558.24 81.6H529.43L527.5 79.8801H555.5L558.24 81.6ZM528.24 81.6H499.43L498.26 79.8801H526.26L528.24 81.6ZM499.53 83.47H469.91L469.49 81.66H498.37L499.53 83.47ZM470.09 89.82H437.77L438.22 87.66H469.85L470.09 89.82ZM437.93 83.47H408.33L409.53 81.66H438.37L437.93 83.47ZM408.4 81.6H379.85L381.75 79.8801H409.75L408.4 81.6ZM378.4 81.6H349.85L352.52 79.8801H380.52L378.4 81.6ZM348.4 81.6H319.61L323.06 79.8801H351.06L348.4 81.6ZM318.4 81.6H289.62L293.83 79.8801H321.83L318.4 81.6ZM288.4 81.6H259.61L264.61 79.8801H292.66L288.4 81.6ZM258.4 81.6H229.61L235.35 79.8801H263.35L258.4 81.6ZM228.4 81.6H199.61L206.12 79.8801H234.12L228.4 81.6ZM198.4 81.6H169.61L176.88 79.8801H204.95L198.4 81.6ZM168.4 81.6H139.6L147.6 79.8801H175.67L168.4 81.6ZM169.25 81.66H198.09L191.2 83.47H161.59L169.25 81.66ZM190.9 83.54L183.63 85.46H153.15L161.27 83.54H190.9ZM183.3 85.54L175.58 87.54H144.2L152.81 85.54H183.3ZM176.5 87.64H207.94L200.69 89.79H168.85L176.5 87.64ZM200.37 89.8801L192.66 92.17H159.85L168.55 89.8801H200.37ZM193.68 92.26H227.09L219.97 94.7H185.52L193.68 92.26ZM219.68 94.79L212.08 97.39H176.45L185.17 94.79H219.68ZM213.19 97.5001H248.86L241.97 100.28H205.13L213.19 97.5001ZM241.69 100.4L234.31 103.4H196.12L204.79 100.4H241.69ZM234 103.5L226.06 106.71H186.43L195.76 103.5H234ZM227.32 106.84H267.02L260.02 110.3H218.83L227.32 106.84ZM259.72 110.45L252.14 114.19H209.85L219.04 110.45H259.72ZM253.54 114.35H296.47L290.07 118.41H245.4L253.54 114.35ZM289.8 118.57L282.8 122.99H236.15L245.01 118.57H289.8ZM284.39 123.17H331.13L325.68 128H276.88L284.39 123.17ZM325.45 128.17L319.45 133.47H268.85L277.12 128.17H325.45ZM319.21 133.69L312.62 139.55H258.85L267.96 133.69H319.21ZM314.52 139.76H368.43L364.04 146.23H307.85L314.52 139.76ZM363.83 146.5L358.91 153.7H299.02L307.02 146.5H363.83ZM361.12 154.01H421.12L419.29 162.07H355.74L361.12 154.01ZM419.21 162.41L417.11 171.5H349.5L355.5 162.39L419.21 162.41ZM487.98 162.41H551.69L557.69 171.5H490.09L487.98 162.41ZM487.91 162.07L486.02 154.01H546.08L551.44 162.07H487.91ZM543.36 146.5H600.18L608.18 153.7H548.85L543.36 146.5ZM543.18 146.23L538.75 139.76H592.66L599.91 146.22L543.18 146.23ZM587.96 133.68H639.85L648.96 139.54H595.15L587.96 133.68ZM587.7 133.46L581.7 128.17H630.61L638.87 133.46H587.7ZM581.5 127.97L576.04 123.14H622.79L630.85 128.1L581.5 127.97ZM617.39 118.54H662.17L671.02 122.96H624.37L617.39 118.54ZM617.12 118.37L610.73 114.37H653.66L661.81 118.37H617.12ZM647.47 110.42H688.72L697.92 114.16H655.05L647.47 110.42ZM647.18 110.27L640.18 106.82H679.87L688.38 110.27H647.18ZM673.18 103.47H711.44L720.76 106.68H681.12L673.18 103.47ZM672.87 103.35L665.49 100.35H702.4L711.07 103.35H672.87ZM665.21 100.25L658.32 97.47H693.99L702.07 100.25H665.21ZM687.5 94.76H722L730.72 97.36H695.1L687.5 94.76ZM687.21 94.66L680.09 92.22H713.5L721.67 94.66H687.21ZM706.81 89.85H739.19L747.88 92.14H714.52L706.81 89.85ZM706.51 89.76L699.26 87.61H730.68L738.85 89.76H706.51ZM723.88 85.51H754.38L763 87.51H731.62L723.88 85.51ZM723.58 85.4301L716.28 83.51H745.92L754.05 85.4301H723.58ZM715.99 83.4301L709.1 81.6201H737.94L745.62 83.4301H715.99ZM731.48 79.84H759.48L767.48 81.5601H738.68L731.48 79.84ZM731.19 79.78L724.27 78.16H751.61L759.24 79.78H731.19ZM730.07 79.78H702.07L695.87 78.16H723.22L730.07 79.78ZM700.91 79.78H672.86L667.39 78.16H694.74L700.91 79.78ZM671.75 79.78H643.75L639.01 78.16H666.85L671.75 79.78ZM642.58 79.78H614.58L610.58 78.16H637.93L642.58 79.78ZM613.42 79.78H585.42L582.13 78.16H609.47L613.42 79.78ZM584.25 79.78H556.25L553.68 78.16H581.03L584.25 79.78ZM555.1 79.78H527.1L525.26 78.16H552.61L555.1 79.78ZM525.93 79.78H497.88L496.77 78.16H524.12L525.93 79.78ZM496.81 79.84L497.95 81.5601H469.13L468.72 79.84H496.81ZM469.25 87.52H437.88L438.32 85.52H468.83L469.25 87.52ZM438.01 81.52H409.21L410.34 79.8H438.34L438.01 81.52ZM409.26 79.7401H381.26L383.06 78.1201H410.43L409.26 79.7401ZM380.1 79.7401H352.1L354.63 78.1201H381.98L380.1 79.7401ZM350.93 79.7401H322.88L326.14 78.1201H353.48L350.93 79.7401ZM321.77 79.7401H293.77L297.77 78.1201H325.11L321.77 79.7401ZM292.6 79.7401H264.6L269.31 78.1201H296.65L292.6 79.7401ZM263.44 79.7401H235.39L240.83 78.1201H268.18L263.44 79.7401ZM234.28 79.7401H206.28L212.44 78.1201H239.79L234.28 79.7401ZM205.12 79.7401H177.12L184.01 78.1201H211.85L205.12 79.7401ZM175.95 79.7401H147.95L155.58 78.1201H182.92L175.95 79.7401ZM146.79 79.7401H118.79L127.16 78.1201H154.5L146.79 79.7401ZM146.48 79.8L138.4 81.52H109.61L118.42 79.8H146.48ZM139.22 81.58H168.06L160.35 83.39H130.75L139.22 81.58ZM160.03 83.46L151.88 85.3801H121.41L130.41 83.46H160.03ZM151.55 85.46L142.91 87.46H111.53L121.04 85.46H151.55ZM143.8 87.5601H175.85L167.64 89.71H135.29L143.8 87.5601ZM166.67 89.8L157.93 92.09H124.57L134.29 89.8H166.67ZM158.91 92.1801H192.32L184.1 94.6201H149.64L158.91 92.1801ZM183.77 94.71L175 97.3101H139.39L149.27 94.71H183.77ZM176.06 97.42H211.73L203.6 100.2H166.74L176.06 97.42ZM203.27 100.32L194.55 103.32H156.34L166.34 100.32H203.27ZM194.19 103.42L184.81 106.63H145.17L155.93 103.42H194.19ZM186 106.76H225.71L217.15 110.22H175.96L186 106.76ZM216.79 110.37L207.53 114.11H164.67L175.53 110.37H216.79ZM208.87 114.27H251.79L243.58 118.33H198.89L208.87 114.27ZM243.23 118.49L234.23 122.9H187.57L198.43 118.48L243.23 118.49ZM235.78 123.09H282.52L274.91 127.92H226.07L235.78 123.09ZM274.57 128.09L266.21 133.39H215.04L225.68 128.09H274.57ZM265.87 133.61L256.65 139.47H202.85L214.58 133.61H265.87ZM258.43 139.68H312.33L305.03 146.14H248.33L258.43 139.68ZM304.72 146.42L296.59 153.62H236.67L247.91 146.42H304.72ZM298.64 153.93H358.64L353.14 161.99H289.63L298.64 153.93ZM352.96 162.33L346.76 171.42H279.16L289.29 162.31L352.96 162.33ZM349.2 171.82H416.98L414.57 182.16H342.33L349.2 171.82ZM414.47 182.62L411.7 194.5H334.16L342.03 182.62H414.47ZM495.47 194.5L492.7 182.62H565.13L573.01 194.5H495.47ZM492.62 182.16L490.2 171.8H557.96L564.85 182.16H492.62ZM554.22 162.31H617.9L628.01 171.42H560.4L554.22 162.31ZM553.99 161.97L548.48 153.91H608.48L617.48 161.97H553.99ZM602.46 146.4H659.85L671.1 153.6H611.1L602.46 146.4ZM602.16 146.13L594.83 139.68H648.74L658.84 146.15L602.16 146.13ZM641.31 133.59H692.59L704.31 139.44H650.51L641.31 133.59ZM640.96 133.36L632.6 128.07H681.5L692.14 133.36H640.96ZM632.85 128.1L625.24 123.27H671.99L681.69 128.1H632.85ZM664.52 118.67H709.3L720.15 123.09H673.49L664.52 118.67ZM664.18 118.5L655.96 114.5H698.85L708.85 118.5H664.18ZM690.96 110.55H732.22L743.08 114.29H700.22L690.96 110.55ZM690.61 110.4L682.05 106.95H721.74L731.74 110.4H690.61ZM713.61 103.61H751.85L762.61 106.82H722.97L713.61 103.61ZM713.25 103.49L704.53 100.49H741.44L751.44 103.49H713.25ZM704.19 100.39L696.06 97.61H731.73L741.08 100.39H704.19ZM724.01 94.91H758.52L768.4 97.51H732.78L724.01 94.91ZM723.67 94.8101L715.46 92.3701H748.85L758.11 94.8101H723.67ZM741.11 90.0001H773.5L783.21 92.29H749.85L741.11 90.0001ZM740.77 89.91L732.56 87.76H763.98L773.12 89.91H740.77ZM756.23 85.66H786.74L796.25 87.66H764.85L756.23 85.66ZM755.9 85.58L747.74 83.66H777.39L786.39 85.58H755.9ZM747.43 83.58L739.71 81.77H768.55L777.04 83.58H747.43ZM761.3 79.9901H789.35L798.16 81.71H769.35L761.3 79.9901ZM760.99 79.9301L753.33 78.3101H780.67L789.04 79.9301H760.99ZM773.49 76.7H800.14L808.76 78.2401H781.45L773.49 76.7ZM780.35 78.2401H753.04L745.78 76.7H772.44L780.35 78.2401ZM751.94 78.2401H724.63L718.05 76.7H744.71L751.94 78.2401ZM723.54 78.2401H696.22L690.32 76.7H716.97L723.54 78.2401ZM695.13 78.2401H667.82L662.62 76.7H689.28L695.13 78.2401ZM666.73 78.2401H639.41L634.91 76.7H661.56L666.73 78.2401ZM638.32 78.2401H611L607.19 76.7H633.84L638.32 78.2401ZM609.91 78.2401H582.59L579.47 76.7H606.12L609.91 78.2401ZM581.5 78.2401H554.18L551.75 76.7H578.41L581.5 78.2401ZM553.09 78.2401H525.77L524.04 76.7H550.69L553.09 78.2401ZM524.69 78.2401H497.37L496.37 76.7H523.02L524.69 78.2401ZM497.4 79.9301H469.4L469.02 78.3101H496.36L497.4 79.9301ZM469.4 85.57H438.93L439.34 83.65H468.99L469.4 85.57ZM439.02 79.9301H411.02L412.09 78.3101H439.44L439.02 79.9301ZM411.02 78.2401H383.69L385.4 76.7H412.05L411.02 78.2401ZM382.6 78.2401H355.28L357.68 76.7H384.34L382.6 78.2401ZM354.2 78.2401H326.85L329.95 76.7H356.6L354.2 78.2401ZM325.8 78.2401H298.47L302.25 76.7H328.91L325.8 78.2401ZM297.39 78.2401H270.06L274.54 76.7H301.18L297.39 78.2401ZM268.98 78.2401H241.65L246.82 76.7H273.47L268.98 78.2401ZM240.57 78.2401H213.24L219.11 76.7H245.77L240.57 78.2401ZM212.16 78.2401H184.85L191.41 76.7H218.06L212.16 78.2401ZM183.76 78.2401H156.43L163.67 76.7H190.31L183.76 78.2401ZM155.35 78.2401H128.03L135.95 76.7H162.6L155.35 78.2401ZM126.94 78.2401H99.6099L108.23 76.7H134.85L126.94 78.2401ZM98.5299 78.2401H71.2098L80.5199 76.7H107.17L98.5299 78.2401ZM99.2699 78.3101H126.61L118.24 79.9301H90.2399L99.2699 78.3101ZM117.89 79.9901L109.04 81.71H80.2399L89.8098 79.9901H117.89ZM109.89 81.77H138.73L130.21 83.58H100.58L109.89 81.77ZM129.89 83.65L120.89 85.57H90.3999L100.25 83.65H129.89ZM120.5 85.65L110.94 87.65H79.5598L89.9899 85.65H120.5ZM111.81 87.7501H143.22L134.04 89.9H101.7L111.81 87.7501ZM133.68 89.9901L123.92 92.28H90.5598L101.29 89.9901H133.68ZM124.85 92.3701H158.26L148.95 94.8101H114.51L124.85 92.3701ZM148.57 94.9L138.65 97.5001H103.01L114.01 94.9H148.57ZM139.66 97.61H175.32L165.95 100.39H129.06L139.66 97.61ZM165.56 100.51L155.5 103.51H117.28L128.66 100.51H165.56ZM155.08 103.61L144.26 106.82H104.61L116.82 103.61H155.08ZM145.39 106.95H185.09L174.97 110.41H133.79L145.39 106.95ZM174.56 110.56L163.62 114.3H120.78L133.34 110.56H174.56ZM164.88 114.46H207.81L197.81 118.52H153.14L164.88 114.46ZM197.36 118.68L186.42 123.1H139.76L152.6 118.68H197.36ZM187.84 123.28H234.58L224.8 128.11H175.85L187.84 123.28ZM224.39 128.28L213.65 133.58H162.48L175.48 128.28H224.39ZM213.2 133.8L201.39 139.66H147.57L161.91 133.8H213.2ZM203.03 139.87H256.85L246.66 146.33H189.95L203.03 139.87ZM246.33 146.61L234.94 153.81H175.02L189.49 146.6L246.33 146.61ZM236.88 154.12H296.88L287.77 162.18H224.23L236.88 154.12ZM287.43 162.52L277.12 171.61H209.52L223.73 162.5L287.43 162.52ZM279.43 172.01H347.18L340.12 182.35H267.88L279.43 172.01ZM339.84 182.81L331.75 194.69H254.17L267.39 182.81H339.84ZM334.51 195.2H412.26L409.05 208.97H325.34L334.51 195.2ZM408.85 209.6L405.09 225.75H314.09L324.85 209.6H408.85ZM404.91 226.45L400.44 245.65H300.91L313.67 226.45H404.91ZM503.44 226.45H594.68L607.43 245.65H507.85L503.44 226.45ZM503.28 225.75L499.51 209.6H583.51L594.23 225.75H503.28ZM499.37 209.01L496.17 195.24H573.95L583.09 209.01H499.37ZM568.62 182.85H641.04L654.26 194.73H576.69L568.62 182.85ZM568.31 182.41L561.31 172.05H629.05L640.59 182.39L568.31 182.41ZM621.01 162.56H684.69L698.91 171.67H631.28L621.01 162.56ZM620.62 162.22L611.5 154.16H671.5L684.1 162.22H620.62ZM662.11 146.65H718.93L733.41 153.85H673.47L662.11 146.65ZM661.68 146.38L651.47 139.91H705.38L718.38 146.38H661.68ZM695.22 133.83H746.5L760.85 139.69H707.03L695.22 133.83ZM694.77 133.61L684.04 128.32H732.95L745.95 133.61H694.77ZM683.61 128.11L673.84 123.28H720.58L732.45 128.11H683.61ZM711.06 118.68H755.85L768.69 123.1H722.02L711.06 118.68ZM710.64 118.52L700.64 114.46H743.58L755.39 118.52H710.64ZM733.85 110.57H775.1L787.65 114.31H744.79L733.85 110.57ZM733.44 110.42L723.32 106.96H763.02L774.62 110.42H733.44ZM753.34 103.62H791.6L803.8 106.83H764.15L753.34 103.62ZM752.92 103.5L742.86 100.5H779.77L791.11 103.5H752.92ZM742.47 100.4L733.12 97.6201H768.74L779.32 100.4H742.47ZM759.85 94.91H794.33L805.33 97.51H769.75L759.85 94.91ZM759.46 94.8101L750.16 92.3701H783.57L793.92 94.8101H759.46ZM774.74 90.0001H807.12L817.86 92.29H784.49L774.74 90.0001ZM774.36 89.91L765.19 87.76H796.61L806.71 89.91H774.36ZM787.92 85.66H818.42L828.85 87.66H797.47L787.92 85.66ZM787.55 85.58L778.55 83.66H808.2L818.04 85.58H787.55ZM778.2 83.58L769.68 81.77H798.51L807.81 83.58H778.2ZM790.46 79.9901H818.54L828.11 81.71H799.3L790.46 79.9901ZM790.12 79.9301L781.76 78.3101H809.09L818.17 79.9301H790.12ZM801.18 76.7H827.85L837.16 78.2401H809.85L801.18 76.7ZM800.84 76.65L792.62 75.1801H818.62L827.47 76.65H800.84ZM799.78 76.65H773.15L765.59 75.1801H791.59L799.78 76.65ZM772.09 76.65H745.46L738.57 75.1801H764.57L772.09 76.65ZM744.4 76.65H717.77L711.52 75.1801H737.52L744.4 76.65ZM716.71 76.65H690.09L684.49 75.1801H710.49L716.71 76.65ZM689.02 76.65H662.39L657.47 75.1801H683.47L689.02 76.65ZM661.32 76.65H634.7L630.42 75.1801H656.42L661.32 76.65ZM633.64 76.65H607.01L603.39 75.1801H629.39L633.64 76.65ZM605.95 76.65H579.3L576.3 75.1801H602.3L605.95 76.65ZM578.26 76.65H551.63L549.32 75.1801H575.32L578.26 76.65ZM550.56 76.65H523.94L522.28 75.1801H548.28L550.56 76.65ZM522.88 76.65H496.25L495.25 75.1801H521.25L522.88 76.65ZM496.25 78.2401H468.94L468.57 76.7H495.23L496.25 78.2401ZM469 83.58H439.37L439.76 81.77H468.59L469 83.58ZM439.43 78.2401H412.1L413.1 76.7H439.76L439.43 78.2401ZM412.12 76.65H385.47L387.1 75.1801H413.1L412.12 76.65ZM384.42 76.65H357.78L360.06 75.1801H386.06L384.42 76.65ZM356.73 76.65H330.09L333.09 75.1801H359.09L356.73 76.65ZM329.04 76.65H302.4L306 75.1801H332L329.04 76.65ZM301.36 76.65H274.72L278.97 75.1801H304.97L301.36 76.65ZM273.67 76.65H247.02L251.94 75.1801H277.94L273.67 76.65ZM245.97 76.65H219.35L224.92 75.1801H250.92L245.97 76.65ZM218.28 76.65H191.64L197.86 75.1801H223.86L218.28 76.65ZM190.59 76.65H163.95L170.83 75.1801H196.83L190.59 76.65ZM162.9 76.65H136.26L143.8 75.1801H169.8L162.9 76.65ZM135.21 76.65H108.57L116.76 75.1801H142.76L135.21 76.65ZM107.53 76.65H80.8499L89.7098 75.1801H115.71L107.53 76.65ZM79.8298 76.65H53.2098L62.7098 75.1801H88.7098L79.8298 76.65ZM79.4698 76.7L70.1199 78.2401H42.8499L52.8499 76.7H79.4698ZM70.8398 78.3101H98.1898L89.0798 79.9301H61.0798L70.8398 78.3101ZM88.7098 79.9901L79.0999 81.71H50.2799L60.6099 79.9901H88.7098ZM79.8499 81.77H108.69L99.3398 83.58H69.7198L79.8499 81.77ZM98.9698 83.65L89.0999 85.57H58.6199L69.3098 83.65H98.9698ZM88.6998 85.65L78.2299 87.65H46.8499L58.1698 85.65H88.6998ZM79.0598 87.7501H110.47L100.33 89.9H67.9799L79.0598 87.7501ZM99.9198 89.9901L89.1399 92.28H55.7499L67.5199 89.9901H99.9198ZM90.0299 92.3701H123.43L113.04 94.8101H78.5999L90.0299 92.3701ZM112.61 94.9L101.51 97.5001H65.8499L78.0698 94.9H112.61ZM102.5 97.61H138.17L127.54 100.39H90.6399L102.5 97.61ZM127.1 100.51L115.7 103.51H77.4698L90.1599 100.51H127.1ZM115.23 103.61L102.97 106.82H63.3098L76.9398 103.61H115.23ZM104.05 106.95H143.75L132.08 110.41H90.8499L104.05 106.95ZM131.61 110.56L119 114.3H76.0999L90.3298 110.56H131.61ZM120.18 114.46H163.12L151.21 118.46H106.54L120.18 114.46ZM150.72 118.67L137.8 123.09H91.1798L106 118.67H150.72ZM139.13 123.27H185.85L173.85 128.1H125.06L139.13 123.27ZM173.43 128.27L160.32 133.57H109.15L124.54 128.27H173.43ZM159.77 133.79L145.32 139.65H91.5299L108.53 133.79H159.77ZM146.89 139.87H200.79L187.69 146.34H130.99L146.89 139.87ZM187.13 146.6L172.54 153.81H112.62L130.34 146.6H187.13ZM174.34 154.11H234.34L221.61 162.18H158.07L174.34 154.11ZM221.12 162.52L206.73 171.61H139.13L157.43 162.5L221.12 162.52ZM208.85 172.1H276.63L264.94 182.44H192.7L208.85 172.1ZM264.45 182.89L251.03 194.77H173.46L192 182.89H264.45ZM253.56 195.29H331.33L321.95 209.05H238.22L253.56 195.29ZM321.56 209.65L310.56 225.79H219.56L237.56 209.65H321.56ZM310.08 226.49L297 245.69H197.47L218.83 226.49H310.08ZM300.42 246.49H400.3L394.89 269.7H284.99L300.42 246.49ZM394.66 270.73L387.98 299.35H265.29L284.29 270.73H394.66ZM392.66 300.63H515.87L523.68 336.81H384.85L392.66 300.63ZM513.85 270.73H624.18L643.18 299.35H520.5L513.85 270.73ZM513.61 269.73L508.2 246.52H608.09L623.51 269.73H513.61ZM598.42 226.48H689.66L711.02 245.68H611.49L598.42 226.48ZM597.93 225.78L586.93 209.64H670.93L688.93 225.78H597.93ZM586.52 209.04L577.15 195.28H654.85L670.17 209.04H586.52ZM644.03 182.89H716.46L735.01 194.76H657.44L644.03 182.89ZM643.53 182.45L631.83 172.09H699.61L715.76 182.45H643.53ZM687.33 162.6H750.85L769.15 171.71H701.54L687.33 162.6ZM686.79 162.26L673.95 154.1H733.95L750.18 162.17L686.79 162.26ZM721.29 146.68H778.11L795.82 153.89H735.82L721.29 146.68ZM720.74 146.41L707.63 139.97H761.54L777.44 146.44L720.74 146.41ZM748.67 133.89H799.85L816.85 139.75H763.02L748.67 133.89ZM748.12 133.67L735.01 128.37H783.85L799.24 133.67H748.12ZM734.51 128.17L722.51 123.34H769.26L783.26 128.17H734.51ZM757.72 118.74H802.5L817.31 123.16H770.61L757.72 118.74ZM757.23 118.58L745.37 114.52H788.31L801.91 118.58H757.23ZM776.88 110.63H818.13L832.35 114.37H789.49L776.88 110.63ZM776.38 110.48L764.72 107.02H804.42L817.57 110.48H776.38ZM793.24 103.68H831.5L845.14 106.89H805.5L793.24 103.68ZM792.75 103.56L781.36 100.56H818.26L830.95 103.56H792.75ZM780.85 100.4L770.22 97.6201H805.85L817.66 100.4H780.85ZM795.76 94.91H830.26L842.48 97.51H806.85L795.76 94.91ZM795.33 94.8101L784.94 92.3701H818.35L829.79 94.8101H795.33ZM808.45 90.0001H840.85L852.61 92.29H819.25L808.45 90.0001ZM808.04 89.91L797.85 87.76H829.22L840.29 89.91H808.04ZM819.68 85.66H850.19L861.51 87.66H830.11L819.68 85.66ZM819.27 85.58L809.4 83.66H839.05L849.75 85.58H819.27ZM809.02 83.58L799.67 81.77H828.51L838.62 83.58H809.02ZM819.68 79.9901H847.73L858.06 81.71H829.25L819.68 79.9901ZM819.31 79.9301L810.2 78.3101H837.54L847.35 79.9301H819.31ZM828.91 76.7H855.56L865.56 78.2401H838.24L828.91 76.7ZM828.55 76.65L819.69 75.1801H845.69L855.2 76.65H828.55ZM837.26 73.72H862.63L872.31 75.11H846.31L837.26 73.72ZM845.26 75.11H819.26L810.82 73.72H836.19L845.26 75.11ZM818.26 75.11H792.26L784.44 73.72H809.85L818.26 75.11ZM791.26 75.11H765.26L758.06 73.72H783.42L791.26 75.11ZM764.26 75.11H738.26L731.69 73.72H757.06L764.26 75.11ZM737.26 75.11H711.26L705.32 73.72H730.69L737.26 75.11ZM710.26 75.11H684.26L678.94 73.72H704.29L710.26 75.11ZM683.26 75.11H657.26L652.56 73.72H677.92L683.26 75.11ZM656.26 75.11H630.26L626.19 73.72H651.56L656.26 75.11ZM629.26 75.11H603.26L599.82 73.72H625.18L629.26 75.11ZM602.26 75.11H576.26L573.43 73.72H598.8L602.26 75.11ZM575.26 75.11H549.26L547.06 73.72H572.43L575.26 75.11ZM548.26 75.11H522.26L520.69 73.72H546.06L548.26 75.11ZM521.26 75.11H495.26L494.31 73.72H519.68L521.26 75.11ZM495.26 76.65H468.64L468.3 75.1801H494.3L495.26 76.65ZM439.88 76.65H413.26L414.26 75.1801H440.26L439.88 76.65ZM413.23 75.1201H387.23L388.78 73.73H414.16L413.23 75.1201ZM386.23 75.1201H360.23L362.41 73.73H387.78L386.23 75.1201ZM359.23 75.1201H333.23L336.03 73.73H361.4L359.23 75.1201ZM332.23 75.1201H306.23L309.67 73.73H335.04L332.23 75.1201ZM305.23 75.1201H279.23L283.23 73.73H308.6L305.23 75.1201ZM278.23 75.1201H252.23L256.91 73.73H282.28L278.23 75.1201ZM251.23 75.1201H225.23L230.54 73.73H255.91L251.23 75.1201ZM224.23 75.1201H198.23L204.13 73.73H229.52L224.23 75.1201ZM197.23 75.1201H171.23L177.78 73.73H203.14L197.23 75.1201ZM170.23 75.1201H144.23L151.4 73.73H176.78L170.23 75.1201ZM143.23 75.1201H117.23L125.02 73.73H150.39L143.23 75.1201ZM116.23 75.1201H90.2299L98.6499 73.73H123.85L116.23 75.1201ZM89.2299 75.1201H63.2299L72.2299 73.73H97.5898L89.2299 75.1201ZM62.2299 75.1201H36.2299L45.9099 73.73H71.2599L62.2299 75.1201ZM35.2299 75.1201H9.22986L19.5099 73.73H44.8799L35.2299 75.1201ZM35.8699 75.1801H61.8699L52.3398 76.64H25.7098L35.8699 75.1801ZM51.9398 76.7L41.9398 78.2401H14.6299L25.3198 76.7H51.9398ZM42.5898 78.3101H69.9298L60.0898 79.9301H32.0898L42.5898 78.3101ZM59.6998 79.9901L49.3198 81.71H20.5299L31.6399 79.9901H59.6998ZM50.0598 81.77H78.8999L68.7599 83.58H39.1299L50.0598 81.77ZM68.3298 83.65L57.6099 85.57H27.1399L38.6898 83.65H68.3298ZM57.1599 85.65L45.7998 87.65H14.4198L26.6599 85.65H57.1599ZM46.5798 87.7501H77.9999L66.8999 89.9H34.5598L46.5798 87.7501ZM66.4398 89.9901L54.6299 92.28H21.2699L34.0698 89.9901H66.4398ZM55.4398 92.3701H88.8499L77.3699 94.8101H42.9198L55.4398 92.3701ZM76.8899 94.9L64.6199 97.5001H28.8499L42.2399 94.9H76.8899ZM65.5398 97.61H101.21L89.3398 100.39H52.4899L65.5398 97.61ZM88.8398 100.51L76.1099 103.51H37.9198L51.9198 100.51H88.8398ZM75.6099 103.61L61.9198 106.82H22.2599L37.3398 103.61H75.6099ZM62.9398 106.95H102.64L89.3899 110.41H48.2098L62.9398 106.95ZM88.8799 110.56L74.6099 114.3H31.6998L47.5999 110.56H88.8799ZM75.7098 114.46H118.63L104.96 118.52H60.2799L75.7098 114.46ZM104.38 118.68L89.4899 123.1H42.8098L59.6099 118.68H104.38ZM90.7399 123.28H137.48L123.15 128.1H74.3398L90.7399 123.28ZM122.74 128.28L107.27 133.58H56.0898L73.8599 128.28H122.74ZM106.58 133.79L89.5199 139.65H35.7299L55.3098 133.79H106.58ZM90.9698 139.87H144.88L128.88 146.34H72.1798L90.9698 139.87ZM128.2 146.61L110.38 153.81H50.4498L71.3799 146.61H128.2ZM112.03 154.12H172.03L155.68 162.18H92.1399L112.03 154.12ZM155.03 162.52L136.6 171.61H68.8499L91.2098 162.52H155.03ZM138.5 172.01H206.27L189.93 182.35H117.69L138.5 172.01ZM189.25 182.8L170.49 194.68H92.9198L116.8 182.8H189.25ZM172.8 195.2H250.55L234.85 209H151.12L172.8 195.2ZM234.34 209.56L216.1 225.7H125.1L150.34 209.56H234.34ZM215.34 226.4L193.64 245.6H94.0999L124.1 226.4H215.34ZM196.68 246.4H296.55L280.73 269.61H170.65L196.68 246.4ZM279.85 270.7L260.34 299.32H137.65L169.51 270.7H279.85ZM264.37 300.62H387.61L379.19 336.8H240.35L264.37 300.62ZM378.79 338.43L367.79 385.61H207.92L239.27 338.43H378.79ZM384.37 338.43H523.91L534.08 385.61H374.17L384.37 338.43ZM529.49 338.43H669.04L700.38 385.61H540.49L529.49 338.43ZM529.1 336.8L520.68 300.62H643.91L667.91 336.8H529.1ZM628.49 270.72H738.85L770.7 299.34H648L628.49 270.72ZM627.8 269.72L611.98 246.51H711.85L737.68 269.72H627.8ZM693.2 226.47H784.44L814.44 245.67H714.85L693.2 226.47ZM692.41 225.77L674.17 209.63H758.17L783.38 225.77H692.41ZM673.49 209.03L657.94 195.27H735.68L757.19 209.03H673.49ZM719.25 182.87H791.68L815.56 194.75H737.98L719.25 182.87ZM718.54 182.42L702.2 172.06H769.98L790.77 182.42H718.54ZM753.44 162.57H817.12L839.5 171.68H771.85L753.44 162.57ZM752.75 162.23L736.39 154.17H796.39L816.22 162.23H752.75ZM780.26 146.66H837.08L858.01 153.86H798.09L780.26 146.66ZM779.59 146.39L763.59 139.94H817.49L836.28 146.41L779.59 146.39ZM801.85 133.82H853.14L872.72 139.67H818.89L801.85 133.82ZM801.2 133.59L785.71 128.3H834.64L852.4 133.59H801.2ZM785.16 128.1L771.04 123.27H817.79L833.98 128.1H785.16ZM804.16 118.67H848.94L865.74 123.09H819.05L804.16 118.67ZM803.6 118.5L789.92 114.5H832.85L848.28 118.56L803.6 118.5ZM819.67 110.55H860.93L876.84 114.29H833.96L819.67 110.55ZM819.13 110.4L805.85 106.95H845.55L860.26 110.4H819.13ZM832.93 103.61H871.19L886.27 106.82H846.63L832.93 103.61ZM832.41 103.49L819.67 100.49H856.57L870.57 103.49H832.41ZM819.18 100.39L807.3 97.61H842.98L856.05 100.39H819.18ZM831.63 94.9H866.13L879.52 97.5001H843.85L831.63 94.9ZM831.14 94.8L819.65 92.35H853.06L865.6 94.8H831.14ZM842.14 89.9901H874.52L887.32 92.27H853.85L842.14 89.9901ZM841.69 89.9L830.58 87.7501H862L874 89.9H841.69ZM851.42 85.64H881.85L894.1 87.64H862.7L851.42 85.64ZM850.98 85.5601L840.24 83.65H869.85L881.4 85.5601H850.98ZM839.83 83.5601L829.69 81.7501H858.52L869.45 83.5601H839.83ZM848.88 79.97H876.85L887.96 81.6801H859.15L848.88 79.97ZM848.48 79.9L838.64 78.28H865.98L876.52 79.9H848.48ZM856.64 76.6801H883.29L893.98 78.22H866.67L856.64 76.6801ZM856.25 76.6201L846.72 75.16H872.72L882.88 76.6201H856.25ZM863.63 73.6901H889L899.3 75.09H873.3L863.63 73.6901ZM853.02 72.3101L862.24 73.64H836.85L828.2 72.3101H853.02ZM827.26 72.3101L835.88 73.64H810.54L802.48 72.3101H827.26ZM801.49 72.3101L809.49 73.64H784.15L776.69 72.3101H801.49ZM775.73 72.3101L783.16 73.64H757.82L750.96 72.3101H775.73ZM749.96 72.3101L756.81 73.64H731.46L725.19 72.3101H749.96ZM724.21 72.3101L730.44 73.64H705.1L699.43 72.3101H724.21ZM698.44 72.3101L704.09 73.64H678.74L673.67 72.3101H698.44ZM672.68 72.3101L677.68 73.64H652.34L647.86 72.3101H672.68ZM646.92 72.3101L651.37 73.64H626.03L622.14 72.3101H646.92ZM621.15 72.3101L625.01 73.64H599.67L596.38 72.3101H621.15ZM595.39 72.3101L598.66 73.64H573.31L570.62 72.3101H595.39ZM569.63 72.3101L572.29 73.64H546.98L544.89 72.3101H569.63ZM543.87 72.3101L545.94 73.64H520.59L519.09 72.3101H543.87ZM518.1 72.3101L519.58 73.64H494.23L493.33 72.3101H518.1ZM494.23 75.11H468.23L467.9 73.72H493.27L494.23 75.11ZM492.39 72.34L493.27 73.66H467.85L467.54 72.34H492.39ZM441.85 72.34H466.62L466.91 73.66H441.55L441.85 72.34ZM441.55 73.72H466.85L467.15 75.11H441.15L441.55 73.72ZM441.24 75.1801H467.24L467.55 76.65H440.85L441.24 75.1801ZM467.56 76.71L467.89 78.2501H440.56L440.9 76.71H467.56ZM416.09 72.35H440.85L440.54 73.6801H415.19L416.09 72.35ZM440.54 73.73L440.21 75.1201H414.21L415.14 73.73H440.54ZM415.1 72.35L414.19 73.6801H388.83L390.31 72.35H415.1ZM389.33 72.35L387.86 73.6801H362.48L364.55 72.35H389.33ZM363.57 72.35L361.47 73.6801H336.13L338.8 72.35H363.57ZM337.81 72.35L335.12 73.6801H309.76L313.02 72.35H337.81ZM312.05 72.35L308.73 73.66H283.4L287.26 72.34L312.05 72.35ZM286.28 72.35L282.4 73.6801H257.06L261.49 72.35H286.28ZM260.52 72.35L256.04 73.6801H230.68L235.68 72.35H260.52ZM234.76 72.35L229.68 73.6801H204.32L209.97 72.35H234.76ZM208.99 72.35L203.32 73.6801H177.98L184.22 72.35H208.99ZM183.23 72.35L176.97 73.6801H151.61L158.44 72.35H183.23ZM157.47 72.35L150.61 73.6801H125.25L132.68 72.35H157.47ZM131.71 72.35L124.25 73.6801H98.8499L106.85 72.35H131.71ZM105.94 72.35L97.9398 73.6801H72.5898L81.2198 72.35H105.94ZM80.1698 72.35L71.5299 73.6801H46.1698L55.3899 72.35H80.1698ZM54.4099 72.35L45.1698 73.6801H19.8098L29.6499 72.35H54.4099ZM3.87988 72.35H28.6399L18.7898 73.6801H-6.55017L3.87988 72.35ZM-17.9502 75.1L-7.02014 73.71H18.3499L8.00989 75.1H-17.9502ZM8.61987 75.16H34.6199L24.4298 76.6301H-2.15015L8.61987 75.16ZM-14.0101 78.23L-2.63013 76.6901H23.9999L13.2898 78.23H-14.0101ZM13.9899 78.29H41.3298L30.7699 79.91H2.71985L13.9899 78.29ZM-9.63013 81.71L2.24988 80.0001H30.3198L19.1798 81.6801L-9.63013 81.71ZM19.8999 81.78H48.7299L37.7799 83.58H8.13989L19.8999 81.78ZM7.67981 83.66H37.3298L25.7399 85.57H-4.75012L7.67981 83.66ZM-18.4001 87.66L-5.24011 85.6H25.2599L12.9598 87.6L-18.4001 87.66ZM13.7399 87.73H45.1399L33.0698 89.89H0.729858L13.7399 87.73ZM-13.6101 92.23L0.209839 89.9401H32.5898L19.7599 92.23H-13.6101ZM20.5598 92.32H53.9698L41.3899 94.76H6.94983L20.5598 92.32ZM-8.2002 97.45L6.34985 94.85H40.8499L27.4298 97.45H-8.2002ZM28.2998 97.5601H63.9598L50.8499 100.4H13.9799L28.2998 97.5601ZM13.3899 100.46H50.2898L36.2098 103.46H-1.9801L13.3899 100.46ZM-19.1301 106.77L-2.61011 103.56H35.6499L20.5099 106.77H-19.1301ZM21.4799 106.9H61.1798L46.4198 110.36H5.20984L21.4799 106.9ZM-13.0402 114.23L4.53979 110.49H45.7898L29.7898 114.23H-13.0402ZM30.8799 114.38H73.8198L58.3098 118.44H13.6299L30.8799 114.38ZM-5.88013 123.02L12.9099 118.61H57.6898L40.8098 123.02H-5.88013ZM41.9498 123.2H88.6998L72.4198 128.03H23.5999L41.9498 123.2ZM22.8298 128.2H71.7299L53.8799 133.5H2.69983L22.8298 128.2ZM-20.3601 139.56L1.83984 133.7H53.1299L33.4498 139.56H-20.3601ZM34.7499 139.8H88.6898L69.7799 146.26H13.0898L34.7499 139.8ZM-11.9901 153.74L12.1698 146.53H68.9799L47.9799 153.74H-11.9901ZM49.4398 154.04H109.5L89.4999 162.11H25.9698L49.4398 154.04ZM-1.47009 171.56L24.9899 162.45H88.6798L66.1299 171.56H-1.47009ZM67.9099 171.94H135.66L114.66 182.3H42.4198L67.9099 171.94ZM12.1399 194.63L41.3499 182.75H113.78L89.6898 194.63H12.1399ZM91.7699 195.12H169.52L147.79 208.89H64.0999L91.7699 195.12ZM62.8499 209.6H146.85L121.37 225.74H30.4298L62.8499 209.6ZM-9.61011 245.6L28.9799 226.4H120.22L89.9099 245.6H-9.61011ZM92.5798 246.44H192.46L166.23 269.65H56.3398L92.5798 246.44ZM10.0398 299.3L54.7299 270.68H165.07L132.72 299.3H10.0398ZM136.2 300.58H259.42L234.85 336.8H96.0299L136.2 300.58ZM41.6199 385.58L94.1199 338.4H233.66L201.51 385.58H41.6199ZM163.88 451.87L206.45 387.77H367.28L352.35 451.87H163.88ZM359.88 451.87L373.7 387.77H534.53L548.35 451.87H359.88ZM744.36 451.87H555.9L540.97 387.77H701.85L744.36 451.87ZM866.61 385.58H706.69L674.54 338.4H814.08L866.61 385.58ZM812.28 336.76H673.46L648.85 300.61H772.07L812.28 336.76ZM898.18 299.3H775.56L743.21 270.68H853.54L898.18 299.3ZM851.89 269.65H742.02L715.85 246.47H815.74L851.89 269.65ZM917.85 245.63H818.34L788.04 226.43H879.28L917.85 245.63ZM877.85 225.73H786.92L761.43 209.59H845.43L877.85 225.73ZM844.2 208.99H760.51L738.77 195.23H816.52L844.2 208.99ZM896.2 194.71H818.66L794.58 182.83H867.01L896.2 194.71ZM865.93 182.39H793.69L772.69 172.05H840.46L865.93 182.39ZM909.83 171.65H842.22L819.68 162.54H883.36L909.83 171.65ZM882.37 162.2H818.85L798.85 154.1H858.85L882.37 162.2ZM920.37 153.83H860.45L839.39 146.63H896.21L920.37 153.83ZM895.27 146.36H838.55L819.65 139.91H873.54L895.27 146.36ZM928.73 139.65H874.85L855.17 133.79H906.47L928.73 139.65ZM905.73 133.59H854.56L836.69 128.3H885.6L905.73 133.59ZM884.74 128.1H835.92L819.65 123.27H866.39L884.74 128.1ZM914.21 123.1H867.55L850.67 118.68H895.45L914.21 123.1ZM894.7 118.53H850.01L834.51 114.47H877.51L894.7 118.53ZM921.36 114.32H878.51L862.51 110.58H903.76L921.36 114.32ZM903.11 110.41H861.92L847.15 106.95H886.85L903.11 110.41ZM927.45 106.82H887.85L872.71 103.61H910.97L927.45 106.82ZM910.29 103.49H872.09L858.01 100.49H894.92L910.29 103.49ZM894.29 100.39H857.42L844.3 97.61H879.97L894.29 100.39ZM916.46 97.5001H880.87L867.44 94.9H901.94L916.46 97.5001ZM901.35 94.8H866.95L854.37 92.36H887.85L901.35 94.8ZM921.89 92.28H888.53L875.69 89.9901H908.08L921.89 92.28ZM907.54 89.9H875.21L863.21 87.77H894.62L907.54 89.9ZM926.68 87.67H895.35L883.07 85.67H913.58L926.68 87.67ZM913.02 85.57H882.55L870.95 83.65H900.6L913.02 85.57ZM900.12 83.57H870.54L859.54 81.76H888.38L900.12 83.57ZM917.9 81.7H889.09L877.95 79.98H906.02L917.9 81.7ZM905.56 79.92H877.56L867 78.3H894.34L905.56 79.92ZM922.29 78.23H894.97L884.25 76.6901H910.88L922.29 78.23ZM910.48 76.64H883.85L873.66 75.17H899.66L910.48 76.64ZM926.23 75.11H900.23L889.89 73.72H915.28L926.23 75.11ZM914.88 73.65H889.53L879.69 72.32H904.49L914.88 73.65Z" fill="#99FFCC"/>
</g>
<defs>
<linearGradient id="paint0_linear" x1="454.15" y1="454.91" x2="454.15" y2="-175" gradientUnits="userSpaceOnUse">
<stop stop-color="#08061A"/>
<stop offset="0.2" stop-color="#044551"/>
<stop offset="0.36" stop-color="#007A7F"/>
<stop offset="0.61" stop-color="#96FAC9"/>
<stop offset="0.69" stop-color="#99FFCC"/>
<stop offset="0.76" stop-color="#99FFCC"/>
</linearGradient>
</defs>
</svg>
