<svg width="120" height="142" viewBox="0 0 120 142" fill="none" xmlns="http://www.w3.org/2000/svg">
<path d="M99.4537 11.6272L99.5204 11.8196L99.7075 11.9258L99.9009 11.8811L99.992 11.7106L99.9253 11.5182L99.7382 11.412L99.5448 11.4567L99.4537 11.6272Z" fill="#F3F3F3"/>
<path d="M97.139 46.9785L97.6182 47.2505L98.1203 47.1344L98.3536 46.6977L98.1803 46.1982L97.7011 45.9263L97.1989 46.0423L96.9656 46.4791L97.139 46.9785Z" fill="white" fill-opacity="0.49"/>
<path d="M112.609 91.5551L113.088 91.8271L113.59 91.711L113.823 91.2743L113.65 90.7748L113.171 90.5029L112.669 90.6189L112.435 91.0557L112.609 91.5551Z" fill="white" fill-opacity="0.49"/>
<path d="M75.7901 22.0995L75.8568 22.2918L76.0405 22.3988L76.2373 22.3533L76.325 22.1836L76.2583 21.9912L76.0746 21.8842L75.8778 21.9297L75.7901 22.0995Z" fill="#F3F3F3"/>
<path d="M91.2588 66.6758L91.3256 66.8681L91.5093 66.9751L91.7061 66.9296L91.7938 66.7599L91.727 66.5675L91.5433 66.4605L91.3465 66.506L91.2588 66.6758Z" fill="#F3F3F3"/>
<path d="M83.92 61.1515L84.0606 61.5565L84.4485 61.7766L84.8522 61.6833L85.0411 61.3298L84.9005 60.9248L84.5138 60.708L84.11 60.8013L83.92 61.1515Z" fill="#F3F3F3"/>
<path d="M99.3888 105.728L99.5293 106.133L99.9172 106.353L100.321 106.26L100.51 105.906L100.369 105.501L99.9825 105.284L99.5788 105.378L99.3888 105.728Z" fill="#F3F3F3"/>
<path d="M45.2706 64.0346L45.4111 64.4395L45.7991 64.6597L46.2028 64.5664L46.3917 64.2128L46.2511 63.8079L45.8644 63.5911L45.4606 63.6844L45.2706 64.0346Z" fill="#F3F3F3"/>
<path d="M60.7394 108.611L60.8799 109.016L61.2678 109.236L61.6716 109.143L61.8604 108.789L61.7199 108.384L61.3331 108.167L60.9294 108.261L60.7394 108.611Z" fill="#F3F3F3"/>
<path d="M109.519 40.1997L109.587 40.3954L109.729 40.5084L109.868 40.4764L109.919 40.3187L109.851 40.123L109.706 40.0108L109.567 40.0428L109.519 40.1997Z" fill="#F3F3F3"/>
<path d="M93.326 52.3496L93.8052 52.6216L94.3107 52.5047L94.544 52.068L94.3707 51.5685L93.8915 51.2966L93.386 51.4134L93.1527 51.8501L93.326 52.3496Z" fill="white" fill-opacity="0.49"/>
<path d="M108.795 96.926L109.274 97.198L109.779 97.0811L110.013 96.6444L109.839 96.145L109.36 95.873L108.855 95.9898L108.621 96.4266L108.795 96.926Z" fill="white" fill-opacity="0.49"/>
<path d="M97.9986 30.0893L98.0653 30.2817L98.2525 30.3879L98.4459 30.3432L98.5369 30.1727L98.4702 29.9803L98.2831 29.8741L98.0897 29.9188L97.9986 30.0893Z" fill="white" fill-opacity="0.49"/>
<path d="M113.467 74.6654L113.534 74.8578L113.721 74.964L113.915 74.9193L114.006 74.7488L113.939 74.5564L113.752 74.4502L113.558 74.4949L113.467 74.6654Z" fill="white" fill-opacity="0.49"/>
<path d="M55.3528 61.016L55.832 61.288L56.3342 61.1719L56.5675 60.7352L56.3941 60.2357L55.9149 59.9637L55.4128 60.0798L55.1795 60.5165L55.3528 61.016Z" fill="#F3F3F3"/>
<path d="M70.8216 105.592L71.3008 105.864L71.8029 105.748L72.0362 105.311L71.8629 104.812L71.3837 104.54L70.8815 104.656L70.6482 105.093L70.8216 105.592Z" fill="#F3F3F3"/>
<path d="M45.3914 44.9632L45.4792 45.2163L45.72 45.3502L45.971 45.2922L46.0866 45.0759L45.9987 44.8228L45.7614 44.6881L45.5103 44.7462L45.3914 44.9632Z" fill="white" fill-opacity="0.49"/>
<path d="M60.8602 89.5393L60.948 89.7924L61.1887 89.9263L61.4398 89.8683L61.5553 89.652L61.4675 89.3989L61.2302 89.2642L60.9791 89.3223L60.8602 89.5393Z" fill="white" fill-opacity="0.49"/>
<path d="M105.917 22.3675L105.984 22.5598L106.168 22.6668L106.364 22.6213L106.452 22.4516L106.385 22.2592L106.201 22.1522L106.005 22.1977L105.917 22.3675Z" fill="#F3F3F3"/>
<path d="M46.6509 36.4774L46.7189 36.6731L46.9048 36.776L47.0982 36.7313L47.1905 36.5641L47.1225 36.3684L46.9366 36.2655L46.7432 36.3102L46.6509 36.4774Z" fill="#F3F3F3"/>
<path d="M62.1197 81.0539L62.1876 81.2496L62.3736 81.3524L62.567 81.3077L62.6592 81.1406L62.5913 80.9448L62.4053 80.842L62.2119 80.8867L62.1197 81.0539Z" fill="#F3F3F3"/>
<path d="M79.3343 46.5254L79.8135 46.7974L80.3156 46.6813L80.5489 46.2446L80.3756 45.7451L79.8964 45.4731L79.3942 45.5892L79.1609 46.0259L79.3343 46.5254Z" fill="#F3F3F3"/>
<path d="M94.803 91.1019L95.2822 91.3739L95.7844 91.2578L96.0177 90.8211L95.8443 90.3216L95.3651 90.0496L94.863 90.1657L94.6297 90.6024L94.803 91.1019Z" fill="#F3F3F3"/>
<path d="M45.6397 71.3429L45.7263 71.5926L45.967 71.7265L46.2181 71.6685L46.3336 71.4522L46.247 71.2025L46.0085 71.0644L45.7574 71.1224L45.6397 71.3429Z" fill="#F3F3F3"/>
<path d="M61.1084 115.919L61.1951 116.169L61.4358 116.303L61.6869 116.245L61.8024 116.029L61.7157 115.779L61.4772 115.641L61.2262 115.699L61.1084 115.919Z" fill="#F3F3F3"/>
<path d="M117.357 25.9744L117.425 26.1701L117.611 26.273L117.804 26.2283L117.897 26.0611L117.829 25.8654L117.643 25.7625L117.449 25.8073L117.357 25.9744Z" fill="#F3F3F3"/>
<path d="M52.3287 76.2129L52.3954 76.4052L52.5825 76.5114L52.7759 76.4667L52.867 76.2962L52.8003 76.1038L52.6131 75.9976L52.4198 76.0423L52.3287 76.2129Z" fill="#F3F3F3"/>
<path d="M67.7974 120.789L67.8642 120.981L68.0513 121.087L68.2447 121.043L68.3358 120.872L68.269 120.68L68.0819 120.574L67.8885 120.618L67.7974 120.789Z" fill="#F3F3F3"/>
<path d="M63.0938 69.1379L63.1605 69.3303L63.3443 69.4373L63.541 69.3918L63.6287 69.222L63.562 69.0297L63.3783 68.9227L63.1815 68.9682L63.0938 69.1379Z" fill="#F3F3F3"/>
<path d="M78.5625 113.714L78.6293 113.907L78.813 114.014L79.0098 113.968L79.0975 113.798L79.0307 113.606L78.847 113.499L78.6502 113.545L78.5625 113.714Z" fill="#F3F3F3"/>
<path d="M80.5948 54.4169L80.6615 54.6092L80.8452 54.7162L81.042 54.6707L81.1297 54.501L81.063 54.3086L80.8792 54.2016L80.6825 54.2471L80.5948 54.4169Z" fill="#F3F3F3"/>
<path d="M96.0625 98.9931L96.1293 99.1855L96.313 99.2924L96.5098 99.247L96.5975 99.0772L96.5307 98.8849L96.347 98.7779L96.1502 98.8234L96.0625 98.9931Z" fill="#F3F3F3"/>
<path d="M113.285 43.6014L113.353 43.7972L113.536 43.9008L113.732 43.8553L113.821 43.6889L113.753 43.4932L113.571 43.3896L113.374 43.4351L113.285 43.6014Z" fill="#F3F3F3"/>
<path d="M96.5726 37.0148L97.0518 37.2868L97.5539 37.1707L97.7872 36.734L97.6139 36.2345L97.1347 35.9625L96.6325 36.0786L96.3992 36.5153L96.5726 37.0148Z" fill="#F3F3F3"/>
<path d="M112.04 81.5909L112.52 81.8629L113.022 81.7468L113.255 81.3101L113.082 80.8106L112.602 80.5386L112.1 80.6547L111.867 81.0914L112.04 81.5909Z" fill="#F3F3F3"/>
<path d="M61.2782 53.8574L61.7574 54.1294L62.2629 54.0125L62.4962 53.5758L62.3217 53.073L61.8425 52.801L61.3369 52.9179L61.1037 53.3546L61.2782 53.8574Z" fill="#F3F3F3"/>
<path d="M76.7479 98.4335L77.2271 98.7055L77.7326 98.5886L77.9659 98.1519L77.7914 97.6491L77.3122 97.3771L76.8067 97.494L76.5734 97.9307L76.7479 98.4335Z" fill="#F3F3F3"/>
<path d="M60.9798 21.0247L61.459 21.2967L61.9611 21.1806L62.1944 20.7439L62.0211 20.2444L61.5419 19.9724L61.0397 20.0885L60.8065 20.5252L60.9798 21.0247Z" fill="#F3F3F3"/>
<path d="M104.024 14.8463L104.111 15.0961L104.353 15.2334L104.604 15.1753L104.718 14.9557L104.632 14.7059L104.394 14.5712L104.143 14.6293L104.024 14.8463Z" fill="#F3F3F3"/>
<path d="M119.494 59.4226L119.581 59.6723L119.823 59.8096L120.074 59.7515L120.188 59.5319L120.101 59.2822L119.864 59.1475L119.613 59.2055L119.494 59.4226Z" fill="#F3F3F3"/>
<path d="M38.4959 34.9028L38.5826 35.1525L38.8211 35.2906L39.0721 35.2325L39.1899 35.0121L39.1032 34.7624L38.8613 34.6251L38.6103 34.6831L38.4959 34.9028Z" fill="#F3F3F3"/>
<path d="M53.9647 79.4792L54.0513 79.7289L54.2898 79.867L54.5409 79.809L54.6586 79.5885L54.572 79.3388L54.3301 79.2015L54.079 79.2596L53.9647 79.4792Z" fill="#F3F3F3"/>
<path d="M28.8242 29.8548L28.9109 30.1046L29.1482 30.2393L29.3993 30.1812L29.5182 29.9642L29.4315 29.7144L29.1897 29.5771L28.9386 29.6352L28.8242 29.8548Z" fill="#F3F3F3"/>
<path d="M104.544 11.2304L104.612 11.4261L104.798 11.529L104.992 11.4842L105.084 11.3171L105.016 11.1214L104.83 11.0185L104.637 11.0632L104.544 11.2304Z" fill="#F3F3F3"/>
<path d="M35.5127 34.7245L35.5795 34.9169L35.7632 35.0239L35.96 34.9784L36.0477 34.8087L35.9809 34.6163L35.7972 34.5093L35.6004 34.5548L35.5127 34.7245Z" fill="#F3F3F3"/>
<path d="M50.9815 79.301L51.0482 79.4934L51.232 79.6004L51.4287 79.5549L51.5164 79.3851L51.4497 79.1928L51.266 79.0858L51.0692 79.1313L50.9815 79.301Z" fill="#F3F3F3"/>
<path d="M51.2647 26.497L51.3314 26.6894L51.5152 26.7964L51.7119 26.7509L51.7996 26.5811L51.7329 26.3888L51.5492 26.2818L51.3524 26.3273L51.2647 26.497Z" fill="#F3F3F3"/>
<g filter="url(#filter0_b)">
<path fill-rule="evenodd" clip-rule="evenodd" d="M4.60666 32.0489C2.66815 33.1592 2.04517 35.5504 3.21519 37.3899L72.8099 146.806C73.98 148.645 76.4999 149.236 78.4384 148.126L167.991 96.8359C169.93 95.7256 170.553 93.3343 169.383 91.4949L99.788 -17.9211C98.618 -19.7606 96.098 -20.3517 94.1595 -19.2415L4.60666 32.0489Z" fill="#070618"/>
</g>
<path d="M63.5339 128.001C62.9489 127.081 63.2603 125.886 64.2296 125.331L153.613 74.1372C154.583 73.582 155.843 73.8776 156.428 74.7974L167.632 92.4129C168.217 93.3327 167.906 94.5283 166.936 95.0834L77.5526 146.277C76.5834 146.832 75.3234 146.537 74.7384 145.617L63.5339 128.001Z" fill="url(#paint0_linear)"/>
<path fill-rule="evenodd" clip-rule="evenodd" d="M153.698 74.2704L64.3143 125.464C63.4226 125.975 63.1361 127.075 63.6743 127.921L74.8788 145.536C75.417 146.383 76.5762 146.654 77.4679 146.144L166.852 94.9502C167.743 94.4395 168.03 93.3395 167.492 92.4934L156.287 74.8778C155.749 74.0316 154.59 73.7597 153.698 74.2704ZM64.2296 125.331C63.2603 125.886 62.9489 127.081 63.5339 128.001L74.7384 145.617C75.3234 146.537 76.5834 146.832 77.5526 146.277L166.936 95.0834C167.906 94.5283 168.217 93.3327 167.632 92.4129L156.428 74.7974C155.843 73.8776 154.583 73.582 153.613 74.1372L64.2296 125.331Z" fill="url(#paint1_linear)"/>
<path d="M85.0923 139.064L77.6095 138.379L72.6496 129.503L70.5775 128.5L70.0335 127.155L70.1595 126.372L71.4843 125.318L73.1702 125.713L75.3903 123.909L78.0888 122.955L78.5694 121.26L80.1425 120.596L80.9678 121.011L81.9231 122.12L81.9202 124.371L87.7848 132.611L85.0923 139.064Z" fill="#070618"/>
<path fill-rule="evenodd" clip-rule="evenodd" d="M71.4116 125.24L73.1131 125.565L75.2952 123.792L75.4286 123.94L73.1705 125.775L71.464 125.448L70.1831 126.406L70.1096 127.098L70.6582 128.431L72.7527 129.475L74.9211 133.476L77.6181 138.202L84.4787 138.932L79.1938 136.445L77.1708 133.968L77.8563 131.98L78.5211 132.205L78.3659 130.353L76.9367 128.782L77.0919 128.655L78.5649 130.274L78.7506 132.489L77.9857 132.23L77.3994 133.93L79.3271 136.291L85.6127 139.249L77.4889 138.384L74.7388 133.565L72.6001 129.618L70.4951 128.569L69.9007 127.125L69.9878 126.304L71.4116 125.24Z" fill="#F3F3F3"/>
<path fill-rule="evenodd" clip-rule="evenodd" d="M71.5712 125.848L70.0817 126.471L69.9991 126.293L71.5644 125.639L72.7831 126.065L72.9742 125.616L73.1642 125.689L72.9749 126.134L76.0005 127.251L74.9332 129.755L72.5047 129.621L72.464 128.546L70.8201 127.72L70.6955 126.928L72.7211 126.545L72.7513 126.261L71.5712 125.848ZM72.9497 126.333L72.9099 126.708L70.9271 127.083L71.0075 127.594L72.6646 128.427L72.7028 129.437L74.7983 129.553L75.7326 127.36L72.9497 126.333Z" fill="#F3F3F3"/>
<path fill-rule="evenodd" clip-rule="evenodd" d="M76.9589 126.39L77.0791 126.547L76.0927 127.224L76.4009 128.455L76.2015 128.5L75.8616 127.143L76.9589 126.39Z" fill="#F3F3F3"/>
<path fill-rule="evenodd" clip-rule="evenodd" d="M79.3381 136.433L77.6217 138.245L77.4693 138.115L79.1857 136.303L79.3381 136.433Z" fill="#F3F3F3"/>
<path fill-rule="evenodd" clip-rule="evenodd" d="M72.4949 127.259L72.9473 126.778L72.7945 126.649L72.2792 127.196L72.4629 128.5L72.6661 128.474L72.4949 127.259Z" fill="#F3F3F3"/>
<path fill-rule="evenodd" clip-rule="evenodd" d="M70.9218 127.71L72.3772 127.18L72.4507 127.362L71.0704 127.864L70.6965 128.587L70.5125 128.501L70.9218 127.71Z" fill="#F3F3F3"/>
<path fill-rule="evenodd" clip-rule="evenodd" d="M79.0746 133.328L77.2655 134.133L77.1785 133.957L79.0642 133.118L81.8902 134.081L81.821 134.264L79.0746 133.328Z" fill="#F3F3F3"/>
<path fill-rule="evenodd" clip-rule="evenodd" d="M78.5644 130.379L79.1372 129.741L78.9813 129.615L78.2395 130.441L78.8651 130.741L79.456 130.273L79.3246 130.124L78.8374 130.51L78.5644 130.379Z" fill="#F3F3F3"/>
<path fill-rule="evenodd" clip-rule="evenodd" d="M78.8559 130.466L80.0095 131.077L80.0473 131.043L80.099 131.124L80.4635 131.317L80.2133 131.304L80.5339 131.808L79.5945 133.074L78.5983 132.345L79.7822 131.281L78.4403 131.21L78.8559 130.466ZM80.0034 131.35L78.9132 132.33L79.5501 132.796L80.2893 131.8L80.0034 131.35ZM79.5872 131.076L78.7714 131.033L78.939 130.733L79.5872 131.076Z" fill="#F3F3F3"/>
<path fill-rule="evenodd" clip-rule="evenodd" d="M84.9717 139.157L79.1774 133.184L79.3282 133.053L85.1225 139.025L84.9717 139.157Z" fill="#F3F3F3"/>
<path fill-rule="evenodd" clip-rule="evenodd" d="M77.8989 127.555L79.3455 127.422L82.138 129.81L82.5151 131.324L82.0344 132.224L81.2468 132.921L80.2759 133.231L79.2154 133.215L77.9321 132.221L77.0054 128.76L77.8989 127.555ZM77.2273 128.799L78.1141 132.111L79.2899 133.022L80.2439 133.036L81.1394 132.75L81.868 132.105L82.2983 131.3L81.9532 129.914L79.2754 127.624L78.0124 127.74L77.2273 128.799Z" fill="#F3F3F3"/>
<path fill-rule="evenodd" clip-rule="evenodd" d="M80.1253 120.493L80.2528 120.646L78.9785 121.606L78.8114 122.803L79.1315 122.878L80.439 121.348L81.1191 121.821L81.1239 123.587L82.1077 124.122L81.1181 126.154L78.2877 125.883L78.5878 122.958L78.1156 122.913L78.1361 122.72L78.61 122.765L78.7862 121.503L80.1253 120.493ZM78.7896 122.998L78.5115 125.709L80.9933 125.946L81.8429 124.202L80.9192 123.7L80.9143 121.92L80.4752 121.614L79.2088 123.097L78.7896 122.998Z" fill="#F3F3F3"/>
<path fill-rule="evenodd" clip-rule="evenodd" d="M80.0325 126.052L80.174 126.192L79.4815 126.819L79.337 127.286L80.9671 126.03L83.8312 129.957L84.4693 127.917L84.6658 127.972L83.9061 130.401L80.9245 126.314L78.9546 127.83L79.3003 126.714L80.0325 126.052Z" fill="#F3F3F3"/>
<path fill-rule="evenodd" clip-rule="evenodd" d="M85.1781 132.871L87.667 132.274L87.7172 132.462L85.2283 133.059L85.1781 132.871Z" fill="#F3F3F3"/>
<path fill-rule="evenodd" clip-rule="evenodd" d="M79.1542 123.006L79.9045 122.829L81.0346 123.59L80.9159 123.749L79.8626 123.039L79.2038 123.195L79.1542 123.006Z" fill="#F3F3F3"/>
<path fill-rule="evenodd" clip-rule="evenodd" d="M81.0609 121.903L81.9893 121.928L81.9835 122.122L81.1355 122.099L80.0238 123.024L79.8887 122.878L81.0609 121.903Z" fill="#F3F3F3"/>
<path fill-rule="evenodd" clip-rule="evenodd" d="M83.6983 130.222L83.8185 130.38L82.293 131.427L82.0065 134.124L85.134 139.041L84.9585 139.141L81.7957 134.169L82.0982 131.32L83.6983 130.222Z" fill="#F3F3F3"/>
<path fill-rule="evenodd" clip-rule="evenodd" d="M79.0839 129.528L77.8786 127.633L77.7031 127.733L78.9809 129.742L79.9439 129.583L79.939 129.88L79.3521 130.109L79.4301 130.289L80.1419 130.011L80.1527 129.351L79.0839 129.528Z" fill="#F3F3F3"/>
<path fill-rule="evenodd" clip-rule="evenodd" d="M79.9381 129.855L80.9316 129.78L80.2366 131.025L82.0284 130.442L82.1317 131.675L80.3581 131.909L80.0305 131.394L79.9174 131.596L79.9219 131.223L79.8713 131.143L79.923 131.127L79.9381 129.855ZM80.1781 131.249L80.4638 131.698L81.9121 131.507L81.845 130.707L80.1781 131.249ZM80.1319 130.797L80.5756 130.002L80.141 130.035L80.1319 130.797Z" fill="#F3F3F3"/>
<path fill-rule="evenodd" clip-rule="evenodd" d="M84.9487 139.12L82.3085 131.342L82.5036 131.282L85.1438 139.061L84.9487 139.12Z" fill="#F3F3F3"/>
<path fill-rule="evenodd" clip-rule="evenodd" d="M72.6184 129.467L75.863 127.312L75.9806 127.472L72.7359 129.626L72.6184 129.467Z" fill="#F3F3F3"/>
<path fill-rule="evenodd" clip-rule="evenodd" d="M78.603 121.181L80.2604 120.481L81.0661 120.79L82.136 121.962L82.1331 124.219L84.7997 127.924L87.9825 132.433L85.004 139.658L85.1747 133.002L83.8716 130.283L82.0135 129.983L81.898 130.746L79.9199 129.558L79.0965 127.567L79.2873 127.496L80.0863 129.428L81.7402 130.421L81.8405 129.758L84.0131 130.109L85.3808 132.962L85.2373 138.558L87.7526 132.457L84.6299 128.033L84.6294 128.033L81.928 124.279L81.9309 122.035L80.9435 120.953L80.2643 120.692L78.7755 121.321L78.3123 122.949L75.6604 123.948L77.204 126.375L78.4678 125.767L79.6206 126.656L79.4913 126.807L78.4418 125.998L77.1269 126.63L75.3598 123.852L78.1412 122.804L78.603 121.181Z" fill="#F3F3F3"/>
<path fill-rule="evenodd" clip-rule="evenodd" d="M75.1831 128.818L76.1847 128.499L77.3865 128.729L75.0543 129.676L77.4763 134.084L74.7739 133.574L74.8084 129.776L74.7112 129.815L74.81 129.607L74.8133 129.237L74.9054 129.405L75.1831 128.818ZM75.0112 130.018L77.0968 133.814L74.9804 133.415L75.0112 130.018ZM75.1134 129.44L75.3333 128.976L76.198 128.7L76.7002 128.796L75.1134 129.44Z" fill="#F3F3F3"/>
<path fill-rule="evenodd" clip-rule="evenodd" d="M84.5165 128.029L81.0319 126.178L81.132 126.009L84.6166 127.859L84.5165 128.029Z" fill="#F3F3F3"/>
<path fill-rule="evenodd" clip-rule="evenodd" d="M78.3054 125.91L81.9382 124.188L82.0298 124.362L78.475 126.047L77.908 127.765L75.907 127.488L75.9366 127.296L77.7646 127.549L78.3054 125.91Z" fill="#F3F3F3"/>
<path fill-rule="evenodd" clip-rule="evenodd" d="M78.7997 122.832L76.5308 125.507L73.0252 126.14L72.9869 125.948L76.4185 125.33L78.64 122.71L78.7997 122.832Z" fill="#F3F3F3"/>
<path d="M106.744 37.4446C106.727 37.4179 106.732 37.3966 106.761 37.3805L106.975 37.2575C107.003 37.2414 107.026 37.2467 107.043 37.2733L108.772 39.9912C108.789 40.0178 108.783 40.0392 108.755 40.0552L108.54 40.1783C108.512 40.1944 108.489 40.1891 108.473 40.1624L107.692 38.9354C107.685 38.9247 107.676 38.9226 107.665 38.9291L106.321 39.6986C106.31 39.705 106.308 39.7136 106.315 39.7242L107.095 40.9513C107.112 40.9779 107.107 40.9993 107.079 41.0154L106.864 41.1384C106.836 41.1545 106.813 41.1492 106.796 41.1226L105.067 38.4047C105.05 38.3781 105.056 38.3567 105.084 38.3406L105.299 38.2176C105.327 38.2015 105.35 38.2068 105.366 38.2334L106.137 39.4445C106.144 39.4551 106.153 39.4572 106.164 39.4508L107.507 38.6813C107.519 38.6748 107.521 38.6663 107.514 38.6556L106.744 37.4446Z" fill="#BBC3D9"/>
<path d="M110.352 39.1843C110.15 39.3001 109.944 39.3505 109.735 39.3355C109.527 39.3206 109.339 39.2426 109.173 39.1015C109.056 39.0015 108.932 38.8489 108.801 38.6437C108.671 38.4385 108.587 38.2647 108.55 38.1223C108.495 37.9212 108.509 37.7296 108.592 37.5474C108.676 37.3651 108.821 37.2145 109.029 37.0955C109.228 36.9813 109.431 36.9325 109.637 36.9491C109.846 36.9641 110.03 37.0402 110.19 37.1775C110.302 37.2696 110.426 37.4222 110.562 37.6353C110.699 37.8512 110.784 38.0263 110.815 38.1607C110.872 38.3645 110.859 38.5575 110.776 38.7397C110.695 38.9203 110.554 39.0685 110.352 39.1843ZM110.194 38.9365C110.329 38.8593 110.422 38.7587 110.473 38.6347C110.523 38.5081 110.527 38.3752 110.484 38.236C110.448 38.1256 110.375 37.9838 110.265 37.8106C110.153 37.6348 110.057 37.5066 109.975 37.4262C109.865 37.3256 109.739 37.2688 109.596 37.2558C109.455 37.2386 109.316 37.2693 109.178 37.3482C109.041 37.427 108.947 37.5297 108.897 37.6563C108.846 37.7802 108.841 37.9118 108.884 38.051C108.921 38.1572 108.995 38.2982 109.107 38.474C109.219 38.6499 109.316 38.778 109.397 38.8584C109.505 38.9606 109.629 39.0203 109.77 39.0376C109.912 39.0506 110.054 39.0169 110.194 38.9365Z" fill="#BBC3D9"/>
<path d="M111.856 38.2792C111.828 38.2953 111.805 38.29 111.788 38.2634L110.06 35.5455C110.043 35.5189 110.048 35.4975 110.076 35.4814L110.291 35.3584C110.319 35.3423 110.342 35.3476 110.359 35.3743L112.087 38.0921C112.104 38.1187 112.099 38.1401 112.071 38.1562L111.856 38.2792Z" fill="#BBC3D9"/>
<path d="M112.353 34.2321C112.336 34.2054 112.341 34.1841 112.37 34.168L112.584 34.045C112.612 34.0289 112.635 34.0342 112.652 34.0608L114.381 36.7786C114.398 36.8053 114.392 36.8267 114.364 36.8427L114.149 36.9658C114.121 36.9818 114.099 36.9766 114.082 36.9499L113.975 36.7821C113.971 36.7767 113.967 36.7757 113.961 36.7789C113.957 36.7778 113.953 36.7816 113.951 36.7901C113.939 36.9028 113.899 37.007 113.834 37.1027C113.771 37.1968 113.684 37.276 113.571 37.3403C113.375 37.4529 113.179 37.4998 112.983 37.4811C112.79 37.4607 112.616 37.3824 112.46 37.2462C112.344 37.1488 112.217 36.9909 112.078 36.7724C111.937 36.5512 111.849 36.3763 111.813 36.2478C111.755 36.0483 111.763 35.862 111.837 35.6889C111.909 35.5131 112.045 35.3681 112.244 35.2539C112.354 35.1912 112.468 35.1546 112.588 35.1442C112.706 35.1311 112.821 35.1455 112.932 35.1874C112.941 35.1895 112.947 35.1898 112.949 35.1881C112.953 35.1823 112.954 35.1767 112.95 35.1713L112.353 34.2321ZM113.698 36.5097C113.69 36.442 113.668 36.3689 113.633 36.2905C113.599 36.2121 113.541 36.109 113.46 35.9811C113.378 35.8532 113.309 35.7565 113.252 35.691C113.193 35.6228 113.132 35.5688 113.069 35.5289C112.977 35.4576 112.875 35.4178 112.763 35.4096C112.651 35.3971 112.542 35.4213 112.436 35.4825C112.323 35.5468 112.243 35.6289 112.196 35.7288C112.148 35.8288 112.134 35.9332 112.154 36.042C112.157 36.1199 112.174 36.201 112.205 36.2853C112.237 36.3652 112.294 36.4705 112.377 36.6011C112.457 36.7263 112.525 36.8217 112.582 36.8872C112.637 36.95 112.697 37.0014 112.761 37.0413C112.855 37.1179 112.963 37.1601 113.082 37.1678C113.205 37.1739 113.325 37.1432 113.443 37.0756C113.556 37.0113 113.632 36.9294 113.672 36.83C113.712 36.7307 113.721 36.6239 113.698 36.5097Z" fill="#BBC3D9"/>
<path d="M113.766 33.9246C113.698 33.9632 113.629 33.974 113.557 33.9571C113.484 33.9402 113.428 33.8998 113.387 33.8358C113.345 33.7692 113.334 33.7031 113.353 33.6374C113.371 33.569 113.414 33.5155 113.481 33.4769C113.548 33.4383 113.618 33.4275 113.69 33.4444C113.76 33.4586 113.817 33.499 113.859 33.5657C113.9 33.6296 113.911 33.6958 113.893 33.7641C113.876 33.8325 113.833 33.886 113.766 33.9246ZM115.165 36.3782C115.137 36.3943 115.115 36.389 115.098 36.3624L113.862 34.4199C113.845 34.3933 113.851 34.3719 113.879 34.3558L114.094 34.2328C114.122 34.2167 114.144 34.222 114.161 34.2486L115.397 36.1911C115.414 36.2177 115.408 36.2391 115.38 36.2552L115.165 36.3782Z" fill="#BBC3D9"/>
<path d="M115.738 33.2586C115.962 33.13 116.18 33.0905 116.392 33.1401C116.606 33.1881 116.781 33.3174 116.915 33.5279L117.753 34.8469C117.77 34.8735 117.765 34.8949 117.737 34.911L117.522 35.034C117.494 35.0501 117.471 35.0448 117.454 35.0181L116.651 33.7551C116.558 33.6086 116.434 33.516 116.279 33.4775C116.127 33.4373 115.977 33.4598 115.828 33.545C115.673 33.6335 115.577 33.7503 115.539 33.8956C115.502 34.0409 115.529 34.1868 115.622 34.3334L116.431 35.6044C116.448 35.631 116.442 35.6524 116.414 35.6684L116.199 35.7915C116.171 35.8076 116.149 35.8023 116.132 35.7756L114.896 33.8332C114.879 33.8065 114.885 33.7852 114.913 33.7691L115.128 33.646C115.156 33.63 115.178 33.6352 115.195 33.6619L115.305 33.8338C115.308 33.8391 115.312 33.8423 115.317 33.8433C115.324 33.8428 115.327 33.839 115.327 33.8321C115.345 33.5961 115.482 33.405 115.738 33.2586Z" fill="#BBC3D9"/>
<path d="M118.481 31.7801C118.464 31.7535 118.47 31.7321 118.498 31.716L118.713 31.593C118.741 31.5769 118.763 31.5822 118.78 31.6088L119.998 33.5233C120.188 33.8217 120.235 34.0925 120.141 34.3356C120.049 34.5771 119.845 34.7887 119.528 34.9704C119.463 35.0074 119.413 35.0342 119.378 35.0508C119.348 35.0643 119.324 35.0577 119.308 35.031L119.199 34.8423C119.191 34.829 119.188 34.8159 119.191 34.8031C119.196 34.793 119.205 34.786 119.218 34.7822L119.335 34.7211C119.596 34.5715 119.754 34.4137 119.809 34.2475C119.866 34.0841 119.828 33.8971 119.694 33.6866L119.6 33.5387C119.596 33.5334 119.592 33.5323 119.586 33.5355C119.582 33.5345 119.578 33.5382 119.576 33.5468C119.548 33.7806 119.415 33.9659 119.177 34.1026C118.994 34.2071 118.802 34.2538 118.599 34.2425C118.399 34.2297 118.221 34.1517 118.065 34.0085C117.962 33.9185 117.842 33.7656 117.705 33.5498C117.63 33.4326 117.57 33.3324 117.525 33.2492C117.482 33.1645 117.452 33.0837 117.434 33.0069C117.383 32.818 117.393 32.6379 117.464 32.4664C117.533 32.2922 117.66 32.152 117.846 32.0459C118.095 31.9028 118.335 31.8728 118.564 31.956C118.573 31.9581 118.578 31.9571 118.579 31.9528C118.583 31.9469 118.584 31.9413 118.58 31.936L118.481 31.7801ZM119.332 33.1631C119.315 33.1183 119.289 33.0658 119.255 33.0055C119.22 32.9453 119.167 32.8592 119.096 32.7473C119.01 32.6114 118.951 32.5216 118.919 32.478C118.886 32.4316 118.851 32.3917 118.814 32.3581C118.721 32.2591 118.606 32.1993 118.47 32.1788C118.336 32.1541 118.201 32.1803 118.066 32.2575C117.934 32.3331 117.845 32.4334 117.798 32.5584C117.754 32.6818 117.75 32.8113 117.786 32.9467C117.813 33.0481 117.883 33.1894 117.999 33.3705C118.122 33.5651 118.222 33.6916 118.297 33.7501C118.397 33.8459 118.516 33.9046 118.657 33.9262C118.798 33.9434 118.936 33.9134 119.071 33.8363C119.208 33.7574 119.298 33.6571 119.339 33.5353C119.383 33.4119 119.381 33.2879 119.332 33.1631Z" fill="#BBC3D9"/>
<path d="M99.3772 55.6804C99.6379 55.9021 99.8495 56.1407 100.012 56.396C100.192 56.6791 100.308 56.9613 100.359 57.2425C100.45 57.6748 100.393 58.0936 100.188 58.4989C99.9796 58.8986 99.6471 59.2292 99.1908 59.4905C98.7462 59.7451 98.2907 59.8697 97.8243 59.8642C97.3602 59.8498 96.9468 59.7079 96.5839 59.4386C96.4336 59.3278 96.2926 59.2003 96.161 59.056L96.1504 59.0394C96.1116 58.9783 96.1272 58.9277 96.1974 58.8875L97.2592 58.2793C97.3177 58.2458 97.3752 58.2546 97.4315 58.3056C97.4586 58.3356 97.485 58.3583 97.5108 58.3738C97.5367 58.3893 97.5578 58.4037 97.5742 58.417C97.7245 58.5278 97.8829 58.5886 98.0493 58.5993C98.2158 58.61 98.378 58.5701 98.5359 58.4797C98.6997 58.3859 98.8165 58.2621 98.8864 58.1085C98.9563 57.9549 98.9728 57.7864 98.936 57.603C98.9239 57.4585 98.8613 57.2974 98.7484 57.1197C98.646 56.9588 98.5278 56.8295 98.394 56.732C98.2612 56.6111 98.1087 56.547 97.9364 56.5396C97.7641 56.5323 97.5961 56.5755 97.4323 56.6693C97.2685 56.7631 97.1394 56.8863 97.0449 57.0389C96.9504 57.1915 96.9168 57.3395 96.9441 57.4828C96.9619 57.5484 96.9415 57.5979 96.883 57.6314L95.8037 58.2496C95.7744 58.2664 95.7428 58.2731 95.7088 58.2699C95.6772 58.2577 95.6525 58.2377 95.6348 58.21L93.5004 54.8543C93.4828 54.8266 93.4774 54.7993 93.4844 54.7726C93.4937 54.737 93.5129 54.7108 93.5422 54.6941L97.1662 52.6185C97.1955 52.6017 97.226 52.5994 97.2576 52.6116C97.2916 52.6148 97.3174 52.6303 97.3351 52.6581L97.8488 53.4658C97.8665 53.4935 97.8707 53.5252 97.8614 53.5608C97.8544 53.5875 97.8363 53.6092 97.8071 53.626L95.3589 55.0282C95.3296 55.0449 95.3238 55.0672 95.3415 55.0949L96.1166 56.3323C96.1413 56.3712 96.1641 56.3695 96.1851 56.3271C96.346 56.0154 96.599 55.7607 96.9441 55.563C97.3536 55.3285 97.774 55.224 98.2053 55.2496C98.6389 55.2663 99.0296 55.4099 99.3772 55.6804Z" fill="#F3F3F3"/>
<path d="M104.039 56.7593C103.395 57.1279 102.779 57.2501 102.189 57.1259C101.596 56.9961 101.112 56.6371 100.737 56.0486L99.3393 53.8504C98.9721 53.2731 98.868 52.7079 99.027 52.1548C99.186 51.6018 99.5873 51.141 100.231 50.7724C100.874 50.4039 101.491 50.2817 102.081 50.4059C102.676 50.5267 103.158 50.8758 103.525 51.4531L104.923 53.6514C105.297 54.2398 105.404 54.815 105.243 55.3769C105.084 55.93 104.682 56.3908 104.039 56.7593ZM103.398 55.7518C103.661 55.601 103.821 55.4071 103.878 55.1701C103.937 54.9243 103.885 54.6736 103.723 54.4183L102.266 52.1284C102.104 51.8731 101.896 51.7157 101.643 51.6563C101.392 51.5879 101.135 51.6292 100.872 51.7799C100.614 51.9274 100.456 52.124 100.397 52.3699C100.34 52.6069 100.393 52.8531 100.555 53.1084L102.012 55.3983C102.174 55.6536 102.381 55.8155 102.632 55.8838C102.885 55.9432 103.141 55.8992 103.398 55.7518Z" fill="#F3F3F3"/>
<path d="M107.468 55.7835C107.398 55.8237 107.343 55.806 107.303 55.7305L106.364 53.6329C106.331 53.5685 106.349 53.5161 106.42 53.4759L107.315 52.9633C107.391 52.9198 107.443 52.9391 107.471 53.0213L108.161 55.273C108.179 55.3386 108.156 55.3898 108.091 55.4267L107.468 55.7835Z" fill="#F3F3F3"/>
<path d="M111.134 52.6955C110.491 53.0641 109.874 53.1863 109.284 53.0621C108.691 52.9324 108.207 52.5733 107.833 51.9848L106.435 49.7866C106.067 49.2093 105.963 48.6441 106.122 48.091C106.281 47.538 106.683 47.0772 107.326 46.7086C107.97 46.3401 108.586 46.2179 109.176 46.3421C109.772 46.4629 110.253 46.812 110.62 47.3893L112.019 49.5876C112.393 50.176 112.499 50.7512 112.338 51.3131C112.179 51.8662 111.778 52.327 111.134 52.6955ZM110.493 51.688C110.757 51.5372 110.917 51.3433 110.973 51.1064C111.032 50.8605 110.981 50.6098 110.818 50.3545L109.362 48.0646C109.199 47.8093 108.992 47.6519 108.738 47.5925C108.487 47.5242 108.23 47.5654 107.967 47.7161C107.71 47.8636 107.551 48.0602 107.492 48.3061C107.435 48.5431 107.488 48.7893 107.651 49.0446L109.107 51.3345C109.27 51.5899 109.476 51.7517 109.727 51.82C109.981 51.8794 110.236 51.8354 110.493 51.688Z" fill="#F3F3F3"/>
<path d="M116.139 49.8293C115.495 50.1978 114.878 50.32 114.289 50.1958C113.695 50.0661 113.212 49.707 112.837 49.1186L111.439 46.9203C111.072 46.343 110.968 45.7778 111.127 45.2248C111.286 44.6717 111.687 44.2109 112.331 43.8424C112.974 43.4738 113.591 43.3516 114.181 43.4758C114.776 43.5967 115.258 43.9457 115.625 44.5231L117.023 46.7213C117.397 47.3097 117.504 47.8849 117.342 48.4469C117.183 48.9999 116.782 49.4607 116.139 49.8293ZM115.498 48.8218C115.761 48.671 115.921 48.4771 115.978 48.2401C116.037 47.9942 115.985 47.7436 115.823 47.4882L114.366 45.1984C114.204 44.943 113.996 44.7856 113.743 44.7262C113.492 44.6579 113.235 44.6991 112.971 44.8499C112.714 44.9973 112.556 45.194 112.497 45.4399C112.44 45.6769 112.493 45.923 112.655 46.1784L114.112 48.4683C114.274 48.7236 114.481 48.8854 114.732 48.9538C114.985 49.0132 115.24 48.9692 115.498 48.8218Z" fill="#F3F3F3"/>
<path d="M121.143 46.963C120.5 47.3316 119.883 47.4538 119.293 47.3296C118.7 47.1999 118.216 46.8408 117.842 46.2523L116.444 44.0541C116.076 43.4768 115.972 42.9116 116.131 42.3585C116.29 41.8055 116.692 41.3447 117.335 40.9761C117.979 40.6076 118.595 40.4854 119.185 40.6096C119.781 40.7304 120.262 41.0795 120.629 41.6568L122.027 43.8551C122.402 44.4435 122.508 45.0187 122.347 45.5806C122.188 46.1337 121.787 46.5945 121.143 46.963ZM120.502 45.9555C120.765 45.8047 120.925 45.6108 120.982 45.3739C121.041 45.128 120.99 44.8773 120.827 44.622L119.371 42.3321C119.208 42.0768 119.001 41.9194 118.747 41.86C118.496 41.7917 118.239 41.8329 117.976 41.9836C117.719 42.1311 117.56 42.3277 117.501 42.5736C117.444 42.8106 117.497 43.0568 117.66 43.3121L119.116 45.602C119.279 45.8574 119.485 46.0192 119.736 46.0875C119.989 46.1469 120.245 46.1029 120.502 45.9555Z" fill="#F3F3F3"/>
<path d="M125.59 40.1901C125.619 40.1733 125.65 40.171 125.681 40.1832C125.715 40.1864 125.741 40.202 125.759 40.2297L126.273 41.0374C126.29 41.0652 126.295 41.0968 126.285 41.1324C126.278 41.1592 126.26 41.1809 126.231 41.1976L125.029 41.8862C125 41.9029 124.994 41.9252 125.011 41.9529L125.726 43.077C125.744 43.1048 125.748 43.1365 125.739 43.1721C125.732 43.1988 125.714 43.2205 125.685 43.2373L124.842 43.7197C124.813 43.7365 124.781 43.7432 124.747 43.74C124.716 43.7278 124.691 43.7079 124.673 43.6801L123.958 42.556C123.941 42.5283 123.917 42.5228 123.888 42.5395L122.686 43.228C122.657 43.2448 122.625 43.2515 122.591 43.2483C122.559 43.2361 122.535 43.2162 122.517 43.1884L122.003 42.3807C121.986 42.353 121.98 42.3257 121.987 42.299C121.997 42.2634 122.016 42.2373 122.045 42.2205L123.247 41.532C123.276 41.5152 123.282 41.493 123.265 41.4652L122.534 40.3161C122.516 40.2884 122.511 40.2611 122.518 40.2344C122.527 40.1988 122.546 40.1726 122.575 40.1559L123.418 39.6734C123.447 39.6567 123.478 39.6544 123.509 39.6665C123.543 39.6698 123.569 39.6853 123.587 39.713L124.318 40.8621C124.335 40.8899 124.359 40.8954 124.388 40.8786L125.59 40.1901Z" fill="#F3F3F3"/>
<path d="M120.596 55.0256C120.725 55.2282 120.76 55.4349 120.703 55.6459C120.648 55.8552 120.504 56.0435 120.269 56.2106C120.258 56.217 120.256 56.2256 120.262 56.2362L120.45 56.5216C120.467 56.5482 120.461 56.5696 120.433 56.5857L120.248 56.6918C120.22 56.7079 120.197 56.7026 120.18 56.676L120.001 56.3858C119.994 56.3751 119.985 56.373 119.974 56.3795C119.702 56.4992 119.452 56.5347 119.226 56.4862C118.998 56.435 118.819 56.3068 118.688 56.1016L118.61 55.9777C118.593 55.9511 118.598 55.9297 118.626 55.9136L118.816 55.8051C118.844 55.789 118.866 55.7943 118.883 55.8209L118.952 55.9288C119.05 56.0834 119.193 56.1724 119.381 56.196C119.569 56.2153 119.776 56.1606 120 56.0319C120.202 55.9161 120.33 55.785 120.382 55.6387C120.433 55.4896 120.413 55.3432 120.321 55.1993C120.262 55.106 120.186 55.0405 120.093 55.0029C120.003 54.9636 119.888 54.9436 119.75 54.9429C119.612 54.9422 119.424 54.957 119.187 54.9875C118.934 55.0234 118.734 55.0434 118.587 55.0475C118.441 55.0473 118.304 55.0207 118.174 54.9676C118.046 54.9103 117.936 54.8097 117.844 54.6658C117.714 54.4606 117.676 54.2603 117.732 54.0648C117.786 53.8666 117.923 53.6902 118.142 53.5354C118.153 53.5289 118.156 53.5204 118.149 53.5097L117.946 53.2004C117.929 53.1737 117.935 53.1524 117.963 53.1363L118.144 53.0326C118.172 53.0165 118.195 53.0218 118.212 53.0484L118.408 53.3666C118.415 53.3772 118.424 53.3793 118.435 53.3729C118.699 53.258 118.944 53.227 119.169 53.2798C119.394 53.3326 119.573 53.463 119.705 53.6708L119.761 53.7587C119.778 53.7854 119.773 53.8067 119.744 53.8228L119.546 53.9362C119.518 53.9523 119.496 53.947 119.479 53.9204L119.433 53.8484C119.335 53.6939 119.194 53.6019 119.011 53.5724C118.827 53.543 118.629 53.5894 118.415 53.7116C118.227 53.8194 118.107 53.9408 118.055 54.076C118.003 54.2112 118.024 54.352 118.117 54.4986C118.178 54.5945 118.253 54.6608 118.341 54.6974C118.431 54.7297 118.536 54.7441 118.656 54.7406C118.778 54.7329 118.957 54.7116 119.196 54.6769C119.44 54.6458 119.644 54.6312 119.806 54.6329C119.971 54.633 120.12 54.6636 120.255 54.7247C120.391 54.7814 120.504 54.8818 120.596 55.0256Z" fill="#F3F3F3"/>
<path d="M121.925 51.6903C121.942 51.7169 121.937 51.7383 121.909 51.7544L120.363 52.6397C120.352 52.6462 120.35 52.6547 120.356 52.6654L120.984 53.6526C120.991 53.6632 121 53.6653 121.011 53.6589L122.094 53.0389C122.122 53.0229 122.144 53.0281 122.161 53.0548L122.268 53.2227C122.285 53.2493 122.279 53.2707 122.251 53.2867L121.169 53.9067C121.158 53.9132 121.155 53.9217 121.162 53.9324L121.943 55.1594C121.96 55.186 121.954 55.2074 121.926 55.2235L121.711 55.3465C121.683 55.3626 121.661 55.3573 121.644 55.3307L119.915 52.6128C119.898 52.5862 119.903 52.5648 119.932 52.5487L121.751 51.5066C121.779 51.4905 121.802 51.4958 121.819 51.5224L121.925 51.6903Z" fill="#F3F3F3"/>
<path d="M124.977 53.5199C124.777 53.6341 124.577 53.6959 124.376 53.7055C124.176 53.7151 123.989 53.6747 123.817 53.5844C123.645 53.4898 123.501 53.3506 123.384 53.1667L122.744 52.1595C122.627 51.9757 122.565 51.7912 122.558 51.606C122.553 51.4165 122.601 51.2397 122.704 51.0756C122.806 50.9115 122.957 50.7723 123.156 50.6581C123.356 50.544 123.556 50.4821 123.757 50.4725C123.96 50.4613 124.148 50.503 124.319 50.5976C124.491 50.6879 124.636 50.825 124.753 51.0088L125.393 52.0161C125.51 52.1999 125.572 52.3866 125.577 52.576C125.584 52.7612 125.535 52.9367 125.429 53.1024C125.327 53.2665 125.176 53.4057 124.977 53.5199ZM124.822 53.2761C125.035 53.1538 125.167 52.9944 125.218 52.7979C125.27 52.6014 125.231 52.4018 125.102 52.1993L124.451 51.1761C124.322 50.9736 124.154 50.8481 123.947 50.7995C123.739 50.7482 123.527 50.7837 123.314 50.9059C123.103 51.0266 122.973 51.1865 122.924 51.3857C122.873 51.5822 122.911 51.7818 123.04 51.9843L123.691 53.0075C123.82 53.21 123.988 53.3355 124.195 53.3841C124.402 53.4327 124.611 53.3967 124.822 53.2761Z" fill="#F3F3F3"/>
<path d="M128.385 51.5241C128.36 51.5385 128.337 51.5389 128.317 51.525L126.91 50.6406C126.902 50.6342 126.893 50.6335 126.885 50.6383L126.169 51.0484C126.158 51.0548 126.156 51.0634 126.162 51.074L126.94 52.2971C126.957 52.3237 126.952 52.3451 126.924 52.3612L126.709 52.4842C126.681 52.5003 126.658 52.495 126.641 52.4683L124.912 49.7505C124.896 49.7238 124.901 49.7025 124.929 49.6864L126.02 49.0616C126.262 48.9233 126.502 48.8835 126.743 48.9421C126.981 48.9981 127.174 49.1407 127.319 49.3698C127.438 49.5563 127.486 49.7454 127.462 49.9371C127.438 50.1288 127.347 50.2955 127.188 50.4374C127.18 50.4491 127.182 50.4574 127.193 50.4622L128.607 51.3314C128.614 51.3351 128.619 51.3409 128.624 51.3489C128.636 51.3676 128.631 51.3833 128.608 51.3962L128.385 51.5241ZM125.361 49.7774C125.349 49.7838 125.347 49.7924 125.354 49.803L125.997 50.8142C126.004 50.8249 126.013 50.827 126.024 50.8206L126.808 50.3719C126.97 50.2786 127.072 50.155 127.112 50.0012C127.152 49.8474 127.123 49.6932 127.025 49.5387C126.926 49.3841 126.796 49.2878 126.634 49.2498C126.47 49.2091 126.307 49.2354 126.144 49.3287L125.361 49.7774Z" fill="#F3F3F3"/>
<path d="M129.396 47.1662C129.398 47.1395 129.409 47.1205 129.429 47.1093L129.648 46.9838C129.676 46.9677 129.698 46.973 129.715 46.9997L131.444 49.7175C131.461 49.7442 131.456 49.7655 131.427 49.7816L131.213 49.9046C131.185 49.9207 131.162 49.9154 131.145 49.8888L129.732 47.6665C129.727 47.6586 129.72 47.6548 129.713 47.6554C129.706 47.6559 129.703 47.661 129.705 47.6706L129.654 49.063C129.652 49.0897 129.641 49.1087 129.622 49.12L129.512 49.1827C129.493 49.1939 129.471 49.1956 129.446 49.1877L128.129 48.5897C128.121 48.5833 128.116 48.583 128.112 48.5889C128.108 48.5948 128.108 48.6017 128.113 48.6097L129.519 50.82C129.536 50.8466 129.531 50.868 129.503 50.8841L129.288 51.0071C129.26 51.0232 129.237 51.0179 129.22 50.9912L127.492 48.2734C127.475 48.2467 127.48 48.2254 127.508 48.2093L127.727 48.0839C127.75 48.071 127.772 48.0693 127.793 48.0789L129.309 48.7645C129.314 48.7655 129.319 48.7644 129.325 48.7612C129.33 48.758 129.334 48.7543 129.335 48.75L129.396 47.1662Z" fill="#F3F3F3"/>
<path d="M42.5013 25.34C42.5112 25.3555 42.5135 25.3733 42.5083 25.3932C42.5044 25.4082 42.4943 25.4203 42.4779 25.4297L40.8711 26.35C40.8547 26.3594 40.8514 26.3719 40.8613 26.3874L41.321 27.1102C41.3309 27.1257 41.344 27.1288 41.3604 27.1194L42.4169 26.5143C42.4333 26.5049 42.4504 26.5036 42.4681 26.5104C42.4871 26.5123 42.5016 26.5209 42.5115 26.5365L42.7992 26.9888C42.8091 27.0043 42.8114 27.0221 42.8062 27.042C42.8023 27.057 42.7922 27.0691 42.7758 27.0785L41.7193 27.6836C41.7029 27.693 41.6997 27.7055 41.7096 27.721L42.5282 29.008C42.538 29.0235 42.5404 29.0413 42.5352 29.0612C42.5313 29.0762 42.5212 29.0883 42.5048 29.0977L41.9298 29.427C41.9135 29.4364 41.8958 29.4402 41.8767 29.4384C41.859 29.4315 41.8452 29.4204 41.8353 29.4048L39.8303 26.2527C39.8204 26.2371 39.8174 26.2219 39.8213 26.2069C39.8265 26.187 39.8373 26.1723 39.8537 26.1629L42.119 24.8655C42.1354 24.8561 42.1525 24.8548 42.1702 24.8616C42.1893 24.8634 42.2037 24.8721 42.2136 24.8877L42.5013 25.34Z" fill="#B3BAD2"/>
<path d="M45.872 27.2392C45.6165 27.3855 45.3588 27.4652 45.099 27.4783C44.8424 27.4896 44.6037 27.4375 44.3829 27.3223C44.1601 27.2039 43.9746 27.0281 43.8263 26.795L43.1916 25.7971C43.0453 25.567 42.9698 25.3325 42.9652 25.0934C42.9606 24.8543 43.0243 24.6312 43.1563 24.4241C43.2896 24.212 43.484 24.0328 43.7395 23.8865C43.9983 23.7383 44.256 23.6585 44.5125 23.6473C44.7704 23.6311 45.0097 23.6806 45.2305 23.7959C45.4514 23.9112 45.6349 24.0838 45.7812 24.3139L46.4159 25.3118C46.5642 25.5449 46.6417 25.7826 46.6482 26.0248C46.6548 26.267 46.5915 26.4942 46.4582 26.7062C46.3262 26.9133 46.1308 27.0909 45.872 27.2392ZM45.5131 26.6749C45.6933 26.5718 45.8045 26.4339 45.8467 26.2613C45.8888 26.0887 45.8526 25.9122 45.7379 25.7319L45.0854 24.7061C44.9707 24.5258 44.8231 24.4131 44.6425 24.3681C44.4632 24.3181 44.2818 24.3456 44.0984 24.4507C43.9182 24.5539 43.808 24.6934 43.7678 24.8691C43.7289 25.0398 43.7668 25.2153 43.8815 25.3956L44.534 26.4214C44.6487 26.6017 44.7947 26.7153 44.972 26.7622C45.1526 26.8072 45.3329 26.7781 45.5131 26.6749Z" fill="#B3BAD2"/>
<path d="M49.5548 25.0599C49.522 25.0787 49.4902 25.0778 49.4593 25.0573L48.0235 24.1175C48.009 24.1088 47.9953 24.1082 47.9822 24.1157L47.5252 24.3775C47.5088 24.3869 47.5055 24.3993 47.5154 24.4149L48.3251 25.6879C48.335 25.7034 48.3373 25.7211 48.3321 25.7411C48.3282 25.756 48.3181 25.7682 48.3017 25.7776L47.7268 26.1069C47.7104 26.1163 47.6927 26.12 47.6737 26.1182C47.6559 26.1114 47.6421 26.1002 47.6322 26.0847L45.6273 22.9325C45.6174 22.917 45.6144 22.9017 45.6183 22.8868C45.6235 22.8668 45.6343 22.8522 45.6507 22.8428L47.0561 22.0379C47.2657 21.9178 47.4749 21.8531 47.6835 21.8439C47.8955 21.8328 48.0915 21.8774 48.2716 21.9779C48.4549 22.0764 48.6089 22.2236 48.7335 22.4195C48.8679 22.6309 48.9279 22.8446 48.9134 23.0607C48.8969 23.2737 48.8085 23.4686 48.6482 23.6452C48.6358 23.6608 48.6378 23.6745 48.6543 23.6863L50.1619 24.6231C50.1764 24.6318 50.1856 24.6393 50.1895 24.6455C50.2054 24.6703 50.1952 24.6931 50.1592 24.7137L49.5548 25.0599ZM46.668 23.0299C46.6516 23.0393 46.6484 23.0517 46.6583 23.0673L47.1654 23.8646C47.1753 23.8802 47.1885 23.8833 47.2048 23.8739L47.8486 23.5052C47.9862 23.4264 48.0728 23.3237 48.1086 23.1972C48.1476 23.0689 48.1276 22.9425 48.0485 22.8181C47.9694 22.6938 47.8609 22.6181 47.723 22.591C47.5864 22.559 47.4493 22.5824 47.3117 22.6612L46.668 23.0299Z" fill="#B3BAD2"/>
<path d="M50.8452 19.9186C50.8457 19.8843 50.8607 19.8588 50.8902 19.8419L51.4652 19.5126C51.4815 19.5032 51.4986 19.5019 51.5163 19.5087C51.5354 19.5106 51.5498 19.5192 51.5597 19.5348L53.5647 22.687C53.5746 22.7025 53.5769 22.7202 53.5717 22.7402C53.5678 22.7551 53.5577 22.7673 53.5413 22.7767L52.9664 23.106C52.95 23.1154 52.9323 23.1191 52.9132 23.1173C52.8955 23.1105 52.8817 23.0993 52.8718 23.0838L51.5638 21.0274C51.5559 21.015 51.5487 21.0106 51.5421 21.0144C51.5356 21.0181 51.532 21.0266 51.5314 21.0396L51.5028 22.112C51.5023 22.1463 51.4873 22.1718 51.4578 22.1887L51.1679 22.3548C51.1384 22.3717 51.1075 22.3724 51.0753 22.3569L50.0621 21.8812C50.0496 21.8756 50.0411 21.8762 50.0365 21.8831C50.03 21.8868 50.0306 21.8949 50.0386 21.9074L51.3436 23.9591C51.3534 23.9746 51.3558 23.9924 51.3506 24.0123C51.3467 24.0273 51.3366 24.0394 51.3202 24.0488L50.7452 24.3781C50.7289 24.3875 50.7112 24.3913 50.6921 24.3894C50.6744 24.3826 50.6606 24.3715 50.6507 24.3559L48.6457 21.2037C48.6358 21.1882 48.6328 21.1729 48.6367 21.158C48.6419 21.1381 48.6527 21.1234 48.6691 21.114L49.244 20.7847C49.2735 20.7678 49.3044 20.7671 49.3366 20.7826L50.7647 21.4469C50.7864 21.46 50.7962 21.4543 50.7942 21.43L50.8452 19.9186Z" fill="#B3BAD2"/>
<path d="M56.3857 21.1476C56.353 21.1663 56.3218 21.163 56.2922 21.1375L55.8541 20.765C55.8396 20.7563 55.8275 20.7548 55.8177 20.7604L54.6088 21.4528C54.599 21.4584 54.5948 21.4693 54.5961 21.4855L54.7443 22.0241C54.7542 22.0608 54.7428 22.0885 54.7101 22.1073L54.086 22.4647C54.0663 22.476 54.0486 22.4798 54.0329 22.4761C54.0151 22.4693 54.0026 22.4531 53.9953 22.4276L53.0518 18.6675C53.0418 18.6308 53.0532 18.603 53.086 18.5843L53.8575 18.1424C53.8903 18.1237 53.9214 18.127 53.951 18.1525L57.0174 20.6967C57.0246 20.7011 57.0312 20.7079 57.0372 20.7172C57.0549 20.7452 57.0458 20.7695 57.0098 20.7901L56.3857 21.1476ZM54.4201 20.8293C54.4287 20.8498 54.4412 20.8554 54.4575 20.846L55.3224 20.3507C55.342 20.3394 55.3427 20.3263 55.3243 20.3114L54.0011 19.1798C53.9899 19.1693 53.9821 19.1674 53.9775 19.1743C53.9709 19.178 53.969 19.1855 53.9716 19.1967L54.4201 20.8293Z" fill="#B3BAD2"/>
<path d="M57.3708 16.1302C57.3872 16.1208 57.4042 16.1195 57.422 16.1264C57.441 16.1282 57.4555 16.1369 57.4653 16.1524L57.756 16.6094C57.7659 16.6249 57.7682 16.6427 57.763 16.6626C57.7592 16.6776 57.749 16.6897 57.7326 16.6991L56.853 17.2029C56.8367 17.2123 56.8334 17.2247 56.8433 17.2403L58.5072 19.8562C58.5171 19.8717 58.5194 19.8895 58.5142 19.9094C58.5103 19.9244 58.5002 19.9365 58.4838 19.9459L57.9089 20.2752C57.8925 20.2846 57.8748 20.2884 57.8557 20.2866C57.838 20.2797 57.8242 20.2686 57.8143 20.253L56.1504 17.6371C56.1405 17.6216 56.1274 17.6185 56.111 17.6279L55.256 18.1176C55.2396 18.127 55.2219 18.1307 55.2029 18.1289C55.1851 18.1221 55.1713 18.1109 55.1614 18.0954L54.8708 17.6384C54.8609 17.6229 54.8579 17.6076 54.8618 17.5927C54.867 17.5727 54.8778 17.5581 54.8941 17.5487L57.3708 16.1302Z" fill="#B3BAD2"/>
<path d="M60.0069 19.0736C59.9906 19.0829 59.9728 19.0867 59.9538 19.0849C59.9361 19.0781 59.9223 19.0669 59.9124 19.0514L57.9074 15.8992C57.8975 15.8837 57.8945 15.8684 57.8984 15.8535C57.9036 15.8335 57.9144 15.8189 57.9308 15.8095L58.5057 15.4802C58.5221 15.4708 58.5392 15.4695 58.5569 15.4763C58.5759 15.4782 58.5904 15.4868 58.6003 15.5024L60.6052 18.6545C60.6151 18.6701 60.6175 18.6878 60.6123 18.7078C60.6084 18.7227 60.5982 18.7349 60.5819 18.7443L60.0069 19.0736Z" fill="#B3BAD2"/>
<path d="M62.495 17.7185C62.2395 17.8649 61.9818 17.9446 61.722 17.9577C61.4655 17.9689 61.2268 17.9169 61.006 17.8016C60.7832 17.6832 60.5976 17.5075 60.4493 17.2743L59.8146 16.2764C59.6683 16.0464 59.5928 15.8118 59.5882 15.5727C59.5837 15.3336 59.6473 15.1105 59.7793 14.9034C59.9126 14.6914 60.107 14.5122 60.3626 14.3658C60.6214 14.2176 60.879 14.1379 61.1356 14.1267C61.3934 14.1104 61.6328 14.16 61.8536 14.2753C62.0744 14.3905 62.258 14.5632 62.4043 14.7932L63.039 15.7911C63.1873 16.0243 63.2647 16.2619 63.2713 16.5042C63.2779 16.7464 63.2145 16.9735 63.0812 17.1856C62.9492 17.3926 62.7538 17.5703 62.495 17.7185ZM62.1362 17.1543C62.3164 17.0511 62.4275 16.9132 62.4697 16.7406C62.5119 16.568 62.4756 16.3916 62.361 16.2113L61.7085 15.1854C61.5938 15.0051 61.4461 14.8924 61.2655 14.8474C61.0863 14.7974 60.9049 14.825 60.7214 14.93C60.5413 15.0332 60.4311 15.1727 60.3909 15.3484C60.352 15.5191 60.3898 15.6946 60.5045 15.8749L61.157 16.9008C61.2717 17.0811 61.4177 17.1947 61.595 17.2416C61.7756 17.2866 61.956 17.2575 62.1362 17.1543Z" fill="#B3BAD2"/>
<path d="M64.2257 12.2805C64.2159 12.2649 64.2129 12.2497 64.2168 12.2347C64.222 12.2148 64.2327 12.2001 64.2491 12.1907L64.8241 11.8614C64.8404 11.8521 64.8575 11.8508 64.8752 11.8576C64.8943 11.8594 64.9087 11.8681 64.9186 11.8836L66.9236 15.0358C66.9335 15.0513 66.9358 15.0691 66.9306 15.089C66.9267 15.104 66.9166 15.1161 66.9002 15.1255L66.3449 15.4436C66.3122 15.4623 66.2813 15.463 66.2524 15.4457L63.7103 14.1788C63.6978 14.1733 63.6893 14.1739 63.6847 14.1808C63.6781 14.1845 63.6788 14.1926 63.6867 14.205L64.9482 16.1672C64.958 16.1827 64.9604 16.2005 64.9552 16.2204C64.9513 16.2354 64.9412 16.2475 64.9248 16.2569L64.3498 16.5862C64.3335 16.5956 64.3158 16.5994 64.2967 16.5976C64.279 16.5907 64.2652 16.5796 64.2553 16.564L62.2503 13.4119C62.2404 13.3963 62.2374 13.3811 62.2413 13.3661C62.2465 13.3462 62.2573 13.3315 62.2737 13.3221L62.829 13.0041C62.8617 12.9853 62.8926 12.9846 62.9215 13.002L65.4528 14.2623C65.4653 14.2679 65.4748 14.2688 65.4813 14.265C65.4859 14.2582 65.4843 14.2485 65.4763 14.2361L64.2257 12.2805Z" fill="#B3BAD2"/>
<path d="M67.9098 14.5727C67.7984 14.6365 67.6833 14.6558 67.5644 14.6306C67.4469 14.6004 67.3545 14.5324 67.2873 14.4267C67.2181 14.3179 67.1978 14.2087 67.2263 14.099C67.2549 13.9893 67.3265 13.9017 67.4412 13.836C67.5558 13.7703 67.671 13.751 67.7865 13.7782C67.9021 13.8053 67.9945 13.8732 68.0637 13.982C68.1309 14.0877 68.1496 14.1979 68.1197 14.3125C68.0912 14.4222 68.0212 14.5089 67.9098 14.5727Z" fill="#B3BAD2"/>
<path d="M69.5138 9.8689C69.5236 9.88444 69.526 9.90218 69.5208 9.92212C69.5169 9.93708 69.5068 9.94924 69.4904 9.95862L67.8835 10.8789C67.8671 10.8883 67.8639 10.9008 67.8738 10.9163L68.3335 11.6391C68.3434 11.6546 68.3565 11.6577 68.3729 11.6483L69.4294 11.0432C69.4458 11.0339 69.4628 11.0326 69.4806 11.0394C69.4996 11.0412 69.5141 11.0499 69.5239 11.0654L69.8116 11.5177C69.8215 11.5333 69.8239 11.551 69.8187 11.5709C69.8148 11.5859 69.8046 11.5981 69.7883 11.6075L68.7318 12.2126C68.7154 12.2219 68.7121 12.2344 68.722 12.2499L69.5406 13.5369C69.5505 13.5525 69.5528 13.5702 69.5476 13.5901C69.5438 13.6051 69.5336 13.6173 69.5172 13.6266L68.9423 13.9559C68.9259 13.9653 68.9082 13.9691 68.8892 13.9673C68.8714 13.9605 68.8576 13.9493 68.8477 13.9338L66.8428 10.7816C66.8329 10.766 66.8299 10.7508 66.8338 10.7358C66.839 10.7159 66.8498 10.7012 66.8662 10.6919L69.1315 9.3944C69.1479 9.38502 69.1649 9.38374 69.1827 9.39054C69.2017 9.39236 69.2162 9.40104 69.2261 9.41659L69.5138 9.8689Z" fill="#B3BAD2"/>
<path d="M71.692 12.3811C71.6756 12.3904 71.6579 12.3942 71.6389 12.3924C71.6212 12.3856 71.6073 12.3744 71.5975 12.3589L69.5925 9.20672C69.5826 9.19117 69.5796 9.17592 69.5835 9.16097C69.5887 9.14103 69.5995 9.12637 69.6159 9.11699L70.1908 8.7877C70.2072 8.77832 70.2242 8.77703 70.242 8.78384C70.261 8.78566 70.2755 8.79434 70.2854 8.80988L72.2903 11.9621C72.3002 11.9776 72.3026 11.9953 72.2974 12.0153C72.2935 12.0302 72.2833 12.0424 72.267 12.0518L71.692 12.3811Z" fill="#B3BAD2"/>
<path d="M45.7137 35.0974C45.6941 35.1087 45.6721 35.1103 45.6479 35.1024C45.3832 34.9813 45.1138 34.7957 44.8398 34.5455C44.5657 34.2954 44.3236 34.0051 44.1135 33.6747C43.8999 33.3389 43.7378 32.9937 43.6271 32.6391C43.5193 32.2828 43.4712 31.9632 43.4828 31.6803C43.4838 31.6578 43.4956 31.6402 43.518 31.6273L43.7202 31.5115C43.7371 31.5019 43.7517 31.5008 43.7641 31.5082C43.7748 31.513 43.7802 31.5245 43.7802 31.5426C43.79 31.8169 43.8527 32.1264 43.9684 32.4709C44.0824 32.8127 44.2436 33.1475 44.4521 33.4753C44.6572 33.7977 44.8917 34.0851 45.1556 34.3374C45.4179 34.5871 45.6737 34.7786 45.9233 34.9119C45.9357 34.9194 45.9436 34.9258 45.947 34.9311C45.9571 34.9471 45.9496 34.9623 45.9243 34.9768L45.7137 35.0974Z" fill="#B3BAD2"/>
<path d="M47.7344 32.4133C47.8632 32.6158 47.8989 32.8225 47.8416 33.0335C47.787 33.2429 47.6424 33.4311 47.4078 33.5982C47.3965 33.6047 47.3943 33.6132 47.4011 33.6239L47.5883 33.9092C47.6053 33.9359 47.5997 33.9572 47.5716 33.9733L47.3863 34.0795C47.3582 34.0956 47.3357 34.0903 47.3188 34.0636L47.1399 33.7734C47.1332 33.7628 47.1242 33.7607 47.1129 33.7671C46.8405 33.8868 46.5911 33.9224 46.3648 33.8738C46.1369 33.8226 45.9577 33.6945 45.8272 33.4893L45.7484 33.3654C45.7314 33.3387 45.737 33.3174 45.7651 33.3013L45.9546 33.1927C45.9827 33.1767 46.0052 33.1819 46.0221 33.2086L46.0908 33.3165C46.1891 33.471 46.3319 33.5601 46.5193 33.5836C46.7078 33.6029 46.9143 33.5482 47.139 33.4196C47.3411 33.3038 47.4685 33.1727 47.5209 33.0263C47.5717 32.8773 47.5513 32.7308 47.4598 32.5869C47.4005 32.4937 47.3244 32.4282 47.2315 32.3905C47.1414 32.3513 47.0271 32.3313 46.8887 32.3305C46.7504 32.3298 46.5625 32.3447 46.3253 32.3752C46.0722 32.411 45.8723 32.431 45.7255 32.4351C45.5799 32.4349 45.4423 32.4083 45.3127 32.3553C45.1843 32.2979 45.0744 32.1973 44.9828 32.0534C44.8523 31.8483 44.8149 31.6479 44.8707 31.4525C44.9247 31.2543 45.0614 31.0778 45.2809 30.923C45.2922 30.9166 45.2944 30.908 45.2876 30.8974L45.0851 30.588C45.0682 30.5614 45.0737 30.54 45.1018 30.5239L45.2829 30.4202C45.311 30.4041 45.3335 30.4094 45.3505 30.4361L45.5471 30.7542C45.5539 30.7649 45.5629 30.767 45.5741 30.7606C45.8382 30.6457 46.0828 30.6147 46.3079 30.6675C46.533 30.7203 46.7117 30.8506 46.8439 31.0584L46.8998 31.1464C46.9168 31.173 46.9112 31.1944 46.8831 31.2105L46.6852 31.3238C46.6571 31.3399 46.6346 31.3346 46.6176 31.308L46.5719 31.2361C46.4736 31.0815 46.3327 30.9895 46.1492 30.9601C45.9658 30.9307 45.7674 30.9771 45.5539 31.0993C45.3658 31.207 45.2458 31.3285 45.1938 31.4637C45.1419 31.5988 45.1625 31.7397 45.2558 31.8862C45.3168 31.9822 45.3915 32.0484 45.4799 32.085C45.5694 32.1174 45.6744 32.1318 45.7947 32.1283C45.9162 32.1205 46.0961 32.0993 46.3345 32.0645C46.5791 32.0335 46.7824 32.0188 46.9444 32.0206C47.1092 32.0207 47.2589 32.0513 47.3935 32.1123C47.5293 32.1691 47.6429 32.2694 47.7344 32.4133Z" fill="#B3BAD2"/>
<path d="M49.0642 29.0779C49.0811 29.1046 49.0755 29.126 49.0475 29.142L47.5017 30.0274C47.4904 30.0338 47.4882 30.0424 47.495 30.053L48.1229 31.0402C48.1297 31.0509 48.1387 31.053 48.1499 31.0466L49.2324 30.4266C49.2605 30.4105 49.283 30.4158 49.2999 30.4424L49.4067 30.6103C49.4237 30.6369 49.4181 30.6583 49.39 30.6744L48.3075 31.2944C48.2963 31.3008 48.2941 31.3093 48.3009 31.32L49.0813 32.547C49.0983 32.5737 49.0927 32.595 49.0646 32.6111L48.8498 32.7342C48.8217 32.7502 48.7992 32.745 48.7823 32.7183L47.0536 30.0005C47.0366 29.9738 47.0422 29.9525 47.0703 29.9364L48.8898 28.8942C48.9179 28.8781 48.9404 28.8834 48.9574 28.9101L49.0642 29.0779Z" fill="#B3BAD2"/>
<path d="M52.1153 30.9075C51.9159 31.0217 51.7158 31.0836 51.5151 31.0932C51.3143 31.1027 51.1277 31.0624 50.9553 30.9721C50.7841 30.8775 50.64 30.7382 50.523 30.5544L49.8824 29.5472C49.7655 29.3633 49.7036 29.1788 49.6969 28.9936C49.6914 28.8041 49.7398 28.6274 49.8423 28.4632C49.9448 28.2991 50.0957 28.16 50.2951 28.0458C50.4944 27.9316 50.6945 27.8697 50.8953 27.8601C51.0989 27.849 51.2863 27.8907 51.4575 27.9853C51.6299 28.0756 51.7746 28.2126 51.8915 28.3965L52.5322 29.4037C52.6491 29.5876 52.7104 29.7742 52.7159 29.9637C52.7226 30.1489 52.6733 30.3243 52.5681 30.4901C52.4656 30.6542 52.3146 30.7933 52.1153 30.9075ZM51.9602 30.6637C52.1736 30.5415 52.3059 30.3821 52.3571 30.1855C52.4083 29.989 52.3695 29.7895 52.2407 29.587L51.5899 28.5638C51.4611 28.3613 51.2931 28.2357 51.086 28.1871C50.8772 28.1359 50.6661 28.1714 50.4527 28.2936C50.2421 28.4142 50.112 28.5741 50.0625 28.7733C50.0113 28.9699 50.0501 29.1694 50.1789 29.3719L50.8297 30.3951C50.9585 30.5976 51.1265 30.7232 51.3336 30.7718C51.5407 30.8203 51.7496 30.7843 51.9602 30.6637Z" fill="#B3BAD2"/>
<path d="M55.5238 28.9117C55.4985 28.9262 55.4757 28.9265 55.4555 28.9127L54.0482 28.0283C54.0403 28.0219 54.0322 28.0211 54.0237 28.0259L53.3077 28.436C53.2965 28.4425 53.2942 28.451 53.301 28.4617L54.0789 29.6847C54.0959 29.7114 54.0903 29.7327 54.0622 29.7488L53.8474 29.8718C53.8193 29.8879 53.7968 29.8826 53.7799 29.856L52.0512 27.1381C52.0342 27.1115 52.0398 27.0901 52.0679 27.074L53.1588 26.4492C53.4003 26.3109 53.6412 26.2711 53.8815 26.3298C54.1202 26.3857 54.3124 26.5283 54.4581 26.7575C54.5768 26.944 54.6242 27.1331 54.6006 27.3248C54.5769 27.5164 54.4857 27.6832 54.3269 27.825C54.3191 27.8368 54.3205 27.8451 54.3312 27.8498L55.746 28.719C55.7522 28.7227 55.7578 28.7286 55.7629 28.7366C55.7748 28.7552 55.7695 28.771 55.747 28.7839L55.5238 28.9117ZM52.4993 27.165C52.488 27.1715 52.4858 27.18 52.4926 27.1907L53.1358 28.2019C53.1425 28.2125 53.1516 28.2147 53.1628 28.2082L53.9462 27.7595C54.1091 27.6662 54.2105 27.5427 54.2506 27.3889C54.2907 27.2351 54.2616 27.0809 54.1633 26.9263C54.065 26.7718 53.9348 26.6755 53.7727 26.6375C53.6089 26.5968 53.4456 26.6231 53.2827 26.7163L52.4993 27.165Z" fill="#B3BAD2"/>
<path d="M56.5348 24.5538C56.537 24.5271 56.5479 24.5082 56.5675 24.4969L56.7866 24.3715C56.8147 24.3554 56.8372 24.3607 56.8541 24.3873L58.5828 27.1052C58.5998 27.1318 58.5942 27.1532 58.5661 27.1693L58.3513 27.2923C58.3232 27.3084 58.3007 27.3031 58.2838 27.2764L56.8703 25.0542C56.8652 25.0462 56.859 25.0425 56.8517 25.043C56.8444 25.0436 56.8419 25.0487 56.8442 25.0583L56.7932 26.4507C56.791 26.4774 56.7801 26.4964 56.7604 26.5076L56.6509 26.5703C56.6312 26.5816 56.6093 26.5833 56.5851 26.5753L55.2681 25.9773C55.2602 25.9709 55.2543 25.9707 55.2504 25.9765C55.2464 25.9824 55.247 25.9894 55.2521 25.9974L56.6579 28.2076C56.6749 28.2343 56.6693 28.2556 56.6412 28.2717L56.4264 28.3947C56.3984 28.4108 56.3758 28.4055 56.3589 28.3789L54.6302 25.661C54.6132 25.6344 54.6188 25.613 54.6469 25.5969L54.8659 25.4715C54.8884 25.4586 54.9103 25.457 54.9317 25.4665L56.4481 26.1521C56.4526 26.1532 56.4577 26.1521 56.4633 26.1489C56.4689 26.1457 56.4722 26.1419 56.4734 26.1376L56.5348 24.5538Z" fill="#B3BAD2"/>
<path d="M57.6703 23.5218C57.69 23.5105 57.7119 23.5089 57.7361 23.5168C57.998 23.6395 58.266 23.8259 58.54 24.0761C58.8141 24.3262 59.0562 24.6165 59.2664 24.9469C59.4816 25.2853 59.6432 25.6327 59.751 25.989C59.8617 26.3436 59.9104 26.6611 59.8971 26.9413C59.896 26.9638 59.8843 26.9814 59.8618 26.9943L59.6638 27.1077C59.647 27.1173 59.6324 27.1184 59.62 27.111C59.6093 27.1062 59.6039 27.0947 59.6038 27.0766C59.5941 26.8023 59.5322 26.4942 59.4182 26.1523C59.3025 25.8078 59.1413 25.473 58.9345 25.1479C58.7294 24.8255 58.4949 24.5381 58.231 24.2858C57.967 24.0334 57.7103 23.8406 57.4607 23.7072C57.4484 23.6998 57.4405 23.6934 57.4371 23.6881C57.4269 23.6721 57.4345 23.6569 57.4597 23.6424L57.6703 23.5218Z" fill="#B3BAD2"/>
<path d="M4.98992 36.4777C4.40491 35.558 4.7164 34.3624 5.68565 33.8072L25.1692 22.6483C26.1384 22.0931 27.3984 22.3887 27.9834 23.3085L39.7431 41.7968C40.3281 42.7165 40.0166 43.9122 39.0473 44.4673L19.5638 55.6263C18.5945 56.1814 17.3346 55.8858 16.7496 54.9661L4.98992 36.4777Z" fill="url(#paint2_linear)"/>
<path fill-rule="evenodd" clip-rule="evenodd" d="M25.2539 22.7815L5.77039 33.9405C4.87868 34.4512 4.59211 35.5511 5.13032 36.3973L16.89 54.8857C17.4282 55.7318 18.5873 56.0038 19.4791 55.493L38.9626 44.3341C39.8543 43.8233 40.1409 42.7234 39.6027 41.8772L27.843 23.3889C27.3048 22.5427 26.1456 22.2708 25.2539 22.7815ZM5.68565 33.8072C4.7164 34.3624 4.40491 35.558 4.98992 36.4777L16.7496 54.9661C17.3346 55.8858 18.5945 56.1814 19.5638 55.6263L39.0473 44.4673C40.0166 43.9122 40.3281 42.7165 39.7431 41.7968L27.9834 23.3085C27.3984 22.3887 26.1384 22.0931 25.1692 22.6483L5.68565 33.8072Z" fill="url(#paint3_linear)"/>
<path d="M25.297 34.2587C25.268 34.2131 25.2182 34.1864 25.1636 34.1866L23.4271 34.1658C23.402 34.1664 23.3758 34.1711 23.3571 34.1818L22.3063 34.6835L20.013 33.69L17.1428 31.3313C17.0886 31.2863 17.0127 31.2815 16.9529 31.3192C16.8957 31.3554 16.8708 31.4249 16.8885 31.4872L18.0788 34.9911L17.4539 35.349C17.4005 35.3796 17.3718 35.4375 17.381 35.4979L17.6772 37.3554L16.3663 38.5137C16.3337 38.5427 16.3135 38.5854 16.3157 38.629L16.3786 39.9364C16.3802 39.9562 16.3888 39.9755 16.3974 39.9947C16.4006 39.9998 16.4039 40.0048 16.4071 40.0099C16.4119 40.0175 16.4151 40.0226 16.42 40.0302L20.0023 43.7319C20.027 43.7592 20.0618 43.7738 20.0987 43.7803L22.7915 44.0787L24.666 45.0151L27.3149 46.7166C27.3695 46.7509 27.438 46.7497 27.4898 46.7166C27.5309 46.6896 27.5495 46.6444 27.5499 46.5992L27.5569 46.5987L27.6455 43.6677L27.7754 40.0742C27.7765 40.0529 27.7721 40.0347 27.7635 40.0154L27.7619 40.0129L25.3013 34.277L25.2986 34.2785C25.3024 34.2729 25.3018 34.2663 25.297 34.2587ZM22.7307 35.3106L21.9445 35.9992L21.1978 36.6583L21.4325 35.4291L21.4663 35.2474L21.4705 35.2312L21.4999 35.2316L21.8038 35.251L22.7307 35.3106ZM21.9467 34.8514L22.1282 34.9305L22.2529 34.9834L22.0432 34.9688L21.7394 34.9494L21.4046 34.927L21.0027 34.5701L20.7246 34.3219L21.9467 34.8514ZM17.358 31.8987L19.8226 33.9234L21.1735 35.125L21.1529 35.2301L21.119 35.4118L21.0852 35.5935L20.8595 36.7795L20.0408 36.088L19.916 35.9834L19.7911 35.8788L19.2494 35.4224C19.2478 35.4198 19.2451 35.4214 19.2409 35.4204C19.235 35.4168 19.2301 35.4092 19.2242 35.4057L18.3991 34.9562L17.358 31.8987ZM18.2666 35.229L18.5129 35.3642L18.0609 35.3467L18.2666 35.229ZM18.0122 37.464L17.9834 37.2871L17.9547 37.1101L17.8809 36.6447L17.7177 35.6262L18.651 35.6615L18.9093 35.6724L18.4564 36.6674L18.3026 37.0041L18.1488 37.3409L18.0317 37.5979L18.0122 37.464ZM18.7173 36.8426L18.8711 36.5059L18.9812 36.2667L19.201 35.7816L19.4898 36.0237L19.6147 36.1283L19.7395 36.233L20.6997 37.0437L18.9558 38.0425L18.1909 37.9971L18.7173 36.8426ZM16.6309 38.6834L17.7346 37.7093L17.8068 38.1549C17.8182 38.2244 17.8771 38.277 17.9514 38.2793L18.9875 38.3386C19.0185 38.3416 19.05 38.3339 19.0767 38.3186L21.0423 37.1928C21.0503 37.1882 21.061 37.1821 21.0674 37.175L23.2066 35.2971C23.2445 35.265 23.2626 35.2132 23.2545 35.1661C23.2447 35.1164 23.212 35.0764 23.1654 35.0547L22.6676 34.8391L23.4588 34.462L24.8969 34.4775L24.0109 35.983L19.9518 38.5945L16.6824 39.721L16.6309 38.6834ZM20.2682 38.7482L24.103 36.2825L25.7308 38.1371L26.4602 43.3279L24.4117 42.7709L20.2682 38.7482ZM23.7116 42.5123L20.7737 41.4218L16.9663 39.9383L19.9829 38.9012L23.7116 42.5123ZM17.1239 40.3177L20.5308 41.6472L20.0447 43.3346L17.1239 40.3177ZM20.3163 43.5037L20.8199 41.7579L24.0062 42.941L22.7962 43.7825L20.3163 43.5037ZM23.1318 43.9149L24.2243 43.1579L24.5303 44.6128L23.1318 43.9149ZM27.162 46.2585L24.8885 44.7978L24.5323 43.1094L26.5149 43.6488L27.162 46.2585ZM27.3396 43.6565L27.2869 45.4583L26.8088 43.5322L27.4248 41.356L27.3396 43.6565ZM26.6969 42.7778L26.1051 38.5651L27.4546 40.1026L26.6969 42.7778ZM27.0986 39.2393L24.3202 36.0683L24.5823 35.6212L25.1412 34.6726L27.0986 39.2393Z" fill="#F3F3F3"/>
<defs>
<filter id="filter0_b" x="-39.375" y="-61.8017" width="251.348" height="252.488" filterUnits="userSpaceOnUse" color-interpolation-filters="sRGB">
<feFlood flood-opacity="0" result="BackgroundImageFix"/>
<feGaussianBlur in="BackgroundImage" stdDeviation="21"/>
<feComposite in2="SourceAlpha" operator="in" result="effect1_backgroundBlur"/>
<feBlend mode="normal" in="SourceGraphic" in2="effect1_backgroundBlur" result="shape"/>
</filter>
<linearGradient id="paint0_linear" x1="69.1361" y1="136.809" x2="109.534" y2="163.39" gradientUnits="userSpaceOnUse">
<stop offset="0.210696" stop-color="#070618"/>
<stop offset="0.46875" stop-color="#484848"/>
<stop offset="0.838542" stop-color="#070618"/>
</linearGradient>
<linearGradient id="paint1_linear" x1="46.2591" y1="131.975" x2="83.587" y2="174.517" gradientUnits="userSpaceOnUse">
<stop stop-color="white"/>
<stop offset="1" stop-color="white" stop-opacity="0"/>
</linearGradient>
<linearGradient id="paint2_linear" x1="5.97826" y1="38.0316" x2="41.8766" y2="46.207" gradientUnits="userSpaceOnUse">
<stop offset="0.210696" stop-color="#070618"/>
<stop offset="0.46875" stop-color="#484848"/>
<stop offset="0.838542" stop-color="#070618"/>
</linearGradient>
<linearGradient id="paint3_linear" x1="-1.43375" y1="34.0847" x2="42.634" y2="49.1308" gradientUnits="userSpaceOnUse">
<stop stop-color="white"/>
<stop offset="1" stop-color="white" stop-opacity="0"/>
</linearGradient>
</defs>
</svg>
