<svg width="208" height="208" viewBox="0 0 208 208" fill="none" xmlns="http://www.w3.org/2000/svg">
<g filter="url(#filter0_dddddd)">
<circle cx="104" cy="104" r="78" stroke="white" stroke-width="2.3" style="mix-blend-mode:screen"/>
</g>
<circle cx="80.766" cy="41.7661" r="0.829787" fill="#99FFCC"/>
<circle cx="87.4044" cy="41.7661" r="0.829787" fill="#99FFCC"/>
<circle cx="94.0426" cy="41.7661" r="0.829787" fill="#99FFCC"/>
<circle cx="100.681" cy="41.7661" r="0.829787" fill="#99FFCC"/>
<circle cx="107.319" cy="41.7661" r="0.829787" fill="#99FFCC"/>
<circle cx="113.958" cy="41.7661" r="0.829787" fill="#99FFCC"/>
<circle cx="120.596" cy="41.7661" r="0.829787" fill="#99FFCC"/>
<circle cx="127.234" cy="41.7661" r="0.829787" fill="#99FFCC"/>
<circle cx="80.766" cy="48.4043" r="0.829787" fill="#99FFCC"/>
<circle cx="74.1277" cy="48.4043" r="0.829787" fill="#99FFCC"/>
<circle cx="87.4043" cy="48.4043" r="0.829787" fill="#99FFCC"/>
<circle cx="94.0426" cy="48.4043" r="0.829787" fill="#99FFCC"/>
<circle cx="100.681" cy="48.4043" r="0.829787" fill="#99FFCC"/>
<circle cx="107.319" cy="48.4043" r="0.829787" fill="#99FFCC"/>
<circle cx="113.957" cy="48.4043" r="0.829787" fill="#99FFCC"/>
<circle cx="120.596" cy="48.4043" r="0.829787" fill="#99FFCC"/>
<circle cx="127.234" cy="48.4043" r="0.829787" fill="#99FFCC"/>
<circle cx="133.872" cy="48.4043" r="0.829787" fill="#99FFCC"/>
<circle cx="80.766" cy="55.0427" r="0.829787" fill="#99FFCC"/>
<circle cx="74.1277" cy="55.0427" r="0.829787" fill="#99FFCC"/>
<circle cx="67.4895" cy="55.0427" r="0.829787" fill="#99FFCC"/>
<circle cx="87.4044" cy="55.0427" r="0.829787" fill="#99FFCC"/>
<circle cx="94.0426" cy="55.0427" r="0.829787" fill="#99FFCC"/>
<circle cx="100.681" cy="55.0427" r="0.829787" fill="#99FFCC"/>
<circle cx="107.319" cy="55.0427" r="0.829787" fill="#99FFCC"/>
<circle cx="113.958" cy="55.0427" r="0.829787" fill="#99FFCC"/>
<circle cx="120.596" cy="55.0427" r="0.829787" fill="#99FFCC"/>
<circle cx="127.234" cy="55.0427" r="0.829787" fill="#99FFCC"/>
<circle cx="133.872" cy="55.0427" r="0.829787" fill="#99FFCC"/>
<circle cx="140.511" cy="55.0427" r="0.829787" fill="#99FFCC"/>
<circle cx="80.7661" cy="61.6809" r="0.829787" fill="#99FFCC"/>
<circle cx="74.1278" cy="61.6809" r="0.829787" fill="#99FFCC"/>
<circle cx="67.4895" cy="61.6809" r="0.829787" fill="#99FFCC"/>
<circle cx="60.8512" cy="61.6809" r="0.829787" fill="#99FFCC"/>
<circle cx="87.4044" cy="61.6809" r="0.829787" fill="#99FFCC"/>
<circle cx="94.0426" cy="61.6809" r="0.829787" fill="#99FFCC"/>
<circle cx="100.681" cy="61.6809" r="0.829787" fill="#99FFCC"/>
<circle cx="107.319" cy="61.6809" r="0.829787" fill="#99FFCC"/>
<circle cx="113.958" cy="61.6809" r="0.829787" fill="#99FFCC"/>
<circle cx="120.596" cy="61.6809" r="0.829787" fill="#99FFCC"/>
<circle cx="127.234" cy="61.6809" r="0.829787" fill="#99FFCC"/>
<circle cx="133.872" cy="61.6809" r="0.829787" fill="#99FFCC"/>
<circle cx="140.511" cy="61.6809" r="0.829787" fill="#99FFCC"/>
<circle cx="147.149" cy="61.6809" r="0.829787" fill="#99FFCC"/>
<circle r="0.829787" transform="matrix(1 0 0 -1 80.766 166.234)" fill="#99FFCC"/>
<circle r="0.829787" transform="matrix(1 0 0 -1 87.4044 166.234)" fill="#99FFCC"/>
<circle r="0.829787" transform="matrix(1 0 0 -1 94.0426 166.234)" fill="#99FFCC"/>
<circle r="0.829787" transform="matrix(1 0 0 -1 100.681 166.234)" fill="#99FFCC"/>
<circle r="0.829787" transform="matrix(1 0 0 -1 107.319 166.234)" fill="#99FFCC"/>
<circle r="0.829787" transform="matrix(1 0 0 -1 113.958 166.234)" fill="#99FFCC"/>
<circle r="0.829787" transform="matrix(1 0 0 -1 120.596 166.234)" fill="#99FFCC"/>
<circle r="0.829787" transform="matrix(1 0 0 -1 127.234 166.234)" fill="#99FFCC"/>
<circle r="0.829787" transform="matrix(1 0 0 -1 80.766 159.596)" fill="#99FFCC"/>
<circle r="0.829787" transform="matrix(1 0 0 -1 74.1277 159.596)" fill="#99FFCC"/>
<circle r="0.829787" transform="matrix(1 0 0 -1 87.4043 159.596)" fill="#99FFCC"/>
<circle r="0.829787" transform="matrix(1 0 0 -1 94.0426 159.596)" fill="#99FFCC"/>
<circle r="0.829787" transform="matrix(1 0 0 -1 100.681 159.596)" fill="#99FFCC"/>
<circle r="0.829787" transform="matrix(1 0 0 -1 107.319 159.596)" fill="#99FFCC"/>
<circle r="0.829787" transform="matrix(1 0 0 -1 113.957 159.596)" fill="#99FFCC"/>
<circle r="0.829787" transform="matrix(1 0 0 -1 120.596 159.596)" fill="#99FFCC"/>
<circle r="0.829787" transform="matrix(1 0 0 -1 127.234 159.596)" fill="#99FFCC"/>
<circle r="0.829787" transform="matrix(1 0 0 -1 133.872 159.596)" fill="#99FFCC"/>
<circle r="0.829787" transform="matrix(1 0 0 -1 80.766 152.957)" fill="#99FFCC"/>
<circle r="0.829787" transform="matrix(1 0 0 -1 74.1277 152.957)" fill="#99FFCC"/>
<circle r="0.829787" transform="matrix(1 0 0 -1 67.4895 152.957)" fill="#99FFCC"/>
<circle r="0.829787" transform="matrix(1 0 0 -1 87.4044 152.957)" fill="#99FFCC"/>
<circle r="0.829787" transform="matrix(1 0 0 -1 94.0426 152.957)" fill="#99FFCC"/>
<circle r="0.829787" transform="matrix(1 0 0 -1 100.681 152.957)" fill="#99FFCC"/>
<circle r="0.829787" transform="matrix(1 0 0 -1 107.319 152.957)" fill="#99FFCC"/>
<circle r="0.829787" transform="matrix(1 0 0 -1 113.958 152.957)" fill="#99FFCC"/>
<circle r="0.829787" transform="matrix(1 0 0 -1 120.596 152.957)" fill="#99FFCC"/>
<circle r="0.829787" transform="matrix(1 0 0 -1 127.234 152.957)" fill="#99FFCC"/>
<circle r="0.829787" transform="matrix(1 0 0 -1 133.872 152.957)" fill="#99FFCC"/>
<circle r="0.829787" transform="matrix(1 0 0 -1 140.511 152.957)" fill="#99FFCC"/>
<circle r="0.829787" transform="matrix(1 0 0 -1 80.7661 146.319)" fill="#99FFCC"/>
<circle r="0.829787" transform="matrix(1 0 0 -1 74.1278 146.319)" fill="#99FFCC"/>
<circle r="0.829787" transform="matrix(1 0 0 -1 67.4895 146.319)" fill="#99FFCC"/>
<circle r="0.829787" transform="matrix(1 0 0 -1 60.8511 146.319)" fill="#99FFCC"/>
<circle r="0.829787" transform="matrix(1 0 0 -1 87.4044 146.319)" fill="#99FFCC"/>
<circle r="0.829787" transform="matrix(1 0 0 -1 94.0426 146.319)" fill="#99FFCC"/>
<circle r="0.829787" transform="matrix(1 0 0 -1 100.681 146.319)" fill="#99FFCC"/>
<circle r="0.829787" transform="matrix(1 0 0 -1 107.319 146.319)" fill="#99FFCC"/>
<circle r="0.829787" transform="matrix(1 0 0 -1 113.958 146.319)" fill="#99FFCC"/>
<circle r="0.829787" transform="matrix(1 0 0 -1 120.596 146.319)" fill="#99FFCC"/>
<circle r="0.829787" transform="matrix(1 0 0 -1 127.234 146.319)" fill="#99FFCC"/>
<circle r="0.829787" transform="matrix(1 0 0 -1 133.872 146.319)" fill="#99FFCC"/>
<circle r="0.829787" transform="matrix(1 0 0 -1 140.511 146.319)" fill="#99FFCC"/>
<circle r="0.829787" transform="matrix(1 0 0 -1 147.149 146.319)" fill="#99FFCC"/>
<g filter="url(#filter1_dddd)">
<path d="M104.484 133.523H103.8L87.4656 115.951L89.3109 109.013L89.9253 97.3622L86.5082 98.0619L80.0842 95.8334L78.1694 93.7322L81.8601 90.359L85.8938 89.1478L78.7859 85.3924L72.1558 80.2983L69.1489 72.468L80.3577 80.8079L88.627 80.6805L97.9232 79.6632L104.347 81.7624L111.181 79.5986L120.271 80.8079L128.61 80.7452L139.819 72.5327L136.743 80.363L130.251 85.5825L123.141 89.1478L127.312 90.5492L130.796 93.6048L128.61 95.9608L122.527 97.9972L119.177 97.5523L119.861 109.267L121.502 116.078L105.235 133.46L104.484 133.523Z" stroke="white" stroke-linejoin="round" style="mix-blend-mode:screen"/>
<path d="M92.4839 93.4364V88.5027L85.8172 89.0935" stroke="white" stroke-linejoin="round" style="mix-blend-mode:screen"/>
<path d="M104.483 115.638L98.3612 113.664L95.8164 108.854" stroke="white" stroke-linejoin="round" style="mix-blend-mode:screen"/>
<path d="M95.8168 108.854L93.9633 105.07L92.5457 93.4363L89.8161 97.5045" stroke="white" stroke-linejoin="round" style="mix-blend-mode:screen"/>
<path d="M104.484 125.505L94.251 115.34L91.1493 104.684L92.4981 93.3711L96.1124 92.2029" stroke="white" stroke-linejoin="round" style="mix-blend-mode:screen"/>
<path d="M100.484 101.453H104.484" stroke="white" stroke-linejoin="round" style="mix-blend-mode:screen"/>
<path d="M104.395 113.171L98.9095 112.037L96.9397 108.545L100.206 101.334L96.0081 92.3737L98.8051 91.1488L104.395 89.1844L96.1616 89.7318L92.384 88.4623L91.8148 83.9336L104.482 81.7188" stroke="white" stroke-linejoin="round" style="mix-blend-mode:screen"/>
<path d="M71.8149 79.8684L80.4819 80.4851" stroke="white" stroke-linejoin="round" style="mix-blend-mode:screen"/>
<path d="M104.485 89.1191V115.638" stroke="white" stroke-linejoin="round" style="mix-blend-mode:screen"/>
<path d="M92.4839 88.5027L82.7226 92.1065L79.8165 94.6698" stroke="white" stroke-linejoin="round" style="mix-blend-mode:screen"/>
<path d="M105.151 133.523H103.841L87.5679 115.975L89.1075 109.698L90.028 97.4355L86.4979 98.148L80.3541 96.0047L78.0541 93.7244L81.7378 90.444L86.0324 89.158L78.667 85.5938L72.0661 80.3149L69.1489 72.468L80.5099 80.814H88.4883L97.8526 79.7453L104.454 81.7907L97.8526 79.7453" stroke="white" stroke-linejoin="round" style="mix-blend-mode:screen"/>
<path d="M104.482 89.1193L91.9041 83.7434L78.4811 85.3348L80.3312 80.4854L91.9041 83.7434" stroke="white" stroke-linejoin="round" style="mix-blend-mode:screen"/>
<path d="M92.4821 93.4363L97.0319 108.854L104.483 105.986" stroke="white" stroke-linejoin="round" style="mix-blend-mode:screen"/>
<path d="M99.1512 111.938L104.485 105.771" stroke="white" stroke-linejoin="round" style="mix-blend-mode:screen"/>
<path d="M96.6309 89.7358L96.4837 91.9536L104.484 101.453" stroke="white" stroke-linejoin="round" style="mix-blend-mode:screen"/>
<path d="M82.4827 92.2027L81.816 90.3525" stroke="white" stroke-linejoin="round" style="mix-blend-mode:screen"/>
<path d="M98.485 113.788L94.5733 115.404L87.8179 115.638" stroke="white" stroke-linejoin="round" style="mix-blend-mode:screen"/>
<path d="M93.8158 104.73L91.2308 104.537L89.1489 109.471" stroke="white" stroke-linejoin="round" style="mix-blend-mode:screen"/>
<path d="M116.486 93.4364V88.5027L123.153 89.0935" stroke="white" stroke-linejoin="round" style="mix-blend-mode:screen"/>
<path d="M104.485 115.638L110.607 113.664L113.151 108.854" stroke="white" stroke-linejoin="round" style="mix-blend-mode:screen"/>
<path d="M113.15 108.854L115.002 105.07L116.424 93.4363L119.151 97.5045" stroke="white" stroke-linejoin="round" style="mix-blend-mode:screen"/>
<path d="M104.485 125.505L114.717 115.34L117.818 104.684L116.476 93.3711L112.855 92.2029" stroke="white" stroke-linejoin="round" style="mix-blend-mode:screen"/>
<path d="M108.485 101.453H104.485" stroke="white" stroke-linejoin="round" style="mix-blend-mode:screen"/>
<path d="M104.566 113.171L110.057 112.037L112.021 108.545L108.761 101.334L112.952 91.9971L110.155 91.1488L104.566 89.1844L112.799 89.7318L116.583 88.4623L117.152 83.9336L104.485 81.7188" stroke="white" stroke-linejoin="round" style="mix-blend-mode:screen"/>
<path d="M137.153 79.8684L128.486 80.4851" stroke="white" stroke-linejoin="round" style="mix-blend-mode:screen"/>
<path d="M116.486 88.5027L126.247 92.1065L129.153 94.6698" stroke="white" stroke-linejoin="round" style="mix-blend-mode:screen"/>
<path d="M103.816 133.523H105.127L121.399 115.975L119.866 109.698L118.946 97.4355L122.476 98.148L128.613 96.0047L130.92 93.7244L127.236 90.444L122.935 89.158L130.302 85.5918L136.903 80.3129L139.818 72.468L128.459 80.814H120.479L111.115 79.7453L104.514 81.7907L111.115 79.7453" stroke="white" stroke-linejoin="round" style="mix-blend-mode:screen"/>
<path d="M116.485 93.4363L111.931 108.854L104.485 105.986" stroke="white" stroke-linejoin="round" style="mix-blend-mode:screen"/>
<path d="M109.818 111.938L104.485 105.771" stroke="white" stroke-linejoin="round" style="mix-blend-mode:screen"/>
<path d="M112.338 89.7358L112.485 91.9536L104.485 101.453" stroke="white" stroke-linejoin="round" style="mix-blend-mode:screen"/>
<path d="M126.485 92.2027L127.152 90.3525" stroke="white" stroke-linejoin="round" style="mix-blend-mode:screen"/>
<path d="M110.484 113.788L114.396 115.404L121.151 115.638" stroke="white" stroke-linejoin="round" style="mix-blend-mode:screen"/>
<path d="M115.152 104.73L117.734 104.537L119.819 109.471" stroke="white" stroke-linejoin="round" style="mix-blend-mode:screen"/>
<path d="M104.485 81.4767V89.1193L117.066 83.7434L130.486 85.3348L128.635 80.4854L117.066 83.7434" stroke="white" stroke-linejoin="round" style="mix-blend-mode:screen"/>
<path d="M92.4821 93.2887L97.816 95.9031L96.107 92.2029L92.4821 93.2887Z" stroke="white" stroke-linejoin="round" style="mix-blend-mode:screen"/>
<path d="M112.833 92.2029L111.152 95.9031L116.485 93.3733L112.833 92.2029Z" stroke="white" stroke-linejoin="round" style="mix-blend-mode:screen"/>
</g>
<defs>
<filter id="filter0_dddddd" x="0.850006" y="0.850098" width="206.3" height="206.3" filterUnits="userSpaceOnUse" color-interpolation-filters="sRGB">
<feFlood flood-opacity="0" result="BackgroundImageFix"/>
<feColorMatrix in="SourceAlpha" type="matrix" values="0 0 0 0 0 0 0 0 0 0 0 0 0 0 0 0 0 0 127 0" result="hardAlpha"/>
<feOffset/>
<feGaussianBlur stdDeviation="6"/>
<feColorMatrix type="matrix" values="0 0 0 0 0.6 0 0 0 0 1 0 0 0 0 0.801575 0 0 0 1 0"/>
<feBlend mode="normal" in2="BackgroundImageFix" result="effect1_dropShadow"/>
<feColorMatrix in="SourceAlpha" type="matrix" values="0 0 0 0 0 0 0 0 0 0 0 0 0 0 0 0 0 0 127 0" result="hardAlpha"/>
<feOffset/>
<feGaussianBlur stdDeviation="4"/>
<feColorMatrix type="matrix" values="0 0 0 0 0.6 0 0 0 0 1 0 0 0 0 0.801575 0 0 0 1 0"/>
<feBlend mode="normal" in2="effect1_dropShadow" result="effect2_dropShadow"/>
<feColorMatrix in="SourceAlpha" type="matrix" values="0 0 0 0 0 0 0 0 0 0 0 0 0 0 0 0 0 0 127 0" result="hardAlpha"/>
<feOffset/>
<feGaussianBlur stdDeviation="3"/>
<feColorMatrix type="matrix" values="0 0 0 0 0.6 0 0 0 0 1 0 0 0 0 0.801575 0 0 0 1 0"/>
<feBlend mode="normal" in2="effect2_dropShadow" result="effect3_dropShadow"/>
<feColorMatrix in="SourceAlpha" type="matrix" values="0 0 0 0 0 0 0 0 0 0 0 0 0 0 0 0 0 0 127 0" result="hardAlpha"/>
<feOffset/>
<feGaussianBlur stdDeviation="9"/>
<feColorMatrix type="matrix" values="0 0 0 0 0.909804 0 0 0 0 0.0392157 0 0 0 0 0.537255 0 0 0 1 0"/>
<feBlend mode="normal" in2="effect3_dropShadow" result="effect4_dropShadow"/>
<feColorMatrix in="SourceAlpha" type="matrix" values="0 0 0 0 0 0 0 0 0 0 0 0 0 0 0 0 0 0 127 0" result="hardAlpha"/>
<feOffset/>
<feGaussianBlur stdDeviation="12"/>
<feColorMatrix type="matrix" values="0 0 0 0 0.6 0 0 0 0 1 0 0 0 0 0.801575 0 0 0 1 0"/>
<feBlend mode="normal" in2="effect4_dropShadow" result="effect5_dropShadow"/>
<feColorMatrix in="SourceAlpha" type="matrix" values="0 0 0 0 0 0 0 0 0 0 0 0 0 0 0 0 0 0 127 0" result="hardAlpha"/>
<feOffset/>
<feGaussianBlur stdDeviation="9"/>
<feColorMatrix type="matrix" values="0 0 0 0 0.6 0 0 0 0 1 0 0 0 0 0.801575 0 0 0 1 0"/>
<feBlend mode="normal" in2="effect5_dropShadow" result="effect6_dropShadow"/>
<feBlend mode="normal" in="SourceGraphic" in2="effect6_dropShadow" result="shape"/>
</filter>
<filter id="filter1_dddd" x="50.6489" y="53.968" width="107.67" height="98.0545" filterUnits="userSpaceOnUse" color-interpolation-filters="sRGB">
<feFlood flood-opacity="0" result="BackgroundImageFix"/>
<feColorMatrix in="SourceAlpha" type="matrix" values="0 0 0 0 0 0 0 0 0 0 0 0 0 0 0 0 0 0 127 0" result="hardAlpha"/>
<feOffset/>
<feGaussianBlur stdDeviation="3"/>
<feColorMatrix type="matrix" values="0 0 0 0 0.6 0 0 0 0 1 0 0 0 0 0.801575 0 0 0 1 0"/>
<feBlend mode="normal" in2="BackgroundImageFix" result="effect1_dropShadow"/>
<feColorMatrix in="SourceAlpha" type="matrix" values="0 0 0 0 0 0 0 0 0 0 0 0 0 0 0 0 0 0 127 0" result="hardAlpha"/>
<feOffset/>
<feGaussianBlur stdDeviation="9"/>
<feColorMatrix type="matrix" values="0 0 0 0 0.909804 0 0 0 0 0.0392157 0 0 0 0 0.537255 0 0 0 1 0"/>
<feBlend mode="normal" in2="effect1_dropShadow" result="effect2_dropShadow"/>
<feColorMatrix in="SourceAlpha" type="matrix" values="0 0 0 0 0 0 0 0 0 0 0 0 0 0 0 0 0 0 127 0" result="hardAlpha"/>
<feOffset/>
<feGaussianBlur stdDeviation="5"/>
<feColorMatrix type="matrix" values="0 0 0 0 0.6 0 0 0 0 1 0 0 0 0 0.801575 0 0 0 1 0"/>
<feBlend mode="normal" in2="effect2_dropShadow" result="effect3_dropShadow"/>
<feColorMatrix in="SourceAlpha" type="matrix" values="0 0 0 0 0 0 0 0 0 0 0 0 0 0 0 0 0 0 127 0" result="hardAlpha"/>
<feOffset/>
<feGaussianBlur stdDeviation="9"/>
<feColorMatrix type="matrix" values="0 0 0 0 0.6 0 0 0 0 1 0 0 0 0 0.801575 0 0 0 1 0"/>
<feBlend mode="normal" in2="effect3_dropShadow" result="effect4_dropShadow"/>
<feBlend mode="normal" in="SourceGraphic" in2="effect4_dropShadow" result="shape"/>
</filter>
</defs>
</svg>
